<?xml version="1.0" encoding="UTF-8"?>
<svg width="104px" height="25px" viewBox="0 0 104 25" version="1.1" xmlns="http://www.w3.org/2000/svg" xmlns:xlink="http://www.w3.org/1999/xlink">
    <!-- Generator: Sketch 46.2 (44496) - http://www.bohemiancoding.com/sketch -->
    <title>logo</title>
    <desc>Created with Sketch.</desc>
    <defs></defs>
    <g id="Symbols" stroke="none" stroke-width="1" fill="none" fill-rule="evenodd">
        <g id="首页-导航栏" transform="translate(-121.000000, -18.000000)" fill="#FFFFFF">
            <g id="logo">
                <g transform="translate(121.000000, 18.000000)">
                    <polygon id="Fill-3" points="6.09140406 14.8171769 8.7020058 14.8171769 8.7020058 10.4591837 6.09140406 10.4591837"></polygon>
                    <path d="M2.13463556,24.5613886 C1.57277994,24.5613886 1.02183918,24.330855 0.624746031,23.9287372 C0.22765288,23.5250403 0,22.9687071 0,22.3997419 C0,21.8302504 0.22765288,21.2728645 0.624746031,20.8707466 C1.02183918,20.4686288 1.57277994,20.2380952 2.13463556,20.2380952 C2.69701094,20.2380952 3.24639244,20.4686288 3.6445251,20.8707466 C4.04161825,21.2739172 4.26927113,21.8302504 4.26927113,22.3997419 C4.26927113,22.9676544 4.04161825,23.5250403 3.6445251,23.9287372 C3.24639244,24.330855 2.69701094,24.5613886 2.13463556,24.5613886" id="Fill-5"></path>
                    <path d="M7.45406671,23.5574216 C6.74322359,23.5574216 6.0466615,22.9148415 6.0466615,22.1950035 C6.0466615,21.4751656 6.62308237,20.8914509 7.33392549,20.8914509 L18.2650775,20.8914507 L18.2650775,8.26383197 L10.9268536,2.90057773 L3.48791936,8.26383178 L3.52439397,17.1402491 C3.52439397,17.860087 2.90482786,18.4438018 2.19398474,18.4438018 C1.48314162,18.4438018 0.906720756,17.860087 0.906720756,17.1402491 L0.870246147,7.58967587 C0.870246147,7.16654037 1.0730187,6.76970663 1.41385887,6.52560774 L10.1832024,0.239484544 C10.6288463,-0.0798281813 11.2248609,-0.0798281813 11.6705049,0.239484544 L20.4403041,6.52560774 C20.7834226,6.77155237 20.9861951,7.17207758 20.9834611,7.59798169 L20.8891377,22.2037703 C20.884581,22.9199167 20.4296684,23.5574211 19.7220149,23.5574211 L7.45406671,23.5574216 Z" id="Fill-6"></path>
                    <polygon id="Fill-7" points="13.0530087 14.8171769 15.6636104 14.8171769 15.6636104 10.4591837 13.0530087 10.4591837"></polygon>
                    <g id="字" transform="translate(28.434723, 3.571429)">
                        <path d="M53.9718122,3.11565858 C53.5786844,3.11565858 53.1937026,2.95551623 52.916034,2.67651267 C52.6383653,2.39644149 52.4789892,2.01067637 52.4789892,1.61565858 C52.4789892,1.22064078 52.6383653,0.83345217 52.916034,0.554448612 C53.1937026,0.275445053 53.5786844,0.115658576 53.9718122,0.115658576 C54.3649399,0.115658576 54.7492135,0.275445053 55.0279446,0.554448612 C55.3056132,0.834519786 55.4646352,1.22064078 55.4646352,1.61565858 C55.4646352,2.00960875 55.3056132,2.39644149 55.0279446,2.67651267 C54.7492135,2.95551623 54.3649399,3.11565858 53.9718122,3.11565858 L53.9718122,3.11565858 Z" id="Fill-1"></path>
                        <g id="文字" transform="translate(0.000000, 0.339286)">
                            <path d="M0.764114558,2.5656253 C0.486311636,2.28564219 0.327026753,1.89966246 0.327026753,1.50481449 C0.327026753,1.10954422 0.486311636,0.722719894 0.764114558,0.44358138 C1.0414972,0.164442867 1.42689097,0.0048144883 1.81984972,0.0048144883 C2.21280847,0.0048144883 2.59736168,0.164442867 2.87600516,0.44358138 C3.1533878,0.723564488 3.31267269,1.10954422 3.31267269,1.50481449 C3.31267269,1.89881787 3.1533878,2.28564219 2.87600516,2.5656253 C2.59736168,2.84476381 2.21280847,3.00481449 1.81984972,3.00481449 C1.42689097,3.00481449 1.0414972,2.84476381 0.764114558,2.5656253 Z" id="Fill-8"></path>
                            <path d="M15.3837093,13.7836231 L7.87406184,13.7836231 L7.87406184,14.9159835 C7.88021336,15.1613514 7.9454879,15.3215845 8.0695437,15.3970291 C8.15669033,15.4475562 8.3429449,15.4724736 8.62864915,15.4724736 L14.6571456,15.4724736 C14.9736075,15.4724736 15.1755826,15.428522 15.2623875,15.3406187 C15.3556857,15.24614 15.4025056,15.1205144 15.4025056,14.9630499 L15.3837093,13.7836231 Z M7.87406184,12.0380161 L15.3837093,12.0380161 L15.3929366,10.943724 C15.3990881,10.5665013 15.1909615,10.3775438 14.7688984,10.3775438 L8.61019457,10.3775438 C8.31184551,10.3775438 8.11636365,10.4246101 8.02306549,10.5190889 C7.92361581,10.6135676 7.87406184,10.7772615 7.87406184,11.0098245 L7.87406184,12.0380161 Z M5.26513088,11.7601171 L5.26513088,9.8210537 C6.0098074,9.19811703 7.24934009,8.08548291 7.84603821,7.48088826 L5.26513088,7.48088826 L5.26513088,5.73562734 L10.5014474,5.73562734 L10.5014474,3.9806763 L5.38645267,3.9806763 L5.38645267,2.23506931 L10.5014474,2.23506931 L10.5014474,1.17849949 L12.2252419,1.17849949 L12.2252419,2.23506931 L17.3125548,2.23506931 L17.3125548,3.9806763 L12.2252419,3.9806763 L12.2252419,5.73562734 L14.5078002,5.73562734 L16.2315948,5.73562734 L17.4335348,5.73562734 L17.4335348,7.48088826 L9.97549181,7.48088826 L8.66009029,8.63193681 L15.3837093,8.63193681 C16.5514742,8.63193681 17.1355275,9.23272462 17.1355275,10.4343003 L17.1355275,15.1990737 C17.1355275,15.8154349 17.0610257,16.2369554 16.9116803,16.463289 C16.5887251,16.9664834 16.1164245,17.2180806 15.495462,17.2180806 L7.95779096,17.2180806 C7.31803215,17.2180806 6.85222485,17.0543867 6.56036907,16.727691 C6.28696787,16.4193374 6.15026727,15.9472898 6.15026727,15.3122405 L6.15026727,10.925382 L5.26513088,11.7601171 Z M0.326821702,6.42410649 L0.326821702,4.67849949 L1.6593108,4.67849949 C2.40467082,4.67849949 2.90157751,4.76363417 3.1503726,4.93321138 C3.39233266,5.10313466 3.56970169,5.28551668 3.68111268,5.4807035 C3.82430656,5.7323007 3.89573262,6.09706473 3.89573262,6.57499559 L3.89573258,17.0963662 L2.17193802,17.0963662 L2.17193805,7.29206492 C2.17193805,6.93975962 2.12545985,6.71031128 2.03216169,6.60337382 C1.93886353,6.48397762 1.73688839,6.42410649 1.42657803,6.42410649 L0.326821702,6.42410649 Z" id="Fill-9"></path>
                            <path d="M34.302218,7.49995705 L21.7052577,7.49995705 L21.7052577,7.6415021 C21.7052577,7.84291829 21.8980055,7.94328031 22.2828177,7.94328031 L33.7338852,7.94328031 C34.1128877,7.94328031 34.302218,7.82388412 34.302218,7.58474565 L34.302218,7.49995705 Z M21.7052577,5.99037384 L34.302218,5.99037384 L34.302218,5.87720701 C34.302218,5.77649891 34.2680428,5.70416904 34.1996925,5.6602174 C34.1374938,5.62214905 33.9262913,5.60346095 33.5660853,5.60346095 L22.6464413,5.60346095 C22.1245868,5.60346095 21.832731,5.63183917 21.7705322,5.68824955 C21.7271298,5.72597183 21.7052577,5.78930372 21.7052577,5.87720701 L21.7052577,5.99037384 Z M20.065534,8.35857143 L20.065534,5.1411035 C20.065534,4.76388074 20.1588321,4.49636405 20.3450867,4.33924557 C20.5501376,4.15686356 20.9506704,4.06549951 21.5470267,4.06549951 L34.4884726,4.06549951 C35.1036253,4.06549951 35.5103095,4.15997824 35.7092089,4.34858962 C35.8643641,4.49947873 35.9422834,4.75107593 35.9422834,5.10338123 L35.9422834,8.00003676 C35.9422834,8.57867572 35.8643641,8.95312988 35.7092089,9.12270708 C35.5287641,9.31789391 35.1688998,9.41514124 34.6285907,9.41514124 L21.4537286,9.41514124 C20.8823201,9.41514124 20.4971661,9.31789391 20.2982668,9.12270708 C20.1431116,8.96558861 20.065534,8.71087673 20.065534,8.35857143 L20.065534,8.35857143 Z M19.5436794,13.2936142 L19.5436794,11.0662695 C19.9165303,10.7603384 20.4247148,10.1553977 21.0067176,9.56603035 L22.9071977,9.56603035 L22.4547187,10.0380779 L34.6285907,10.0380779 C35.2434016,10.0380779 35.6500859,10.1041784 35.8489853,10.2360334 C36.3209441,10.5568457 36.5570944,10.9690222 36.5570944,11.4722166 L36.5570944,15.5386088 C36.5570944,16.0355738 36.4139005,16.4256014 36.128538,16.7086915 C35.960738,16.8720393 35.8209617,16.9758621 35.7092089,17.0201598 C35.4915132,17.1018337 35.1593308,17.1426707 34.7123198,17.1426707 L33.1935761,17.1426707 L33.1935761,15.5386088 L34.134418,15.5386088 C34.351772,15.5386088 34.5134204,15.4853131 34.6190216,15.3783756 C34.7246228,15.2714381 34.7772526,15.0354144 34.7772526,14.6706503 L34.7772526,12.6326092 C34.7772526,12.2114348 34.7246228,11.9470328 34.6190216,11.8400953 C34.5072689,11.7269285 34.3644168,11.670172 34.1904653,11.670172 L29.4479797,11.670172 C29.913787,12.1041512 30.3949731,12.4408831 30.8922215,12.6796755 C31.3703319,12.9063552 31.9731815,13.0980813 32.6997452,13.2555458 L32.6997452,14.7554389 C31.5876858,14.5291053 30.71827,14.2712787 30.0908143,13.9819592 C29.4199561,13.6798349 28.7367948,13.2050188 28.0409888,12.5571646 C27.3390312,13.2178236 26.6028984,13.7113278 25.8329323,14.0383696 C25.2054766,14.2965422 24.394842,14.5353346 23.4010286,14.7554389 L23.4010286,13.2555458 C24.0906832,13.0793932 24.6555984,12.8966651 25.0967996,12.7080537 C25.6309572,12.4754907 26.1278639,12.1294148 26.5875196,11.670172 L21.0480696,11.670172 C20.7774024,11.9442641 20.6929897,12.0702358 20.4264236,12.340175 L22.1338141,12.340175 L22.1338141,14.4630048 C22.1338141,14.7398655 22.1649135,14.9160182 22.2271122,14.9914627 C22.3327134,15.1046295 22.6061146,15.161386 23.0469741,15.161386 L32.7834743,15.161386 L32.7834743,16.7654479 L22.1338141,16.7654479 C21.5063583,16.7654479 21.0470443,16.6235568 20.7551885,16.3408128 C20.4691425,16.0511472 20.3262904,15.6078239 20.3262904,15.0104969 L20.3262904,12.4429596 L19.5436794,13.2936142 Z M19.4226994,3.22591931 L19.4226994,1.75405837 L21.9940377,1.75405837 L21.9940377,1.1311217 L23.7178323,1.1311217 L23.7178323,1.75405837 L32.2896434,1.75405837 L32.2896434,1.1311217 L34.013438,1.1311217 L34.013438,1.75405837 L36.6131416,1.75405837 L36.6131416,3.22591931 L34.013438,3.22591931 L34.013438,3.83916585 L32.2896434,3.83916585 L32.2896434,3.22591931 L23.7178323,3.22591931 L23.7178323,3.83916585 L21.9940377,3.83916585 L21.9940377,3.22591931 L19.4226994,3.22591931 Z" id="Fill-10"></path>
                            <path d="M60.0504595,5.20713479 L72.3586398,5.20713479 C72.6443441,5.20713479 72.8244471,5.1725272 72.898949,5.10331201 C72.9983986,5.00294999 73.0479526,4.85206089 73.0479526,4.6506447 L73.0479526,4.27307586 C73.0479526,4.05920093 72.9888296,3.88616297 72.8709253,3.75396196 C72.7841204,3.65982931 72.5759938,3.61276298 72.2465453,3.61276298 L61.9977596,3.61276298 C61.1840493,3.61276298 60.6932941,3.66294399 60.5254941,3.76365209 C60.2090322,3.95226347 60.0504595,4.28241991 60.0504595,4.7541214 L60.0504595,5.20713479 Z M58.326665,17.2419253 L58.326665,4.43365509 C58.326665,2.72265569 59.2647728,1.86715599 61.1406468,1.86715599 L65.7153324,1.86715599 L65.7153324,1.06495198 L67.4483543,1.06495198 L67.4483543,1.86715599 L72.5264398,1.86715599 C73.2841029,1.86715599 73.7779338,1.94571522 74.0079326,2.1028337 C74.5044975,2.43645089 74.7529508,2.96490884 74.7529508,3.68820753 L74.7529508,5.26389124 C74.7529508,5.76708565 74.5977957,6.178916 74.2871435,6.49972839 C73.9952878,6.8015066 73.6039823,6.95274178 73.1132271,6.95274178 L68.641067,6.95274178 L68.641067,8.01900173 L74.7529508,8.01900173 L74.7529508,9.76426264 L63.3726259,9.76426264 L63.3644238,11.1229567 L72.2280908,11.1229567 C73.0356496,11.1229567 73.5571623,11.2046307 73.7933126,11.3683246 C74.3151672,11.7330886 74.5759236,12.2522025 74.5759236,12.9249741 L74.5759236,14.4535915 C74.5759236,15.3530428 74.5482417,15.8846155 74.4921944,16.0483094 C74.3804417,16.3625463 74.1692393,16.6394071 73.8585872,16.8785455 C73.6039823,17.0671569 73.1720084,17.1616357 72.5636907,17.1616357 L70.5975943,17.1616357 L70.5975943,15.6423623 L71.9393107,15.6423623 C72.2810622,15.6423623 72.5107192,15.5731471 72.6286235,15.4347168 C72.7591726,15.290057 72.8244471,15.0761821 72.8244471,14.793092 L72.8244471,13.6043212 C72.8244471,13.2146397 72.7779689,12.9723865 72.6846708,12.8779078 C72.572918,12.7585116 72.3244647,12.6986405 71.9393107,12.6986405 L63.2536964,12.6986405 C63.2072181,12.997304 63.2297737,17.2419253 63.2297737,17.2419253 L61.8251751,17.2419253 L61.8015942,9.76426264 L60.7120904,9.76426264 L60.7120904,8.01900173 L66.9172724,8.01900173 L66.9172724,6.95274178 L60.0504595,6.95274178 L60.0504595,17.2419253 L58.326665,17.2419253 Z" id="Fill-11"></path>
                            <path d="M46.5778294,15.8594558 L46.5778294,13.6989037 L50.6494567,10.8870368 C50.3141985,9.56018167 50.022001,7.91216809 49.7735476,5.94299604 L46.8109039,5.94299604 L46.8109039,4.20707918 L49.5127912,4.20707918 L49.0654385,1.12181226 L50.8076877,1.12181226 L51.2642677,4.20707918 L55.7275423,4.20707918 L55.7275423,5.94299604 L51.5157968,5.94299604 C51.739644,7.55986279 51.956998,8.85557107 52.1682004,9.83046697 C52.9074089,9.32727257 53.376292,8.88083462 53.5751913,8.49046097 C53.6681477,8.30807895 53.7580284,8.04090833 53.845175,7.68860303 L55.6062205,7.68860303 C55.6062205,8.00941542 55.5378702,8.34268654 55.4011696,8.68876247 C55.1527163,9.31792852 54.8048132,9.86818924 54.3578023,10.3398907 C54.0160508,10.6984254 53.4600211,11.1261753 52.6900549,11.6231403 C53.1931132,12.8748969 53.7115502,13.7930364 54.2460495,14.3779047 C54.6370132,14.81223 55.1496405,15.1645353 55.7832478,15.4348206 L55.7832478,17.1804276 C54.9384381,16.9852408 54.289452,16.7211848 53.8359477,16.3879137 C53.1838859,15.9034074 52.6063258,15.2524386 52.1029259,14.4346611 C51.8421695,14.0134867 51.5468962,13.4126989 51.2177895,12.6326438 L46.5778294,15.8594558 Z" id="Fill-12"></path>
                            <path d="M43.5032278,4.64098918 L46.2515934,4.64098918 L46.2515934,2.83897181 L43.5032278,2.83897181 L43.5032278,1.23490987 L41.7794332,1.23490987 L41.7794332,2.83897181 L38.4811895,2.83897181 L38.4811895,4.64098918 L41.7794332,4.64098918 L41.7794332,9.32235829 L38.4811895,10.5277408 L38.4811895,12.3449855 L41.7794332,11.139603 L41.7794332,11.4531478 L41.7794332,13.9345122 C41.7794332,14.3750669 41.7483339,14.6927646 41.6864768,14.8876053 C41.6550357,14.9758547 41.5897612,15.073102 41.4906532,15.1800395 C41.2794508,15.4001438 40.9035242,15.5101959 40.363215,15.5101959 L39.5898314,15.5101959 L39.5898314,17.265147 L40.6707914,17.265147 C41.1861526,17.265147 41.5866854,17.2211953 41.8727314,17.133292 C42.3692963,16.9758275 42.7763224,16.6709346 43.093126,16.2179212 C43.3665272,15.8278936 43.5032278,15.1236291 43.5032278,14.1044355 L43.5032278,10.5097448 L46.1606875,9.53900182 L46.1606875,7.72175711 L43.5032278,8.69284617 L43.5032278,8.50008188 L43.5032278,4.64098918 Z" id="Fill-13"></path>
                        </g>
                    </g>
                </g>
            </g>
        </g>
    </g>
</svg>