<?xml version="1.0" standalone="no"?><!DOCTYPE svg PUBLIC "-//W3C//DTD SVG 1.1//EN" "http://www.w3.org/Graphics/SVG/1.1/DTD/svg11.dtd"><svg width="200" height="200" viewBox="0 0 200 200" version="1.1" xmlns="http://www.w3.org/2000/svg" xmlns:xlink="http://www.w3.org/1999/xlink"><defs><style type="text/css"><![CDATA[
@font-face { font-family: ifont; src: url(http://at.alicdn.com/t/font_1442373896_4754455.eot?#iefix) format(embedded-opentype), url(http://at.alicdn.com/t/font_1442373896_4754455.woff) format(woff), url(http://at.alicdn.com/t/font_1442373896_4754455.ttf) format(truetype), url(http://at.alicdn.com/t/font_1442373896_4754455.svg#ifont) format(svg); }

]]></style></defs><g class="transform-group"><g transform="scale(0.1953125, 0.1953125)"><path d="M1016.285 510.275c0 278.965-226.156 505.113-505.134 505.113-278.976 0-505.133-226.147-505.133-505.113 0-278.965 226.156-505.111 505.133-505.111 278.978 0 505.134 226.146 505.134 505.111zM576.204 800.129c-57.177-32.996-82.996-83.694-83.287-148.485-0.259-57.276 38.91-98.622 60.308-147.136 5.163-11.706 11.713-22.839 18.108-33.957 3.947-6.864 7.765-14.337 13.456-19.558 14.56-13.362 21.044-38.062 15.141-54.919-4.914-14.038-7.724-28.883-10.644-43.532-4.257-21.363-5.867-43.431-11.934-64.225-30.814-105.633-167.996-117.698-228.259-55.499-27.137 28.009-37.343 62.105-42.172 99.132-2.57 19.705-3.412 40.151-9.612 58.734-8.119 24.342-4.925 45.273 14.62 62.354 4.127 3.611 7.9 8.877 9.349 14.069 5.426 19.466 15.114 35.746 30.993 48.486 16.576 13.296 19.395 31.535 17.197 51.313-3.294 29.639-24.736 43.362-48.853 53.151-24.037 9.761-49.363 16.324-73.534 25.794-19.687 7.71-39.323 18.857-41.737 42.032-2.85 27.356-1.58 55.169-1.479 82.786 0.055 15.209 10.505 21.783 23.814 24.172 18.002 3.232 36.103 5.964 54.224 8.475 86.898 12.038 174.062 17.627 261.68 9.459 13.27-1.238 26.402-3.953 43.298-6.554-5.847-3.335-8.269-4.703-10.677-6.092zM817.314 653.378c0-77.615-62.924-140.537-140.542-140.537v0c-77.618 0-140.542 62.921-140.542 140.537v0c0 77.615 62.924 140.537 140.542 140.537v0c77.618 0 140.542-62.921 140.542-140.537v0zM733.6 676.773c4.137 0 8.272 0 12.407 0 17.685-0.018 29.443-9.565 29.187-23.707-0.256-14.31-11.693-24.186-28.93-24.877-4.128-0.162-8.272-0.011-12.406-0.063-35.999-0.473-32.096 4.992-32.781-31.723-0.119-6.438-0.617-12.976-1.918-19.266-2.762-13.357-11.153-20.727-25.060-19.843-14.599 0.928-20.055 11.143-21.111 23.99-0.82 9.984-1.003 20.142-0.138 30.109 1.186 13.619-4.727 18.149-17.548 16.851-6.434-0.653-12.989-0.194-19.489-0.083-20.255 0.342-30.171 8.002-30.931 23.787-0.762 15.781 8.163 23.137 29.748 24.53 37.703 2.431 37.703 2.431 38.049 38.899 0.209 22.325 7.685 32.903 23.237 32.878 15.369-0.025 24.332-11.463 25.261-32.281 0.107-2.361 0.010-4.729 0.038-7.092 0.453-35.434-4.097-32.037 32.383-32.108z" fill="#272636"></path></g></g></svg>