<?xml version="1.0" standalone="no"?><!DOCTYPE svg PUBLIC "-//W3C//DTD SVG 1.1//EN" "http://www.w3.org/Graphics/SVG/1.1/DTD/svg11.dtd"><svg t="1484981740691" class="icon" style="" viewBox="0 0 1024 1024" version="1.1" xmlns="http://www.w3.org/2000/svg" p-id="1995" xmlns:xlink="http://www.w3.org/1999/xlink" width="1024" height="1024"><defs><style type="text/css"></style></defs><path d="M693.214 378.296c11.749 0 23.373 0.847 34.902 2.162-31.361-146.062-187.48-254.527-365.688-254.527C163.199 125.931 0 261.717 0 434.159c0 99.537 54.295 181.277 145.028 244.689l-36.25 109.029 126.7-63.537c45.335 8.961 81.71 18.172 126.95 18.172 11.373 0 22.652-0.564 33.837-1.441-7.08-24.219-11.185-49.596-11.185-75.945C385.081 506.783 521.054 378.296 693.214 378.296zM498.34 280.014c27.288 0 45.366 17.983 45.366 45.241 0 27.164-18.078 45.366-45.366 45.366-27.163 0-54.421-18.203-54.421-45.366C443.919 297.997 471.177 280.014 498.34 280.014zM244.689 370.621c-27.163 0-54.577-18.203-54.577-45.366 0-27.257 27.414-45.241 54.577-45.241 27.164 0 45.241 17.983 45.241 45.241C289.931 352.418 271.854 370.621 244.689 370.621z" p-id="1996"></path><path d="M1024 660.803c0-144.936-144.997-263.05-307.852-263.05-172.442 0-308.259 118.115-308.259 263.05 0 145.121 135.816 262.986 308.259 262.986 36.092 0 72.498-9.086 108.747-18.172l99.411 54.451-27.258-90.605C969.798 814.885 1024 742.512 1024 660.803zM616.204 615.436c-18.046 0-36.249-17.951-36.249-36.279 0-18.047 18.203-36.219 36.249-36.219 27.414 0 45.366 18.172 45.366 36.219C661.57 597.484 643.618 615.436 616.204 615.436zM815.559 615.436c-17.92 0-35.998-17.951-35.998-36.279 0-18.047 18.078-36.219 35.998-36.219 27.164 0 45.367 18.172 45.367 36.219C860.926 597.484 842.723 615.436 815.559 615.436z" p-id="1997"></path></svg>