<?xml version="1.0" standalone="no"?><!DOCTYPE svg PUBLIC "-//W3C//DTD SVG 1.1//EN" "http://www.w3.org/Graphics/SVG/1.1/DTD/svg11.dtd"><svg xmlns:xlink="http://www.w3.org/1999/xlink" xmlns="http://www.w3.org/2000/svg" version="1.1" width="201.171875" height="200" viewBox="0 0 201.171875 200"><defs><style type="text/css"><![CDATA[
@font-face {
  font-family: "ifont";
  src: url("//at.alicdn.com/t/font_1442373896_4754455.eot?#iefix") format("embedded-opentype"), url("//at.alicdn.com/t/font_1442373896_4754455.woff") format("woff"), url("//at.alicdn.com/t/font_1442373896_4754455.ttf") format("truetype"), url("//at.alicdn.com/t/font_1442373896_4754455.svg#ifont") format("svg");
}

]]></style></defs><g class="transform-group"><g transform="scale(0.1953125, 0.1953125)"><path d="M1016.02816 587.86816c-12.52864 18.54976-33.41824 28.70784-58.81856 28.70784l-55.11168 0-1.24928 301.91104-0.89088 3.15904c-0.82944 3.18976-5.94944 20.33152-19.22048 37.86752-20.68992 27.49952-49.94048 42.03008-84.46976 42.03008l-187.60192 0 0-38.83008c0.10752-69.22752 0.32256-279.79776 0-288.69632-0.0512-0.60928-0.72192-2.14016-1.39776-3.45088l-177.99168 0.13824c-0.47104 0.66048-0.82944 1.47968-0.82944 2.38592l0 328.44288L239.54944 1001.53344c-0.26112 0-2.6112 0.14848-5.4784 0.14848-47.06816 0-94.61248-27.2384-94.61248-88.07936l0-294.9888L82.2016 618.61376c-17.81248 0-37.14048-9.66144-51.72224-25.71776-14.52032-16.06144-22.50752-36.64896-22.50752-57.98912l0-13.67552 2.33984-2.19136 468.43904-428.71296c8.50944-7.6288 19.91168-11.392 33.89952-11.392 15.15008 0 27.1616 3.75808 35.63008 11.22816 0.53248 0.46592 35.61984 32.0768 86.50752 77.85984l-84.32128 20.18304-36.78208-33.08544L86.528 546.12992c1.18784 2.24256 2.56 3.8656 3.6096 4.992l125.2096 0 0 362.49088c0 15.55456 4.55168 20.5312 18.69824 20.5312l3.51232-0.18944 114.97984 0.09728 0-260.95104c0-37.24288 34.0992-69.87264 73.06752-69.87264l187.01824 0c23.3984 0 43.77088 10.35264 57.4976 29.21984 10.1376 13.93664 14.05952 29.57824 14.42816 39.64928 0.3584 10.67008 0.1024 219.5712 0.0512 261.95456l111.6416 0c16.96768 0 25.6512-16.96768 28.928-25.41568l1.19808-359.54688 124.95872 0-26.91072-24.19712 12.6976-84.67968c43.15136 38.84032 74.1888 66.7904 81.08032 72.99072L1029.12 523.008l0 13.88032C1029.14048 558.18752 1024.86016 574.85824 1016.02816 587.86816zM922.05056 138.92608l-56.15104 375.91552-95.86176-85.8624c0 0-269.50144 250.13248-471.40864 69.22752 0 0 114.29888 40.20736 250.28096-75.78624 22.25152-18.95424 54.65088-49.04448 101.96992-100.33152l-103.63904-92.81536L922.05056 138.92608z" fill="#272636"></path></g></g></svg>