<?xml version="1.0" encoding="utf-8"?>
<!-- Generated by IcoMoon.io -->
<!DOCTYPE svg PUBLIC "-//W3C//DTD SVG 1.1//EN" "http://www.w3.org/Graphics/SVG/1.1/DTD/svg11.dtd">
<svg version="1.1" xmlns="http://www.w3.org/2000/svg" xmlns:xlink="http://www.w3.org/1999/xlink" width="1024" height="1024" viewBox="0 0 1024 1024">
<g id="icomoon-ignore">
</g>
<path d="M950.857 365.714q30.286 0 51.714 21.429t21.429 51.714-21.429 51.714-51.714 21.429v219.429q0 29.714-21.714 51.429t-51.429 21.714q-238.286-198.286-464-217.143-33.143 10.857-52 37.714t-17.714 57.429 22.857 52.857q-11.429 18.857-13.143 37.429t3.429 33.143 19.143 31.429 27.429 28.571 35.143 28.857q-16.571 33.143-63.714 47.429t-96.286 6.571-75.429-31.714q-4-13.143-16.857-50t-18.286-54-13.143-50.857-8.571-57.714 2-56.286 12.571-63.143h-69.714q-37.714 0-64.571-26.857t-26.857-64.571v-109.714q0-37.714 26.857-64.571t64.571-26.857h274.286q248.571 0 512-219.429 29.714 0 51.429 21.714t21.714 51.429v219.429zM877.714 710.857v-545.143q-225.143 172.571-438.857 196v154.286q215.429 24 438.857 194.857z"></path>
</svg>
