<?xml version="1.0" encoding="utf-8"?>
<!-- Generated by IcoMoon.io -->
<!DOCTYPE svg PUBLIC "-//W3C//DTD SVG 1.1//EN" "http://www.w3.org/Graphics/SVG/1.1/DTD/svg11.dtd">
<svg version="1.1" xmlns="http://www.w3.org/2000/svg" xmlns:xlink="http://www.w3.org/1999/xlink" width="1024" height="1024" viewBox="0 0 1024 1024">
<g id="icomoon-ignore">
</g>
<path d="M487.692 648.612c-0.946-0.654-110.235-184.391-110.598-186.753-22.599-49.377-40.838-99.88-2.835-122.298l-157.723-265.958c-40.874 30.556-156.486 196.38 59.913 572.174 227.954 396.032 444.9 379.573 488.39 352.758l-153.689-259.599c-36.333 21.365-66.925-13.843-123.461-90.324zM870.318 897.749l0.036-0.218c0 0-120.009-202.231-120.082-202.303-9.518-16.023-29.975-21.074-45.925-11.771l-73.538 43.491 154.125 260.363c0 0 73.538-43.272 73.502-43.418h0.145c16.894-10.028 20.781-30.738 11.735-46.143zM467.892 284.409v-0.145c16.894-9.991 20.856-30.7 11.807-45.961l0.072-0.218c0 0-123.461-208.154-123.533-208.19-9.482-16.095-30.012-21.074-45.889-11.771l-73.538 43.491 157.54 266.104c0 0 73.502-43.2 73.538-43.308z"></path>
</svg>
