<?xml version="1.0" encoding="utf-8"?>
<!-- Generated by IcoMoon.io -->
<!DOCTYPE svg PUBLIC "-//W3C//DTD SVG 1.1//EN" "http://www.w3.org/Graphics/SVG/1.1/DTD/svg11.dtd">
<svg version="1.1" xmlns="http://www.w3.org/2000/svg" xmlns:xlink="http://www.w3.org/1999/xlink" width="1024" height="1024" viewBox="0 0 1024 1024">
<g id="icomoon-ignore">
</g>
<path d="M480 66.162c-207.432 0-375.443 23.464-375.443 187.721v445.837c0 90.81 73.682 164.256 164.256 164.256l-70.396 70.396v23.464h563.164v-23.464l-70.396-70.396c90.81 0 164.256-73.445 164.256-164.256v-445.837c0-164.256-168.010-187.721-375.443-187.721zM268.813 770.116c-38.951 0-70.396-31.444-70.396-70.396s31.444-70.396 70.396-70.396 70.396 31.444 70.396 70.396-31.444 70.396-70.396 70.396zM433.069 488.535h-234.652v-234.652h234.652v234.652zM691.187 770.116c-38.951 0-70.396-31.444-70.396-70.396s31.444-70.396 70.396-70.396 70.396 31.444 70.396 70.396-31.444 70.396-70.396 70.396zM761.581 488.535h-234.652v-234.652h234.652v234.652z"></path>
</svg>
