<?xml version="1.0" encoding="utf-8"?>
<!-- Generated by IcoMoon.io -->
<!DOCTYPE svg PUBLIC "-//W3C//DTD SVG 1.1//EN" "http://www.w3.org/Graphics/SVG/1.1/DTD/svg11.dtd">
<svg version="1.1" xmlns="http://www.w3.org/2000/svg" xmlns:xlink="http://www.w3.org/1999/xlink" width="1088" height="1024" viewBox="0 0 1088 1024">
<g id="icomoon-ignore">
</g>
<path d="M992 64h-224c-52.8 0-126.546 30.546-163.882 67.882l-376.236 376.236c-37.334 37.334-37.334 98.428 0 135.764l280.236 280.234c37.334 37.336 98.428 37.336 135.764 0l376.234-376.234c37.338-37.336 67.884-111.082 67.884-163.882v-224c0-52.8-43.2-96-96-96zM864 384c-53.020 0-96-42.98-96-96s42.98-96 96-96 96 42.98 96 96-42.98 96-96 96zM86.626 598.626l342.378 342.378c-36.264 19.16-82.462 13.538-112.886-16.888l-280.236-280.234c-37.334-37.336-37.334-98.43 0-135.764l376.236-376.236c37.336-37.336 111.082-67.882 163.882-67.882l-489.374 489.372c-12.444 12.446-12.444 32.808 0 45.254z"></path>
</svg>
