<?xml version="1.0" encoding="utf-8"?>
<!-- Generated by IcoMoon.io -->
<!DOCTYPE svg PUBLIC "-//W3C//DTD SVG 1.1//EN" "http://www.w3.org/Graphics/SVG/1.1/DTD/svg11.dtd">
<svg version="1.1" xmlns="http://www.w3.org/2000/svg" xmlns:xlink="http://www.w3.org/1999/xlink" width="1024" height="1024" viewBox="0 0 1024 1024">
<g id="icomoon-ignore">
</g>
<path d="M237.429 855.215q0-28.423-20.11-48.532t-48.532-20.11-48.532 20.11-20.11 48.532 20.11 48.532 48.532 20.11 48.532-20.11 20.11-48.532zM443.357 855.215q0-28.423-20.11-48.532t-48.532-20.11-48.532 20.11-20.11 48.532 20.11 48.532 48.532 20.11 48.532-20.11 20.11-48.532zM237.429 649.286q0-28.423-20.11-48.532t-48.532-20.11-48.532 20.11-20.11 48.532 20.11 48.532 48.532 20.11 48.532-20.11 20.11-48.532zM649.286 855.215q0-28.423-20.11-48.532t-48.532-20.11-48.532 20.11-20.11 48.532 20.11 48.532 48.532 20.11 48.532-20.11 20.11-48.532zM443.357 649.286q0-28.423-20.11-48.532t-48.532-20.11-48.532 20.11-20.11 48.532 20.11 48.532 48.532 20.11 48.532-20.11 20.11-48.532zM237.429 443.357q0-28.423-20.11-48.532t-48.532-20.11-48.532 20.11-20.11 48.532 20.11 48.532 48.532 20.11 48.532-20.11 20.11-48.532zM649.286 649.286q0-28.423-20.11-48.532t-48.532-20.11-48.532 20.11-20.11 48.532 20.11 48.532 48.532 20.11 48.532-20.11 20.11-48.532zM443.357 443.357q0-28.423-20.11-48.532t-48.532-20.11-48.532 20.11-20.11 48.532 20.11 48.532 48.532 20.11 48.532-20.11 20.11-48.532zM855.214 855.215v-205.929q0-27.885-20.378-48.265t-48.265-20.378-48.265 20.378-20.378 48.265v205.929q0 27.885 20.378 48.265t48.265 20.378 48.265-20.378 20.378-48.265zM649.286 443.357q0-28.423-20.11-48.532t-48.532-20.11-48.532 20.11-20.11 48.532 20.11 48.532 48.532 20.11 48.532-20.11 20.11-48.532zM855.214 271.75v-137.286q0-13.943-10.189-24.132t-24.132-10.189h-686.429q-13.943 0-24.132 10.189t-10.189 24.132v137.286q0 13.943 10.189 24.132t24.132 10.189h686.429q13.943 0 24.132-10.189t10.189-24.132zM855.214 443.357q0-28.423-20.11-48.532t-48.532-20.11-48.532 20.11-20.11 48.532 20.11 48.532 48.532 20.11 48.532-20.11 20.11-48.532zM923.857 100.143v823.714q0 27.885-20.378 48.265t-48.265 20.378h-755.071q-27.885 0-48.265-20.378t-20.378-48.265v-823.714q0-27.885 20.378-48.265t48.265-20.378h755.071q27.885 0 48.265 20.378t20.378 48.265z"></path>
</svg>
