<?xml version="1.0" standalone="no"?><!DOCTYPE svg PUBLIC "-//W3C//DTD SVG 1.1//EN" "http://www.w3.org/Graphics/SVG/1.1/DTD/svg11.dtd"><svg t="1506568201524" class="icon" style="" viewBox="0 0 1025 1024" version="1.1" xmlns="http://www.w3.org/2000/svg" p-id="3560" xmlns:xlink="http://www.w3.org/1999/xlink" width="850.830078125" height="850"><defs><style type="text/css"></style></defs><path d="M976.003 686.875 48 686.875c-26.498 0-48-20.687-48-46.219 0-25.533 21.502-46.222 48-46.222L976.001 594.434c26.497 0 47.999 20.689 47.999 46.222C1024 666.188 1002.5 686.875 976.003 686.875zM976.003 440.341 48 440.341c-26.498 0-48-20.685-48-46.186 0-25.532 21.502-46.25 48-46.25L976.001 347.905c26.497 0 47.999 20.716 47.999 46.25C1024.002 419.657 1002.5 440.341 976.003 440.341zM976.003 193.841 48 193.841c-26.498 0-48-20.688-48-46.22 0-25.53 21.502-46.219 48-46.219L976.001 101.402c26.497 0 47.999 20.687 47.999 46.219C1024.002 173.154 1002.5 193.841 976.003 193.841zM48 840.969 976.001 840.969c26.497 0 47.999 20.688 47.999 46.186 0 25.529-21.502 46.253-47.999 46.253L48 933.408c-26.498 0-48-20.72-48-46.253C0 861.657 21.502 840.969 48 840.969z" p-id="3561"></path></svg>