<?xml version="1.0" encoding="utf-8"?>
<!-- Generated by IcoMoon.io -->
<!DOCTYPE svg PUBLIC "-//W3C//DTD SVG 1.1//EN" "http://www.w3.org/Graphics/SVG/1.1/DTD/svg11.dtd">
<svg version="1.1" xmlns="http://www.w3.org/2000/svg" xmlns:xlink="http://www.w3.org/1999/xlink" width="1024" height="1024" viewBox="0 0 1024 1024">
<g id="icomoon-ignore">
</g>
<path d="M740.671 282.976c-3.017-79.233-20.216-131.601-46.091-167.363h0.066c-18.102-28.363-57.19-58.578-81.238-73.266-158.092-96.454-243.756 26.888-253.622 42.237-14.534 5.197-105.021 45.012-78.837 185.818-0.286 4.669-0.507 9.447-0.705 14.314-19.225 8.897-33.627 29.531-29.795 76.238 4.096 49.527 28.981 71.834 56.001 77.604 38.251 93.746 114.159 171.107 204.007 171.107 89.605 0 165.359-76.987 203.721-170.402 28.429-4.492 55.45-26.514 59.701-78.286 4.118-49.482-12.31-70.007-33.209-78.001zM510.502 566.107c-93.151 0-169.984-113.719-184.584-221.338 6.958-38.758 28.452-122.153 90.134-183.638 47.413 51.244 134.155 110.217 280.158 105.196 0.903 13.169 1.366 27.329 1.366 42.524 0 116.516-83.461 257.255-187.073 257.255zM504.16 351.926c0-2.951-0.198-5.682-0.55-8.148h17.198c-0.352 2.466-0.529 5.197-0.529 8.148 0 46.399 46.047 46.333 68.2 46.333 22.132 0 68.2-0.066 68.2-46.465s-46.069-46.488-68.2-46.488c-15.636 0-43.14 0.243-58.005 16.274h-36.534c-14.843-16.032-42.369-16.274-57.983-16.274-22.153 0-68.2 0.044-68.2 46.443s46.047 46.399 68.2 46.399c22.132 0.044 68.2 0.198 68.2-46.223zM588.458 327.173c39.462 0 46.399 7.949 46.399 24.62s-6.958 24.62-46.399 24.62c-39.462 0-46.399-7.928-46.399-24.62s6.937-24.62 46.399-24.62zM389.538 351.815c0-16.67 6.937-24.62 46.399-24.62s46.399 7.949 46.399 24.62-6.958 24.62-46.399 24.62c-39.441-0.022-46.399-7.949-46.399-24.62zM712.308 602.002l-26.404-6.54-174.873 397.774-174.807-397.664-25.413 6.453c-103.809 25.985-176.26 119.246-176.26 226.271v140.498c0 27.637 21.669 49.702 49.35 49.702h654.413c27.659 0 51.134-22.066 51.134-49.725v-140.498c-0.022-107.025-73.332-200.286-177.141-226.271zM636.201 876.654l49.24-53.226c11.606-12.618 31.534-12.75 43.14-0.132l49.24 53.358h-141.621zM512.771 920.477l58.401-148.315-27.086-27.086c17.111-2.18 29.090-18.894 24.906-36.225l-11.979-49.945c-3.215-13.301-15.084-22.792-28.738-22.792h-32.107c-13.675 0-25.545 9.492-28.76 22.792l-11.979 49.879c-4.162 17.331 7.796 34.068 24.906 36.248l-27.086 27.108 59.524 148.337z"></path>
</svg>
