<?xml version="1.0" standalone="no"?><!DOCTYPE svg PUBLIC "-//W3C//DTD SVG 1.1//EN" "http://www.w3.org/Graphics/SVG/1.1/DTD/svg11.dtd"><svg t="1483587333082" class="icon" style="" viewBox="0 0 1024 1024" version="1.1" xmlns="http://www.w3.org/2000/svg" p-id="5478" xmlns:xlink="http://www.w3.org/1999/xlink" width="1024" height="1024"><defs><style type="text/css"></style></defs><path d="M693.34265 788.787954c-29.710672 0-53.766554 24.055882-53.766554 53.804417 0 29.67588 24.055882 53.731762 53.766554 53.731762 29.713742 0 53.768601-24.055882 53.768601-53.731762C747.111251 812.842813 723.056392 788.787954 693.34265 788.787954" p-id="5479"></path><path d="M468.681914 789.163507c-29.712719 0-53.804417 24.052812-53.804417 53.728692 0 29.748534 24.091698 53.804417 53.804417 53.804417 29.711695 0 53.806463-24.055882 53.806463-53.804417C522.488377 813.216319 498.393609 789.163507 468.681914 789.163507" p-id="5480"></path><path d="M494.760872 658.772808 767.49551 658.772808 880.912629 378.056382 389.511783 378.056382Z" p-id="5481"></path><path d="M752.207315 705.609533 442.30415 705.609533 303.706535 301.825187c-3.857864-11.316743-14.537088-18.956747-26.52512-18.956747l-105.287975 0c-15.511275 0-28.101012 12.58769-28.101012 28.099988 0 15.47546 12.589736 28.065196 28.101012 28.065196l85.203544 0 138.596592 403.817092c3.857864 11.31572 14.575973 18.961864 26.52819 18.961864l329.98555 0c15.512299 0 28.025287-12.595876 28.025287-28.105105C780.232602 718.197222 767.719614 705.609533 752.207315 705.609533" p-id="5482"></path></svg>