<?xml version="1.0" standalone="no"?><!DOCTYPE svg PUBLIC "-//W3C//DTD SVG 1.1//EN" "http://www.w3.org/Graphics/SVG/1.1/DTD/svg11.dtd"><svg t="1483587481047" class="icon" style="" viewBox="0 0 1024 1024" version="1.1" xmlns="http://www.w3.org/2000/svg" p-id="7592" xmlns:xlink="http://www.w3.org/1999/xlink" width="1024" height="1024"><defs><style type="text/css"></style></defs><path d="M600.512 402.361c0 20.647-16.893 37.406-37.674 37.406h-272.572c-20.782 0-37.574-16.759-37.574-37.406v-198.362c0-20.647 16.893-37.473 37.574-37.473h272.671c20.782 0 37.674 16.692 37.674 37.473v198.362h-0.099zM921.348 259.707c0 0 0.502-12.267-13.877-25.139-28.189-25.273-76.053-67.238-90.634-81.851-8.178-8.179-27.082-12.938-39.652 0.201-12 12.603-6.804 29.027 2.077 37.406 12.603 12 41.061 35.597 57.249 53.361-13.474 16.492-35.764 33.988-49.64 49.272-1.81 1.943-1.71 4.157-1.71 5.161 0.099 8.715 0.402 14.815 0.301 18.435-0.099 3.285 3.687 4.358 5.396 4.358h70.456c4.692 0 5.898 4.76 5.898 4.76v451.626c0 25.273-13.809 33.184-27.886 33.184-14.111 0-29.195-8.045-29.195-33.184v-369.235c0-33.113 4.254-31.712-26.044-33.317-9.285-0.536-82.689-0.134-102.967 0v-240.259c0-56.621-1.879-68.646-40.728-68.646h-430.874c-49.080 0-43.238 35.048-43.238 68.646v755.099h-34.323c-12.872 0-33.397-0.88-33.397 17.040v34.054c0 12.737 9.465 17.485 22.235 17.485h614.889c7.653 0 19.358-5.387 19.358-15.566l0.959-29.258c0-12.804-2.064-23.755-14.869-23.755h-60.011v-477.639l59.26-0.263c13.91 0 15.116 13.675 15.116 13.675v355.495c0 90.767 75.316 91.572 83.728 91.572 11.295 0 82.020 0 82.020-90.433v-522.282h0.1zM921.348 259.707z" p-id="7593"></path></svg>