<?xml version="1.0" standalone="no"?><!DOCTYPE svg PUBLIC "-//W3C//DTD SVG 1.1//EN" "http://www.w3.org/Graphics/SVG/1.1/DTD/svg11.dtd"><svg width="200" height="200" viewBox="0 0 200 200" version="1.1" xmlns="http://www.w3.org/2000/svg" xmlns:xlink="http://www.w3.org/1999/xlink"><defs><style type="text/css"><![CDATA[
@font-face { font-family: ifont; src: url(http://at.alicdn.com/t/font_1442373896_4754455.eot?#iefix) format(embedded-opentype), url(http://at.alicdn.com/t/font_1442373896_4754455.woff) format(woff), url(http://at.alicdn.com/t/font_1442373896_4754455.ttf) format(truetype), url(http://at.alicdn.com/t/font_1442373896_4754455.svg#ifont) format(svg); }

]]></style></defs><g class="transform-group"><g transform="scale(0.1953125, 0.1953125)"><path d="M868.699544 146.877467C767.986156 46.159044 652.052888 0 512 0c-140.053895 0-255.981121 46.159044-356.701558 146.877467C54.586061 247.591863 7.909484 363.514054 7.909484 503.577011c0 140.576462 46.67557 256.502681 147.388958 357.218083C256.012838 961.512511 371.946105 1007.673569 512 1007.673569c140.053895 0 255.979107-46.161058 356.700551-146.878474 100.702313-100.714395 147.388958-216.641621 147.388958-357.218083C1016.088502 363.514054 969.401857 247.591863 868.699544 146.877467M570.146864 817.245863c-12.858764 12.362376-28.856954 18.374409-48.264414 18.374409-18.36132 0-33.330487-6.562792-46.160051-18.374409-13.933096-12.84064-19.412494-28.839838-19.412494-47.198136 0-18.882879 6.297985-34.62029 19.412494-47.212233 13.109475-12.587915 27.797725-19.935061 46.160051-19.935061 20.983215 0 36.853533 7.213232 49.834128 19.935061 12.719815 12.460042 18.883886 28.329353 18.883886 47.212233C590.60147 787.87339 584.04774 803.88467 570.146864 817.245863M626.266894 532.424904c-33.907425 31.636928-48.015717 54.619791-59.27456 90.744348-8.687292 27.87022-30.955276 47.824411-66.613651 44.067771-18.895969-1.998641-29.901081-9.96602-35.671465-20.983215-4.723237-13.115516-7.345132-26.231032-6.817531-40.390674 0.523573-14.16367 7.241424-35.723822 21.504774-62.948637 14.58857-27.858137 36.278609-53.93109 69.768181-83.407271 71.424486-62.846943 82.351062-107.525885 44.06173-146.87344-28.849906-20.461655-85.547881-28.927435-120.125883-6.818538-42.532291 27.202663-57.174225 53.504176-62.944609 77.104252-9.967027 25.173816-16.720118 57.942469-69.769188 44.065757-15.137315-3.963049-23.934357-15.24203-26.230025-33.57113-1.902988-15.24203-0.853828-34.043353 5.245804-58.754008 12.796338-51.872037 71.340916-140.574448 216.641621-140.574448 110.686457 0 201.455976 72.911636 204.051693 158.942816C742.743872 440.627368 663.185873 497.973768 626.266894 532.424904" fill="#272636"></path></g></g></svg>