<?xml version="1.0" encoding="utf-8"?>
<!-- Generator: Adobe Illustrator 16.0.0, SVG Export Plug-In . SVG Version: 6.00 Build 0)  -->
<!DOCTYPE svg PUBLIC "-//W3C//DTD SVG 1.1//EN" "http://www.w3.org/Graphics/SVG/1.1/DTD/svg11.dtd">
<svg version="1.1" id="图层_1" xmlns="http://www.w3.org/2000/svg" xmlns:xlink="http://www.w3.org/1999/xlink" x="0px" y="0px"
	 width="1000px" height="1000px" viewBox="0 0 1000 1000" enable-background="new 0 0 1000 1000" xml:space="preserve">
<g>
	<path fill="#595DA1" d="M181.573,526.13c107.98-23.212,93.291-152.296,90.031-180.487c-5.298-43.518-56.471-119.533-125.93-113.544
		C58.248,239.931,45.525,366.25,45.525,366.25C33.725,424.564,73.823,549.307,181.573,526.13z M296.233,750.596
		c-3.189,9.072-10.224,32.32-4.128,52.52c12.084,45.361,51.421,47.381,51.421,47.381h56.577V712.252h-60.528
		C312.358,720.332,299.175,741.523,296.233,750.596z M382.03,309.638c59.625,0,107.838-68.697,107.838-153.572
		C489.868,71.297,441.654,2.6,382.03,2.6c-59.554,0-107.927,68.697-107.927,153.466C274.103,240.976,322.476,309.638,382.03,309.638
		z M638.922,319.808c79.665,10.331,130.908-74.792,141.15-139.254c10.419-64.409-41.037-139.237-97.49-152.083
		c-56.596-12.988-127.224,77.627-133.603,136.703C541.324,237.432,559.327,309.531,638.922,319.808z M834.222,698.927
		c0,0-123.29-95.471-195.3-198.596c-97.598-152.119-236.285-90.244-282.656-12.882c-46.211,77.379-118.134,126.249-128.357,139.184
		c-10.384,12.758-149,87.604-118.275,224.359c30.813,136.615,138.883,133.992,138.883,133.992s79.647,7.832,172.088-12.828
		c92.458-20.483,171.964,5.103,171.964,5.103s215.961,72.294,275.072-66.907C926.645,771.114,834.222,698.927,834.222,698.927z
		 M464.796,906.1H324.407c-60.617-12.05-84.75-53.513-87.833-60.529c-3.012-7.123-20.165-40.435-11.092-97.029
		c26.189-84.769,100.911-90.864,100.911-90.864h74.722V565.82l63.647,0.922V906.1H464.796z M726.241,905.143H564.714
		c-62.619-16.125-65.543-60.6-65.543-60.6V665.828l65.543-1.028v160.571c3.969,17.151,25.232,20.199,25.232,20.199h66.553V665.828
		h69.742V905.143L726.241,905.143z M954.925,428.09c0-30.849-25.657-123.75-120.703-123.75
		c-95.187,0-107.909,87.674-107.909,149.621c0,59.182,4.997,141.842,123.219,139.148
		C967.859,590.521,954.925,459.151,954.925,428.09z"/>
</g>
</svg>
