<?xml version="1.0" standalone="no"?><!DOCTYPE svg PUBLIC "-//W3C//DTD SVG 1.1//EN" "http://www.w3.org/Graphics/SVG/1.1/DTD/svg11.dtd"><svg width="200" height="200" viewBox="0 0 200 200" version="1.1" xmlns="http://www.w3.org/2000/svg" xmlns:xlink="http://www.w3.org/1999/xlink"><defs><style type="text/css"><![CDATA[
@font-face { font-family: ifont; src: url(http://at.alicdn.com/t/font_1442373896_4754455.eot?#iefix) format(embedded-opentype), url(http://at.alicdn.com/t/font_1442373896_4754455.woff) format(woff), url(http://at.alicdn.com/t/font_1442373896_4754455.ttf) format(truetype), url(http://at.alicdn.com/t/font_1442373896_4754455.svg#ifont) format(svg); }

]]></style></defs><g class="transform-group"><g transform="scale(0.1953125, 0.1953125)"><path d="M922.624 829.44 751.616 710.656 751.616 195.584l171.008 118.784L922.624 829.44zM649.216 705.536 374.784 843.776 374.784 318.464l273.408-139.264L648.192 705.536zM272.384 828.416 101.376 709.632 101.376 195.584l171.008 118.784L272.384 828.416zM1005.568 252.928 1005.568 252.928c-2.048-2.048-3.072-2.048-4.096-3.072L732.16 62.464c-8.192-6.144-19.456-10.24-31.744-10.24-8.192 0-16.384 2.048-23.552 5.12L328.704 234.496 82.944 62.464c-8.192-6.144-19.456-10.24-31.744-10.24-28.672 0-51.2 21.504-51.2 47.104l0 634.88c0 16.384 9.216 31.744 23.552 39.936l270.336 188.416c8.192 6.144 19.456 9.216 30.72 9.216 9.216 0 17.408-2.048 24.576-6.144l346.112-175.104L943.104 962.56c8.192 5.12 18.432 9.216 28.672 9.216 28.672 0 51.2-21.504 51.2-47.104l0-634.88C1025.024 274.432 1016.832 262.144 1005.568 252.928z" fill="#272636"></path></g></g></svg>