<?xml version="1.0" standalone="no"?><!DOCTYPE svg PUBLIC "-//W3C//DTD SVG 1.1//EN" "http://www.w3.org/Graphics/SVG/1.1/DTD/svg11.dtd"><svg width="200" height="200" viewBox="0 0 200 200" version="1.1" xmlns="http://www.w3.org/2000/svg" xmlns:xlink="http://www.w3.org/1999/xlink"><defs><style type="text/css"><![CDATA[
@font-face { font-family: ifont; src: url(http://at.alicdn.com/t/font_1442373896_4754455.eot?#iefix) format(embedded-opentype), url(http://at.alicdn.com/t/font_1442373896_4754455.woff) format(woff), url(http://at.alicdn.com/t/font_1442373896_4754455.ttf) format(truetype), url(http://at.alicdn.com/t/font_1442373896_4754455.svg#ifont) format(svg); }

]]></style></defs><g class="transform-group"><g transform="scale(0.1953125, 0.1953125)"><path d="M881.021611 257.270435l-735.700875 0c-8.010441 0-14.503319 6.493901-14.503319 14.503319l0 482.445894c0 8.010441 6.493901 14.503319 14.503319 14.503319l735.700875 0c8.010441 0 14.503319-6.493901 14.503319-14.503319L895.52493 271.773753C895.525953 263.763312 889.032052 257.270435 881.021611 257.270435zM832.639694 289.236474l-289.416576 206.924793c-5.982248 5.326309-15.150048 4.79419-20.476357-1.188058l-325.033771-205.736734L832.639694 289.236474zM849.056596 736.75795l-671.768797 0c-8.010441 0-14.503319-6.493901-14.503319-14.503319L162.78448 303.739792c0-0.694825 0.065492-1.372254 0.159636-2.040473l357.184005 238.403738c5.326309 5.982248 14.494109 6.514367 20.476357 1.188058l322.955436-237.087766 0 418.050258C863.559914 730.264049 857.066013 736.75795 849.056596 736.75795z" fill="#272636"></path></g></g></svg>