<?xml version="1.0" encoding="utf-8"?>
<!DOCTYPE svg PUBLIC "-//W3C//DTD SVG 1.1//EN" "http://www.w3.org/Graphics/SVG/1.1/DTD/svg11.dtd">
<svg style="width:308px;height:308px;" version="1.1" id="图形" xmlns="http://www.w3.org/2000/svg" xmlns:xlink="http://www.w3.org/1999/xlink" x="0px" y="0px" width="1024px" height="1024px" viewBox="0 0 1024 1024" enable-background="new 0 0 1024 1024" xml:space="preserve">
  <path class="svgpath" data-index="path_0" fill="#272636" d="M847.657 64.0164H175.70304000000002c-61.7656 0-111.9928 50.2262-111.9928 111.9918v671.95392c0 61.7646 50.2262 111.9928 111.9928 111.9928h671.95392c61.7646 0 111.9918-50.2282 111.9918-111.9928V176.00921599999998C959.6488 114.2436 909.4216 64.0164 847.657 64.0164zM903.6524 847.9621c0 30.8695-25.1269 55.9974-55.9964 55.9974H175.70304000000002c-30.8695 0-55.9964-25.1279-55.9964-55.9974V176.00921599999998c0-30.8695 25.1279-55.9964 55.9964-55.9964h671.95392c30.8695 0 55.9964 25.1269 55.9964 55.9964V847.9621119999999zM835.1887 544.6861l-83.9946-55.9964c-10.4438-6.9448-23.5407-5.6873-32.7823 1.7224l-0.2458-0.3L584.9825 596.6633 387.5471 460.9106c-0.0829-0.0543-0.1638-0.0543-0.2181-0.1096-2.2968-1.5309-4.8947-2.3788-7.5192-3.199-0.8745-0.2734-1.6671-0.8745-2.5702-1.0394-2.3788-0.4925-4.8118-0.2181-7.2735-0.0819-1.1213 0.0819-2.2692-0.2181-3.3628 0-1.2308 0.2181-2.3511 0.9841-3.5543 1.3947-2.2692 0.7383-4.566 1.367-6.6161 2.7064-0.0829 0.0553-0.1915 0.0553-0.2734 0.1096L188.1702 572.6853c-12.8778 8.5842-16.3502 25.9461-7.765 38.8239 5.3862 8.0937 14.2725 12.4692 23.3226 12.4692 5.332 0 10.7182-1.5319 15.5034-4.7032l152.2125-101.4661 432.3564 297.2334c4.8404 3.3362 10.3629 4.9224 15.831 4.9224 8.9129 0 17.663-4.2383 23.1045-12.1395 8.7491-12.7406 5.5235-30.1568-7.2182-38.9345L633.214 629.802l103.9555-83.1468 66.9594 44.6208c4.7862 3.1724 10.1714 4.7043 15.5034 4.7043 9.0501 0 17.9364-4.3745 23.3226-12.4692C851.5389 570.6342 848.0666 553.2713 835.1887 544.6861zM581.674 427.991c69.4764 0 125.9919-56.5156 125.9919-125.9909 0-69.4764-56.5156-125.9919-125.9919-125.9919-69.4753 0-125.9909 56.5156-125.9909 125.9919C455.6831 371.4755 512.1997 427.991 581.674 427.991zM581.674 232.0056c38.6068 0 69.9945 31.3876 69.9945 69.9945 0 38.6068-31.3876 69.9945-69.9945 69.9945-38.6058 0-69.9945-31.3887-69.9945-69.9945C511.6795 263.3933 543.0682 232.0056 581.674 232.0056z" />

</svg>
