<?xml version="1.0" encoding="utf-8"?>
<!DOCTYPE svg PUBLIC "-//W3C//DTD SVG 1.1//EN" "http://www.w3.org/Graphics/SVG/1.1/DTD/svg11.dtd">
<svg style="width:308px;height:308px;" version="1.1" id="图形" xmlns="http://www.w3.org/2000/svg" xmlns:xlink="http://www.w3.org/1999/xlink" x="0px" y="0px" width="1024px" height="1024px" viewBox="0 0 1024 1024" enable-background="new 0 0 1024 1024" xml:space="preserve">
  <path class="svgpath" data-index="path_0" fill="#272636" d="M240 608q0-33-23.5-56.5t-56.5-23.5-56.5 23.5-23.5 56.5 23.5 56.5 56.5 23.5 56.5-23.5 23.5-56.5zm18-160l508 0-44.5-178.5q-1-4-7-8.75t-10.5-4.75l-384 0q-4.5 0-10.5 4.75t-7 8.75zm686 160q0-33-23.5-56.5t-56.5-23.5-56.5 23.5-23.5 56.5 23.5 56.5 56.5 23.5 56.5-23.5 23.5-56.5zm80-48l0 192q0 7-4.5 11.5t-11.5 4.5l-48 0 0 64q0 40-28 68t-68 28-68-28-28-68l0-64-512 0 0 64q0 40-28 68t-68 28-68-28-28-68l0-64-48 0q-7 0-11.5-4.5t-4.5-11.5l0-192q0-46.5 32.75-79.25t79.25-32.75l14 0 52.5-209.5q11.5-47 52-78.75t89.5-31.75l384 0q49 0 89.5 31.75t52 78.75l52.5 209.5 14 0q46.5 0 79.25 32.75t32.75 79.25z" />

</svg>
