<?xml version="1.0" encoding="utf-8"?>
<!-- Generator: Adobe Illustrator 16.0.0, SVG Export Plug-In . SVG Version: 6.00 Build 0)  -->
<!DOCTYPE svg PUBLIC "-//W3C//DTD SVG 1.1//EN" "http://www.w3.org/Graphics/SVG/1.1/DTD/svg11.dtd">
<svg version="1.1" id="图层_1" xmlns="http://www.w3.org/2000/svg" xmlns:xlink="http://www.w3.org/1999/xlink" x="0px" y="0px"
	 width="1000px" height="1000px" viewBox="0 0 1000 1000" enable-background="new 0 0 1000 1000" xml:space="preserve">
<g>
	<path fill="#E04635" d="M670.156,874.597c-8.908-3.642-26.731,3.942-34.889,4.722c-0.901,15.356-13.129,9.376-7.7,31.141
		c0.14,0.073,0.284,0.146,0.429,0.218c0,3.129,13.374,8.073,16.692,7.082v-0.211h0.857c0.552,1.792,18.998-5.479,22.896-13.319
		V903.8c0.145-0.072,0.29-0.139,0.435-0.217c4.86-14.633,10.39-21.369,8.341-24.265C676.604,876.846,672.45,875.064,670.156,874.597
		z"/>
	<path fill="#E04635" d="M635.179,434.857c-82.839,0.435-129.693,54.719-120.924,133.032
		c18.77,71.097,95.59,154.197,120.924,181.413c21.175-27.216,107.188-118.24,108.842-181.413
		C745.808,500.23,707.551,434.481,635.179,434.857z M633.932,591.156c-22.043,0-39.911-17.867-39.911-39.91
		c0-22.044,17.868-39.911,39.911-39.911s39.911,17.867,39.911,39.911C673.843,573.289,655.975,591.156,633.932,591.156z"/>
	<path fill="#E04635" d="M996.324,172.277c-5.49-4.404-0.4-17.344-5.567-19.109c-9.288,0-22.918,13.006-27.395,20.827
		c-5.262,5.189-13.597,14.85-22.684,12.241v-0.217c-5.746,0-12.845-14.218-12.845-19.109c-4.878-1.122-13.458-3.505-13.915-7.729
		c-0.522-0.632-4.275-2.144-4.275-2.581c-2.739-0.799-11.988,1.272-11.988-0.857c-3.714-1.467-12.6-0.432-17.338-0.432
		c-0.072-0.142-0.14-0.284-0.218-0.429c-2.099,0-3.452-7.43-3.842-9.012c-0.473-0.314-0.646-0.298-0.646-0.86
		c-3.998-3.009-7.061-6.063-7.061-11.812h-0.217v-0.643c-3.514-2.812-7.399-6.665-10.919-9.877v-0.429
		c-0.356-0.287-0.713-0.573-1.068-0.857c-0.146-0.431-0.284-0.86-0.429-1.289h-0.212c0-4.644-23.747-29.427-23.97-29.63h-0.429
		v-0.217c-0.29-0.069-0.574-0.142-0.857-0.211v-0.217c-6.888-2.962-11.22-2.302-19.048-1.932v-0.214
		c-4.132,0-8.998-4.384-13.269-3.435c-6.086,0-22.082,4.799-24.827,10.306c-4.488,1.5-8.809,2.906-13.485,4.081
		c-4.126,3.213-4.622,3.973-5.563,10.086c0.239,0,0.429,1.974,0.429,2.364c4.777,2.402,11.971,8.833,9.421,14.816
		c-0.245,0-10.062,14.468-10.062,22.976h-0.217c0,6.567-3.854,14.956-3.854,20.609c-0.64,0.574-1.28,1.147-1.926,1.718
		c-7.389,8.475-18.497,7.517-28.893,7.517c-1.542,0.51-2.968,1.896-3.847,3.221c-0.146,0.072-0.29,0.142-0.435,0.214
		c-2.127,10.71-5.134,17.344-5.134,27.698c1.426,4.85-3.396,8.797-6.208,12.024c0.062,3.051,1.721,4.234,2.784,6.228
		c7.55,0.29,11.587-3.867,16.48-3.867v-0.214c3.235-0.966,12.372,3.229,17.333,3.435c2.094-2.623,2.389-4.886,4.493-7.299
		c4.771,0,6.069-4.182,9.633-4.082c8.224,4.605,18.547,9.805,21.191,18.252c0,1.949,0.668,5.02,0.641,7.731
		c-3.052,0.846-23.971,1.247-23.971,2.355c-2.383,0-9.844,5.963-11.775,8.377h-0.635v0.214c-4.176,1.05-9.154,2.171-11.982,5.582
		c-1.158,0-4.922,10.86-8.998,13.958c-2.895,5.813-14.064,6.05-20.334,7.3c-1.258,4.794-11.637,17.603-16.904,17.603
		c0,4.58-18.663-7.277-18.83-7.3v-0.217c-15.268-0.078-5.451,25.329-3.854,31.139c1.994,2.255-14.454,14.471-18.619,18.249
		c-3.546,3.221-13.251,12.405-14.766,16.962c-10.351,2.046-21.804-5.27-30.39-2.792v0.214h-0.429
		c0,7.875-53.586,19.351-56.286,27.483c-1.898,0.011-3.157-0.208-4.281-1.718c-5.346-4.017-7.522-9.014-16.698-9.014v-0.214
		c-1.849-2.623-10.946-9.337-15.189-4.51c-9.343-1.378-15.969-14.295-28.683-15.891v-0.214c-12.35,0-24.284,0.643-36.81,0.643
		c-0.072-0.145-0.145-0.287-0.214-0.432c-4.329,0-14.501-4.028-19.688-5.582c-6.79,0-13.257-2.575-19.05-2.575l-0.426-0.646
		c-0.498-0.429-1-0.86-1.498-1.286v-0.429c-1.351,0-1.069-9.018-1.069-9.232h-0.217c-0.07-0.284-0.142-0.57-0.214-0.857
		c-4.769-2.394-6.609-10.451-6.849-15.245h-0.214c2.029-13.068-50.337-31.965-53.505-31.776c-5.181-1.177-12.734-2.06-16.692-4.938
		c-6.448-7.188-5.02-12.514,1.715-19.543v-0.426c7.455-5.61,2.16-15.985,0.854-22.544c-3.555-2.675-4.279-12.731-4.279-17.606
		c-0.551-1.818-7.801-5.982-10.276-6.656c-2.856,0.493-19.14-12.289-17.979-15.677c0-1.525-1.612-5.078-1.712-7.728h-0.215
		c0-4.735-6.055-7.269-10.056-6.011c-8.469,0-6.896,6.946-10.913,10.306v0.217c-7.193,2.4-20.598,1.489-22.903,10.732h-0.214
		c-0.805,1.815-0.356,15.245-0.429,15.245c-1.139,3.758-2.041,4.677-6.203,4.939v0.217c-1.214,0.173-28.68-3.995-28.68-9.88
		c-2.319-0.223-5.284-1.061-6.849,1.289h-0.217c-0.442,1.792-6.876,13.733-8.772,16.748c-12.856,6.445-5.875,17.775-9.204,21.684
		c-0.069,0.214-0.142,0.429-0.214,0.643c-12.603,0-23.318-7.987-36.809-3.864c-3.388,0-4.738,2.144-2.781,4.938
		c2.35,1.768,1.949,5.582,1.069,8.374h-0.214c1.729,8.925,1.32,17.896-0.643,26.623c-0.159,0.412-16.74,20.777-17.335,21.258
		c0.587,3.502,0.178,6.333-5.78,9.449c0,1.041-18.146,2.917-19.688,3.436v0.214c-18.491,0-25.991,0.796-40.454,12.878
		c-9.978-0.457-4.09-9.488-11.553-10.732c-10.729-3.547-29.121,12.45-35.103,12.45c-1.008,4.39-9.02,8.906-8.129,10.738
		c3.163,0,4.964,8.413-1.712,9.877c-3.308,7.319,0.131,8.912,3.21,11.167c4.24-0.106,12.625-5.131,12.625,2.575h0.214
		c0,7.052,1.598,13.97-1.712,20.609c-6.016,1.506-11.13,7.238-7.063,13.313c0.211,0.145,0.426,0.287,0.64,0.432
		c2.319,2.787,12.606,11.258,15.841,12.881c2.083,3.416-1.715,14.429-1.715,18.466c-0.184,0.242,2.004,3.104,3.642,3.221
		c4.176-3.75,26.62,14.125,24.613,21.258c-1.746,6.172-0.677,16.007,7.271,17.603c1.267,1.047,1.818,1.153,2.355,4.293
		c0,5.137-7.272,8.694-5.137,15.248h0.214c1.403,8.441,4.065,15.763,4.065,24.471h-0.214c0,2.333-0.56,1.181-1.069,3.007
		c-4.273-0.105-7.494-3.864-12.411-3.864c-1.67,3.352-1.069,0.674-1.069,6.442h0.214c0,4.432,2.999,18.106-1.712,21.264v0.423
		c-3.199,2.807-2.405,5.234-2.781,9.66c1.47,1.253,0.816,1.397,3.424,2.149c12.72,0,15.615,9.143,24.822,16.531
		c0,4.081,0.515,9.131,2.57,11.381c6.929,9.042,17.511,4.087,26.542,2.583c0.134,0.034,8.984,10.49,8.984,13.091
		c0.145,0.072,0.287,0.145,0.429,0.217c2.441,2.939,8.288,4.627,11.559,7.082c0,1.114,3.694,8.375,5.351,8.375
		c1.286,2.583,8.881,0.79,11.556,2.577c0.281,5.362,2.656,13.413,5.136,16.749c0.501,0.429,1,0.862,1.498,1.286
		c3.421,4.582,7.647,2.282,11.127,4.51c4.056,5.423,8.385,12.723,13.271,17.177c6.342,0.117,11.461-0.189,17.765,1.074
		c3.018,3.631,5.498,7.611,10.056,9.021c4.184,1.203,7.502-3.569,11.13-4.299c3.563-1.369,10.437-1.325,13.7,0.857
		c-0.117,6.275-3.436,10.936-0.214,17.395c5.348,1.793,5.448,1.671,10.058-0.646c1.556-2.428,0.643-7.094,0.643-9.878
		c1.734-3.028,16.05-7.795,16.05-7.729c9.332,0,14.209,10.657,21.403,12.456c0,0.072,8.483,1.804,9.847,2.578
		c-0.044,5.089,2.161,6.163,5.78,8.585c-0.212,2.94-2.753,10.958-0.576,13.096c5.239,7.656,32.48,2.161,36.528,0
		c9.908-3.307,19.296-16.458,29.961-17.605c2.514-3.023,7.887-8.324,11.559-9.015v-0.217c4.123,1.181,11.551,6.871,15.192,6.871
		c3.842,2.684,8.396,10.322,12.414,9.02c6.136-0.885,2.018-11.325,5.994-13.313c1.734-2.094,4.493-1.024,6.849-0.429
		c3.636,4.555,5.994,6.849,5.994,13.313c0.153,0,0.838,2.077,1.498,2.572c0,2.311,8.134,5.257,8.134,7.512
		c3.998,4.521-3.313,36.771-4.922,37.577c-0.629,0.791-0.749,1.053-1.712,1.286c-2.854,3.13-14.34,8.241-14.34,12.238
		c-0.142,0.078-0.287,0.146-0.429,0.223c-1.62,6.515-5.281,11.32-3.21,18.675c1.272,6.236-1.45,9.833,5.136,11.599v-0.218
		c4.733,0,7.709-7.461,13.7-3.43c3.664,4.588,4.891,17.228,8.346,19.532c1.918,2.316,3.711,2.316,6.417,3.219
		c1.768,4.448-0.248,13.73,0.643,19.114h0.214c0.381,1.142,2.18,3.524,3.424,3.864c1.111,0.94,5.239-0.579,6.851,0
		c0,0.268,10.173,8.246,11.127,12.667c2.559,0.211,2.974,1.27,5.78,1.503v-0.211c3.825,0,3.661-6.014,9.632-6.014
		c1.924,2.896,2.35,0.857,2.355,4.722c0,5.534,3.182,11.715,8.984,12.884v0.212c2.792,0.468,5.712,1.637,6.422-1.933
		c0.565-1.48,0.696-12.455-1.5-12.455c0.153-2.739-0.407-10.373-2.781-12.45c-0.075-2.684-0.526-5.072,1.712-5.578
		c1.531-1.314,9.493,2.037,11.13,0.64c0.891-0.027,4.53-4.059,5.351-5.15c4.771,0,8.516,5.045,13.917,3.43
		c0-0.233,7.411-2.36,8.341-2.36c0.523,1.047,2.718,2.339,3.636,3.441c2.467,0,10.062,2.26,10.062-3.441
		c2.528-2.177,4.994-1.737,8.129-1.927v-0.217c3.508,0,9.961-8.118,11.56-10.523c0.567-0.373,4.576-1.525,5.567-0.641
		c1.859,0.591,1.08,4.349,4.276,5.15c0,0.072,19.565,3.681,21.403,3.864c0.567,0.507,1.146,1.008,1.715,1.509
		c-0.034,2.879-2.551,9.143-1.715,11.804h0.217c-1.765,8.804,18.485,14.388,23.964,14.388c1.42,0.134,17.768,2.005,17.768,0.646
		c2.896-0.412,2.283-2.506,0-3.653c0.323-7.216,9.732,6.888,10.484,7.083v0.223c4.382-0.368,7.645-2.684,11.987-3.87v-0.217
		c0.613,0.017,0.913,0.078,1.286,0.217c-0.395,3.97-7.416,11.097-0.429,14.604c1.815,2.277,5.669,11.181,7.701,11.593v0.212
		c4.91,0.188,6.531,0.378,10.701-1.927c0.307-1.882,0.484-6.348-0.429-7.951c-1.325-0.256-2.717-0.456-4.493-0.423
		c-0.874-3.53-2.611-2.177,0.217-5.585c3.297,0,5.134-5.752,5.134-8.374h0.212c1.146-5.718,31.303-8.848,37.455-10.74
		c9.159,0,24.059-9.571,26.331-18.675c0.689-1.393,0.896-6.486,5.133-3.652c0,2.405,7.533,10.262,10.484,7.517
		c5.273,0,6.008-12.049,11.56-10.307c13.591,4.276,27.11-9.577,37.455-15.462c-0.062-1.665-0.874-2.506-0.429-4.076
		c0-5.924,10.88-7.789,15.841-9.448c0.066-0.14,0.139-0.284,0.211-0.429c4.21,0,14.733-20.824,16.904-23.19
		c0.646-2.339,11.003-2.166,13.274-9.02c7.929-3.971,0.679-12.578,10.913-13.308c1.303-5.161-0.045-8.324-0.423-13.742
		c-2.005-6.358,5.011-4.37,5.557-9.02c-2.333-0.523-7.489-2.483-7.489-5.367c0.729-1.537,5.033-1.359,7.489-1.286
		c4.382-3.765,3.563-11.481,8.563-14.811c0.439-12.751,1.781-14.076,7.282-23.625c18.43,0,5.769-15.328,5.769-26.409h0.217
		c2.11-1.859,4.449,0.502,6.854-2.36c1.643-1.659-0.217-6.008-0.217-7.729c-1.654-2.772-6.609,2.79-8.347,2.79
		c0-4.227,9.12-6.877,10.484-12.021c0.239-0.245,0.095,0,0.217-0.434c-6.971-2.734-21.882-10.012-26.965-0.43
		c-1.921,0-5.518,0.229-7.277-0.429v-0.646h0.212c4.576-5.167,25.044-13.407,25.044-22.756h0.212
		c-2.817-8.258-8.464-11.069-13.48-13.959c0.329-2.729,16.787-3.174,8.559-7.3v-0.429c-6.793-5.111-14.171-8.096-20.117-13.313
		c-0.184-0.551-0.429-0.585-0.429-1.074c-8.514-4.266-9.466-40.368-33.174-43.586c0-0.557-2.35-1.259-2.35-2.361
		c-0.217-0.145-0.429-0.289-0.646-0.434c-0.245-0.362,0-0.479-0.424-0.857c0-0.323,2.016-13.18,2.778-15.237h0.218
		c0-0.774,1.57-3.068,2.355-3.652c0-0.145,5.445-8.051,5.985-9.877c2.227,1.586,18.374-14.895,16.909-17.392
		c0.329,0.181,17.155-7.127,17.979-8.371c3.285,0,2.355-8.867,2.355-10.092c-3.446-1.726-6.414-3.293-11.13-1.932
		c-7.817,2.249-13.798-4.942-20.546-3.007c-15.757,0-15.79,19.326-23.97,19.326c-0.295,0.059,0.084,0.198-0.217,0.214v-0.214
		c-2.172-0.314-7.862-6.236-8.775-8.16h-0.212c0-3.964-1.291-7.472-2.783-10.952c-5.479-2.238-16.247,3.382-17.762,2.578
		c0-3.903-2.049-5.652-2.996-9.449c-6.559-3.288-3.875-12.623,0.429-16.32c3.302-0.827,16.743-3.296,18.402-5.793
		c0.045,0,35.523-43.148,35.523-43.371c4.66-1.86,10.824,0.067,12.205,5.579c2.511,9.501-6.638,11.834-6.638,18.68h-0.211
		c-0.078,0.501-0.146,1.002-0.218,1.503c-3.836,0,4.493,10.459,4.493,12.456c-4.766,0-8.045,7.28-7.705,11.378
		c4.354-0.095,8.842-0.496,13.273-0.646c0-0.069,5.122-8.115,5.345-12.235c8.308-19.042,22.65-14.104,34.031-23.622
		c0.379-4.131,3.207-8.641,3.207-12.238c3.53-2.945,6.771-7.06,11.348-8.585c0.072-0.142,0.145-0.287,0.212-0.432h0.434
		c3.814-5.743,10.039-10.008,11.771-16.962c1.987,0,2.649-9.101,5.345-9.875v-0.217c6.37,0,11.637,3.867,18.836,3.867
		c1.576,0.985,8.252-3.296,7.277-8.16c0.179-2.712-1.804-6.654-5.351-8.8c0.017-1.682-0.006-1.537,1.069-2.146v-0.217
		c3.329,0,8.457-0.41,10.701-3.221c3.848-1.932,7.244-13.488,7.706-17.177c0.328,0,2.16-3.572,4.493-3.867
		c1.721-0.167,0.101,8.063,3.207,11.81c1.393,0.128,9.421,2.748,9.421,1.932c1.943-0.49,2.483-1.899,2.996-3.864
		c0.545-2.102,3.207-13.084,3.207-14.602h0.217c3.881-13.408-17.372-33.697-13.269-46.164c0.98-2.987,6.208-4.931,7.918-7.731
		c4.621,0,12.851,3.845,16.27-1.289c3.084-3.051,2.851-5.652,3.207-9.875c-2.628-1.704,1.503-42.697,3.853-48.953
		C1001.163,177.611,997.004,172.559,996.324,172.277z M798.608,562.627c-2.05,95.184-126.643,228.268-162.004,265.082
		c-25.985-31.297-162.873-172.604-175.008-267.02c-15.223-118.413,69.312-189.866,167.937-189.523
		C742.495,370.389,801.047,449.479,798.608,562.627z"/>
	<path fill="#E04635" d="M891.235,731.818v-0.217c-1.87-0.585-9.432,0.752-10.272,1.938c-5.596,4.911-12.411,17.417-12.411,24.254
		h-0.211c0,6.525-3.854,8.051-3.854,15.68h-0.211c-0.356,6.358-1.125,11.637-1.716,17.605c2.016,7.082,5.156,8.697,10.056,14.599
		h0.218c0.439,3.541,5.773,6.292,5.773,8.809h0.212v0.212h0.217c6.988-8.174,3.135-13.497,6.209-21.692h0.211
		c0-4.688,6.481-5.523,8.353-8.369c0-2.478,3.207-5.229,3.207-8.586c2.282-7.688-1.069-19.899-1.069-28.346h0.217
		C896.163,741.797,904.91,733.773,891.235,731.818z"/>
</g>
</svg>
