<?xml version="1.0" encoding="utf-8"?>
<!-- Generator: Adobe Illustrator 16.0.0, SVG Export Plug-In . SVG Version: 6.00 Build 0)  -->
<!DOCTYPE svg PUBLIC "-//W3C//DTD SVG 1.1//EN" "http://www.w3.org/Graphics/SVG/1.1/DTD/svg11.dtd">
<svg version="1.1" id="图层_1" xmlns="http://www.w3.org/2000/svg" xmlns:xlink="http://www.w3.org/1999/xlink" x="0px" y="0px"
	 width="1000px" height="1000px" viewBox="0 0 1000 1000" enable-background="new 0 0 1000 1000" xml:space="preserve">
<g>
	<path fill="#E07162" d="M360.837,528.355c-164.421,19.178-145.261,173.259-145.261,173.259s-1.712,48.659,43.996,73.529
		c96.113,52.048,195.16,20.609,245.269-44.013C554.74,666.438,525.485,509.388,360.837,528.355z M319.304,744.37
		c-30.722,3.737-55.296-14.008-55.296-39.822c0-25.569,21.867-52.326,52.589-55.54c35.158-3.458,58.23,17.012,58.23,42.511
		C374.862,717.298,350.043,740.911,319.304,744.37z M416.395,662.037c-10.339,7.859-23.107,6.637-28.766-2.689
		c-5.641-9.117-3.685-23.613,6.864-31.229c12.313-9.082,24.836-6.393,30.233,2.689C430.42,639.926,426.438,653.933,416.395,662.037z
		"/>
	<path fill="#E07162" d="M801.773,108.309c-58.021-13.518-117.753-1.956-134.485,1.223c-1.188,0-2.41,1.258-3.703,1.502
		c-0.488,0-0.978,0.751-0.978,0.751c-16.418,4.681-28.504,19.928-28.504,38.093c0,21.395,17.466,39.088,39.123,39.088
		c0,0,21.133-2.969,35.35-8.366c14.252-5.641,134.485-4.174,194.147,96.113c32.696,73.25,14.252,122.154,12.087,130.031
		c0,0-7.895,18.916-7.895,37.831c0,21.64,17.431,35.176,39.122,35.176c17.92,0,33.15-2.48,37.586-32.958h0.245
		C1048.316,232.925,905.729,132.376,801.773,108.309z"/>
	<path fill="#E07162" d="M821.404,423.161c13.273,0,24.592-9.833,26.303-22.618c0.245-0.996,0.245-1.711,0.245-2.969
		c20.12-180.384-147.969-149.435-147.969-149.435c-15.021,0-26.757,12.051-26.757,27.037c0,14.741,12.051,26.792,26.757,26.792
		c120.652-26.547,93.896,93.895,93.896,93.895C794.367,411.354,806.419,423.161,821.404,423.161z"/>
	<path fill="#E07162" d="M741.342,489.757c-38.843-7.615-19.945-28.504-19.945-28.504s38.04-62.667-7.615-108.129
		c-56.309-56.309-193.448,7.108-193.448,7.108c-52.327,16.243-38.337-7.37-30.967-47.681c0-47.419-16.243-127.551-155.601-80.376
		C194.408,279.855,74.979,446.756,74.979,446.756C-8.123,557.593,2.688,643.384,2.688,643.384
		c20.958,189.222,221.97,241.339,378.287,253.6c164.683,13.029,386.635-56.763,454.192-199.806
		C902.724,554.379,780.325,497.634,741.342,489.757z M393.533,844.168C230.107,851.783,98.12,769.939,98.12,660.814
		c0-109.16,131.987-196.627,295.413-204.242c163.443-7.633,295.902,59.697,295.902,168.856
		C689.225,734.31,556.976,836.553,393.533,844.168z"/>
</g>
</svg>
