<?xml version="1.0" encoding="utf-8"?>
<!-- Generator: Adobe Illustrator 16.0.0, SVG Export Plug-In . SVG Version: 6.00 Build 0)  -->
<!DOCTYPE svg PUBLIC "-//W3C//DTD SVG 1.1//EN" "http://www.w3.org/Graphics/SVG/1.1/DTD/svg11.dtd">
<svg version="1.1" id="图层_1" xmlns="http://www.w3.org/2000/svg" xmlns:xlink="http://www.w3.org/1999/xlink" x="0px" y="0px"
	 width="1000px" height="1000px" viewBox="0 0 1000 1000" enable-background="new 0 0 1000 1000" xml:space="preserve">
<g>
	<g transform="scale(0.1953125, 0.1953125)">
		<path d="M4162.574,4933.042H767.988c-373.317,0-677.181-303.854-677.181-677.173V852.598
			c0-373.317,312.544-755.318,694.546-755.318h1901.315v347.274h-1910c-191,0-347.269,156.27-347.269,347.269v3455.356
			c0,191.009,156.27,338.599,338.589,338.599l3464.041-8.68c191,0,347.274-156.279,347.274-347.279V2337.184h347.269v1901.315
			C4926.572,4611.818,4535.894,4933.042,4162.574,4933.042L4162.574,4933.042L4162.574,4933.042z M4752.938,1651.326
			c-95.495,0-173.635-78.137-173.635-173.637l-8.68-824.77L1940.03,3153.277c-69.45,69.46-182.314,69.46-251.769,0
			c-69.455-69.45-69.455-173.64,0-234.409L4292.799,435.871l-755.318,8.682c-95.5,0-173.635-78.137-173.635-173.64
			c0-95.497,78.135-173.635,173.635-173.635h1206.772c95.5,0,173.635,78.135,173.635,164.955v1215.452
			C4926.572,1573.188,4848.438,1651.326,4752.938,1651.326L4752.938,1651.326L4752.938,1651.326z"/>
	</g>
</g>
</svg>
