<?xml version="1.0" encoding="utf-8"?>
<!-- Generator: Adobe Illustrator 16.0.0, SVG Export Plug-In . SVG Version: 6.00 Build 0)  -->
<!DOCTYPE svg PUBLIC "-//W3C//DTD SVG 1.1//EN" "http://www.w3.org/Graphics/SVG/1.1/DTD/svg11.dtd">
<svg version="1.1" id="图层_1" xmlns="http://www.w3.org/2000/svg" xmlns:xlink="http://www.w3.org/1999/xlink" x="0px" y="0px"
	 width="1000px" height="1000px" viewBox="0 0 1000 1000" enable-background="new 0 0 1000 1000" xml:space="preserve">
<path d="M495.01,998.511c-268.618,0-489.266-220.647-489.266-489.268c0-143.901,57.561-278.208,163.087-374.143
	c19.187-19.187,36.001-21.269,57.157,0c19.187,19.187,3.187,52.967-25.593,72.154c-76.75,76.75-122.603,165.841-122.603,300.744
	c0,204.579,204.309,417.579,426.219,417.579c220.646,0,414.334-207.001,414.334-406.335c0-145.647-77.378-251.704-145.308-326.395
	c-19.187-19.187-30.187-45.967-11-65.154c19.187-19.187,39.961-2.187,59.148,17c105.533,95.934,172.686,230.244,172.686,374.148
	C984.278,777.857,763.625,998.511,495.01,998.511L495.01,998.511z M495.01,461.279L495.01,461.279
	c-28.78,0-39.967-19.188-39.967-47.968V48.761c0-28.777,11.187-47.967,39.967-47.967l0,0c28.78,0,36.968,19.187,36.968,47.967
	v364.551C531.978,442.089,523.79,461.279,495.01,461.279z"/>
</svg>
