<?xml version="1.0" standalone="no"?><!DOCTYPE svg PUBLIC "-//W3C//DTD SVG 1.1//EN" "http://www.w3.org/Graphics/SVG/1.1/DTD/svg11.dtd"><svg t="1482203505352" class="icon" style="" viewBox="0 0 1024 1024" version="1.1" xmlns="http://www.w3.org/2000/svg" p-id="1003" xmlns:xlink="http://www.w3.org/1999/xlink" width="1024" height="1024"><defs><style type="text/css"></style></defs><path d="M284.233143 233.984c14.262857 0 26.331429 4.827429 36.278857 14.482286 9.910857 9.691429 14.884571 21.650286 14.884571 35.876571L335.396571 323.291429c0 14.262857-4.973714 26.331429-14.884571 36.242286-9.910857 9.910857-22.016 14.884571-36.278857 14.884571L243.821714 374.418286c-13.714286 0-25.563429-4.973714-35.474286-14.884571C198.4 349.622857 193.426286 337.517714 193.426286 323.291429L193.426286 284.379429c0-14.262857 4.973714-26.221714 14.884571-35.876571 9.910857-9.654857 21.76-14.482286 35.474286-14.482286L284.233143 234.020571 284.233143 233.984zM807.862857 233.984c13.750857 0 25.563429 4.827429 35.510857 14.482286 9.910857 9.691429 14.848 21.650286 14.848 35.876571L858.221714 323.291429c0 14.262857-4.937143 26.331429-14.848 36.242286-9.910857 9.910857-21.76 14.884571-35.510857 14.884571l-325.924571 0c-14.262857 0-26.331429-4.973714-36.278857-14.884571C435.785143 349.622857 430.811429 337.517714 430.811429 323.291429L430.811429 284.379429c0-14.262857 4.973714-26.221714 14.884571-35.876571 9.910857-9.654857 22.016-14.482286 36.278857-14.482286L807.862857 234.020571 807.862857 233.984zM284.233143 471.369143c14.262857 0 26.331429 4.973714 36.278857 14.884571 9.910857 9.910857 14.884571 22.016 14.884571 36.242286l0 38.912c0 13.714286-4.973714 25.563429-14.884571 35.510857-9.910857 9.910857-22.016 14.848-36.278857 14.848L243.821714 611.766857c-13.714286 0-25.563429-4.937143-35.474286-14.848-9.910857-9.910857-14.884571-21.796571-14.884571-35.510857l0-38.912c0-14.262857 4.973714-26.331429 14.884571-36.242286 9.910857-9.910857 21.76-14.884571 35.474286-14.884571L284.233143 471.369143 284.233143 471.369143zM807.862857 471.369143c13.750857 0 25.563429 4.973714 35.510857 14.884571 9.910857 9.910857 14.848 22.016 14.848 36.242286l0 38.912c0 13.714286-4.937143 25.563429-14.848 35.510857s-21.76 14.848-35.510857 14.848l-325.924571 0c-14.262857 0-26.331429-4.937143-36.278857-14.848-9.910857-9.910857-14.884571-21.796571-14.884571-35.510857l0-38.912c0-14.262857 4.973714-26.331429 14.884571-36.242286 9.910857-9.910857 22.016-14.884571 36.278857-14.884571L807.862857 471.369143 807.862857 471.369143zM284.233143 709.485714c14.262857 0 26.331429 4.973714 36.278857 14.884571 9.910857 9.910857 14.884571 21.76 14.884571 35.474286l0 38.912c0 14.299429-4.973714 26.368-14.884571 36.278857-9.910857 9.910857-22.016 14.848-36.278857 14.848L243.821714 849.883429c-13.714286 0-25.563429-4.937143-35.474286-14.848-9.910857-9.910857-14.884571-22.016-14.884571-36.278857l0-38.912c0-13.714286 4.973714-25.563429 14.884571-35.474286 9.910857-9.910857 21.76-14.884571 35.474286-14.884571L284.233143 709.485714 284.233143 709.485714zM807.862857 709.485714c13.750857 0 25.563429 4.973714 35.510857 14.884571 9.910857 9.910857 14.848 21.76 14.848 35.474286l0 38.912c0 14.299429-4.937143 26.368-14.848 36.278857s-21.76 14.848-35.510857 14.848l-325.924571 0c-14.262857 0-26.331429-4.937143-36.278857-14.848-9.910857-9.910857-14.884571-22.016-14.884571-36.278857l0-38.912c0-13.714286 4.973714-25.563429 14.884571-35.474286 9.910857-9.910857 22.016-14.884571 36.278857-14.884571L807.862857 709.485714 807.862857 709.485714zM807.862857 709.485714" p-id="1004"></path></svg>