<?xml version="1.0" standalone="no"?><!DOCTYPE svg PUBLIC "-//W3C//DTD SVG 1.1//EN" "http://www.w3.org/Graphics/SVG/1.1/DTD/svg11.dtd"><svg width="16" height="16" viewBox="0 0 16 16" version="1.1" xmlns="http://www.w3.org/2000/svg" xmlns:xlink="http://www.w3.org/1999/xlink"><defs><style type="text/css"><![CDATA[
@font-face { font-family: ifont; src: url("//at.alicdn.com/t/font_1442373896_4754455.eot?#iefix") format("embedded-opentype"), url("//at.alicdn.com/t/font_1442373896_4754455.woff") format("woff"), url("//at.alicdn.com/t/font_1442373896_4754455.ttf") format("truetype"), url("//at.alicdn.com/t/font_1442373896_4754455.svg#ifont") format("svg"); }

]]></style></defs><g class="transform-group"><g transform="scale(0.016, 0.016)"><path d="M904.8875 107.7739h-718.543006647772c-22.047 0-39.9186 17.8749-39.9186 39.9249v638.6859709117218c0 22.0381 17.8716 39.893 39.9186 39.893h718.543006647772c22.047 0 39.9186-17.8549 39.9186-39.893V147.69985949526222C944.8061 125.6488 926.9345 107.7739 904.8875 107.7739zM825.0453 706.535H266.1857058910533V506.96128025198914l119.7528-119.7638L585.5366 586.7922l119.7528-119.7718L825.0453 586.7922V706.5349692908208zM745.208 387.1985c-44.094 0-79.8332-35.7378-79.8332-79.8299 0-44.1081 35.7393-79.8339 79.8332-79.8339s79.8372 35.7258 79.8372 79.8339C825.0453 351.4607 789.302 387.1985 745.208 387.1985z" fill="#272636"></path></g></g></svg>