<?xml version="1.0" standalone="no"?><!DOCTYPE svg PUBLIC "-//W3C//DTD SVG 1.1//EN" "http://www.w3.org/Graphics/SVG/1.1/DTD/svg11.dtd"><svg width="200" height="200" viewBox="0 0 200 200" version="1.1" xmlns="http://www.w3.org/2000/svg" xmlns:xlink="http://www.w3.org/1999/xlink"><defs><style type="text/css"><![CDATA[
@font-face { font-family: ifont; src: url(http://at.alicdn.com/t/font_1442373896_4754455.eot?#iefix) format(embedded-opentype), url(http://at.alicdn.com/t/font_1442373896_4754455.woff) format(woff), url(http://at.alicdn.com/t/font_1442373896_4754455.ttf) format(truetype), url(http://at.alicdn.com/t/font_1442373896_4754455.svg#ifont) format(svg); }

]]></style></defs><g class="transform-group"><g transform="scale(0.1953125, 0.1953125)"><path d="M512 965.334c-249.968 0-453.334-203.365-453.334-453.334s203.365-453.334 453.334-453.334 453.334 203.365 453.334 453.334-203.365 453.334-453.334 453.334zM512 112c-220.56 0-400 179.44-400 400s179.44 400 400 400 400-179.44 400-400-179.44-400-400-400zM396.373 709.526v-45.053c14.931-34.896 45.139-72.917 90.624-114.061l29.426-26.302c21.256-19.443 35.987-37.021 44.197-52.733 8.208-15.712 12.312-32.072 12.312-49.088 0-21.701-6.587-38.672-19.762-50.912s-30.856-18.36-53.040-18.36c-9.539 0-18.68 0.912-27.435 2.734-8.757 1.824-18.114 4.731-28.080 8.722-9.968 3.998-22.84 10.507-38.611 19.531v-45.309c34.2-16.147 68.229-24.218 102.083-24.218 36.979 0 66.146 10.157 87.502 30.47s32.032 45.664 32.032 76.042c0 19.792-4.387 38.456-13.152 55.989-8.768 17.536-30.429 41.059-64.973 70.573l-19.792 16.928c-14.413 12.155-28.907 26.952-43.491 44.4s-23.872 35.981-27.864 55.6h167.709v45.053h-229.686z" fill="#000000"></path></g></g></svg>