<?xml version="1.0" standalone="no"?><!DOCTYPE svg PUBLIC "-//W3C//DTD SVG 1.1//EN" "http://www.w3.org/Graphics/SVG/1.1/DTD/svg11.dtd"><svg width="200" height="200" viewBox="0 0 200 200" version="1.1" xmlns="http://www.w3.org/2000/svg" xmlns:xlink="http://www.w3.org/1999/xlink"><defs><style type="text/css"><![CDATA[
@font-face { font-family: ifont; src: url(http://at.alicdn.com/t/font_1442373896_4754455.eot?#iefix) format(embedded-opentype), url(http://at.alicdn.com/t/font_1442373896_4754455.woff) format(woff), url(http://at.alicdn.com/t/font_1442373896_4754455.ttf) format(truetype), url(http://at.alicdn.com/t/font_1442373896_4754455.svg#ifont) format(svg); }

]]></style></defs><g class="transform-group"><g transform="scale(0.1953125, 0.1953125)"><path d="M512 995.555556c-266.632533 0-483.555556-216.923022-483.555556-483.555556S245.367467 28.444444 512 28.444444s483.555556 216.923022 483.555556 483.555556S778.632533 995.555556 512 995.555556zM512 85.333333C276.736 85.333333 85.333333 276.736 85.333333 512s191.402667 426.666667 426.666667 426.666667 426.666667-191.402667 426.666667-426.666667S747.264 85.333333 512 85.333333zM392.137956 714.498844l0-51.111822c39.131022 15.556267 69.922133 23.332978 92.3648 23.332978 26.146133 0 47.522133-7.640178 64.122311-22.917689 16.597333-15.277511 24.900267-35.043556 24.900267-59.306667 0-23.702756-8.487822-44.071822-25.469156-61.110044-16.978489-17.035378-49.026844-25.554489-96.1536-25.554489l-21.7088 0 0-36.943644 19.165867-0.278756c43.889778 0 73.841778-8.007111 89.861689-24.027022 16.014222-16.014222 24.027022-34.7648 24.027022-56.248889 0-19.072-6.345956-34.349511-19.026489-45.832533-12.686222-11.480178-31.527822-17.223111-56.527644-17.223111-27.039289 0-57.039644 7.685689-90.001067 23.054222l0-47.778133c23.515022-7.958756 41.847467-12.680533 55.000178-14.165333 13.147022-1.481956 26.015289-2.221511 38.610489-2.221511 43.514311 0 75.556978 8.706844 96.110933 26.112 20.5568 17.408 30.833778 40.465067 30.833778 69.165511 0 16.110933-2.963911 30.2336-8.888889 42.362311-5.927822 12.131556-14.907733 23.429689-26.945422 33.888711-12.040533 10.464711-28.706133 19.492978-49.999644 27.081956 26.848711 6.2976 46.805333 14.353067 59.861333 24.1664 13.056 9.819022 22.917689 22.129778 29.582222 36.943644 6.667378 14.816711 10.001067 30.742756 10.001067 47.778133 0 32.221867-11.019378 60.973511-33.055289 86.249244-22.0416 25.278578-58.888533 37.916444-110.555022 37.916444C462.6944 727.8336 430.654578 723.387733 392.137956 714.498844z" fill="#000000"></path></g></g></svg>