<?xml version="1.0" standalone="no"?><!DOCTYPE svg PUBLIC "-//W3C//DTD SVG 1.1//EN" "http://www.w3.org/Graphics/SVG/1.1/DTD/svg11.dtd"><svg width="200" height="200" viewBox="0 0 200 200" version="1.1" xmlns="http://www.w3.org/2000/svg" xmlns:xlink="http://www.w3.org/1999/xlink"><defs><style type="text/css"><![CDATA[
@font-face { font-family: ifont; src: url(http://at.alicdn.com/t/font_1442373896_4754455.eot?#iefix) format(embedded-opentype), url(http://at.alicdn.com/t/font_1442373896_4754455.woff) format(woff), url(http://at.alicdn.com/t/font_1442373896_4754455.ttf) format(truetype), url(http://at.alicdn.com/t/font_1442373896_4754455.svg#ifont) format(svg); }

]]></style></defs><g class="transform-group"><g transform="scale(0.1953125, 0.1953125)"><path d="M512 995.555556c-266.632533 0-483.555556-216.923022-483.555556-483.555556S245.367467 28.444444 512 28.444444s483.555556 216.923022 483.555556 483.555556S778.632533 995.555556 512 995.555556zM512 85.333333C276.736 85.333333 85.333333 276.736 85.333333 512s191.402667 426.666667 426.666667 426.666667 426.666667-191.402667 426.666667-426.666667S747.264 85.333333 512 85.333333zM400.472178 714.083556l0-48.890311c27.221333 10.928356 53.148444 16.389689 77.778489 16.389689 29.627733 0 51.527111-8.749511 65.695289-26.251378s21.250844-38.564978 21.250844-63.195022c0-28.148622-10.325333-50.648178-30.973156-67.498667-20.650667-16.847644-52.824178-25.278578-96.529067-25.278578-9.819022 0-19.908267 0.651378-30.279111 1.9456l0-200.001422 208.056889 0 0 48.056889-160.278756 0 0 108.054756c57.873067 0 100.394667 13.195378 127.570489 39.583289s40.763733 58.936889 40.763733 97.6384c0 35.555556-12.268089 65.789156-36.804267 90.695111-24.539022 24.9088-62.916267 37.361778-115.140267 37.361778C450.471822 722.693689 426.766222 719.8208 400.472178 714.083556z" fill="#000000"></path></g></g></svg>