<?xml version="1.0" standalone="no"?><!DOCTYPE svg PUBLIC "-//W3C//DTD SVG 1.1//EN" "http://www.w3.org/Graphics/SVG/1.1/DTD/svg11.dtd"><svg width="200" height="200" viewBox="0 0 200 200" version="1.1" xmlns="http://www.w3.org/2000/svg" xmlns:xlink="http://www.w3.org/1999/xlink"><defs><style type="text/css"><![CDATA[
@font-face { font-family: ifont; src: url(http://at.alicdn.com/t/font_1442373896_4754455.eot?#iefix) format(embedded-opentype), url(http://at.alicdn.com/t/font_1442373896_4754455.woff) format(woff), url(http://at.alicdn.com/t/font_1442373896_4754455.ttf) format(truetype), url(http://at.alicdn.com/t/font_1442373896_4754455.svg#ifont) format(svg); }

]]></style></defs><g class="transform-group"><g transform="scale(0.1953125, 0.1953125)"><path d="M512.136533 996.2496c-266.632533 0-483.555556-216.923022-483.555556-483.555556s216.923022-483.555556 483.555556-483.555556 483.555556 216.923022 483.555556 483.555556S778.769067 996.2496 512.136533 996.2496zM512.136533 86.027378c-235.264 0-426.666667 191.402667-426.666667 426.666667s191.402667 426.666667 426.666667 426.666667 426.666667-191.402667 426.666667-426.666667S747.400533 86.027378 512.136533 86.027378zM431.442489 505.454933c10.555733-13.698844 20.650667-23.8336 30.279111-30.404267s20.232533-11.619556 31.806578-15.135289 23.751111-5.276444 36.528356-5.276444c23.332978 0 44.583822 5.552356 63.749689 16.651378 19.165867 11.101867 33.749333 26.319644 43.7504 45.650489 10.001067 19.330844 14.998756 40.928711 14.998756 64.790756 0 26.271289-5.833956 50.878578-17.499022 73.816178-11.667911 22.943289-27.221333 40.840533-46.665956 53.697422-19.444622 12.8512-43.517156 19.282489-72.223289 19.282489-48.890311 0-85.182578-19.848533-108.888178-59.5456-23.7056-39.697067-35.555556-88.689778-35.555556-146.986667 0-38.493867 5.7344-75.4176 17.206044-110.762667 11.465956-35.347911 29.038933-63.243378 52.721778-83.692089 23.677156-20.451556 56.137956-30.677333 97.393778-30.677333 12.760178 0 25.0624 0.833422 36.900978 2.500267 11.844267 1.666844 30.250667 6.018844 55.222044 13.056l0 47.778133c-38.650311-14.813867-70.456889-22.223644-95.422578-22.223644-36.616533 0-63.1552 15.465244-79.610311 46.384356C439.668622 415.280356 431.442489 455.645867 431.442489 505.454933zM597.552356 592.551822c0-32.543289-7.543467-57.088-22.638933-73.642667-15.095467-16.548978-33.8432-24.826311-56.248889-24.826311-18.517333 0-37.316267 6.752711-56.388267 20.252444s-28.612267 33.194667-28.612267 59.081956c0 26.4448 6.621867 52.056178 19.859911 76.836978 13.238044 24.777956 35.510044 37.165511 66.804622 37.165511 22.593422 0 41.110756-8.271644 55.554844-24.826311C590.330311 646.0416 597.552356 622.6944 597.552356 592.551822z" fill="#000000"></path></g></g></svg>