<?xml version="1.0" standalone="no"?><!DOCTYPE svg PUBLIC "-//W3C//DTD SVG 1.1//EN" "http://www.w3.org/Graphics/SVG/1.1/DTD/svg11.dtd"><svg width="200" height="200" viewBox="0 0 200 200" version="1.1" xmlns="http://www.w3.org/2000/svg" xmlns:xlink="http://www.w3.org/1999/xlink"><defs><style type="text/css"><![CDATA[
@font-face { font-family: ifont; src: url(http://at.alicdn.com/t/font_1442373896_4754455.eot?#iefix) format(embedded-opentype), url(http://at.alicdn.com/t/font_1442373896_4754455.woff) format(woff), url(http://at.alicdn.com/t/font_1442373896_4754455.ttf) format(truetype), url(http://at.alicdn.com/t/font_1442373896_4754455.svg#ifont) format(svg); }

]]></style></defs><g class="transform-group"><g transform="scale(0.1953125, 0.1953125)"><path d="M512 995.555556c-266.632533 0-483.555556-216.923022-483.555556-483.555556S245.367467 28.444444 512 28.444444s483.555556 216.923022 483.555556 483.555556S778.632533 995.555556 512 995.555556zM512 85.333333C276.736 85.333333 85.333333 276.736 85.333333 512s191.402667 426.666667 426.666667 426.666667 426.666667-191.402667 426.666667-426.666667S747.264 85.333333 512 85.333333zM456.1664 493.528178c-26.112-18.130489-42.686578-34.133333-49.720889-48.011378-7.04-13.8752-10.555733-28.771556-10.555733-44.683378 0-30.085689 11.201422-55.054222 33.609956-74.899911 22.405689-19.842844 52.315022-29.764267 89.722311-29.764267 33.888711 0 61.340444 8.260267 82.360889 24.775111 21.0176 16.514844 31.527822 37.777067 31.527822 63.792356 0 18.133333-5.373156 36.030578-16.110933 53.700267-10.740622 17.672533-30.927644 36.036267-60.555378 55.0912 34.443378 16.867556 58.564267 34.608356 72.359822 53.233778 13.795556 18.628267 20.693333 40.078222 20.693333 64.352711 0 31.866311-12.407467 59.2896-37.2224 82.261333-24.817778 22.971733-58.706489 34.4576-101.666133 34.4576-44.2624 0-78.011733-10.976711-101.250844-32.930133-23.241956-21.953422-34.861511-48.125156-34.861511-78.512356 0-21.680356 6.434133-43.3152 19.305244-64.904533C406.675911 529.900089 427.460267 510.577778 456.1664 493.528178zM485.888 515.766044c-26.112 20.201244-42.083556 36.832711-47.917511 49.897244-5.833956 13.064533-8.749511 27.008-8.749511 41.836089 0 24.092444 7.870578 43.320889 23.611733 57.682489 15.738311 14.3616 35.461689 21.540978 59.167289 21.540978 22.223644 0 41.295644-5.927822 57.221689-17.789156 15.926044-11.858489 23.887644-28.259556 23.887644-49.200356 0-15.010133-4.212622-27.9808-12.637867-38.914844-8.428089-10.934044-26.990933-24.925867-55.694222-41.975467L485.888 515.766044zM525.889422 476.322133c18.147556-12.023467 32.267378-25.250133 42.362311-39.685689 10.092089-14.432711 15.138133-29.232356 15.138133-44.404622 0-15.911822-6.343111-29.044622-19.026489-39.409778-12.686222-10.362311-29.582222-15.542044-50.693689-15.542044-21.666133 0-38.471111 5.321956-50.417778 15.960178-11.943822 10.641067-17.917156 23.079822-17.917156 37.327644 0 13.508267 4.861156 26.322489 14.583467 38.442667S491.628089 456.894578 525.889422 476.322133z" fill="#000000"></path></g></g></svg>