<?xml version="1.0" standalone="no"?><!DOCTYPE svg PUBLIC "-//W3C//DTD SVG 1.1//EN" "http://www.w3.org/Graphics/SVG/1.1/DTD/svg11.dtd"><svg width="200" height="200" viewBox="0 0 200 200" version="1.1" xmlns="http://www.w3.org/2000/svg" xmlns:xlink="http://www.w3.org/1999/xlink"><defs><style type="text/css"><![CDATA[
@font-face { font-family: ifont; src: url(http://at.alicdn.com/t/font_1442373896_4754455.eot?#iefix) format(embedded-opentype), url(http://at.alicdn.com/t/font_1442373896_4754455.woff) format(woff), url(http://at.alicdn.com/t/font_1442373896_4754455.ttf) format(truetype), url(http://at.alicdn.com/t/font_1442373896_4754455.svg#ifont) format(svg); }

]]></style></defs><g class="transform-group"><g transform="scale(0.1953125, 0.1953125)"><path d="M512 995.555556c-266.632533 0-483.555556-216.923022-483.555556-483.555556S245.367467 28.444444 512 28.444444s483.555556 216.923022 483.555556 483.555556S778.632533 995.555556 512 995.555556zM512 85.333333C276.736 85.333333 85.333333 276.736 85.333333 512s191.402667 426.666667 426.666667 426.666667 426.666667-191.402667 426.666667-426.666667S747.264 85.333333 512 85.333333zM393.665422 715.056356l0-46.390044c34.813156 12.040533 64.443733 18.056533 88.888889 18.056533 22.590578 0 41.850311-5.967644 57.7792-17.911467 15.926044-11.943822 28.379022-31.3856 37.361778-58.328178 8.979911-26.939733 13.471289-56.337067 13.471289-88.186311-12.222578 14.995911-22.778311 25.642667-31.6672 31.937422-8.888889 6.294756-18.659556 11.107556-29.306311 14.441244-10.6496 3.333689-21.899378 4.994844-33.749333 4.994844-22.778311 0-43.844267-6.064356-63.195022-18.193067-19.3536-12.125867-34.352356-28.009244-44.999111-47.638756-10.6496-19.626667-15.971556-41.480533-15.971556-65.555911 0-25.3696 5.876622-49.7664 17.6384-73.193244 11.758933-23.424 27.406222-41.432178 46.944711-54.027378 19.535644-12.592356 43.099022-18.889956 70.695822-18.889956 49.072356 0 85.370311 19.677867 108.888178 59.027911 23.517867 39.352889 35.2768 86.624711 35.2768 141.806933 0 42.040889-6.991644 81.624178-20.972089 118.749867-13.983289 37.131378-33.473422 65.095111-58.473244 83.888356s-56.667022 28.194133-94.998756 28.194133C455.793778 727.8336 427.923911 723.569778 393.665422 715.056356zM426.999467 432.975644c0 30.697244 7.082667 55.247644 21.250844 73.645511 14.165333 18.403556 33.564444 27.599644 58.194489 27.599644 20.184178 0 39.210667-7.304533 57.082311-21.9136 17.8688-14.609067 26.806044-34.119111 26.806044-58.530133 0-21.080178-3.936711-41.563022-11.804444-61.44-7.873422-19.879822-17.962667-34.0224-30.279111-42.439111-12.316444-8.413867-26.990933-12.623644-44.029156-12.623644-24.260267 0-43.195733 8.6016-56.8064 25.799111S426.999467 403.575467 426.999467 432.975644z" fill="#000000"></path></g></g></svg>