<?xml version="1.0" standalone="no"?><!DOCTYPE svg PUBLIC "-//W3C//DTD SVG 1.1//EN" "http://www.w3.org/Graphics/SVG/1.1/DTD/svg11.dtd"><svg width="64.0625" height="64" viewBox="0 0 64.0625 64" version="1.1" xmlns="http://www.w3.org/2000/svg" xmlns:xlink="http://www.w3.org/1999/xlink"><defs><style type="text/css"><![CDATA[
@font-face { font-family: ifont; src: url(http://at.alicdn.com/t/font_1442373896_4754455.eot?#iefix) format(embedded-opentype), url(http://at.alicdn.com/t/font_1442373896_4754455.woff) format(woff), url(http://at.alicdn.com/t/font_1442373896_4754455.ttf) format(truetype), url(http://at.alicdn.com/t/font_1442373896_4754455.svg#ifont) format(svg); }

]]></style></defs><g class="transform-group"><g transform="scale(0.0625, 0.0625)"><path d="M1023.13984 885.51424c-3.35872-151.79776-94.90432-281.76384-225.60768-340.74624 60.416-46.8992 99.20512-120.13568 99.20512-202.42432 0-141.55776-114.81088-256.32768-256.57344-256.32768-46.4896 0-90.07104 12.41088-127.67232 34.03776C474.89024 98.38592 431.34976 86.016 384.86016 86.016c-141.7216 0-256.6144 114.76992-256.6144 256.32768 0 82.16576 38.7072 155.19744 98.87744 202.1376-129.92512 58.368-221.34784 186.81856-226.22208 337.05984C0.08192 884.81792 0 895.50848 0 895.50848 0 919.06048 19.0464 937.984 42.55744 937.984c23.51104 0 42.55744-19.0464 42.55744-42.47552l0.8192-1.35168c0.4096-156.01664 120.38144-283.8528 273.28512-296.79616l0 0c8.3968 0.86016 16.95744 1.31072 25.64096 1.31072s17.24416-0.53248 25.68192-1.31072l0 0c150.24128 12.82048 268.77952 136.6016 272.9984 289.05472-0.16384 1.67936 0.08192 9.17504 0.08192 9.17504 0 23.47008 19.0464 42.43456 42.55744 42.43456 23.42912 0 42.47552-18.96448 42.47552-42.43456 0 0-0.57344-8.15104-0.86016-10.15808-2.58048-115.58912-56.40192-218.5216-139.59168-287.08864 4.05504 0.16384 29.94176-0.16384 37.6832-0.90112 15.81056-1.55648 31.08864-4.5056 45.75232-8.84736l0 0.04096c100.47488 43.54048 224.6656 139.10016 227.1232 300.6464-0.08192 0.86016 0.08192 5.3248 0.08192 5.3248l0.08192 0.98304c0 23.47008 19.16928 42.43456 42.55744 42.43456 23.51104 0 42.55744-18.96448 42.55744-42.43456C1024 895.50848 1023.42656 887.52128 1023.13984 885.51424L1023.13984 885.51424zM384.24576 518.10304c-97.03424 0-175.7184-78.6432-175.7184-175.67744 0-97.03424 78.68416-175.7184 175.7184-175.7184 96.99328 0 175.67744 78.68416 175.67744 175.7184C559.9232 439.45984 481.23904 518.10304 384.24576 518.10304L384.24576 518.10304zM711.68 496.2304c2.58048-1.14688 5.03808-2.4576 7.45472-3.72736C716.71808 493.81376 714.26048 495.08352 711.68 496.2304L711.68 496.2304zM719.6672 492.25728c-2.78528 1.10592-5.5296 2.49856-8.06912 4.05504-16.54784 7.70048-34.65216 12.9024-53.69856 14.99136l-16.87552 0.90112c-0.57344 0.04096-1.024 0.08192-1.59744 0.08192-19.21024 0-37.6832-3.19488-54.96832-9.09312 35.59424-43.95008 56.97536-99.90144 56.97536-160.89088 0-61.35808-21.58592-117.63712-57.58976-161.792 17.36704-5.98016 36.08576-9.29792 55.58272-9.29792 94.24896 0 170.63936 76.34944 170.63936 170.51648C810.06592 406.9376 773.44768 463.50336 719.6672 492.25728L719.6672 492.25728z" fill="#272636"></path></g></g></svg>