<?xml version="1.0" standalone="no"?><!DOCTYPE svg PUBLIC "-//W3C//DTD SVG 1.1//EN" "http://www.w3.org/Graphics/SVG/1.1/DTD/svg11.dtd"><svg width="1024" height="1024" viewBox="0 0 1024 1024" version="1.1" xmlns="http://www.w3.org/2000/svg" xmlns:xlink="http://www.w3.org/1999/xlink"><defs><style type="text/css"><![CDATA[
@font-face { font-family: ifont; src: url(http://at.alicdn.com/t/font_1442373896_4754455.eot?#iefix) format(embedded-opentype), url(http://at.alicdn.com/t/font_1442373896_4754455.woff) format(woff), url(http://at.alicdn.com/t/font_1442373896_4754455.ttf) format(truetype), url(http://at.alicdn.com/t/font_1442373896_4754455.svg#ifont) format(svg); }

]]></style></defs><g class="transform-group"><g transform="scale(1, 1)"><path d="M512.268258 64.562113c-247.150559 0-447.437887 200.34057-447.437887 447.437887 0 247.093222 200.287328 447.437887 447.437887 447.437887 247.098341 0 447.437887-200.344665 447.437887-447.437887 0-247.098341-200.339546-447.437887-447.437887-447.437887z m55.929736 727.086566H456.338522v-111.859471h111.859472v111.859471z m0-167.789207H456.338522v-335.578415h111.859472v335.578415zM512.268258 64.562113c-247.150559 0-447.437887 200.34057-447.437887 447.437887 0 247.093222 200.287328 447.437887 447.437887 447.437887 247.098341 0 447.437887-200.344665 447.437887-447.437887 0-247.098341-200.339546-447.437887-447.437887-447.437887z m55.929736 727.086566H456.338522v-111.859471h111.859472v111.859471z m0-167.789207H456.338522v-335.578415h111.859472v335.578415z" fill="#272636"></path></g></g></svg>