<?xml version="1.0" standalone="no"?><!DOCTYPE svg PUBLIC "-//W3C//DTD SVG 1.1//EN" "http://www.w3.org/Graphics/SVG/1.1/DTD/svg11.dtd"><svg width="1024" height="1024" viewBox="0 0 1024 1024" version="1.1" xmlns="http://www.w3.org/2000/svg" xmlns:xlink="http://www.w3.org/1999/xlink"><defs><style type="text/css"><![CDATA[
@font-face { font-family: ifont; src: url(http://at.alicdn.com/t/font_1442373896_4754455.eot?#iefix) format(embedded-opentype), url(http://at.alicdn.com/t/font_1442373896_4754455.woff) format(woff), url(http://at.alicdn.com/t/font_1442373896_4754455.ttf) format(truetype), url(http://at.alicdn.com/t/font_1442373896_4754455.svg#ifont) format(svg); }

]]></style></defs><g class="transform-group"><g transform="scale(1, 1)"><path d="M511.663844 64.01503c-247.250467 0-447.67235 200.489421-447.67235 447.852452 0 247.256607 200.420859 447.746028 447.67235 447.746028 247.227955 0 447.67235-200.489421 447.67235-447.746028C959.336193 264.50445 758.891798 64.01503 511.663844 64.01503L511.663844 64.01503zM768.424928 395.667877l-289.522265 289.623573 0 0c-13.363369 13.366439-33.717973 15.460125-49.236427 6.26878-2.895959-1.705853-5.60363-3.79647-8.061614-6.26878l0 0L254.87513 518.580377c-15.819306-15.844889-15.819306-41.484875 0-57.32874 15.846936-15.845912 41.478735-15.845912 57.326694 0l138.039028 138.095309 260.88399-261.008833c15.8234-15.844889 41.480782-15.844889 57.299065 0C784.248328 354.183002 784.248328 379.821965 768.424928 395.667877L768.424928 395.667877zM768.424928 395.667877" fill="#272636"></path></g></g></svg>