<?xml version="1.0" standalone="no"?><!DOCTYPE svg PUBLIC "-//W3C//DTD SVG 1.1//EN" "http://www.w3.org/Graphics/SVG/1.1/DTD/svg11.dtd"><svg width="16" height="16" viewBox="0 0 16 16" version="1.1" xmlns="http://www.w3.org/2000/svg" xmlns:xlink="http://www.w3.org/1999/xlink"><defs><style type="text/css"><![CDATA[
@font-face { font-family: ifont; src: url(http://at.alicdn.com/t/font_1442373896_4754455.eot?#iefix) format(embedded-opentype), url(http://at.alicdn.com/t/font_1442373896_4754455.woff) format(woff), url(http://at.alicdn.com/t/font_1442373896_4754455.ttf) format(truetype), url(http://at.alicdn.com/t/font_1442373896_4754455.svg#ifont) format(svg); }

]]></style></defs><g class="transform-group"><g transform="scale(0.015625, 0.015625)"><path d="M530.497 478.325c72.356-2.846 130.346-62.588 130.346-135.631 0-74.849-60.895-135.742-135.745-135.742-74.851 0-135.746 60.893-135.746 135.742 0 71.983 56.319 131.049 127.207 135.472 0.928-0.007 1.851-0.031 2.78-0.031C523.076 478.135 526.791 478.212 530.497 478.325zM439.433 387.818l0-5.322L610.76 382.496l0 5.322c0 39.408-38.427 71.47-85.662 71.47C477.861 459.288 439.433 427.227 439.433 387.818zM513.241 7.614c-278.071 0-503.49 225.419-503.49 503.488 0 278.075 225.419 503.495 503.49 503.495 278.065 0 503.488-225.42 503.488-503.495C1016.729 233.034 791.307 7.614 513.241 7.614zM810.902 776.513c-13.228 0-23.951-10.723-23.951-23.951 0-121.699-113.977-221.275-256.32-226.304-1.838 0.055-3.682 0.091-5.533 0.091-3.29 0-6.56-0.091-9.809-0.263-145.701 1.841-263.563 102.719-263.563 226.476 0 13.229-10.723 23.951-23.952 23.951-13.228 0-23.951-10.723-23.951-23.951 0-120.771 90.166-223.567 215.021-260.151-46.808-33.318-77.394-88.013-77.394-149.716 0-101.262 82.383-183.645 183.648-183.645 101.264 0 183.648 82.383 183.648 183.645 0 63.237-32.128 119.111-80.916 152.16 120.69 38.56 207.024 139.531 207.024 257.708C834.854 765.79 824.131 776.513 810.902 776.513z" fill="#272636"></path></g></g></svg>