<?xml version="1.0" standalone="no"?><!DOCTYPE svg PUBLIC "-//W3C//DTD SVG 1.1//EN" "http://www.w3.org/Graphics/SVG/1.1/DTD/svg11.dtd"><svg t="1508894143811" class="icon" style="" viewBox="0 0 1024 1024" version="1.1" xmlns="http://www.w3.org/2000/svg" p-id="1324" xmlns:xlink="http://www.w3.org/1999/xlink" width="1024" height="1024"><defs><style type="text/css"></style></defs><path d="M400.465613 294.100487h211.513957c65.43675 0 115.426535-141.941798 115.426535-141.941798 0-42.448747-4.257038-74.680603-76.869937-76.869937-72.612899-2.310963-90.005939 50.841193-142.306687 50.841192-53.517045 0-80.275567-41.718969-146.077206-50.841192-65.801639-9.122224-76.869937 34.42119-76.869937 76.869937-0.12163 0 49.746526 141.941798 115.183275 141.941798m223.068774 43.908303H400.465613C153.55743 338.00879 92.864236 823.189452 92.864236 823.189452c0 63.733935 51.6926 127.71113 115.426535 127.71113h607.540088c63.733935 0 115.304906-63.977194 115.304905-127.71113 0 0-60.693194-485.180663-307.601377-485.180662m25.298966 372.916498c14.838817 0 26.880152 12.041335 26.880152 27.001782 0 14.838817-12.041335 27.001782-26.880152 27.001781h-109.345053V835.595676c0 14.838817-12.041335 27.001782-26.880152 27.001782-14.838817 0-26.880152-12.041335-26.880152-27.001782v-70.666825h-110.074831c-14.838817 0-26.880152-12.041335-26.880152-27.001781s12.041335-27.001782 26.880152-27.001782H485.727996v-34.177931h-110.074831c-14.838817 0-26.880152-12.041335-26.880152-27.001782 0-14.838817 12.041335-27.001782 26.880152-27.001781h74.437345L373.828721 487.369996c-7.419408-12.892743-3.040741-29.434375 9.852001-36.853783 12.892743-7.419408 29.312745-3.040741 36.732154 9.852002L512.12163 622.743794h4.621926L608.57394 460.368215c7.419408-12.892743 23.961041-17.27141 36.732153-9.852002 12.892743 7.419408 17.27141 23.839411 9.852002 36.853783L579.017936 622.743794h69.815417c14.838817 0 26.880152 12.041335 26.880152 27.001781 0 14.838817-12.041335 27.001782-26.880152 27.001782h-109.345053v34.177931h109.345053m0 0z" fill="#666666" p-id="1325"></path></svg>