<?xml version="1.0" standalone="no"?><!DOCTYPE svg PUBLIC "-//W3C//DTD SVG 1.1//EN" "http://www.w3.org/Graphics/SVG/1.1/DTD/svg11.dtd"><svg t="1508379017364" class="icon" style="" viewBox="0 0 1024 1024" version="1.1" xmlns="http://www.w3.org/2000/svg" p-id="1723" xmlns:xlink="http://www.w3.org/1999/xlink" width="1024" height="1024"><defs><style type="text/css"></style></defs><path d="M373.4 415.6V256.1c0-58.9 47.8-106.6 106.6-106.6s106.6 47.8 106.6 106.6v159.5c51.6-34.5 85.3-93 85.3-159.5 0-106.2-85.7-191.9-191.9-191.9s-191.9 85.7-191.9 191.9c0 66.5 33.7 125 85.3 159.5z m419.7 197.5l-193.6-96.4c-7.3-3-14.9-4.7-23-4.7H544V256.1c0-35.4-28.6-64-64-64s-64 28.6-64 64v458.1l-146.3-30.7c-3.4-0.4-6.4-1.3-10.2-1.3-13.2 0-25.2 5.5-33.7 14.1l-33.7 34.1 210.7 210.7c11.5 11.5 27.7 18.8 45.2 18.8h289.6c32 0 56.7-23.5 61.4-54.6l32-224.8c0.4-3 0.9-6 0.9-8.5 0-26.5-16.2-49.5-38.8-58.9z" p-id="1724"></path></svg>