<?xml version="1.0" standalone="no"?><!DOCTYPE svg PUBLIC "-//W3C//DTD SVG 1.1//EN" "http://www.w3.org/Graphics/SVG/1.1/DTD/svg11.dtd"><svg t="1508396026485" class="icon" style="" viewBox="0 0 1024 1024" version="1.1" xmlns="http://www.w3.org/2000/svg" p-id="4263" xmlns:xlink="http://www.w3.org/1999/xlink" width="1024" height="1024"><defs><style type="text/css"></style></defs><path d="M958.89408 480.344064 537.710592 59.160576c-5.036032-8.928256-14.5408-14.57664-24.969216-14.57664l-1.483776 0c-10.428416 0-19.933184 5.648384-24.969216 14.57664L65.10592 480.344064c-11.19744 11.19744-11.19744 29.351936 0 40.549376 5.598208 5.598208 12.936192 8.397824 20.274176 8.397824s14.675968-2.799616 20.274176-8.397824l39.719936-39.719936L145.374208 889.30304c0 49.687552 40.424448 90.112 90.112 90.112l553.027584 0c49.687552 0 90.112-40.424448 90.112-90.112L878.625792 597.354496c0-15.835136-12.836864-28.672-28.672-28.672s-28.672 12.836864-28.672 28.672L821.281792 889.30304c0 18.06848-14.69952 32.768-32.768 32.768L675.47648 922.07104 675.47648 659.411968c0-49.687552-40.424448-90.112-90.112-90.112L438.63552 569.299968c-49.687552 0-90.112 40.424448-90.112 90.112L348.52352 922.07104 235.486208 922.07104c-18.06848 0-32.768-14.69952-32.768-32.768L202.718208 423.829504 512 114.546688l406.345728 406.344704c11.196416 11.19744 29.351936 11.19744 40.548352 0C970.090496 509.694976 970.090496 491.541504 958.89408 480.344064zM405.86752 659.411968c0-18.06848 14.69952-32.768 32.768-32.768l146.727936 0c18.06848 0 32.768 14.69952 32.768 32.768L618.131456 922.07104 405.86752 922.07104 405.86752 659.411968z" p-id="4264"></path><path d="M512 774.356992m-39.81312 0a38.88 38.88 0 1 0 79.62624 0 38.88 38.88 0 1 0-79.62624 0Z" p-id="4265"></path></svg>