<?xml version="1.0" standalone="no"?><!DOCTYPE svg PUBLIC "-//W3C//DTD SVG 1.1//EN" "http://www.w3.org/Graphics/SVG/1.1/DTD/svg11.dtd"><svg t="1508404965439" class="icon" style="" viewBox="0 0 1024 1024" version="1.1" xmlns="http://www.w3.org/2000/svg" p-id="12585" xmlns:xlink="http://www.w3.org/1999/xlink" width="1024" height="1024"><defs><style type="text/css"></style></defs><path d="M 1015.88 784.368 c 0 52.848 -26.552 111.64 -78.744 111.64 H 118.16 c -52.2 0 -110.248 -58.792 -110.248 -111.64 V 215.712 c 0 -2.712 0.248 -5.304 0.544 -7.872 c -1.432 -9 0.792 -18.528 7.152 -25.952 a 31.724 31.724 0 0 1 4.808 -4.544 c 19.856 -27.392 60.256 -41.352 97.744 -41.352 h 818.976 c 43.272 0 68.856 18.552 76.36 54.968 c 1.952 4.944 2.656 10.2 2.08 15.376 c 0.2 3.032 0.304 6.152 0.304 9.376 v 568.656 Z M 118.16 832.2 h 818.976 c 17.384 0 15.744 -30.224 15.744 -47.832 V 269.064 L 532.504 609.496 a 31.24 31.24 0 0 1 -41.248 -0.008 L 70.92 269.08 v 515.288 c 0 17.608 29.864 47.832 47.24 47.832 Z m 803.224 -632.432 H 118.16 c -8.712 0 -20.568 -0.4 -30.224 1.408 l 423.96 342.04 L 937.584 199.76 l -0.448 0.008 h -15.752 Z" fill="#2c2c2c" p-id="12586"></path></svg>