<?xml version="1.0" standalone="no"?><!DOCTYPE svg PUBLIC "-//W3C//DTD SVG 1.1//EN" "http://www.w3.org/Graphics/SVG/1.1/DTD/svg11.dtd"><svg t="1508401982991" class="icon" style="" viewBox="0 0 1024 1024" version="1.1" xmlns="http://www.w3.org/2000/svg" p-id="6242" xmlns:xlink="http://www.w3.org/1999/xlink" width="1024" height="1024"><defs><style type="text/css"></style></defs><path d="M716.854 460.812h102.377v102.377H716.854z" p-id="6243"></path><path d="M511.985 256V51.188H0.014v921.623h1023.973V256H511.985zM204.854 870.434h-102.49V768h102.49v102.434z m0-204.811h-102.49V563.188h102.49v102.435z m0-204.811h-102.49V358.378h102.49v102.434z m0-204.812h-102.49V153.566h102.49V256z m204.754 614.434H307.23V768h102.378v102.434z m0-204.811H307.23V563.188h102.378v102.435z m0-204.811H307.23V358.378h102.378v102.434z m0-204.812H307.23V153.566h102.378V256z m512 614.434H511.985V768h102.378V665.623H511.985V563.188h102.378V460.812H511.985V358.378h409.623v512.056z" p-id="6244"></path><path d="M716.854 665.623h102.377V768H716.854z" p-id="6245"></path></svg>