<?xml version="1.0" standalone="no"?><!DOCTYPE svg PUBLIC "-//W3C//DTD SVG 1.1//EN" "http://www.w3.org/Graphics/SVG/1.1/DTD/svg11.dtd"><svg t="1508910593583" class="icon" style="" viewBox="0 0 1170 1024" version="1.1" xmlns="http://www.w3.org/2000/svg" p-id="5658" xmlns:xlink="http://www.w3.org/1999/xlink" width="1170" height="1024"><defs><style type="text/css"></style></defs><path d="M1002.934857 0.512H167.350857C76.068571 0.512 1.170286 70.948571 1.170286 156.452571v706.486858c0 86.966857 74.898286 157.476571 166.180571 157.476571h834.048c92.891429 0 167.716571-70.509714 167.716572-156.013714V156.525714c0-85.430857-74.898286-155.940571-166.180572-155.940571z m-38.912 945.444571H208.969143c-71.826286 0-130.706286-54.637714-130.706286-120.832V194.194286c0-66.194286 58.88-120.832 130.706286-120.832h753.664c71.826286 0 130.706286 54.637714 130.706286 120.832v630.930285c1.462857 66.194286-57.490286 120.832-129.316572 120.832z" p-id="5659"></path><path d="M379.245714 726.454857H223.085714c-8.996571 0-29.549714 8.777143-29.549714 30.939429 0 22.235429 20.48 31.012571 29.549714 31.012571h157.622857c8.996571 0 31.451429-9.801143 31.451429-31.012571s-23.990857-30.939429-32.914286-30.939429zM458.020571 507.026286H223.085714c-8.996571 0-29.549714 8.777143-29.549714 30.939428 0 22.235429 20.48 31.012571 29.549714 31.012572h236.470857c8.996571 0 31.451429-9.801143 31.451429-31.012572s-23.990857-30.939429-32.914286-30.939428zM379.245714 287.597714H223.085714c-8.996571 0-29.549714 8.777143-29.549714 30.939429 0 22.235429 20.48 31.012571 29.549714 31.012571h157.622857c8.996571 0 31.451429-9.801143 31.451429-31.012571s-23.990857-30.939429-32.914286-30.939429zM809.252571 526.482286c-74.532571 0-135.094857-61.586286-135.094857-137.289143 0-75.629714 60.562286-137.216 135.094857-137.216 74.459429 0 135.021714 61.586286 135.021715 137.216 0 75.702857-60.562286 137.289143-135.021715 137.289143zM822.857143 803.108571c-171.739429 0-208.603429-35.108571-212.260572-39.058285a14.482286 14.482286 0 0 1-3.803428-9.508572v-3.949714c0-113.152 90.550857-205.165714 201.947428-205.165714 111.396571 0 201.947429 92.013714 201.947429 205.165714 0 4.681143-2.194286 8.996571-5.851429 11.702857-2.340571 1.682286-57.782857 40.813714-175.908571 40.813714h-6.070857z" p-id="5660"></path></svg>