<?xml version="1.0" encoding="utf-8"?>
<!DOCTYPE svg PUBLIC "-//W3C//DTD SVG 1.1//EN" "http://www.w3.org/Graphics/SVG/1.1/DTD/svg11.dtd">
<svg style="width:308px;height:308px;" version="1.1" id="图形" xmlns="http://www.w3.org/2000/svg" xmlns:xlink="http://www.w3.org/1999/xlink" x="0px" y="0px" width="1024px" height="1024px" viewBox="0 0 1024 1024" enable-background="new 0 0 1024 1024" xml:space="preserve">
  <path class="svgpath" data-index="path_0" fill="#272636" d="M158.527015 861.533768l706.944947 0c-90.115414 91.104951-215.198224 147.555637-353.469404 147.555637C373.727285 1009.090429 248.642428 952.639742 158.527015 861.533768zM225.121735 690.225147c38.033221-16.021905 80.192414-34.647101 118.155027-50.197262 10.827603-2.960425 21.656229-5.903453 32.482809-8.862855 12.890588-8.897647 25.579585-38.473243 32.481785-53.156664l15.396665-3.737114c-3.520173-19.405979-15.532765-20.945031-20.541849-34.68394-1.959631-20.673855-3.924379-41.34771-5.884011-62.013379 0.065492 0.982374-14.145162-2.595105-16.039301-3.737114-20.029172-12.605086-20.469194-63.629179-22.398126-84.85255-0.881067-9.728572 12.654204-17.678638 8.898671-35.475979-21.99392-104.180757 9.505491-152.920832 59.312874-169.060417 34.547841-14.015202 99.036597-39.968293 159.230538-2.951215l14.989389 13.81361 24.125467 4.178159c12.110829 7.003508 19.894096 30.240745 19.894096 30.240745 6.360871 25.620517 7.003508 27.754111 6.39464 54.052057-0.237407 10.159384-6.054903 57.088206-4.465708 71.461565 1.285273 11.850909 4.228301 12.798491 8.93244 22.600741 8.151657 17.011442 5.41329 40.476877 2.2656 57.638745-1.690502 9.373485-5.308913 22.763446-10.827603 30.436196-6.055926 8.42488-18.135032 8.500605-23.550369 18.346857-7.712659 14.176884-3.347235 34.096563-8.220219 49.452295-5.51562 17.365506-19.591197 18.583241-20.672832 41.34771 6.901177 0.937348 13.803377 1.962701 20.672832 2.942005 6.935969 14.684444 19.556405 44.259016 32.515554 53.156664 10.827603 2.960425 21.654182 5.903453 32.481785 8.862855 37.96466 15.549138 80.123852 34.174334 118.15298 50.197262 34.615379 14.605649 76.097142 19.801998 88.61934 56.107879 0 18.962887 1.357927 57.81066 1.709945 89.430822 74.737168-86.983073 119.909997-200.102411 119.909997-323.780221 0-274.523377-222.583424-497.074056-497.142617-497.074056-274.566356 0-497.148757 222.550679-497.148757 497.074056 0 123.67781 45.171806 236.797148 119.909997 323.780221 0.350994-31.619138 1.711991-70.467935 1.711991-89.430822C148.992871 710.027146 190.475658 704.83182 225.121735 690.225147zM889.235179 835.763848c-7.619538 8.867972-15.546068 17.46272-23.76424 25.770943M158.527015 861.533768c-8.217149-8.308223-16.144702-16.902972-23.76424-25.770943" />

</svg>
