<?xml version="1.0" standalone="no"?><!DOCTYPE svg PUBLIC "-//W3C//DTD SVG 1.1//EN" "http://www.w3.org/Graphics/SVG/1.1/DTD/svg11.dtd"><svg width="16" height="16" viewBox="0 0 16 16" version="1.1" xmlns="http://www.w3.org/2000/svg" xmlns:xlink="http://www.w3.org/1999/xlink"><defs><style type="text/css"><![CDATA[
@font-face { font-family: ifont; src: url(http://at.alicdn.com/t/font_1442373896_4754455.eot?#iefix) format(embedded-opentype), url(http://at.alicdn.com/t/font_1442373896_4754455.woff) format(woff), url(http://at.alicdn.com/t/font_1442373896_4754455.ttf) format(truetype), url(http://at.alicdn.com/t/font_1442373896_4754455.svg#ifont) format(svg); }

]]></style></defs><g class="transform-group"><g transform="scale(0.015625, 0.015625)"><path d="M583.424 466.688l379.456-398.016c0.512-0.512 1.216-0.64 1.856-0.384 0.64 0.256 1.024 0.96 0.96 1.664l-43.904 622.208c-0.064 0.576-0.384 1.152-0.96 1.408-0.256 0.128-0.448 0.192-0.704 0.192-0.32 0-0.64-0.128-0.96-0.32l-238.208-167.168-160.832 145.472c-0.576 0.512-1.408 0.576-2.048 0.192-0.64-0.384-0.896-1.216-0.704-1.92L583.04 467.328C583.104 467.072 583.232 466.88 583.424 466.688zM269.248 367.808l166.848 45.568 74.368 228.928C510.656 643.008 511.296 643.456 512 643.456c0 0 0.064 0 0.064 0 0.768-0.064 1.408-0.576 1.536-1.28l12.928-56.96C526.656 584.896 526.592 584.576 526.528 584.32L475.776 420.224l476.608-358.912c0.704-0.512 0.832-1.472 0.448-2.176-0.448-0.704-1.344-1.024-2.112-0.64L268.992 364.672c-0.64 0.32-1.024 0.96-0.96 1.664C268.032 367.04 268.544 367.616 269.248 367.808zM322.944 217.088c18.304 0 33.152-14.784 33.152-33.216L356.096 91.392c0-18.304-14.784-33.088-33.152-33.088-18.368 0-33.216 14.784-33.216 33.088l0 92.544C289.664 202.24 304.576 217.088 322.944 217.088zM194.368 799.488c0 3.52 2.88 6.4 6.4 6.4l621.44 0c3.52 0 6.4-2.88 6.4-6.4l0-51.008c0.064-0.32 0.064-0.576 0.064-0.896 0-3.52-2.88-6.4-6.336-6.4L200.768 741.184c-3.52 0-6.4 2.88-6.4 6.4L194.368 799.488zM194.368 684.288c0 3.52 2.88 6.4 6.4 6.4l227.264 0c3.52 0 6.4-2.88 6.4-6.4L434.432 633.28C434.496 632.96 434.496 632.704 434.496 632.384c0-3.52-2.88-6.4-6.336-6.4L200.768 625.984c-3.52 0-6.4 2.88-6.4 6.4L194.368 684.288zM200.768 575.488l125.568 0c3.52 0 6.4-2.88 6.4-6.4L332.736 518.08C332.8 517.76 332.8 517.504 332.8 517.184c0-3.52-2.88-6.4-6.336-6.4L200.768 510.784c-3.52 0-6.4 2.88-6.4 6.4l0 51.904C194.368 572.608 197.248 575.488 200.768 575.488zM668.032 58.304c-18.368 0-33.152 14.784-33.152 33.088L634.88 117.76l66.112-29.696C699.328 71.296 685.248 58.304 668.032 58.304zM609.856 128.96 609.856 91.712 381.12 91.712l0 76.16 142.144 0L609.856 128.96zM889.536 889.344 134.4 889.344 134.4 167.872l130.24 0 0-76.16L132.352 91.712c-40.896 0-74.112 33.216-74.112 74.176L58.24 891.52c0 40.96 33.152 74.176 74.112 74.176l759.232 0c40.96 0 74.112-33.216 74.112-74.176l0-76.736-76.16-53.44L889.536 889.344z" fill="#272636"></path></g></g></svg>