<?xml version="1.0" standalone="no"?><!DOCTYPE svg PUBLIC "-//W3C//DTD SVG 1.1//EN" "http://www.w3.org/Graphics/SVG/1.1/DTD/svg11.dtd"><svg width="200" height="200" viewBox="0 0 200 200" version="1.1" xmlns="http://www.w3.org/2000/svg" xmlns:xlink="http://www.w3.org/1999/xlink"><defs><style type="text/css"><![CDATA[
@font-face { font-family: ifont; src: url(http://at.alicdn.com/t/font_1442373896_4754455.eot?#iefix) format(embedded-opentype), url(http://at.alicdn.com/t/font_1442373896_4754455.woff) format(woff), url(http://at.alicdn.com/t/font_1442373896_4754455.ttf) format(truetype), url(http://at.alicdn.com/t/font_1442373896_4754455.svg#ifont) format(svg); }

]]></style></defs><g class="transform-group"><g transform="scale(0.1953125, 0.1953125)"><path d="M567.68 808.32 567.68 632.192 456.96 632.192l0 176.64c-3.456 0.128-6.272 0.384-8.96 0.384-52.352 0-104.576 0-156.928 0-17.92 0-30.08-11.52-30.08-30.592-0.384-72.448-0.256-145.024 0.128-217.472 0-3.84 2.944-8.704 5.888-11.264 47.36-41.856 94.848-83.328 142.464-124.928 31.616-27.648 63.232-55.424 94.848-83.072 2.432-2.176 4.992-4.224 8.064-6.784 18.816 16.512 37.632 32.896 56.448 49.28 61.824 54.144 123.648 108.416 185.728 162.304 6.656 5.76 9.472 11.648 9.472 20.992-0.384 68.864-0.256 137.728-0.128 206.464 0 12.544-2.944 23.424-13.312 30.336-3.712 2.56-8.576 4.736-12.928 4.736-55.552 0.256-110.976 0.128-166.528 0.128C569.984 809.216 569.216 808.832 567.68 808.32L567.68 808.32 567.68 808.32zM651.008 320.512c0-29.056 0-55.936 0-82.688 0-17.152 3.84-21.248 19.968-21.248 24.96 0 50.048 0 75.008 0 12.928 0 17.408 4.864 17.408 19.328 0 57.344 0.256 114.816-0.128 172.288 0 8.832 2.304 14.592 8.832 20.224 27.392 23.424 54.272 47.488 81.28 71.424 13.312 11.776 13.568 17.408 2.432 31.36-6.784 8.448-13.312 17.152-20.224 25.6-8.32 10.496-15.232 11.136-25.344 2.176-95.872-84.992-191.872-170.112-287.744-255.104-3.328-2.944-6.784-5.76-10.624-9.216-21.632 19.072-43.008 38.016-64.384 56.96C369.792 420.608 291.84 489.6 214.016 558.592c-10.496 9.344-17.152 8.832-25.984-2.176-7.296-9.216-14.592-18.432-21.888-27.648-8.448-10.752-8.064-17.792 2.048-26.88 43.392-38.656 87.04-77.056 130.56-115.584 57.984-51.328 116.096-102.656 174.08-154.112 26.368-23.296 51.968-23.296 78.336 0.128 31.232 27.776 62.464 55.424 93.696 83.072C646.4 316.8 647.936 317.952 651.008 320.512L651.008 320.512 651.008 320.512zM651.008 320.512" fill="#000000"></path></g></g></svg>