<?xml version="1.0" standalone="no"?><!DOCTYPE svg PUBLIC "-//W3C//DTD SVG 1.1//EN" "http://www.w3.org/Graphics/SVG/1.1/DTD/svg11.dtd"><svg width="210.546875" height="200" viewBox="0 0 210.546875 200" version="1.1" xmlns="http://www.w3.org/2000/svg" xmlns:xlink="http://www.w3.org/1999/xlink"><defs><style type="text/css"><![CDATA[
@font-face { font-family: ifont; src: url(http://at.alicdn.com/t/font_1442373896_4754455.eot?#iefix) format(embedded-opentype), url(http://at.alicdn.com/t/font_1442373896_4754455.woff) format(woff), url(http://at.alicdn.com/t/font_1442373896_4754455.ttf) format(truetype), url(http://at.alicdn.com/t/font_1442373896_4754455.svg#ifont) format(svg); }

]]></style></defs><g class="transform-group"><g transform="scale(0.1953125, 0.1953125)"><path d="M916.094232 302.983494C916.71036 299.28465 916.094232 295.51612 916.094232 291.657405L916.094232 125.990965C916.094232 87.86977 885.211629 56.960435 847.104393 56.960435 809.00131 56.960435 778.114557 87.865672 778.114557 125.990965L778.114557 182.702031 600.323253 26.585362C564.903448-8.861787 507.476068-8.861787 472.047956 26.585362L26.565891 411.568573C-8.855296 447.003424 0 522.991263 26.565891 534.384707L148.92081 582.919235 148.92081 935.637641C148.92081 984.43862 188.455526 1024 237.223871 1024L833.31418 1024C882.082525 1024 921.622779 984.444085 921.622779 935.637641L921.622779 595.13212 1051.317248 545.429318C1076.952304 534.384715 1086.752283 458.052136 1051.326941 422.602253L916.094232 302.983494ZM700.000472 442.509336C730.764 442.509336 755.701305 467.120934 755.701305 497.480976 755.701305 527.841019 730.762617 552.452616 700.000472 552.452616 669.238323 552.452616 644.299636 527.841019 644.299636 497.480976 644.299636 467.1223 669.236938 442.509336 700.000472 442.509336L700.000472 442.509336 700.000472 442.509336ZM377.892363 442.509336C408.654508 442.509336 433.591811 467.120934 433.591811 497.480976 433.591811 527.841019 408.653123 552.452616 377.892363 552.452616 347.127447 552.452616 322.190142 527.841019 322.190142 497.480976 322.188757 467.1223 347.127447 442.509336 377.892363 442.509336L377.892363 442.509336 377.892363 442.509336ZM807.271998 749.621407C742.549372 832.716293 644.569624 894.871099 538.501279 894.871099L538.32821 894.871099 538.160678 894.871099C433.21521 894.871099 335.883439 833.532033 271.15112 751.889632 258.349482 735.722386 261.209983 712.387007 277.592091 699.753273 284.321051 694.533624 292.297499 691.949762 300.247641 691.837718 311.714563 691.580834 323.163486 696.480744 330.78964 706.107034 381.099 769.572215 456.754109 805.974477 538.329592 806.025035 620.769043 805.979944 696.908746 768.942304 747.218106 704.364873 754.768109 694.677097 766.190727 689.659675 777.672879 689.830475 785.596715 689.872834 793.573163 692.381545 800.345045 697.521942 816.839305 710.049097 819.965639 733.384478 807.271998 749.621407L807.271998 749.621407 807.271998 749.621407Z" fill="#000000"></path></g></g></svg>