<?xml version="1.0" standalone="no"?><!DOCTYPE svg PUBLIC "-//W3C//DTD SVG 1.1//EN" "http://www.w3.org/Graphics/SVG/1.1/DTD/svg11.dtd"><svg t="1489047537491" class="icon" style="" viewBox="0 0 1024 1024" version="1.1" xmlns="http://www.w3.org/2000/svg" p-id="11944" xmlns:xlink="http://www.w3.org/1999/xlink" width="1024" height="1024"><defs><style type="text/css"></style></defs><path d="M298.79168 679.35104c23.49184-26.60096 325.69728-197.26592 325.69728-197.26592l-394.58944-53.2608 527.68128-6.27456c0 0 18.80064 15.66336 0 37.59744-18.76992 21.93792-299.0656 214.51008-299.0656 214.51008l318.71232 25.53984-9.68704-56.53248 255.8464-249.38112-353.55264-51.34976L511.69152 22.53184 353.55264 342.93504 0 394.28352l255.8464 249.38112-60.38016 352.1856L511.69152 829.5808l316.22784 166.26944-49.57568-289.16096-479.55328 21.2288C298.79168 727.91808 275.29984 705.98016 298.79168 679.35104z" p-id="11945"></path><path d="M777.22624 700.19712 778.34368 706.69056 829.6128 704.39936Z" p-id="11946"></path></svg>