<?xml version="1.0" standalone="no"?><!DOCTYPE svg PUBLIC "-//W3C//DTD SVG 1.1//EN" "http://www.w3.org/Graphics/SVG/1.1/DTD/svg11.dtd"><svg t="1491535434149" class="icon" style="" viewBox="0 0 1024 1024" version="1.1" xmlns="http://www.w3.org/2000/svg" p-id="1235" xmlns:xlink="http://www.w3.org/1999/xlink" width="1000" height="1000"><defs><style type="text/css"></style></defs><path d="M511.339456 65.084321c-246.583025 0-446.494077 199.930495-446.494077 446.514543 0 246.563582 199.911052 446.494077 446.494077 446.494077s446.494077-199.930495 446.494077-446.494077C957.834556 265.014816 757.922481 65.084321 511.339456 65.084321zM511.339456 846.459444c-184.630021 0-334.881047-150.211117-334.881047-334.860581 0-184.628998 150.251026-334.881047 334.881047-334.881047 184.670953 0 334.88207 150.252049 334.88207 334.881047C846.221526 696.248328 696.010409 846.459444 511.339456 846.459444zM567.155692 488.484424 567.155692 288.330848c0-30.845519-24.969695-55.796794-55.816237-55.796794-30.845519 0-55.816237 24.951275-55.816237 55.796794l0 223.449141c0.040932 15.361873 6.279007 29.27065 16.412808 39.323611l111.550609 111.594611c10.902304 10.899234 25.194822 16.330944 39.48734 16.330944 14.272052 0 28.564569-5.431709 39.464827-16.330944 21.782096-21.801539 21.782096-57.150628 0-78.95012L567.155692 488.484424z" p-id="1236"></path></svg>