<?xml version="1.0" standalone="no"?><!DOCTYPE svg PUBLIC "-//W3C//DTD SVG 1.1//EN" "http://www.w3.org/Graphics/SVG/1.1/DTD/svg11.dtd"><svg t="1491535785689" class="icon" style="" viewBox="0 0 1024 1024" version="1.1" xmlns="http://www.w3.org/2000/svg" p-id="2858" xmlns:xlink="http://www.w3.org/1999/xlink" width="1200" height="1200"><defs><style type="text/css"></style></defs><path d="M20.55771 98.184183l0 652.771117 212.280778 0 250.726392 213.18538 1.167592-213.18538 515.025916 0L999.758388 98.184183 20.55771 98.184183zM918.07604 669.420309 437.985798 669.420309l-2.469238 201.172789L283.215852 669.420309 102.103958 669.420309 102.103958 179.785689l815.972083 0L918.07604 669.420309z" p-id="2859"></path><path d="M195.0263 378.62841l111.602797 0 0 111.524003-111.602797 0 0-111.524003Z" p-id="2860"></path><path d="M457.901383 378.62841l111.520933 0 0 111.524003-111.520933 0 0-111.524003Z" p-id="2861"></path><path d="M720.693578 378.62841l111.457488 0 0 111.524003-111.457488 0 0-111.524003Z" p-id="2862"></path></svg>