<?xml version="1.0" standalone="no"?><!DOCTYPE svg PUBLIC "-//W3C//DTD SVG 1.1//EN" "http://www.w3.org/Graphics/SVG/1.1/DTD/svg11.dtd"><svg xmlns:xlink="http://www.w3.org/1999/xlink" xmlns="http://www.w3.org/2000/svg" version="1.1" width="200" height="200" viewBox="0 0 200 200"><defs><style type="text/css"><![CDATA[
@font-face {
  font-family: "ifont";
  src: url("//at.alicdn.com/t/font_1442373896_4754455.eot?#iefix") format("embedded-opentype"), url("//at.alicdn.com/t/font_1442373896_4754455.woff") format("woff"), url("//at.alicdn.com/t/font_1442373896_4754455.ttf") format("truetype"), url("//at.alicdn.com/t/font_1442373896_4754455.svg#ifont") format("svg");
}

]]></style></defs><g class="transform-group"><g transform="scale(0.1953125, 0.1953125)"><path d="M995.872 160.128C977.76 141.984 953.632 132 928 132l-160 0L768 96c0-25.664-10.016-49.76-28.128-67.872C721.76 9.984 697.632 0 672 0L96 0C70.368 0 46.24 9.984 28.128 28.096 10.016 46.24 0 70.336 0 96l0 832c0 25.632 10.016 49.76 28.128 67.872C46.24 1013.984 70.368 1024 96 1024l832 0c25.632 0 49.76-10.016 67.872-28.128C1014.016 977.76 1024 953.632 1024 928L1024 228C1024 202.336 1014.016 178.24 995.872 160.128zM704 928c0 8.512-3.328 16.576-9.376 22.624C688.576 956.64 680.544 960 672 960L96 960c-8.544 0-16.576-3.328-22.624-9.376C67.328 944.576 64 936.544 64 928L64 96c0-8.544 3.328-16.576 9.376-22.624C79.424 67.328 87.456 64 96 64l576 0c8.544 0 16.576 3.328 22.624 9.408C700.672 79.424 704 87.456 704 96L704 928zM960 928c0 8.512-3.328 16.576-9.376 22.624C944.576 956.64 936.544 960 928 960l-165.824 0C765.792 949.824 768 939.104 768 928L768 196l160 0c8.544 0 16.576 3.328 22.624 9.408C956.672 211.424 960 219.456 960 228L960 928zM128 384l512 0L640 160 128 160 128 384zM192 224l384 0 0 96L192 320 192 224zM128 544l512 0 0-64L128 480 128 544zM128 704l512 0 0-64L128 640 128 704zM128 864l512 0 0-64L128 800 128 864z" fill="#272636"></path></g></g></svg>