<?xml version="1.0" standalone="no"?><!DOCTYPE svg PUBLIC "-//W3C//DTD SVG 1.1//EN" "http://www.w3.org/Graphics/SVG/1.1/DTD/svg11.dtd"><svg xmlns:xlink="http://www.w3.org/1999/xlink" xmlns="http://www.w3.org/2000/svg" version="1.1" width="200" height="200" viewBox="0 0 200 200"><defs><style type="text/css"><![CDATA[
@font-face {
  font-family: "ifont";
  src: url("//at.alicdn.com/t/font_1442373896_4754455.eot?#iefix") format("embedded-opentype"), url("//at.alicdn.com/t/font_1442373896_4754455.woff") format("woff"), url("//at.alicdn.com/t/font_1442373896_4754455.ttf") format("truetype"), url("//at.alicdn.com/t/font_1442373896_4754455.svg#ifont") format("svg");
}

]]></style></defs><g class="transform-group"><g transform="scale(0.1953125, 0.1953125)"><path d="M370.275673 791.212166l559.376007 0 0 111.87295L370.275673 903.085116 370.275673 791.212166zM370.275673 455.582059l559.376007 0 0 111.87909L370.275673 567.461149 370.275673 455.582059zM370.275673 119.957069l559.376007 0 0 111.87909L370.275673 231.836159 370.275673 119.957069zM202.46062 64.021106l0 223.75204-55.936987 0L146.523633 119.957069 90.586646 119.957069 90.586646 64.021106 202.46062 64.021106zM146.523633 523.758812l0 43.705408 111.878067 0 0 55.936987L90.586646 623.401206 90.586646 495.792876l111.87295-52.441373L202.459596 399.645073 90.586646 399.645073l0-55.935963 167.815053 0L258.4017 471.317439 146.523633 523.758812zM258.4017 679.334099l0 279.688004L90.586646 959.022103l0-55.936987 111.87295 0 0-55.935963L90.586646 847.149153l0-55.936987 111.87295 0 0-55.94108L90.586646 735.271086l0-55.936987L258.4017 679.334099zM258.4017 679.334099" fill="#272636"></path></g></g></svg>