<?xml version="1.0" standalone="no"?><!DOCTYPE svg PUBLIC "-//W3C//DTD SVG 1.1//EN" "http://www.w3.org/Graphics/SVG/1.1/DTD/svg11.dtd"><svg xmlns:xlink="http://www.w3.org/1999/xlink" xmlns="http://www.w3.org/2000/svg" version="1.1" width="200" height="200" viewBox="0 0 200 200"><defs><style type="text/css"><![CDATA[
@font-face {
  font-family: "ifont";
  src: url("//at.alicdn.com/t/font_1442373896_4754455.eot?#iefix") format("embedded-opentype"), url("//at.alicdn.com/t/font_1442373896_4754455.woff") format("woff"), url("//at.alicdn.com/t/font_1442373896_4754455.ttf") format("truetype"), url("//at.alicdn.com/t/font_1442373896_4754455.svg#ifont") format("svg");
}

]]></style></defs><g class="transform-group"><g transform="scale(0.1953125, 0.1953125)"><path d="M946.308434 214.151381l-41.530537 41.284265L766.371086 117.867478l41.52849-41.24845c15.283704-15.211447 39.301685-15.977903 53.625489-1.705851l86.504641 85.943394C962.372952 175.094854 961.590091 198.973704 946.308434 214.151381zM579.212993 578.98767 440.804136 441.455317 745.309558 138.858558 883.719439 276.389888ZM559.941301 598.166475 366.186707 653.199882 421.535514 460.635145ZM240.310794 173.841304c-47.812871 0-86.574228 38.743396-86.574228 86.571704l0 522.383488c0 47.827285 38.761357 86.570681 86.574228 86.570681l522.439686 0c47.812871 0 86.574228-38.742373 86.574228-86.570681L849.324708 439.471127l89.532728-86.570681 0 461.745433c0 79.679737-67.565537 144.285151-147.248539 144.285151L208.493877 958.931029c-79.698352 0-144.291063-64.605414-144.291063-144.285151L64.202815 237.473553c0-79.678714 64.591687-153.196101 144.291063-153.196101l461.729558 0L583.649207 173.841304 240.310794 173.841304z" fill="#272636"></path></g></g></svg>