<?xml version="1.0" standalone="no"?><!DOCTYPE svg PUBLIC "-//W3C//DTD SVG 1.1//EN" "http://www.w3.org/Graphics/SVG/1.1/DTD/svg11.dtd"><svg t="1483587267374" class="icon" style="" viewBox="0 0 1024 1024" version="1.1" xmlns="http://www.w3.org/2000/svg" p-id="4140" xmlns:xlink="http://www.w3.org/1999/xlink" width="1024" height="1024"><defs><style type="text/css"></style></defs><path d="M828.351018 127.85904 195.647959 127.85904c-74.762751 0-135.578862 60.816111-135.578862 135.578862l0 497.124198c0 74.762751 60.816111 135.578862 135.578862 135.578862l632.703059 0c74.762751 0 135.578862-60.816111 135.578862-135.578862L963.92988 263.437901C963.930903 188.67515 903.113769 127.85904 828.351018 127.85904zM195.647959 218.244606l632.703059 0c24.935925 0 45.193295 20.279882 45.193295 45.193295l0 88.068801L150.455687 351.506702l0-88.068801C150.455687 238.524488 170.713057 218.244606 195.647959 218.244606zM828.351018 805.754371 195.647959 805.754371c-24.935925 0-45.193295-20.279882-45.193295-45.193295L150.454664 441.893292l723.089649 0 0 318.668807C873.544313 785.475512 853.286943 805.754371 828.351018 805.754371z" p-id="4141"></path></svg>