<?xml version="1.0" standalone="no"?><!DOCTYPE svg PUBLIC "-//W3C//DTD SVG 1.1//EN" "http://www.w3.org/Graphics/SVG/1.1/DTD/svg11.dtd"><svg t="1483587381067" class="icon" style="" viewBox="0 0 1024 1024" version="1.1" xmlns="http://www.w3.org/2000/svg" p-id="6134" xmlns:xlink="http://www.w3.org/1999/xlink" width="1024" height="1024"><defs><style type="text/css"></style></defs><path d="M128 724.224c0 42.432 19.2 80.192 48 103.744l0 84.864C176 941.12 195.2 960 224 960l48 0C300.8 960 320 941.12 320 912.832l0-47.168 384 0 0 47.168C704 941.12 723.2 960 752 960l48 0c28.8 0 48-18.88 48-47.168l0-84.864C876.8 804.352 896 766.656 896 724.224L896 252.608C896 87.552 723.2 64 512 64 300.8 64 128 87.552 128 252.608L128 724.224zM296 771.392c-38.4 0-72-33.024-72-70.72 0-37.696 33.6-70.72 72-70.72 38.4 0 72 33.024 72 70.72C368 738.368 334.4 771.392 296 771.392zM728 771.392c-38.4 0-72-33.024-72-70.72 0-37.696 33.6-70.72 72-70.72s72 33.024 72 70.72C800 738.368 766.4 771.392 728 771.392zM800 488.448l-576 0L224 252.608l576 0L800 488.448z" p-id="6135"></path></svg>