<?xml version="1.0" standalone="no"?><!DOCTYPE svg PUBLIC "-//W3C//DTD SVG 1.1//EN" "http://www.w3.org/Graphics/SVG/1.1/DTD/svg11.dtd"><svg xmlns:xlink="http://www.w3.org/1999/xlink" xmlns="http://www.w3.org/2000/svg" version="1.1" width="200" height="200" viewBox="0 0 200 200"><defs><style type="text/css"><![CDATA[
@font-face {
  font-family: "ifont";
  src: url("//at.alicdn.com/t/font_1442373896_4754455.eot?#iefix") format("embedded-opentype"), url("//at.alicdn.com/t/font_1442373896_4754455.woff") format("woff"), url("//at.alicdn.com/t/font_1442373896_4754455.ttf") format("truetype"), url("//at.alicdn.com/t/font_1442373896_4754455.svg#ifont") format("svg");
}

]]></style></defs><g class="transform-group"><g transform="scale(0.1953125, 0.1953125)"><path d="M257.130242 891.415332l527.82236 0L784.952602 638.46325l68.856227 0L853.80883 891.415332c0 38.081317-30.774911 68.966745-68.856227 68.966745L257.130242 960.382077c-38.081317 0-68.856227-30.885428-68.856227-68.966745L188.274014 638.46325l68.856227 0L257.130242 891.415332zM922.664034 569.496505 509.528716 178.610934 96.502891 592.521918l-45.941332-68.966745L509.528716 63.703881l481.992569 459.852316L922.664034 569.496505zM423.647743 548.778648l20.236903 0 0 56.495712c0 36.352953-2.529613 64.555272-7.588839 84.60491l8.150634-7.589862c19.113313 19.86442 35.883255 37.945217 50.312896 54.248531l-17.708314 14.897292c-13.305027-17.053398-27.92091-34.384112-43.847647-51.998281-6.745634 21.361517-22.956851 43.190685-48.626487 65.490573-4.123924-5.810333-9.089006-11.524474-14.897292-17.145495 21.924335-16.303314 36.44505-33.729196 43.567261-52.280714 6.931876-16.114003 10.399861-43.472094 10.399861-82.074274L423.64672 548.778648zM386.264321 503.805364l95.003747 0 0 80.669274c18.73776-28.670993 32.697703-60.994166 41.879829-96.972589l22.204721 5.059226c-4.497431 13.492292-9.18315 26.328645-14.053064 38.508036l107.371426 0c-1.124614 91.068112-2.248204 151.688771-3.372817 181.856861-1.686409 30.355355-17.240663 45.534056-46.659693 45.534056-16.115026 0-33.261545-0.375553-51.436486-1.124614-1.125637-7.496741-2.623757-15.178701-4.498454-23.047926 18.175965 2.059915 34.853809 3.183506 50.03251 3.372817 19.676132-0.189312 30.074969-9.93221 31.199583-29.231765 1.309832-31.853475 2.248204-84.134189 2.809999-156.841118l-93.879134 0c-6.933923 16.303314-14.148231 31.199583-21.642926 44.691875-5.434779-3.560082-12.08627-7.027044-19.955494-10.399861l0 92.192725-20.236903 0L461.031165 524.323677 406.502247 524.323677l0 155.435095-20.237927 0L386.264321 503.805364zM556.033889 619.608833l19.394722-5.621021c8.619308 26.982538 16.956184 55.280024 25.015743 84.884272l-21.081131 6.183839c-1.500167-5.621021-2.90619-11.335163-4.216022-17.145495-19.86442 1.312902-37.664831 2.905166-53.404304 4.777817-8.245801 0.938372-16.5837 2.437515-25.015743 4.498454l-8.713452-18.270109c6.557346-4.120854 11.429307-9.742898 14.615882-16.864086 10.304693-24.921599 20.048615-54.901401 29.230742-89.944522l21.36254 5.059226c-11.243065 34.666544-22.394033 66.615187-33.44881 95.846952 15.926738-0.936325 32.791847-2.060939 50.593282-3.373841C565.871955 653.151787 561.093115 636.473943 556.033889 619.608833z" fill="#272636"></path></g></g></svg>