<?xml version="1.0" standalone="no"?><!DOCTYPE svg PUBLIC "-//W3C//DTD SVG 1.1//EN" "http://www.w3.org/Graphics/SVG/1.1/DTD/svg11.dtd"><svg width="32" height="32" viewBox="0 0 32 32" version="1.1" xmlns="http://www.w3.org/2000/svg" xmlns:xlink="http://www.w3.org/1999/xlink"><defs><style type="text/css"><![CDATA[
@font-face { font-family: ifont; src: url(http://at.alicdn.com/t/font_1442373896_4754455.eot?#iefix) format(embedded-opentype), url(http://at.alicdn.com/t/font_1442373896_4754455.woff) format(woff), url(http://at.alicdn.com/t/font_1442373896_4754455.ttf) format(truetype), url(http://at.alicdn.com/t/font_1442373896_4754455.svg#ifont) format(svg); }

]]></style></defs><g class="transform-group"><g transform="scale(0.03125, 0.03125)"><path d="M514.592 976.768c-253.28 0-459.344-206.064-459.344-459.344 0-253.28 206.064-459.328 459.344-459.328S973.92 264.144 973.92 517.424C973.92 770.704 767.872 976.768 514.592 976.768zM514.592 90.096c-235.648 0-427.344 191.696-427.344 427.328 0 235.648 191.696 427.344 427.344 427.344 235.632 0 427.328-191.696 427.328-427.344C941.92 281.792 750.224 90.096 514.592 90.096zM752 512 496 512 496 272c0-8.832-7.168-16-16-16s-16 7.168-16 16l0 256c0 8.848 7.168 16 16 16l272 0c8.848 0 16-7.152 16-16C768 519.168 760.848 512 752 512z" fill="#272636"></path></g></g></svg>