<?xml version="1.0" standalone="no"?><!DOCTYPE svg PUBLIC "-//W3C//DTD SVG 1.1//EN" "http://www.w3.org/Graphics/SVG/1.1/DTD/svg11.dtd"><svg width="32" height="32" viewBox="0 0 32 32" version="1.1" xmlns="http://www.w3.org/2000/svg" xmlns:xlink="http://www.w3.org/1999/xlink"><defs><style type="text/css"><![CDATA[
@font-face { font-family: ifont; src: url(http://at.alicdn.com/t/font_1442373896_4754455.eot?#iefix) format(embedded-opentype), url(http://at.alicdn.com/t/font_1442373896_4754455.woff) format(woff), url(http://at.alicdn.com/t/font_1442373896_4754455.ttf) format(truetype), url(http://at.alicdn.com/t/font_1442373896_4754455.svg#ifont) format(svg); }

]]></style></defs><g class="transform-group"><g transform="scale(0.03125, 0.03125)"><path d="M936.584533 149.504l-42.018133-0.682667c-0.989867 0-95.232-2.048-192.546133-41.506133-99.84-40.5504-164.181333-87.074133-164.7616-87.517867l-25.3952-18.363733L486.638933 19.797333c-0.6144 0.443733-64.955733 46.967467-164.7616 87.517867C224.631467 146.807467 130.321067 148.821333 129.4336 148.821333L87.210667 149.504l0 428.066133c0 214.903467 276.241067 442.129067 424.7552 442.129067 148.616533 0 424.823467-227.2256 424.823467-442.129067L936.584533 149.504zM464.554667 697.2416l-180.360533-153.6 55.466667-65.262933 115.677867 98.474667 219.613867-252.962133 64.853333 56.251733L464.554667 697.2416z" fill="#272636"></path></g></g></svg>