<?xml version="1.0" standalone="no"?><!DOCTYPE svg PUBLIC "-//W3C//DTD SVG 1.1//EN" "http://www.w3.org/Graphics/SVG/1.1/DTD/svg11.dtd"><svg width="200" height="200" viewBox="0 0 200 200" version="1.1" xmlns="http://www.w3.org/2000/svg" xmlns:xlink="http://www.w3.org/1999/xlink"><defs><style type="text/css"><![CDATA[
@font-face { font-family: ifont; src: url(http://at.alicdn.com/t/font_1442373896_4754455.eot?#iefix) format(embedded-opentype), url(http://at.alicdn.com/t/font_1442373896_4754455.woff) format(woff), url(http://at.alicdn.com/t/font_1442373896_4754455.ttf) format(truetype), url(http://at.alicdn.com/t/font_1442373896_4754455.svg#ifont) format(svg); }

]]></style></defs><g class="transform-group"><g transform="scale(0.1953125, 0.1953125)"><path d="M697.822684 780.235161 378.658597 780.235161l0-49.39806 339.644537 0 94.926999 94.948489 0-94.948489L958.094476 730.8371 958.094476 237.013065l-72.442916 0L885.65156 187.636494l60.920488 0c33.577746 0 60.894905 27.322275 60.894905 60.898998l0 470.77918c0 33.579793-27.317159 60.920488-60.919465 60.920488l-83.944877 0 0 164.757414L697.822684 780.235161zM161.396365 671.582555 77.452511 671.582555c-33.598212 0-60.920488-27.320229-60.920488-60.901045L16.532023 139.903354c0-33.5757 27.322275-60.896952 60.920488-60.896952l688.045505 0c33.597189 0 60.918441 27.322275 60.918441 60.896952l0 470.77918c0 33.579793-27.321252 60.901045-60.918441 60.901045L326.177316 671.583578 161.396365 836.361459 161.396365 671.582555zM210.771913 717.158566l94.949512-94.953605 471.297996 0L777.019421 128.381949 65.907571 128.381949l0 493.823012 144.864342 0L210.771913 717.158566zM602.537528 418.087097c-23.605627 0-42.802852-19.195178-42.802852-42.780339 0-23.609721 19.197224-42.804898 42.802852-42.804898 23.586185 0 42.802852 19.195178 42.802852 42.804898C645.341403 398.891919 626.123712 418.087097 602.537528 418.087097zM421.463496 418.087097c-23.585161 0-42.804898-19.195178-42.804898-42.780339 0-23.609721 19.219737-42.804898 42.804898-42.804898 23.607674 0 42.803875 19.195178 42.803875 42.804898C464.266347 398.891919 445.07117 418.087097 421.463496 418.087097zM240.388441 418.087097c-23.585161 0-42.804898-19.195178-42.804898-42.780339 0-23.609721 19.218714-42.804898 42.804898-42.804898 23.608697 0 42.804898 19.195178 42.804898 42.804898C283.193339 398.891919 263.997138 418.087097 240.388441 418.087097z" fill="#272636"></path></g></g></svg>