<?xml version="1.0" standalone="no"?><!DOCTYPE svg PUBLIC "-//W3C//DTD SVG 1.1//EN" "http://www.w3.org/Graphics/SVG/1.1/DTD/svg11.dtd"><svg width="200" height="200" viewBox="0 0 200 200" version="1.1" xmlns="http://www.w3.org/2000/svg" xmlns:xlink="http://www.w3.org/1999/xlink"><defs><style type="text/css"><![CDATA[
@font-face { font-family: ifont; src: url(http://at.alicdn.com/t/font_1442373896_4754455.eot?#iefix) format(embedded-opentype), url(http://at.alicdn.com/t/font_1442373896_4754455.woff) format(woff), url(http://at.alicdn.com/t/font_1442373896_4754455.ttf) format(truetype), url(http://at.alicdn.com/t/font_1442373896_4754455.svg#ifont) format(svg); }

]]></style></defs><g class="transform-group"><g transform="scale(0.1953125, 0.1953125)"><path d="M699.326944 127.371946 331.423807 127.371946c-126.915551 0-229.939973 103.024421-229.939973 229.939973l0 275.927353c0 126.915551 103.024421 229.937926 229.939973 229.937926l367.903138 0c126.914528 0 229.939973-103.022375 229.939973-229.937926L929.266917 357.311919C929.26794 230.396367 826.242496 127.371946 699.326944 127.371946zM377.411187 564.257178c-50.612725 0-91.976808-41.406039-91.976808-91.975784 0-50.612725 41.36306-91.974761 91.976808-91.974761 50.613748 0 91.975784 41.361013 91.975784 91.974761C469.387995 522.851139 428.025958 564.257178 377.411187 564.257178zM653.33854 564.257178c-50.612725 0-91.976808-41.406039-91.976808-91.975784 0-50.612725 41.364083-91.974761 91.976808-91.974761 50.614771 0 91.976808 41.361013 91.976808 91.974761C745.315348 522.850116 703.953312 564.257178 653.33854 564.257178z" fill="#272636"></path></g></g></svg>