<?xml version="1.0" encoding="utf-8"?>
<!-- Generator: Adobe Illustrator 16.0.0, SVG Export Plug-In . SVG Version: 6.00 Build 0)  -->
<!DOCTYPE svg PUBLIC "-//W3C//DTD SVG 1.1//EN" "http://www.w3.org/Graphics/SVG/1.1/DTD/svg11.dtd">
<svg version="1.1" id="图层_1" xmlns="http://www.w3.org/2000/svg" xmlns:xlink="http://www.w3.org/1999/xlink" x="0px" y="0px"
	 width="200px" height="200px" viewBox="0 0 200 200" enable-background="new 0 0 200 200" xml:space="preserve">
<g>
	<g transform="scale(0.1953125, 0.1953125)">
		<path fill="#FFFFFF" d="M686.383,64.832L337.607,147.61L65.635,65.207v760.356l271.972,82.405l348.777-82.405l271.979,82.405
			V139.227L686.383,64.832z M546.394,774.308c-9.015,9.48-19.815,14.22-32.385,14.22c-12.1,0-22.66-4.675-31.675-14.025
			c-9.02-9.355-13.522-21.17-13.522-35.455c0-14.03,4.447-25.78,13.345-35.27c8.897-9.48,19.512-14.22,31.852-14.22
			c12.57,0,23.37,4.81,32.385,14.42s13.525,21.3,13.525,35.07C559.919,753.068,555.409,764.828,546.394,774.308z M670.958,422.256
			c-12.81,22.887-34.29,46.975-64.42,72.27c-24.2,20.472-40.45,36.737-48.755,48.777c-8.305,12.05-12.455,28.915-12.455,50.59
			v28.185h-61.927v-31.07c0-25.295,4.982-47.035,14.947-65.225c9.965-18.19,27.76-37.405,53.385-57.637
			c25.145-19.747,43.115-38.24,53.915-55.467c10.8-17.22,16.195-37.035,16.195-59.44c0-23.847-8.365-43.48-25.09-58.897
			c-16.725-15.415-39.45-23.125-68.155-23.125c-45.322,0-84.88,18.737-119.58,57.187c-11.11,12.31-50.257,20.012-47.425-22.16
			c1.732-25.817,47.425-56.347,47.425-56.347c39.86-25.292,83.04-37.94,129.545-37.94c46.265,0,83.1,12.35,110.505,37.037
			c27.4,24.692,41.105,57.035,41.105,97.02C690.178,373.959,683.768,399.372,670.958,422.256z"/>
	</g>
</g>
</svg>
