<?xml version="1.0" standalone="no"?><!DOCTYPE svg PUBLIC "-//W3C//DTD SVG 1.1//EN" "http://www.w3.org/Graphics/SVG/1.1/DTD/svg11.dtd"><svg width="200" height="200" viewBox="0 0 200 200" version="1.1" xmlns="http://www.w3.org/2000/svg" xmlns:xlink="http://www.w3.org/1999/xlink"><defs><style type="text/css"><![CDATA[
@font-face { font-family: ifont; src: url("//at.alicdn.com/t/font_1442373896_4754455.eot?#iefix") format("embedded-opentype"), url("//at.alicdn.com/t/font_1442373896_4754455.woff") format("woff"), url("//at.alicdn.com/t/font_1442373896_4754455.ttf") format("truetype"), url("//at.alicdn.com/t/font_1442373896_4754455.svg#ifont") format("svg"); }

]]></style></defs><g class="transform-group"><g transform="scale(0.1953125, 0.1953125)"><path d="M1013.504 486.208 529.728 34.688c-9.92-9.28-25.344-9.28-35.2 0L10.496 486.208c-7.808 7.232-10.176 18.496-6.4 28.288 3.904 9.792 13.376 16.32 23.872 16.32l150.144 0 0 456.768c0 14.4 11.648 25.984 25.792 25.984l616.064 0c14.4 0 25.984-11.648 26.112-25.984L846.08 530.816l149.888 0c10.624 0 19.904-6.4 23.872-16.32C1023.744 504.512 1021.248 493.312 1013.504 486.208zM820.224 479.296c-14.528 0-25.856 11.648-25.856 25.792l0 456.832L229.696 961.92l0.128-456.832c0-14.208-11.52-25.792-25.92-25.792L93.568 479.296 512 89.024l418.496 390.272L820.224 479.296zM501.504 413.632l0 38.592c-27.392 4.352-48 15.04-60.8 32.576C427.328 503.04 420.48 523.648 420.48 546.368c0 17.6 3.84 32.96 11.2 45.888 7.68 13.056 17.536 23.168 29.504 30.592C473.28 630.08 489.92 637.44 511.36 644.8c24.128 8.384 39.424 15.616 46.464 20.992 6.72 5.632 10.304 13.76 10.304 24.256 0 10.112-3.392 19.52-10.304 26.496-6.976 7.232-17.6 10.752-32.576 10.752-31.36 0-49.856-17.152-55.488-50.88L409.6 692.16c12.032 53.888 43.776 83.648 94.784 88.768l0 46.656 0.448 0 0 1.6c0 10.752 8.768 19.52 19.584 19.52s19.584-8.768 19.584-19.52l0-18.88c0-0.64-0.576-0.896-0.576-1.472l0-27.904c30.528-3.392 54.144-13.76 70.144-32.128 16.256-18.24 24.256-41.024 24.256-68.096 0-17.856-3.648-33.472-11.52-46.656C618.24 620.8 607.488 610.432 594.496 602.624 581.376 595.136 563.264 587.136 540.032 578.752c-20.992-7.68-34.944-14.656-41.152-19.648C492.224 553.856 489.024 546.368 489.024 536.448c0-9.6 3.264-17.664 10.048-24.32 6.464-6.848 15.616-9.856 26.56-9.856 21.888 0 38.144 14.784 48.64 45.312l53.76-22.08C614.976 481.408 586.88 456.96 543.488 451.392l0-37.76c0-11.584-9.408-20.992-20.992-20.992S501.504 402.048 501.504 413.632z" fill="#272636"></path></g></g></svg>