<?xml version="1.0" standalone="no"?><!DOCTYPE svg PUBLIC "-//W3C//DTD SVG 1.1//EN" "http://www.w3.org/Graphics/SVG/1.1/DTD/svg11.dtd"><svg width="200" height="200" viewBox="0 0 200 200" version="1.1" xmlns="http://www.w3.org/2000/svg" xmlns:xlink="http://www.w3.org/1999/xlink"><defs><style type="text/css"><![CDATA[
@font-face { font-family: ifont; src: url("//at.alicdn.com/t/font_1442373896_4754455.eot?#iefix") format("embedded-opentype"), url("//at.alicdn.com/t/font_1442373896_4754455.woff") format("woff"), url("//at.alicdn.com/t/font_1442373896_4754455.ttf") format("truetype"), url("//at.alicdn.com/t/font_1442373896_4754455.svg#ifont") format("svg"); }

]]></style></defs><g class="transform-group"><g transform="scale(0.1953125, 0.1953125)"><path d="M573.961702 566.776557l0-0.081864-38.520315 0 0-18.635429 38.520315 0 0-0.041956c10.462283-0.039909 18.946514-8.400321 18.946514-18.675338 0-10.316973-8.484232-18.674315-18.946514-18.717294l0-0.041956-38.435381 0c0.082888-0.416486-0.041956-0.789992-0.021489-1.228991l45.043892-45.188178c7.356548-8.128121 3.626597-14.838963-3.793396-22.195511-7.503904-7.423063-19.718087-8.964162-25.720801-2.501984l-38.768979 40.519856-41.810245-41.060161c-5.29561-5.212722-15.592117-3.501754-23.01211 3.750417-7.419993 7.29515-9.127891 17.424858-3.835352 22.592554l42.771129 42.001603c-0.792039 1.000793-1.313925 2.104941-1.626034 3.311419l-34.765805 0 0 0.041956-0.105401 0c-10.526751 0-19.071358 8.360412-19.071358 18.717294 0 10.29753 8.544607 18.696828 19.071358 18.696828 0.020466 0 0.062422-0.021489 0.105401-0.021489l0 0.041956 38.099736 0 0 18.635429-38.099736 0 0 0.062422-0.105401 0c-10.526751 0-19.071358 8.377808-19.071358 18.73776 0 10.317996 8.544607 18.717294 19.071358 18.717294 0.020466 0 0.062422-0.041956 0.105401-0.041956l0 0.041956 38.099736 0 0 18.842137 0.397043 0c-0.291642 1.459235-0.478907 2.960425-0.478907 4.54348 0 12.923334 10.670014 23.38664 23.844058 23.38664 13.169951 0 23.845081-10.463306 23.845081-23.38664 0-1.584078-0.167822-3.085268-0.459464-4.54348l0.206708 0 0-18.842137 38.520315-0.041956c10.462283-0.063445 18.965957-8.400321 18.965957-18.675338C592.927659 575.176878 584.422961 566.819536 573.961702 566.776557zM511.849062 62.998823c-247.493767 0-448.15081 200.636576-448.15081 448.128297 0 247.533676 200.657043 448.168206 448.15081 448.168206 247.51014 0 448.168206-200.633506 448.168206-448.168206C960.017268 263.635399 759.359202 62.998823 511.849062 62.998823zM420.804487 249.459538l0.458441-0.87288c0 0 46.876634-9.212826 85.831854-9.380648 40.768519-0.166799 85.811388 9.380648 85.811388 9.380648l0.459464 0.87288c5.314029 2.085498 9.107425 7.088442 9.107425 13.048177 0 1.209548-0.416486 2.294252-0.708128 3.418866l0.665149 1.353834-4.002151 4.91801c-0.082888 0.105401-0.145309 0.209778-0.249687 0.291642l-33.889855 41.585117L449.881732 314.075185l-33.828456-41.522696c-0.249687-0.206708-0.416486-0.517793-0.668219-0.77055l-3.64604-4.501524 0.64673-1.27197c-0.312108-1.144056-0.731664-2.27174-0.731664-3.500731C411.654083 256.54798 415.469991 251.505128 420.804487 249.459538zM511.849062 735.233224c-157.868517 0-224.065172-55.443753-224.065172-169.331593 0-94.357018 75.077929-192.821587 166.101016-223.895303l115.948779 0c91.022063 31.074739 166.096922 129.538285 166.096922 223.895303C735.93163 679.789471 669.71451 735.233224 511.849062 735.233224z" fill="#272636"></path></g></g></svg>