<?xml version="1.0" standalone="no"?><!DOCTYPE svg PUBLIC "-//W3C//DTD SVG 1.1//EN" "http://www.w3.org/Graphics/SVG/1.1/DTD/svg11.dtd"><svg width="208.203125" height="200" viewBox="0 0 208.203125 200" version="1.1" xmlns="http://www.w3.org/2000/svg" xmlns:xlink="http://www.w3.org/1999/xlink"><defs><style type="text/css"><![CDATA[
@font-face { font-family: ifont; src: url("//at.alicdn.com/t/font_1442373896_4754455.eot?#iefix") format("embedded-opentype"), url("//at.alicdn.com/t/font_1442373896_4754455.woff") format("woff"), url("//at.alicdn.com/t/font_1442373896_4754455.ttf") format("truetype"), url("//at.alicdn.com/t/font_1442373896_4754455.svg#ifont") format("svg"); }

]]></style></defs><g class="transform-group"><g transform="scale(0.1953125, 0.1953125)"><path d="M226.150304 525.075989c-16.077036 0-29.688926 14.040611-29.688926 30.760728l0 379.739586c0 16.934478 13.29035 30.760728 29.688926 30.760728l613.714046 0c16.184216 0 28.938664-13.50471 28.938664-30.760728L868.803014 555.729537c0-16.934478-12.968809-30.760728-28.938664-30.760728-16.184216 0-29.474566 13.826251-29.474566 30.760728l0 348.978857L254.981788 904.708394 254.981788 555.729537C254.981788 539.1166 241.798618 525.075989 226.150304 525.075989zM532.685786 116.397739l426.79171 444.369269c5.359012 5.787733 12.540088 8.89596 20.149885 8.89596 7.716977 0 14.898053-3.215407 20.257065-9.00314l0.10718-0.10718c11.575466-12.004187 11.575466-31.61817 0-43.622357l-445.655432-464.090433-0.857442-0.643081-0.535901-0.535901c-5.359012-5.787733-12.540088-9.00314-20.257065-9.00314-7.716977 0-14.898053 3.215407-20.257065 9.00314l-0.10718 0.10718-446.941595 465.162236c-11.575466 12.004187-11.575466 31.51099 0 43.622357 5.573372 5.894913 12.754448 9.00314 20.471426 9.00314 7.716977 0 14.898053-3.215407 20.364245-9.00314L532.685786 116.397739zM655.299979 638.043961c-4.28721-3.322587-9.646221-5.144651-15.112414-5.144651-7.931338 0-15.326774 3.644128-19.935524 9.753402-8.252878 10.932384-6.216454 26.580699 4.60875 35.047938 38.048985 29.581746 59.913753 74.597446 59.913753 123.364455 0 13.826251 11.146745 25.080176 24.865815 25.080176 13.719071 0 24.865815-11.253925 24.865815-25.080176C734.506175 736.5426 705.567511 677.164748 655.299979 638.043961zM671.377015 505.140465c0-77.705673-62.164538-140.834834-138.584049-140.834834-76.41951 0-138.584049 63.236341-138.584049 140.834834 0 43.407997 19.721164 83.814947 52.732677 110.288466-30.760728 14.790873-57.341428 37.191543-77.598493 65.915847-24.972996 35.262299-38.263345 76.633871-38.263345 119.613146 0 13.826251 11.146745 25.080176 24.865815 25.080176 13.719071 0 24.865815-11.253925 24.865815-25.080176 0-85.42265 68.166632-154.982625 151.874398-154.982625C609.105296 645.975298 671.377015 582.846138 671.377015 505.140465zM532.685786 414.573163c48.981369 0 88.745238 40.62131 88.745238 90.674482 0 49.945991-39.871049 90.674482-88.745238 90.674482-48.874189 0-88.745238-40.62131-88.745238-90.674482C444.047729 455.194474 483.811597 414.573163 532.685786 414.573163z" fill="#272636"></path></g></g></svg>