<?xml version="1.0" standalone="no"?><!DOCTYPE svg PUBLIC "-//W3C//DTD SVG 1.1//EN" "http://www.w3.org/Graphics/SVG/1.1/DTD/svg11.dtd"><svg width="200" height="200" viewBox="0 0 200 200" version="1.1" xmlns="http://www.w3.org/2000/svg" xmlns:xlink="http://www.w3.org/1999/xlink"><defs><style type="text/css"><![CDATA[
@font-face { font-family: ifont; src: url("//at.alicdn.com/t/font_1442373896_4754455.eot?#iefix") format("embedded-opentype"), url("//at.alicdn.com/t/font_1442373896_4754455.woff") format("woff"), url("//at.alicdn.com/t/font_1442373896_4754455.ttf") format("truetype"), url("//at.alicdn.com/t/font_1442373896_4754455.svg#ifont") format("svg"); }

]]></style></defs><g class="transform-group"><g transform="scale(0.1953125, 0.1953125)"><path d="M279.568788 65.320705l349.364923 0c24.068162 0 43.703361 23.195282 43.703361 51.531654l0 208.397331-227.455385 336.688205 29.894867 0.239454 84.034928 0L435.528839 801.229311l188.034561-0.718361-0.230244 157.224858L235.892033 957.735807 235.892033 116.852358C235.892033 88.455611 255.527233 65.320705 279.568788 65.320705L279.568788 65.320705zM354.256838 319.151807l0 51.172473 210.099089 0L564.355927 319.151807 354.256838 319.151807 354.256838 319.151807zM354.256838 231.153614l0 51.172473 210.099089 0 0-51.172473L354.256838 231.153614zM152.085302 458.920084l83.806731 0 0 498.218112-108.204397 0L127.687636 487.735363C127.687636 471.832162 138.632919 458.920084 152.085302 458.920084zM511.331269 647.051859 705.163883 349.042581 898.924865 647.051859 897.911792 648.546909 785.274432 648.546909 898.924865 772.653485 897.911792 773.787308 737.492172 773.787308 737.492172 957.734784 657.76434 957.734784 657.76434 773.787308 512.316713 773.787308 511.331269 772.653485 625.006262 648.546909 512.316713 648.546909Z" fill="#272636"></path></g></g></svg>