<?xml version="1.0" standalone="no"?><!DOCTYPE svg PUBLIC "-//W3C//DTD SVG 1.1//EN" "http://www.w3.org/Graphics/SVG/1.1/DTD/svg11.dtd"><svg width="203.90625" height="200" viewBox="0 0 203.90625 200" version="1.1" xmlns="http://www.w3.org/2000/svg" xmlns:xlink="http://www.w3.org/1999/xlink"><defs><style type="text/css"><![CDATA[
@font-face { font-family: ifont; src: url("//at.alicdn.com/t/font_1442373896_4754455.eot?#iefix") format("embedded-opentype"), url("//at.alicdn.com/t/font_1442373896_4754455.woff") format("woff"), url("//at.alicdn.com/t/font_1442373896_4754455.ttf") format("truetype"), url("//at.alicdn.com/t/font_1442373896_4754455.svg#ifont") format("svg"); }

]]></style></defs><g class="transform-group"><g transform="scale(0.1953125, 0.1953125)"><path d="M1021.747 508.82c0 279.851-222.609 508.82-502.46 508.82-279.851 0-508.82-222.609-508.82-502.46 0-108.124 31.801-209.888 95.404-292.571l50.882 38.161c-57.242 69.963-82.683 159.006-82.683 248.050 0 241.689 203.528 445.217 445.217 438.857s445.217-203.528 438.857-445.217c0-57.242-12.72-120.845-38.161-171.727l57.242-25.441c31.801 63.602 44.522 133.565 44.522 203.528zM661.465839 775.950311l-63.602484 0L597.863354 159.006211c0-50.881988-44.521739-95.403727-95.403727-95.403727L400.695652 63.602484c-50.881988 0-95.403727 44.521739-95.403727 95.403727l0 610.583851-63.602484 0L241.689441 159.006211c0-89.043478 69.962733-159.006211 159.006211-159.006211l108.124224 0c89.043478 0 159.006211 69.962733 159.006211 159.006211L667.826087 775.950311zM864.993789 705.987578l-63.602484 0L801.391304 356.173913c0-25.440994-19.080745-44.521739-44.521739-44.521739l-95.403727 0 0-63.602484 95.403727 0c63.602484 0 108.124224 50.881988 108.124224 108.124224L864.993789 705.987578zM438.857143 203.52795l63.602484 0 0 63.602484-63.602484 0 0-63.602484ZM375.254658 330.732919l63.602484 0 0 63.602484-63.602484 0 0-63.602484ZM438.857143 457.937888l63.602484 0 0 63.602484-63.602484 0 0-63.602484ZM381.614907 578.782609l63.602484 0 0 63.602484-63.602484 0 0-63.602484ZM629.664596 394.335404l63.602484 0 0 63.602484-63.602484 0 0-63.602484ZM693.267081 521.540373l63.602484 0 0 63.602484-63.602484 0 0-63.602484Z" fill="#272636"></path></g></g></svg>