<?xml version="1.0" standalone="no"?><!DOCTYPE svg PUBLIC "-//W3C//DTD SVG 1.1//EN" "http://www.w3.org/Graphics/SVG/1.1/DTD/svg11.dtd"><svg width="200" height="200" viewBox="0 0 200 200" version="1.1" xmlns="http://www.w3.org/2000/svg" xmlns:xlink="http://www.w3.org/1999/xlink"><defs><style type="text/css"><![CDATA[
@font-face { font-family: ifont; src: url("//at.alicdn.com/t/font_1442373896_4754455.eot?#iefix") format("embedded-opentype"), url("//at.alicdn.com/t/font_1442373896_4754455.woff") format("woff"), url("//at.alicdn.com/t/font_1442373896_4754455.ttf") format("truetype"), url("//at.alicdn.com/t/font_1442373896_4754455.svg#ifont") format("svg"); }

]]></style></defs><g class="transform-group"><g transform="scale(0.1953125, 0.1953125)"><path d="M313.831126 189.441607C186.267822 190.648085 81.874217 303.290561 79.325162 430.316629l-0.696872-0.002047-1.394766 513.578961 514.215458 1.396813 0.034792-0.069585c126.771265-2.223644 235.049341-106.369609 237.57179-232.721319l0.190335 0 1.418302-521.66922-516.834098-1.404999L313.830103 189.441607 313.831126 189.441607zM730.103902 712.228277c-2.269693 75.987648-60.392462 131.726114-136.396483 134.084834l-417.873226-1.14815 1.147126-413.085176 0 0.002047c1.609661-77.916581 58.178027-143.841036 136.576585-144.050814l417.491533 1.1328-1.147126 423.062412L730.103902 712.228277 730.103902 712.228277zM893.627209 85.956697 385.709177 85.956697 385.709177 129.695874 893.627209 129.695874 893.627209 637.613906 937.369456 637.613906 937.369456 129.695874 937.369456 85.956697 893.627209 85.956697ZM301.983287 659.643642 605.914438 659.643642 605.914438 720.737068 301.983287 720.737068 301.983287 659.643642ZM301.983287 537.297153 605.914438 537.297153 605.914438 598.389556 301.983287 598.389556 301.983287 537.297153ZM301.983287 413.977499 605.914438 413.977499 605.914438 475.071949 301.983287 475.071949 301.983287 413.977499Z" fill="#272636"></path></g></g></svg>