<?xml version="1.0" standalone="no"?><!DOCTYPE svg PUBLIC "-//W3C//DTD SVG 1.1//EN" "http://www.w3.org/Graphics/SVG/1.1/DTD/svg11.dtd"><svg width="253.90625" height="200" viewBox="0 0 253.90625 200" version="1.1" xmlns="http://www.w3.org/2000/svg" xmlns:xlink="http://www.w3.org/1999/xlink"><defs><style type="text/css"><![CDATA[
@font-face { font-family: ifont; src: url("//at.alicdn.com/t/font_1442373896_4754455.eot?#iefix") format("embedded-opentype"), url("//at.alicdn.com/t/font_1442373896_4754455.woff") format("woff"), url("//at.alicdn.com/t/font_1442373896_4754455.ttf") format("truetype"), url("//at.alicdn.com/t/font_1442373896_4754455.svg#ifont") format("svg"); }

]]></style></defs><g class="transform-group"><g transform="scale(0.1953125, 0.1953125)"><path d="M1209.480329 801.57024l-136.877769 0-74.539938 97.113022-132.540125-97.113022c0 0-414.216106 0.402704-414.264863 0.260042-50.330756-0.52189-89.47429-44.93308-89.47429-90.770888L361.783344 90.4964C361.783344 40.546678 401.927318 0 451.398491 0l758.089061 0c49.45492 0 89.57903 40.546678 89.57903 90.4964l0 620.562994C1299.066582 761.023562 1258.942472 801.57024 1209.480329 801.57024L1209.480329 801.57024zM800.723298 671.294648l71.536814 0 0-72.48669-71.536814 0L800.723298 671.294648 800.723298 671.294648zM956.703314 185.621185c-29.782025-27.568057-69.644287-41.408067-119.67166-41.408067-47.235534 0-85.163734 12.902775-113.916427 38.592752-28.725605 25.650248-46.000335 62.670107-51.784462 111.003596l64.515682 7.781394c5.580067-36.060954 17.325294-62.570785 35.228459-79.549357 17.910388-16.965931 40.257742-25.471469 66.993304-25.471469 27.680019 0 51.036842 9.366927 70.102972 28.102588 19.060713 18.73566 28.626283 40.447356 28.626283 65.207321 0 13.657619-3.259553 26.235342-9.791301 37.825267-6.475767 11.532138-20.577624 27.066032-42.374195 46.471661-21.776706 19.420076-36.801352 34.170233-45.194927 44.335344-11.385864 13.910438-19.681924 27.665573-24.767189 41.379173-6.98321 18.136119-10.46127 39.685289-10.46127 64.699878 0 4.259993 0.133633 10.602126 0.359364 19.109471l0 0.028894 60.369458 0c0.492996-25.480498 2.179657-43.849572 5.218897-55.148755 3.041046-11.322659 7.696519-21.354138 13.975448-30.05832 6.277123-8.733075 19.645807-22.248032 40.109663-40.631553 30.507976-27.335103 50.901403-50.54204 61.411432-69.637064 10.475717-19.09683 15.710867-39.961583 15.710867-62.585232C1001.363711 246.519756 986.499786 213.174795 956.703314 185.621185L956.703314 185.621185zM687.25111 862.262945l0 24.11889c0 36.709253-29.442526 66.391957-65.6949 66.391957L317.906685 952.773791l-97.234014 71.226209-54.646729-71.226209-100.352712 0c-36.299326 0-65.67323-29.682704-65.67323-66.391957L0 431.386097c0-36.689389 29.373904-66.372093 65.67323-66.372093l234.689654-5.912342-0.359364 390.091798c0 0-3.053687 56.255739 18.517153 79.823845 29.449749 32.18019 81.362427 32.857382 81.362427 32.857382L687.25111 862.262945 687.25111 862.262945zM687.25111 862.262945" fill="#272636"></path></g></g></svg>