<?xml version="1.0" standalone="no"?><!DOCTYPE svg PUBLIC "-//W3C//DTD SVG 1.1//EN" "http://www.w3.org/Graphics/SVG/1.1/DTD/svg11.dtd"><svg width="200" height="200" viewBox="0 0 200 200" version="1.1" xmlns="http://www.w3.org/2000/svg" xmlns:xlink="http://www.w3.org/1999/xlink"><defs><style type="text/css"><![CDATA[
@font-face { font-family: ifont; src: url("//at.alicdn.com/t/font_1442373896_4754455.eot?#iefix") format("embedded-opentype"), url("//at.alicdn.com/t/font_1442373896_4754455.woff") format("woff"), url("//at.alicdn.com/t/font_1442373896_4754455.ttf") format("truetype"), url("//at.alicdn.com/t/font_1442373896_4754455.svg#ifont") format("svg"); }

]]></style></defs><g class="transform-group"><g transform="scale(0.1953125, 0.1953125)"><path d="M60.327482 884.000456 60.327482 433.613722 60.327482 262.602883l0-64.62895c0-64.618717 63.143109-107.379613 129.257899-107.379613l214.759225 0c31.815613 0 57.665351 9.946536 77.04984 29.332049 19.384489 19.394722 29.331026 45.732577 29.331026 78.047564l406.64244 0c22.36538 0 43.74634 20.881586 43.74634 64.62895l0 621.397572c0 11.434423-4.467755 21.38096-13.417591 30.330796-8.948813 8.947789-18.897396 13.417591-30.328749 13.417591L123.958708 927.748842C81.707418 927.748842 60.327482 906.369929 60.327482 884.000456L60.327482 884.000456zM466.979132 777.618567l214.758202-171.008792L466.979132 433.613722 466.979132 777.618567z" fill="#272636"></path></g></g></svg>