<?xml version="1.0" standalone="no"?><!DOCTYPE svg PUBLIC "-//W3C//DTD SVG 1.1//EN" "http://www.w3.org/Graphics/SVG/1.1/DTD/svg11.dtd"><svg width="285.546875" height="200" viewBox="0 0 285.546875 200" version="1.1" xmlns="http://www.w3.org/2000/svg" xmlns:xlink="http://www.w3.org/1999/xlink"><defs><style type="text/css"><![CDATA[
@font-face { font-family: ifont; src: url("//at.alicdn.com/t/font_1442373896_4754455.eot?#iefix") format("embedded-opentype"), url("//at.alicdn.com/t/font_1442373896_4754455.woff") format("woff"), url("//at.alicdn.com/t/font_1442373896_4754455.ttf") format("truetype"), url("//at.alicdn.com/t/font_1442373896_4754455.svg#ifont") format("svg"); }

]]></style></defs><g class="transform-group"><g transform="scale(0.1953125, 0.1953125)"><path d="M1461.145859 269.29002c0.077576-24.463515-8.727273-45.442586-26.194747-62.890667-17.170101-17.142949-38.335354-26.011152-63.495758-26.682182L385.653657 180.240808c-25.086707 0-52.631273 6.204768-82.521212 18.556121-29.818828 12.337131-53.590626 27.262707-71.116283 44.779313l-206.195071 205.906747c-17.172687 17.212768-25.74998 38.270707-25.835313 63.326384 0.082747 25.059556 8.662626 46.201535 25.835313 63.344485l206.195071 205.900283c17.525657 17.510141 41.212121 32.447354 71.116283 44.789657 29.889939 12.337131 57.209535 18.328566 82.068687 18.031192l986.771394 0.521051c24.424727 0 45.434828-8.732444 62.913939-26.258101 17.170101-17.128727 26.104242-38.272 26.790788-63.314747L1461.145859 269.29002 1461.145859 269.29002M262.146586 575.82804c-17.538586 17.510141-38.62497 26.299475-63.427232 26.299475-24.789333 0-45.961051-8.718222-63.499636-26.242586-17.467475-17.440323-26.272323-38.569374-26.272323-63.32897s8.733737-45.818828 26.272323-63.341899c17.467475-17.440323 38.639192-26.229657 63.428525-26.229657 24.872081 0.071111 45.958465 8.789333 63.425939 26.229657 17.537293 17.524364 26.272323 38.650828 26.272323 63.341899C288.347798 537.389253 279.615354 558.445899 262.146586 575.82804L262.146586 575.82804M343.098182 512.558545 343.098182 512.558545zM583.157657 451.555556l40.226909 0-40.226909 72.272162 0 163.63701-62.727758 54.999919L456.566949 742.464646l0-50.681535 53.863434 0 0-66.59103L440.657455 625.192081l69.772929-121.363394 0-93.864081L450.884525 409.964606l0-51.81802 59.545859 0 0-37.727677 72.727273 0 0 37.727677 36.136081 0-24.091152 51.81802-12.044929 0L583.157657 451.555556zM872.021333 344.737616l-22.045737 46.590707-40.68202 0 0 62.95402 60.908606 0-22.273293 47.045818-38.636606 0 0 67.272404 60.908606 0-22.273293 47.727192-38.636606 0 0 75.227798 64.999434 0-22.045737 47.954747L625.657535 739.510303 625.657535 444.510384l-23.63604 0 46.363152-123.636364 72.954828 0-10.909737 23.863596 30.908768 0c0.148687-2.421657 0.49002-4.545939 1.022707-6.363798 0.528808-1.817859 2.006626-4.733414 4.432162-8.750545 2.421657-4.013253 6.211232-7.500283 11.363556-10.454626 5.148444-2.954343 13.217616-4.05204 24.204929-3.295677 10.983434 0.760242 18.331152 4.357172 22.045737 10.79596 3.710707 6.441374 5.794909 10.568404 6.25002 12.386263l1.136485 5.682424L872.021333 344.737616zM697.020768 454.282343l42.272323 0 0-62.95402-42.272323 0L697.020768 454.282343zM697.020768 568.600566l42.272323 0 0-67.272404-42.272323 0L697.020768 568.600566zM739.294384 616.327758l-42.272323 0 0 75.227798 42.272323 0L739.294384 616.327758zM1335.202909 342.464646l-22.954667 57.726707L1002.249051 400.191354l0 309.545374-79.772444 36.591192L922.476606 342.464646l164.999758 0.227556c7.120162-11.967354 14.240323-20.301576 21.363071-25.000081 7.120162-4.694626 14.960485-7.006384 23.522263-6.931394 8.557899 0.078869 16.779636 2.500525 24.658747 7.272727 7.876525 4.772202 13.181414 9.659475 15.909495 14.659232l5.682424 9.773253L1335.202909 342.465939z" fill="#272636"></path></g></g></svg>