<?xml version="1.0" standalone="no"?><!DOCTYPE svg PUBLIC "-//W3C//DTD SVG 1.1//EN" "http://www.w3.org/Graphics/SVG/1.1/DTD/svg11.dtd"><svg width="285.546875" height="200" viewBox="0 0 285.546875 200" version="1.1" xmlns="http://www.w3.org/2000/svg" xmlns:xlink="http://www.w3.org/1999/xlink"><defs><style type="text/css"><![CDATA[
@font-face { font-family: ifont; src: url("//at.alicdn.com/t/font_1442373896_4754455.eot?#iefix") format("embedded-opentype"), url("//at.alicdn.com/t/font_1442373896_4754455.woff") format("woff"), url("//at.alicdn.com/t/font_1442373896_4754455.ttf") format("truetype"), url("//at.alicdn.com/t/font_1442373896_4754455.svg#ifont") format("svg"); }

]]></style></defs><g class="transform-group"><g transform="scale(0.1953125, 0.1953125)"><path d="M1461.145859 269.29002c0.077576-24.463515-8.727273-45.442586-26.194747-62.890667-17.170101-17.142949-38.335354-26.011152-63.495758-26.682182L385.653657 180.240808c-25.086707 0-52.631273 6.204768-82.521212 18.556121-29.818828 12.337131-53.590626 27.262707-71.116283 44.779313l-206.195071 205.906747c-17.172687 17.212768-25.74998 38.270707-25.835313 63.326384 0.082747 25.059556 8.662626 46.201535 25.835313 63.344485L232.016162 782.054141c17.525657 17.510141 41.212121 32.447354 71.116283 44.789657 29.889939 12.337131 57.209535 18.328566 82.068687 18.031192l986.772687 0.521051c24.424727 0 45.434828-8.732444 62.912646-26.259394 17.170101-17.128727 26.104242-38.272 26.792081-63.314747L1461.145859 269.29002 1461.145859 269.29002M262.146586 575.82804c-17.538586 17.510141-38.62497 26.299475-63.427232 26.299475-24.789333 0-45.961051-8.718222-63.499636-26.242586-17.467475-17.440323-26.272323-38.569374-26.272323-63.32897 0-24.758303 8.733737-45.818828 26.272323-63.341899 17.467475-17.440323 38.639192-26.229657 63.428525-26.229657 24.872081 0.071111 45.958465 8.789333 63.425939 26.229657 17.537293 17.524364 26.272323 38.650828 26.272323 63.341899C288.347798 537.389253 279.615354 558.445899 262.146586 575.82804L262.146586 575.82804M343.098182 512.558545 343.098182 512.558545zM859.404929 329.601293l-22.954667 57.726707L526.451071 387.328l0 309.545374-79.772444 36.591192L446.678626 329.601293l164.999758 0.227556c7.120162-11.967354 14.240323-20.301576 21.363071-25.000081 7.120162-4.694626 14.960485-7.006384 23.522263-6.931394 8.557899 0.078869 16.779636 2.500525 24.658747 7.272727 7.876525 4.772202 13.181414 9.659475 15.909495 14.659232l5.682424 9.773253L859.404929 329.601293 859.404929 329.601293zM1002.586505 393.691798l-16.590869 42.046061-81.365333 0 52.954505-127.273374 79.092364 0-14.090343 34.773333 53.635879 0 0-33.409293 76.818101 0 0 33.409293L1313.95103 343.237818l-21.589333 50.45398L1153.040808 393.691798l0 74.545131 171.818667 0-26.136566 51.364202L908.041051 519.601131l0-51.364202 168.181657 0 0-74.545131L1002.586505 393.691798zM924.859475 542.328242l377.045333 0 0 123.863919-76.590545 59.772121L924.859475 725.964283 924.859475 542.328242zM1225.314263 591.873293 1000.996202 591.873293l0 84.318384 224.318061 0L1225.314263 591.873293 1225.314263 591.873293z" fill="#272636"></path></g></g></svg>