<?xml version="1.0" standalone="no"?><!DOCTYPE svg PUBLIC "-//W3C//DTD SVG 1.1//EN" "http://www.w3.org/Graphics/SVG/1.1/DTD/svg11.dtd"><svg width="200" height="200" viewBox="0 0 200 200" version="1.1" xmlns="http://www.w3.org/2000/svg" xmlns:xlink="http://www.w3.org/1999/xlink"><defs><style type="text/css"><![CDATA[
@font-face { font-family: ifont; src: url("//at.alicdn.com/t/font_1442373896_4754455.eot?#iefix") format("embedded-opentype"), url("//at.alicdn.com/t/font_1442373896_4754455.woff") format("woff"), url("//at.alicdn.com/t/font_1442373896_4754455.ttf") format("truetype"), url("//at.alicdn.com/t/font_1442373896_4754455.svg#ifont") format("svg"); }

]]></style></defs><g class="transform-group"><g transform="scale(0.1953125, 0.1953125)"><path d="M507.291 130.299c-158.241 0-286.51 125.659-286.51 280.656 0 154.993 128.27 280.649 286.51 280.649 158.234 0 286.504-125.657 286.504-280.649C793.731 255.958 665.524 130.299 507.291 130.299L507.291 130.299 507.291 130.299zM176.433 518.735 176.433 259.588c-3.626 0-7.253 0.127-10.754 0.442C224.406 132.523 355.157 43.705 507.291 43.705c152.127 0 282.939 88.818 341.605 216.325-3.563-0.252-7.126-0.442-10.753-0.442l0 259.147c73.043 0 132.343-58.027 132.343-129.544 0-48.61-27.359-90.919-67.761-113.128C845.843 115.663 690.528 0.5 507.291 0.5c-183.244 0-338.494 115.163-395.44 275.563-40.402 22.144-67.762 64.518-67.762 113.064C44.089 460.703 103.326 518.734 176.433 518.735L176.433 518.735 176.433 518.735 176.433 518.735zM793.159 667.298c-74.887 68.465-175.351 110.39-285.867 110.39-110.327 0-210.667-41.737-285.491-110.006C87.93 735.126 0 855.313 0 1018.515l1018.014 0C1018.014 854.997 928.491 734.681 793.159 667.298L793.159 667.298z" fill="#272636"></path></g></g></svg>