<?xml version="1.0" standalone="no"?><!DOCTYPE svg PUBLIC "-//W3C//DTD SVG 1.1//EN" "http://www.w3.org/Graphics/SVG/1.1/DTD/svg11.dtd"><svg class="icon" style="" viewBox="0 0 1343 1024" version="1.1" xmlns="http://www.w3.org/2000/svg" p-id="3459" xmlns:xlink="http://www.w3.org/1999/xlink" width="1343" height="1024"><defs><style type="text/css"><![CDATA[

]]></style></defs><path d="M134.4 936.534c0 19.2 14.933 34.133 34.133 34.133l142.933 0c19.2 0 34.133-14.933 34.133-34.133l0-234.667-211.2 121.6 0 113.066zM729.6 686.934l-2.134-2.134 0 251.734c0 19.2 14.933 34.133 34.133 34.133l142.933 0c19.2 0 34.133-14.933 34.133-34.133l0-422.4-209.066 172.8zM430.933 654.933l0 283.733c0 19.2 14.933 34.133 34.133 34.133l142.933 0c19.2 0 34.133-14.933 34.133-34.133l0-298.667-96-51.2-115.2 66.133zM1024 441.6l0 494.933c0 19.2 14.933 34.133 34.133 34.133l142.933 0c19.2 0 34.133-14.933 34.133-34.133l0-505.6-85.333-93.866-125.867 104.533zM1158.4 57.6l-130.133 25.6 53.333 59.734-373.333 309.334-166.4-89.6-27.733 14.933-465.067 266.666 55.466 91.733 437.333-251.734 145.067 76.8 34.133 17.066 29.867-23.467 401.066-334.933 49.067 55.466 85.333-243.2-128 25.6z" p-id="3460"></path></svg>