<?xml version="1.0" encoding="utf-8"?>
<!-- Generator: Adobe Illustrator 16.0.0, SVG Export Plug-In . SVG Version: 6.00 Build 0)  -->
<!DOCTYPE svg PUBLIC "-//W3C//DTD SVG 1.1//EN" "http://www.w3.org/Graphics/SVG/1.1/DTD/svg11.dtd">
<svg version="1.1" id="图层_1" xmlns="http://www.w3.org/2000/svg" xmlns:xlink="http://www.w3.org/1999/xlink" x="0px" y="0px"
	 width="1000px" height="1000px" viewBox="0 0 1000 1000" enable-background="new 0 0 1000 1000" xml:space="preserve">
<g transform="scale(0.1953125, 0.1953125)">
	<path fill="#070001" d="M3876.67,1036.782H228.404c-125.417,0-228.027,102.61-228.027,227.964V4000.9
		c0,125.479,102.61,227.969,228.027,227.969H3876.67c125.485,0,228.094-102.49,228.094-227.969V1264.747
		C4104.765,1139.392,4002.155,1036.782,3876.67,1036.782z M3839.8,3972.905H256.339V2437.134H3839.8V3972.905z M3839.8,1797.23
		H256.339v-511.924H3839.8V1797.23z M2815.833,3588.961h511.924c76.985,0,128.105-50.865,128.105-127.855v-511.799
		c0-76.865-51.12-128.23-128.105-128.23h-511.924c-76.74,0-127.86,51.365-127.86,128.23v511.799
		C2687.973,3538.096,2739.093,3588.961,2815.833,3588.961z M798.445,3077.037H2166.49c68.49,0,114.047-59.49,114.047-127.979
		c0-68.49-45.62-127.98-114.047-127.98H798.445c-68.427,0-114.047,59.49-114.047,127.98
		C684.398,3017.547,730.018,3077.037,798.445,3077.037z M4607.688,261.459H884.433c-125.357,0-244.152,130.545-244.152,255.962
		v127.982c0,68.365,59.555,127.98,127.982,127.98c68.425,0,127.98-59.615,127.98-127.98V517.421h3711.446v2815.58h-127.98
		c-68.365,0-127.979,59.865-127.979,127.98c0,68.49,59.615,127.98,127.979,127.98h180.845
		c125.485,0,203.094-130.605,203.094-255.959V517.421C4863.647,392.004,4733.168,261.459,4607.688,261.459z M798.445,3588.961
		h912.05c68.365,0,113.982-59.49,113.982-127.98s-45.555-127.98-113.982-127.98h-912.05c-68.427,0-114.047,59.49-114.047,127.98
		S730.018,3588.961,798.445,3588.961z"/>
	<path fill="#070001" d="M5116.737,4089.765c-11.625-43.495-50.37-76.365-98.234-76.365c-11.5,0-22.37,1.75-32.87,5.25
		c-14.125,5.25-27.62,13.495-38.12,23.995l0,0v0.75c-0.875,0-0.875,0-0.875,0l-580.663,580.663l-201.595-201.719l0,0
		c-18.745-17.625-43.495-28.37-70.115-28.37c-12.375,0-22.87,1.875-33.87,5.245c-38.745,14.125-67.365,51.495-67.365,94.74
		c0,15.995,3.625,31.245,9.875,44.49c5.375,10,11.62,18.625,18.745,26.75l263.584,263.834c18.75,24.495,47.12,39.745,79.99,39.745
		c28.37,0,53.115-11.625,71.74-29.245l0,0l653.403-653.403v-0.75c0,0,0,0,0.75-1l7.87-8.875c3.5-5.375,7.125-11.375,10.875-16.62
		c3.125-8.25,6.125-16.125,7.875-25c0.75-6.125,1.875-13.245,1.875-19.495c0-3.625,0-6.25,0-9.75
		C5118.487,4100.26,5117.737,4094.885,5116.737,4089.765z"/>
</g>
</svg>
