<?xml version="1.0" encoding="utf-8"?>
<!-- Generator: Adobe Illustrator 16.0.0, SVG Export Plug-In . SVG Version: 6.00 Build 0)  -->
<!DOCTYPE svg PUBLIC "-//W3C//DTD SVG 1.1//EN" "http://www.w3.org/Graphics/SVG/1.1/DTD/svg11.dtd">
<svg version="1.1" id="图层_1" xmlns="http://www.w3.org/2000/svg" xmlns:xlink="http://www.w3.org/1999/xlink" x="0px" y="0px"
	 width="1000px" height="1000px" viewBox="0 0 1000 1000" enable-background="new 0 0 1000 1000" xml:space="preserve">
<g>
	<path fill="#070001" d="M425.258,275.731c69.027,0,125.149-56.146,125.149-125.149S494.285,25.434,425.258,25.434
		c-69.003,0-125.149,56.146-125.149,125.149S356.254,275.731,425.258,275.731z M425.233,76.923c41.419,0,75.114,33.683,75.114,75.09
		c0,41.395-33.695,75.089-75.114,75.089c-41.37,0-75.065-33.695-75.065-75.089C350.168,110.605,383.863,76.923,425.233,76.923z"/>
	<path fill="#070001" d="M700.586,526.03c69.027,0,125.149-56.146,125.149-125.149c0-69.003-56.122-125.149-125.149-125.149
		c-69.003,0-125.149,56.146-125.149,125.149C575.437,469.884,631.583,526.03,700.586,526.03z M700.562,327.221
		c41.431,0,75.113,33.683,75.113,75.089c0,41.395-33.683,75.09-75.113,75.09c-41.383,0-75.065-33.695-75.065-75.09
		C625.496,360.904,659.179,327.221,700.562,327.221z"/>
	<path fill="#070001" d="M999.746,771.929c0-61.304-47.982-120.75-130.894-120.75H631.699c-25.335-31.479-56.91-50.06-81.292-50.06
		c-1.883-0.782-162.694,0-162.694,0c-70.384-86.626-206.899-75.089-212.753-75.089V501c0-8.799-16.218-25.03-25.03-25.03H13.989
		c-8.787,0-14.238,16.23-14.238,25.03v375.447c0,8.849,5.451,25.03,14.238,25.03H149.93c8.812,0,25.03-16.182,25.03-25.03v-6.85
		c50.555,30.161,151.409,88.729,203.697,106.138c1.625,0.563,3.324,0.831,5.023,0.831h115.519c1.956,0,3.825-0.391,5.659-1.026
		l485.087-184.839C997.57,787.816,1001.677,779.75,999.746,771.929z M124.9,852.273H49.811V526.03H124.9V852.273z M500.347,926.507
		H375.198c-55.597-19.245-161.712-89.389-200.239-115.379V576.09c1.295,0,111.852-12.516,195.961,70.641
		c3.006,4.009,7.736,6.38,12.735,6.38h158.44c15.155,6.771,65.264,34.831,76.459,98.188H350.168c-8.812,0-25.03,16.23-25.03,25.03
		s16.218,25.03,25.03,25.03h310.697c8.873,0,14.69-16.23,14.69-25.03c0-27.397-5.54-52.711-14.574-75.09h214.813
		c37.74,0,65.508,27.206,75.089,50.06L500.347,926.507z"/>
</g>
</svg>
