<?xml version="1.0" standalone="no"?><!DOCTYPE svg PUBLIC "-//W3C//DTD SVG 1.1//EN" "http://www.w3.org/Graphics/SVG/1.1/DTD/svg11.dtd"><svg xmlns:xlink="http://www.w3.org/1999/xlink" xmlns="http://www.w3.org/2000/svg" version="1.1" width="200" height="200" viewBox="0 0 200 200"><defs><style type="text/css"><![CDATA[
@font-face {
  font-family: "ifont";
  src: url("//at.alicdn.com/t/font_1442373896_4754455.eot?#iefix") format("embedded-opentype"), url("//at.alicdn.com/t/font_1442373896_4754455.woff") format("woff"), url("//at.alicdn.com/t/font_1442373896_4754455.ttf") format("truetype"), url("//at.alicdn.com/t/font_1442373896_4754455.svg#ifont") format("svg");
}

]]></style></defs><g class="transform-group"><g transform="scale(0.1953125, 0.1953125)"><path d="M583.157131 868.655979c0-70.335928 0-140.779304 0-212.042347-47.509037 0-94.019327 0-141.564179 0 0 70.513984 0 140.921543 0 212.611306-4.422729 0.213871-7.953136 0.536212-11.484565 0.536212-66.840314 0-133.716444 0.034792-200.557782 0-22.970154 0-38.413891-13.875009-38.520315-36.84414-0.463558-87.242993-0.321318-174.555571 0.107447-261.798565 0-4.600785 3.709485-10.485819 7.454786-13.624299 60.491723-50.326199 121.30374-100.332103 182.010357-150.373823 40.411385-33.31271 80.785931-66.62542 121.197316-99.904361 3.139503-2.568499 6.349615-5.064342 10.307763-8.239662 24.111141 19.831674 48.115857 39.554878 72.083735 59.313897C663.265634 423.457408 742.23315 488.764809 821.520961 553.679261c8.524141 6.954389 12.163017 14.017248 12.091386 25.252127-0.499373 82.820264-0.356111 165.674297-0.178055 248.457722 0.035816 15.050788-3.709485 28.141944-17.013489 36.45119-4.814656 3.032056-10.914584 5.636371-16.442484 5.671163-70.942749 0.356111-141.884474 0.178055-212.791407 0.143263C586.152349 869.654726 585.08197 869.191168 583.157131 868.655979zM689.69354 281.609773c0-34.989909-0.034792-67.303872 0-99.583043 0.035816-20.615527 4.957919-25.537629 25.537629-25.573445 31.957853 0 63.915705-0.035816 95.872534 0.035816 16.4783 0.035816 22.185278 5.849218 22.221094 23.290449 0.071631 69.087495 0.249687 138.210805-0.212848 207.2983-0.071631 10.664897 2.924609 17.512862 11.305487 24.290219 35.025725 28.176736 69.371974 57.139372 103.898325 85.921905 16.941857 14.123672 17.370623 21.007453 3.103688 37.807071-8.631588 10.201339-17.084097 20.580734-25.78834 30.745235-10.69969 12.589736-19.545148 13.374612-32.350802 2.674922C770.694365 466.222397 648.106376 363.856985 525.481548 261.527388c-4.244674-3.53143-8.595772-6.990205-13.553691-11.056823-27.570939 22.970154-54.926984 45.690622-82.213443 68.480674-99.511411 83.034135-199.022823 166.103062-298.535257 249.13515-13.482059 11.270694-21.86396 10.593266-33.206286-2.674922-9.380648-11.021008-18.72548-22.113647-27.962865-33.241079-10.771321-12.982686-10.342556-21.364587 2.674922-32.313963 55.533804-46.474474 111.209848-92.770893 166.851099-139.13792 74.151837-61.811788 148.376329-123.55092 222.49235-185.469132 33.634028-28.070312 66.376757-28.070312 100.083439 0.213871 39.84038 33.420157 79.787184 66.698075 119.699196 100.010785C683.702082 277.042757 685.699576 278.505062 689.69354 281.609773z" fill="#272636"></path></g></g></svg>