<?xml version="1.0" encoding="utf-8"?>
<!-- Generator: Adobe Illustrator 16.0.0, SVG Export Plug-In . SVG Version: 6.00 Build 0)  -->
<!DOCTYPE svg PUBLIC "-//W3C//DTD SVG 1.1//EN" "http://www.w3.org/Graphics/SVG/1.1/DTD/svg11.dtd">
<svg version="1.1" id="图层_1" xmlns="http://www.w3.org/2000/svg" xmlns:xlink="http://www.w3.org/1999/xlink" x="0px" y="0px"
	 width="200px" height="200px" viewBox="0 0 200 200" enable-background="new 0 0 200 200" xml:space="preserve">
<g>
	<g transform="scale(0.1953125, 0.1953125)">
		<path d="M209.922,814.078h604.156V209.92H209.922V814.078z M321.709,321.709h380.584v380.579l-380.584,0.005V321.709z M48,287.999
			c26.527,0,48-21.505,48-48V96h144c26.527,0,48-21.505,48-48s-21.472-48-48-48H48C21.472,0,0,21.505,0,48v192
			C0,266.494,21.472,287.999,48,287.999z M239.999,927.998H96v-144c0-26.495-21.472-48-48-48s-48,21.505-48,48v192
			c0,26.495,21.472,48,48,48h192c26.527,0,48-21.505,48-48S266.527,927.998,239.999,927.998z M975.997,0h-192
			c-26.495,0-48,21.505-48,48s21.505,48,48,48h144v144c0,26.495,21.505,48,48,48s48-21.505,48-48V48
			C1023.997,21.505,1002.492,0,975.997,0z M975.997,735.998c-26.495,0-48,21.505-48,48v144h-144c-26.495,0-48,21.505-48,48
			s21.505,48,48,48h192c26.495,0,48-21.505,48-48v-192C1023.997,757.503,1002.492,735.998,975.997,735.998z"/>
	</g>
</g>
</svg>
