<?xml version="1.0" standalone="no"?><!DOCTYPE svg PUBLIC "-//W3C//DTD SVG 1.1//EN" "http://www.w3.org/Graphics/SVG/1.1/DTD/svg11.dtd"><svg t="1482203557761" class="icon" style="" viewBox="0 0 1134 1024" version="1.1" xmlns="http://www.w3.org/2000/svg" p-id="2782" xmlns:xlink="http://www.w3.org/1999/xlink" width="1134" height="1024"><defs><style type="text/css"></style></defs><path d="M528.392393 829.97718l0-58.057443c9.350295 0 74.961836-0.470033 84.077115-1.384918 142.612984-14.344393 254.061115-138.21482 254.061115-288.885508 0-160.314754-126.153443-290.270426-281.776262-290.270426-155.62282 0-281.776262 129.955672-281.776262 290.270426l-56.353574 0c0-192.377705 151.392525-348.327869 338.13823-348.327869 186.745705 0 338.13823 155.950164 338.13823 348.327869 0 181.743213-135.109246 330.978623-307.510557 346.91777C605.293115 829.498754 538.716328 829.97718 528.392393 829.97718z" p-id="2783"></path><path d="M528.392393 771.919738c15.561443 0 28.176787 12.993049 28.176787 29.024525 0 16.031475-12.615344 29.024525-28.176787 29.024525-15.561443 0-28.176787-13.001443-28.176787-29.024525C500.215607 784.912787 512.830951 771.919738 528.392393 771.919738z" p-id="2784"></path><path d="M133.908984 481.649311l281.776262 0-140.892328 174.163934L133.908984 481.649311z" p-id="2785"></path></svg>