<?xml version="1.0" encoding="utf-8"?>
<!-- Generator: Adobe Illustrator 16.0.0, SVG Export Plug-In . SVG Version: 6.00 Build 0)  -->
<!DOCTYPE svg PUBLIC "-//W3C//DTD SVG 1.1//EN" "http://www.w3.org/Graphics/SVG/1.1/DTD/svg11.dtd">
<svg version="1.1" id="图层_1" xmlns="http://www.w3.org/2000/svg" xmlns:xlink="http://www.w3.org/1999/xlink" x="0px" y="0px"
	 width="202.93px" height="200px" viewBox="0 0 202.93 200" enable-background="new 0 0 202.93 200" xml:space="preserve">
<g>
	<g transform="scale(0.1953125, 0.1953125)">
		<path d="M209.069,809.388c-19.395,0-35.09-15.69-35.09-35.09V479.909c0-19.402,31.055-35.097,50.45-35.097
			c19.402,0,50.457,15.695,50.457,35.097v294.389c0,19.4-20.815,35.09-40.217,35.09H209.069z M509.506,920.733
			c-110.457,0-265.274-55.24-314.042-102.71c-14.255-13.88-21.487-28.58-21.487-43.725c0-19.4,15.697-35.095,35.092-35.095
			c16.83,0,30.875-13.745,34.307,2.05c22.067,25.905,168.147,86.605,272.774,83.59c108.062-2.98,241.362-58.09,264.557-83.96
			c3.535-15.625,17.515-1.68,34.21-1.68c19.4,0,35.095,15.695,35.095,35.095c0,79.16-231.384,143.56-331.939,146.33
			C515.266,920.698,512.384,920.733,509.506,920.733L509.506,920.733z M517.119,672.163c-5.59,0-11.177-1.335-16.285-4.01
			L19.62,418.936c-11.55-6.03-18.815-18.025-18.815-31.08c0-13.062,7.232-25.022,18.815-31.087l481.214-249.492
			c10.215-5.35,22.345-5.35,32.555,0l470.944,249.492c11.545,6.065,34.665,18.025,34.665,31.05c0,13.022-23.05,25.02-34.595,31.085
			L533.359,668.153c-5.075,2.675-15.782,4.01-21.362,4.01H517.119z M162.737,387.854l354.382,158.4l344.269-158.33L517.119,229.177
			L162.737,387.854L162.737,387.854z M799.558,809.388c-19.4,0-50.455-15.69-50.455-35.09V479.909
			c0-19.402,31.055-35.097,50.455-35.097s50.455,15.695,50.455,35.097v294.389c-0.005,19.4-15.695,35.09-35.095,35.09H799.558z
			 M988.052,852.158c-19.395,0-45.335-15.69-45.335-35.095V387.854c0-19.4,25.94-35.097,45.335-35.097
			c19.4,0,50.945,15.697,50.945,35.097v429.209C1038.997,836.468,1007.452,852.158,988.052,852.158L988.052,852.158z"/>
	</g>
</g>
</svg>
