<?xml version="1.0" encoding="utf-8"?>
<!DOCTYPE svg PUBLIC "-//W3C//DTD SVG 1.1//EN" "http://www.w3.org/Graphics/SVG/1.1/DTD/svg11.dtd">
<svg style="width:308px;height:308px;" version="1.1" id="图形" xmlns="http://www.w3.org/2000/svg" xmlns:xlink="http://www.w3.org/1999/xlink" x="0px" y="0px" width="1024px" height="1024px" viewBox="0 0 1024 1024" enable-background="new 0 0 1024 1024" xml:space="preserve">
  <path class="svgpath" data-index="path_0" fill="#272636" d="M0 0l0 1024 1024-1024L0 0zM330.123264 516.089856c-0.075776 0.079872-0.18432 0.105472-0.234496 0.18432-0.0768 0.079872-0.105472 0.207872-0.185344 0.287744-1.676288 1.703936-3.720192 2.67264-5.68832 3.828736-0.995328 0.575488-1.831936 1.491968-2.90816 1.939456-3.2 1.363968-6.632448 2.043904-10.067968 2.043904-3.248128 0-6.528-0.627712-9.62048-1.836032-0.996352-0.392192-1.808384-1.204224-2.752512-1.75616-1.911808-1.047552-3.907584-1.939456-5.5552-3.511296-0.080896-0.079872-0.108544-0.185344-0.185344-0.264192-0.078848-0.075776-0.18432-0.105472-0.264192-0.181248l-210.108416-206.992384c-10.328064-10.143744-10.459136-26.763264-0.287744-37.067776 10.172416-10.328064 26.764288-10.431488 37.092352-0.260096l190.971904 188.168192L659.92704 88.454144c9.884672-10.563584 26.504192-11.035648 37.040128-1.152 10.540032 9.935872 11.091968 26.527744 1.129472 37.040128L330.123264 516.089856z" />

</svg>
