<?xml version="1.0" standalone="no"?><!DOCTYPE svg PUBLIC "-//W3C//DTD SVG 1.1//EN" "http://www.w3.org/Graphics/SVG/1.1/DTD/svg11.dtd"><svg width="17" height="16" viewBox="0 0 17 16" version="1.1" xmlns="http://www.w3.org/2000/svg" xmlns:xlink="http://www.w3.org/1999/xlink"><defs><style type="text/css"><![CDATA[
@font-face { font-family: ifont; src: url(http://at.alicdn.com/t/font_1442373896_4754455.eot?#iefix) format(embedded-opentype), url(http://at.alicdn.com/t/font_1442373896_4754455.woff) format(woff), url(http://at.alicdn.com/t/font_1442373896_4754455.ttf) format(truetype), url(http://at.alicdn.com/t/font_1442373896_4754455.svg#ifont) format(svg); }

]]></style></defs><g class="transform-group"><g transform="scale(0.015625, 0.015625)"><path d="M544 992c-12.608 0-24.832-5.248-33.6-14.4l0 0c0 0-111.744-115.328-154.56-160.256L186.688 817.344C102.848 817.344 32 742.4 32 653.632L32 188.096C32 102.016 100.16 32 184 32l720 0c83.84 0 152 70.016 152 156.096l0 465.472c0 88.768-70.848 163.776-154.752 163.776l-174.08 0c-61.248 60.544-147.712 158.272-148.608 159.232C568.832 986.752 556.608 992 544 992zM184 96C135.488 96 96 137.344 96 188.096l0 465.472c0 53.12 42.432 99.776 90.688 99.776l196.736 0 9.472 10.048c25.664 27.328 116.608 121.344 150.592 156.352 27.776-31.04 98.048-108.672 148.416-157.44l9.344-9.024 200.064 0c48.32 0 90.752-46.656 90.752-99.776L992.064 188.096c0-50.816-39.488-92.096-88-92.096L184 96zM304 374.336c-33.152 0-59.968 27.776-59.968 62.08 0 34.304 26.88 62.08 59.968 62.08s59.968-27.776 59.968-62.08C363.968 402.112 337.152 374.336 304 374.336L304 374.336zM544 374.336c-33.152 0-59.968 27.776-59.968 62.08 0 34.304 26.88 62.08 59.968 62.08s59.968-27.776 59.968-62.08C603.968 402.112 577.152 374.336 544 374.336L544 374.336zM784 374.336c-33.152 0-60.032 27.776-60.032 62.08 0 34.304 26.88 62.08 60.032 62.08s59.968-27.776 59.968-62.08C844.032 402.112 817.152 374.336 784 374.336L784 374.336z" fill="#272636"></path></g></g></svg>