<?xml version="1.0" standalone="no"?><!DOCTYPE svg PUBLIC "-//W3C//DTD SVG 1.1//EN" "http://www.w3.org/Graphics/SVG/1.1/DTD/svg11.dtd"><svg width="64" height="64" viewBox="0 0 64 64" version="1.1" xmlns="http://www.w3.org/2000/svg" xmlns:xlink="http://www.w3.org/1999/xlink"><defs><style type="text/css"><![CDATA[
@font-face { font-family: ifont; src: url(http://at.alicdn.com/t/font_1442373896_4754455.eot?#iefix) format(embedded-opentype), url(http://at.alicdn.com/t/font_1442373896_4754455.woff) format(woff), url(http://at.alicdn.com/t/font_1442373896_4754455.ttf) format(truetype), url(http://at.alicdn.com/t/font_1442373896_4754455.svg#ifont) format(svg); }

]]></style></defs><g class="transform-group"><g transform="scale(0.0625, 0.0625)"><path d="M928 921.6 96 921.6c-53 0-96-42.4-96-94.5L0 196.9c0-52.2 43-94.5 96-94.5l832 0c53 0 96 42.3 96 94.5l0 630.2C1024 879.3 981 921.6 928 921.6L928 921.6zM871 191c-1.9-0.1-7-0.1-7-0.1l-699.2-0.1c0 0-4.6 0.2-6.5 0.2C77.1 194 89 257.4 89 257.4l0 509.3c0 34.8 31.4 66.4 66.8 66.4l712.3 0c35.3 0 66.8-31.7 66.8-66.4L934.9 257.4C935 257.4 940.3 192.5 871 191L871 191zM822.1 567.3 713.9 567.3c-13.2 0-23.8-29.7-23.8-66.4 0-36.7 10.7-66.4 23.8-66.4l108.1 0c13.1 0 23.8 29.8 23.8 66.4C845.9 537.6 835.2 567.3 822.1 567.3L822.1 567.3zM310.1 567.3 201.9 567.3c-13.2 0-23.8-29.7-23.8-66.4 0-36.7 10.7-66.4 23.8-66.4l108.1 0c13.2 0 23.8 29.8 23.8 66.4C333.9 537.6 323.3 567.3 310.1 567.3L310.1 567.3zM566.1 567.3 457.9 567.3c-13.2 0-23.8-29.7-23.8-66.4 0-36.7 10.7-66.4 23.8-66.4l108.1 0c13.2 0 23.8 29.8 23.8 66.4C589.9 537.6 579.3 567.3 566.1 567.3L566.1 567.3z" fill="#272636"></path></g></g></svg>