<?xml version="1.0" standalone="no"?><!DOCTYPE svg PUBLIC "-//W3C//DTD SVG 1.1//EN" "http://www.w3.org/Graphics/SVG/1.1/DTD/svg11.dtd"><svg width="64" height="64" viewBox="0 0 64 64" version="1.1" xmlns="http://www.w3.org/2000/svg" xmlns:xlink="http://www.w3.org/1999/xlink"><defs><style type="text/css"><![CDATA[
@font-face { font-family: ifont; src: url(http://at.alicdn.com/t/font_1442373896_4754455.eot?#iefix) format(embedded-opentype), url(http://at.alicdn.com/t/font_1442373896_4754455.woff) format(woff), url(http://at.alicdn.com/t/font_1442373896_4754455.ttf) format(truetype), url(http://at.alicdn.com/t/font_1442373896_4754455.svg#ifont) format(svg); }

]]></style></defs><g class="transform-group"><g transform="scale(0.0625, 0.0625)"><path d="M755.938126 580.97314c-4.880598-4.129736-7.394845-6.48471-10.136626-8.532513-28.248307-21.069619-38.407686-44.869643-32.912748-83.41385 20.159485-141.40081-94.710897-257.875304-210.616557-270.435164-146.201771-15.836345-266.521584 75.927991-285.076956 216.065989-22.161781 167.351027 125.996779 307.341128 292.619698 275.611555 18.714646-3.560902 31.342765 0.455067 43.595454 13.970568 8.68041 9.579168 19.624781 17.110533 33.185788 28.623738-38.168776 19.920574-38.70348 51.126819-36.701184 83.106679 1.968166 31.513416-3.868073 61.86641-35.290475 74.562789-34.289327 13.868178-73.15208 16.757856-105.188824-4.0501-14.72143-9.567792-22.332431-33.242672-28.180047-52.071084-4.42553-14.266362-0.693978-30.978711-1.058032-46.587522-0.568834-24.914939-11.991025-43.345167-35.131201-53.060856-23.106046-9.704312-44.278055-5.551822-62.423867 12.082039-11.217411 10.91024-22.127651 22.127651-33.663609 32.696591-22.332431 20.466655-53.538677 26.439414-76.405812 9.840832-19.988834-14.516649-38.373556-32.753474-53.038102-52.617165-16.075255-21.75222-9.692935-55.347569 10.091119-76.428565 10.659953-11.376684 22.434822-21.729467 33.345062-32.889994 15.915981-16.245905 21.627077-35.916192 14.72143-57.475009-7.212818-22.457575-23.754517-36.496403-47.2815-39.579485-18.043421-2.36635-36.450897-1.899906-54.699098-2.798664-39.386081-1.95679-62.27597-24.778419-63.959719-64.153123-0.523327-12.127546-0.477821-24.311974-0.045507-36.43952 1.467592-40.580633 27.087885-65.677599 67.907429-66.56498 14.778313-0.329924 29.636263 0.580211 44.369069-0.295794 24.539508-1.444839 43.720598-12.810147 52.856075-35.927569 9.078594-22.980902 4.01597-44.255302-13.868178-62.00293-9.852209-9.783949-19.704417-19.59065-29.351846-29.590756-4.175243-4.334517-8.532513-8.74867-11.615595-13.845425-21.536063-35.552139-8.794177-70.92225 39.442965-110.387968 28.054904-22.969526 62.17358-21.831857 89.580013 3.344745 11.513205 10.580316 22.195911 22.048014 33.754622 32.582824 18.509865 16.871623 40.375853 20.591799 62.901688 10.864734 21.58157-9.306128 33.788753-26.416661 33.583972-51.069936-0.13652-16.473439-0.216157-33.015138 0.978395-49.431694 2.320844-31.87747 23.026409-56.746902 54.175771-61.183808 20.398395-2.901055 41.866198-2.866924 62.27597-0.03413 29.351846 4.072853 50.455595 29.977563 52.048331 60.08027 0.921511 17.315314-0.796368 34.801277 0.614341 52.048331 1.968166 24.073064 13.014927 42.548799 36.894587 52.002824 24.084441 9.533661 44.187042 3.333369 61.957423-13.822671 7.497235-7.246948 14.528026-14.96034 21.922871-22.321055 4.914728-4.903351 9.727065-10.034236 15.210627-14.243609 34.880914-26.769338 73.720915-15.472291 115.643996 33.401945 25.56341 29.78416 23.856907 65.165648-4.22075 92.958888-11.103644 10.989877-22.764745 21.627077-32.480434 33.777376-15.142367 18.942179-20.204991 40.910557-8.862437 63.231612 10.625823 20.887592 29.078805 31.513416 53.060856 31.502039 14.78969-0.011377 29.624886-0.523327 44.380446 0.182027 35.210838 1.695126 60.410194 22.525835 64.767464 56.087054 2.43461 18.737399 2.457364 38.339426-0.079637 57.054072-4.516544 33.322308-30.773931 54.869749-64.847101 56.166691-10.421043 0.398184-20.933099 0.762238-31.320012-0.056883C796.279849 549.380087 773.856404 557.77608 755.938126 580.97314zM289.107261 420.470877c21.51331 22.503082 42.673943 45.347464 64.619567 67.418231 41.820692 42.070979 96.201243 43.379297 136.486082 3.833943 41.559028-40.79679 40.921934-94.164816-2.650767-137.293827-22.195911-21.968377-45.836661-42.503293-66.872151-67.133814 56.257704-16.712349 107.236627-7.542742 152.879884 24.255091 72.355712 50.421465 99.375338 135.530441 69.852842 218.443716-5.620082 15.779461-0.944265 23.697634 9.067217 33.470205 54.084757 52.799192 108.089878 105.678021 161.594425 159.068801 30.694294 30.637411 29.078805 67.293088-2.957938 95.006691-25.790943 22.321055-57.95283 21.490557-84.130581-4.038723-54.130264-52.776439-107.862344-105.973815-160.980084-159.751402-12.332326-12.491599-21.991131-15.711201-40.182449-9.613298-71.252174 23.913791-136.213042 9.317504-190.525333-42.344019-51.001676-48.521559-66.405707-109.034143-53.970991-176.714038C283.930869 423.542582 286.513377 422.006729 289.107261 420.470877zM770.602673 737.448056c-18.020668 2.12744-30.182344 11.444944-31.820586 30.557774-1.490346 17.383574 14.653169 33.174412 32.378044 33.208542 17.986538 0.03413 32.901371-15.13099 31.866093-33.401945C801.911308 748.164893 789.977166 739.063546 770.602673 737.448056z" fill="#272636"></path></g></g></svg>