<?xml version="1.0" standalone="no"?><!DOCTYPE svg PUBLIC "-//W3C//DTD SVG 1.1//EN" "http://www.w3.org/Graphics/SVG/1.1/DTD/svg11.dtd"><svg width="64" height="64" viewBox="0 0 64 64" version="1.1" xmlns="http://www.w3.org/2000/svg" xmlns:xlink="http://www.w3.org/1999/xlink"><defs><style type="text/css"><![CDATA[
@font-face { font-family: ifont; src: url(http://at.alicdn.com/t/font_1442373896_4754455.eot?#iefix) format(embedded-opentype), url(http://at.alicdn.com/t/font_1442373896_4754455.woff) format(woff), url(http://at.alicdn.com/t/font_1442373896_4754455.ttf) format(truetype), url(http://at.alicdn.com/t/font_1442373896_4754455.svg#ifont) format(svg); }

]]></style></defs><g class="transform-group"><g transform="scale(0.0625, 0.0625)"><path d="M823.692215 346.176876l-49.526931 0c-10.130509 0-18.419107 8.288598-18.419107 18.419107 0 10.130509 8.288598 18.419107 18.419107 18.419107l49.526931 0c21.079644 0 38.27081 17.395823 38.27081 38.884781l0 347.916458L687.697812 595.551114c-7.162986-7.162986-18.82842-7.162986-26.093734 0-7.162986 7.162986-7.162986 18.82842 0 26.093734l200.25662 200.25662 0 1.125612c0 21.488958-17.191166 38.884781-38.27081 38.884781L369.865894 861.911862l-132.003597-132.003597 125.966224-125.966224c7.162986-7.162986 7.162986-18.82842 0-26.093734-7.162986-7.162986-18.82842-7.162986-26.093734 0L185.879484 729.908264l132.003597 132.003597L200.307785 861.911862c-21.079644 0-38.27081-17.498151-38.27081-38.884781l0-401.127211c0-21.488958 17.191166-38.884781 38.27081-38.884781l54.336365 0c10.130509 0 18.419107-8.288598 18.419107-18.419107 0-10.130509-8.288598-18.419107-18.419107-18.419107l-54.336365 0c-41.44299 0-75.109024 33.973019-75.109024 75.722994l0 401.127211c0 41.749975 33.666034 75.722994 75.109024 75.722994l161.781153 0c0.102328 0 0.102328 0 0.204657 0s0.102328 0 0.204657 0l461.193964 0c41.44299 0 75.109024-33.973019 75.109024-75.722994l0-401.127211C898.801239 380.149895 865.135205 346.176876 823.692215 346.176876zM499.720596 670.148496l12.381733 11.051464 12.279404-11.153792c7.572299-6.856001 185.521335-170.990707 185.521335-346.893175 0-109.082043-88.821025-197.903068-197.903068-197.903068-109.082043 0-197.903068 88.718697-197.903068 197.903068C314.096932 502.329969 492.148296 663.292495 499.720596 670.148496zM512 161.98581c88.821025 0 161.064855 72.243829 161.064855 161.064855 0 134.254822-121.566104 267.793345-161.167183 307.701409-39.703408-39.396423-160.962526-170.990707-160.962526-307.701409C350.935145 234.229639 423.178975 161.98581 512 161.98581zM558.968722 327.143799c0-25.889078-21.079644-46.866394-46.866394-46.866394-25.889078 0-46.866394 21.079644-46.866394 46.866394 0 25.889078 21.079644 46.968722 46.866394 46.968722C537.889078 374.112521 558.968722 353.032877 558.968722 327.143799zM501.97182 327.143799c0-5.525732 4.502448-10.02818 10.02818-10.02818 5.525732 0 10.02818 4.502448 10.02818 10.02818 0 5.525732-4.502448 10.130509-10.02818 10.130509C506.474268 337.274308 501.97182 332.669531 501.97182 327.143799z" fill="#272636"></path></g></g></svg>