<?xml version="1.0" standalone="no"?><!DOCTYPE svg PUBLIC "-//W3C//DTD SVG 1.1//EN" "http://www.w3.org/Graphics/SVG/1.1/DTD/svg11.dtd"><svg width="205.6640625" height="200" viewBox="0 0 205.6640625 200" version="1.1" xmlns="http://www.w3.org/2000/svg" xmlns:xlink="http://www.w3.org/1999/xlink"><defs><style type="text/css"><![CDATA[
@font-face { font-family: ifont; src: url(http://at.alicdn.com/t/font_1442373896_4754455.eot?#iefix) format(embedded-opentype), url(http://at.alicdn.com/t/font_1442373896_4754455.woff) format(woff), url(http://at.alicdn.com/t/font_1442373896_4754455.ttf) format(truetype), url(http://at.alicdn.com/t/font_1442373896_4754455.svg#ifont) format(svg); }

]]></style></defs><g class="transform-group"><g transform="scale(0.1953125, 0.1953125)"><path d="M89.822215 270.147918c7.615216 7.422955 12.913546 23.728936 11.116321 34.211352l-17.26868 100.672435c-2.230509 13.004103 1.709453 20.960653 5.406999 25.346438 4.455445 5.283004 10.914307 8.193393 18.189584 8.192 5.253747 0 10.774988-1.504653 16.41465-4.469377l90.411537-47.531712c4.480522-2.354503 11.035516-3.705905 17.984784-3.705905 6.950661 0 13.505654 1.351401 17.986177 3.705905l90.405965 47.530318c5.639663 2.964724 11.16369 4.469377 16.416044 4.469377 7.273883 0 13.732746-2.910389 18.18819-8.194786 3.697546-4.384392 7.636114-12.340941 5.406999-25.342259l-17.265894-100.672435c-1.797224-10.481023 3.501105-26.788397 11.116321-34.211352l73.142857-71.295478c9.129622-8.899744 12.581965-19.499189 9.469562-29.07742-3.112403-9.578231-12.133355-16.123472-24.752936-17.958313l-101.079249-14.689872c-10.524212-1.529731-24.396278-11.60812-29.102498-21.144555l-45.202286-91.591576c-5.643842-11.43397-14.656435-17.99175-24.727859-17.99175-10.071423 0-19.084016 6.55778-24.726465 17.99175l-45.206465 91.592969c-4.704827 9.536435-18.576893 19.614824-29.101105 21.144555L31.959946 151.816707c-12.618188 1.833448-21.63914 8.380082-24.751543 17.959706-3.112403 9.578231 0.33994 20.176283 9.469562 29.07742L89.822215 270.147918zM432.190694 730.849001l-101.082035-14.688479c-10.522819-1.526944-24.393491-11.605333-29.101105-21.143162l-45.202286-91.591576c-5.643842-11.43397-14.656435-17.99175-24.727859-17.99175-10.071423 0-19.084016 6.55778-24.726465 17.99175l-45.206465 91.594362c-4.70622 9.535042-18.575499 19.613431-29.101105 21.140376l-101.084822 14.691265c-12.618188 1.833448-21.63914 8.378688-24.751543 17.95692-3.11101 9.581018 0.341333 20.176283 9.470955 29.07742l73.14425 71.298264c7.615216 7.422955 12.913546 23.727543 11.116321 34.209959l-17.26868 100.669649c-2.230509 13.004103 1.709453 20.960653 5.405605 25.343652 4.455445 5.284397 10.914307 8.193393 18.18819 8.193393 5.253747 0 10.776381-1.501867 16.416044-4.467984l90.411537-47.531712c4.479129-2.35311 11.035516-3.705905 17.984784-3.705905 6.950661 0 13.505654 1.352795 17.986177 3.708691l90.405965 47.528925c5.639663 2.966117 11.162297 4.467984 16.416044 4.467984 7.27249 0 13.731352-2.908996 18.186797-8.193393 3.697546-4.382999 7.637507-12.339548 5.408392-25.343652l-17.264501-100.666863c-1.797224-10.48381 3.501105-26.791184 11.116321-34.212746l73.142857-71.298264c9.131015-8.901137 12.581965-19.496403 9.470955-29.074634C453.831227 739.230476 444.810275 732.686629 432.190694 730.849001zM563.54412 224.963744l437.652027 0c22.18806 0 40.174237-17.98757 40.174237-40.174237s-17.986177-40.174237-40.174237-40.174237L563.54412 144.615271c-22.18806 0-40.174237 17.98757-40.174237 40.174237S541.357453 224.963744 563.54412 224.963744zM1001.196147 315.978536 563.54412 315.978536c-22.18806 0-40.174237 17.98757-40.174237 40.174237s17.98757 40.174237 40.174237 40.174237l437.652027 0c22.18806 0 40.174237-17.98757 40.174237-40.174237S1023.384207 315.978536 1001.196147 315.978536zM1001.196147 704.680577 563.54412 704.680577c-22.18806 0-40.174237 17.986177-40.174237 40.174237s17.98757 40.174237 40.174237 40.174237l437.652027 0c22.18806 0 40.174237-17.986177 40.174237-40.174237S1023.384207 704.680577 1001.196147 704.680577zM1001.196147 876.043842 563.54412 876.043842c-22.18806 0-40.174237 17.986177-40.174237 40.174237s17.98757 40.174237 40.174237 40.174237l437.652027 0c22.18806 0 40.174237-17.986177 40.174237-40.174237S1023.384207 876.043842 1001.196147 876.043842z" fill="#272636"></path></g></g></svg>