<?xml version="1.0" standalone="no"?><!DOCTYPE svg PUBLIC "-//W3C//DTD SVG 1.1//EN" "http://www.w3.org/Graphics/SVG/1.1/DTD/svg11.dtd"><svg width="200" height="200" viewBox="0 0 200 200" version="1.1" xmlns="http://www.w3.org/2000/svg" xmlns:xlink="http://www.w3.org/1999/xlink"><defs><style type="text/css"><![CDATA[
@font-face { font-family: ifont; src: url(http://at.alicdn.com/t/font_1442373896_4754455.eot?#iefix) format(embedded-opentype), url(http://at.alicdn.com/t/font_1442373896_4754455.woff) format(woff), url(http://at.alicdn.com/t/font_1442373896_4754455.ttf) format(truetype), url(http://at.alicdn.com/t/font_1442373896_4754455.svg#ifont) format(svg); }

]]></style></defs><g class="transform-group"><g transform="scale(0.1953125, 0.1953125)"><path d="M722.1248 570.5728M976.9984 565.1456 555.52 985.2928c-51.712 51.6096-135.5776 51.6096-187.2896 0L40.448 658.5344c-51.712-51.6096-51.712-135.168 0-186.7776L461.824 51.6096c32.1536-33.6896 38.4-48.4352 72.192-48.4352l428.1344 0c33.792 0 61.1328 27.3408 61.1328 60.928l0 426.8032C1023.2832 524.5952 1004.1344 538.112 976.9984 565.1456zM87.2448 611.84l327.7824 326.7584c25.9072 25.8048 67.7888 25.8048 93.696 0l46.2848-46.1824L134.5536 471.3472l-47.3088 47.2064C61.3376 544.256 61.3376 586.0352 87.2448 611.84zM962.1504 94.6176c0-16.7936-13.7216-30.5152-30.6176-30.5152L564.5312 64.1024c-16.896 0-40.8576 19.1488-55.9104 34.2016L181.3504 424.6528l420.9664 420.6592 327.7824-326.7584c16.4864-16.4864 31.9488-41.1648 31.9488-57.9584L962.048 94.6176zM625.7664 401.8176c-51.712-51.6096-51.712-135.168 0-186.7776 51.712-51.6096 135.5776-51.6096 187.2896 0 51.712 51.6096 51.712 135.168 0 186.7776C761.344 453.3248 677.4784 453.3248 625.7664 401.8176zM766.2592 261.7344c-25.9072-25.8048-67.7888-25.8048-93.696 0-25.9072 25.8048-25.9072 67.584 0 93.3888 25.9072 25.8048 67.7888 25.8048 93.696 0C792.064 329.3184 792.064 287.5392 766.2592 261.7344z" fill="#272636"></path></g></g></svg>