<?xml version="1.0" standalone="no"?><!DOCTYPE svg PUBLIC "-//W3C//DTD SVG 1.1//EN" "http://www.w3.org/Graphics/SVG/1.1/DTD/svg11.dtd"><svg width="214.453125" height="200" viewBox="0 0 214.453125 200" version="1.1" xmlns="http://www.w3.org/2000/svg" xmlns:xlink="http://www.w3.org/1999/xlink"><defs><style type="text/css"><![CDATA[
@font-face { font-family: ifont; src: url(http://at.alicdn.com/t/font_1442373896_4754455.eot?#iefix) format(embedded-opentype), url(http://at.alicdn.com/t/font_1442373896_4754455.woff) format(woff), url(http://at.alicdn.com/t/font_1442373896_4754455.ttf) format(truetype), url(http://at.alicdn.com/t/font_1442373896_4754455.svg#ifont) format(svg); }

]]></style></defs><g class="transform-group"><g transform="scale(0.1953125, 0.1953125)"><path d="M272.050167 118.609623 916.711307 118.609623C978.164319 118.609623 1020.51595 147.136626 1042.685301 192.882911 1055.122564 218.547112 1059.082196 243.610871 1058.929203 263.04521L1057.549809 272.4473 951.899019 645.526665C946.395692 664.960301 926.180286 676.253044 906.746646 670.749714 887.313013 665.246384 876.020268 645.030979 881.523602 625.597343L987.174393 252.517978C987.174393 252.517978 985.793243 262.045215 985.792527 262.12607 985.861603 253.280423 983.533188 238.541964 976.8643 224.780779 966.533654 203.463572 949.147187 191.75248 916.711307 191.75248L265.823594 191.75248 317.397849 243.326735C331.67988 257.608766 331.67988 280.764514 317.397849 295.046546 303.115818 309.328576 279.96007 309.328576 265.678038 295.046546L154.785736 184.154244C140.503706 169.872212 140.503706 146.716464 154.785736 132.434433L266.851405 20.368765C281.133436 6.086734 304.289184 6.086734 318.571215 20.368765 332.853247 34.650796 332.853247 57.806544 318.571215 72.088575L272.050167 118.609623ZM206.505547 181.786919C206.911917 182.170306 207.327069 182.544485 207.750668 182.909123L206.505547 184.154244 206.505547 181.786919ZM825.092688 885.072918 180.431548 885.072918C118.978539 885.072918 76.626911 856.545916 54.457557 810.799631 42.020291 785.135426 38.060662 760.071665 38.213653 740.63733L39.593044 731.235239 145.243838 358.155875C150.747168 338.722239 170.962573 327.429496 190.396209 332.932826 209.829844 338.436157 221.122588 358.651562 215.619257 378.085197L109.968464 751.164562C109.968464 751.164562 111.349611 741.637325 111.350332 741.556473 111.281257 750.402114 113.609672 765.140575 120.278554 778.90176 130.6092 800.218968 147.995668 811.930061 180.431548 811.930061L831.319267 811.930061 779.745009 760.355803C765.462974 746.073776 765.462974 722.918026 779.745009 708.635994 794.027037 694.353963 817.182786 694.353963 831.464821 708.635994L942.357124 819.528294C956.639152 833.81033 956.639152 856.966078 942.357124 871.248106L830.291449 983.313774C816.009421 997.595809 792.853672 997.595809 778.571644 983.313774 764.289609 969.031746 764.289609 945.875997 778.571644 931.593962L825.092688 885.072918ZM890.637312 821.895621C890.230938 821.512236 889.815786 821.138052 889.392187 820.77342L890.637312 819.528294 890.637312 821.895621ZM786.285714 432.761905C806.483558 432.761905 822.857143 416.388318 822.857143 396.190476 822.857143 375.992634 806.483558 359.619048 786.285714 359.619048L416.507936 359.619048C396.310094 359.619048 379.936508 375.992634 379.936508 396.190476 379.936508 416.388318 396.310094 432.761905 416.507936 432.761905L786.285714 432.761905ZM680.634921 644.063492C700.832763 644.063492 717.20635 627.689906 717.20635 607.492064 717.20635 587.294221 700.832763 570.920635 680.634921 570.920635L310.857143 570.920635C290.659301 570.920635 274.285714 587.294221 274.285714 607.492064 274.285714 627.689906 290.659301 644.063492 310.857143 644.063492L680.634921 644.063492Z" fill="#272636"></path></g></g></svg>