<?xml version="1.0" standalone="no"?><!DOCTYPE svg PUBLIC "-//W3C//DTD SVG 1.1//EN" "http://www.w3.org/Graphics/SVG/1.1/DTD/svg11.dtd"><svg t="1490081530870" class="icon" style="" viewBox="0 0 1024 1024" version="1.1" xmlns="http://www.w3.org/2000/svg" p-id="999" xmlns:xlink="http://www.w3.org/1999/xlink" width="1000" height="1000"><defs><style type="text/css"></style></defs><path d="M927.693 288.146c-17.864 0-32.345 14.48-32.345 32.341v533.185c0 22.588-18.374 40.964-40.962 40.964H169.61c-22.585 0-40.96-18.376-40.96-40.964V196.024c0-22.586 18.375-40.958 40.96-40.958h126.103a32.36 32.36 0 0 0 9.66-1.47H553.27c17.863 0 32.344-14.48 32.344-32.343 0-17.861-14.48-32.342-32.344-32.342H169.61c-58.253 0-105.646 47.391-105.646 105.646v660.586c0 58.256 47.393 105.647 105.646 105.647H504.1c3.363 0 6.61-0.515 9.66-1.467h340.627c58.255 0 105.649-47.393 105.649-105.65V320.487c0-17.863-14.48-32.341-32.342-32.341z" fill="" p-id="1000"></path><path d="M709.823 228.673L577.366 356.95 437.152 231.407c-12.622-11.297-31.816-10.947-44.013 0.806L186.985 430.8c-12.864 12.39-13.244 32.866-0.854 45.73 6.35 6.59 14.817 9.904 23.298 9.904 8.074 0 16.16-3.007 22.435-9.048l184.52-177.75 140.272 125.595c12.641 11.319 31.883 10.942 44.073-0.863l154.84-149.948 47.306 47.303a21.557 21.557 0 0 0 21.075 5.513 21.562 21.562 0 0 0 15.126-15.68L884.468 124.3a21.559 21.559 0 0 0-26.033-26.035l-187.26 45.396a21.565 21.565 0 0 0-10.165 36.202l48.813 48.81zM233.822 691.071l-0.946 80.38c-0.206 17.86 14.1 32.51 31.962 32.72 0.13 0 0.257 0.004 0.387 0.004 17.685 0 32.125-14.232 32.334-31.962l0.946-80.381c0.209-17.86-14.1-32.51-31.962-32.72-17.892-0.254-32.51 14.098-32.721 31.96zM442.31 506.858c-17.8 0-32.267 14.396-32.34 32.21l-0.943 232.633c-0.073 17.862 14.348 32.398 32.21 32.473h0.136c17.8 0 32.267-14.395 32.34-32.21l0.944-232.635c0.073-17.86-14.349-32.398-32.213-32.472h-0.134zM591.707 574.918c-17.774 0-32.236 14.358-32.34 32.158l-0.943 164.569c-0.104 17.86 14.295 32.426 32.156 32.525h0.192c17.773 0 32.235-14.354 32.336-32.156l0.946-164.568c0.103-17.862-14.295-32.427-32.157-32.53-0.064 0.002-0.128 0.002-0.19 0.002zM758.105 410.401c-17.816 0-32.289 14.42-32.34 32.25l-0.945 329.086c-0.054 17.863 14.387 32.385 32.249 32.437h0.095c17.817 0 32.289-14.42 32.34-32.25l0.947-329.09c0.053-17.861-14.39-32.383-32.251-32.436a0.965 0.965 0 0 1-0.095 0.003z" fill="" p-id="1001"></path></svg>