<?xml version="1.0" standalone="no"?><!DOCTYPE svg PUBLIC "-//W3C//DTD SVG 1.1//EN" "http://www.w3.org/Graphics/SVG/1.1/DTD/svg11.dtd"><svg t="1493366182964" class="icon" style="" viewBox="0 0 1024 1024" version="1.1" xmlns="http://www.w3.org/2000/svg" p-id="7201" xmlns:xlink="http://www.w3.org/1999/xlink" width="1100" height="1100"><defs><style type="text/css"></style></defs><path d="M14.3104 2.02752a12.25216 12.25216 0 0 0-12.2368 12.27264V1024L1023.96928 2.04288 14.3104 2.02752z m146.7392 393.03168l49.00352-49.00352-34.06336-34.06848-42.24 42.24-16.56832-16.56832 42.24-42.24-35.24096-35.23584 18.2016-18.2016 35.24096 35.23584 42.4704-42.4704 16.56832 16.56832-42.4704 42.4704 34.06336 34.06848 48.07168-48.07168 16.5632 16.56832-115.27168 115.2768-16.56832-16.56832z m134.64064 130.90816l-22.4-14.93504c15.872-18.66752 31.34976-37.10464 46.4384-55.30112l-38.272-38.272-42.4704 42.4704-16.56832-16.56832 42.4704-42.4704-28.6976-28.6976 18.2016-18.2016 28.6976 28.6976 44.09856-44.10368 16.56832 16.56832-44.09856 44.10368 36.62848 36.6336a5442.048 5442.048 0 0 0 48.5376-59.73504c4.1984 4.82304 9.64608 10.73152 16.32768 17.73568a13221.8624 13221.8624 0 0 0-105.46176 132.07552z m-1.62816-243.3792l8.40192-23.33696a910.3104 910.3104 0 0 1 84.70016 29.16352l-10.03008 26.368a921.07264 921.07264 0 0 0-83.072-32.19456z m143.96928 113.6384c-6.528-4.97664-14.78144-10.73152-24.7296-17.26976 15.40096-12.60032 27.06432-22.86592 35.00032-30.80192 11.20256-11.20256 10.34752-23.25504-2.57024-36.16768L327.65952 193.91488l-64.8704 64.8704-17.26976-17.26976 64.8704-64.8704-51.33312-51.33312 18.43712-18.43712 51.33824 51.33824 27.29984-27.29984 17.26464 17.26976-27.29984 27.29984 121.8048 121.8048c23.33696 23.33696 23.9616 46.04928 1.8688 68.13696-5.60128 5.59616-16.1792 15.86688-31.73888 30.80192z" p-id="7202"></path></svg>