<?xml version="1.0" standalone="no"?><!DOCTYPE svg PUBLIC "-//W3C//DTD SVG 1.1//EN" "http://www.w3.org/Graphics/SVG/1.1/DTD/svg11.dtd"><svg t="1508314992860" class="icon" style="" viewBox="0 0 1024 1024" version="1.1" xmlns="http://www.w3.org/2000/svg" p-id="4255" xmlns:xlink="http://www.w3.org/1999/xlink" width="1024" height="1024"><defs><style type="text/css"></style></defs><path d="M877.516788 243.067968 877.516788 243.067968 880.065843 244.341984 877.516788 243.067968Z" p-id="4256"></path><path d="M887.808178 747.546667c-48.077995-127.419018-185.092555-221.320665-349.160261-230.223429l-0.001023-93.964068c85.990466-12.331863 152.146189-86.076424 152.146189-175.484733 0-98.036827-79.465866-177.50167-177.50167-177.50167-98.026594 0-177.502693 79.464843-177.502693 177.50167 0 89.407286 66.165955 163.151847 152.145166 175.484733l0 93.964068c-164.15571 8.902764-301.231669 102.892415-349.247242 230.40967-42.716894 13.545504-73.892941 53.043077-73.892941 100.253308 0 58.341756 47.297212 105.638969 105.639992 105.638969 58.34278 0 105.637945-47.297212 105.637945-105.637945 0-54.405097-41.292452-98.69379-94.16259-104.488773 48.176233-104.190991 165.851329-179.904393 306.023812-188.163497l0 190.416817c-46.022173 11.402701-80.282464 52.683896-80.282464 102.234429 0 58.341756 47.297212 105.638969 105.639992 105.638969 58.341756 0 105.637945-47.297212 105.637945-105.638969 0-49.551556-34.260292-90.832751-80.281441-102.234429l0-190.416817c140.196019 8.257058 257.883395 83.997066 306.034045 188.212616-52.621475 6.030343-93.654007 50.195216-93.654007 104.438631 0 58.341756 47.298236 105.638969 105.638969 105.638969 58.34278 0 105.638969-47.297212 105.638969-105.638969C962.306916 800.564161 930.84639 760.90593 887.808178 747.546667L887.808178 747.546667z" p-id="4257"></path></svg>