<?xml version="1.0" standalone="no"?><!DOCTYPE svg PUBLIC "-//W3C//DTD SVG 1.1//EN" "http://www.w3.org/Graphics/SVG/1.1/DTD/svg11.dtd"><svg t="1508399413626" class="icon" style="" viewBox="0 0 1723 1024" version="1.1" xmlns="http://www.w3.org/2000/svg" p-id="5707" xmlns:xlink="http://www.w3.org/1999/xlink" width="1723" height="1024"><defs><style type="text/css"></style></defs><path d="M692.691312 630.070055h78.739305c22.018996 0 39.369653-17.350657 39.369653-39.369652s-17.350657-39.369653-39.369653-39.369653H692.691312c-22.018996 0-39.369653 17.350657-39.369653 39.369653 0 22.096801 17.350657 39.369653 39.369653 39.369652z m0 157.556417h78.739305c22.018996 0 39.369653-17.350657 39.369653-39.369653 0-22.096801-17.350657-39.369653-39.369653-39.369652H692.691312c-22.018996 0-39.369653 17.350657-39.369653 39.369652s17.350657 39.369653 39.369653 39.369653z m433.221791-708.887166H968.434492v-39.369653c0-22.018996-17.350657-39.369653-39.369652-39.369653s-39.369653 17.350657-39.369653 39.369653v39.369653h-315.112834v-39.369653c0-22.018996-17.350657-39.369653-39.369652-39.369653s-39.369653 17.350657-39.369653 39.369653v39.369653h-157.556417c-86.675481 0-157.556417 70.880936-157.556416 157.556416v630.147861c0 86.675481 70.880936 157.556417 157.556416 157.556417H1125.913103c86.675481 0 157.556417-70.880936 157.556417-157.556417v-630.225666c0-86.597675-70.880936-157.478611-157.556417-157.478611zM1204.730215 866.365778c0 43.33774-35.479371 78.739306-78.739306 78.739305H338.286631c-43.33774 0-78.739306-35.479371-78.739305-78.739305V393.774333H1204.730215v472.591445z m0-551.33075H259.46952V236.217917C259.46952 192.880176 294.948891 157.478611 338.208826 157.478611H495.765242v39.369653c0 22.018996 17.350657 39.369653 39.369653 39.369653S574.582353 218.945065 574.582353 196.848264V157.478611h315.035028v39.369653c0 22.018996 17.350657 39.369653 39.369653 39.369653s39.369653-17.350657 39.369653-39.369653V157.478611h157.556416c43.33774 0 78.739306 35.479371 78.739306 78.739306l0.077806 78.817111zM456.39559 787.626472H535.212701c22.018996 0 39.369653-17.350657 39.369652-39.369653 0-22.096801-17.350657-39.369653-39.369652-39.369652H456.39559c-22.018996 0-39.369653 17.350657-39.369653 39.369652s17.350657 39.369653 39.369653 39.369653z m0-157.556417H535.212701c22.018996 0 39.369653-17.350657 39.369652-39.369652s-17.350657-39.369653-39.369652-39.369653H456.39559c-22.018996 0-39.369653 17.350657-39.369653 39.369653 0 22.096801 17.350657 39.369653 39.369653 39.369652z" p-id="5708"></path><path d="M983.139758 787.782083c-4.746144 0-9.336677-1.867335-12.760125-5.290783l-72.04802-72.359243c-7.002507-7.080313-7.002507-18.517742 0-25.598055 7.002507-7.080313 18.439936-7.080313 25.442443 0l59.287896 59.521313 113.362815-113.751843c7.002507-7.080313 18.439936-7.080313 25.442443 0 7.002507 7.080313 7.002507 18.517742 0 25.598055l-126.045133 126.589773c-3.267837 3.345642-7.858369 5.290783-12.682319 5.290783z" p-id="5709"></path></svg>