<?xml version="1.0" standalone="no"?><!DOCTYPE svg PUBLIC "-//W3C//DTD SVG 1.1//EN" "http://www.w3.org/Graphics/SVG/1.1/DTD/svg11.dtd"><svg t="1508405598384" class="icon" style="" viewBox="0 0 1024 1024" version="1.1" xmlns="http://www.w3.org/2000/svg" p-id="13244" xmlns:xlink="http://www.w3.org/1999/xlink" width="1024" height="1024"><defs><style type="text/css"></style></defs><path d="M512 0C228.430769 0 0 228.430769 0 512s228.430769 512 512 512 512-228.430769 512-512S795.569231 0 512 0zM512 945.230769C271.753846 945.230769 78.769231 752.246154 78.769231 512 78.769231 271.753846 271.753846 78.769231 512 78.769231s433.230769 192.984615 433.230769 433.230769C945.230769 752.246154 752.246154 945.230769 512 945.230769z" p-id="13245"></path><path d="M504.123077 740.430769m-39.384615 0a1 1 0 1 0 78.769231 0 1 1 0 1 0-78.769231 0Z" p-id="13246"></path><path d="M500.184615 661.661538c-19.692308 0-35.446154-15.753846-35.446154-35.446154 0-15.753846 11.815385-63.015385 15.753846-74.830769 3.938462-11.815385 11.815385-23.630769 19.692308-31.507692 7.876923-11.815385 19.692308-19.692308 35.446154-35.446154 7.876923-7.876923 39.384615-35.446154 43.323077-43.323077 3.938462-3.938462 7.876923-11.815385 11.815385-15.753846 3.938462-7.876923 15.753846-47.261538-19.692308-82.707692-23.630769-19.692308-47.261538-23.630769-59.076923-23.630769-47.261538 0-78.769231 27.569231-86.646154 86.646154 0 0-11.815385 31.507692-39.384615 35.446154-19.692308 0-35.446154-11.815385-39.384615-31.507692 0 0-7.876923-27.569231 11.815385-66.953846 15.753846-31.507692 39.384615-63.015385 86.646154-78.769231 51.2-15.753846 98.461538-11.815385 129.969231 0 86.646154 35.446154 98.461538 110.276923 98.461538 129.969231 0 11.815385-3.938462 47.261538-15.753846 63.015385-39.384615 55.138462-86.646154 78.769231-106.338462 114.215385-3.938462 7.876923-11.815385 51.2-11.815385 55.138462C535.630769 649.846154 519.876923 661.661538 500.184615 661.661538z" p-id="13247"></path></svg>