<?xml version="1.0" standalone="no"?><!DOCTYPE svg PUBLIC "-//W3C//DTD SVG 1.1//EN" "http://www.w3.org/Graphics/SVG/1.1/DTD/svg11.dtd"><svg t="1508402298652" class="icon" style="" viewBox="0 0 1024 1024" version="1.1" xmlns="http://www.w3.org/2000/svg" p-id="9449" xmlns:xlink="http://www.w3.org/1999/xlink" width="1024" height="1024"><defs><style type="text/css"></style></defs><path d="M491.653 7.833h42.027c0.331 1.125 1.256 1.678 3.002 1.443 95.69 5.121 159.783 30.769 220.646 69.225 59.08 37.333 109.734 85.35 144.095 144.223 34.988 59.949 59.096 126.702 58.537 226.428-0.242 43.193-8.04 82.526-21.013 121.147-9.249 27.535-27.83 86.701-57.039 86.532-9.602-0.055-22.896-5.353-25.517-18.748-2.511-12.843 8.181-30.886 13.51-41.825 6.521-13.382 14.25-28.251 18.013-38.939 32.262-91.685 19.025-206.477-18.013-281.232-49.131-99.161-132.116-171.699-253.665-203.35-61.407-15.992-139.57-18.09-204.136-1.443-59.013 15.215-113.329 44.29-153.101 76.438-59.675 48.236-109.514 118.833-130.587 210.563-5.519 24.028-1.999 80.205-30.018 83.65-39.938 4.91-30.74-40.333-25.518-72.111 15.664-95.321 57.453-167.399 109.572-222.101 76.515-80.31 168.146-126.399 309.205-139.9z" fill="" p-id="9450"></path><path d="M512.666 276.085c15.427-15.531 26.625-32.259 42.028-51.919 10.645-13.587 28.472-44.804 48.03-46.151 15.812-1.089 30.691 9.867 28.52 28.845-2.045 17.853-22.722 35.215-36.024 51.92-15.014 18.85-29.571 35.32-39.024 49.035 33.492 4.894 84.754-10.529 99.063 10.094 9.487 13.674 3.066 33.636-10.505 38.941-26.148 10.218-74.762-4.767-103.568 1.441-3.497 17.793-0.505 41.822-1.502 62.016 29.232 6.323 78.54-8.925 105.07 1.442 13.595 5.313 19.953 25.325 10.505 38.941-16.01 23.077-77.938 3.473-114.073 10.096-11.539 36.828 19.188 133.436-24.017 137.01-51.546 4.266-22.332-93.686-30.02-135.567-32.038-9.301-74.69 8.072-103.568-2.885-20.412-7.745-19.66-40.134 0-47.594 28-10.624 74.544 5.099 103.568-1.442v-62.016c-34.734-6.682-74.598 9.55-103.568-1.441-20.447-7.76-19.593-40.162 0-47.594 25.559-9.696 60.55 4.362 87.057-1.442-9.514-15.527-23.844-31.647-39.025-50.479-10.847-13.454-36.481-35.513-36.024-54.805 0.356-14.977 17.172-30.313 37.525-23.075 15.821 5.625 27.374 31.145 40.528 47.592 15.209 19.025 30.709 34.726 39.024 49.037z" fill="" p-id="9451"></path><path d="M1018.499 789.516v201.909c-5.896 10.682-14.483 18.771-27.019 23.074H427.109C281.941 982.438 163.801 913.434 83.383 812.59c-33.867-42.467-63.236-85.922-75.05-145.663v-50.478c6.003-58.528 50.548-102.434 117.077-76.438 38.9 15.199 74.071 49.802 100.566 80.765 27.071 31.637 48.736 67.782 85.557 95.187 82.877 61.685 173.847 63.056 292.692 74.994-7.688-19.107-25.252-34.892-33.02-56.246-16.108-44.271 3.871-88.523 42.026-99.514 46.6-13.419 94.367 13.017 124.584 30.287 62.839 35.917 134.464 69.938 208.638 90.858 29.063 8.199 63.151 9.634 72.046 33.174z m-357.235 4.324c-1.411 57.934-73.065 49.279-127.584 43.267-93.316-10.287-176.407-29.181-235.654-67.782-66.036-43.025-94.528-101.464-148.599-149.993-18.59-16.684-45.565-40.809-72.049-34.612-18.743 20.175-22.467 66.76-13.508 95.186 11.227 35.624 38.067 71.957 61.542 100.956 48.454 59.859 109.577 107.978 184.621 142.779 39.653 18.389 86.459 36.481 126.083 40.382 42.813 4.214 87.774 0 132.087 0h399.264V814.032c-98.098-25.181-179.569-58.126-255.169-102.396-25.034-14.66-53.569-34.536-88.558-25.96-20.458 50.876 38.66 61.643 37.524 108.164z" fill="" p-id="9452"></path><path d="M1018.499 991.426v23.074H991.48c12.536-4.303 21.124-12.394 27.019-23.074z" fill="#FFFFFF" p-id="9453"></path></svg>