<?xml version="1.0" standalone="no"?><!DOCTYPE svg PUBLIC "-//W3C//DTD SVG 1.1//EN" "http://www.w3.org/Graphics/SVG/1.1/DTD/svg11.dtd"><svg width="16" height="16" viewBox="0 0 16 16" version="1.1" xmlns="http://www.w3.org/2000/svg" xmlns:xlink="http://www.w3.org/1999/xlink"><defs><style type="text/css"><![CDATA[
@font-face { font-family: ifont; src: url(http://at.alicdn.com/t/font_1442373896_4754455.eot?#iefix) format(embedded-opentype), url(http://at.alicdn.com/t/font_1442373896_4754455.woff) format(woff), url(http://at.alicdn.com/t/font_1442373896_4754455.ttf) format(truetype), url(http://at.alicdn.com/t/font_1442373896_4754455.svg#ifont) format(svg); }

]]></style></defs><g class="transform-group"><g transform="scale(0.015625, 0.015625)"><path d="M512.89088 980.5824c-68.61824 0-130.7392-62.24384-171.60192-171.33568-26.89536 4.47488-52.35712 6.73792-75.8528 6.73792-77.11232 0-131.80928-24.05888-158.1824-69.5808-34.28864-59.38688-11.45856-144.29696 62.53568-234.28608-5.95456-7.18848-11.53024-14.26432-16.64512-21.14048C91.8528 408.41216 75.52 332.82048 107.13088 278.11328c26.30656-45.53216 81.00864-69.59616 158.19264-69.59616 23.49568 0 48.96256 2.26816 75.8528 6.75328C382.08 106.17856 444.20096 43.9296 512.77312 43.9296c68.61312 0 130.72896 62.24384 171.5968 171.3408 26.90048-4.48 52.36736-6.75328 75.8528-6.75328 77.11232 0 131.80928 24.05888 158.1824 69.5808 31.63136 54.71744 15.29344 130.304-45.98272 212.85888-4.84864 6.60992-10.3168 13.568-16.5376 21.05856 74.01472 90.00448 96.89088 174.94528 62.65856 234.35776-26.30656 45.54752-81.00864 69.61152-158.19776 69.61152-23.5008 0-48.96256-2.26304-75.85792-6.73792C643.57888 918.32832 581.46304 980.5824 512.89088 980.5824zM399.872 796.48768c30.91456 78.82752 72.57088 125.3376 113.01888 125.3376 40.45312 0 82.11456-46.5152 113.024-125.36832-36.46976-9.70752-74.37824-22.90688-113.00864-39.33696C474.37824 773.60128 436.45952 786.80064 399.872 796.48768zM702.5664 752.53248c20.59264 3.11808 39.93088 4.70016 57.66144 4.70016 38.33856 0 88.07424-6.96832 107.27424-40.17664 20.27008-35.16416 0.78848-94.52544-52.11648-160.60416-26.64448 26.74688-56.9344 52.87936-90.30656 77.91616C720.14848 675.82976 712.59648 715.46368 702.5664 752.53248zM210.2784 556.36992c-52.89984 66.17088-72.37632 125.5168-52.11648 160.57856 19.2 33.19808 68.93568 40.17152 107.27424 40.17152 18.1248 0 37.46304-1.5616 57.68192-4.65408-10.0352-37.13024-17.59744-76.78464-22.53312-118.20544C266.94656 609.02912 236.65152 582.90176 210.2784 556.36992zM586.11712 722.36032c19.84512 6.98368 39.34208 12.97408 58.32192 17.92 5.29408-19.08736 9.91232-39.02464 13.80352-59.63776-11.99616 7.62368-23.81824 14.79168-35.69664 21.62176C610.63168 709.16096 598.4512 715.8784 586.11712 722.36032zM367.59552 680.66816c3.93728 20.81792 8.53504 40.75008 13.75232 59.61216 18.99008-4.95104 38.49728-10.94656 58.35264-17.93536-12.26752-6.44096-24.48896-13.14816-36.56192-20.0704C391.43936 695.50592 379.55584 688.28672 367.59552 680.66816zM356.58752 602.48576c24.49408 17.37216 50.05312 33.792 76.07296 48.86016 25.91744 15.02208 52.86912 28.94848 80.22528 41.46176 26.92096-12.31872 53.88288-26.25536 80.24576-41.472 25.64096-14.7968 51.18976-31.21152 76.04736-48.8448 2.86208-29.96736 4.31104-60.26752 4.31104-90.17344 0-29.91616-1.44896-60.22656-4.31104-90.18368-24.6016-17.48992-50.1504-33.89952-76.04224-48.83456-25.9584-15.04768-52.9152-28.9792-80.25088-41.47712-26.92608 12.31872-53.888 26.25024-80.24576 41.472-25.5488 14.68416-51.09248 31.08864-76.05248 48.83456-2.86208 29.952-4.30592 60.25728-4.30592 90.1888C352.28672 542.2336 353.73056 572.53376 356.58752 602.48576zM731.4688 470.66112c0.53248 13.51168 0.82432 27.37152 0.88576 41.472 0 13.82912-0.29184 27.84768-0.86016 41.94816 15.93344-13.6192 30.90944-27.54048 44.78976-41.64608C762.32704 498.26816 747.3408 484.30592 731.4688 470.66112zM249.49248 512.39936c13.8752 14.05952 28.86144 27.9808 44.81536 41.64096-0.53248-13.568-0.83456-27.48928-0.89088-41.66144 0-13.76256 0.28672-27.6992 0.84992-41.70752C278.272 484.40832 263.30112 498.3552 249.49248 512.39936zM265.5488 267.27424c-38.33856 0-88.07424 6.96832-107.27936 40.17664-18.63168 32.16384-2.82624 87.64416 42.27072 148.4288 3.1232 4.21888 6.272 8.30976 9.43104 12.25216 26.7776-26.92096 57.25696-53.23776 90.84416-78.44352 4.95616-41.58464 12.4672-81.06496 22.38976-117.71392C302.592 268.8512 283.25888 267.27424 265.5488 267.27424zM725.2992 389.80096c33.54112 25.16992 63.96928 51.44064 90.71616 78.31552 3.35872-4.21376 6.4512-8.22784 9.32352-12.11392 45.05088-60.72832 60.84608-116.21888 42.26048-148.46464-19.18976-33.18784-68.92032-40.15616-107.25888-40.15616-18.1248 0-37.4016 1.5616-57.48224 4.64384C712.85248 309.0944 720.37888 348.60544 725.2992 389.80096zM586.06592 302.17216c12.31872 6.4768 24.51456 13.18912 36.48512 20.08064 11.904 6.88128 23.80288 14.08 35.60448 21.54496-3.8912-20.70016-8.4736-40.61184-13.72672-59.56608C625.4336 289.1776 605.9264 295.17824 586.06592 302.17216zM381.34272 284.23168c-5.248 18.95424-9.83552 38.87104-13.72672 59.56608 11.81184-7.47008 23.7056-14.6688 35.58912-21.53472 11.93984-6.912 24.12544-13.62944 36.45952-20.11136C419.82464 295.168 400.32256 289.1776 381.34272 284.23168zM399.86176 228.05504c36.46976 9.70752 74.38336 22.90176 113.01376 39.33696 38.53312-16.48128 76.45184-29.68576 113.02912-39.36256-30.90944-78.83776-72.56576-125.34272-113.01376-125.34272S430.77632 149.20704 399.86176 228.05504zM512.89088 598.9376c-47.82592 0-86.73792-38.912-86.73792-86.73792 0-47.82592 38.912-86.73792 86.73792-86.73792 47.82592 0 86.72768 38.912 86.72768 86.73792C599.61856 560.03072 560.7168 598.9376 512.89088 598.9376zM512.89088 484.3264c-15.43168 0-27.98592 12.55424-27.98592 27.98592 0 15.43168 12.55424 27.9808 27.98592 27.9808 15.43168 0 27.9808-12.54912 27.9808-27.9808C540.87168 496.88064 528.32256 484.3264 512.89088 484.3264z" fill="#272636"></path></g></g></svg>