<?xml version="1.0" standalone="no"?><!DOCTYPE svg PUBLIC "-//W3C//DTD SVG 1.1//EN" "http://www.w3.org/Graphics/SVG/1.1/DTD/svg11.dtd"><svg width="16" height="16" viewBox="0 0 16 16" version="1.1" xmlns="http://www.w3.org/2000/svg" xmlns:xlink="http://www.w3.org/1999/xlink"><defs><style type="text/css"><![CDATA[
@font-face { font-family: ifont; src: url(http://at.alicdn.com/t/font_1442373896_4754455.eot?#iefix) format(embedded-opentype), url(http://at.alicdn.com/t/font_1442373896_4754455.woff) format(woff), url(http://at.alicdn.com/t/font_1442373896_4754455.ttf) format(truetype), url(http://at.alicdn.com/t/font_1442373896_4754455.svg#ifont) format(svg); }

]]></style></defs><g class="transform-group"><g transform="scale(0.015625, 0.015625)"><path d="M481.299279 425.061952c0 36.258809-22.193465 57.618279-57.610092 57.618279L140.668275 482.680231c-36.81651 0-56.602136-21.35947-56.602136-57.618279L84.066139 143.055137c0-34.955116 20.464077-57.618279 57.619302-57.618279L424.706353 85.436858c36.434817 0 56.593949 20.62883 56.593949 57.618279L481.300302 425.061952 481.299279 425.061952zM880.266923 85.428671l-284.039101 0c-36.780695 0-57.619302 22.671349-57.619302 56.592926l0 284.064684c0 37.947264 20.160155 56.601112 56.602136 56.601112l284.039101 0c39.520085 0 57.610092-20.010753 57.610092-55.583946L936.859849 142.021597C936.858826 107.421568 915.379629 85.428671 880.266923 85.428671zM890.455983 437.068404 584.228533 437.068404 584.228533 130.807185l306.22745 0L890.455983 437.068404zM880.266923 540.707832l-284.039101 0c-36.780695 0-57.619302 22.670326-57.619302 56.592926l0 284.064684c0 37.947264 20.160155 56.602136 56.602136 56.602136l284.039101 0c39.520085 0 57.610092-20.010753 57.610092-55.583946L936.859849 597.300758C936.858826 562.699706 915.379629 540.707832 880.266923 540.707832zM890.455983 892.347564 584.228533 892.347564 584.228533 586.086345l306.22745 0L890.455983 892.347564zM425.21596 540.707832l-284.039101 0c-36.780695 0-57.618279 22.670326-57.618279 56.592926l0 284.064684c0 37.947264 20.160155 56.602136 56.602136 56.602136l284.039101 0c39.520085 0 57.609069-20.010753 57.609069-55.583946L481.808886 597.300758C481.807862 562.699706 460.329688 540.707832 425.21596 540.707832zM435.405019 892.347564 129.17757 892.347564 129.17757 586.086345l306.22745 0L435.405019 892.347564z" fill="#272636"></path></g></g></svg>