<?xml version="1.0" standalone="no"?><!DOCTYPE svg PUBLIC "-//W3C//DTD SVG 1.1//EN" "http://www.w3.org/Graphics/SVG/1.1/DTD/svg11.dtd"><svg width="16" height="16" viewBox="0 0 16 16" version="1.1" xmlns="http://www.w3.org/2000/svg" xmlns:xlink="http://www.w3.org/1999/xlink"><defs><style type="text/css"><![CDATA[
@font-face { font-family: ifont; src: url(http://at.alicdn.com/t/font_1442373896_4754455.eot?#iefix) format(embedded-opentype), url(http://at.alicdn.com/t/font_1442373896_4754455.woff) format(woff), url(http://at.alicdn.com/t/font_1442373896_4754455.ttf) format(truetype), url(http://at.alicdn.com/t/font_1442373896_4754455.svg#ifont) format(svg); }

]]></style></defs><g class="transform-group"><g transform="scale(0.015625, 0.015625)"><path d="M753.534207 193.725166c28.276132 20.090571 53.358395 42.850947 75.330702 68.25964 21.974354 25.431206 40.795773 52.895721 56.510307 82.397638 15.71351 29.500894 27.620166 60.731176 35.761924 93.690846 8.184738 32.958646 12.256641 66.399269 12.256641 100.277868 0 58.389852-11.117654 113.145943-33.441993 164.3133-22.280335 51.16838-52.395424 95.726202-90.38927 133.718491-37.994869 37.9708-82.554517 68.107167-133.72397 90.385567-51.126472 22.279423-105.928811 33.441647-164.277052 33.441647-57.779259 0-112.231612-11.161201-163.401066-33.441647-51.169453-22.278399-95.905116-52.414767-134.161963-90.385567-38.30085-37.992289-68.459943-82.550111-90.433274-133.718491-21.973331-51.167357-32.959996-105.924471-32.959996-164.3133 0-33.265638 3.93989-65.896826 11.774644-97.91403 7.878757-32.018228 18.996411-62.460564 33.441993-91.348498 14.444559-28.866445 32.347011-55.851029 53.664376-80.975243 21.360345-25.102724 45.216637-47.709605 71.567851-67.800175 13.831573-10.045797 28.714125-13.809517 44.73464-11.293207 16.020515 2.51631 29.02113 10.351766 39.088828 23.548322 10.023695 13.175067 13.788593 27.925003 11.292647 44.251853-2.494923 16.32685-10.37368 29.501918-23.549287 39.546691-39.526821 28.866445-69.816903 64.342424-90.871267 106.405425-21.01036 42.063001-31.516052 87.256296-31.516052 135.578862 0 41.428551 7.834753 80.515778 23.505283 117.238145 15.714534 36.724413 37.205868 68.741617 64.520053 96.054683 27.313162 27.312042 59.311211 48.957015 96.036105 64.955384 36.724894 16.019859 75.812699 24.007787 117.265462 24.007787 41.408759 0 80.496564-7.987928 117.222481-24.007787 36.724894-15.998369 68.72192-37.642319 96.036105-64.955384 27.313162-27.313066 48.980511-59.33027 64.958046-96.054683 16.020515-36.72339 24.030261-75.809593 24.030261-117.238145 0-48.957015-11.292647-95.244224-33.878963-138.883117-22.63032-43.617403-54.321365-79.552847-95.116115-107.806331-13.832597-9.410324-22.149347-22.279423-24.950251-38.60525-2.844908-16.32685 0.480974-31.383778 9.891683-45.214784 9.410709-13.175067 22.280335-21.185508 38.607855-23.986297C724.68807 181.009564 739.746637 184.313819 753.534207 193.725166L753.534207 193.725166zM511.561495 541.194926c-16.326496 0-30.290081-5.820566-41.933736-17.419741-11.599651-11.620665-17.421479-25.583678-17.421479-41.910529L452.206281 124.043131c0-16.304338 5.821827-30.442336 17.421479-42.369993 11.642632-11.927657 25.606217-17.880229 41.933736-17.880229 16.940505 0 31.210071 5.952572 42.809722 17.880229 11.642632 11.927657 17.420455 26.065655 17.420455 42.369993l0 357.821525c0 16.32685-5.777824 30.289863-17.420455 41.910529C542.771567 535.37436 528.502 541.194926 511.561495 541.194926L511.561495 541.194926z" fill="#272636"></path></g></g></svg>