<?xml version="1.0" encoding="utf-8"?>
<!DOCTYPE svg PUBLIC "-//W3C//DTD SVG 1.1//EN" "http://www.w3.org/Graphics/SVG/1.1/DTD/svg11.dtd">
<svg style="width:308px;height:308px;" version="1.1" id="图形" xmlns="http://www.w3.org/2000/svg" xmlns:xlink="http://www.w3.org/1999/xlink" x="0px" y="0px" width="1024px" height="1024px" viewBox="0 0 1024 1024" enable-background="new 0 0 1024 1024" xml:space="preserve">
  <path class="svgpath" data-index="path_0" fill="#272636" d="M915.8154 182.7912l-74.8605-74.8605c-56.9242-56.9242-151.7988-58.1827-207.2474-2.7341l-19.796 19.8216-61.0253 60.9987c-11.2374 11.2374-11.2374 29.4461 0 40.6835 5.632 5.6054 12.9874 8.4214 20.3418 8.4214 7.383 0 14.7374-2.816 20.3418-8.4214l61.0263-61.0253 19.7939-19.796c32.7844-32.7823 91.6224-31.5525 125.8803 2.7341l74.8595 74.8605c34.26 34.2313 35.4632 93.015 2.6798 125.825l-183.0502 183.0492-71.4148 71.4158c-34.8877 34.8867-102.8577 38.0324-134.6836 6.1788l-34.2589-34.2036c-1.067-1.065-1.8043-2.5416-2.7607-3.6628l-0.4659 0.4372-20.3141-20.3151c-11.2374-11.264-29.4461-11.264-40.6835 0-11.2364 11.2384-11.2364 29.4472 0 40.6579l23.5407 23.5397 34.2589 34.2589 3.2 3.2266c1.6128 1.5852 3.6086 2.4596 5.4682 3.6076 53.206 44.3197 140.588 42.1335 196.9674-4.5937l0.9841 0.9861c1.9958-2.0244 3.7181-4.267 5.632-6.3437 1.1756-1.1213 2.6245-1.9139 3.8011-3.1171l254.465-254.465C973.9428 334.508 972.713 239.6877 915.8154 182.7912zM430.8623 796.2481l-61.0263 61.0243-20.3418 20.3428c-33.6568 33.6302-88.3948 33.6302-122.0516 0l-81.3681-81.367c-33.6292-33.6302-33.6568-88.3681 0-122.0516l264.446-264.446c33.6568-33.6302 88.3661-33.6302 122.0239 0l40.6835 40.6845 20.3418 20.3418c5.632 5.6054 12.9874 8.4214 20.3407 8.4214 7.3564 0 14.7108-2.816 20.3428-8.4214 11.2087-11.2374 11.2087-29.4461 0-40.6845l-20.3428-20.3418-40.6825-40.6569c-56.0763-56.0773-147.3147-56.0773-203.392 0L105.3911 633.5396c-56.0763 56.0783-56.0763 147.3147 0 203.4186l81.3681 81.3404c56.0763 56.105 147.3423 56.0783 203.4186 0l20.3428-20.3684 61.0243-60.972c11.2384-11.265 11.2384-29.4738 0-40.7101C460.3095 785.0107 442.0997 785.0107 430.8623 796.2481z" />

</svg>
