<?xml version="1.0" encoding="utf-8"?>
<!DOCTYPE svg PUBLIC "-//W3C//DTD SVG 1.1//EN" "http://www.w3.org/Graphics/SVG/1.1/DTD/svg11.dtd">
<svg style="width:308px;height:308px;" version="1.1" id="图形" xmlns="http://www.w3.org/2000/svg" xmlns:xlink="http://www.w3.org/1999/xlink" x="0px" y="0px" width="1024px" height="1024px" viewBox="0 0 1024 1024" enable-background="new 0 0 1024 1024" xml:space="preserve">
  <path class="svgpath" data-index="path_0" fill="#272636" d="M878.016 527.36 145.984 527.36c-8.832 0-16-7.168-16-16s7.168-16 16-16l732.032 0c8.832 0 16 7.168 16 16S886.784 527.36 878.016 527.36z" />
<path class="svgpath" data-index="path_1" fill="#272636" d="M878.016 733.76 145.984 733.76c-8.832 0-16-7.168-16-16s7.168-16 16-16l732.032 0c8.832 0 16 7.168 16 16S886.784 733.76 878.016 733.76z" />
<path class="svgpath" data-index="path_2" fill="#272636" d="M512 1004.032c-8.832 0-16-7.168-16-16L496 511.36c0-8.832 7.168-16 16-16s16 7.168 16 16l0 476.608C528 996.8 520.832 1004.032 512 1004.032z" />
<path class="svgpath" data-index="path_3" fill="#272636" d="M512 527.36c-4.48 0-9.024-1.92-12.16-5.568L110.464 66.432c-5.76-6.72-4.992-16.832 1.728-22.592 6.72-5.76 16.832-4.928 22.592 1.728L524.16 500.992C529.92 507.712 529.152 517.76 522.432 523.52 519.36 526.144 515.712 527.36 512 527.36z" />
<path class="svgpath" data-index="path_4" fill="#272636" d="M512 527.36c-3.712 0-7.36-1.28-10.432-3.84C494.848 517.76 494.08 507.712 499.84 500.992l389.312-455.36c5.824-6.656 15.936-7.488 22.592-1.728 6.72 5.76 7.488 15.872 1.792 22.592L524.16 521.792C521.024 525.44 516.48 527.36 512 527.36z" />

</svg>
