<?xml version="1.0" standalone="no"?><!DOCTYPE svg PUBLIC "-//W3C//DTD SVG 1.1//EN" "http://www.w3.org/Graphics/SVG/1.1/DTD/svg11.dtd"><svg width="16" height="16" viewBox="0 0 16 16" version="1.1" xmlns="http://www.w3.org/2000/svg" xmlns:xlink="http://www.w3.org/1999/xlink"><defs><style type="text/css"><![CDATA[
@font-face { font-family: ifont; src: url(http://at.alicdn.com/t/font_1442373896_4754455.eot?#iefix) format(embedded-opentype), url(http://at.alicdn.com/t/font_1442373896_4754455.woff) format(woff), url(http://at.alicdn.com/t/font_1442373896_4754455.ttf) format(truetype), url(http://at.alicdn.com/t/font_1442373896_4754455.svg#ifont) format(svg); }

]]></style></defs><g class="transform-group"><g transform="scale(0.015625, 0.015625)"><path d="M661.28449 661.278885 549.320995 661.278885l0 111.958908 111.963495 0L661.28449 661.278885zM474.677982 512 362.714487 512l0 93.299943 111.963495 0L474.677982 512zM661.28449 512 549.320995 512l0 93.299943 111.963495 0L661.28449 512zM870.286971 64.163345 153.712005 64.163345c-49.458415 0-89.567521 40.090067-89.567521 89.545432l0 716.545606c0 49.474808 40.109106 89.582271 89.567521 89.582271l716.574966 0c49.457392 0 89.566498-40.107463 89.566498-89.582271L959.853469 153.708777C959.854493 104.253412 919.744363 64.163345 870.286971 64.163345zM903.872233 456.021058l0 419.847184c0 15.452947-12.519641 27.990494-27.991641 27.990494l-727.764254 0c-15.470977 0-27.990618-12.537548-27.990618-27.990494L120.12572 456.021058 120.12572 148.133805c0-15.471366 12.519641-27.990494 27.990618-27.990494l727.764254 0c15.470977 0 27.991641 12.519128 27.991641 27.990494L903.872233 456.021058zM474.677982 661.278885 362.714487 661.278885l0 111.958908 111.963495 0L474.677982 661.278885zM780.701029 213.44223 691.151928 213.44223l0 59.696614-179.15244-119.430066L120.126743 456.021058l111.963495 0 0 410.516678 559.817476 0L791.907715 456.021058l111.964519 0-123.171204-93.298919L780.701029 213.44223zM754.588255 829.217758 269.411745 829.217758 269.411745 456.021058l485.176511 0L754.588255 829.217758z" fill="#272636"></path></g></g></svg>