<?xml version="1.0" standalone="no"?><!DOCTYPE svg PUBLIC "-//W3C//DTD SVG 1.1//EN" "http://www.w3.org/Graphics/SVG/1.1/DTD/svg11.dtd"><svg width="18.1875" height="16" viewBox="0 0 18.1875 16" version="1.1" xmlns="http://www.w3.org/2000/svg" xmlns:xlink="http://www.w3.org/1999/xlink"><defs><style type="text/css"><![CDATA[
@font-face { font-family: ifont; src: url(http://at.alicdn.com/t/font_1442373896_4754455.eot?#iefix) format(embedded-opentype), url(http://at.alicdn.com/t/font_1442373896_4754455.woff) format(woff), url(http://at.alicdn.com/t/font_1442373896_4754455.ttf) format(truetype), url(http://at.alicdn.com/t/font_1442373896_4754455.svg#ifont) format(svg); }

]]></style></defs><g class="transform-group"><g transform="scale(0.015625, 0.015625)"><path d="M1117.090909 1024 884.363636 1024C858.656582 1024 837.818182 1003.1616 837.818182 977.454545L837.818182 744.727273C837.818182 719.020218 858.656582 698.181818 884.363636 698.181818L977.454545 698.181818 977.454545 512 605.090909 512 605.090909 698.181818 698.181818 698.181818C723.888873 698.181818 744.727273 719.020218 744.727273 744.727273L744.727273 977.454545C744.727273 1003.1616 723.888873 1024 698.181818 1024L465.454545 1024C439.747491 1024 418.909091 1003.1616 418.909091 977.454545L418.909091 744.727273C418.909091 719.020218 439.747491 698.181818 465.454545 698.181818L558.545455 698.181818 558.545455 512 186.181818 512 186.181818 698.181818 279.272727 698.181818C304.979782 698.181818 325.818182 719.020218 325.818182 744.727273L325.818182 977.454545C325.818182 1003.1616 304.979782 1024 279.272727 1024L46.545455 1024C20.8384 1024 0 1003.1616 0 977.454545L0 744.727273C0 719.020218 20.8384 698.181818 46.545455 698.181818L139.636364 698.181818 139.636364 511.997673C139.636364 486.292945 160.474764 465.454545 186.181818 465.454545L558.545455 465.454545 558.545455 325.818182 465.454545 325.818182C439.747491 325.818182 418.909091 304.979782 418.909091 279.272727L418.909091 46.545455C418.909091 20.8384 439.747491 0 465.454545 0L698.181818 0C723.888873 0 744.727273 20.8384 744.727273 46.545455L744.727273 279.272727C744.727273 304.979782 723.888873 325.818182 698.181818 325.818182L605.090909 325.818182 605.090909 465.454545 977.454545 465.454545C1003.159273 465.454545 1024 486.292945 1024 511.997673L1024 698.181818 1117.090909 698.181818C1142.797964 698.181818 1163.636364 719.020218 1163.636364 744.727273L1163.636364 977.454545C1163.636364 1003.1616 1142.797964 1024 1117.090909 1024ZM46.545455 744.727273 46.545455 977.454545 279.272727 977.454545 279.272727 744.727273 46.545455 744.727273ZM698.181818 279.272727 698.181818 46.545455 465.454545 46.545455 465.454545 279.272727 698.181818 279.272727ZM465.454545 744.727273 465.454545 977.454545 698.181818 977.454545 698.181818 744.727273 465.454545 744.727273ZM1117.090909 744.727273 884.363636 744.727273 884.363636 977.454545 1117.090909 977.454545 1117.090909 744.727273Z" fill="#272636"></path></g></g></svg>