<?xml version="1.0" encoding="utf-8"?>
<!DOCTYPE svg PUBLIC "-//W3C//DTD SVG 1.1//EN" "http://www.w3.org/Graphics/SVG/1.1/DTD/svg11.dtd">
<svg style="width:308px;height:308px;" version="1.1" id="图形" xmlns="http://www.w3.org/2000/svg" xmlns:xlink="http://www.w3.org/1999/xlink" x="0px" y="0px" width="1024px" height="1024px" viewBox="0 0 1024 1024" enable-background="new 0 0 1024 1024" xml:space="preserve">
  <path class="svgpath" data-index="path_0" fill="#272636" d="M498.853592 0C305.188627 0 148.210526 171.812029 148.210526 383.713037 148.210526 595.624152 498.853592 1023.233886 498.853592 1023.233886 498.853592 1023.233886 849.502566 595.624152 849.502566 383.713037 849.502566 171.812029 692.481932 0 498.853592 0L498.853592 0ZM498.853592 543.594819C402.035286 543.594819 323.535012 457.698924 323.535012 351.737667 323.535012 245.787812 402.040013 159.881798 498.853592 159.881798 595.663627 159.881798 674.17808 245.787812 674.17808 351.737667 674.17808 457.698924 595.663627 543.594819 498.853592 543.594819L498.853592 543.594819Z" />

</svg>
