<?xml version="1.0" encoding="utf-8"?>
<!DOCTYPE svg PUBLIC "-//W3C//DTD SVG 1.1//EN" "http://www.w3.org/Graphics/SVG/1.1/DTD/svg11.dtd">
<svg style="width:308px;height:308px;" version="1.1" id="图形" xmlns="http://www.w3.org/2000/svg" xmlns:xlink="http://www.w3.org/1999/xlink" x="0px" y="0px" width="1024px" height="1024px" viewBox="0 0 1024 1024" enable-background="new 0 0 1024 1024" xml:space="preserve">
  <path class="svgpath" data-index="path_0" fill="#272636" d="M399.892 89.446c75.22 0 150.434 0 225.65 0 0 147.56 0 295.12 0 444.022 68.358 0 134.874 0 201.386 0 0 0.81 0 1.618 0 2.428-2.8 3.222-6 6.188-8.35 9.712-99.352 148.87-198.622 297.792-297.924 446.694-2.334 3.5-4.87 6.866-7.902 11.124-3.328-4.63-5.758-7.808-7.974-11.13-99.3-148.902-198.574-297.824-297.922-446.692-2.352-3.524-5.548-6.484-8.35-9.708 0-0.81 0-1.618 0-2.428 66.834 0 133.666 0 201.386 0C399.892 384.048 399.892 236.746 399.892 89.446z" />

</svg>
