<?xml version="1.0" encoding="utf-8"?>
<!DOCTYPE svg PUBLIC "-//W3C//DTD SVG 1.1//EN" "http://www.w3.org/Graphics/SVG/1.1/DTD/svg11.dtd">
<svg style="width:308px;height:308px;" version="1.1" id="图形" xmlns="http://www.w3.org/2000/svg" xmlns:xlink="http://www.w3.org/1999/xlink" x="0px" y="0px" width="1024px" height="1024px" viewBox="0 0 1024 1024" enable-background="new 0 0 1024 1024" xml:space="preserve">
  <path class="svgpath" data-index="path_0" fill="#272636" d="M946.8416 855.7312C994.8672 808.1152 1024 745.6 1024 677.0176c0-119.1936-88.2432-220.3904-210.688-256.2304C806.016 229.7344 626.7904 76.8 406.8096 76.8 182.1184 76.8 0 236.2368 0 432.9216c0 90.2912 38.4 172.7232 101.7088 235.52 19.8144 19.6608-3.3792 73.4464-31.872 117.8624 48.1536-14.4384 99.5072-23.8592 144.4864-23.8592 21.0432 0 40.6784 2.0224 57.9328 6.656 42.1376 12.9024 87.3984 19.9168 134.5536 19.9168 9.1392 0 18.2272-0.3328 27.264-0.7936 48.384 93.696 156.16 158.976 281.344 158.976 35.7888 0 70.1184-5.3504 102.0672-15.1552 13.0816-3.4304 28.0064-4.9664 43.9808-4.9664 34.0736 0 73.0624 7.0912 109.568 18.048C949.4528 911.4368 931.7888 870.6816 946.8416 855.7312L946.8416 855.7312zM406.8096 723.968c-40.6272 0-80.4352-5.8624-118.2464-17.5104l-1.0496-0.3072-1.0496-0.2816c-21.2736-5.632-45.5168-8.4736-72.1408-8.4736-15.3088 0-30.5664 0.896-45.5424 2.432 3.1744-38.0928-10.2656-63.1552-26.624-79.4368-26.3936-26.1376-46.8992-55.6288-60.9536-87.4752-14.08-32-21.248-65.664-21.248-100.0192 0-75.1104 34.3808-146.5344 96.8448-201.1904 31.8976-27.9296 69.248-49.9456 111.0272-65.3824 43.904-16.2816 90.6752-24.5248 138.9824-24.5248 48.3328 0 95.0784 8.2432 139.008 24.5248 41.7536 15.4624 79.1552 37.4528 111.0016 65.3824 55.7568 48.7424 89.1392 110.9248 95.6416 177.0752l0 0c-12.16-1.28-24.4992-1.92-37.0432-1.92-170.4192 0-308.608 120.9344-308.608 270.1312 0 16.0256 1.5872 31.6672 4.6336 46.9248l0 0C409.8816 723.9424 408.3456 723.968 406.8096 723.968L406.8096 723.968zM906.3936 807.7568c-9.6768 9.5744-22.4512 27.2384-24.7808 54.9376-6.6816-0.4864-13.4144-0.6656-20.1728-0.6656-21.3504 0-40.96 2.3296-58.1888 6.912l-1.024 0.256-1.024 0.3328c-27.4432 8.4224-56.32 12.6464-85.8112 12.6464-35.0464 0-68.9408-5.9136-100.7872-17.6896-30.08-11.1872-56.9344-26.9568-79.8208-46.976-43.904-38.4256-68.0448-88.2688-68.0448-140.416 0-52.0448 24.1408-101.9392 68.0448-140.3648 22.912-20.0448 49.7408-35.8144 79.8208-46.9248 31.8208-11.776 65.7152-17.7408 100.7872-17.7408 35.072 0 68.9664 5.9648 100.8128 17.7408 30.0544 11.1104 56.9344 26.88 79.7952 46.9248 43.8784 38.4256 68.0448 88.32 68.0448 140.3648 0 23.7568-4.9152 46.976-14.6688 69.1456C939.4944 768.5376 925.056 789.2224 906.3936 807.7568L906.3936 807.7568zM228.2752 363.2896c0.3328-37.5552 21.9648-67.8144 48.6144-67.8144 26.8544 0 48.64 30.7456 48.64 68.6336 0 37.8624-21.7856 68.608-48.64 68.608-26.6496 0-48.2816-30.2848-48.6144-67.7632L228.2752 363.2896zM481.2544 363.2896c0.3072-37.5552 21.9648-67.8144 48.6144-67.8144 26.8544 0 48.6144 30.7456 48.6144 68.6336 0 37.8624-21.7856 68.608-48.6144 68.608-26.6496 0-48.3328-30.2848-48.6144-67.7632L481.2544 363.2896zM593.3824 626.816c0.3328-28.8512 16.9216-52.0448 37.4272-52.0448 20.736 0 37.504 23.6544 37.504 52.864s-16.768 52.8896-37.504 52.8896c-20.5056 0-37.0944-23.2192-37.4272-52.0704L593.3824 626.816zM773.9392 626.816c0.3072-28.8512 16.9472-52.0448 37.4272-52.0448 20.736 0 37.504 23.6544 37.504 52.864s-16.768 52.8896-37.504 52.8896c-20.48 0-37.12-23.2192-37.4272-52.0704L773.9392 626.816z" />

</svg>
