<?xml version="1.0" standalone="no"?><!DOCTYPE svg PUBLIC "-//W3C//DTD SVG 1.1//EN" "http://www.w3.org/Graphics/SVG/1.1/DTD/svg11.dtd"><svg width="1024" height="1024" viewBox="0 0 1024 1024" version="1.1" xmlns="http://www.w3.org/2000/svg" xmlns:xlink="http://www.w3.org/1999/xlink"><defs><style type="text/css"><![CDATA[
@font-face { font-family: ifont; src: url("//at.alicdn.com/t/font_1442373896_4754455.eot?#iefix") format("embedded-opentype"), url("//at.alicdn.com/t/font_1442373896_4754455.woff") format("woff"), url("//at.alicdn.com/t/font_1442373896_4754455.ttf") format("truetype"), url("//at.alicdn.com/t/font_1442373896_4754455.svg#ifont") format("svg"); }

]]></style></defs><g class="transform-group"><g transform="scale(1, 1)"><path d="M820.67878 64.707744 203.320197 64.707744c-31.207769 0-56.68707 25.52842-56.68707 56.688093l0 118.860085 730.733747 0L877.366873 121.395838C877.366873 90.236164 851.883479 64.707744 820.67878 64.707744zM271.31787 188.081633c-14.319124 0-25.967418-11.697413-25.967418-26.01449 0-14.414291 11.648294-26.01449 25.967418-26.01449 14.365172 0 26.013467 11.600199 26.013467 26.01449C297.331337 176.384219 285.683043 188.081633 271.31787 188.081633zM353.970312 188.081633c-14.366196 0-26.012444-11.697413-26.012444-26.01449 0-14.414291 11.646248-26.01449 26.012444-26.01449 14.317077 0 26.015513 11.600199 26.015513 26.01449C379.985826 176.384219 368.287389 188.081633 353.970312 188.081633zM438.857655 188.081633c-14.366196 0-26.01449-11.697413-26.01449-26.01449 0-14.414291 11.648294-26.01449 26.01449-26.01449 14.319124 0 25.965371 11.600199 25.965371 26.01449C464.823026 176.384219 453.176778 188.081633 438.857655 188.081633zM521.512143 188.081633c-14.416338 0-26.01449-11.697413-26.01449-26.01449 0-14.414291 11.598152-26.01449 26.01449-26.01449 14.3181 0 25.966395 11.600199 25.966395 26.01449C547.478538 176.384219 535.830243 188.081633 521.512143 188.081633zM730.696396 213.901695c-31.694863 0-57.369615-25.674753-57.369615-57.366545 0-31.69384 25.674753-57.416687 57.369615-57.416687 31.738865 0 57.462736 25.723871 57.462736 57.416687C788.159132 188.226942 762.434238 213.901695 730.696396 213.901695zM146.632103 902.605186c0 31.157627 25.480324 56.68707 56.68707 56.68707l617.358583 0c31.204699 0 56.68707-25.529443 56.68707-56.68707l0-621.433388L146.632103 281.171798 146.632103 902.605186zM801.652448 696.381357c-41.498136 0-82.994226 0-124.443243 0 10.339486-57.122999 11.021008-114.200972 0-171.324994 41.450041 0 82.946131 0 124.443243 0C814.563502 580.432579 815.436382 637.414361 801.652448 696.381357zM514.716366 338.731748c109.687168 0 204.185402 64.745606 247.332085 158.173462l-84.84027 0-2.812045 0c-35.625382-49.747008-93.866854-82.071204-159.679769-82.071204-108.329241 0-196.175985 87.847767-196.175985 196.177008 0 108.37529 87.846744 196.271152 196.175985 196.271152 66.103534 0 124.539434-32.660864 160.16584-82.748632l2.325975 0 85.180008 0C719.337697 818.301128 624.648105 883.433544 514.716366 883.433544c-150.35745 0-272.27722-121.965819-272.27722-272.42253C242.439146 460.650495 364.358917 338.731748 514.716366 338.731748z" fill="#272636"></path></g></g></svg>