<?xml version="1.0" standalone="no"?><!DOCTYPE svg PUBLIC "-//W3C//DTD SVG 1.1//EN" "http://www.w3.org/Graphics/SVG/1.1/DTD/svg11.dtd"><svg width="1024" height="1024" viewBox="0 0 1024 1024" version="1.1" xmlns="http://www.w3.org/2000/svg" xmlns:xlink="http://www.w3.org/1999/xlink"><defs><style type="text/css"><![CDATA[
@font-face { font-family: ifont; src: url("//at.alicdn.com/t/font_1442373896_4754455.eot?#iefix") format("embedded-opentype"), url("//at.alicdn.com/t/font_1442373896_4754455.woff") format("woff"), url("//at.alicdn.com/t/font_1442373896_4754455.ttf") format("truetype"), url("//at.alicdn.com/t/font_1442373896_4754455.svg#ifont") format("svg"); }

]]></style></defs><g class="transform-group"><g transform="scale(1, 1)"><path d="M911.912156 625.254414 911.912156 442.148096c27.231201-3.012613 48.41364-26.090215 48.41364-54.123688 0-28.034497-21.182438-51.110051-48.41364-54.121642l0-30.602995c0-36.764322-29.803793-66.568115-66.570161-66.568115-36.765345 0-66.570161 29.803793-66.570161 66.568115l0 30.260188-36.309974 0 0-30.260188c0-36.764322-29.803793-66.568115-66.570161-66.568115-36.765345 0-66.568115 29.803793-66.568115 66.568115l0 30.260188-36.310997 0 0-30.260188c0-36.764322-29.80277-66.568115-66.568115-66.568115-36.765345 0-66.570161 29.803793-66.570161 66.568115l0 30.260188-36.309974 0 0-30.260188c0-36.764322-29.803793-66.568115-66.570161-66.568115-36.765345 0-66.570161 29.803793-66.570161 66.568115l0 30.260188-36.309974 0 0-30.260188c0-36.764322-29.803793-66.568115-66.570161-66.568115-36.764322 0-66.568115 29.803793-66.568115 66.568115l0 33.371038c-21.152762 7.478322-36.310997 27.640524-36.310997 51.353598 0 23.712051 15.159258 43.8763 36.310997 51.354622l0 189.712783c-21.370727 9.339716-36.310997 30.65416-36.310997 55.468312 0 24.814152 14.941294 46.12655 36.310997 55.466266l0 23.205515c0 36.765345 29.803793 66.568115 66.568115 66.568115 36.765345 0 66.570161-29.80277 66.570161-66.568115l0-18.156522 36.309974 0 0 18.156522c0 36.765345 29.803793 66.568115 66.570161 66.568115 36.765345 0 66.570161-29.80277 66.570161-66.568115l0-18.156522 36.309974 0 0 18.156522c0 36.765345 29.803793 66.568115 66.570161 66.568115 36.765345 0 66.568115-29.80277 66.568115-66.568115l0-18.156522 36.310997 0 0 18.156522c0 36.765345 29.80277 66.568115 66.568115 66.568115 36.765345 0 66.570161-29.80277 66.570161-66.568115l0-18.156522 36.309974 0 0 18.156522c0 36.765345 29.803793 66.568115 66.570161 66.568115 36.765345 0 66.570161-29.80277 66.570161-66.568115l0-19.36914c27.623128-5.606695 48.41364-30.024827 48.41364-59.302641C960.325795 655.282311 939.535283 630.862131 911.912156 625.254414zM234.117109 624.041796 234.117109 442.48988l36.309974 0 0 181.551916L234.117109 624.041796zM403.566382 624.041796 403.566382 442.48988l36.309974 0 0 181.551916L403.566382 624.041796zM573.013609 624.041796 573.013609 442.48988l36.310997 0 0 181.551916L573.013609 624.041796zM742.462882 624.041796 742.462882 442.48988l36.309974 0 0 181.551916L742.462882 624.041796z" fill="#272636"></path></g></g></svg>