<?xml version="1.0" standalone="no"?><!DOCTYPE svg PUBLIC "-//W3C//DTD SVG 1.1//EN" "http://www.w3.org/Graphics/SVG/1.1/DTD/svg11.dtd"><svg width="1025" height="1024" viewBox="0 0 1025 1024" version="1.1" xmlns="http://www.w3.org/2000/svg" xmlns:xlink="http://www.w3.org/1999/xlink"><defs><style type="text/css"><![CDATA[
@font-face { font-family: ifont; src: url("//at.alicdn.com/t/font_1442373896_4754455.eot?#iefix") format("embedded-opentype"), url("//at.alicdn.com/t/font_1442373896_4754455.woff") format("woff"), url("//at.alicdn.com/t/font_1442373896_4754455.ttf") format("truetype"), url("//at.alicdn.com/t/font_1442373896_4754455.svg#ifont") format("svg"); }

]]></style></defs><g class="transform-group"><g transform="scale(1, 1)"><path d="M861.441156 938.666676C1050.168934 728.497719 838.424881 534.377719 813.563899 375.661915 766.154914 401.544582 727.103873 455.637085 712.516492 508.154491 695.289761 290.507374 515.175349 261.857646 566.784592 85.333319 441.614086 158.51145 266.480384 276.913298 284.77137 569.696775 282.146209 500.789851 205.292852 517.64764 192.152858 416.699564 51.699659 607.32881 60.681966 778.673766 155.996589 938.666676L319.551203 938.666676C202.100089 716.52131 541.653998 646.990024 469.071849 494.219854 536.119875 533.384415 629.802642 596.771407 620.054071 753.528983 638.572098 717.131483 661.361332 708.262696 669.648326 671.595585 741.208791 768.769105 740.286437 856.577187 696.027644 938.666676L861.441156 938.666676Z" fill="#272636"></path></g></g></svg>