<?xml version="1.0" standalone="no"?><!DOCTYPE svg PUBLIC "-//W3C//DTD SVG 1.1//EN" "http://www.w3.org/Graphics/SVG/1.1/DTD/svg11.dtd"><svg t="1480904142916" class="icon" style="" viewBox="0 0 1024 1024" version="1.1" xmlns="http://www.w3.org/2000/svg" p-id="4056" xmlns:xlink="http://www.w3.org/1999/xlink" width="1024" height="1024"><defs><style type="text/css"></style></defs><path d="M180.224 950.784c-11.264 0-22.528-11.264-22.528-22.528V247.808c0-5.632 0-78.848 50.688-107.008 39.424-16.896 84.48-5.632 146.432 39.424 11.264 5.632-16.896-11.264-22.528 0-5.632 5.632 11.264 45.056 0 33.792-45.056-33.792-84.48-45.056-101.376-33.792-22.528 11.264-28.16 50.688-28.16 67.584V928.256C202.752 939.52 191.488 950.784 180.224 950.784M365.568 506.368c-5.632 0-11.264 0-16.896-5.632-45.056-45.056-73.216-107.008-73.216-174.592 0-140.8 112.64-252.928 252.928-252.928 67.584 0 129.536 28.16 174.592 73.216 5.632 5.632 5.632 11.264 5.632 16.896s0 11.264-5.632 16.896l-50.688 50.688c-11.264 11.264-22.528 11.264-33.792 0s-11.264-22.528 0-33.792l39.424-39.424c-33.792-22.528-78.848-39.424-129.536-39.424-112.64 0-207.872 95.744-207.872 207.872 0 45.056 16.896 90.112 45.056 129.536l197.12-197.12c11.264-11.264 22.528-11.264 33.792 0s11.264 22.528 0 33.792L382.464 500.736C376.832 506.368 371.2 506.368 365.568 506.368" fill="" p-id="4057"></path><path d="M535.04 566.272L535.04 566.272c-8.704 9.216-23.04 9.216-32.256 0.512L437.248 503.808c-9.216-8.704-9.216-23.04-0.512-32.256v0c8.704-9.216 23.04-9.216 32.256-0.512l65.536 63.488C543.232 543.232 543.744 557.568 535.04 566.272z" fill="" p-id="4058"></path><path d="M649.216 681.472L649.216 681.472c-8.704 9.216-23.04 9.216-32.256 0.512l-65.536-63.488c-9.216-8.704-9.216-23.04-0.512-32.256l0 0c8.704-9.216 23.04-9.216 32.256-0.512l65.536 63.488C657.408 657.92 657.92 672.256 649.216 681.472z" fill="" p-id="4059"></path><path d="M649.216 568.832L649.216 568.832c-8.704 9.216-23.04 9.216-32.256 0.512L551.424 505.856c-9.216-8.704-9.216-23.04-0.512-32.256l0 0c8.704-9.216 23.04-9.216 32.256-0.512l65.536 63.488C657.408 545.28 657.92 559.616 649.216 568.832z" fill="" p-id="4060"></path><path d="M648.192 459.776L648.192 459.776c-8.704 9.216-23.04 9.216-32.256 0.512l-65.536-63.488c-9.216-8.704-9.216-23.04-0.512-32.256v0c8.704-9.216 23.04-9.216 32.256-0.512l65.536 63.488C656.896 436.224 656.896 450.56 648.192 459.776z" fill="" p-id="4061"></path><path d="M760.832 575.488L760.832 575.488c-8.704 9.216-23.04 9.216-32.256 0.512L663.04 512.512c-9.216-8.704-9.216-23.04-0.512-32.256v0c8.704-9.216 23.04-9.216 32.256-0.512l65.536 63.488C769.024 551.936 769.536 566.272 760.832 575.488z" fill="" p-id="4062"></path><path d="M766.976 426.496L766.976 426.496c-8.704 9.216-23.04 9.216-32.256 0.512L669.184 363.52c-9.216-8.704-9.216-23.04-0.512-32.256l0 0c8.704-9.216 23.04-9.216 32.256-0.512L766.464 394.24C775.168 402.944 775.68 417.28 766.976 426.496z" fill="" p-id="4063"></path><path d="M797.184 310.784L797.184 310.784c-8.704 9.216-23.04 9.216-32.256 0.512l-65.536-63.488c-9.216-8.704-9.216-23.04-0.512-32.256v0c8.704-9.216 23.04-9.216 32.256-0.512l65.536 63.488C805.376 287.744 805.888 302.08 797.184 310.784z" fill="" p-id="4064"></path><path d="M908.288 421.888L908.288 421.888c-8.704 9.216-23.04 9.216-32.256 0.512l-65.536-63.488c-9.216-8.704-9.216-23.04-0.512-32.256v0c8.704-9.216 23.04-9.216 32.256-0.512l65.536 63.488C916.48 398.336 916.992 413.184 908.288 421.888z" fill="" p-id="4065"></path></svg>