<?xml version="1.0" encoding="utf-8"?>
<!-- Generated by IcoMoon.io -->
<!DOCTYPE svg PUBLIC "-//W3C//DTD SVG 1.1//EN" "http://www.w3.org/Graphics/SVG/1.1/DTD/svg11.dtd">
<svg version="1.1" xmlns="http://www.w3.org/2000/svg" xmlns:xlink="http://www.w3.org/1999/xlink" width="1024" height="1024" viewBox="0 0 1024 1024">
<g id="icomoon-ignore">
</g>
<path d="M196.948 466.704q-4.026-9.563-4.026-26.17 0-10.066 5.537-24.661t12.078-22.647q-0.503-11.071 3.774-26.675t11.324-21.64q0-69.956 46.553-145.195t109.463-105.437q69.956-33.216 163.062-33.216 66.936 0 133.872 27.681 24.66 10.569 45.296 24.159t35.732 28.184 27.681 34.223 21.137 37.244 16.356 42.527 12.834 45.044 11.071 49.322l0.503 2.517q27.681 41.772 27.681 75.491 0 7.046-4.529 20.132t-4.529 19.124q0 0.503 0.755 1.761t1.761 2.517 1.007 1.761q38.753 57.374 60.645 107.953t21.893 104.934q0 21.64-9.814 50.328t-27.932 28.687q-4.529 0-9.814-3.774t-9.563-8.808-9.563-13.085-8.052-13.338-6.794-13.085-4.529-8.808q-0.503-0.503-1.509-0.503l-2.517 2.014q-29.692 77.505-66.433 112.232 10.066 10.066 30.952 19.377t34.727 20.886 17.867 32.714q-1.006 2.014-2.014 8.052t-3.523 9.060q-32.209 48.818-151.99 48.818-26.675 0-55.612-4.529t-49.322-10.066-52.592-15.098q-7.549-2.516-11.576-3.523-7.046-2.014-23.151-2.265t-20.132-0.755q-20.635 22.647-64.167 32.714t-84.802 10.066q-17.615 0-34.727-0.755t-46.804-4.529-50.83-10.316-37.495-20.132-16.356-32.209q0-20.132 5.032-29.946t20.635-24.409q5.537-1.006 20.383-6.543t24.912-6.039q2.014 0 7.046-1.006 1.006-1.006 1.006-2.014l-1.006-1.509q-24.159-5.537-54.354-53.096t-36.739-78.763l-2.517-1.509q-2.014 0-6.039 10.066-9.060 20.635-27.429 37.495t-39.004 18.873h-0.503q-2.014 0-3.020-2.265t-2.516-2.769q-11.576-27.177-11.576-50.328 0-138.401 126.827-234.529z"></path>
</svg>
