<?xml version="1.0" encoding="utf-8"?>
<!-- Generated by IcoMoon.io -->
<!DOCTYPE svg PUBLIC "-//W3C//DTD SVG 1.1//EN" "http://www.w3.org/Graphics/SVG/1.1/DTD/svg11.dtd">
<svg version="1.1" xmlns="http://www.w3.org/2000/svg" xmlns:xlink="http://www.w3.org/1999/xlink" width="731" height="1024" viewBox="0 0 731 1024">
<g id="icomoon-ignore">
</g>
<path d="M481.143 326.857q0 45.714-32.571 78t-77.714 32.286q-34.286 0-63.429-20-35.429 38.286-65.714 83.429-141.143 212-115.429 490.857 0.571 12.571-7.143 22t-19.714 10.571h-2.857q-11.429 0-20-7.714t-9.714-19.143q-8-72-2-141.429t16.857-124 30.857-106.286 39.429-88.857 42.286-71.429q34.857-51.429 75.429-94.286-9.143-20-9.143-44 0-45.714 32.286-78t78-32.286 78 32.286 32.286 78zM698.857 333.143q0 90.286-44.571 166.857t-121.429 121.143-167.143 44.571q-36.571 0-74.857-8-12-2.857-18.571-13.429t-3.714-22.571q2.857-11.429 13.143-18t22.286-4.286q29.143 7.429 61.714 7.429 55.429 0 106.286-21.714t87.429-58.286 58.286-87.429 21.714-106.286-21.714-106.286-58.286-87.429-87.429-58.286-106.286-21.714-106.286 21.714-87.429 58.286-58.286 87.429-21.714 106.286q0 65.143 29.714 124.571 5.714 11.429 2 22.857t-14.571 17.143-22.571 1.714-17.429-14.857q-36.571-70.286-36.571-151.429 0-68 26.571-129.714t71.143-106.286 106.286-70.857 129.143-26.286q90.286 0 167.143 44.571t121.429 121.429 44.571 167.143z"></path>
</svg>
