<?xml version="1.0" encoding="utf-8"?>
<!-- Generated by IcoMoon.io -->
<!DOCTYPE svg PUBLIC "-//W3C//DTD SVG 1.1//EN" "http://www.w3.org/Graphics/SVG/1.1/DTD/svg11.dtd">
<svg version="1.1" xmlns="http://www.w3.org/2000/svg" xmlns:xlink="http://www.w3.org/1999/xlink" width="1024" height="1024" viewBox="0 0 1024 1024">
<g id="icomoon-ignore">
</g>
<path d="M694.857 585.143q76 0 129.429 53.429t53.429 129.429-53.429 129.429-129.429 53.429-129.429-53.429-53.429-129.429q0-6.857 1.143-19.429l-205.714-102.857q-52.571 49.143-124.571 49.143-76 0-129.429-53.429t-53.429-129.429 53.429-129.429 129.429-53.429q72 0 124.571 49.143l205.714-102.857q-1.143-12.571-1.143-19.429 0-76 53.429-129.429t129.429-53.429 129.429 53.429 53.429 129.429-53.429 129.429-129.429 53.429q-72 0-124.571-49.143l-205.714 102.857q1.143 12.571 1.143 19.429t-1.143 19.429l205.714 102.857q52.571-49.143 124.571-49.143z"></path>
</svg>
