<?xml version="1.0" standalone="no"?><!DOCTYPE svg PUBLIC "-//W3C//DTD SVG 1.1//EN" "http://www.w3.org/Graphics/SVG/1.1/DTD/svg11.dtd"><svg t="1506567147505" class="icon" style="" viewBox="0 0 1024 1024" version="1.1" xmlns="http://www.w3.org/2000/svg" p-id="23118" xmlns:xlink="http://www.w3.org/1999/xlink" width="950" height="950"><defs><style type="text/css"></style></defs><path d="M626.588897 368.716262C626.588897 286.92113 557.358652 221.334582 472.797124 221.334582 388.235596 221.334582 319.00535 286.92113 319.00535 368.716262 319.00535 450.511394 388.235596 516.097942 472.797124 516.097942 557.358652 516.097942 626.588897 450.511394 626.588897 368.716262ZM383.00535 368.716262C383.00535 323.064309 422.831173 285.334582 472.797124 285.334582 522.763074 285.334582 562.588897 323.064309 562.588897 368.716262 562.588897 414.368215 522.763074 452.097942 472.797124 452.097942 422.831173 452.097942 383.00535 414.368215 383.00535 368.716262ZM621.801701 71.199756C503.555526 21.518713 374.696654 21.037102 251.882278 102.980444 64.808317 227.798611 57.80606 455.154198 164.946792 594.990433 187.589375 624.54272 226.929359 667.810899 279.221009 721.710746 284.464823 727.115827 289.818368 732.606022 295.274789 738.175251 327.618963 771.188115 362.239025 805.629875 396.854632 839.471258 408.966927 851.312646 420.215631 862.235277 430.314314 871.983898 436.383445 877.84265 440.713291 882.001114 443.061514 884.246342 455.47425 896.114323 475.041891 896.068243 487.398591 884.141926 496.106239 875.737568 511.311456 860.980269 530.851864 841.875507 563.420234 810.033248 595.991476 777.861542 626.411241 747.357338 630.642342 743.112346 630.642342 743.112346 634.869755 738.862093 706.676262 666.628058 752.356205 617.912771 766.100109 596.803174 827.011904 503.247284 850.902714 372.224211 791.647456 239.297665 784.451802 223.155748 765.53296 215.90337 749.391046 223.099023 733.249126 230.294677 725.996749 249.213516 733.192403 265.355432 782.450925 375.856432 762.560058 484.942849 712.466054 561.883443 702.333203 577.446733 656.531528 626.291837 589.480799 693.741779 585.290037 697.955181 585.290037 697.955181 581.093729 702.165267 550.886154 732.456691 518.499531 764.446042 486.110035 796.113421 466.675724 815.114445 451.56727 829.777837 442.952822 838.092243L487.289898 837.987827C485.043021 835.839622 480.757055 831.723309 474.764051 825.938042 464.759172 816.279968 453.606765 805.450848 441.594788 793.707533 407.283901 760.164058 372.977469 726.03431 340.990248 693.385779 335.605926 687.890138 330.325452 682.47488 325.155929 677.146374 274.516967 624.950042 236.440764 583.071837 215.749358 556.066157 129.094471 442.967311 134.789874 258.043837 287.403222 156.218236 390.054166 87.728197 496.865832 88.127406 597.011336 130.203466 622.264063 140.81338 640.428066 151.262547 649.596948 157.731224 664.037891 167.919358 684.003699 164.471775 694.191834 150.030833 704.379968 135.58989 700.932384 115.624079 686.491443 105.435945 673.773843 96.463635 651.675765 83.751322 621.801701 71.199756ZM181.093323 744.27801C133.512326 744.27801 81.180726 777.489453 60.639683 820.529715L43.56616 856.304378C11.505311 923.482426 50.14823 985.516659 124.308173 985.516659L845.186733 985.516659C920.278157 985.516659 956.648102 922.915763 920.637152 856.715283L895.229504 810.007322C872.604147 768.414157 819.941146 736.905971 772.456563 736.905971L683.4728 736.905971C665.79969 736.905971 651.472802 751.232858 651.472802 768.905971 651.472802 786.579085 665.79969 800.905971 683.4728 800.905971L772.456563 800.905971C796.423616 800.905971 827.55415 819.531315 839.009094 840.589434L864.416742 887.297395C877.395757 911.15728 871.377152 921.516659 845.186733 921.516659L124.308173 921.516659C97.40715 921.516659 89.452731 908.747277 101.325414 883.870086L118.398938 848.095424C128.345537 827.254022 158.246226 808.27801 181.093323 808.27801L256.374134 808.27801C274.047247 808.27801 288.374134 793.951117 288.374134 776.27801 288.374134 758.604896 274.047247 744.27801 256.374134 744.27801L181.093323 744.27801Z" p-id="23119"></path></svg>