<?xml version="1.0" standalone="no"?><!DOCTYPE svg PUBLIC "-//W3C//DTD SVG 1.1//EN" "http://www.w3.org/Graphics/SVG/1.1/DTD/svg11.dtd"><svg t="1506568960263" class="icon" style="" viewBox="0 0 1024 1024" version="1.1" xmlns="http://www.w3.org/2000/svg" p-id="3697" xmlns:xlink="http://www.w3.org/1999/xlink" width="1000" height="1000"><defs><style type="text/css"></style></defs><path d="M578.241168 849.489454l130.836861 0L709.078029 566.007031 578.241168 566.007031 578.241168 849.489454zM11.276323 914.898163l0 65.429175 1003.091808 0 0-65.429175L11.276323 914.898163zM185.727517 609.620341 54.88861 609.620341l0 239.869113 130.837884 0L185.726493 609.620341zM839.91796 849.489454l130.836861 0L970.75482 391.55686 839.91796 391.55686 839.91796 849.489454zM316.565401 849.489454l130.836861 0L447.402261 456.975802 316.565401 456.975802 316.565401 849.489454zM98.671789 565.165874l247.725034-279.050484 291.982004 133.796262 23.64349-31.887244 206.79688-229.262544 101.935624 101.9346L970.75482 42.634006 752.691339 42.634006l80.455403 80.455403L630.207727 347.874989 334.68713 212.250078l-37.905308 51.129494 0.660032 0.301875L55.570131 535.843034 98.671789 565.165874z" p-id="3698"></path></svg>