<?xml version="1.0" standalone="no"?><!DOCTYPE svg PUBLIC "-//W3C//DTD SVG 1.1//EN" "http://www.w3.org/Graphics/SVG/1.1/DTD/svg11.dtd"><svg width="16" height="16" viewBox="0 0 16 16" version="1.1" xmlns="http://www.w3.org/2000/svg" xmlns:xlink="http://www.w3.org/1999/xlink"><defs><style type="text/css"><![CDATA[
@font-face { font-family: ifont; src: url(http://at.alicdn.com/t/font_1442373896_4754455.eot?#iefix) format(embedded-opentype), url(http://at.alicdn.com/t/font_1442373896_4754455.woff) format(woff), url(http://at.alicdn.com/t/font_1442373896_4754455.ttf) format(truetype), url(http://at.alicdn.com/t/font_1442373896_4754455.svg#ifont) format(svg); }

]]></style></defs><g class="transform-group"><g transform="scale(0.015625, 0.015625)"><path d="M842.970482 960.648137 175.54255 960.648137c-61.441351 0-111.215988-49.882084-111.215988-111.323435L64.326563 181.52224c0-61.493539 50.571792-116.610858 111.959931-116.610858l447.866331 0 0 55.967686L176.286494 120.879068c-30.694069 0-56.339146 29.843702-56.339146 60.643172l0 667.830091c0 30.746258 24.901133 55.672974 55.568596 55.672974l667.454538 0c30.668487 0 61.070914-25.591865 61.070914-56.339146L904.041396 400.818805l56.018851 0 0 447.841771C960.060247 910.181745 904.361691 960.648137 842.970482 960.648137zM915.121755 207.300346l-98.298793-98.354052c-21.739117-21.73707-56.925501-21.73707-78.662571 0L305.574069 541.827329c-8.132214 8.130168-12.19781 18.36323-14.217816 28.860305L170.944835 814.325583c-10.07138 27.399023 11.905144 52.007491 39.277562 39.331797l243.532549-120.463606c10.497075-2.074242 20.701484-6.114255 28.780487-14.244422l432.586322-432.934247C936.83529 264.278035 936.83529 229.039463 915.121755 207.300346zM243.866658 800.37485c-13.68672 6.296403-26.044166-6.830569-19.638269-19.666922l91.018993-150.466943 78.980819 79.007425L243.866658 800.37485zM443.205683 679.589926c-36.860513-36.885072-87.858-87.934748-98.30084-98.405217l313.930899-314.114071 99.018178 97.714486L443.205683 679.589926zM856.152712 266.350231l-58.995649 59.049884-96.892771-99.789751 57.588603-57.640792c10.8143-10.842952 28.488845-10.842952 39.303144 0L856.152712 226.992851C866.994642 237.915621 866.994642 255.507278 856.152712 266.350231z" fill="#272636"></path></g></g></svg>