<?xml version="1.0" standalone="no"?><!DOCTYPE svg PUBLIC "-//W3C//DTD SVG 1.1//EN" "http://www.w3.org/Graphics/SVG/1.1/DTD/svg11.dtd"><svg width="16" height="16" viewBox="0 0 16 16" version="1.1" xmlns="http://www.w3.org/2000/svg" xmlns:xlink="http://www.w3.org/1999/xlink"><defs><style type="text/css"><![CDATA[
@font-face { font-family: ifont; src: url(http://at.alicdn.com/t/font_1442373896_4754455.eot?#iefix) format(embedded-opentype), url(http://at.alicdn.com/t/font_1442373896_4754455.woff) format(woff), url(http://at.alicdn.com/t/font_1442373896_4754455.ttf) format(truetype), url(http://at.alicdn.com/t/font_1442373896_4754455.svg#ifont) format(svg); }

]]></style></defs><g class="transform-group"><g transform="scale(0.015625, 0.015625)"><path d="M999.104 602.112l-183.232-487.424L612.096 114.688l80.128 111.04 63.36-0.128L876.864 601.6l-229.888 0L585.28 712.96 433.6 712.96 376.96 602.752 146.752 602.752l121.6-376.896 63.36-0.064 80.128-111.04L207.616 114.752l-182.592 487.68 0 308.48 974.08-0.128L999.104 602.112zM511.872 114.432 272.448 391.744 451.84 391.744l0 254.208 120.448 0L572.288 391.744l179.008 0L511.872 114.432zM511.872 114.432" fill="#272636"></path></g></g></svg>