<?xml version="1.0" standalone="no"?><!DOCTYPE svg PUBLIC "-//W3C//DTD SVG 1.1//EN" "http://www.w3.org/Graphics/SVG/1.1/DTD/svg11.dtd"><svg width="200" height="200" viewBox="0 0 200 200" version="1.1" xmlns="http://www.w3.org/2000/svg" xmlns:xlink="http://www.w3.org/1999/xlink"><defs><style type="text/css"><![CDATA[
@font-face { font-family: ifont; src: url("http://at.alicdn.com/t/font_1442373896_4754455.eot?#iefix") format("embedded-opentype"), url("http://at.alicdn.com/t/font_1442373896_4754455.woff") format("woff"), url("http://at.alicdn.com/t/font_1442373896_4754455.ttf") format("truetype"), url("http://at.alicdn.com/t/font_1442373896_4754455.svg#ifont") format("svg"); }

]]></style></defs><g class="transform-group"><g transform="scale(0.1953125, 0.1953125)"><path d="M500.092807 419.555541c-52.607148 0-95.252411 41.259706-95.252411 92.155886 0 50.897204 42.645263 92.155886 95.252411 92.155886 52.605102 0 95.250364-41.259706 95.250364-92.155886C595.344195 460.815247 552.697909 419.555541 500.092807 419.555541zM928.726098 419.555541c-52.607148 0-95.250364 41.259706-95.250364 92.155886 0 50.897204 42.643216 92.155886 95.250364 92.155886s95.252411-41.259706 95.252411-92.155886C1023.978509 460.815247 981.332223 419.555541 928.726098 419.555541zM95.271852 419.555541c-52.605102 0-95.250364 41.259706-95.250364 92.155886 0 50.897204 42.645263 92.155886 95.250364 92.155886 52.607148 0 95.252411-41.259706 95.252411-92.155886C190.524263 460.815247 147.879 419.555541 95.271852 419.555541z" fill="#272636"></path></g></g></svg>