<?xml version="1.0" standalone="no"?><!DOCTYPE svg PUBLIC "-//W3C//DTD SVG 1.1//EN" "http://www.w3.org/Graphics/SVG/1.1/DTD/svg11.dtd"><svg width="64" height="64" viewBox="0 0 64 64" version="1.1" xmlns="http://www.w3.org/2000/svg" xmlns:xlink="http://www.w3.org/1999/xlink"><defs><style type="text/css"><![CDATA[
@font-face { font-family: ifont; src: url(http://at.alicdn.com/t/font_1442373896_4754455.eot?#iefix) format(embedded-opentype), url(http://at.alicdn.com/t/font_1442373896_4754455.woff) format(woff), url(http://at.alicdn.com/t/font_1442373896_4754455.ttf) format(truetype), url(http://at.alicdn.com/t/font_1442373896_4754455.svg#ifont) format(svg); }

]]></style></defs><g class="transform-group"><g transform="scale(0.0625, 0.0625)"><path d="M959.473379 0.069585 64.998361 0.069585c-35.620265 0-64.50513 28.875654-64.50513 64.50513l0 679.453826c0 35.629475 28.884864 64.50513 64.50513 64.50513l253.728772 0 5.173836 0 209.835076 215.017098 168.393221-215.017098 12.224416 0 245.119697 0c35.624359 0 64.50513-28.875654 64.50513-64.50513L1023.978509 64.574714C1023.978509 28.945239 995.097738 0.069585 959.473379 0.069585zM442.000738 324.030931l143.343709 0 0 143.347802L442.000738 467.378733 442.000738 324.030931zM186.844453 324.030931l143.347802 0 0 143.347802L186.844453 467.378733 186.844453 324.030931zM840.495614 467.378733 697.152928 467.378733 697.152928 324.030931l143.342686 0L840.495614 467.378733z" fill="#272636"></path></g></g></svg>