<?xml version="1.0" standalone="no"?><!DOCTYPE svg PUBLIC "-//W3C//DTD SVG 1.1//EN" "http://www.w3.org/Graphics/SVG/1.1/DTD/svg11.dtd"><svg width="64" height="64" viewBox="0 0 64 64" version="1.1" xmlns="http://www.w3.org/2000/svg" xmlns:xlink="http://www.w3.org/1999/xlink"><defs><style type="text/css"><![CDATA[
@font-face { font-family: ifont; src: url(http://at.alicdn.com/t/font_1442373896_4754455.eot?#iefix) format(embedded-opentype), url(http://at.alicdn.com/t/font_1442373896_4754455.woff) format(woff), url(http://at.alicdn.com/t/font_1442373896_4754455.ttf) format(truetype), url(http://at.alicdn.com/t/font_1442373896_4754455.svg#ifont) format(svg); }

]]></style></defs><g class="transform-group"><g transform="scale(0.0625, 0.0625)"><path d="M512 64C264.576 64 64 264.576 64 512s200.576 448 448 448 448-200.576 448-448S759.424 64 512 64zM256 384l192 0 0 64L256 448 256 384zM758.976 726.272C693.12 794.432 605.376 832 512 832s-181.12-37.568-246.976-105.728c-12.224-12.736-11.968-32.96 0.768-45.248 12.736-12.224 33.024-11.904 45.248 0.768C364.736 737.344 436.096 768 512 768s147.264-30.656 201.024-86.272c12.288-12.608 32.576-12.992 45.248-0.768C770.944 693.312 771.264 713.536 758.976 726.272zM672 512C619.008 512 576 469.056 576 416S619.008 320 672 320 768 362.944 768 416 724.992 512 672 512z" fill="#272636"></path></g></g></svg>