<?xml version="1.0" encoding="utf-8"?>
<!-- Generator: Adobe Illustrator 16.0.0, SVG Export Plug-In . SVG Version: 6.00 Build 0)  -->
<!DOCTYPE svg PUBLIC "-//W3C//DTD SVG 1.1//EN" "http://www.w3.org/Graphics/SVG/1.1/DTD/svg11.dtd">
<svg version="1.1" id="图层_1" xmlns="http://www.w3.org/2000/svg" xmlns:xlink="http://www.w3.org/1999/xlink" x="0px" y="0px"
	 width="1000px" height="1000px" viewBox="0 0 1000 1000" enable-background="new 0 0 1000 1000" xml:space="preserve">
<path fill="#070001" d="M624.903,1.506c-173.291,0-374.534,39.039-374.534,123.36v274.796c0,0,42.136-4.695,49.954-3.122v-57.845
	c46.832,31.221,184.108,53.174,324.58,53.174s278.016-21.953,324.823-53.174v71.028c0,21.855-93.786,71.163-318.579,75.833h-14.074
	c-23.416,0-68.54-3.244-88.858-4.793c9.391,15.611,43.563,32.917,49.832,50.089c15.586,0,31.221,1.561,46.832,1.561
	c140.471,0,278.016-30.148,324.823-61.345v79.15c0,21.88-93.786,71.175-318.579,75.858h-14.05c-7.83,0-14.074,0-21.854,0
	c0,1.561,0,1.561,0,3.122l-10.952,43.734c12.488,0,26.563,1.536,40.588,1.536c140.472,0,278.016-29.758,324.823-61.003v80.395
	c0,21.831-93.786,69.639-318.579,74.321h-14.074c-20.294,0-12.488-1.536-31.222-1.536l-40.587,64.027
	c321.579,1.537,454.294-56.247,454.294-140.544V124.866C999.559,40.544,798.157,1.506,624.903,1.506z M612.658,51.46
	c206.085,0,324.434,49.979,324.434,71.833c0,21.855-106.104,73.382-312.188,73.382c-206.061,0-312.213-51.527-312.213-73.382
	C312.69,102.987,406.598,51.46,612.658,51.46z M949.727,273.912c0,21.855-93.786,66.431-318.579,71.126h-14.074
	c-224.781-4.695-316.75-51.601-316.75-73.456v-82.749c46.832,31.221,184.108,62.491,324.58,62.491s278.016-31.27,324.823-62.491
	V273.912z"/>
<path fill="#070001" d="M312.69,376.064c-171.717,0-312.213,140.496-312.213,312.188c0,171.742,140.496,312.238,312.213,312.238
	c171.717,0,312.213-140.496,312.213-312.238C624.903,516.56,484.432,376.064,312.69,376.064z M312.69,950.512
	c-145.021,0-262.259-117.202-262.259-262.26c0-145.008,117.238-262.258,262.259-262.258c145.008,0,262.259,117.25,262.259,262.258
	C574.949,833.31,457.698,950.512,312.69,950.512z"/>
<path fill="#070001" d="M268.578,800.601c0,0-80.651,0-83.773,0c-9.366,0-9.366-7.732-9.366-7.732V758.72c0,0,0-7.83,9.366-7.83
	c6.244,0,60.894,0,60.894,0h22.904c4.695,0,7.818-3.122,7.818-9.342c0-4.731,0-6.731,0-6.731c0-6.245-6.245-9.416-7.818-9.416
	c0,0-80.651,0-83.773,0c-9.391,0-9.391-7.78-9.391-7.78v-34.075c0,0,0-7.806,9.366-7.806c6.244,0,60.894,0,60.894,0
	c4.671,0,9.464-6.391,7.891-9.513c-1.549-1.585-59.321-71.857-71.809-85.883c-4.671-7.83,0-10.952,0-10.952l24.879-18.586
	c0,0,6.244-3.122,12.488,4.683c1.549,3.122,65.541,76.517,67.114,78.103c7.817,7.806,10.939,10.903,14.062,10.903
	c4.671,0,9.366-1.537,15.61-10.903c1.573-1.586,67.138-78.103,68.687-81.225c6.244-4.683,9.366-1.561,9.366-1.561l28.099,23.416
	c0,0,4.695,4.707,1.573,7.805c-1.573,1.562-73.382,87.444-73.382,87.444c-1.573,3.122,0,6.269,4.696,6.269h63.491
	c6.244,0,9.367,6.22,9.367,9.342v31.002c0,4.659-1.549,9.317-9.367,9.317c0,0-78.053,0-82.749,0c-9.366,0-9.366,7.83-9.366,7.83
	v8.317c0,0,0,9.342,9.366,9.342s81.175,0,81.175,0c7.793,0,10.916,3.147,10.916,9.343v29.514c0,6.195-3.123,10.879-10.916,10.879
	h-82.749c-6.244,0-7.793,1.609-7.793,9.415v54.734c0,0,1.549,10.928-10.94,10.928h-28.099c-6.244,0-10.939-4.684-10.939-10.928
	c0-3.122,0-53.223,0-56.345C276.396,800.601,268.578,800.601,268.578,800.601z"/>
</svg>
