<?xml version="1.0" encoding="utf-8"?>
<!-- Generator: Adobe Illustrator 16.0.0, SVG Export Plug-In . SVG Version: 6.00 Build 0)  -->
<!DOCTYPE svg PUBLIC "-//W3C//DTD SVG 1.1//EN" "http://www.w3.org/Graphics/SVG/1.1/DTD/svg11.dtd">
<svg version="1.1" id="图层_1" xmlns="http://www.w3.org/2000/svg" xmlns:xlink="http://www.w3.org/1999/xlink" x="0px" y="0px"
	 width="1000px" height="1000px" viewBox="0 0 1000 1000" enable-background="new 0 0 1000 1000" xml:space="preserve">
<g>
	<g transform="scale(0.1953125, 0.1953125)">
		<path fill="#070001" d="M3368.261,2821.193c86.28,0,156.055,43.765,156.055,128.045c0,84.4-69.775,128.04-156.055,128.04h-680.223
			v640.213c0,74.025-43.765,128.04-128.042,128.04c-84.527,0-128.042-55.015-128.042-129.04v-639.213H1771.61
			c-86.152,0-155.925-43.64-155.925-128.04c0-84.28,69.772-128.045,155.925-128.045h660.343v-384.126H1771.61
			c-86.152,0-155.925-43.7-155.925-128.042c0-84.465,69.772-128.042,155.925-128.042h660.343l-640.211-768.253
			c-58.145-69.46-63.082-119.665-2.688-186.437c60.52-66.835,200.752-11.002,258.772,58.395l512.169,640.211l640.211-640.211
			c58.27-69.397,198.445-119.915,258.714-53.08c60.52,66.772,55.39,111.662-2.63,181.122l-768.253,768.253h680.223
			c86.28,0,156.055,43.577,156.055,128.042c0,84.342-69.775,128.042-156.055,128.042h-680.223v384.126H3368.261z M3704.375,4544.389
			c-348.239,205.444-709.858,325.484-1144.379,325.484c-647.964,0-1241.284-225.199-1665.236-649.218
			C471.119,3797.14,255.234,3211.572,255.234,2564.983c0-646.401,245.894-1205.522,669.536-1629.163
			c423.951-424.014,987.012-675.471,1635.226-675.471c535.176,0,1006.585,208.692,1400.464,509.541
			c372.999,284.907,664.468,766.881,810.893,1114.995l93.405,384.751c0,74.087,47.89,134.17,121.915,134.17
			c74.275,0,134.169-60.082,134.169-134.17V1028.602c0-74.087-59.895-130.105-134.169-130.105
			c-74.025,0-121.915,56.017-121.915,130.105v416.136c-171.555-306.227-486.909-700.731-764.003-912.425
			C3670.866,204.017,3141.312,4.262,2559.996,4.262c-704.731,0-1349.882,290.784-1812.035,753.001
			C285.369,1219.914-0.85,1859.25-0.85,2564.983c0,706.108,286.094,1345.322,748.811,1807.976
			c462.154,462.274,1107.305,752.998,1812.035,752.998c471.906,0,907.675-133.42,1287.549-357.494"/>
	</g>
</g>
<polygon fill="#070001" points="816.121,745.318 727.127,656.324 685.17,698.722 816.121,829.673 1000.167,634.564 959.528,596.49 
	"/>
</svg>
