<?xml version="1.0" encoding="utf-8"?>
<!DOCTYPE svg PUBLIC "-//W3C//DTD SVG 1.1//EN" "http://www.w3.org/Graphics/SVG/1.1/DTD/svg11.dtd">
<svg style="width:308px;height:308px;" version="1.1" id="图形" xmlns="http://www.w3.org/2000/svg" xmlns:xlink="http://www.w3.org/1999/xlink" x="0px" y="0px" width="1024px" height="1024px" viewBox="0 0 1024 1024" enable-background="new 0 0 1024 1024" xml:space="preserve">
  <path class="svgpath" data-index="path_0" fill="#272636" d="M690.086957 178.086957 333.913043 534.26087 489.73913 690.086957 845.913043 333.913043 690.086957 178.086957" />
<path class="svgpath" data-index="path_1" fill="#272636" d="M734.608696 133.565217 890.434783 289.391304 948.001391 231.824696C965.38713 214.438957 965.38713 186.256696 948.001391 168.870957L855.129043 75.998609C837.743304 58.61287 809.561043 58.61287 792.175304 75.998609L734.608696 133.565217" />
<path class="svgpath" data-index="path_2" fill="#272636" d="M289.391304 578.782609 244.869565 779.130435 445.217391 734.608696 289.391304 578.782609" />
<path class="svgpath" data-index="path_3" fill="#272636" d="M823.652174 512 823.652174 868.173913 155.826087 868.173913 155.826087 200.347826 512 200.347826 601.043478 111.304348 111.304348 111.304348C89.043478 111.304348 68.518957 133.565217 68.518957 155.826087L66.782609 155.826087 66.782609 908.354783C66.782609 935.201391 92.115478 957.217391 119.05113 957.217391L863.899826 957.217391C890.835478 957.217391 912.695652 935.468522 912.695652 908.354783L912.695652 422.956522 823.652174 512" />

</svg>
