<?xml version="1.0" standalone="no"?><!DOCTYPE svg PUBLIC "-//W3C//DTD SVG 1.1//EN" "http://www.w3.org/Graphics/SVG/1.1/DTD/svg11.dtd"><svg width="16" height="16" viewBox="0 0 16 16" version="1.1" xmlns="http://www.w3.org/2000/svg" xmlns:xlink="http://www.w3.org/1999/xlink"><defs><style type="text/css"><![CDATA[
@font-face { font-family: ifont; src: url(http://at.alicdn.com/t/font_1442373896_4754455.eot?#iefix) format(embedded-opentype), url(http://at.alicdn.com/t/font_1442373896_4754455.woff) format(woff), url(http://at.alicdn.com/t/font_1442373896_4754455.ttf) format(truetype), url(http://at.alicdn.com/t/font_1442373896_4754455.svg#ifont) format(svg); }

]]></style></defs><g class="transform-group"><g transform="scale(0.015625, 0.015625)"><path d="M961.610044 694.207855 758.022253 826.723961l0-82.85301-0.032746 0L588.368318 743.870951c-15.315824 0-29.764907-6.696516-39.400359-18.23941l-91.37408-109.009739 65.721841-78.485539 89.137133 106.383936 145.536654 0 0.032746 0 0-82.829474L961.610044 694.207855 961.610044 694.207855zM347.981413 485.790058l-89.137133-106.33584-145.536654 0.033769c-28.096918 0-50.89311-22.268166-50.89311-49.695842 0-27.468608 22.796192-49.695842 50.89311-49.695842l169.68668 0c15.216563 0 29.690206 6.703679 39.399335 18.181081l91.341335 109.051695L347.981413 485.790058 347.981413 485.790058zM961.610044 329.792145 758.022253 462.308251l0-82.854033-0.032746 0L612.452853 379.454218 322.378292 725.631542c-9.700943 11.542894-24.158213 18.23941-39.392172 18.23941l-169.694867 0c-28.064172 0-50.901297-22.23542-50.901297-49.663096 0-27.469632 22.837124-49.687656 50.901297-49.687656l145.536654 0 290.141076-346.243839c9.635451-11.476379 24.084535-18.181081 39.400359-18.181081l169.621189 0 0.032746 0 0-82.820264L961.610044 329.792145 961.610044 329.792145z" fill="#272636"></path></g></g></svg>