<?xml version="1.0" encoding="utf-8"?>
<!DOCTYPE svg PUBLIC "-//W3C//DTD SVG 1.1//EN" "http://www.w3.org/Graphics/SVG/1.1/DTD/svg11.dtd">
<svg style="width:308px;height:308px;" version="1.1" id="图形" xmlns="http://www.w3.org/2000/svg" xmlns:xlink="http://www.w3.org/1999/xlink" x="0px" y="0px" width="1024px" height="1024px" viewBox="0 0 1024 1024" enable-background="new 0 0 1024 1024" xml:space="preserve">
  <path class="svgpath" data-index="path_0" fill="#272636" d="M942.276442 827.753407c-0.191366-2.122337-0.462553-4.16281-0.462553-6.121418 0-82.59002-120.475705-178.487114-288.90141-214.980259 34.560513-39.539528 55.32527-93.203752 55.32527-154.213267L708.237749 289.706171c0-127.409808-89.860199-223.524866-209.001458-223.524866-119.167866 0-209.000435 96.115058-209.000435 223.524866L290.235856 452.437439c0 64.249303 22.886158 120.470769 60.795066 160.499437C207.179898 650.191362 80.499634 731.476667 80.499634 822.61027c0 1.933025-0.272211 3.973498-0.490184 6.0416-1.38766 13.632485-4.626557 45.524846 31.921298 64.627926 78.402793 40.820708 227.642768 65.202001 399.225501 65.202001 171.58171 0 320.821685-24.381293 399.252108-65.227584C946.929606 874.177739 943.664102 841.659115 942.276442 827.753407zM345.969441 452.437439 345.969441 289.706171c0-95.216595 65.884176-167.003572 153.267872-167.003572s153.267872 71.786976 153.267872 167.003572L652.505186 452.437439c0 95.217618-65.885199 167.002548-153.267872 167.002548S345.969441 547.655058 345.969441 452.437439zM884.909593 843.021136c-69.830206 36.354999-213.029356 58.942437-373.753343 58.942437-160.72501 0-303.923137-22.586414-373.726736-58.915831-1.305792-0.707105-2.122424-1.251503-2.476502-1.360997-0.054237-1.769296 0.272211-4.978385 0.516791-7.236821 0.408316-4.055362 0.762394-8.02886 0.762394-11.837606 0-50.152237 111.358697-138.783857 274.776136-166.295444 26.561001 12.543687 56.278007 19.646456 88.226935 19.646456 34.316956 0 66.074519-8.190543 94.105047-22.615067 173.269212 23.622 292.738965 116.579135 292.738965 168.283728 0 3.755534 0.354078 7.729032 0.761371 11.809977 0.299841 2.937912 0.734764 7.374968 1.034605 7.618515C887.876279 841.060481 887.141515 841.84945 884.909593 843.021136z" />

</svg>
