<?xml version="1.0" standalone="no"?><!DOCTYPE svg PUBLIC "-//W3C//DTD SVG 1.1//EN" "http://www.w3.org/Graphics/SVG/1.1/DTD/svg11.dtd"><svg width="16" height="16" viewBox="0 0 16 16" version="1.1" xmlns="http://www.w3.org/2000/svg" xmlns:xlink="http://www.w3.org/1999/xlink"><defs><style type="text/css"><![CDATA[
@font-face { font-family: ifont; src: url(http://at.alicdn.com/t/font_1442373896_4754455.eot?#iefix) format(embedded-opentype), url(http://at.alicdn.com/t/font_1442373896_4754455.woff) format(woff), url(http://at.alicdn.com/t/font_1442373896_4754455.ttf) format(truetype), url(http://at.alicdn.com/t/font_1442373896_4754455.svg#ifont) format(svg); }

]]></style></defs><g class="transform-group"><g transform="scale(0.015625, 0.015625)"><path d="M859.484597 810.970162c0 42.318828-34.429137 76.747965-76.747965 76.747965L184.514899 887.718127c-42.318828 0-76.747965-34.429137-76.747965-76.747965L107.766934 212.749452c0-42.318828 34.429137-76.747965 76.747965-76.747965l598.221734 0c40.412408 0 73.605392 31.403221 76.516698 71.084988l41.261753-41.261753 16.426111-16.426111c-23.765263-50.257637-74.92034-85.028559-134.203538-85.028559L184.514899 64.370053c-81.948407 0-148.379399 66.432015-148.379399 148.379399l0 598.221734c0 81.948407 66.430992 148.379399 148.379399 148.379399l598.221734 0c81.948407 0 148.379399-66.430992 148.379399-148.379399L931.116031 381.241934l-71.631434 71.631434L859.484597 810.970162zM241.108848 304.904315l71.631434 0 0 71.631434-71.631434 0 0-71.631434ZM726.142683 340.196099 726.142683 304.904315 362.883309 304.904315 362.883309 376.535749 689.803034 376.535749ZM241.108848 476.04409l71.631434 0 0 71.631434-71.631434 0 0-71.631434ZM590.294692 476.04409 362.883309 476.04409 362.883309 547.675524 518.663258 547.675524ZM241.108848 647.183865l71.631434 0 0 71.631434-71.631434 0 0-71.631434ZM362.883309 647.183865 362.883309 718.815299 419.442466 718.815299 419.368788 668.239414 419.337065 647.183865ZM665.175123 647.183865 593.543689 718.815299 726.142683 718.815299 726.142683 647.183865ZM936.694073 202.003713 931.020864 207.677946 859.484597 279.213189 662.653697 476.04409 591.022263 547.675524 491.513922 647.183865 470.534098 668.163689 470.608799 718.815299 521.184685 718.815299 592.816119 647.183865 692.32446 547.675524 726.142683 513.856277 859.484597 380.515387 931.116031 308.883953 987.34466 252.6543Z" fill="#272636"></path></g></g></svg>