<?xml version="1.0" standalone="no"?><!DOCTYPE svg PUBLIC "-//W3C//DTD SVG 1.1//EN" "http://www.w3.org/Graphics/SVG/1.1/DTD/svg11.dtd"><svg width="16" height="16" viewBox="0 0 16 16" version="1.1" xmlns="http://www.w3.org/2000/svg" xmlns:xlink="http://www.w3.org/1999/xlink"><defs><style type="text/css"><![CDATA[
@font-face { font-family: ifont; src: url(http://at.alicdn.com/t/font_1442373896_4754455.eot?#iefix) format(embedded-opentype), url(http://at.alicdn.com/t/font_1442373896_4754455.woff) format(woff), url(http://at.alicdn.com/t/font_1442373896_4754455.ttf) format(truetype), url(http://at.alicdn.com/t/font_1442373896_4754455.svg#ifont) format(svg); }

]]></style></defs><g class="transform-group"><g transform="scale(0.015625, 0.015625)"><path d="M813.635954 501.634788l52.506017-138.205587-157.551219-82.921694-95.359948 0c-25.067228 73.12035-72.199919 83.062661-93.742975 83.560191-2.313515 0.149259-4.693368 0.223889-7.156142 0.223889-2.429606 0-4.809458-0.082922-7.122974-0.223889-21.169908-0.281934-69.073771-9.569163-94.456102-83.560191l-95.359948 0-157.551219 82.921694 52.522601 138.205587 111.944287-56.660394c0 0 0 242.37182-1.3765 331.686776l187.950312 0 6.219127 0 187.966896 0c0-46.303474-1.3765-331.686776-1.3765-331.686776L813.635954 501.634788zM511.991708 1023.991708C229.6848 1023.991708 0 794.323492 0 512 0 229.6848 229.6848 0 511.991708 0c282.323492 0 512.008292 229.6848 512.008292 512C1024 794.323492 794.3152 1023.991708 511.991708 1023.991708zM511.991708 41.460847C252.538019 41.460847 41.460847 252.546311 41.460847 512c0 259.453689 211.077172 470.530861 470.530861 470.530861s470.547445-211.077172 470.547445-470.530861C982.539153 252.546311 771.445396 41.460847 511.991708 41.460847z" fill="#272636"></path></g></g></svg>