<?xml version="1.0" encoding="utf-8"?>
<!DOCTYPE svg PUBLIC "-//W3C//DTD SVG 1.1//EN" "http://www.w3.org/Graphics/SVG/1.1/DTD/svg11.dtd">
<svg style="width:308px;height:308px;" version="1.1" id="图形" xmlns="http://www.w3.org/2000/svg" xmlns:xlink="http://www.w3.org/1999/xlink" x="0px" y="0px" width="1024px" height="1024px" viewBox="0 0 1024 1024" enable-background="new 0 0 1024 1024" xml:space="preserve">
  <path class="svgpath" data-index="path_0" fill="#272636" d="M512 960C476.654 960 448 931.346 448 896L448 576 128 576C92.654 576 64 547.346 64 512 64 476.654 92.654 448 128 448L448 448 448 128C448 92.654 476.654 64 512 64 547.346 64 576 92.655 576 128L576 448 896 448C931.346 448 960 476.654 960 512 960 547.346 931.346 576 896 576L576 576 576 896C576 931.346 547.346 960 512 960Z" />

</svg>
