<?xml version="1.0" encoding="utf-8"?>
<!-- Generator: Adobe Illustrator 16.0.0, SVG Export Plug-In . SVG Version: 6.00 Build 0)  -->
<!DOCTYPE svg PUBLIC "-//W3C//DTD SVG 1.1//EN" "http://www.w3.org/Graphics/SVG/1.1/DTD/svg11.dtd">
<svg version="1.1" id="图层_1" xmlns="http://www.w3.org/2000/svg" xmlns:xlink="http://www.w3.org/1999/xlink" x="0px" y="0px"
	 width="200px" height="200px" viewBox="0 0 200 200" enable-background="new 0 0 200 200" xml:space="preserve">
<g>
	<g transform="scale(0.1953125, 0.1953125)">
		<path d="M946.618,167.075c-47.97-46.672-114.07-70.117-198.729-70.117c-23.445,0-47.32,4.125-71.64,12.157
			c-24.42,8.14-46.885,19.21-67.94,32.887c-20.84,13.785-38.965,26.59-54.055,38.747c-15.195,12.047-29.305,24.855-42.977,38.422
			c-13.677-13.677-28.002-26.375-42.98-38.422c-15.197-12.047-33.105-25.07-54.052-38.747
			c-20.84-13.785-43.522-24.747-67.945-32.887c-24.205-8.14-48.3-12.157-71.637-12.157c-84.55,0-150.757,23.445-198.729,70.117
			C27.955,213.745,4.185,278.759,4.185,361.789c0,25.29,4.56,51.23,13.46,78.04c8.9,26.81,18.995,49.71,30.282,68.595
			c11.287,18.995,24.202,37.23,38.422,55.14c14.22,17.905,24.855,30.285,31.37,37.12c6.51,6.725,11.83,11.61,15.52,14.76
			l353.184,340.814c6.62,6.615,15.195,10.31,24.855,10.31s18.125-3.365,24.855-10.31l352.644-339.619
			c86.39-86.4,129.7-171.272,129.7-254.629C1018.362,278.759,994.592,213.745,946.618,167.075z M812.673,560.039L511.259,850.593
			L209.344,559.444c-64.745-64.745-97.22-126.205-97.22-184.477c0-28.092,3.785-52.79,11.157-74.307
			c7.472-21.515,16.935-38.45,28.587-51.2c11.555-12.65,25.7-23.01,42.332-30.98c16.635-7.97,32.872-13.342,48.812-16.13
			c15.935-2.792,32.867-4.187,50.797-4.187c18.127,0,37.455,4.382,58.275,13.247c20.815,8.87,39.942,19.825,57.375,33.367
			c17.63,13.347,32.367,25.897,44.92,37.455c12.552,11.555,22.812,22.215,31.177,31.975c6.077,7.57,14.745,11.357,25.5,11.357
			c10.66,0,19.12-3.787,25.505-11.357c8.265-9.762,18.615-20.32,31.175-31.975c12.55-11.555,27.49-24.007,44.925-37.455
			c17.63-13.345,36.555-24.402,57.375-33.367c20.82-8.965,40.14-13.247,58.27-13.247s34.86,1.497,50.805,4.187
			c15.93,2.688,32.17,8.16,48.795,16.13c16.645,7.975,30.785,18.33,42.34,30.977c11.555,12.652,21.22,29.687,28.585,51.2
			c7.47,21.517,11.16,46.217,11.16,74.31C910.288,433.434,877.718,494.896,812.673,560.039z"/>
	</g>
</g>
</svg>
