<?xml version="1.0" encoding="utf-8"?>
<!-- Generator: Adobe Illustrator 16.0.0, SVG Export Plug-In . SVG Version: 6.00 Build 0)  -->
<!DOCTYPE svg PUBLIC "-//W3C//DTD SVG 1.1//EN" "http://www.w3.org/Graphics/SVG/1.1/DTD/svg11.dtd">
<svg version="1.1" id="图层_1" xmlns="http://www.w3.org/2000/svg" xmlns:xlink="http://www.w3.org/1999/xlink" x="0px" y="0px"
	 width="200px" height="200px" viewBox="0 0 200 200" enable-background="new 0 0 200 200" xml:space="preserve">
<g>
	<g transform="scale(0.1953125, 0.1953125)">
		<path d="M511.719,65.28c-150.05,0-282.587,73.752-363.744,186.76v-49.575c0-23.11-18.79-41.845-41.967-41.845
			c-23.18,0-41.97,18.735-41.97,41.845v141.782c0,23.107,39.27,46.965,62.45,46.965h151.15c23.177,0,41.97-23.857,41.97-46.965
			c0-23.112-18.792-41.845-41.97-41.845l-41.812,2.43c31.27-68.46,157.645-142.775,275.897-142.775
			c193.632,0,350.612,156.51,350.612,349.572c0,193.059-156.98,349.574-350.612,349.574c-163.21,0-300.957-102.425-341.502-258.599
			l1.75-3.065c-5.45-15.85-28.442-30.265-46.855-30.265c-23.177,0-47.09,23.855-47.09,46.96c0,4.125,1.243,7.86,2.355,11.62
			l-0.438,0.135c0.275,1.015,0.78,1.92,1.063,2.93c0.307,0.81,0.512,1.625,0.87,2.415
			c53.252,187.165,225.054,324.644,429.849,324.644c247.244,0,447.679-199.839,447.679-446.349
			C959.398,265.114,758.968,65.28,511.719,65.28z M506.599,279.179c-23.177,0-41.97,18.735-41.97,41.845v251.074
			c0,23.11,18.792,41.84,41.97,41.84c0,0,0,0,0.005,0h181.865c23.18,0,41.97-18.73,41.97-41.84c0-23.115-18.79-41.84-41.97-41.84
			h-139.9V321.024C548.569,297.912,529.779,279.179,506.599,279.179z"/>
	</g>
</g>
</svg>
