<?xml version="1.0" encoding="utf-8"?>
<!-- Generator: Adobe Illustrator 16.0.0, SVG Export Plug-In . SVG Version: 6.00 Build 0)  -->
<!DOCTYPE svg PUBLIC "-//W3C//DTD SVG 1.1//EN" "http://www.w3.org/Graphics/SVG/1.1/DTD/svg11.dtd">
<svg version="1.1" id="图层_1" xmlns="http://www.w3.org/2000/svg" xmlns:xlink="http://www.w3.org/1999/xlink" x="0px" y="0px"
	 width="200px" height="200px" viewBox="0 0 200 200" enable-background="new 0 0 200 200" xml:space="preserve">
<g>
	<g transform="scale(0.1953125, 0.1953125)">
		<path d="M910.248,846.468l-168.94-168.94c45.94-59.955,73.26-134.925,73.26-216.289c0-196.584-159.365-355.944-355.947-355.944
			c-196.585,0-355.944,159.36-355.944,355.944s159.36,355.944,355.944,355.944c83.987,0,161.167-29.105,222.042-77.755
			l168.315,168.32c8.46,8.46,19.54,12.69,30.64,12.69c11.08,0,22.175-4.235,30.63-12.69
			C927.178,890.823,927.178,863.393,910.248,846.468L910.248,846.468z M268.204,651.658c-50.862-50.865-78.87-118.49-78.87-190.42
			s28.007-139.552,78.87-190.414s118.487-78.87,190.417-78.87c71.927,0,139.552,28.015,190.407,78.87
			c50.86,50.862,78.88,118.485,78.88,190.414s-28.02,139.555-78.87,190.42c-50.865,50.85-118.49,78.865-190.417,78.865
			C386.692,730.523,319.067,702.508,268.204,651.658L268.204,651.658z"/>
	</g>
</g>
</svg>
