<?xml version="1.0" encoding="utf-8"?>
<!-- Generated by IcoMoon.io -->
<!DOCTYPE svg PUBLIC "-//W3C//DTD SVG 1.1//EN" "http://www.w3.org/Graphics/SVG/1.1/DTD/svg11.dtd">
<svg version="1.1" xmlns="http://www.w3.org/2000/svg" xmlns:xlink="http://www.w3.org/1999/xlink" width="1024" height="1024" viewBox="0 0 1024 1024">
<g id="icomoon-ignore">
</g>
<path d="M170.667 42.667h682.667q53 0 90.5 37.5t37.5 90.5v682.667q0 53-37.5 90.5t-90.5 37.5h-682.667q-53 0-90.5-37.5t-37.5-90.5v-682.667q0-53 37.5-90.5t90.5-37.5zM341.333 896v-512h-213.333v469.333q0 17.667 12.5 30.167t30.167 12.5h170.667zM896 853.333v-469.333h-469.333v512h426.667q17.667 0 30.167-12.5t12.5-30.167zM853.333 128h-682.667q-17.667 0-30.167 12.5t-12.5 30.167v128h768v-128q0-17.667-12.5-30.167t-30.167-12.5z"></path>
</svg>
