<?xml version="1.0" encoding="utf-8"?>
<!-- Generated by IcoMoon.io -->
<!DOCTYPE svg PUBLIC "-//W3C//DTD SVG 1.1//EN" "http://www.w3.org/Graphics/SVG/1.1/DTD/svg11.dtd">
<svg version="1.1" xmlns="http://www.w3.org/2000/svg" xmlns:xlink="http://www.w3.org/1999/xlink" width="1184" height="1024" viewBox="0 0 1184 1024">
<g id="icomoon-ignore">
</g>
<path d="M1140.152 554.138l-235.141-235.141v-155.071c0-19.332-15.657-35.004-35.023-35.004-19.315 0-34.989 15.673-34.989 35.004v85.107l-165.893-165.893c-13.666-13.645-35.807-13.645-49.453 0l-321.067 321.079c26.326 4.58 51.412 12.83 74.644 24.282l271.186-271.165 446.281 446.269c6.79 6.806 15.757 10.263 24.729 10.263 8.916 0 17.886-3.403 24.71-10.263 13.715-13.666 13.715-35.807 0.010-49.472zM1040.064 594.285l-370.912-370.929c-6.587-6.55-15.455-10.244-24.729-10.244-9.289 0-18.175 3.692-24.729 10.244l-220.043 220.082c77.144 49.217 128.486 135.514 128.486 233.642 0 40.926-8.967 80.903-26.189 117.494l61.706 61.724c1.923 1.906 3.692 3.913 5.43 5.99 12.047-14.991 18.687-33.476 18.687-52.806v-132.947c0-32.264 24.729-59.225 56.671-62.253 31.943 3.031 56.671 29.986 56.671 62.253v132.947c0 21.307 8.032 41.694 22.55 57.384 15.963 17.29 38.581 27.197 62.030 27.197h181.023c46.63 0 84.599-37.934 84.599-84.581v-181.036c0-5.311-0.511-10.687-1.563-16.029-1.377-6.875-4.731-13.172-9.682-18.125zM440.328 803.061c24.115-36.097 38.223-79.442 38.223-125.987 0-125.385-101.988-227.397-227.361-227.397s-227.381 101.988-227.381 227.397c0 125.372 102.010 227.329 227.381 227.329 40.842 0 79.135-10.859 112.305-29.782l90.929 90.946c10.244 10.279 23.673 15.348 37.097 15.348s26.855-5.141 37.086-15.348c20.49-20.49 20.49-53.725 0-74.199l-88.275-88.307zM251.188 834.494c-86.793 0-157.418-70.61-157.418-157.418 0-86.828 70.626-157.418 157.418-157.418s157.418 70.61 157.418 157.418c-0.010 86.757-70.643 157.418-157.418 157.418z"></path>
</svg>
