<?xml version="1.0" encoding="utf-8"?>
<!-- Generated by IcoMoon.io -->
<!DOCTYPE svg PUBLIC "-//W3C//DTD SVG 1.1//EN" "http://www.w3.org/Graphics/SVG/1.1/DTD/svg11.dtd">
<svg version="1.1" xmlns="http://www.w3.org/2000/svg" xmlns:xlink="http://www.w3.org/1999/xlink" width="1024" height="1024" viewBox="0 0 1024 1024">
<g id="icomoon-ignore">
</g>
<path d="M877.714 512q0 89.143-34.857 170.286t-93.714 140-140 93.714-170.286 34.857q-98.286 0-186.857-41.429t-150.857-116.857q-4-5.714-3.714-12.857t4.857-11.714l78.286-78.857q5.714-5.143 14.286-5.143 9.143 1.143 13.143 6.857 41.714 54.286 102.286 84t128.571 29.714q59.429 0 113.429-23.143t93.429-62.571 62.571-93.429 23.143-113.429-23.143-113.429-62.571-93.429-93.429-62.571-113.429-23.143q-56 0-107.429 20.286t-91.429 58l78.286 78.857q17.714 17.143 8 39.429-9.714 22.857-33.714 22.857h-256q-14.857 0-25.714-10.857t-10.857-25.714v-256q0-24 22.857-33.714 22.286-9.714 39.429 8l74.286 73.714q61.143-57.714 139.714-89.429t162.571-31.714q89.143 0 170.286 34.857t140 93.714 93.714 140 34.857 170.286z"></path>
</svg>
