<?xml version="1.0" standalone="no"?><!DOCTYPE svg PUBLIC "-//W3C//DTD SVG 1.1//EN" "http://www.w3.org/Graphics/SVG/1.1/DTD/svg11.dtd"><svg width="128" height="128" viewBox="0 0 128 128" version="1.1" xmlns="http://www.w3.org/2000/svg" xmlns:xlink="http://www.w3.org/1999/xlink"><defs><style type="text/css"><![CDATA[
@font-face { font-family: ifont; src: url("http://at.alicdn.com/t/font_1442373896_4754455.eot?#iefix") format("embedded-opentype"), url("http://at.alicdn.com/t/font_1442373896_4754455.woff") format("woff"), url("http://at.alicdn.com/t/font_1442373896_4754455.ttf") format("truetype"), url("http://at.alicdn.com/t/font_1442373896_4754455.svg#ifont") format("svg"); }

]]></style></defs><g class="transform-group"><g transform="scale(0.125, 0.125)"><path d="M353.024 831.808c-35.36 0-64 28.64-64 64s28.64 64 64 64 64-28.64 64-64S388.416 831.808 353.024 831.808L353.024 831.808zM801.024 831.808c-35.36 0-64 28.64-64 64s28.64 64 64 64 64-28.64 64-64S836.416 831.808 801.024 831.808L801.024 831.808zM937.312 188.48C920.96 170.016 898.496 160 874.048 160L232.864 160 230.592 146.976C224.992 100.416 184 64 137.28 64L97.024 64c-17.696 0-32 14.304-32 32s14.304 32 32 32L137.28 128c13.92 0 28.128 12.672 30.016 28.256l30.912 178.496L252.48 716.864C258.112 763.424 298.656 800 344.768 800l520.256 0c17.696 0 32-14.304 32-32s-14.304-32-32-32L344.768 736c-13.632 0-27.04-12.608-28.832-27.456l-5.312-37.344 507.712-31.392c46.08 0 86.624-36.512 92.064-81.376l50.432-288.352C964.576 239.264 956 209.568 937.312 188.48z" fill="#272636"></path></g></g></svg>