<?xml version="1.0" standalone="no"?><!DOCTYPE svg PUBLIC "-//W3C//DTD SVG 1.1//EN" "http://www.w3.org/Graphics/SVG/1.1/DTD/svg11.dtd"><svg width="200" height="200" viewBox="0 0 200 200" version="1.1" xmlns="http://www.w3.org/2000/svg" xmlns:xlink="http://www.w3.org/1999/xlink"><defs><style type="text/css"><![CDATA[
@font-face { font-family: ifont; src: url(http://at.alicdn.com/t/font_1442373896_4754455.eot?#iefix) format(embedded-opentype), url(http://at.alicdn.com/t/font_1442373896_4754455.woff) format(woff), url(http://at.alicdn.com/t/font_1442373896_4754455.ttf) format(truetype), url(http://at.alicdn.com/t/font_1442373896_4754455.svg#ifont) format(svg); }

]]></style></defs><g class="transform-group"><g transform="scale(0.1953125, 0.1953125)"><path d="M937.701376 893.559808 737.214976 693.075968C724.427776 680.245248 703.558656 680.383488 690.717696 693.214208 629.615616 754.313728 548.522496 788.218368 462.398976 788.697088 375.622656 789.413888 295.681536 756.213248 235.360256 695.876608 110.547456 571.079168 111.740416 366.824448 238.025216 240.534528 299.127296 179.447808 380.202496 145.527808 466.341376 145.046528L468.197376 145.046528C553.568256 145.046528 633.483776 177.975808 693.382656 237.867008 784.536576 329.008128 811.501056 465.753088 762.108416 586.229248 758.708736 594.418688 758.765056 603.399168 762.195456 611.529728 765.597696 619.601408 771.977216 625.827328 780.084736 629.060608 796.727296 635.685888 815.924736 627.642368 822.928896 610.874368 882.413056 465.773568 849.893376 301.063168 740.020736 191.234048 667.864576 119.075328 571.475456 79.333888 468.596736 79.318528L468.581376 79.318528C364.100096 79.318528 265.742336 120.122368 191.668736 194.211328 39.678976 346.188288 38.345216 592.153088 188.704256 742.532608 330.912256 884.725248 558.332416 892.028928 712.434176 761.563648L891.060736 940.182528C897.240576 946.362368 905.437696 949.759488 914.198016 949.759488L914.226176 949.759488C923.042816 949.733888 931.350016 946.275328 937.532416 940.072448 943.799296 933.838848 947.257856 925.539328 947.286016 916.702208 947.286016 907.954688 943.883776 899.737088 937.701376 893.559808" fill="#000000"></path></g></g></svg>