<?xml version="1.0" encoding="utf-8"?>
<!-- Generator: Adobe Illustrator 16.0.0, SVG Export Plug-In . SVG Version: 6.00 Build 0)  -->
<!DOCTYPE svg PUBLIC "-//W3C//DTD SVG 1.1//EN" "http://www.w3.org/Graphics/SVG/1.1/DTD/svg11.dtd">
<svg version="1.1" id="图层_1" xmlns="http://www.w3.org/2000/svg" xmlns:xlink="http://www.w3.org/1999/xlink" x="0px" y="0px"
	 width="1000px" height="1000px" viewBox="0 0 1000 1000" enable-background="new 0 0 1000 1000" xml:space="preserve">
<g>
	<path fill="#040000" d="M499.937,17.978c-266.565,0-482.704,216.091-482.704,482.69c0,266.605,216.139,482.7,482.704,482.7
		c266.594,0,482.689-216.095,482.69-482.7C982.627,234.068,766.53,17.978,499.937,17.978z M499.936,909.871
		c-225.977,0-409.206-183.191-409.206-409.202c0-226.006,183.229-409.194,409.206-409.194
		c226.001,0,409.193,183.188,409.193,409.194C909.129,726.68,725.937,909.871,499.936,909.871z"/>
	<path fill="#040000" d="M704.733,544.553H529.218h-58.522c-8.1,0-14.644-6.539-14.644-14.651v-58.479V237.383
		c0-8.083,6.544-14.651,14.644-14.651h58.522c8.059,0,14.598,6.568,14.598,14.651v219.411h160.918
		c8.064,0,14.608,6.545,14.608,14.628v58.479C719.342,538.014,712.798,544.553,704.733,544.553"/>
</g>
</svg>
