<?xml version="1.0" encoding="utf-8"?>
<!-- Generator: Adobe Illustrator 16.0.0, SVG Export Plug-In . SVG Version: 6.00 Build 0)  -->
<!DOCTYPE svg PUBLIC "-//W3C//DTD SVG 1.1//EN" "http://www.w3.org/Graphics/SVG/1.1/DTD/svg11.dtd">
<svg version="1.1" id="图层_1" xmlns="http://www.w3.org/2000/svg" xmlns:xlink="http://www.w3.org/1999/xlink" x="0px" y="0px"
	 width="1000px" height="1000px" viewBox="0 0 1000 1000" enable-background="new 0 0 1000 1000" xml:space="preserve">
<path d="M944.765,616.005l-72.978-42.326c4.374-21.893,7.293-45.246,7.293-68.599s-2.919-45.246-7.293-68.599l72.978-42.327
	c29.19-17.517,39.406-55.465,21.892-84.655l-61.305-108.007c-17.514-29.19-55.463-39.409-84.653-23.352l-72.978,42.326
	c-33.569-29.191-72.978-52.546-116.764-68.601v-49.625c0-35.029-27.731-62.76-61.301-62.76H445.591
	c-33.567,0-61.299,27.731-61.299,62.76v52.544c-43.786,16.056-81.734,39.41-116.766,68.601l-72.977-42.327
	c-29.191-17.517-67.139-7.298-84.654,23.353l-61.3,108.006c-17.515,29.192-7.298,67.142,21.893,84.656l72.977,42.327
	c-4.379,21.894-7.298,45.246-7.298,68.599c0,23.354,2.919,45.245,7.298,68.6l-72.977,42.325
	c-29.191,17.515-39.408,55.463-21.893,84.654l61.3,108.007c17.515,29.189,55.463,39.412,84.654,23.353l72.977-42.322
	c33.571,29.189,72.979,52.544,116.766,68.599v52.543c0,35.029,27.731,62.762,61.299,62.762h124.065
	c33.569,0,61.301-27.732,61.301-62.762v-52.543c43.786-16.055,81.734-39.409,116.764-68.599l72.978,42.322
	c29.19,17.519,67.14,7.302,84.653-23.353l61.305-108.007C984.171,671.467,973.954,633.52,944.765,616.005z M898.06,697.739
	l-30.656,54.008c-8.758,14.596-27.728,20.434-42.322,11.677l-86.117-49.625c-43.786,49.625-102.169,84.654-169.308,99.249v68.6
	c0,17.515-13.137,30.65-30.65,30.65h-61.3c-17.52,0-30.651-14.596-30.651-30.65v-68.6c-67.142-13.141-125.523-49.624-169.309-99.249
	l-86.115,49.625c-14.596,8.757-33.57,2.919-42.327-11.677l-30.65-54.008c-8.757-14.595-2.92-33.564,11.676-42.322l86.113-49.628
	c-10.217-30.651-16.055-64.22-16.055-97.79c0-35.029,5.838-67.14,16.055-97.789l-86.113-49.627
	c-14.596-8.758-20.434-27.732-11.676-42.327l30.65-54.003c8.757-14.596,27.731-20.434,42.327-11.677l86.116,49.625
	c43.785-49.625,102.168-84.653,169.309-99.249v-70.061c0-17.515,13.132-30.65,30.646-30.65h61.306
	c17.514,0,30.65,14.596,30.65,30.65v68.601c67.138,13.136,125.521,49.625,169.307,99.249l86.117-49.624
	c14.595-8.757,33.564-2.919,42.322,11.676l30.656,54.003c8.757,14.595,2.918,33.569-11.677,42.327l-86.118,49.627
	c10.222,30.65,16.06,64.22,16.06,97.791c0,35.028-5.838,67.138-16.06,97.788l86.118,49.624
	C900.978,664.175,906.816,683.145,898.06,697.739z M508.356,350.366c-84.656,0-154.715,70.06-154.715,156.175
	c0,86.11,68.599,156.169,154.715,156.169c84.653,0,154.711-70.059,154.711-156.169C663.067,420.427,593.01,350.366,508.356,350.366z
	 M508.356,599.95c-51.09,0-91.954-42.327-91.954-93.409c0-51.086,40.864-93.412,91.954-93.412c51.083,0,91.95,42.326,91.95,93.412
	C600.307,557.623,559.44,599.95,508.356,599.95z"/>
</svg>
