<?xml version="1.0" encoding="utf-8"?>
<!-- Generator: Adobe Illustrator 16.0.0, SVG Export Plug-In . SVG Version: 6.00 Build 0)  -->
<!DOCTYPE svg PUBLIC "-//W3C//DTD SVG 1.1//EN" "http://www.w3.org/Graphics/SVG/1.1/DTD/svg11.dtd">
<svg version="1.1" id="图层_1" xmlns="http://www.w3.org/2000/svg" xmlns:xlink="http://www.w3.org/1999/xlink" x="0px" y="0px"
	 width="1000px" height="1000px" viewBox="0 0 1000 1000" enable-background="new 0 0 1000 1000" xml:space="preserve">
<path fill="#231815" d="M688.322,1.919l-375.798,0c-54.673,0-100.128,44.952-100.128,99.275v799.973
	c0,54.623,45.455,99.313,100.128,99.313h375.798c54.692,0,100.159-44.706,100.159-99.313V101.201
	C788.481,46.87,743.022,1.919,688.322,1.919z M447.075,55.892h107.831c4.981,0,8.987,4.001,8.987,8.937
	c0,4.92-4.006,8.934-8.987,8.934H447.075c-4.943,0-8.983-4.013-8.983-8.934C438.092,59.894,442.124,55.892,447.075,55.892z
	 M499.953,961.793c-18.878,0-35.733-15.483-35.733-35.011c0-19.535,16.855-35.08,35.733-35.08c19.866,0,35.196,15.545,35.196,35.08
	S519.818,961.794,499.953,961.793z M711.602,846.759H289.349V117.411l422.252,0V846.759z"/>
</svg>
