<?xml version="1.0" standalone="no"?><!DOCTYPE svg PUBLIC "-//W3C//DTD SVG 1.1//EN" "http://www.w3.org/Graphics/SVG/1.1/DTD/svg11.dtd"><svg width="200" height="200" viewBox="0 0 200 200" version="1.1" xmlns="http://www.w3.org/2000/svg" xmlns:xlink="http://www.w3.org/1999/xlink"><defs><style type="text/css"><![CDATA[
@font-face { font-family: ifont; src: url(http://at.alicdn.com/t/font_1442373896_4754455.eot?#iefix) format(embedded-opentype), url(http://at.alicdn.com/t/font_1442373896_4754455.woff) format(woff), url(http://at.alicdn.com/t/font_1442373896_4754455.ttf) format(truetype), url(http://at.alicdn.com/t/font_1442373896_4754455.svg#ifont) format(svg); }

]]></style></defs><g class="transform-group"><g transform="scale(0.1953125, 0.1953125)"><path d="M761.898667 479.168c-29.12 128.64-140.202667 262.144-248.874667 262.144-108.010667 0-219.093333-133.12-248.874667-261.610667-23.018667-4.074667-39.829333-15.296-39.829333-42.496l0-109.568c0-27.093333 16.810667-36.245333 40.874667-38.933333l0.490667-1.536-1.024 0c0 0-18.325333-68.565333-6.122667-82.944 11.84-14.250667 39.957333-18.325333 46.08-34.24 6.208-16.405333 15.872-139.818667 37.888-143.914667 22.016-4.053333 130.56 24.064 162.325333 28.117333 32.213333 4.202667 154.453333 10.304 172.458667 22.528 17.92 11.84 30.378667 56.384 46.037333 72.789333 15.872 16.426667 46.293333 2.026667 54.421333 20.48 7.552 17.941333-16.490667 117.184-16.490667 117.184l-1.045333 0 0.618667 1.536c22.421333 3.178667 38.954667 12.352 38.954667 38.933333l0 109.568C799.808 463.402667 783.936 475.114667 761.898667 479.168zM577.024 998.314667l0-62.997333c0-35.584-28.629333-97.216-64-97.216-35.349333 0-64 61.632-64 97.216l0 62.997333L0 998.314667c0 0 158.144-257.002667 192.490667-257.002667l256.512 0 31.808 0c-17.429333 0-31.808 14.506667-31.808 32.384 0 18.005333 14.378667 32.256 31.808 32.256l64.490667 0c17.322667 0 31.68-14.250667 31.68-32.256 0-17.877333-14.378667-32.384-31.68-32.384l31.68 0 256.618667 0c32.213333 0 190.336 257.002667 190.336 257.002667L577.024 998.314667z" fill="#272636"></path></g></g></svg>