<?xml version="1.0" encoding="utf-8"?>
<!-- Generator: Adobe Illustrator 16.0.0, SVG Export Plug-In . SVG Version: 6.00 Build 0)  -->
<!DOCTYPE svg PUBLIC "-//W3C//DTD SVG 1.1//EN" "http://www.w3.org/Graphics/SVG/1.1/DTD/svg11.dtd">
<svg version="1.1" id="图层_1" xmlns="http://www.w3.org/2000/svg" xmlns:xlink="http://www.w3.org/1999/xlink" x="0px" y="0px"
	 width="1000px" height="1000px" viewBox="0 0 1000 1000" enable-background="new 0 0 1000 1000" xml:space="preserve">
<path fill="#37A038" d="M998.968,863.762c-58.412-12.569-39.186-9.52-116.266-17.183c-37.058-1.376-76.288-2.816-103.45-2.343
	c-90.881,1.629-112.521,6.541-169.382,11.304c-161.346,14.58-291.543,51.358-301.298,56.497
	c12.063,0.525,60.108-8.279,105.994-10.563c120.256-7.15,206.933-9.376,324.255,5.003c13.036,1.596,26.04,3.523,38.984,5.847
	c69.021,8.149,194.63,59.573,194.63,59.573c13.77-56.342,8.994-36.96,13.77-56.342C998.968,863.762,998.968,863.762,998.968,863.762
	z"/>
<path fill="#37A038" d="M2.076,863.586c57.078-17.987,32.937-11.407,110.604-27.26c37.946-5.567,78.141-11.465,106.354-14.229
	c94.398-9.24,118.063-7.43,178.116-9.908c170.687-6.034,315.022,11.219,326.468,14.619c-12.328,1.882-64.342-0.272-112.385,3.108
	c-126.229,7.799-216.435,16.008-333.943,42.533c-13.055,2.939-25.99,6.184-38.77,9.76c-69.196,15.332-186.156,70.123-186.156,70.123
	c-26.448-44.772-1.92,0.493-26.448-44.772C2.076,863.586,2.076,863.586,2.076,863.586z"/>
<path fill="#37A038" d="M764.068,536.353v-4.231C764.068,532.121,764.068,533.88,764.068,536.353z"/>
<polygon fill="#37A038" points="346.161,29.354 346.161,776.747 502.598,758.449 503.487,92.49 "/>
<polygon fill="#37A038" points="672.914,345.031 590.624,305.788 590.624,758.176 628.317,758.449 672.914,761.382 672.914,507.341 
	672.914,490.036 "/>
<path fill="#37A038" d="M232.945,766.508c-0.107,9.811-0.386,15.638-0.386,15.638l21.789-4.321V29.354h-21.783
	C232.565,29.36,234.094,658.587,232.945,766.508z"/>
<path fill="#37A038" d="M764.068,532.121v4.231c0.013,5.463,0.084,14.398,0.363,15.442c0.032,0.02,0.071,0.039,0.098,0.053
	c-0.032,0.091-0.065,0.064-0.098-0.053c-0.13-0.064-0.24-0.116-0.363-0.182v218.84l27.025,3.478l30.296,3.894V561.101
	L764.068,532.121z"/>
<path fill="#37A038" d="M590.604,305.804l-87.131-44.792l0.532,21.011c0,0,74.102,36.824,86.515,43.248
	C590.157,323.768,590.604,305.804,590.604,305.804z"/>
<path fill="#37A038" d="M590.624,325.325c-0.032-0.013-0.064-0.036-0.104-0.049C590.547,325.384,590.585,325.41,590.624,325.325z"/>
<path fill="#37A038" d="M764.529,551.848c-0.032-0.014-0.071-0.033-0.098-0.053C764.458,551.912,764.497,551.951,764.529,551.848z"
	/>
<path fill="#37A038" d="M764.068,536.353c0-2.466,0-4.231,0-4.231l-91.154-42.079v17.299c74.764,36.973,76.938,36.973,91.154,44.272
	c0.123,0.065,0.247,0.13,0.363,0.182C764.146,550.751,764.081,541.815,764.068,536.353z"/>
</svg>
