<?xml version="1.0" encoding="utf-8"?>
<!-- Generator: Adobe Illustrator 16.0.0, SVG Export Plug-In . SVG Version: 6.00 Build 0)  -->
<!DOCTYPE svg PUBLIC "-//W3C//DTD SVG 1.1//EN" "http://www.w3.org/Graphics/SVG/1.1/DTD/svg11.dtd">
<svg version="1.1" id="图层_1" xmlns="http://www.w3.org/2000/svg" xmlns:xlink="http://www.w3.org/1999/xlink" x="0px" y="0px"
	 width="1000px" height="1000px" viewBox="0 0 1000 1000" enable-background="new 0 0 1000 1000" xml:space="preserve">
<g>
	<path fill="#E07162" d="M407.048,511.539c-102.08,11.906-90.185,107.567-90.185,107.567s-1.063,30.21,27.315,45.65
		c59.671,32.313,121.165,12.796,152.275-27.325C527.433,597.268,509.27,499.763,407.048,511.539z M381.263,645.651
		c-19.074,2.32-34.33-8.696-34.33-24.724c0-15.875,13.576-32.486,32.649-34.482c21.828-2.146,36.152,10.54,36.152,26.394
		C415.756,628.865,400.347,643.504,381.263,645.651z M441.542,594.535c-6.419,4.879-14.346,4.12-17.859-1.67
		c-3.502-5.66-2.288-14.66,4.261-19.389c7.645-5.639,15.419-3.969,18.77,1.67C450.249,580.807,447.776,589.504,441.542,594.535z"/>
	<path fill="#E07162" d="M680.803,250.753c-36.021-8.393-73.106-1.214-83.495,0.759c-0.737,0-1.496,0.781-2.299,0.933
		c-0.303,0-0.606,0.466-0.606,0.466c-10.193,2.906-17.697,12.372-17.697,23.649c0,13.283,10.844,24.268,24.29,24.268
		c0,0,13.12-1.843,21.947-5.194c8.848-3.502,83.494-2.592,120.536,59.671c20.299,45.478,8.848,75.839,7.503,80.73
		c0,0-4.901,11.743-4.901,23.498c0,13.424,10.822,21.828,24.29,21.828c11.125,0,20.581-1.54,23.335-20.462h0.151
		C833.869,328.122,745.343,265.696,680.803,250.753z"/>
	<path fill="#E07162" d="M692.991,446.229c8.24,0,15.268-6.105,16.33-14.042c0.151-0.618,0.151-1.063,0.151-1.843
		c12.492-111.992-91.865-92.777-91.865-92.777c-9.326,0-16.612,7.482-16.612,16.786c0,9.152,7.481,16.634,16.612,16.634
		c74.906-16.482,58.294,58.294,58.294,58.294C676.205,438.898,683.688,446.229,692.991,446.229z"/>
	<path fill="#E07162" d="M643.284,487.575c-24.115-4.728-12.383-17.697-12.383-17.697s23.617-38.906-4.728-67.132
		c-34.96-34.959-120.103,4.413-120.103,4.413c-32.487,10.084-23.802-4.576-19.226-29.603c0-29.44-10.084-79.19-96.604-49.902
		c-86.52,29.603-160.667,133.223-160.667,133.223c-51.593,68.813-44.881,122.076-44.881,122.076
		c13.012,117.479,137.81,149.835,234.859,157.447c102.243,8.089,240.042-35.241,281.984-124.05
		C743.479,527.695,667.487,492.465,643.284,487.575z M427.348,707.61c-101.462,4.728-183.407-46.085-183.407-113.835
		c0-67.771,81.944-122.075,183.407-126.803c101.473-4.738,183.71,37.063,183.71,104.834
		C610.928,639.405,528.82,702.883,427.348,707.61z"/>
	<path fill="#E07162" d="M499.5,0.833C223.555,0.833-0.167,224.556-0.167,500.5c0,275.966,223.722,499.667,499.667,499.667
		c275.966,0,499.667-223.7,499.667-499.667C999.167,224.556,775.466,0.833,499.5,0.833z M499.5,977.96
		c-263.691,0-477.459-213.769-477.459-477.459c0-263.691,213.768-477.46,477.459-477.46S976.96,236.809,976.96,500.5
		C976.96,764.191,763.191,977.96,499.5,977.96z"/>
</g>
</svg>
