<?xml version="1.0" standalone="no"?><!DOCTYPE svg PUBLIC "-//W3C//DTD SVG 1.1//EN" "http://www.w3.org/Graphics/SVG/1.1/DTD/svg11.dtd"><svg t="1491535200153" class="icon" style="" viewBox="0 0 1024 1024" version="1.1" xmlns="http://www.w3.org/2000/svg" p-id="4287" xmlns:xlink="http://www.w3.org/1999/xlink" width="1100" height="1100"><defs><style type="text/css"></style></defs><path d="M556.780308 699.707077c-60.849231 0-120.359385-22.212923-165.218462-67.150769-25.088-25.009231-25.088-65.496615-0.078769-90.505846s65.536-25.009231 90.505846-0.039385c43.716923 43.638154 119.571692 38.912 169.078154-10.673231l197.435077-197.435077c26.427077-26.308923 41.511385-60.691692 41.511385-94.326154 0-20.086154-5.356308-49.230769-30.72-74.673231-27.214769-27.254154-58.446769-31.744-80.265846-30.641231-32.177231 1.457231-63.724308 16.147692-88.812308 41.235692L576.945231 288.689231c-26.466462-26.466462-135.207385-45.883077-164.667077-16.384l187.313231-187.273846c47.655385-47.655385 109.134769-75.579077 173.292308-78.651077 66.914462-3.072 129.693538 20.992 176.718769 68.017231 44.071385 43.992615 68.332308 102.675692 68.332308 165.218462-0.039385 67.347692-28.829538 134.734769-79.084308 184.832l-197.395692 197.395692C689.860923 673.634462 622.592 699.707077 556.780308 699.707077zM282.427077 402.156308l-197.395692 197.395692c-50.215385 50.097231-79.005538 117.484308-79.044923 184.832 0 62.542769 24.221538 121.225846 68.292923 165.218462 47.064615 47.025231 109.843692 71.168 176.797538 68.017231 64.118154-3.072 125.636923-30.995692 173.252923-78.651077l187.313231-187.273846c-29.499077 29.499077-138.24 10.082462-164.706462-16.344615l-113.152 113.112615c-25.088 25.088-56.635077 39.778462-88.812308 41.314462-21.819077 0.984615-53.051077-3.544615-80.265846-30.72-25.442462-25.442462-30.759385-54.665846-30.759385-74.673231 0-33.634462 15.123692-68.017231 41.511385-94.326154l197.435077-197.435077c49.545846-49.545846 125.400615-54.311385 169.078154-10.673231 25.009231 25.009231 65.536 25.009231 90.505846 0 25.009231-25.009231 25.048615-65.496615 0-90.505846-44.977231-44.937846-104.487385-67.150769-165.257846-67.150769C401.447385 324.292923 334.099692 350.444308 282.427077 402.156308z" p-id="4288"></path></svg>