<?xml version="1.0" standalone="no"?><!DOCTYPE svg PUBLIC "-//W3C//DTD SVG 1.1//EN" "http://www.w3.org/Graphics/SVG/1.1/DTD/svg11.dtd"><svg xmlns:xlink="http://www.w3.org/1999/xlink" xmlns="http://www.w3.org/2000/svg" version="1.1" width="200" height="200" viewBox="0 0 200 200"><defs><style type="text/css"><![CDATA[
@font-face {
  font-family: "ifont";
  src: url("//at.alicdn.com/t/font_1442373896_4754455.eot?#iefix") format("embedded-opentype"), url("//at.alicdn.com/t/font_1442373896_4754455.woff") format("woff"), url("//at.alicdn.com/t/font_1442373896_4754455.ttf") format("truetype"), url("//at.alicdn.com/t/font_1442373896_4754455.svg#ifont") format("svg");
}

]]></style></defs><g class="transform-group"><g transform="scale(0.1953125, 0.1953125)"><path d="M232.871745 759.089561c-2.560312 0-5.462408 0-8.364505 0-31.159674 0-62.320371 0.030699-93.480045-0.013303-15.096836-0.021489-20.615527-5.526877-20.620643-20.549012-0.023536-64.758909-0.089028-129.516796 0.01842-194.275705 0.085958-52.144614 38.939871-92.100628 91.179652-93.839225 10.486842-0.348947 20.996197-0.050142 32.380478-0.050142 0-4.01443 0-7.182586 0-10.350742-0.001023-82.371032-0.011256-164.741042 0.00307-247.112074 0.005117-32.836873 18.549471-51.543933 51.208289-51.553143 105.131409-0.027629 210.262818-0.186242 315.393203 0.100284 33.108049 0.090051 61.891605 12.142551 85.594447 35.335786 23.044856 22.549575 45.833885 45.367257 68.410066 68.38653 23.025413 23.476691 34.825157 52.046377 35.307134 84.809571 0.542352 36.842093 0.125867 73.698512 0.125867 110.547769 0 2.929726 0 5.858428 0 9.779737 10.600429 0 20.531616-0.166799 30.456662 0.028653 44.175105 0.86981 80.679507 29.41596 90.425476 71.175039 1.886977 8.085142 2.560312 16.617469 2.587941 24.947182 0.206708 63.945381 0.130983 127.890762 0.103354 191.836143-0.00614 15.106046-5.586229 20.756743-20.533662 20.780279-31.159674 0.050142-62.320371 0.01535-93.480045 0.01535-2.910283 0-5.819542 0-9.562796 0 0 25.069979-0.021489 49.373501 0.00921 73.678046 0.014326 11.366885-2.204202 22.029736-9.312086 31.273261-9.978259 12.974499-23.216771 18.7132-39.47813 18.681478-62.047148-0.122797-124.095319-0.049119-186.143491-0.049119-89.957825 0-179.914626 0.004093-269.87245-0.002047-32.763195-0.002047-51.199079-18.532075-51.245128-51.445696-0.032746-23.300682-0.084934-46.600341-0.159636-69.901023C233.819326 760.852718 233.435587 760.381997 232.871745 759.089561zM727.913515 326.550311c-3.297093 0-6.201236 0-9.105379 0-21.678742-0.001023-43.357484-0.01842-65.035202 0.00307-16.457834 0.016373-30.051433-5.871731-40.074717-19.243273-6.991228-9.326413-8.996908-20.054755-8.982582-31.394011 0.030699-24.041556 0.00921-48.084135 0.00921-72.481801-103.299691 0-205.822692 0-308.482817 0 0 102.991676 0 205.5157 0 308.008003 144.252405 0 287.953248 0 431.67251 0C727.913515 449.650977 727.913515 388.509455 727.913515 326.550311zM727.924771 697.872315c-144.331199 0-288.040229 0-431.570179 0 0 41.313941 0 82.050738 0 122.710786 144.16747 0 287.671838 0 431.570179 0C727.924771 779.566942 727.924771 739.02355 727.924771 697.872315zM820.879859 511.943718c-16.896832 0.004093-30.980595 14.244422-30.836309 31.182186 0.141216 16.60826 13.985526 30.549783 30.518061 30.735002 16.797571 0.188288 31.198559-13.982456 31.309076-30.80868C851.980181 526.145162 837.82888 511.939625 820.879859 511.943718z" fill="#272636"></path></g></g></svg>