<?xml version="1.0" standalone="no"?><!DOCTYPE svg PUBLIC "-//W3C//DTD SVG 1.1//EN" "http://www.w3.org/Graphics/SVG/1.1/DTD/svg11.dtd"><svg t="1491536114227" class="icon" style="" viewBox="0 0 1130 1024" version="1.1" xmlns="http://www.w3.org/2000/svg" p-id="3515" xmlns:xlink="http://www.w3.org/1999/xlink" width="1324.21875" height="1200"><defs><style type="text/css"></style></defs><path d="M167.301286 348.973474 414.297582 407.04C417.368276 407.769265 420.433736 408.099367 423.466069 408.099367 439.042726 408.099367 453.278462 398.99958 457.508726 385.158737 462.535874 368.65179 451.377805 351.664842 432.564803 347.250526L185.556298 289.184C166.8113 284.744421 147.412407 294.533053 142.345155 311.072 137.318008 327.572211 148.488283 344.559158 167.301286 348.973474L167.301286 348.973474Z" p-id="3516"></path><path d="M167.301286 519.060212 414.297582 577.441683C417.368276 578.177684 420.433736 578.506106 423.466069 578.506106 439.042726 578.506106 453.278462 569.35579 457.508726 555.434104 462.535874 538.842949 451.377805 521.756633 432.564803 517.322106L185.556298 458.933894C166.8113 454.499367 147.412407 464.316631 142.345155 480.941473 137.318008 497.539369 148.488283 514.625684 167.301286 519.060212L167.301286 519.060212Z" p-id="3517"></path><path d="M167.301286 689.973894 414.297582 747.861896C417.368276 748.579367 420.433736 748.914526 423.466069 748.914526 439.042726 748.914526 453.278462 739.848422 457.508726 726.046317 462.535874 709.598317 451.377805 692.658526 432.564803 688.262737L185.556298 630.381473C166.8113 626.00758 147.412407 635.717053 142.345155 652.197051 137.318008 668.651788 148.488283 685.57979 167.301286 689.973894L167.301286 689.973894Z" p-id="3518"></path><path d="M1115.327375 7.941053C1106.643643 1.446737 1095.20658-0.783158 1084.730304 2.046316L564.576669 136.677053 44.417798 2.046316C33.941524-0.742737 22.497485 1.446737 13.813756 7.941053 5.102127 14.361263 0 24.382316 0 34.967579L0 852.928C0 868.335157 10.715164 881.849263 26.155811 885.83579L555.443059 1022.83621C558.440515 1023.631159 561.505976 1024 564.576669 1024 567.635152 1024 570.70759 1023.631159 573.705047 1022.83621L1102.992292 885.83579C1118.425964 881.849263 1129.148105 868.335157 1129.148105 852.928L1129.148105 34.967579C1129.155079 24.375579 1124.045976 14.361263 1115.327375 7.941053L1115.327375 7.941053ZM533.10774 961.013894 57.94384 838.03958 57.94384 63.868632 533.10774 186.842947 533.10774 961.013894 533.10774 961.013894ZM1070.093513 836.506949 597.163322 958.908631 597.163322 188.375579 1070.093513 65.980632 1070.093513 836.506949 1070.093513 836.506949Z" p-id="3519"></path><path d="M705.682037 408.099367C708.714365 408.099367 711.785059 407.762527 714.850519 407.026526L961.852049 348.033684C980.665051 343.546947 991.830097 326.288842 986.802949 309.519158 981.735696 292.724211 962.404808 282.736842 943.591805 287.289263L696.588532 346.283789C677.775529 350.763789 666.612231 368.020212 671.639375 384.796633 675.874876 398.854737 690.112353 408.099367 705.682037 408.099367L705.682037 408.099367Z" p-id="3520"></path><path d="M705.682037 578.506106C708.714365 578.506106 711.785059 578.170947 714.850519 577.421474L961.852049 518.019369C980.665051 513.500633 991.830097 496.124631 986.802949 479.24379 981.735696 462.322526 962.404808 452.303159 943.591805 456.848843L696.588532 516.255998C677.775529 520.769684 666.612231 538.150735 671.639375 555.033265 675.874876 569.197473 690.112353 578.506106 705.682037 578.506106L705.682037 578.506106Z" p-id="3521"></path><path d="M705.682037 748.914526C708.714365 748.914526 711.785059 748.579367 714.850519 747.855159L961.852049 689.684212C980.665051 685.269896 991.830097 668.250949 986.802949 651.717053 981.735696 635.157896 962.404808 625.369265 943.591805 629.797051L696.588532 687.961265C677.775529 692.382317 666.612231 709.394527 671.639375 725.92842 675.874876 739.802949 690.112353 748.914526 705.682037 748.914526L705.682037 748.914526Z" p-id="3522"></path></svg>