<?xml version="1.0" standalone="no"?><!DOCTYPE svg PUBLIC "-//W3C//DTD SVG 1.1//EN" "http://www.w3.org/Graphics/SVG/1.1/DTD/svg11.dtd"><svg xmlns:xlink="http://www.w3.org/1999/xlink" xmlns="http://www.w3.org/2000/svg" version="1.1" width="200" height="200" viewBox="0 0 200 200"><defs><style type="text/css"><![CDATA[
@font-face {
  font-family: "ifont";
  src: url("//at.alicdn.com/t/font_1442373896_4754455.eot?#iefix") format("embedded-opentype"), url("//at.alicdn.com/t/font_1442373896_4754455.woff") format("woff"), url("//at.alicdn.com/t/font_1442373896_4754455.ttf") format("truetype"), url("//at.alicdn.com/t/font_1442373896_4754455.svg#ifont") format("svg");
}

]]></style></defs><g class="transform-group"><g transform="scale(0.1953125, 0.1953125)"><path d="M824.460807 869.961003 153.538602 869.961003l0-670.960067 486.53303 0 87.504785-87.504785L109.785186 111.496151c-24.164304 0-43.752392 19.588088-43.752392 43.752392l0 758.464852c0 24.163281 19.588088 43.753416 43.752392 43.753416l758.464852 0c24.126442 0 43.715553-19.590135 43.715553-43.753416l0-615.333253-87.504785 87.504785L824.460807 869.961003zM820.413639 325.001399 697.249774 202.063685 327.639477 570.915713l123.203773 122.938738L820.413639 325.001399zM943.577503 140.612224l-61.561978-61.486253c-17.018571-16.980709-44.585362-16.980709-61.601887 0l-92.383899 92.231427 123.20275 122.937714 92.345013-92.231427C960.596075 185.085022 960.596075 157.592933 943.577503 140.612224zM255.639797 765.514394l164.193245-40.916817L296.631315 601.620978 255.639797 765.514394z" fill="#272636"></path></g></g></svg>