<?xml version="1.0" standalone="no"?><!DOCTYPE svg PUBLIC "-//W3C//DTD SVG 1.1//EN" "http://www.w3.org/Graphics/SVG/1.1/DTD/svg11.dtd"><svg width="200" height="200" viewBox="0 0 200 200" version="1.1" xmlns="http://www.w3.org/2000/svg" xmlns:xlink="http://www.w3.org/1999/xlink"><defs><style type="text/css"><![CDATA[
@font-face { font-family: ifont; src: url("http://at.alicdn.com/t/font_1442373896_4754455.eot?#iefix") format("embedded-opentype"), url("http://at.alicdn.com/t/font_1442373896_4754455.woff") format("woff"), url("http://at.alicdn.com/t/font_1442373896_4754455.ttf") format("truetype"), url("http://at.alicdn.com/t/font_1442373896_4754455.svg#ifont") format("svg"); }

]]></style></defs><g class="transform-group"><g transform="scale(0.1953125, 0.1953125)"><path d="M509.174 888.874c-203.747 0-369.5-165.751-369.5-369.504 0-203.747 165.758-369.504 369.5-369.504 203.749 0 369.504 165.758 369.504 369.504 0 203.749-165.751 369.504-369.504 369.504zM509.174 214.122c-168.315 0-305.249 136.931-305.249 305.249s136.931 305.25 305.249 305.25 305.25-136.935 305.25-305.25-136.935-305.249-305.25-305.249zM509.174 753.916c-17.716 0-32.126-14.406-32.126-32.124v-303.634c0-17.716 14.407-32.126 32.126-32.126s32.125 14.407 32.125 32.126v303.635c-0.001 17.714-14.407 32.123-32.125 32.123zM509.174 349.071c-17.716 0-32.126-14.404-32.126-32.124v-16.873c0-17.714 14.407-32.124 32.126-32.124s32.125 14.407 32.125 32.124v16.873c-0.001 17.715-14.407 32.124-32.125 32.124z" fill="#272636"></path></g></g></svg>