<?xml version="1.0" standalone="no"?><!DOCTYPE svg PUBLIC "-//W3C//DTD SVG 1.1//EN" "http://www.w3.org/Graphics/SVG/1.1/DTD/svg11.dtd"><svg t="1487924014668" class="icon" style="" viewBox="0 0 1024 1024" version="1.1" xmlns="http://www.w3.org/2000/svg" p-id="1002" xmlns:xlink="http://www.w3.org/1999/xlink" width="1024" height="1024"><defs><style type="text/css"></style></defs><path d="M511.997953 64.565505c159.646 0 289.10856 127.476323 289.10856 284.771789 0 157.25044-129.403209 284.71653-289.10856 284.71653-159.694095 0-289.056372-127.476323-289.056372-284.71346C222.941582 192.041828 352.355023 64.565505 511.997953 64.565505L511.997953 64.565505zM511.997953 552.662095c114.046453 0 206.506261-91.069135 206.506261-203.384154 0-112.352881-92.459808-203.37392-206.506261-203.37392S305.491693 236.977249 305.491693 349.277942C305.491693 461.642079 397.951501 552.662095 511.997953 552.662095L511.997953 552.662095zM511.997953 552.662095c228.133837 0 413.018661 182.107571 413.018661 406.7724l-82.612533 0c0-179.670056-147.927097-325.380672-330.406129-325.380672S181.585685 779.76444 181.585685 959.434495l-82.6023 0C98.982362 734.769666 283.864116 552.662095 511.997953 552.662095L511.997953 552.662095z" p-id="1003"></path></svg>