<?xml version="1.0" standalone="no"?><!DOCTYPE svg PUBLIC "-//W3C//DTD SVG 1.1//EN" "http://www.w3.org/Graphics/SVG/1.1/DTD/svg11.dtd"><svg t="1499309783041" class="icon" style="" viewBox="0 0 1024 1024" version="1.1" xmlns="http://www.w3.org/2000/svg" p-id="10527" xmlns:xlink="http://www.w3.org/1999/xlink" width="1024" height="1024"><defs><style type="text/css"></style></defs><path d="M616.59136 403.80928a207.92832 207.92832 0 0 0-21.7088-18.81088l-70.22592 70.13888a115.08736 115.08736 0 0 1 22.9376 17.664l3.51744 3.51744c44.91264 44.91264 44.91264 118.03648 0 162.94912l-191.60064 191.6928c-44.91264 44.90752-118.03648 44.90752-162.94912 0l-3.51744-3.51744c-44.91264-44.91264-44.91264-118.0416 0-162.95424l86.74816-86.74816a296.5504 296.5504 0 0 1-21.53472-116.36736L124.0576 595.584c-82.70848 82.70848-82.70848 218.14784 0 300.8512l3.51232 3.51232c82.7904 82.70848 218.14784 82.70848 300.8512 0l191.6928-191.68768c82.70336-82.70336 82.70336-218.14272 0-300.8512l-3.51744-3.59936z m283.35616-276.15744l-3.51232-3.51232c-82.70848-82.70848-218.14784-82.70848-300.8512 0L403.8144 315.83232c-82.70848 82.69824-82.70848 218.14272 0 300.84608l3.51232 3.51232a219.70432 219.70432 0 0 0 21.7088 18.89792l70.13888-70.13888a115.08736 115.08736 0 0 1-22.9376-17.664l-3.51744-3.60448c-44.91264-44.91264-44.91264-118.03648 0-162.94912l191.6928-191.6928c44.90752-44.90752 118.03136-44.90752 162.944 0l3.51744 3.51744c44.91264 44.91264 44.91264 118.03648 0 162.94912L744.12032 446.2592a296.5504 296.5504 0 0 1 21.53472 116.36736l134.2976-134.1184c82.70336-82.7904 82.70336-218.14784 0-300.8512z" fill="#272636" p-id="10528"></path></svg>