<?xml version="1.0" standalone="no"?><!DOCTYPE svg PUBLIC "-//W3C//DTD SVG 1.1//EN" "http://www.w3.org/Graphics/SVG/1.1/DTD/svg11.dtd"><svg t="1499309704212" class="icon" style="" viewBox="0 0 1024 1024" version="1.1" xmlns="http://www.w3.org/2000/svg" p-id="8134" xmlns:xlink="http://www.w3.org/1999/xlink" width="1024" height="1024"><defs><style type="text/css"></style></defs><path d="M833.255 255.634v0 0zM347.726 420.883h345.986v69.942h-345.986zM886.819 420.883h-101.918v132.688h-520.317v-132.688h-143.166v460.524h781.165v-460.524h-15.762zM595.294 746.902c5.031 0.386 8.997 2.322 11.9 5.804s4.547 7.642 4.934 12.48c-0.386 5.030-2.033 9.238-4.934 12.624-2.903 3.386-6.869 5.272-11.9 5.66l-55.723-0.291v30.763c-0.774 16.446-9.771 24.669-26.992 24.669-8.514 0-15.14-2.033-19.88-6.096-4.741-4.063-7.304-10.255-7.69-18.574v-30.184h-56.015c-5.225-0.386-9.238-2.563-12.045-6.531-2.806-3.967-4.499-8.368-5.079-13.205 0.58-4.837 2.273-8.803 5.079-11.899 2.806-3.096 6.82-4.838 12.045-5.225h56.015v-18.285l-56.015-0.291c-5.225-0.386-9.238-2.226-12.045-5.514-2.806-3.289-4.499-7.448-5.079-12.48 0.58-4.837 2.273-8.803 5.079-11.899 2.806-3.096 6.82-4.837 12.045-5.224h41.793l-38.89-68.494c-1.935-2.322-3.773-5.272-5.514-8.852s-2.515-7.497-2.322-11.754c0.967-5.418 2.903-9.819 5.804-13.206 2.903-3.386 8.32-5.562 16.252-6.531 4.643 0.386 8.803 1.983 12.48 4.789 3.677 2.805 6.675 5.853 8.996 9.142l44.115 80.683 48.468-81.263c2.322-3.289 5.321-6.191 8.996-8.707 3.677-2.515 7.837-4.063 12.48-4.643 2.903 0.193 5.562 0.58 7.981 1.161 2.419 0.58 4.547 1.548 6.384 2.903s3.386 3.289 4.643 5.804c1.258 2.514 2.176 5.804 2.756 9.868 0 5.61-1.934 10.932-5.804 15.963l-44.986 73.137h42.664c5.031 0.386 8.997 2.128 11.9 5.224s4.547 7.062 4.934 11.899c-0.386 5.030-2.080 9.288-5.079 12.771-2.999 3.482-7.013 5.417-12.044 5.804l-55.432 0.291v17.704h55.723zM672.997 269.625l-167.031-167.032-167.030 167.032h86.938l2.314 128.388h158.241v-128.388z" p-id="8135"></path></svg>