<?xml version="1.0" standalone="no"?><!DOCTYPE svg PUBLIC "-//W3C//DTD SVG 1.1//EN" "http://www.w3.org/Graphics/SVG/1.1/DTD/svg11.dtd"><svg t="1499310650275" class="icon" style="" viewBox="0 0 1024 1024" version="1.1" xmlns="http://www.w3.org/2000/svg" p-id="11182" xmlns:xlink="http://www.w3.org/1999/xlink" width="1024" height="1024"><defs><style type="text/css"></style></defs><path d="M789.8 959.8c-6 0-11.9-2.3-16.5-6.8-9.1-9.1-9.1-23.9 0-33l94.7-94.7-94.7-94.7c-9.1-9.1-9.1-23.9 0-33 9.1-9.1 23.9-9.1 33 0l111.2 111.2c9.1 9.1 9.1 23.9 0 33L806.3 952.9c-4.6 4.6-10.5 6.9-16.5 6.9z" p-id="11183"></path><path d="M901 848.6H549c-12.9 0-23.3-10.4-23.3-23.3S536.1 802 549 802h352c12.9 0 23.3 10.4 23.3 23.3s-10.5 23.3-23.3 23.3zM527.4 576.1c-141.1 0-255.9-114.8-255.9-255.9s114.8-256 255.9-256c141.1 0 255.9 114.8 255.9 255.9s-114.8 256-255.9 256z m0-465.2c-115.4 0-209.3 93.9-209.3 209.3S412 529.4 527.4 529.4s209.3-93.9 209.3-209.3-93.9-209.2-209.3-209.2z" p-id="11184"></path><path d="M123.1 950.9c-0.7 0-1.4 0-2-0.1-12.8-1.1-22.3-12.4-21.2-25.3 19-219.8 206.9-392 427.6-392 79.8 0 157.6 22 225.1 63.7 11 6.8 14.4 21.2 7.6 32.1-6.8 11-21.2 14.4-32.1 7.6-60.1-37.1-129.5-56.8-200.6-56.8-196.7 0-364.1 153.5-381.1 349.4-1.2 12.2-11.4 21.4-23.3 21.4z" p-id="11185"></path></svg>