<?xml version="1.0" standalone="no"?><!DOCTYPE svg PUBLIC "-//W3C//DTD SVG 1.1//EN" "http://www.w3.org/Graphics/SVG/1.1/DTD/svg11.dtd"><svg width="32" height="32" viewBox="0 0 32 32" version="1.1" xmlns="http://www.w3.org/2000/svg" xmlns:xlink="http://www.w3.org/1999/xlink"><defs><style type="text/css"><![CDATA[
@font-face { font-family: ifont; src: url(http://at.alicdn.com/t/font_1442373896_4754455.eot?#iefix) format(embedded-opentype), url(http://at.alicdn.com/t/font_1442373896_4754455.woff) format(woff), url(http://at.alicdn.com/t/font_1442373896_4754455.ttf) format(truetype), url(http://at.alicdn.com/t/font_1442373896_4754455.svg#ifont) format(svg); }

]]></style></defs><g class="transform-group"><g transform="scale(0.03125, 0.03125)"><path d="M583.2028 374.1737c-16.6676-15.2566-32.4096-27.8856-53.2982-27.8856-20.9459 0-41.6379 14.3964-56.5115 27.8856-2.3828 2.3552-231.5295 209.4111-280.3395 253.4144v188.37504c0 7.8623 2.9993 15.7235 8.9979 21.7221 5.9986 5.9986 13.8609 8.9979 21.7221 8.9979h173.554688c3.9301 0 7.8602-1.4991 10.8585-4.4974 2.9993-2.9983 4.4995-6.8792 4.5005-10.8093l0.042-134.783c0.001-3.9311 1.5012-7.8397 4.5015-10.838 2.9993-2.9983 6.9294-4.4974 10.8585-4.4974h195.10784c3.9311 0 7.8623 1.5002 10.8605 4.4995s4.4995 6.9304 4.4995 10.8605v134.704128c0 3.9311 1.5002 7.8623 4.4995 10.8605s6.9304 4.4995 10.8605 4.4995h177.11104c7.8623 0 15.7235-2.9993 21.7221-8.9979 5.9986-5.9976 8.9979-13.8598 8.9979-21.7221V629.341184C812.3361 584.1736 584.9825 375.9268 583.2028 374.1737zM976.0215 540.4733c-0.6031-14.078-7.1485-26.9804-19.6526-38.7164l-22.3099-21.9924c-11.3121-11.1493-25.2959-24.4879-41.9625-40.0323-16.6666-15.5433-34.9645-32.9912-54.9038-52.3561-19.9414-19.3649-40.3333-38.8669-61.1492-58.5062-20.8435-19.6659-41.3727-39.168-61.5997-58.5185-20.2435-19.3649-38.5526-36.8128-54.9181-52.3571-16.3656-15.5443-30.1978-28.7468-41.5099-39.593-11.3121-10.8605-18.7505-17.7357-22.3232-20.6797-18.4494-17.5985-40.7583-26.2533-66.9573-25.9523-26.1837 0.2867-50.5887 11.2845-73.1996 32.9912-2.986 2.9307-13.5311 12.7498-31.6908 29.4717-18.1586 16.7219-39.8797 36.8128-65.1745 60.2726-25.2948 23.4742-52.6715 48.7004-82.1299 75.6797-29.4717 26.9793-56.9989 52.2045-82.5815 75.6654-25.5959 23.4609-47.618 43.7023-66.0654 60.7109-18.4617 17.0097-29.4717 27.2824-33.0332 30.8009-9.5314 8.8054-14.5848 20.6797-15.1736 35.6342-0.6031 14.9699 5.0534 27.7197 16.9544 38.2781 10.71 9.3972 23.5151 13.7789 38.3877 13.2035 14.8859-0.5888 26.7868-4.4114 35.7028-11.4493 2.986-2.3409 11.7647-10.1069 26.3496-23.3103 14.5715-13.2024 31.9918-29.184 52.2332-47.9601 20.2281-18.7628 42.2492-39.0042 66.0521-60.7109 23.8162-21.7068 46.4271-42.5236 67.8595-62.464 21.42-19.9537 40.319-37.4006 56.6835-52.3704 16.3656-14.9555 27.5282-25.0624 33.4848-30.3483 17.8586-15.831 36.0049-24.0486 54.4522-24.6374 18.4484-0.5888 37.1958 7.6278 56.2473 24.6374 4.1626 3.5195 13.9827 12.6126 29.4584 27.2804 15.4767 14.6545 33.9231 31.9642 55.3574 51.9045 21.419 19.9414 44.1928 41.2088 68.2967 63.7921 24.1029 22.5976 46.7139 43.7146 67.8461 63.3539 21.1313 19.6516 39.2765 36.5251 54.4645 50.5897 15.1736 14.078 24.2412 22.2956 27.2261 24.6508 8.9303 7.6145 20.8312 11.7217 35.7038 12.3105 14.8859 0.5888 27.9788-4.095 39.2909-14.079C971.8436 566.2894 976.6093 554.5513 976.0215 540.4733z" fill="#272636"></path></g></g></svg>