<?xml version="1.0" standalone="no"?><!DOCTYPE svg PUBLIC "-//W3C//DTD SVG 1.1//EN" "http://www.w3.org/Graphics/SVG/1.1/DTD/svg11.dtd"><svg width="32" height="32" viewBox="0 0 32 32" version="1.1" xmlns="http://www.w3.org/2000/svg" xmlns:xlink="http://www.w3.org/1999/xlink"><defs><style type="text/css"><![CDATA[
@font-face { font-family: ifont; src: url(http://at.alicdn.com/t/font_1442373896_4754455.eot?#iefix) format(embedded-opentype), url(http://at.alicdn.com/t/font_1442373896_4754455.woff) format(woff), url(http://at.alicdn.com/t/font_1442373896_4754455.ttf) format(truetype), url(http://at.alicdn.com/t/font_1442373896_4754455.svg#ifont) format(svg); }

]]></style></defs><g class="transform-group"><g transform="scale(0.03125, 0.03125)"><path d="M702.278671 578.596767c0-5.260817-4.27742-9.517771-9.513678-9.517771L331.233983 569.078996c-5.259794 0-9.517771 4.256954-9.517771 9.517771l0 38.053688c0 5.260817 4.261047 9.517771 9.517771 9.517771l361.53101 0c5.236258 0 9.513678-4.256954 9.513678-9.517771L702.278671 578.596767zM692.764993 702.276624 331.233983 702.276624c-5.259794 0-9.517771 4.252861-9.517771 9.513678l0 38.057781c0 5.256724 4.261047 9.513678 9.517771 9.513678l361.53101 0c5.236258 0 9.513678-4.256954 9.513678-9.513678l0-38.057781C702.278671 706.529485 698.001251 702.276624 692.764993 702.276624zM816.440757 359.77297l0 418.616146c0 36.159548-0.075725 50.661843 0 76.112492-26.673499 0-36.235272 0-76.108399 0L283.662525 854.501608l-76.112492 0 0-76.112492L207.550033 245.605767l0-76.108399c13.882172 0.028653 33.066093 0 76.112492 0l380.561435 0 57.077973-76.112492L207.554126 93.384877c-42.035372 0-76.112492 34.07712-76.112492 76.112492l0 685.004239c0 42.031279 34.07712 76.112492 76.112492 76.112492l608.886631 0c42.032302 0 76.116585-34.081213 76.116585-76.112492L892.557342 302.690904 816.440757 359.77297zM882.480846 170.092933c10.076496-13.602809 4.999874-28.839839-0.255827-37.906332-8.642844-14.865569-26.054399-29.007661-37.442774-32.92897-10.612709-3.66139-28.968775-5.872754-41.34771 7.730055-4.904707 5.38873-13.45136 16.017812-18.783809 22.596647l80.477916 63.177901C865.128643 192.762235 872.451422 183.695742 882.480846 170.092933zM600.004333 382.201795c-3.090385 10.036587-11.264555 58.236356-11.600199 72.954569-0.295735 13.898545 4.29277 18.782785 17.652032 15.289218 13.047154-3.397377 56.676837-24.375154 70.275553-33.500998 6.52767-4.365424 12.975523-10.796904 17.244756-16.261359 6.731308-8.601912 146.780994-195.275475 146.780994-195.275475l-80.4421-63.197344c0 0-139.213645 184.427406-149.210323 198.305485C604.980671 368.471073 602.362031 374.49016 600.004333 382.201795z" fill="#272636"></path></g></g></svg>