<?xml version="1.0" standalone="no"?><!DOCTYPE svg PUBLIC "-//W3C//DTD SVG 1.1//EN" "http://www.w3.org/Graphics/SVG/1.1/DTD/svg11.dtd"><svg width="32.1875" height="32" viewBox="0 0 32.1875 32" version="1.1" xmlns="http://www.w3.org/2000/svg" xmlns:xlink="http://www.w3.org/1999/xlink"><defs><style type="text/css"><![CDATA[
@font-face { font-family: ifont; src: url(http://at.alicdn.com/t/font_1442373896_4754455.eot?#iefix) format(embedded-opentype), url(http://at.alicdn.com/t/font_1442373896_4754455.woff) format(woff), url(http://at.alicdn.com/t/font_1442373896_4754455.ttf) format(truetype), url(http://at.alicdn.com/t/font_1442373896_4754455.svg#ifont) format(svg); }

]]></style></defs><g class="transform-group"><g transform="scale(0.03125, 0.03125)"><path d="M517.12 0c-282.624 0-512 229.376-512 512s229.376 512 512 512 512-229.376 512-512S799.744 0 517.12 0zM517.12 983.04c-260.096 0-471.04-210.944-471.04-471.04 0-260.096 210.944-471.04 471.04-471.04 260.096 0 471.04 210.944 471.04 471.04C988.16 772.096 776.192 983.04 517.12 983.04zM620.544 275.456l-84.992 173.056c-7.168 13.312-12.288 26.624-16.384 38.912l-1.024 0C512 472.064 506.88 459.776 501.76 450.56l-83.968-175.104-70.656 0 120.832 224.256L368.64 499.712l0 49.152 116.736 0 0 68.608L368.64 617.472l0 50.176 116.736 0 0 99.328 61.44 0 0-99.328 113.664 0 0-50.176L547.84 617.472l0-68.608 113.664 0 0-49.152-96.256 0L686.08 275.456 620.544 275.456z" fill="#272636"></path></g></g></svg>