<?xml version="1.0" standalone="no"?><!DOCTYPE svg PUBLIC "-//W3C//DTD SVG 1.1//EN" "http://www.w3.org/Graphics/SVG/1.1/DTD/svg11.dtd"><svg width="200" height="200" viewBox="0 0 200 200" version="1.1" xmlns="http://www.w3.org/2000/svg" xmlns:xlink="http://www.w3.org/1999/xlink"><defs><style type="text/css"><![CDATA[
@font-face { font-family: ifont; src: url(http://at.alicdn.com/t/font_1442373896_4754455.eot?#iefix) format(embedded-opentype), url(http://at.alicdn.com/t/font_1442373896_4754455.woff) format(woff), url(http://at.alicdn.com/t/font_1442373896_4754455.ttf) format(truetype), url(http://at.alicdn.com/t/font_1442373896_4754455.svg#ifont) format(svg); }

]]></style></defs><g class="transform-group"><g transform="scale(0.1953125, 0.1953125)"><path d="M645.49541 51.742455c-170.81641 0-309.289182 138.475841-309.289182 309.288159 0 58.171887 16.072047 112.585171 44.00012 159.063739l-312.947502 312.947502 0 106.2243c0 14.854313 12.041244 26.897603 26.894534 26.897603l106.22737 0 1.351787-1.348718 0-65.783239c0-8.848529 5.266957-13.125949 13.065574-13.553691 14.862499-0.800225 38.85903-0.291642 53.800323-0.291642 7.049556 0 13.818727-5.321192 13.818727-12.619412l0-54.318116c0-9.863648 5.17179-13.452383 13.267165-13.452383l54.212716 0c7.29208 0 13.20372-5.606695 13.20372-13.06148l0-53.803393c0-10.019191 4.357238-13.818727 13.275351-13.818727l66.057485 0 79.491449-79.492472c37.85005 16.516162 79.634712 25.697265 123.570363 25.697265 170.81641 0 309.289182-138.473795 309.289182-309.288159C954.784592 190.218296 816.311821 51.742455 645.49541 51.742455zM699.284477 414.82275c-59.414181 0-107.579157-48.165999-107.579157-107.578134 0-59.412135 48.164976-107.577111 107.579157-107.577111 59.414181 0 107.579157 48.165999 107.579157 107.577111C806.863634 366.657774 758.699682 414.82275 699.284477 414.82275z" fill="#272636"></path></g></g></svg>