<?xml version="1.0" standalone="no"?><!DOCTYPE svg PUBLIC "-//W3C//DTD SVG 1.1//EN" "http://www.w3.org/Graphics/SVG/1.1/DTD/svg11.dtd"><svg width="200" height="200" viewBox="0 0 200 200" version="1.1" xmlns="http://www.w3.org/2000/svg" xmlns:xlink="http://www.w3.org/1999/xlink"><defs><style type="text/css"><![CDATA[
@font-face { font-family: ifont; src: url(http://at.alicdn.com/t/font_1442373896_4754455.eot?#iefix) format(embedded-opentype), url(http://at.alicdn.com/t/font_1442373896_4754455.woff) format(woff), url(http://at.alicdn.com/t/font_1442373896_4754455.ttf) format(truetype), url(http://at.alicdn.com/t/font_1442373896_4754455.svg#ifont) format(svg); }

]]></style></defs><g class="transform-group"><g transform="scale(0.1953125, 0.1953125)"><path d="M512 427.008q34.016 0 59.008 24 12 12 18.496 27.488t6.496 32.512q0 34.016-24.992 59.008-4.992 4.992-10.016 8.512t-11.008 6.496-12.512 4.992-12.992 3.488-12.512 1.504q-35.008 0-59.488-24.992t-24.512-59.488 24-59.488q8-7.008 17.504-12.992t20.512-8.512 22.016-2.496zM844 427.008q35.008 0 59.008 24 8 8 13.504 17.504t8.512 20.512 3.008 22.016q0 34.016-24.992 59.008-4.992 6.016-12 10.496t-14.496 7.488-16 4.992-16.512 2.016q-35.008 0-59.488-24.992t-24.512-59.488 24.992-59.488q11.008-11.008 27.008-17.504t32-6.496zM179.008 427.008q35.008 0 59.008 24 8 8 13.504 17.504t8.512 20.512 3.008 22.016q0 34.016-24.512 59.008t-59.488 24.992-59.008-24.992q-12-12-18.496-27.488t-6.496-31.488q0-35.008 24.992-60 11.008-11.008 27.008-17.504t32-6.496z" fill="#272636"></path></g></g></svg>