<?xml version="1.0" standalone="no"?><!DOCTYPE svg PUBLIC "-//W3C//DTD SVG 1.1//EN" "http://www.w3.org/Graphics/SVG/1.1/DTD/svg11.dtd"><svg width="200" height="200" viewBox="0 0 200 200" version="1.1" xmlns="http://www.w3.org/2000/svg" xmlns:xlink="http://www.w3.org/1999/xlink"><defs><style type="text/css"><![CDATA[
@font-face { font-family: ifont; src: url("//at.alicdn.com/t/font_1442373896_4754455.eot?#iefix") format("embedded-opentype"), url("//at.alicdn.com/t/font_1442373896_4754455.woff") format("woff"), url("//at.alicdn.com/t/font_1442373896_4754455.ttf") format("truetype"), url("//at.alicdn.com/t/font_1442373896_4754455.svg#ifont") format("svg"); }

]]></style></defs><g class="transform-group"><g transform="scale(0.1953125, 0.1953125)"><path d="M824.079226 294.002011c-0.873903 15.07944-1.249457 46.046732-4.240581 69.016887l80.461543-28.760021 0 428.579055c0 0-164.940586 48.969295-254.28545 74.085322l-312.24449-87.606267-208.644971 70.998007L125.125277 393.59017l77.283154-21.089317c-2.220574-12.923334-3.124154-45.782719-3.124154-59.545164L65.274144 343.91377l0 559.031153 44.674479-14.592346 223.603661-72.620971 312.462454 87.49882 312.710095-87.546915L958.724833 256.605286 824.079226 294.002011zM512.088516 120.767528 242.674507 120.767528 242.674507 659.595546l269.412986 0L512.087493 120.767528zM343.705528 524.889565l-67.345828 0 0-67.360154 67.345828 0L343.705528 524.889565zM343.705528 390.18256l-67.345828 0 0-67.347874 67.345828 0L343.705528 390.18256zM343.705528 255.474532l-67.345828 0 0-67.344804 67.345828 0L343.705528 255.474532zM478.416626 524.889565 411.055448 524.889565l0-67.360154 67.360154 0L478.415602 524.889565zM478.416626 390.18256 411.055448 390.18256l0-67.347874 67.360154 0L478.415602 390.18256zM478.416626 255.474532 411.055448 255.474532l0-67.344804 67.360154 0L478.415602 255.474532zM545.762453 206.433606l235.737002 0 0 148.849096-235.737002 0 0-148.849096ZM623.254362 483.443617 703.998337 483.443617 703.998337 659.595546 781.499455 659.595546 781.499455 391.268288 545.762453 391.268288 545.762453 659.595546 623.254362 659.595546Z" fill="#272636"></path></g></g></svg>