<?xml version="1.0" standalone="no"?><!DOCTYPE svg PUBLIC "-//W3C//DTD SVG 1.1//EN" "http://www.w3.org/Graphics/SVG/1.1/DTD/svg11.dtd"><svg width="200" height="200" viewBox="0 0 200 200" version="1.1" xmlns="http://www.w3.org/2000/svg" xmlns:xlink="http://www.w3.org/1999/xlink"><defs><style type="text/css"><![CDATA[
@font-face { font-family: ifont; src: url("//at.alicdn.com/t/font_1442373896_4754455.eot?#iefix") format("embedded-opentype"), url("//at.alicdn.com/t/font_1442373896_4754455.woff") format("woff"), url("//at.alicdn.com/t/font_1442373896_4754455.ttf") format("truetype"), url("//at.alicdn.com/t/font_1442373896_4754455.svg#ifont") format("svg"); }

]]></style></defs><g class="transform-group"><g transform="scale(0.1953125, 0.1953125)"><path d="M612.933295 579.004043c0-8.988722 2.494821-16.191774 7.486508-21.61018 4.990664-5.417383 11.746532-8.126075 20.262486-8.126075 8.136308 0 14.46648 2.461051 18.984377 7.381108 4.517897 4.922103 6.77838 11.709693 6.77838 20.36891 0 8.894577-2.508123 16.015765-7.523347 21.361517-5.016247 5.347798-11.709693 8.020674-20.085454 8.020674-7.853875 0-14.134929-2.5071-18.842137-7.523347C615.285876 593.861426 612.933295 587.236542 612.933295 579.004043zM628.546901 578.223261c0 10.172687 3.736091 15.258519 11.212366 15.258519 7.617491 0 11.426237-5.298679 11.426237-15.897062 0-10.265808-3.643993-15.400758-10.92891-15.400758C632.449791 562.183959 628.546901 567.531757 628.546901 578.223261zM718.323601 550.757722l-71.467705 110.004393-17.813714 0 71.325465-110.004393L718.323601 550.757722zM681.065022 634.786511c0-9.083889 2.530636-16.310477 7.592932-21.681812 5.062296-5.369288 11.80486-8.055466 20.227694-8.055466 8.137331 0 14.465456 2.412956 18.984377 7.238868 4.517897 4.825912 6.777357 11.616572 6.777357 20.36891 0 8.989745-2.530636 16.170285-7.592932 21.539572-5.063319 5.370311-11.757788 8.054443-20.084431 8.054443-7.806803 0-14.077623-2.51938-18.807345-7.55814C683.429883 649.656173 681.065022 643.019009 681.065022 634.786511zM696.606996 634.006751c0 10.219759 3.761674 15.329127 11.283997 15.329127 7.569396 0 11.356652-5.298679 11.356652-15.897062 0-4.968152-1.00591-8.788154-3.015683-11.462053-2.012843-2.671852-4.696975-4.009314-8.05649-4.009314C700.462814 617.96745 696.606996 623.313202 696.606996 634.006751zM973.476815 494.415506c0-246.716055-200.00315-446.718181-446.719204-446.718181-246.715031 0-446.716134 200.002127-446.716134 446.718181 0 246.715031 200.002127 446.718181 446.716134 446.718181C773.472642 941.132664 973.476815 741.129514 973.476815 494.415506zM319.662949 733.441415l-1.228991 0c-4.073782 0-7.377014-3.304256-7.377014-7.378038l0-1.226944c0-4.074805 3.303232-7.378038 7.377014-7.378038l1.228991 0c0.436952 0 0.861624 0.045025 1.278109 0.11768l284.398282 0c-3.746324-2.228761-7.371898-4.638647-10.859325-7.225565L324.917626 710.35051l-2.044566 0c-6.78145 0-12.279674-5.357008-12.279674-11.964496l0-1.992377c0-6.607488 5.498224-11.963473 12.279674-11.963473l2.044566 0 243.399519 0c-1.777483-2.354628-3.475148-4.771677-5.092995-7.248078L317.379952 677.182087l0-0.045025c-0.109494 0.010233-0.221034 0.022513-0.334621 0.022513l-0.855484 0c-2.835581 0-5.134951-3.304256-5.134951-7.378038l0-1.226944c0-4.074805 2.299369-7.378038 5.134951-7.378038l0.855484 0c0.303922 0 0.599657 0.045025 0.889253 0.11768L554.386878 661.294235c-7.709589-16.514115-12.023848-34.93158-12.023848-54.359049 0-64.537875 47.521317-117.974925 109.48353-127.233799l0-35.823903c-21.454638-4.768607-36.325323-15.118326-36.325323-27.124777 0-16.529465 28.173666-29.930683 62.929238-29.930683 34.754548 0 62.929238 13.400195 62.929238 29.930683 0 11.911284-14.633279 22.195511-35.81367 27.013237l0 39.206954c54.277184 15.09479 94.112448 64.87352 94.112448 123.960243 0 53.441143-32.584116 99.266841-78.966493 118.705566l0 0.466628c0 4.043083-3.279696 7.323802-7.323802 7.323802l-0.896416 0 0 0.030699-18.064424 0c-7.590885 1.393743-15.413038 2.130524-23.406083 2.130524-7.993045 0-15.815197-0.73678-23.406083-2.130524L320.142879 733.459834l0-0.045025C319.983243 733.427088 319.824631 733.441415 319.662949 733.441415zM285.522384 414.70507c0-16.529465 28.17469-29.92966 62.930261-29.92966s62.930261 13.400195 62.930261 29.92966c0 11.911284-14.632255 22.195511-35.81367 27.013237l0 211.149001-53.720505 0L321.848731 441.829847C300.394093 437.06124 285.522384 426.711522 285.522384 414.70507zM446.684924 411.878698c0-16.529465 28.17469-29.930683 62.930261-29.930683s62.930261 13.400195 62.930261 29.930683c0 11.911284-14.634302 22.195511-35.81367 27.013237l0 211.147978L483.01127 650.039913l0-211.036437C461.556633 434.234869 446.684924 423.886173 446.684924 411.878698zM257.163499 366.280174l256.543887-140.228765 256.544911 140.228765L257.163499 366.280174z" fill="#272636"></path></g></g></svg>