<?xml version="1.0" standalone="no"?><!DOCTYPE svg PUBLIC "-//W3C//DTD SVG 1.1//EN" "http://www.w3.org/Graphics/SVG/1.1/DTD/svg11.dtd"><svg width="200" height="200" viewBox="0 0 200 200" version="1.1" xmlns="http://www.w3.org/2000/svg" xmlns:xlink="http://www.w3.org/1999/xlink"><defs><style type="text/css"><![CDATA[
@font-face { font-family: ifont; src: url("//at.alicdn.com/t/font_1442373896_4754455.eot?#iefix") format("embedded-opentype"), url("//at.alicdn.com/t/font_1442373896_4754455.woff") format("woff"), url("//at.alicdn.com/t/font_1442373896_4754455.ttf") format("truetype"), url("//at.alicdn.com/t/font_1442373896_4754455.svg#ifont") format("svg"); }

]]></style></defs><g class="transform-group"><g transform="scale(0.1953125, 0.1953125)"><path d="M948.52861 754.934938 742.104213 562.846038c-10.478655-9.664104-26.65815-9.93528-37.353746-0.433882l-216.685088 192.089923c-8.686846 7.601118-11.618619 19.816325-7.546883 30.621415s14.44192 17.917068 26.006304 17.917068l67.324338 0 0 126.286218c0 15.419178 12.378935 27.798113 27.798113 27.798113L836.955488 957.124893c15.310707 0 27.798113-12.378935 27.798113-27.798113l0-126.286218 64.826448 0c11.455913 0 21.717627-6.949272 25.898857-17.590634C959.658088 774.806521 956.943256 762.699786 948.52861 754.934938zM836.955488 747.443313c-15.419178 0-27.798113 12.487406-27.798113 27.798113l0 126.286218L629.445364 901.527644l0-126.286218c0-15.310707-12.487406-27.798113-27.798113-27.798113l-21.880333 0 142.953829-126.666888 136.167263 126.666888L836.955488 747.443313zM646.927527 573.97654c-28.340465-14.821567-57.985646-27.418466-89.801259-35.128055 89.312118-36.7019 152.455227-124.385938 152.455227-226.728838 0-135.245264-110.106724-245.243517-245.297752-245.243517-135.299499 0-245.297752 109.998253-245.297752 245.243517 0 102.343923 63.088874 190.026938 152.34778 226.728838C196.836529 580.871577 66.586023 737.88768 66.586023 925.199787c0 15.310707 12.43317 27.798113 27.798113 27.798113s27.798113-12.487406 27.798113-27.798113c0-188.670034 153.487743-342.156754 342.102518-342.156754 49.244564 0 95.991238 10.695596 138.393977 29.535687L646.927527 573.97654zM274.583241 312.118624c0-104.569614 85.078701-189.646268 189.701526-189.646268 104.569614 0 189.701526 85.077677 189.701526 189.646268s-85.131913 189.701526-189.701526 189.701526C359.661941 501.82015 274.583241 416.688237 274.583241 312.118624z" fill="#272636"></path></g></g></svg>