<?xml version="1.0" standalone="no"?><!DOCTYPE svg PUBLIC "-//W3C//DTD SVG 1.1//EN" "http://www.w3.org/Graphics/SVG/1.1/DTD/svg11.dtd"><svg width="200" height="200" viewBox="0 0 200 200" version="1.1" xmlns="http://www.w3.org/2000/svg" xmlns:xlink="http://www.w3.org/1999/xlink"><defs><style type="text/css"><![CDATA[
@font-face { font-family: ifont; src: url("//at.alicdn.com/t/font_1442373896_4754455.eot?#iefix") format("embedded-opentype"), url("//at.alicdn.com/t/font_1442373896_4754455.woff") format("woff"), url("//at.alicdn.com/t/font_1442373896_4754455.ttf") format("truetype"), url("//at.alicdn.com/t/font_1442373896_4754455.svg#ifont") format("svg"); }

]]></style></defs><g class="transform-group"><g transform="scale(0.1953125, 0.1953125)"><path d="M937.704077 780.730441c-54.776557-145.171334-210.879871-252.156974-397.807215-262.298961L539.896862 411.376255c97.970312-14.049994 173.342953-98.06855 173.342953-199.933565 0-111.695918-90.537016-202.232934-202.232934-202.232934-111.682615 0-202.232934 90.537016-202.232934 202.232934 0 101.863992 75.384921 185.882548 173.34193 199.933565l0 107.055225c-187.025581 10.143011-343.200526 117.226888-397.905452 262.510786-48.668443 15.432481-84.188424 60.433394-84.188424 114.221438 0 66.469877 53.887304 120.357182 120.358205 120.357182S240.736365 961.634604 240.736365 895.164726c0-61.984726-47.045479-112.443955-107.281375-119.046327 54.889121-118.707612 188.958606-204.970278 348.659865-214.378555l0 216.946031c-52.43421 12.991895-91.467201 60.024072-91.467201 116.478851 0 66.469877 53.887304 120.357182 120.358205 120.357182 66.469877 0 120.357182-53.887304 120.357182-120.357182 0-56.45478-39.034015-103.486956-91.467201-116.478851L539.895839 561.739844c159.728888 9.408277 293.812699 95.699596 348.673168 214.434837-59.95244 6.870478-106.702184 57.189514-106.702184 118.990045 0 66.469877 53.887304 120.357182 120.357182 120.357182 66.470901 0 120.357182-53.887304 120.357182-120.357182C1022.582209 841.135182 986.738863 795.951097 937.704077 780.730441z" fill="#272636"></path></g></g></svg>