<?xml version="1.0" standalone="no"?><!DOCTYPE svg PUBLIC "-//W3C//DTD SVG 1.1//EN" "http://www.w3.org/Graphics/SVG/1.1/DTD/svg11.dtd"><svg width="200" height="200" viewBox="0 0 200 200" version="1.1" xmlns="http://www.w3.org/2000/svg" xmlns:xlink="http://www.w3.org/1999/xlink"><defs><style type="text/css"><![CDATA[
@font-face { font-family: ifont; src: url("//at.alicdn.com/t/font_1442373896_4754455.eot?#iefix") format("embedded-opentype"), url("//at.alicdn.com/t/font_1442373896_4754455.woff") format("woff"), url("//at.alicdn.com/t/font_1442373896_4754455.ttf") format("truetype"), url("//at.alicdn.com/t/font_1442373896_4754455.svg#ifont") format("svg"); }

]]></style></defs><g class="transform-group"><g transform="scale(0.1953125, 0.1953125)"><path d="M411.4397 453.931466c108.915595 0 197.208501-109.051695 197.208501-217.96729 0-108.915595-88.292905-176.449711-197.208501-176.449711s-197.208501 67.534116-197.208501 176.449711C214.231199 344.878748 302.525128 453.931466 411.4397 453.931466zM618.945731 517.149277c-50.0233-36.4604-109.063975-60.143799-172.913165-66.465784l-22.361287 40.070624 41.958624 129.175011-54.18918 111.343901-54.18918-111.343901 41.907459-128.873136-22.454408-40.362266C203.836455 467.8822 66.030879 612.038414 48.030923 793.774525l363.4098 0 225.200018 0c-36.912701-38.724976-59.618842-91.113137-59.618842-148.836817C577.020876 597.105307 592.608899 552.927131 618.945731 517.149277zM802.13596 427.88423c-118.487601 0-214.883045 96.398514-214.883045 214.886115s96.395444 214.883045 214.883045 214.883045 214.883045-96.395444 214.883045-214.883045S920.623561 427.88423 802.13596 427.88423zM802.13596 835.32792c-106.177228 0-192.557574-86.380346-192.557574-192.557574s86.380346-192.560644 192.557574-192.560644 192.557574 86.384439 192.557574 192.560644S908.313188 835.32792 802.13596 835.32792zM860.129792 674.602332l47.514153 0 0-28.64848L778.22641 645.953851l0 28.64848 47.75463 0 0 42.74657-58.975183 0c0.072655-7.885598 0.39295-15.283078 0.951675-22.208814-31.518854 4.774747-60.247152 8.117888-86.199221 10.029424l5.0142 33.43039c24.832572-4.062526 51.17759-7.441483 79.033008-10.152221l0 17.550725 151.866826 0 0-28.64848-57.543577 0L860.128769 674.602332zM898.806673 554.500976l0-26.504654L777.507026 527.996322l0 28.64848 82.143858 0c-23.721261 24.360827-56.271608 43.699268-97.659227 58.023508 5.566786 8.757454 11.060917 18.386766 16.47523 28.895097 25.944905-9.788947 49.025577-22.208814 69.244061-37.252439 16.875343 9.556657 34.70236 20.37812 53.488215 32.477692l19.098987-27.224038c-16.235776-8.750291-32.514531-17.231453-48.830125-25.428136C881.496425 576.426335 890.608967 565.881165 898.806673 554.500976zM717.579145 617.894795c-12.100596 16.794501-23.400966 30.123065-33.909297 39.992853l7.405667 27.463492c14.164604-2.703575 38.125319-5.174859 71.867818-7.405667 0-8.117888 0.639566-17.827017 1.911536-29.127388-10.18906 1.112334-23.24133 2.230808-39.156812 3.343141 14.003945-17.194614 33.110095-43.139519 57.3031-77.840856l-28.655643-14.331403c-6.206352 10.828626-12.253068 20.893866-18.146289 30.211069l-20.050662 0.836041c12.732999-18.154475 25.704428-39.477107 38.917358-63.996546l-31.518854-11.220552c-14.483876 34.069957-29.127388 60.013839-43.931558 77.840856l10.981099 27.224038C697.91427 619.682511 706.911178 618.693997 717.579145 617.894795z" fill="#272636"></path></g></g></svg>