<?xml version="1.0" standalone="no"?><!DOCTYPE svg PUBLIC "-//W3C//DTD SVG 1.1//EN" "http://www.w3.org/Graphics/SVG/1.1/DTD/svg11.dtd"><svg width="200" height="200" viewBox="0 0 200 200" version="1.1" xmlns="http://www.w3.org/2000/svg" xmlns:xlink="http://www.w3.org/1999/xlink"><defs><style type="text/css"><![CDATA[
@font-face { font-family: ifont; src: url("//at.alicdn.com/t/font_1442373896_4754455.eot?#iefix") format("embedded-opentype"), url("//at.alicdn.com/t/font_1442373896_4754455.woff") format("woff"), url("//at.alicdn.com/t/font_1442373896_4754455.ttf") format("truetype"), url("//at.alicdn.com/t/font_1442373896_4754455.svg#ifont") format("svg"); }

]]></style></defs><g class="transform-group"><g transform="scale(0.1953125, 0.1953125)"><path d="M1017.771 511.331c0 280.666-227.523 508.191-508.191 508.191s-508.19-227.525-508.19-508.191c0-280.665 227.523-508.19 508.191-508.19s508.19 227.523 508.19 508.19zM466.473 455.47c-20.8 20.271-43.351 39.635-67.651 58.1-11.886-16.13-21.703-34.383-29.447-54.757v-11.301h133.074v-39.476h-51.415l23.081-21.012c-16.343-12.308-32.261-23.241-47.755-32.79l-28.017 25.469c14.007 9.129 27.273 18.572 39.796 28.334h-68.767v-52.849h-44.571v52.849h-128.618v39.476h128.619v73.065c-40.538 21.862-85.216 43.033-134.030 63.513l21.012 42.023c31.518-18.146 69.189-38.626 113.018-61.443v29.289c0 17.191-8.809 25.787-26.423 25.787-10.401 0-22.818-0.422-37.249-1.274 4.457 15.493 8.277 31.729 11.461 48.709 15.599 0 31.757-0.558 48.47-1.671s28.943-6.262 36.691-15.441c7.745-9.181 11.62-22.26 11.62-39.237v-74.177c26.107 44.359 63.247 77.362 111.426 99.010 8.913-16.766 17.721-32.048 26.423-45.844-32.368-10.825-59.799-26.583-82.295-47.276l72.745-54.282-31.2-32.791zM212.101 486.352c21.435 16.98 41.387 33.854 59.852 50.62l29.289-29.609c-19.739-16.978-40.432-33.321-62.081-49.027l-27.061 28.016zM575.67 529.33c0 45.421-20.057 80.864-60.171 106.333 9.338 12.522 16.874 23.452 22.603 32.79 25.469-19.526 43.827-42.395 55.077-68.607 17.191 20.589 32.259 40.273 45.207 59.056l29.925-28.017c-25.683-29.076-47.013-52.316-63.99-69.722 1.696-9.973 2.547-20.375 2.547-31.2v-110.79h-31.2v110.154zM654.305 438.437v-69.244h-126.071v198.977h32.79v-162.365h60.489v161.091h32.79l13.053 26.107c10.292-3.713 38.786-7.375 85.481-10.985l5.253 17.033 23.558-8.596v6.686c0 17.405-7.854 26.107-23.558 26.107-6.581 0-24.939-0.422-55.077-1.274 4.244 15.703 7.534 29.925 9.87 42.661 38.308-0.426 62.425-1.46 72.348-3.104 9.921-1.646 18.198-7.11 24.832-16.396 6.631-9.287 10.108-22.629 10.427-40.034l0.955-84.684 0.637-122.57h-108.084c4.032-11.673 7.904-23.982 11.62-36.93l-38.839-6.367c-8.066 31.519-18.891 59.483-32.474 83.888zM725.937 502.589c5.093 13.585 10.24 28.175 15.441 43.775l-40.91 3.343c10.399-21.225 23.133-49.132 38.205-83.729l-36.611-11.779c-18.572 54.653-34.49 87.497-47.755 98.532v-81.978c5.093 4.989 10.399 10.612 15.919 16.874 10.188-14.538 19.631-31.518 28.334-50.939h83.729c0 48.287-0.107 87.604-0.318 117.953-7.747-23.133-15.706-44.412-23.877-63.831l-32.156 11.778z" fill="#272636"></path></g></g></svg>