<?xml version="1.0" standalone="no"?><!DOCTYPE svg PUBLIC "-//W3C//DTD SVG 1.1//EN" "http://www.w3.org/Graphics/SVG/1.1/DTD/svg11.dtd"><svg width="200" height="200" viewBox="0 0 200 200" version="1.1" xmlns="http://www.w3.org/2000/svg" xmlns:xlink="http://www.w3.org/1999/xlink"><defs><style type="text/css"><![CDATA[
@font-face { font-family: ifont; src: url("//at.alicdn.com/t/font_1442373896_4754455.eot?#iefix") format("embedded-opentype"), url("//at.alicdn.com/t/font_1442373896_4754455.woff") format("woff"), url("//at.alicdn.com/t/font_1442373896_4754455.ttf") format("truetype"), url("//at.alicdn.com/t/font_1442373896_4754455.svg#ifont") format("svg"); }

]]></style></defs><g class="transform-group"><g transform="scale(0.1953125, 0.1953125)"><path d="M512.000512 55.06206c249.336742 0 451.470415 202.136743 451.470415 451.474508 0 249.338788-202.133673 451.473485-451.470415 451.473485-162.540933 0-305.001529-85.912695-384.498094-214.788901 15.909341-2.200108 29.573549-8.648984 38.601156-14.82259 17.645892-12.076036 3.970428-26.637684-17.186428-16.717753-13.051247 6.123464-24.592095 8.744151-34.585703 8.754385-14.0766-26.119891-25.6461-53.785997-34.408671-82.677001 8.276501-8.652054 20.699438-13.969153 37.458123-12.767791 70.796416 5.064342 143.55451 106.064664 173.638689 150.766772 20.546965 30.550807 57.812707 48.988738 78.70248 55.026244-44.113707 6.505158-68.023256 40.165792-68.023256 40.165792l212.344223 0.683569 1.633197-0.01228c-3.128247-8.760524-9.41851-21.008476-10.688433-23.449062 4.883217 0.429789 9.827833 0.662079 14.823614 0.662079 5.779633 0 11.492752-0.296759 17.119913-0.870834l0.572028 0.00614c-1.633197 4.406356-10.679223 23.695678-10.679223 23.695678l0 0 213.636658 0.681522c-19.044752-36.68962-74.243935-43.655266-74.243935-43.655266 29.574572-28.710902 63.682391-87.140663 60.695361-131.022079l0.021489-0.028653c1.257643-2.367931 3.125177-4.511757 5.131881-6.368034 2.036379-1.835811 4.51278-3.66139 7.29515-5.476735l0.096191-0.062422 0.021489-0.021489c26.318412-17.101493 80.527035-33.810037 65.781192-57.757448-20.132526-32.709983-57.789171-49.65184-78.304414-75.203796-21.210068-26.394137-82.607416-57.907874-122.42119-53.03182 35.289738-15.331173 56.342216-49.949622 52.627614-63.414285 34.83232-10.913561 50.15326-50.846038 49.916876-59.903322 57.579393-4.182252 61.760622-90.552365 13.005198-98.449219C691.94072 81.272002 327.847351 105.691157 321.671699 289.336758c-51.720965 8.04421-41.863457 100.891851 15.32094 97.745185 15.787568 44.584428 55.261605 56.660464 55.261605 56.660464 2.783393 31.108508 47.825238 56.651254 47.825238 56.651254-69.195965-7.896854-127.243009 55.719023-135.593188 64.084551-8.366551 8.354272-54.934147 53.18327-60.363809 67.231217-13.08911 33.958416 57.364499 49.618071 68.332295 68.459185l0.053212 0.097214 0.11768 0.203638 0.138146 0.265036 0.372483 0.769526 0.00921-0.182149-0.265036-0.38374c-1.206478 20.120246 5.15337 40.166815 10.869558 50.909483 11.608386 21.815865-16.95209-11.384281-47.133483-48.53132-30.18037-37.148062-82.188884-77.547167-107.259886-90.553389-39.811728-20.642133-73.464175-16.437367-96.352465-0.515746-8.144494-33.911344-12.476149-69.302389-12.476149-105.7106 0-249.337765 202.134697-451.474508 451.470415-451.474508L512.000512 55.06206zM631.702778 703.382818l-54.864562 0c-3.961218-4.490268-5.824659-6.189979-7.102768-7.615445-22.168905-24.708751-9.673313-41.081651 4.460592-63.635319 2.494821-3.217275 4.789073-6.579859 6.743588-10.134825 0-0.021489 0.047072-0.074701 0.047072-0.074701l-0.00921-0.00921c5.448082-10.017144 8.546653-21.528316 8.546653-33.756825 0-39.154765-31.766494-70.910003-70.926376-70.910003-39.178301 0-70.934562 31.755238-70.934562 70.910003 0 16.510022 5.67321 31.635511 15.109116 43.684942 15.226796 23.838941 38.84061 41.246403-0.842181 71.830979l-56.292074 0c-6.690376 0-12.777001 10.112312-12.777001 16.810874l0 59.591213c0 6.710842 5.484921 12.195763 12.173251 12.195763 76.770478-0.059352 153.597237-0.020466 230.215242-0.020466 6.435573-0.358157 11.497868-5.658883 11.497868-12.175297l0-59.589167C646.749472 711.810768 640.696616 703.382818 631.702778 703.382818L631.702778 703.382818 631.702778 703.382818zM467.141838 589.390601 467.141838 589.390601c0 12.650111 2.422166 24.534789 9.928117 33.766035 27.128871 35.186384 26.361391 52.838416 7.40362 80.225159l73.725118 0c-16.85897-31.603789-25.568329-39.775912 2.384303-77.44586 1.994424-2.459005 5.40408-7.834432 5.40408-7.834432 4.342912-7.67889 6.79987-16.498766 6.79987-25.869181 0-30.02892-22.460548-55.009871-53.649897-55.009871C487.930303 537.223474 467.141838 559.368844 467.141838 589.390601L467.141838 589.390601zM597.488535 772.131599l16.031115 0c4.370541 0 7.942903-3.574409 7.942903-7.952112l0-27.736715c0-4.369517-3.570315-7.934716-7.942903-7.934716-62.480007 0-124.950803 0-187.43081 0-4.369517 0-7.942903 3.565199-7.942903 7.934716l0 27.736715c0 4.376681 3.573385 7.952112 7.942903 7.952112L597.488535 772.131599 597.488535 772.131599 597.488535 772.131599zM657.665079 587.271334c12.046361 17.546631 20.824281 37.512359 25.472138 59.014068 12.82612 3.558036 22.425755 9.200546 29.330002 16.363689l0.021489-0.021489-0.13917-0.140193c1.194198-1.078565 2.304486-2.134617 3.360538-3.177366l2.580778-2.648316C760.007979 612.073206 689.410084 589.892021 657.665079 587.271334L657.665079 587.271334zM356.538811 646.038786c3.767813-17.320481 10.218736-33.637098 18.901489-48.497551-46.583968 4.432962-107.018386 29.108968-50.773384 68.583005l0.459464 0.311085c5.697769-7.223518 13.687744-13.431917 24.622794-17.915022C352.116081 647.553279 354.374518 646.733611 356.538811 646.038786L356.538811 646.038786zM518.493389 259.966846c0 0 20.131503-27.300786-2.282996-46.322002C496.665245 244.251933 518.493389 259.966846 518.493389 259.966846zM487.949746 231.685733c0 0-16.066931-26.543539 5.941316-42.002626C509.148557 219.192188 487.949746 231.685733 487.949746 231.685733zM548.875351 227.555669c0 0 12.099572-28.569686-11.903098-40.72247C526.108834 218.23335 548.875351 227.555669 548.875351 227.555669zM458.056925 231.685733c0 0-18.593474-22.086018-0.597611-39.474037C475.744773 217.143529 458.056925 231.685733 458.056925 231.685733zM575.484382 227.044016c0 0 18.605753-22.083971 0.598634-39.474037C557.795511 212.502835 575.484382 227.044016 575.484382 227.044016zM429.34807 240.199641c0 0-23.310915-11.864212-14.424524-32.721239C438.972265 221.837434 429.34807 240.199641 429.34807 240.199641zM603.970156 234.863099c0 0 23.309892-11.874445 14.423501-32.729425C594.336752 216.492706 603.970156 234.863099 603.970156 234.863099zM408.342664 255.94423c0 0-25.668613-1.898233-25.539676-24.207331C410.091494 235.612159 408.342664 255.94423 408.342664 255.94423zM626.59648 249.438049c0 0 25.668613-1.901303 25.540699-24.207331C624.845603 229.102908 626.59648 249.438049 626.59648 249.438049zM393.108704 280.546557c0 0-27.792996 2.932796-31.986505-20.920472C391.026276 258.474866 393.108704 280.546557 393.108704 280.546557zM643.921054 271.488251c0 0 27.79402 2.945075 31.984459-20.919449C646.003482 249.41656 643.921054 271.488251 643.921054 271.488251zM377.872698 305.042461c0 0-24.547069 7.93574-32.859385-12.814864C371.801423 285.506523 377.872698 305.042461 377.872698 305.042461zM661.02357 295.290353c0 0 24.538883 7.938809 32.848129-12.812817C667.085636 275.756461 661.02357 295.290353 661.02357 295.290353zM374.117165 334.251713c0 0-22.147416 13.20679-34.875299-5.163603C363.85238 316.563866 374.117165 334.251713 374.117165 334.251713zM665.460626 324.499605c0 0 22.158672 13.20986 34.886555-5.161556C675.735643 306.811758 665.460626 324.499605 665.460626 324.499605zM373.060089 364.218212c0 0-14.872732 13.987572-27.844162 1.952468C362.113783 352.302835 373.060089 364.218212 373.060089 364.218212zM669.302117 354.008686c0 0 14.880919 13.976316 27.843138 1.943258C680.257633 342.083076 669.302117 354.008686 669.302117 354.008686zM384.624473 386.43112c0 0-5.835915 17.847483-21.614274 13.847379C370.530476 381.629767 384.624473 386.43112 384.624473 386.43112zM657.833925 380.050806c0 0 10.18906 15.777335 24.430412 7.90504C670.251745 371.83468 657.833925 380.050806 657.833925 380.050806zM330.343195 304.080553c-29.209252 8.705266-23.876804 60.095703 11.747555 71.39505C292.727483 380.457058 281.396413 296.763914 330.343195 304.080553L330.343195 304.080553zM708.02914 291.204291c32.004925 12.417821 32.004925 53.363372-5.474688 73.249281C754.714416 363.17444 756.752842 280.173051 708.02914 291.204291L708.02914 291.204291zM475.894176 296.537763c-28.987195 0-52.479235 23.49204-52.479235 52.466955 0 28.986171 23.49204 52.478212 52.479235 52.478212 13.013385 0 24.931832-4.747117 34.095539-12.598946-3.093455 8.735965-7.02909 15.682167-10.711969 22.347984-16.8559 30.54569-18.114566 36.219923-1.39579 41.330314 16.71673 5.111414 49.212842 2.764973 59.657728-5.366218 10.455119-8.118911 9.933233-11.116175-6.721075-35.964096-4.3951-6.561439-9.376555-13.922081-13.613042-23.257703 8.716522 6.443759 19.490913 10.252505 31.162744 10.252505 28.974915 0 52.466955-23.49204 52.466955-52.466955 0-28.984125-23.491017-52.478212-52.466955-52.478212-15.618723 0-29.636994 6.828522-39.247886 17.657148 0.180102-1.37737 0.36225-2.772136 0.575098-4.183276 9.493212-64.180741 75.351152-64.211441 111.954815-19.755949 56.786331 68.958558-26.009374 137.206942-49.960879 130.273019 30.705326 51.068096-30.052456 78.199013-69.205175 78.625732-39.154765 0.415462-85.518722-26.363438-65.462944-72.130807-62.035892-6.741541-105.414865-85.175915-45.511543-143.479809 20.825304-20.269649 84.96409-44.518936 99.259678 27.738761l0.415462 2.153036C501.870804 301.70239 489.485729 296.53674 475.894176 296.537763L475.894176 296.537763zM527.561929 339.862501c-0.097214-0.544399-0.192382-1.077541-0.311085-1.611707l0-0.030699c3.553942-19.48068 20.61348-34.257222 41.117466-34.257222 23.076578 0 41.787732 18.714224 41.787732 41.798988 0 23.076578-18.711154 41.788755-41.787732 41.788755-10.775414 0-20.600177-4.073782-28.015054-10.775414 4.352121 2.495844 9.398044 3.928472 14.775518 3.928472 15.594163 0 28.376281-12.002358 29.625738-27.282367-2.325975 1.805112-5.238304 2.870374-8.396227 2.870374-7.574512 0-13.709233-6.133697-13.709233-13.709233 0-7.135514 5.441942-12.991895 12.407588-13.653975-5.27105-4.758374-12.257162-7.659447-19.927865-7.659447C542.645462 321.268004 531.966239 328.960197 527.561929 339.862501L527.561929 339.862501zM489.122455 324.511885c-7.671727 0-14.659885 2.90005-19.929912 7.670703 6.966669 0.660032 12.417821 6.516414 12.417821 13.654998 0 7.562233-6.14393 13.70821-13.70821 13.70821-3.169179 0-6.079462-1.077541-8.397251-2.870374 1.239224 15.266705 14.019295 27.279297 29.616528 27.279297 5.376451 0 10.422374-1.429559 14.776542-3.935636-7.40362 6.699586-17.231453 10.785647-28.004821 10.785647-23.087834 0-41.798988-18.712177-41.798988-41.800012 0-23.076578 18.712177-41.787732 41.798988-41.787732 17.569144 0 32.613792 10.851139 38.788421 26.223245 0.23536 2.281973 0.427742 4.491291 0.577145 6.64535C510.233262 330.816474 500.408499 324.511885 489.122455 324.511885L489.122455 324.511885z" fill="#272636"></path></g></g></svg>