<?xml version="1.0" standalone="no"?><!DOCTYPE svg PUBLIC "-//W3C//DTD SVG 1.1//EN" "http://www.w3.org/Graphics/SVG/1.1/DTD/svg11.dtd"><svg width="200" height="200" viewBox="0 0 200 200" version="1.1" xmlns="http://www.w3.org/2000/svg" xmlns:xlink="http://www.w3.org/1999/xlink"><defs><style type="text/css"><![CDATA[
@font-face { font-family: ifont; src: url("//at.alicdn.com/t/font_1442373896_4754455.eot?#iefix") format("embedded-opentype"), url("//at.alicdn.com/t/font_1442373896_4754455.woff") format("woff"), url("//at.alicdn.com/t/font_1442373896_4754455.ttf") format("truetype"), url("//at.alicdn.com/t/font_1442373896_4754455.svg#ifont") format("svg"); }

]]></style></defs><g class="transform-group"><g transform="scale(0.1953125, 0.1953125)"><path d="M504.575325 16.445242c-176.506693 0-319.593287 140.332799-319.593287 313.444319s319.593287 522.409547 319.593287 522.409547 319.593287-349.298027 319.593287-522.409547S681.081011 16.445242 504.575325 16.445242zM508.978377 444.517922c-59.917952 0-108.487448-48.569496-108.487448-108.487448 0-59.913924 48.569496-108.484427 108.487448-108.484427 59.913924 0 108.487448 48.569496 108.487448 108.484427C617.465825 395.947418 568.892301 444.517922 508.978377 444.517922zM799.259603 635.056384l-75.929232 0-2.170816 0 0 50.343605 2.170816 0 47.619009 0 147.426213 242.482994c-7.437764 0-15.186652 0-23.181216 0-128.801093 0-321.985615 0.015103-321.985615 0.015103l-15.241023 0.001007-12.680547 8.453698-40.71086 27.140237-40.71086-27.140237-12.682561-8.455712-15.243037 0L90.155831 927.897079l145.498053-242.498097 50.479533 0 1.857679 0 0-50.343605-1.857679 0-78.984082 0L1.239963 978.241691l434.698905 0 68.636457 45.757303 68.636457-45.757303c0 0 193.182508-0.015103 321.981587-0.015103 64.393498 0 112.704228 0.004027 112.717318 0.015103L799.259603 635.056384z" fill="#272636"></path></g></g></svg>