<?xml version="1.0" standalone="no"?><!DOCTYPE svg PUBLIC "-//W3C//DTD SVG 1.1//EN" "http://www.w3.org/Graphics/SVG/1.1/DTD/svg11.dtd"><svg width="200" height="200" viewBox="0 0 200 200" version="1.1" xmlns="http://www.w3.org/2000/svg" xmlns:xlink="http://www.w3.org/1999/xlink"><defs><style type="text/css"><![CDATA[
@font-face { font-family: ifont; src: url("//at.alicdn.com/t/font_1442373896_4754455.eot?#iefix") format("embedded-opentype"), url("//at.alicdn.com/t/font_1442373896_4754455.woff") format("woff"), url("//at.alicdn.com/t/font_1442373896_4754455.ttf") format("truetype"), url("//at.alicdn.com/t/font_1442373896_4754455.svg#ifont") format("svg"); }

]]></style></defs><g class="transform-group"><g transform="scale(0.1953125, 0.1953125)"><path d="M830.416 373.674c-23.682-22.734-48.929-42.963-74.281-60.598-3.749-2.601-6.66-4.453-10.075-6.692 47.024-14.697 79.938-49.878 79.938-91.582 0-56.093-58.551-98.998-128.028-98.998-16.012 0-30.791 2.741-43.945 7.3-6.157 2.122-9.687 4.284-13.493 6.302-2.355 0.866-8.724-0.135-10.125-1.765l-0.054 0.054c-5.319-7.25-13.27-16.209-24.914-25.36-22.115-17.469-53.686-27.934-83.577-27.934s-50.775 10.466-72.889 27.963c-11.364 8.927-19.138 17.66-24.462 24.798l-0.054-0.031c-2.014 2.183-7.22 3.297-9.012 2.492-3.863-2.070-8.622-4.308-15.060-6.521-13.152-4.564-27.932-7.3-43.945-7.3-69.527 0-123.654 42.908-123.654 98.998 0 35.663 19.759 66.475 56.093 83.913-3.584 2.355-7.449 4.868-11.59 7.726-25.305 17.153-50.547 37.17-74.23 59.929-68.747 66.114-111.118 133.621-111.118 217.567 0 232.819 200.238 350.321 429.924 350.321 96.288 0 181.488-16.235 257.618-57.493 103.339-55.924 172.308-158.143 172.308-292.831 0.002-78.902-52.279-144.064-121.359-210.262zM705.745 523.147c-16.682 15.678-41.65 15.678-58.384 0l-80.447-98.22v299.858c0 22.279-15.844 37.513-39.466 37.513-23.682 0-39.465-15.226-39.465-37.513v-299.858l-87.888 98.22c-16.74 15.678-44.95 15.678-61.637 0-16.738-15.762-17.245-41.284-0.557-56.985l151.93-150.527c9.916-9.299 31.461-11.781 34.822-11.781 0.724 0 1.343 0.332 2.119 0.369 11.643-0.51 26.54 3.025 35.498 11.45l143.479 150.501c16.735 15.702 16.735 41.233-0.001 56.983z" fill="#272636"></path></g></g></svg>