<?xml version="1.0" standalone="no"?><!DOCTYPE svg PUBLIC "-//W3C//DTD SVG 1.1//EN" "http://www.w3.org/Graphics/SVG/1.1/DTD/svg11.dtd"><svg width="200" height="200" viewBox="0 0 200 200" version="1.1" xmlns="http://www.w3.org/2000/svg" xmlns:xlink="http://www.w3.org/1999/xlink"><defs><style type="text/css"><![CDATA[
@font-face { font-family: ifont; src: url("//at.alicdn.com/t/font_1442373896_4754455.eot?#iefix") format("embedded-opentype"), url("//at.alicdn.com/t/font_1442373896_4754455.woff") format("woff"), url("//at.alicdn.com/t/font_1442373896_4754455.ttf") format("truetype"), url("//at.alicdn.com/t/font_1442373896_4754455.svg#ifont") format("svg"); }

]]></style></defs><g class="transform-group"><g transform="scale(0.1953125, 0.1953125)"><path d="M212.096 936c-11.84 0-21.376-9.6-21.376-21.376L190.72 614.656c0-11.904 9.6-21.376 21.376-21.376 11.84 0 21.44 9.472 21.44 21.376l0 300.032C233.536 926.4 223.936 936 212.096 936L212.096 936zM811.968 936c-11.776 0-21.44-9.6-21.44-21.376L790.528 614.656c0-11.904 9.664-21.376 21.44-21.376 11.904 0 21.44 9.472 21.44 21.376l0 300.032C833.344 926.4 823.808 936 811.968 936L811.968 936zM961.92 936 62.144 936c-11.84 0-21.376-9.6-21.376-21.376 0-11.904 9.6-21.504 21.376-21.504l899.84 0c11.904 0 21.376 9.6 21.376 21.504C983.296 926.4 973.824 936 961.92 936L961.92 936zM1004.736 421.76c0 47.36-38.4 85.76-85.696 85.76l-42.88 0c-25.536 0-48.576-11.264-64.256-29.184-15.68 17.92-38.656 29.184-64.256 29.184l-21.44 0c-25.6 0-48.576-11.264-64.256-29.184C646.272 496.256 623.36 507.52 597.696 507.52L576.256 507.52C550.656 507.52 527.68 496.256 512 478.336 496.32 496.256 473.408 507.52 447.744 507.52L426.368 507.52c-25.664 0-48.576-11.264-64.256-29.184C346.368 496.256 323.456 507.52 297.792 507.52L276.352 507.52c-25.664 0-48.576-11.264-64.256-29.184C196.416 496.256 173.44 507.52 147.84 507.52L104.96 507.52c-47.296 0-85.696-38.4-85.696-85.76l4.288-21.376L19.264 400.384l21.44-149.952c0-71.04 57.536-128.576 128.512-128.576l685.568 0c70.976 0 128.512 57.536 128.512 128.576l21.44 149.952-4.224 0L1004.736 421.76 1004.736 421.76zM940.48 250.432c0-47.36-38.4-85.696-85.696-85.696L169.28 164.736c-47.36 0-85.696 38.336-85.696 85.696L62.144 400.384l4.288 0L62.144 421.76c0 23.68 19.2 42.88 42.816 42.88L147.84 464.64c23.68 0 42.88-19.2 42.88-42.88L190.72 400.384 190.72 336.128c0-11.904 9.6-21.504 21.376-21.504 11.84 0 21.44 9.6 21.44 21.504l0 64.256L233.536 421.76c0 23.68 19.2 42.88 42.816 42.88l21.376 0c23.68 0 42.816-19.2 42.816-42.88L340.544 400.384 340.544 336.128c0-11.904 9.6-21.504 21.44-21.504s21.44 9.6 21.44 21.504l0 64.256L383.424 421.76c0 23.68 19.2 42.88 42.816 42.88l21.376 0c23.68 0 42.816-19.2 42.816-42.88L490.432 400.384 490.432 336.128c0-11.904 9.6-21.504 21.44-21.504 11.84 0 21.376 9.6 21.376 21.504l0 64.256L533.248 421.76c0 23.68 19.2 42.88 42.816 42.88l21.44 0c23.68 0 42.88-19.2 42.88-42.88L640.384 400.384 640.384 336.128c0-11.904 9.6-21.504 21.44-21.504 11.904 0 21.376 9.6 21.376 21.504l0 64.256L683.2 421.76c0 23.68 19.2 42.88 42.88 42.88l21.44 0c23.616 0 42.816-19.2 42.816-42.88L790.336 400.384 790.336 336.128c0-11.904 9.664-21.504 21.44-21.504 11.904 0 21.44 9.6 21.44 21.504l0 64.256L833.216 421.76c0 23.68 19.2 42.88 42.816 42.88l42.88 0c23.616 0 42.88-19.2 42.88-42.88l-4.224-21.376 4.224 0L940.48 250.432 940.48 250.432zM683.392 893.12l0-171.392c0-11.904-9.472-21.504-21.376-21.504L597.696 700.224c-11.776 0-21.44 9.6-21.44 21.504l0 171.392L533.44 893.12l0-192.896c0-23.616 19.2-42.752 42.816-42.752l107.136 0c23.68 0 42.88 19.136 42.88 42.752l0 192.896L683.392 893.12 683.392 893.12zM640.576 850.368c-11.84 0-21.44-9.6-21.44-21.504s9.6-21.376 21.44-21.376c11.904 0 21.44 9.472 21.44 21.376S652.416 850.368 640.576 850.368L640.576 850.368z" fill="#272636"></path></g></g></svg>