<?xml version="1.0" standalone="no"?><!DOCTYPE svg PUBLIC "-//W3C//DTD SVG 1.1//EN" "http://www.w3.org/Graphics/SVG/1.1/DTD/svg11.dtd"><svg width="200" height="200" viewBox="0 0 200 200" version="1.1" xmlns="http://www.w3.org/2000/svg" xmlns:xlink="http://www.w3.org/1999/xlink"><defs><style type="text/css"><![CDATA[
@font-face { font-family: ifont; src: url("//at.alicdn.com/t/font_1442373896_4754455.eot?#iefix") format("embedded-opentype"), url("//at.alicdn.com/t/font_1442373896_4754455.woff") format("woff"), url("//at.alicdn.com/t/font_1442373896_4754455.ttf") format("truetype"), url("//at.alicdn.com/t/font_1442373896_4754455.svg#ifont") format("svg"); }

]]></style></defs><g class="transform-group"><g transform="scale(0.1953125, 0.1953125)"><path d="M512 673.564699m-82.364893 0a80.489 80.489 0 1 0 164.729785 0 80.489 80.489 0 1 0-164.729785 0ZM843.85206 417.398412 843.85206 199.447495 714.654536 199.447495l0 100.246145L512 115.064642 32.111349 552.267099 180.146916 552.267099l0 403.902026 663.705144 0L843.85206 552.267099l148.036591 0L843.85206 417.398412zM587.653027 804.601104c-72.369238 41.782615-164.906817 16.986883-206.689433-55.382355-41.782615-72.369238-16.986883-164.906817 55.382355-206.689433s164.906817-16.986883 206.689433 55.382355C684.817997 670.28091 660.022265 762.818489 587.653027 804.601104z" fill="#272636"></path></g></g></svg>