<?xml version="1.0" standalone="no"?><!DOCTYPE svg PUBLIC "-//W3C//DTD SVG 1.1//EN" "http://www.w3.org/Graphics/SVG/1.1/DTD/svg11.dtd"><svg class="icon" style="" viewBox="0 0 1024 1024" version="1.1" xmlns="http://www.w3.org/2000/svg" p-id="5254" xmlns:xlink="http://www.w3.org/1999/xlink" width="1024" height="1024"><defs><style type="text/css"><![CDATA[

]]></style></defs><path d="M913.651264 241.729483l-28.1532 0c-3.324722 0-6.262634 1.219781-9.386788 1.906419l0-60.08854c0-49.550533-40.539298-90.091878-90.090854-90.091878L241.728972 93.455485c-49.549509 0-90.090854 40.541345-90.090854 90.091878l0 60.850903c-4.231371-1.322112-8.485255-2.668783-13.137205-2.668783l-28.1532 0c-24.775266 0-45.045939 20.269649-45.045939 45.045939l0 95.721085c0 24.775266 20.269649 45.046962 45.045939 45.046962l28.1532 0c4.65195 0 8.905834-1.345648 13.137205-2.669806l0 374.289592c0 25.555026 10.906397 48.585555 28.1532 65.019853l0 66.361407L305.542346 930.544515l0-41.290405 409.159774 0 0 41.290405 125.751029 0 0-60.161195c21.508873-16.504906 35.659151-42.177612 35.659151-71.220065l0-373.527229c3.128247 0.686638 6.062066 1.907443 9.386788 1.907443l28.1532 0c24.775266 0 45.045939-20.271696 45.045939-45.046962l0-95.721085C958.692087 261.999133 938.426531 241.729483 913.651264 241.729483L913.651264 241.729483zM183.546851 204.189496c0-24.774243 20.562315-45.044916 45.694715-45.044916l565.515844 0c25.128307 0 45.694715 20.274766 45.694715 45.044916l0 82.585927 0 95.721085 0 168.916131c0 24.775266-20.567431 45.045939-45.694715 45.045939L229.241566 596.458577c-25.133424 0-45.694715-20.270672-45.694715-45.045939L183.546851 382.495484l0-95.721085L183.546851 204.189496 183.546851 204.189496zM298.036395 782.269493 187.297268 782.269493c-15.483646 0-28.1532-12.669554-28.1532-28.1532s12.669554-28.1532 28.1532-28.1532l110.738104 0c15.482623 0 28.1532 12.669554 28.1532 28.1532S313.517995 782.269493 298.036395 782.269493L298.036395 782.269493zM836.697615 782.269493 725.963605 782.269493c-15.483646 0-28.1532-12.669554-28.1532-28.1532s12.669554-28.1532 28.1532-28.1532l110.73401 0c15.483646 0 28.154223 12.669554 28.154223 28.1532S852.180238 782.269493 836.697615 782.269493L836.697615 782.269493zM836.697615 782.269493" p-id="5255"></path></svg>