<?xml version="1.0" encoding="utf-8"?>
<!-- Generator: Adobe Illustrator 16.0.0, SVG Export Plug-In . SVG Version: 6.00 Build 0)  -->
<!DOCTYPE svg PUBLIC "-//W3C//DTD SVG 1.1//EN" "http://www.w3.org/Graphics/SVG/1.1/DTD/svg11.dtd">
<svg version="1.1" id="图层_1" xmlns="http://www.w3.org/2000/svg" xmlns:xlink="http://www.w3.org/1999/xlink" x="0px" y="0px"
	 width="1000px" height="1000px" viewBox="0 0 1000 1000" enable-background="new 0 0 1000 1000" xml:space="preserve">
<g>
	<g transform="scale(0.1953125, 0.1953125)">
		<path fill="#070001" d="M5123.692,2840.463c-5.01,33.93-28.05,62.855-59.98,75l-175.424,66.49l198.089,147.255
			c27.55,20.41,41.82,54.345,36.815,88.775c-4.885,33.935-27.925,62.36-59.98,74.88L3832.725,3780.7l-2.63,96.165
			c-7.89,40.07-38.315,65.365-74.755,79.635l-921.583,360.369c-11.395,4.385-23.415,5.635-35.435,6.765
			c-21.54,2.005-44.2,8.515-60.73-2.13c-34.06-21.535-53.845-46.33-53.845-78.135v-38.065l-1162.307,442.509
			c-11.083,4.135-22.665,6.39-34.247,6.39c-24.102,0-47.142-8.89-65.362-25.92L25.995,3329.927
			c-24.415-22.79-35.06-56.22-27.985-88.4c7.075-32.56,30.74-58.48,62.357-69.495l147.755-50.465l-182.127-169.04
			c-24.415-22.915-35.06-56.345-27.985-88.4c7.075-32.555,30.74-58.475,62.357-69.62l147.755-50.465l-182.065-169.04
			c-24.415-22.787-35.06-56.22-27.985-88.4c7.075-32.055,30.74-58.478,62.357-69.62l147.755-50.337L26.057,2197.419
			c-24.415-22.165-35.06-56.097-27.985-88.277c7.075-32.117,30.74-58.412,62.357-69.62l147.755-50.337L26.057,1819.583
			c-24.415-22.29-35.06-56.097-27.922-88.277c7.012-32.117,30.677-58.412,62.357-69.62l1117.42-381.029
			c-1.815-10.708-2.19-21.912,0-32.62c5.823-32.995,29.74-60.73,62.232-71.81L2298.149,808.97
			c31.492-10.642,66.677-4.445,92.41,17.405l29.488,24.542l1062.325-366.757c30.3-10.267,63.61-5.32,88.655,13.4l1515.726,1121.677
			c27.55,20.535,41.825,54.467,36.94,88.4c-5.01,33.872-28.05,62.86-59.98,74.942l-175.424,66.49l198.089,147.627
			c27.55,20.598,41.82,54.47,36.815,88.402c-4.885,33.87-27.925,62.92-59.98,74.942l-175.299,66.615l198.089,147.627
			c27.545,20.41,41.82,54.217,36.815,88.402c-5.01,33.807-27.925,62.732-59.98,74.752l-175.549,66.49l198.089,147.755
			C5114.302,2773.093,5128.577,2806.528,5123.692,2840.463z M2685.753,2694.333l-1164.312,443.389
			c-11.083,3.88-22.665,6.135-34.247,6.135c-24.102,0-47.142-8.89-65.362-25.42L365.267,2135.062l-93.535,32.18l1237.187,1150.165
			l1176.709-447.769L2685.753,2694.333z M1508.919,4450.349l1175.584-447.264l1.875-175.805l-1164.937,443.139
			c-11.083,4.005-22.665,5.76-34.247,5.76c-24.102,0-47.142-8.89-65.362-25.42L365.267,3267.822l-93.535,31.805L1508.919,4450.349z
			 M1508.919,4072.83l1172.83-446.644l2.125-175.679L1521.441,3892.52c-11.083,4.505-22.665,6.26-34.247,6.26
			c-24.042,0-47.08-8.89-65.362-25.42L365.267,2890.423l-93.535,31.68L1508.919,4072.83z M1508.919,3694.931l1175.33-447.019
			l1.13-176.055l-1163.937,443.264c-11.083,4.005-22.665,6.135-34.247,6.135c-24.102,0-47.142-8.89-65.362-25.42L365.267,2512.899
			l-93.535,31.805L1508.919,3694.931z M271.732,1789.281l1237.187,1150.727l1111.22-423.104l-1298.479-1085.49L271.732,1789.281z
			 M2263.842,1037.737l-717.171,242.794l1345.562,1147.657c37.315,20.098,43.2,110.252,43.2,138.3l2.005,1454.626l637.094-243.419
			l2.38-1587.853l-71.875-56.095L2263.842,1037.737z M3497.021,678.683L2590.088,992.41l1242.637,1063.952l1001.218-388.479
			L3497.021,678.683z M4678.178,1929.333l-845.453,332.384v178.995l1001.218-395.367L4678.178,1929.333z M4678.178,2307.294
			l-845.453,331.069v179.06l1001.218-393.804L4678.178,2307.294z M4678.178,2684.693l-845.453,332.069v179.059l1001.718-395.054
			L4678.178,2684.693z M4678.178,3062.217l-845.453,333.949v176.299l1001.718-394.299L4678.178,3062.217z"/>
	</g>
</g>
</svg>
