<?xml version="1.0" encoding="utf-8"?>
<!-- Generator: Adobe Illustrator 16.0.0, SVG Export Plug-In . SVG Version: 6.00 Build 0)  -->
<!DOCTYPE svg PUBLIC "-//W3C//DTD SVG 1.1//EN" "http://www.w3.org/Graphics/SVG/1.1/DTD/svg11.dtd">
<svg version="1.1" id="图层_1" xmlns="http://www.w3.org/2000/svg" xmlns:xlink="http://www.w3.org/1999/xlink" x="0px" y="0px"
	 width="1000px" height="1000px" viewBox="0 0 1000 1000" enable-background="new 0 0 1000 1000" xml:space="preserve">
<g>
	<g transform="scale(0.1953125, 0.1953125)">
		<path fill="#070001" d="M1613.798,1814.285h405.514l-405.514-811.025h270.342l405.514,811.025h270.342l405.516-811.025h270.339
			l-405.514,811.025h405.514v270.344h-675.856v405.511h675.856v270.342h-675.856v946.198h-270.342v-946.198h-675.856v-270.342
			h675.856V2084.63h-675.856V1814.285z"/>
	</g>
</g>
<path fill="#070001" d="M51.189,725.046V251.574c0-138.655,47.052-214.028,185.681-214.028h473.485
	c157.063,0,212.056,74.793,212.056,214.028V591.96h52.802V251.574c0-77.797-3.867-150.953-58.886-205.972
	S788.19-13.296,710.355-13.296H236.871c-77.81,0-124.54,3.88-179.584,58.899C2.268,100.647-1.612,173.803-1.612,251.574v473.472
	c0,77.81,3.88,124.526,58.898,179.571c55.044,55.019,101.774,58.911,179.584,58.911h342.333v-54.761H236.871
	C103.991,908.768,51.189,838.357,51.189,725.046z"/>
<polygon fill="#070001" points="896.011,803.19 816.809,803.165 816.809,723.963 790.408,723.989 790.408,803.165 711.206,803.165 
	711.206,829.565 790.434,829.565 790.408,908.768 816.809,908.768 816.809,829.565 896.011,829.565 "/>
<path fill="#070001" d="M803.608,618.36c-109.367,0-198.005,88.638-198.005,198.005s88.638,198.005,198.005,198.005
	c109.366,0,198.005-88.638,198.005-198.005S912.975,618.36,803.608,618.36z M804.536,977.244
	c-88.87,0-160.879-72.034-160.879-160.879s72.009-160.879,160.879-160.879c88.845,0,160.879,72.034,160.879,160.879
	S893.381,977.244,804.536,977.244z"/>
</svg>
