<?xml version="1.0" encoding="UTF-8"?>
<svg width="20px" height="20px" viewBox="0 0 20 20" version="1.1" xmlns="http://www.w3.org/2000/svg" xmlns:xlink="http://www.w3.org/1999/xlink">
    <!-- Generator: Sketch 46.2 (44496) - http://www.bohemiancoding.com/sketch -->
    <title>电话</title>
    <desc>Created with Sketch.</desc>
    <defs></defs>
    <g id="Page-1" stroke="none" stroke-width="1" fill="none" fill-rule="evenodd">
        <g id="开始使用/立即体验弹窗" transform="translate(-575.000000, -406.000000)" fill-rule="nonzero" fill="#999999">
            <g id="开始使用" transform="translate(520.000000, 205.000000)">
                <g id="手机号码" transform="translate(40.000000, 186.000000)">
                    <path d="M19.0277778,23.6611111 C20.6277778,26.8055556 23.2,29.3777778 26.35,30.9777778 L28.7944444,28.5277778 C29.1,28.2222222 29.5388889,28.1333333 29.9222222,28.2555556 C31.1666667,28.6666667 32.5055556,28.8888889 33.8888889,28.8888889 C34.5055556,28.8888889 35,29.3833333 35,30 L35,33.8888889 C35,34.5055556 34.5055556,35 33.8888889,35 C23.4555556,35 15,26.5444444 15,16.1111111 C15,15.4944444 15.5,15 16.1111111,15 L20,15 C20.6166667,15 21.1111111,15.4944444 21.1111111,16.1111111 C21.1111111,17.4944444 21.3333333,18.8333333 21.7444444,20.0777778 C21.8666667,20.4611111 21.7777778,20.9 21.4722222,21.2055556 L19.0277778,23.6611111 Z" id="电话"></path>
                </g>
            </g>
        </g>
    </g>
</svg>