<?xml version="1.0" encoding="utf-8"?>
<!-- Generated by IcoMoon.io -->
<!DOCTYPE svg PUBLIC "-//W3C//DTD SVG 1.1//EN" "http://www.w3.org/Graphics/SVG/1.1/DTD/svg11.dtd">
<svg version="1.1" xmlns="http://www.w3.org/2000/svg" xmlns:xlink="http://www.w3.org/1999/xlink" width="1024" height="1024" viewBox="0 0 1024 1024">
<g id="icomoon-ignore">
</g>
<path d="M512 16c-171.209 0-310.001 138.791-310.001 310.001 0 310.001 310.001 682.001 310.001 682.001s310.001-372 310.001-682.001c0-171.209-138.793-310.001-310.001-310.001zM512 515.875c-104.865 0-189.875-85.010-189.875-189.875s85.010-189.875 189.875-189.875 189.875 85.010 189.875 189.875-85.010 189.875-189.875 189.875zM391.875 326.001c0-66.343 53.782-120.125 120.125-120.125s120.125 53.782 120.125 120.125c0 66.343-53.782 120.125-120.125 120.125s-120.125-53.782-120.125-120.125z"></path>
</svg>
