<?xml version="1.0" standalone="no"?><!DOCTYPE svg PUBLIC "-//W3C//DTD SVG 1.1//EN" "http://www.w3.org/Graphics/SVG/1.1/DTD/svg11.dtd"><svg width="1041" height="1024" viewBox="0 0 1041 1024" version="1.1" xmlns="http://www.w3.org/2000/svg" xmlns:xlink="http://www.w3.org/1999/xlink"><defs><style type="text/css"><![CDATA[
@font-face { font-family: ifont; src: url("//at.alicdn.com/t/font_1442373896_4754455.eot?#iefix") format("embedded-opentype"), url("//at.alicdn.com/t/font_1442373896_4754455.woff") format("woff"), url("//at.alicdn.com/t/font_1442373896_4754455.ttf") format("truetype"), url("//at.alicdn.com/t/font_1442373896_4754455.svg#ifont") format("svg"); }

]]></style></defs><g class="transform-group"><g transform="scale(1, 1)"><path d="M1040.738012 398.319213C1039.025749 417.590557 1021.39952 431.59082 1002.531061 428.115934 954.755585 419.336393 911.797946 398.705311 874.900372 367.666361 827.712438 327.998951 783.008963 285.343475 736.878602 244.366689 697.27834 209.181377 654.58929 179.082492 602.130274 166.727344 589.624044 163.789639 576.798864 162.211672 562.412503 159.693639 562.412503 191.387279 562.412503 220.96577 562.412503 251.115016 589.590471 252.407607 613.965028 260.196721 635.200438 276.597508 668.824569 302.583607 684.721749 337.886426 684.856044 379.937574 685.292503 524.808393 685.342864 669.679213 684.856044 814.533246 684.654602 875.452852 649.435717 922.187541 592.209225 938.571541 579.535126 942.197508 565.736307 942.952918 552.457881 942.986492 412.774208 943.288656 273.107323 943.036852 133.423651 943.238295 79.31952 943.32223 38.477028 921.096393 13.330274 871.826885 3.409225 852.387672 0.622602 831.152262 0.605815 809.581115 0.488307 670.854295 1.915192 532.093902 0.018274 393.367082-1.08966 312.336787 48.230208 255.496393 123.737618 250.577836 123.737618 167.365246 123.737618 84.035148 123.737618 0 183.112831 0 240.910077 0 300.805684 0 300.805684 9.870689 300.621028 19.741377 300.839258 29.595279 301.410012 55.212066 318.784438 73.224393 342.739323 73.24118 366.710995 73.274754 384.186143 55.245639 384.74011 29.729574 384.941553 20.194623 384.773684 10.642885 384.773684 0.201443 443.981028 0.201443 502.063651 0.201443 561.741028 0.201443 561.741028 32.314754 561.741028 64.02518 561.741028 96.03777 641.730536 100.066623 704.144176 138.357508 760.430602 190.128262 801.038077 227.495869 841.360176 265.266361 883.310602 301.056 920.694995 332.951082 963.686208 354.824393 1012.049225 365.316197 1035.483717 370.402623 1042.4167 379.383607 1040.738012 398.319213ZM106.833225 961.569574C111.432831 960.629508 116.284241 960.747016 121.018143 960.747016 268.809881 960.696656 416.601618 960.679869 564.393356 960.797377 570.789159 960.814164 577.453553 961.26741 583.513618 963.113967 596.674536 967.109246 605.588372 981.075934 604.547585 994.287213 603.355717 1009.244328 592.091717 1021.532328 577.487126 1023.345311 572.367126 1023.983213 567.146405 1023.832131 561.959258 1023.832131 488.936307 1023.865705 415.896569 1023.848918 342.856831 1023.848918 267.668372 1023.848918 192.479913 1023.73141 117.291454 1023.949639 102.636503 1024 90.801749 1019.534689 84.154143 1005.769443 75.206733 987.253508 86.319651 965.766295 106.833225 961.569574Z" fill="#272636"></path></g></g></svg>