<?xml version="1.0" standalone="no"?><!DOCTYPE svg PUBLIC "-//W3C//DTD SVG 1.1//EN" "http://www.w3.org/Graphics/SVG/1.1/DTD/svg11.dtd"><svg t="1480904037159" class="icon" style="" viewBox="0 0 1372 1024" version="1.1" xmlns="http://www.w3.org/2000/svg" p-id="1861" xmlns:xlink="http://www.w3.org/1999/xlink" width="1372" height="1024"><defs><style type="text/css"></style></defs><path d="M1336.086722 592.630477C1325.461182 568.427859 1312.435913 546.355483 1297.16277 526.537398l0-463.601181c0-33.519214-26.642984-62.936216-59.385815-62.936216L134.701383 0c-34.528725 0-60.562152 28.281302-60.562152 62.936216L74.139231 527.899811c-14.988684 19.456629-27.812905 41.028527-38.32295 64.621588C12.047839 645.858697 0 709.65471 0 782.138512l0 19.850167 0 202.163292c0 10.96133 8.888837 19.848029 19.850167 19.848029l133.833032 0c10.96133 0 19.852306-8.886698 19.852306-19.848029l0-78.177278 1023.739067 0 0 78.177278c0 10.96133 8.888837 19.848029 19.850167 19.848029l133.830893 0c10.94422 0 19.828779-8.86531 19.850167-19.80953l0.442731-202.208207 0.044915 0 0-19.850167C1371.293445 709.620489 1359.446653 645.858697 1336.086722 592.630477zM143.78485 97.824259c0-12.61462 8.379803-21.094947 20.859679-21.094947l1047.46901 0c12.315188 0 19.674786 10.728202 19.674786 21.094947l0 398.00858c-1.661845-1.428716-3.325828-2.865987-5.013338-4.260482-13.358921-11.012662-40.102428-20.369895-54.105127-28.281302l0-83.913529c0-82.619557-35.189613-117.866918-117.6509-117.866918L784.285863 261.510608c-48.030946 0-80.104333 11.720603-98.634863 37.411823C667.111915 273.231211 635.038528 261.510608 587.007582 261.510608l-277.149486 0c-82.461287 0-111.234511 35.247361-111.234511 117.866918l0 84.94229c-12.049978 6.867675-36.742379 14.873189-50.561142 24.196201l-4.277592 0L143.78485 97.824259zM1120.128194 389.404203l0 33.13423c-32.918212-12.623175-63.85376-17.794784-86.445864-17.794784L716.195148 404.743649l0-16.359652c0-59.834962 17.670734-66.443842 78.784696-66.443842l247.20634 0C1102.649952 321.940155 1120.128194 328.773609 1120.128194 389.404203zM652.959501 390.522794l0 12.08206-325.772878 0c-18.806435 0-40.179425 4.645465-76.019232 18.605388l0-29.667242c0-60.630594 8.929474-69.602844 69.393242-69.602844l255.752969 0C637.427563 321.940155 652.959501 330.687832 652.959501 390.522794zM150.201239 558.225802c46.893106-57.79455 90.815424-70.580274 146.017754-76.855502l384.546997-10.693981c103.102808 0 390.781588 10.693981 390.781588 10.693981C1142.910651 487.645528 1175.046063 517.355546 1196.65646 536.83784c65.581907 59.129159 82.343653 91.968236 98.968515 204.612214l-1218.529929 0C77.099325 653.75941 143.014884 566.834456 150.201239 558.225802zM1301.207233 962.91812l-47.111263 0 0-82.452731c0-10.96133-8.886698-19.850167-19.858722-19.850167l-1099.805353 0c-10.96133 0-19.852306 8.888837-19.852306 19.850167l0 82.452731-42.793034 0 0-160.927302 1229.814217 0L1301.207233 962.91812z" p-id="1862"></path></svg>