<?xml version="1.0" standalone="no"?><!DOCTYPE svg PUBLIC "-//W3C//DTD SVG 1.1//EN" "http://www.w3.org/Graphics/SVG/1.1/DTD/svg11.dtd"><svg t="1480904068684" class="icon" style="" viewBox="0 0 1024 1024" version="1.1" xmlns="http://www.w3.org/2000/svg" p-id="2627" xmlns:xlink="http://www.w3.org/1999/xlink" width="1024" height="1024"><defs><style type="text/css"></style></defs><path d="M341.377 448.53h342.004c47.105 0 85.433-38.322 85.433-85.428v-277.661c-0.001-47.109-38.329-85.441-85.433-85.441h-342.004c-47.105 0-85.427 38.332-85.427 85.441v277.661c0 47.106 38.323 85.428 85.427 85.428v0zM320.933 92.441c0-15.143 12.317-27.459 27.446-27.459h328.001c15.129 0 27.446 12.316 27.446 27.459v264.662c0 15.131-12.316 27.447-27.446 27.447h-328.003c-15.128 0-27.446-12.317-27.446-27.447l0.001-264.662zM936.415 328.567h-73.69c-49.162 0-93.921 42.145-93.921 88.426v100.792c-8.656-2.963-17.788-4.93-27.437-4.93h-456.973c-9.653 0-18.79 1.966-27.451 4.936v-100.798c0-48.763-37.063-88.426-82.606-88.426h-75.438c-48.612 0-98.896 42.145-98.896 88.427v443.613c0 44.734 48.868 99.394 98.896 99.394h93.103v64h63.949v-64h512.050v64h63.986v-64.036l104.429 0.035c48.076 0 87.585-52.378 87.585-99.394v-443.613c0-49.584-41.84-88.426-87.585-88.427v0zM256.949 604.303c0-15.148 12.311-27.462 27.441-27.462h456.975c15.098 0 27.386 12.269 27.437 27.366v72.568c-0.051 15.101-12.339 27.347-27.436 27.346h-456.973c-15.129 0-27.441-12.301-27.441-27.44l-0.001-72.377zM960.013 855.606c0 19.988-13.849 41.413-23.598 41.413h-837.518c-13.702 0-34.91-25.162-34.911-41.413v-438.613c0-14.223 18.592-30.444 34.91-30.444h69.434c15.216 0 24.625 15.805 24.625 30.444v356.113h639.835v-85.332c0-0.040 0.011-0.059 0.011-0.095v-138.381c0-0.025-0.011-0.062-0.011-0.091v-132.213c0-13.94 19.478-30.444 35.935-30.444h67.691c14.77 0 23.598 15.477 23.598 30.444l-0.001 438.613zM960.013 855.606z" p-id="2628"></path></svg>