<?xml version="1.0" standalone="no"?><!DOCTYPE svg PUBLIC "-//W3C//DTD SVG 1.1//EN" "http://www.w3.org/Graphics/SVG/1.1/DTD/svg11.dtd"><svg width="200" height="200" viewBox="0 0 200 200" version="1.1" xmlns="http://www.w3.org/2000/svg" xmlns:xlink="http://www.w3.org/1999/xlink"><defs><style type="text/css"><![CDATA[
@font-face { font-family: ifont; src: url("http://at.alicdn.com/t/font_1442373896_4754455.eot?#iefix") format("embedded-opentype"), url("http://at.alicdn.com/t/font_1442373896_4754455.woff") format("woff"), url("http://at.alicdn.com/t/font_1442373896_4754455.ttf") format("truetype"), url("http://at.alicdn.com/t/font_1442373896_4754455.svg#ifont") format("svg"); }

]]></style></defs><g class="transform-group"><g transform="scale(0.1953125, 0.1953125)"><path d="M510.546394 5.04183c102.405321 0 195.214077 38.0762 262.479063 99.590206 67.345828 61.594847 108.99132 146.70834 108.99132 240.707201 0 25.065885-2.954285 49.417503-8.328689 73.135694-5.335519 23.51967-13.028735 46.206368-22.569018 68.020186C822.56371 552.055275 704.25314 686.508499 639.76336 759.802806c-7.237845 8.249895-13.604856 14.791891-18.859533 20.068058l0 41.167608-16.637935 0L582.889025 821.038472l-55.80498 0-20.62269 0-56.993039 0L428.287925 821.038472l-16.340153 0-3.886517 0 0-44.301995c-17.174148-18.877953-36.290531-38.551014-55.962569-58.818617-99.311867-102.326527-213.002209-219.4869-213.002209-372.58067 0-93.997837 41.664935-179.111331 109.009739-240.707201C315.350736 43.11803 408.140049 5.04183 510.546394 5.04183L510.546394 5.04183zM595.679329 886.877993l-17.470907 133.897569L456.724581 1020.775562l-19.057031-133.897569L595.679329 886.877993 595.679329 886.877993zM510.347872 758.690472l64.09376 0C635.599528 512.115634 688.865685 281.801131 623.780341 68.223824c-35.240619-12.017708-73.375148-18.561751-113.233947-18.561751-1.486864 0-2.973728 0-4.482081 0.039909C480.502124 284.934494 507.630994 522.308787 510.347872 758.690472L510.347872 758.690472zM312.08025 111.653963c-120.096239 146.82602-112.798019 310.430168-8.190543 486.805178 26.910906 31.254841 55.764048 60.960397 83.428108 89.476871 18.124799 18.680455 35.773761 36.845163 52.294017 54.891168-61.258179-205.010187-171.159218-477.366202-28.77537-678.885891C374.704542 74.569346 341.388762 90.86959 312.08025 111.653963L312.08025 111.653963zM745.997893 142.312216c62.269205 141.194766 30.082132 325.778738-44.600801 475.144604 46.702672-56.238862 90.726328-113.629967 105.579617-147.658991 8.566096-19.632129 15.428388-39.820937 20.12741-60.523445 4.66116-20.544919 7.198959-41.84299 7.198959-63.935148C834.303079 266.729877 800.750915 195.260126 745.997893 142.312216z" fill="#272636"></path></g></g></svg>