<?xml version="1.0" encoding="utf-8"?>
<!-- Generator: Adobe Illustrator 16.0.0, SVG Export Plug-In . SVG Version: 6.00 Build 0)  -->
<!DOCTYPE svg PUBLIC "-//W3C//DTD SVG 1.1//EN" "http://www.w3.org/Graphics/SVG/1.1/DTD/svg11.dtd">
<svg version="1.1" id="图层_1" xmlns="http://www.w3.org/2000/svg" xmlns:xlink="http://www.w3.org/1999/xlink" x="0px" y="0px"
	 width="1000px" height="1000px" viewBox="0 0 1000 1000" enable-background="new 0 0 1000 1000" xml:space="preserve">
<g>
	<path fill="#4E9637" d="M500.5,2.875C225.682,2.875,2.875,225.683,2.875,500.5c0,274.838,222.808,497.625,497.625,497.625
		c274.838,0,497.625-222.787,497.625-497.625C998.125,225.683,775.338,2.875,500.5,2.875z M500.5,976.008
		c-262.614,0-475.509-212.895-475.509-475.508S237.886,24.992,500.5,24.992c262.614,0,475.508,212.894,475.508,475.508
		S763.113,976.008,500.5,976.008z"/>
	<path fill="#4E9637" d="M621.838,405.953c7.991,0,15.896,0.594,23.802,1.458c-21.338-99.353-127.516-173.154-248.736-173.154
		c-135.529,0-246.556,92.344-246.556,209.644c0,67.722,36.933,123.293,98.661,166.469l-24.611,74.146l86.167-43.176
		c30.832,6.071,55.551,12.334,86.34,12.334c7.743,0,15.399-0.346,22.98-0.907c-4.773-16.501-7.603-33.736-7.603-51.728
		C412.324,493.351,504.765,405.953,621.838,405.953 M489.312,339.117c18.661,0,30.886,12.247,30.886,30.778
		c0,18.478-12.245,30.842-30.886,30.842c-18.402,0-36.933-12.365-36.933-30.842C452.378,351.32,470.866,339.117,489.312,339.117
		 M316.794,400.737c-18.487,0-37.127-12.365-37.127-30.843c0-18.531,18.64-30.777,37.127-30.777
		c18.489,0,30.789,12.203,30.789,30.777C347.583,388.372,335.315,400.737,316.794,400.737 M846.915,598.08
		c0-98.553-98.64-178.855-209.483-178.855c-117.277,0-209.632,80.367-209.632,178.856c0,98.833,92.398,178.877,209.632,178.877
		c24.58,0,49.331-6.134,73.997-12.312l67.603,37.084l-18.554-61.642C809.981,702.919,846.915,653.696,846.915,598.08
		 M569.463,567.238c-12.204,0-24.644-12.181-24.644-24.621c0-12.269,12.439-24.645,24.644-24.645
		c18.704,0,30.864,12.376,30.864,24.645C600.369,555.057,588.167,567.238,569.463,567.238 M705.078,567.238
		c-12.16,0-24.491-12.182-24.491-24.621c0-12.269,12.331-24.645,24.491-24.645c18.531,0,30.887,12.376,30.887,24.645
		C735.965,555.057,723.609,567.238,705.078,567.238"/>
</g>
</svg>
