<?xml version="1.0" encoding="utf-8"?>
<!-- Generator: Adobe Illustrator 16.0.0, SVG Export Plug-In . SVG Version: 6.00 Build 0)  -->
<!DOCTYPE svg PUBLIC "-//W3C//DTD SVG 1.1//EN" "http://www.w3.org/Graphics/SVG/1.1/DTD/svg11.dtd">
<svg version="1.1" id="图层_1" xmlns="http://www.w3.org/2000/svg" xmlns:xlink="http://www.w3.org/1999/xlink" x="0px" y="0px"
	 width="1000px" height="1000px" viewBox="0 0 1000 1000" enable-background="new 0 0 1000 1000" xml:space="preserve">
<g>
	<path fill="#040000" d="M798.348,879.899V551.342h170.17c0.194,0,0.363,0,0.509,0c15.177-0.654,27.493-11.831,27.493-26.959
		c0-9.697-5.188-18.256-12.946-22.983L517.987,11.994c-10.121-10.134-27.965-10.134-38.099,0L11.393,505.375
		c-7.722,7.686-10.049,19.323-5.855,29.336c4.17,10.086,14.001,16.655,24.899,16.655h171.127v328.582
		c0,7.467-202.948,112.639-198.087,117.487s217.58-90.528,225.022-90.528c0,0,63.58-33.603,271.499-33.603
		s271.389,33.603,271.389,33.603c7.37,0,220.283,95.329,225.132,90.528C1001.489,992.538,798.348,887.367,798.348,879.899z
		 M744.429,524.383V852.94c0,0-94.94-30.33-244.43-30.33c-147.914,0-244.563,30.33-244.563,30.33V524.383
		c0-14.886-12.037-26.899-26.935-26.899H95.484L498.956,69.137l404.466,428.347H771.388
		C756.502,497.484,744.429,509.497,744.429,524.383z"/>
	<path fill="#040000" d="M547.76,432.691c-5.431-13.577-12.68-30.766-21.723-51.592c-8.146,2.715-16.753,5.891-25.796,9.504
		c10.861,21.723,17.188,38.936,19.007,51.591C530.109,437.686,539.613,434.51,547.76,432.691z"/>
	<path fill="#040000" d="M429.642,550.809c16.292,18.11,26.693,32.148,31.226,42.088c6.328-6.327,13.577-12.219,21.723-17.649
		c-7.249-9.94-18.559-23.517-33.942-40.73c-6.34,5.431-12.68,10.425-19.007,14.935v-47.519c11.758,0,25.795,0.461,42.088,1.357
		v-24.438c-16.292,0.921-30.33,1.358-42.088,1.358v-59.738c8.146-1.794,16.292-3.612,24.438-5.431
		c8.146-1.794,16.741-3.152,25.796-4.073c-9.055-9.043-15.844-18.086-20.365-27.153c-12.68,7.249-28.742,12.898-48.197,16.971
		c-19.468,4.073-38.246,7.031-56.344,8.825c5.431,6.352,9.504,14.037,12.219,23.081c11.758-2.715,24.438-5.431,38.015-8.146v55.665
		c-18.11,0-35.76-0.437-52.949-1.358v24.438c17.189-0.896,33.481-1.357,48.876-1.357c-3.625,16.292-10.183,33.263-19.687,50.913
		c-9.503,17.649-21.953,34.62-37.336,50.912c7.237,7.249,13.577,14.935,19.007,23.081c8.146-11.759,15.383-22.62,21.723-32.584
		c6.328-9.94,13.116-23.081,20.365-39.373V637.7c0,12.68-0.46,29.408-1.357,50.233H431c-0.909-20.825-1.357-37.554-1.357-50.233
		V550.809z"/>
	<path fill="#040000" d="M632.614,651.277c-2.279,3.636-5.673,5.431-10.183,5.431c-4.533,0-9.746-0.219-15.613-0.68
		c-5.892-0.436-8.825-5.188-8.825-14.255v-90.965h40.73c-0.921-9.043-1.357-25.116-1.357-48.197c0-23.08,0.437-40.051,1.357-50.913
		h-43.445c6.327-15.371,12.219-27.833,17.649-37.336c5.431-9.504,11.759-16.971,19.008-22.402
		c-15.396-4.509-27.614-9.043-36.657-13.577c-2.716,12.68-6.109,24.438-10.183,35.299s-9.285,23.542-15.613,38.015h-82.818
		c0.897,10.861,1.358,27.614,1.358,50.234c0,22.645-0.461,38.937-1.358,48.876h35.3c-0.921,37.118-7.468,65.169-19.687,84.176
		c-12.219,19.008-29.19,32.124-50.913,39.373c10.861,3.612,19.456,10.4,25.796,20.365c24.438-17.214,41.627-35.518,51.591-54.986
		c9.94-19.443,15.832-49.094,17.65-88.928h27.153v101.826c0.896,14.474,5.431,22.619,13.576,24.438
		c8.146,1.795,17.868,2.716,29.19,2.716c11.298,0,20.583-0.921,27.832-2.716c7.225-1.818,14.014-15.395,20.365-40.729
		c-9.067-1.794-18.11-6.789-27.153-14.935C636.445,637.7,634.869,647.664,632.614,651.277z M512.46,529.086v-55.665h100.468v55.665
		H512.46z"/>
</g>
</svg>
