<?xml version="1.0" standalone="no"?><!DOCTYPE svg PUBLIC "-//W3C//DTD SVG 1.1//EN" "http://www.w3.org/Graphics/SVG/1.1/DTD/svg11.dtd"><svg width="64" height="64" viewBox="0 0 64 64" version="1.1" xmlns="http://www.w3.org/2000/svg" xmlns:xlink="http://www.w3.org/1999/xlink"><defs><style type="text/css"><![CDATA[
@font-face { font-family: ifont; src: url(http://at.alicdn.com/t/font_1442373896_4754455.eot?#iefix) format(embedded-opentype), url(http://at.alicdn.com/t/font_1442373896_4754455.woff) format(woff), url(http://at.alicdn.com/t/font_1442373896_4754455.ttf) format(truetype), url(http://at.alicdn.com/t/font_1442373896_4754455.svg#ifont) format(svg); }

]]></style></defs><g class="transform-group"><g transform="scale(0.0625, 0.0625)"><path d="M998.672 298.672 998.672 298.672l-558.56 539.328 0 0c-13.168 12.752-31.376 20.592-51.536 20.592-20.16 0-38.336-7.84-51.536-20.592l0 0L21.328 533.168l0 0C8.16 520.432 0 502.88 0 483.456c0-38.88 32.592-70.352 72.864-70.352 20.112 0 38.32 7.872 51.536 20.608l0 0 264.176 255.104L895.664 199.2l0 0c13.152-12.736 31.376-20.608 51.536-20.608 40.224 0 72.864 31.472 72.864 70.336C1020.048 268.32 1011.888 285.968 998.672 298.672z" fill="#272636"></path></g></g></svg>