<?xml version="1.0" standalone="no"?><!DOCTYPE svg PUBLIC "-//W3C//DTD SVG 1.1//EN" "http://www.w3.org/Graphics/SVG/1.1/DTD/svg11.dtd"><svg width="200" height="200" viewBox="0 0 200 200" version="1.1" xmlns="http://www.w3.org/2000/svg" xmlns:xlink="http://www.w3.org/1999/xlink"><defs><style type="text/css"><![CDATA[
@font-face { font-family: ifont; src: url(http://at.alicdn.com/t/font_1442373896_4754455.eot?#iefix) format(embedded-opentype), url(http://at.alicdn.com/t/font_1442373896_4754455.woff) format(woff), url(http://at.alicdn.com/t/font_1442373896_4754455.ttf) format(truetype), url(http://at.alicdn.com/t/font_1442373896_4754455.svg#ifont) format(svg); }

]]></style></defs><g class="transform-group"><g transform="scale(0.1953125, 0.1953125)"><path d="M414.268304 211.654631c34.28572 33.533873 80.640029 31.254168 124.507387 27.993066 5.375382 0 8.681094 0.054832 10.443149 0.14312 28.730973 0.701662 57.885731 3.731356 86.379718-0.083642 29.995823-4.014808 53.11164-21.129788 68.973851-47.22976 9.821411-16.161463 29.780213-47.676779 13.919861-65.042684-7.490592-8.196901-19.202308-11.752608-29.38245-14.748845-16.396589-4.812194-33.234621-8.448755-50.027115-11.438487-71.457084-12.712631-144.956888-9.582567-215.218824 8.802839-18.944877 4.958103-44.587607 12.166171-44.107131 36.8749C380.215851 170.443366 398.448844 196.183678 414.268304 211.654631zM549.21884 239.790817c-3.487865-0.085501-6.970154-0.14312-10.443149-0.14312C497.18525 242.738728 561.653594 240.415343 549.21884 239.790817zM713.378037 321.104628C566.08847 250.490468 395.732342 292.614358 277.973922 402.53182 219.715521 456.912028 174.894646 527.04943 153.541813 605.139313c-19.398402 70.94501-26.123206 150.16034-3.056645 221.071894 20.81102 63.97021 66.283372 113.869074 123.692344 145.481044 33.04875 18.201394 68.994297 30.623137 105.520689 39.033789 51.499211 11.859484 105.250247 9.240565 157.666731 9.069564l7.79542 0.322486c71.605781 6.757331 148.16223 4.679296 216.813595-16.857549 39.482667-12.388286 76.807374-32.442812 108.659117-59.471208 65.051049-55.207333 94.598923-131.958946 96.188118-217.416745C970.012583 554.726516 863.417561 393.044977 713.378037 321.104628zM668.782065 613.069489c11.813016 0 17.71906 5.906043 17.71906 17.71906 0 11.459862-5.906043 17.181893-17.71906 17.181893l-88.059061 0 0 52.083775 88.059061 0c11.813016 0 17.71906 5.906043 17.71906 17.71906 0 11.459862-5.906043 17.181893-17.71906 17.181893l-88.059061 0 0 74.635474c0 8.952465-1.166339 14.94215-3.489724 17.987643-2.332678 3.037128-7.609549 4.563127-15.839906 4.563127-7.165318 0-12.265611-1.526928-15.303669-4.563127-3.044563-3.045492-4.564057-9.036107-4.564057-17.987643l0-74.635474-86.984728 0c-11.812087 0-17.71906-5.722031-17.71906-17.181893 0-11.813016 5.545454-17.71906 16.645656-17.71906l88.058131 0 0-52.083775-86.984728 0c-11.812087 0-17.71906-5.722031-17.71906-17.181893 0-11.813016 5.545454-17.71906 16.645656-17.71906l64.433958 0c-12.88642-21.117706-25.690127-42.057906-38.391605-62.822458-12.710772-20.756188-25.505186-41.697317-38.391605-62.822458-6.44321-11.813016-5.193229-20.756188 3.758307-26.847173 4.647698-3.22114 8.943172-4.47205 12.88642-3.758307 3.934884 0.721179 7.869768 4.296403 11.813016 10.739613l87.521894 145.511713 10.202446 0c13.959823-23.626032 28.096224-47.60336 42.418496-71.950571 14.312978-24.338847 28.458672-48.325468 42.419425-71.950571 5.009217-8.230357 9.480338-12.257247 13.423586-12.081599 3.933955 0.184941 8.229428 1.703506 12.88642 4.564057 5.008288 3.22114 7.693191 6.803799 8.05378 10.738683 0.352225 3.943248-1.434922 9.128113-5.368877 15.571323l-75.172641 125.108679L668.782065 613.070418z" fill="#000000"></path></g></g></svg>