<?xml version="1.0" standalone="no"?><!DOCTYPE svg PUBLIC "-//W3C//DTD SVG 1.1//EN" "http://www.w3.org/Graphics/SVG/1.1/DTD/svg11.dtd"><svg width="2168" height="1024" viewBox="0 0 2168 1024" version="1.1" xmlns="http://www.w3.org/2000/svg" xmlns:xlink="http://www.w3.org/1999/xlink"><defs><style type="text/css"><![CDATA[
@font-face { font-family: ifont; src: url("//at.alicdn.com/t/font_1442373896_4754455.eot?#iefix") format("embedded-opentype"), url("//at.alicdn.com/t/font_1442373896_4754455.woff") format("woff"), url("//at.alicdn.com/t/font_1442373896_4754455.ttf") format("truetype"), url("//at.alicdn.com/t/font_1442373896_4754455.svg#ifont") format("svg"); }

]]></style></defs><g class="transform-group"><g transform="scale(1, 1)"><path d="M2082.394353 551.695059c0 46.802824-36.382118 85.112471-80.835765 85.11247H167.032471c-44.574118 0-81.016471-38.309647-81.016471-85.11247V195.282824c0-46.983529 36.382118-85.232941 81.016471-85.232942h1834.526117c44.453647 0 80.835765 38.309647 80.835765 85.232942v356.412235z m-30.539294 202.209882c-9.276235 13.010824-21.323294 30.960941-34.334118 35.659294-18.311529 6.866824-81.317647 2.168471-81.317647 2.168471H237.929412s-62.885647 4.698353-81.136941-2.168471c-13.010824-4.698353-25.118118-22.648471-34.334118-35.659294a34.454588 34.454588 0 0 1-1.807059-40.116706c5.601882-8.673882 15.36-15.962353 31.924706-15.962353H2021.496471c16.745412 0 26.383059 7.288471 31.924705 15.962353 8.432941 12.709647 7.288471 27.708235-1.566117 40.116706z m-98.18353 164.442353c-48.911059 30.238118-110.592 48.308706-177.212235 48.308706H392.131765c-66.740706 0-128.421647-18.070588-177.332706-48.248471-11.444706-7.228235-3.614118-25.6 9.276235-21.504 47.887059 15.480471 107.640471 24.576 172.092235 24.576h1376.376471c64.451765 0 124.084706-9.095529 172.032-24.576 12.709647-4.096 20.781176 14.336 9.155765 21.504z m214.859295-800.828235c0-37.827765-29.455059-68.668235-65.234824-68.668235H65.114353C29.334588 48.911059 0 79.751529 0 117.579294v532.841412c0 1.927529 0 3.915294 0.120471 5.842823-0.120471 4.216471-0.120471 8.493176-0.120471 12.709647 0 184.32 143.119059 335.088941 318.283294 335.088942h1531.843765c175.043765 0 318.343529-150.829176 318.343529-335.088942 0-4.216471-0.180706-8.432941-0.301176-12.649411 0.120471-1.987765 0.301176-3.975529 0.301176-5.903059V117.519059zM1931.143529 550.791529c-32.527059 0-58.729412-27.708235-58.729411-61.741176 0-34.273882 26.202353-61.982118 58.729411-61.982118s58.669176 27.708235 58.669177 61.982118c0 34.032941-26.142118 61.741176-58.669177 61.741176M1766.098824 528.865882c-20.901647 0-37.767529-17.769412-37.76753-39.755294 0-22.226824 16.865882-39.996235 37.76753-39.996235 21.082353 0 37.948235 17.769412 37.948235 39.996235 0 21.985882-16.865882 39.755294-37.948235 39.755294m-144.022589 0c-20.901647 0-37.827765-17.769412-37.827764-39.755294 0-22.226824 16.865882-39.996235 37.827764-39.996235 21.082353 0 37.948235 17.769412 37.948236 39.996235 0 21.985882-16.865882 39.755294-37.948236 39.755294m341.654589-381.650823H204.8c-43.068235 0-78.366118 36.984471-78.366118 82.281412v300.212705c0 45.296941 35.297882 82.281412 78.305883 82.281412h1759.111529c43.068235 0 78.245647-36.984471 78.245647-82.281412V229.436235c0-45.296941-35.177412-82.281412-78.245647-82.281411" fill="#272636"></path></g></g></svg>