<?xml version="1.0" standalone="no"?><!DOCTYPE svg PUBLIC "-//W3C//DTD SVG 1.1//EN" "http://www.w3.org/Graphics/SVG/1.1/DTD/svg11.dtd"><svg width="1024" height="1024" viewBox="0 0 1024 1024" version="1.1" xmlns="http://www.w3.org/2000/svg" xmlns:xlink="http://www.w3.org/1999/xlink"><defs><style type="text/css"><![CDATA[
@font-face { font-family: ifont; src: url("//at.alicdn.com/t/font_1442373896_4754455.eot?#iefix") format("embedded-opentype"), url("//at.alicdn.com/t/font_1442373896_4754455.woff") format("woff"), url("//at.alicdn.com/t/font_1442373896_4754455.ttf") format("truetype"), url("//at.alicdn.com/t/font_1442373896_4754455.svg#ifont") format("svg"); }

]]></style></defs><g class="transform-group"><g transform="scale(1, 1)"><path d="M760.535 72.858h-495.53c-13.626 0-24.774 11.148-24.774 24.773V371.09c0 10.788 8.745 19.532 19.531 21.629h506.013c10.788-2.097 19.532-10.841 19.532-21.629V97.631c0-13.625-11.148-24.773-24.772-24.773z m-25.397 266.571c0 7.069-5.729 12.798-12.797 12.798h-22.523c-7.068 0-12.798-5.73-12.798-12.798v-20.475c0-7.069 5.73-12.798 12.798-12.798s12.797-5.729 12.797-12.797v-67.57c0-7.068-5.729-12.797-12.797-12.797-7.068 0-12.798-5.73-12.798-12.798V179.72c0-7.069 5.73-12.798 12.798-12.798h22.523c7.068 0 12.797 5.73 12.797 12.798v159.71z m30.637 68.721H259.762c-10.787 0-19.531 8.745-19.531 19.532v498.686c0 13.625 11.148 24.772 24.773 24.772h495.53c13.626 0 24.774-11.148 24.774-24.772V427.682c0-10.787-8.745-19.532-19.533-19.532z m-30.637 201.557c0 7.067-5.729 12.798-12.797 12.798h-22.523c-7.068 0-12.798-5.73-12.798-12.798v-20.476c0-7.068 5.73-12.797 12.798-12.797s12.797-5.73 12.797-12.797v-44.022c0-7.068-5.729-12.797-12.797-12.797-7.068 0-12.798-5.73-12.798-12.798v-20.475c0-7.069 5.73-12.798 12.798-12.798h22.523c7.068 0 12.797 5.73 12.797 12.798v136.162z" fill="#272636"></path></g></g></svg>