<?xml version="1.0" standalone="no"?><!DOCTYPE svg PUBLIC "-//W3C//DTD SVG 1.1//EN" "http://www.w3.org/Graphics/SVG/1.1/DTD/svg11.dtd"><svg width="1024" height="1024" viewBox="0 0 1024 1024" version="1.1" xmlns="http://www.w3.org/2000/svg" xmlns:xlink="http://www.w3.org/1999/xlink"><defs><style type="text/css"><![CDATA[
@font-face { font-family: ifont; src: url("//at.alicdn.com/t/font_1442373896_4754455.eot?#iefix") format("embedded-opentype"), url("//at.alicdn.com/t/font_1442373896_4754455.woff") format("woff"), url("//at.alicdn.com/t/font_1442373896_4754455.ttf") format("truetype"), url("//at.alicdn.com/t/font_1442373896_4754455.svg#ifont") format("svg"); }

]]></style></defs><g class="transform-group"><g transform="scale(1, 1)"><path d="M612.573091 672.007227c-20.060895-0.711198-76.727499-4.399193-101.588723-4.399193-25.181519 0-96.142687 3.367701-109.472274 4.399193-13.06148 1.494027-17.292851 10.858302-18.821671 18.241456-1.198292 7.485485-1.799996 29.890774-1.469468 40.328497 0.271176 10.82044 80.063477 25.695219 129.800251 25.695219 49.711192 0 131.266649-8.904811 131.86733-27.503401 0.63138-18.597567 2.13257-36.921911-3.897773-42.919509C633.194758 679.887708 632.86116 672.753217 612.573091 672.007227L612.573091 672.007227zM318.71946 649.400347c-24.288173-6.005784-38.515199-7.843642-55.504128-14.201443-17.258059-5.962805-45.74588-5.962805-33.951253 27.541263 11.528568 33.505092 7.865131 22.618137 14.859429 35.251875 6.961552 12.670577 19.992333 9.368368 30.317493 9.368368l78.259388 0c0 0-1.497097-24.107047-3.599991-35.317367C346.64037 660.856259 343.00354 655.325289 318.71946 649.400347L318.71946 649.400347zM768.127913 644.856867c-16.993023 5.960759-36.111452 7.484462-60.305481 13.449313-24.050766 5.929036-27.951609 11.819187-30.082132 22.966061-2.101871 11.214413-3.632737 35.319413-3.632737 35.319413l82.760912 0c10.363022 0 23.02132 3.727904 30.014594-9.30083 6.996344-12.675694 3.66139-1.816369 15.190981-35.32453 11.860119-33.465183-16.989953-33.465183-33.946137-27.117614L768.127913 644.856867zM305.51267 571.589167l419.146219 0c17.891486 0 19.119453-4.859681 7.631818-18.237363-11.562337-13.416568-73.940013-80.897472-78.171384-85.688591-4.232394-5.212722-14.859429-9.299807-22.75219-9.299807L395.406027 458.363406c-8.16189 0-16.392342 0.74599-26.383904 13.767562-9.994632 13.027711-65.968457 74.903967-75.064626 85.687568-9.029654 11.145851-3.597945 13.770632 11.55722 13.770632L305.51267 571.589167zM831.225997 580.89409c-12.756535-0.744967-23.653723-1.916653-32.114418-2.625804 13.293771 16.005532 24.51944 30.915104 24.51944 75.530231L823.631018 852.53993c0 15.649422-12.398378 40.571021-25.189705 40.571021l-82.314751 0c-9.43386 0-15.158235-6.675026-15.158235-18.24248l0-36.134988L328.607668 838.733483l0 31.696909c0 8.905834-9.735735 21.543665-22.754237 21.543665l-67.188238 0c-12.466939 0-28.221762-18.565844-28.221762-41.313941L210.443431 653.761678c0-28.681226 6.994298-57.255005 17.891486-68.471464l6.365988-7.060813c-8.227382 1.134847-18.788925 1.879813-30.621415 2.619664-28.816303 1.49505-19.421328-23.458271-15.188934-36.449143 4.226255-13.386892 13.05841-14.160511 22.784936-13.81054 9.69685 0 15.156188 1.49505 26.38902 4.474918 10.29139 2.944052 15.454994 5.217838 24.249287 12.283768 35.45142-39.828101 86.088704-96.759741 94.02035-103.823624 12.091386-10.081613 12.091386-13.416568 26.356274-13.416568l252.603135 0c16.756639 0 27.886117-2.625804 37.647435 8.946766 7.596002 8.90788 66.034972 71.801303 99.416244 108.680235 9.392928-7.030114 14.259772-9.656941 24.852014-12.634762 11.255345-3.019777 16.724917-4.474918 26.41665-4.474918 9.660011-0.385786 18.489096 0.414439 22.725584 13.808494 4.227278 12.988826 13.658068 37.940101-15.131629 36.45119L831.225997 580.89409zM831.225997 580.89409M892.963083 897.594055 964.60168 897.594055 964.770526 331.136769 512.616542 126.842897 64.091202 328.145645 64.091202 894.491391 129.576659 894.491391 129.576659 400.289756 513.30932 231.227292 892.57832 396.251789Z" fill="#272636"></path></g></g></svg>