<?xml version="1.0" standalone="no"?><!DOCTYPE svg PUBLIC "-//W3C//DTD SVG 1.1//EN" "http://www.w3.org/Graphics/SVG/1.1/DTD/svg11.dtd"><svg t="1480904096849" class="icon" style="" viewBox="0 0 1024 1024" version="1.1" xmlns="http://www.w3.org/2000/svg" p-id="3342" xmlns:xlink="http://www.w3.org/1999/xlink" width="1024" height="1024"><defs><style type="text/css"></style></defs><path d="M838.90176 142.3872H184.26368c-60.4672 0-109.66528 49.19808-109.66528 109.67552v436.42368c0 60.47744 49.19808 109.67552 109.66528 109.67552h654.63808c60.48256 0 109.68064-49.19808 109.68064-109.67552V252.06272c0-60.47744-49.2032-109.67552-109.68064-109.67552z m58.45504 536.38144c0 29.76768-41.32352 63.7184-71.09632 63.7184H190.94528c-29.7728 0-65.1264-33.95072-65.1264-63.7184V258.2016c-0.26624-34.92352 36.096-64.5888 65.8688-64.5888h636.8c29.7728 0 68.864 42.25024 68.864 72.01792v413.13792zM757.07904 828.76416H266.0864c-15.37536 0-27.84256 10.33728-27.84256 23.08096 0 12.73856 12.4672 23.07072 27.84256 23.07072h490.99264c15.37536 0 27.83744-10.33216 27.83744-23.07072 0-12.74368-12.46208-23.08096-27.83744-23.08096z" fill="" p-id="3343"></path><path d="M487.64928 365.91104H284.78976c-12.35456 0-22.36928 9.14944-22.36928 20.42368 0 11.27936 10.01984 20.42368 22.36928 20.42368h82.08896v147.46112c0 11.28448 10.01984 20.42368 22.3744 20.42368 12.35456 0 22.36928-9.1392 22.36928-20.42368V406.7584h76.03712c12.35456 0 22.36928-9.14432 22.36928-20.42368-0.00512-11.27936-10.02496-20.42368-22.37952-20.42368zM748.5952 368.15872c-10.97728-5.12512-24.46336-1.19808-30.1312 8.832L657.664 509.53216l-75.264-132.5312c-5.64736-10.04032-19.15904-13.96736-30.1312-8.832-10.98752 5.15072-15.32416 17.47456-9.6768 27.50464l95.16544 167.8848c3.83488 6.8096 11.51488 11.08992 19.90656 11.08992s16.06656-4.28032 19.90144-11.08992l80.70144-167.89504c5.64736-10.0352 1.3056-22.3488-9.67168-27.50464z" fill="" p-id="3344"></path></svg>