<?xml version="1.0" standalone="no"?><!DOCTYPE svg PUBLIC "-//W3C//DTD SVG 1.1//EN" "http://www.w3.org/Graphics/SVG/1.1/DTD/svg11.dtd"><svg width="1024" height="1024" viewBox="0 0 1024 1024" version="1.1" xmlns="http://www.w3.org/2000/svg" xmlns:xlink="http://www.w3.org/1999/xlink"><defs><style type="text/css"><![CDATA[
@font-face { font-family: ifont; src: url("//at.alicdn.com/t/font_1442373896_4754455.eot?#iefix") format("embedded-opentype"), url("//at.alicdn.com/t/font_1442373896_4754455.woff") format("woff"), url("//at.alicdn.com/t/font_1442373896_4754455.ttf") format("truetype"), url("//at.alicdn.com/t/font_1442373896_4754455.svg#ifont") format("svg"); }

]]></style></defs><g class="transform-group"><g transform="scale(1, 1)"><path d="M112.64 844.8c0 36.864 29.696 66.56 66.56 66.56l665.6 0c36.864 0 66.56-29.696 66.56-66.56l0-183.296c0-36.864-29.696-66.56-66.56-66.56l-199.68 0L645.12 420.352c0-23.04-18.432-41.472-41.472-41.472-23.04 0-41.472 18.432-41.472 41.472l0 174.592L179.2 594.944c-36.864 0-66.56 29.696-66.56 66.56L112.64 844.8 112.64 844.8zM195.584 753.152c0-23.04 18.432-41.472 41.472-41.472s41.472 18.432 41.472 41.472c0 23.04-18.432 41.472-41.472 41.472S195.584 776.192 195.584 753.152L195.584 753.152zM345.6 753.152c0-23.04 18.432-41.472 41.472-41.472 23.04 0 41.472 18.432 41.472 41.472 0 23.04-18.432 41.472-41.472 41.472C364.032 794.624 345.6 776.192 345.6 753.152L345.6 753.152zM603.648 245.76C506.88 245.76 428.544 324.096 428.544 420.352c0 23.04 18.432 41.472 41.472 41.472 23.04 0 41.472-18.432 41.472-41.472 0-50.688 40.96-91.648 91.648-91.648 50.688 0 91.648 40.96 91.648 91.648 0 23.04 18.432 41.472 41.472 41.472 23.04 0 41.472-18.432 41.472-41.472C778.24 324.096 699.904 245.76 603.648 245.76L603.648 245.76zM603.648 112.64c-169.984 0-307.712 137.728-307.712 307.712 0 23.04 18.432 41.472 41.472 41.472 23.04 0 41.472-18.432 41.472-41.472 0-123.904 100.352-224.768 224.768-224.768 123.904 0 224.768 100.352 224.768 224.768 0 23.04 18.432 41.472 41.472 41.472 23.04 0 41.472-18.432 41.472-41.472C911.36 250.368 773.632 112.64 603.648 112.64L603.648 112.64zM603.648 112.64" fill="#272636"></path></g></g></svg>