<?xml version="1.0" standalone="no"?><!DOCTYPE svg PUBLIC "-//W3C//DTD SVG 1.1//EN" "http://www.w3.org/Graphics/SVG/1.1/DTD/svg11.dtd"><svg width="1024" height="1024" viewBox="0 0 1024 1024" version="1.1" xmlns="http://www.w3.org/2000/svg" xmlns:xlink="http://www.w3.org/1999/xlink"><defs><style type="text/css"><![CDATA[
@font-face { font-family: ifont; src: url("//at.alicdn.com/t/font_1442373896_4754455.eot?#iefix") format("embedded-opentype"), url("//at.alicdn.com/t/font_1442373896_4754455.woff") format("woff"), url("//at.alicdn.com/t/font_1442373896_4754455.ttf") format("truetype"), url("//at.alicdn.com/t/font_1442373896_4754455.svg#ifont") format("svg"); }

]]></style></defs><g class="transform-group"><g transform="scale(1, 1)"><path d="M864.216877 116.242468c0.00307-36.548404-13.255908-50.507324-50.314942-51.464115-20.845771-0.538259-41.717124-0.097214-63.586201-0.097214l-541.187763 0.028653c-40.358173 0.656963-53.902654 13.653975-53.943586 53.296857-0.271176 262.793218-0.36532 525.585413-0.345877 788.378631 0.00307 36.297694 15.963577 51.55826 53.686736 51.588959 162.798806 0.13303 433.914574 0.072655 596.71338 0.022513 46.400796-0.014326 58.996672-12.595876 58.993602-58.317197C864.212784 638.533858 864.193341 377.388163 864.216877 116.242468zM240.23648 174.541245c0.092098-31.891338 15.482623-45.017286 48.350195-45.065382 111.878067-0.163729 332.074118-0.188288 443.952184 0.034792 31.710212 0.063445 47.717791 14.919804 47.883567 46.170552 0.548492 103.370299 0.615007 206.746738 0.101307 310.117037-0.158612 31.962969-15.040555 46.009893-47.647183 46.319955-56.769958 0.540306-113.548102 0.150426-170.323177 0.150426 0-0.118704 0-0.23843 0-0.357134-55.090712 0-218.499409 0.216941-273.589099-0.077771-35.180244-0.188288-46.787606-9.877975-47.242977-44.747133C240.362346 382.91504 239.934604 278.722002 240.23648 174.541245zM788.709159 608.65127c0 6.455015-5.281283 11.736299-11.736299 11.736299L250.451122 620.387569c-6.455015 0-11.736299-5.281283-11.736299-11.736299l0 0c0-6.455015 5.281283-11.736299 11.736299-11.736299l526.520715 0C783.427876 596.914972 788.709159 602.196255 788.709159 608.65127L788.709159 608.65127zM581.275783 521.511631c29.454846 1.194198 58.983369 0.582261 90.567715 0.582261 6.299473-58.022485 12.251022-112.848161 18.293645-168.504762l-141.697209 0c6.15928 53.284577 11.712763 104.465237 18.552541 155.472957C567.648414 513.955538 576.165392 521.304923 581.275783 521.511631zM587.263148 415.459247c25.450648 1.108241 50.985208 0.296759 78.111009 0.296759-2.196015 26.710338-4.250814 49.41648-5.865591 72.154343-1.043772 14.694677-8.350179 21.067828-23.101137 19.954471-17.398252-1.312902-34.845623-1.966795-52.182476-2.901073-4.372587-25.424042-8.449439-47.846728-12.006452-70.351278C570.439994 423.357124 571.44488 414.770562 587.263148 415.459247zM389.896034 324.661288l19.159362 0c0 0 9.414417-49.729611 10.674107-56.381102 1.258667-6.65149 10.987239-9.853415 10.987239-22.169929 0-12.316513 0-49.538253 0-49.538253l-62.441121 0c0 0 0 39.229466 0 49.538253s9.488095 15.418154 10.94733 22.169929C380.681162 275.03196 389.896034 324.661288 389.896034 324.661288zM609.973382 324.661288l19.159362 0c0 0 9.414417-49.729611 10.674107-56.381102 1.258667-6.65149 10.987239-9.853415 10.987239-22.169929 0-12.316513 0-49.538253 0-49.538253l-62.441121 0c0 0 0 39.229466 0 49.538253s9.488095 15.418154 10.94733 22.169929C600.75851 275.03196 609.973382 324.661288 609.973382 324.661288z" fill="#272636"></path></g></g></svg>