<?xml version="1.0" standalone="no"?><!DOCTYPE svg PUBLIC "-//W3C//DTD SVG 1.1//EN" "http://www.w3.org/Graphics/SVG/1.1/DTD/svg11.dtd"><svg xmlns:xlink="http://www.w3.org/1999/xlink" xmlns="http://www.w3.org/2000/svg" version="1.1" width="200" height="200" viewBox="0 0 200 200"><defs><style type="text/css"><![CDATA[
@font-face {
  font-family: "ifont";
  src: url("//at.alicdn.com/t/font_1442373896_4754455.eot?#iefix") format("embedded-opentype"), url("//at.alicdn.com/t/font_1442373896_4754455.woff") format("woff"), url("//at.alicdn.com/t/font_1442373896_4754455.ttf") format("truetype"), url("//at.alicdn.com/t/font_1442373896_4754455.svg#ifont") format("svg");
}

]]></style></defs><g class="transform-group"><g transform="scale(0.1953125, 0.1953125)"><path d="M108.21632 393.344l0 55.64416 408.0384-315.63776 408.0384 315.63776L924.29312 393.344l-408.0384-315.63776L108.21632 393.344zM108.21632 393.344M850.10432 295.30624 850.10432 96.5888l-111.2832 0 0 111.27808 37.09952 32.35328L775.92064 133.6832l37.09952 0 0 129.82784L850.10432 295.30624zM850.10432 295.30624M665.70752 857.0368l0 37.08416 184.6528 0L850.36032 444.20096l-37.0944-29.6448 0 442.47552L665.70752 857.03168zM665.70752 857.0368M182.40512 445.61408l0 448.50688 184.73472 0 0-37.08416L219.49952 857.0368 219.49952 415.56992 182.40512 445.61408zM182.40512 445.61408M337.02912 602.79808c-5.34528 0-10.68544-2.08384-14.68928-6.23616-7.83872-8.11008-7.61344-21.03808 0.50176-28.88192l179.2256-173.12256c7.90528-7.64416 20.45952-7.64416 28.37504 0l179.23072 173.12256c8.11008 7.83872 8.33536 20.77184 0.49664 28.88192-7.8336 8.1152-20.7616 8.33536-28.87168 0.50176l-165.0432-159.42656-165.0432 159.42656C347.24864 600.89344 342.13376 602.79808 337.02912 602.79808L337.02912 602.79808zM337.02912 602.79808M516.25472 890.68032c-11.27936 0-20.41856-8.00256-20.41856-17.87392L495.83616 406.71232c0-9.87648 9.14432-17.88416 20.41856-17.88416 11.27936 0 20.41856 8.00768 20.41856 17.88416l0 466.09408C536.67328 882.67776 527.53408 890.68032 516.25472 890.68032L516.25472 890.68032zM516.25472 890.68032" fill="#272636"></path></g></g></svg>