<?xml version="1.0" encoding="utf-8"?>
<!-- Generated by IcoMoon.io -->
<!DOCTYPE svg PUBLIC "-//W3C//DTD SVG 1.1//EN" "http://www.w3.org/Graphics/SVG/1.1/DTD/svg11.dtd">
<svg version="1.1" xmlns="http://www.w3.org/2000/svg" xmlns:xlink="http://www.w3.org/1999/xlink" width="1170" height="1024" viewBox="0 0 1170 1024">
<g id="icomoon-ignore">
</g>
<path d="M368.649 299.917q0-19.99-12.188-32.178t-32.178-12.192q-20.964 0-37.054 12.431t-16.089 31.937q0 19.015 16.089 31.445t37.054 12.434q19.99 0 32.178-11.944t12.188-31.937zM730.9 547.103q0-13.652-12.431-24.377t-31.937-10.725q-13.165 0-24.134 10.972t-10.972 24.134q0 13.652 10.972 24.621t24.134 10.972q19.503 0 31.937-10.725t12.431-24.865zM615.839 299.917q0-19.99-11.944-32.178t-31.937-12.192q-20.964 0-37.054 12.431t-16.089 31.937q0 19.015 16.089 31.445t37.054 12.434q19.99 0 31.937-11.944t11.944-31.937zM925.431 547.103q0-13.652-12.676-24.377t-31.692-10.725q-13.165 0-24.134 10.972t-10.969 24.134q0 13.652 10.969 24.621t24.134 10.972q19.015 0 31.692-10.725t12.676-24.865zM795.744 353.546q-15.114-1.951-34.129-1.951-82.395 0-151.628 37.542t-108.968 101.655-39.735 140.17q0 38.029 11.213 74.107-17.065 1.462-33.153 1.462-12.676 0-24.377-0.732t-26.816-3.168-21.694-3.413-26.572-5.118-24.377-5.118l-123.35 61.92 35.103-106.286q-141.389-98.972-141.389-238.9 0-82.395 47.535-151.628t128.714-108.968 177.225-39.735q85.809 0 162.112 32.178t127.737 88.977 66.551 127.008zM1084.375 627.062q0 57.044-33.4 108.968t-90.442 94.342l26.816 88.247-97.021-53.143q-73.132 18.038-106.286 18.038-82.395 0-151.628-34.372t-108.968-93.364-39.735-128.714 39.735-128.714 108.968-93.367 151.628-34.372q78.496 0 147.727 34.372t110.918 93.609 41.684 128.47z"></path>
</svg>
