<?xml version="1.0" standalone="no"?><!DOCTYPE svg PUBLIC "-//W3C//DTD SVG 1.1//EN" "http://www.w3.org/Graphics/SVG/1.1/DTD/svg11.dtd"><svg xmlns:xlink="http://www.w3.org/1999/xlink" xmlns="http://www.w3.org/2000/svg" version="1.1" width="200" height="200" viewBox="0 0 200 200"><defs><style type="text/css"><![CDATA[
@font-face {
  font-family: "ifont";
  src: url("//at.alicdn.com/t/font_1442373896_4754455.eot?#iefix") format("embedded-opentype"), url("//at.alicdn.com/t/font_1442373896_4754455.woff") format("woff"), url("//at.alicdn.com/t/font_1442373896_4754455.ttf") format("truetype"), url("//at.alicdn.com/t/font_1442373896_4754455.svg#ifont") format("svg");
}

]]></style></defs><g class="transform-group"><g transform="scale(0.1953125, 0.1953125)"><path d="M184.256 539.584C295.68 515.648 280.448 382.592 277.12 353.472 271.68 308.672 218.944 230.336 147.328 236.48c-90.112 8.064-103.296 138.24-103.296 138.24C31.872 434.88 73.216 563.456 184.256 539.584zM302.528 771.008c-3.264 9.344-10.56 33.28-4.224 54.144 12.416 46.656 53.056 48.768 53.056 48.768L409.6 873.92l0-142.528L347.136 731.392C319.04 739.776 305.472 761.536 302.528 771.008zM390.912 316.416c61.504 0 111.168-70.72 111.168-158.272C502.144 70.72 452.416 0 390.912 0 329.536 0 279.68 70.72 279.68 158.144 279.68 245.632 329.536 316.416 390.912 316.416zM655.744 326.848c82.176 10.688 134.976-77.056 145.472-143.488 10.752-66.368-42.24-143.552-100.416-156.8-58.368-13.376-131.136 80-137.728 140.928C555.136 241.984 573.76 316.352 655.744 326.848zM857.152 717.632c0 0-127.168-98.304-201.344-204.672C555.136 356.16 412.16 419.968 364.352 499.712 316.736 579.456 242.56 629.824 232 643.2c-10.688 13.184-153.6 90.304-121.856 231.168s143.168 138.112 143.168 138.112 82.112 8.192 177.344-13.184c95.296-21.12 177.344 5.312 177.344 5.312s222.592 74.56 283.52-68.992C952.384 792.064 857.152 717.632 857.152 717.632zM476.224 931.264 331.584 931.264c-62.528-12.48-87.36-55.168-90.56-62.4-3.072-7.36-20.864-41.664-11.392-99.968 26.944-87.424 104-93.696 104-93.696l77.056 0L410.688 580.48l65.536 1.088L476.224 931.264zM745.792 930.24 579.264 930.24c-64.512-16.64-67.52-62.592-67.52-62.592l0-184.128 67.52-1.088 0 165.568c4.096 17.536 26.048 20.8 26.048 20.8l68.544 0 0-185.344 71.936 0L745.792 930.24zM981.568 438.528c0-31.808-26.432-127.552-124.416-127.552-98.112 0-111.232 90.368-111.232 154.304 0 60.992 5.12 146.176 127.04 143.424C994.88 605.952 981.568 470.528 981.568 438.528z" fill="#272636"></path></g></g></svg>