<?xml version="1.0" standalone="no"?><!DOCTYPE svg PUBLIC "-//W3C//DTD SVG 1.1//EN" "http://www.w3.org/Graphics/SVG/1.1/DTD/svg11.dtd"><svg width="200" height="200" viewBox="0 0 200 200" version="1.1" xmlns="http://www.w3.org/2000/svg" xmlns:xlink="http://www.w3.org/1999/xlink"><defs><style type="text/css"><![CDATA[
@font-face { font-family: ifont; src: url(http://at.alicdn.com/t/font_1442373896_4754455.eot?#iefix) format(embedded-opentype), url(http://at.alicdn.com/t/font_1442373896_4754455.woff) format(woff), url(http://at.alicdn.com/t/font_1442373896_4754455.ttf) format(truetype), url(http://at.alicdn.com/t/font_1442373896_4754455.svg#ifont) format(svg); }

]]></style></defs><g class="transform-group"><g transform="scale(0.1953125, 0.1953125)"><path d="M512 995.555556c-266.632533 0-483.555556-216.923022-483.555556-483.555556S245.367467 28.444444 512 28.444444s483.555556 216.923022 483.555556 483.555556S778.632533 995.555556 512 995.555556zM512 85.333333C276.736 85.333333 85.333333 276.736 85.333333 512c0 235.264 191.402667 426.666667 426.666667 426.666667 235.264 0 426.666667-191.402667 426.666667-426.666667C938.666667 276.736 747.264 85.333333 512 85.333333zM517.276444 719.36 517.276444 349.3632l-65.277156 0 0-34.443378 120.001422-10.276978 0 414.72L517.276444 719.362844z" fill="#000000"></path></g></g></svg>