<?xml version="1.0" standalone="no"?><!DOCTYPE svg PUBLIC "-//W3C//DTD SVG 1.1//EN" "http://www.w3.org/Graphics/SVG/1.1/DTD/svg11.dtd"><svg width="200" height="200" viewBox="0 0 200 200" version="1.1" xmlns="http://www.w3.org/2000/svg" xmlns:xlink="http://www.w3.org/1999/xlink"><defs><style type="text/css"><![CDATA[
@font-face { font-family: ifont; src: url(http://at.alicdn.com/t/font_1442373896_4754455.eot?#iefix) format(embedded-opentype), url(http://at.alicdn.com/t/font_1442373896_4754455.woff) format(woff), url(http://at.alicdn.com/t/font_1442373896_4754455.ttf) format(truetype), url(http://at.alicdn.com/t/font_1442373896_4754455.svg#ifont) format(svg); }

]]></style></defs><g class="transform-group"><g transform="scale(0.1953125, 0.1953125)"><path d="M515.7888 995.555556c-266.632533 0-483.555556-216.923022-483.555556-483.555556s216.923022-483.555556 483.555556-483.555556 483.555556 216.923022 483.555556 483.555556S782.421333 995.555556 515.7888 995.555556zM515.7888 85.333333c-235.264 0-426.666667 191.402667-426.666667 426.666667s191.402667 426.666667 426.666667 426.666667 426.666667-191.402667 426.666667-426.666667S751.055644 85.333333 515.7888 85.333333zM555.096178 717.556622l0-116.388978-184.999822 0 0-41.389511 184.999822-253.334756 51.387733 0 0 250.001067 55.000178 0 0 44.7232-55.000178 0 0 116.388978L555.096178 717.556622zM423.367111 556.444444l135.338667 0 0-182.903467L423.367111 556.444444z" fill="#000000"></path></g></g></svg>