<?xml version="1.0" standalone="no"?><!DOCTYPE svg PUBLIC "-//W3C//DTD SVG 1.1//EN" "http://www.w3.org/Graphics/SVG/1.1/DTD/svg11.dtd"><svg t="1489046085366" class="icon" style="" viewBox="0 0 1024 1024" version="1.1" xmlns="http://www.w3.org/2000/svg" p-id="3921" xmlns:xlink="http://www.w3.org/1999/xlink" width="1024" height="1024"><defs><style type="text/css"></style></defs><path d="M511.948835 64.442708c-157.753907 0-286.089807 128.349203-286.089807 286.099017 0 56.434314 16.487509 109.054765 44.811602 153.426345 21.943778 18.028609 34.149774 5.489014 40.11872-5.92392l-0.020466 0c2.65855-11.783371-1.056052-20.985964-3.372817-25.28385-0.530073-0.887206-1.072425-1.766226-1.589195-2.653433-0.004093-0.008186-0.032746-0.049119-0.032746-0.049119l0-0.016373c-20.469194-35.151591-32.231075-75.966159-32.231075-119.498628 0-131.464147 106.947777-238.416018 238.406808-238.416018 131.463124 0 238.410901 106.951871 238.410901 238.416018 0 131.454938-106.947777 238.406808-238.410901 238.406808-16.968463 0-33.468253-1.947352-49.424666-5.365194-0.01228 0.008186-0.040932 0.049119-0.040932 0.049119s-13.003152-2.300392-21.318538-0.008186c-1.080611 0.385786-2.193968 0.830925-3.320629 1.339508-0.035816 0.016373-0.090051 0.032746-0.122797 0.057305-0.020466 0.016373-0.050142 0.016373-0.065492 0.033769-10.365068 4.683672-21.248953 14.461363-10.998495 33.877575 0.016373 0.016373 10.743692 7.66661 13.606903 8.422833 22.922059 5.981225 46.914496 9.269108 71.685669 9.269108 157.74879 0 286.085714-128.33283 286.085714-286.081621C798.035572 192.791911 669.697625 64.442708 511.948835 64.442708L511.948835 64.442708z" p-id="3922"></path><path d="M524.619412 251.452939c-53.081962 0-96.108918 43.023886-96.108918 96.097662 0 12.276604 2.387373 23.977088 6.577812 34.765805-21.290909 23.361057-40.35408 48.800449-57.223283 73.804936C283.119149 596.466764 255.370155 771.381515 264.602424 937.618631c1.590218 28.66076 46.302559 28.817326 44.695968 0-8.792247-158.455895 16.705474-319.67267 104.289228-454.603779 13.755282-21.191648 29.975708-43.040259 47.761794-63.237253 16.915251 14.8318 39.009456 23.886013 63.269999 23.886013 53.073776 0 96.101755-43.032072 96.101755-96.113011C620.721167 294.476825 577.693188 251.452939 524.619412 251.452939L524.619412 251.452939z" p-id="3923"></path></svg>