<?xml version="1.0" standalone="no"?><!DOCTYPE svg PUBLIC "-//W3C//DTD SVG 1.1//EN" "http://www.w3.org/Graphics/SVG/1.1/DTD/svg11.dtd"><svg xmlns:xlink="http://www.w3.org/1999/xlink" xmlns="http://www.w3.org/2000/svg" version="1.1" width="200" height="200" viewBox="0 0 200 200"><defs><style type="text/css"><![CDATA[
@font-face {
  font-family: "ifont";
  src: url("//at.alicdn.com/t/font_1442373896_4754455.eot?#iefix") format("embedded-opentype"), url("//at.alicdn.com/t/font_1442373896_4754455.woff") format("woff"), url("//at.alicdn.com/t/font_1442373896_4754455.ttf") format("truetype"), url("//at.alicdn.com/t/font_1442373896_4754455.svg#ifont") format("svg");
}

]]></style></defs><g class="transform-group"><g transform="scale(0.2, 0.2)"><path d="M879.8504 45.6361H150.09354050823674c-40.3024 0-72.9756 32.6718-72.9756 72.9725V848.3348289859474c0 40.3007 32.6732 72.9725 72.9756 72.9725H879.8504151359734c40.3024 0 72.9756-32.6718 72.9756-72.9725V118.60858338046808C952.826 78.3079 920.1528 45.6361 879.8504 45.6361zM898.0938 793.6049c0 40.3007-32.6732 72.9725-72.9756 72.9725H204.8247314707846c-40.3024 0-72.9756-32.6718-72.9756-72.9725v-48.27427004490955l173.3168-174.4907 239.3887 241.0086 43.3924-43.6864-97.6539-98.3133 261.8495-263.6552 145.9512 146.9564V793.6049358534914zM752.1426 319.2835 447.1336 626.3973 305.1669 483.4722 131.8491 657.9589v-484.62142667271587c0-40.3007 32.6732-72.9725 72.9756-72.9725h620.2934933382369c40.3024 0 72.9756 32.6718 72.9756 72.9725v292.9044108094712L752.1426 319.2835z" fill="#272636"></path></g></g></svg>