<?xml version="1.0" standalone="no"?><!DOCTYPE svg PUBLIC "-//W3C//DTD SVG 1.1//EN" "http://www.w3.org/Graphics/SVG/1.1/DTD/svg11.dtd"><svg t="1507881462953" class="icon" style="" viewBox="0 0 1024 1024" version="1.1" xmlns="http://www.w3.org/2000/svg" p-id="3049" xmlns:xlink="http://www.w3.org/1999/xlink" width="1100" height="1100"><defs><style type="text/css"></style></defs><path d="M848 693.2H330.56a24.96 24.96 0 0 1-24.56-20.48L204 118.4H89.84a24.96 24.96 0 1 1 0-50H224.8a24.96 24.96 0 0 1 24.56 20.48L351.36 643.2H848a24.96 24.96 0 1 1 0 50z" fill="" p-id="3050"></path><path d="M816 570.72H313.36a24.96 24.96 0 0 1 0-50h484.8L898.4 247.2H356.56a24.96 24.96 0 0 1 0-50h577.52a24.96 24.96 0 0 1 23.44 33.6l-118.4 323.52a24.96 24.96 0 0 1-23.44 16z m-448 384.88A99.28 99.28 0 1 1 466.56 856a99.44 99.44 0 0 1-99.28 99.36z m0-148.64a49.36 49.36 0 1 0 48.56 49.04 49.36 49.36 0 0 0-49.36-49.28z m432 148.64A99.28 99.28 0 1 1 898.88 856a99.44 99.44 0 0 1-99.36 99.36z m0-148.64a49.36 49.36 0 1 0 49.36 49.28 49.36 49.36 0 0 0-49.36-49.28z" fill="" p-id="3051"></path></svg>