<?xml version="1.0" standalone="no"?><!DOCTYPE svg PUBLIC "-//W3C//DTD SVG 1.1//EN" "http://www.w3.org/Graphics/SVG/1.1/DTD/svg11.dtd"><svg t="1505815250523" class="icon" style="" viewBox="0 0 1024 1024" version="1.1" xmlns="http://www.w3.org/2000/svg" p-id="5066" xmlns:xlink="http://www.w3.org/1999/xlink" width="1000" height="1000"><defs><style type="text/css"></style></defs><path d="M175.49292 476.685703c17.148565 0 31.099299-13.951757 31.099299-31.099299 0-17.051351-13.790074-30.970362-31.584346-30.970362l-0.290619 0-64.233953 0.193405c-1.647523-0.226151-3.358491-0.355087-5.070482-0.355087-22.574135 0-40.949644 18.60166-40.949644 41.433668l-0.323365 449.28361c0 22.929222 17.955954 40.885176 40.949644 40.885176l1.77646 0.064468c0.74292 0.032746 1.453095 0.064468 2.131547 0.064468 0.871857 0 1.77646-0.032746 1.938142-0.128937l63.523779 0.097214c0.613984 0 1.065262-0.128937 1.162476-0.128937 0 0-0.032746 0-0.128937 0.064468l4.004197-0.161682 0-0.387833c14.338566-2.38942 25.060769-14.661931 25.060769-29.484521 0-14.823614-10.722202-27.127847-25.060769-29.484521l0-0.807389-52.834322 0 1.517563-409.076886L175.49292 476.686726zM942.328909 431.763584c-19.311835-31.455409-47.925522-47.504944-87.163175-49.119721-2.00261-0.257873-4.036943-0.419556-6.104021-0.419556l-207.492728-0.678452c14.20963-42.790572 21.960151-88.777953 21.960151-130.11543 0-28.903284-3.165086-57.969273-9.429767-86.420255l-1.25969-3.391237-0.097214 0C639.856993 111.982444 596.065628 77.620845 545.007765 77.620845c-58.712193 0-102.987582 49.02353-102.987582 114.032126l-0.064468 3.229554c-0.064468 2.357697-0.128937 4.650927 0.064468 6.523577-2.970658 107.831914-88.906889 198.644199-199.871143 211.271798l-3.551896 0.387833-0.840134 290.910603 0 242.177692 14.790868 0 0.613984 0.128937 3.358491-0.031722 0.032746-0.097214 514.777253 0.226151 9.203616-0.257873c21.023826 0 32.908504-5.328355 51.541887-17.310248 17.180288-11.109012 31.099299-26.804483 40.013319-44.857651 2.712785-4.004197 4.682649-8.331759 5.909593-12.982686l79.800487-356.855524c1.162476-4.489244 1.550309-9.171893 1.226944-13.305027C960.801632 476.395084 955.020976 452.529537 942.328909 431.763584zM900.249535 491.509317l-84.935438 376.555192-0.161682 0.355087c-2.422166 5.877871-6.523577 10.786671-11.755742 14.145162-3.64911 2.357697-7.621585 3.843538-11.851932 4.489244-0.484024-0.032746-1.000793-0.032746-1.485841-0.032746l-3.229554 0.097214-490.588341-0.581238-0.193405-415.82559c84.321454-38.139645 157.048849-78.379115 194.058764-177.846524l0.323365 0.064468 1.162476-3.520173c3.939729-11.949146 7.007601-23.703865 9.139148-34.878368 5.747911-30.29191 5.522784-59.810201 5.490038-61.521169-1.87265-14.338566 1.25969-26.223245 9.333576-35.395138 9.107425-10.366092 22.961968-15.017018 32.585139-15.017018 23.930015 0.807389 48.247864 32.81129 48.345078 51.057863 0.032746 0.290619 5.716188 28.548196 5.747911 58.486042 0.064468 29.323862-2.809999 47.989991-4.101411 54.933123l-0.51677 0-0.613984 3.261277c-5.942339 31.293727-16.470113 61.263295-31.196513 89.036849l-1.033539 3.036149 0.128937 0.128937c-2.00261 4.973268-3.035126 10.237155-3.035126 15.598256 0 26.513864 28.742625 26.513864 44.210921 26.513864l247.37711 0.290619 7.588839 0.226151c1.324158 0.064468 2.648316 0.097214 3.810792 0.128937l0 0.452301 5.845125-0.257873c11.07729 0 21.152762 5.65172 26.933419 15.145955 4.9088 7.976672 6.104021 17.729803 3.2623 26.77276l-0.969071 4.036943L900.249535 491.509317z" p-id="5067"></path></svg>