<?xml version="1.0" standalone="no"?><!DOCTYPE svg PUBLIC "-//W3C//DTD SVG 1.1//EN" "http://www.w3.org/Graphics/SVG/1.1/DTD/svg11.dtd"><svg t="1507855659005" class="icon" style="" viewBox="0 0 1024 1024" version="1.1" xmlns="http://www.w3.org/2000/svg" p-id="2399" xmlns:xlink="http://www.w3.org/1999/xlink" width="1100" height="1100"><defs><style type="text/css"></style></defs><path d="M384.8 64H129c-35.3 0-64 28.7-64 64v255.8c0 35.3 28.7 64 64 64h255.8c35.3 0 64-28.7 64-64V128c0-35.4-28.7-64-64-64z m0 319.8H129V128h255.8v255.8zM609.1 191.8h319.2c17.7 0 32-14.3 32-32s-14.3-32-32-32H609.1c-17.7 0-32 14.3-32 32s14.4 32 32 32zM928.3 319.8H609.1c-17.7 0-32 14.3-32 32s14.3 32 32 32h319.2c17.7 0 32-14.3 32-32s-14.3-32-32-32zM384.8 575H129c-35.3 0-64 28.7-64 64v255.8c0 35.3 28.7 64 64 64h255.8c35.3 0 64-28.7 64-64V639c0-35.4-28.7-64-64-64z m0 319.8H129V639h255.8v255.8zM928.3 638.8H609.1c-17.7 0-32 14.3-32 32s14.3 32 32 32h319.2c17.7 0 32-14.3 32-32s-14.3-32-32-32zM928.3 830.8H609.1c-17.7 0-32 14.3-32 32s14.3 32 32 32h319.2c17.7 0 32-14.3 32-32s-14.3-32-32-32z" p-id="2400"></path></svg>