<?xml version="1.0" standalone="no"?><!DOCTYPE svg PUBLIC "-//W3C//DTD SVG 1.1//EN" "http://www.w3.org/Graphics/SVG/1.1/DTD/svg11.dtd"><svg width="32" height="32" viewBox="0 0 32 32" version="1.1" xmlns="http://www.w3.org/2000/svg" xmlns:xlink="http://www.w3.org/1999/xlink"><defs><style type="text/css"><![CDATA[
@font-face { font-family: ifont; src: url(http://at.alicdn.com/t/font_1442373896_4754455.eot?#iefix) format(embedded-opentype), url(http://at.alicdn.com/t/font_1442373896_4754455.woff) format(woff), url(http://at.alicdn.com/t/font_1442373896_4754455.ttf) format(truetype), url(http://at.alicdn.com/t/font_1442373896_4754455.svg#ifont) format(svg); }

]]></style></defs><g class="transform-group"><g transform="scale(0.03125, 0.03125)"><path d="M257.634733 256.84675l0 73.40508 508.729512 0 0-73.40508c0-20.257607-16.22162-36.688743-36.167509-36.688743L621.645153 220.158007c0 0 1.236653-41.88473 1.236653-106.092585 0-59.640414-50.977709-114.065422-112.013191-114.065422-61.04979 0-108.089627 51.778979-108.089627 113.69647 0 59.640414-0.437428 106.461537-0.437428 106.461537L293.815528 220.158007C273.829781 220.158007 257.634733 236.589143 257.634733 256.84675zM510.868616 110.082581c19.972461 0 36.167509 16.432158 36.167509 36.695897 0 20.263739-16.195048 36.695897-36.167509 36.695897-19.98677 0-36.180795-16.431136-36.180795-36.695897C474.687821 126.513717 490.881846 110.082581 510.868616 110.082581zM836.43445 110.082581 657.83719 110.082581l0 73.391794 144.692519 0c19.972461 0 36.167509 16.432158 36.167509 36.688743l0 572.186177 0 63.464841 0 58.130879c0 20.243298-16.195048 36.670346-36.167509 36.670346l-78.251535 0-20.830964 0L221.455982 950.61536c-19.972461 0-36.167509-16.427048-36.167509-36.670346L185.288473 220.163117c0-20.257607 16.195048-36.688743 36.167509-36.688743l146.969597 0 0-73.391794-183.137105 0c-39.959231 0-72.34626 32.857162-72.34626 73.391794l0 767.140986c0 40.539742 32.387029 73.38464 72.34626 73.38464l617.651069 0 0 0 33.494907 0c39.972517 0 74.623337-32.844897 74.623337-73.38464L911.057786 804.121006l0-79.170337L911.057786 183.473352C911.057786 142.93872 876.399812 110.082581 836.43445 110.082581zM464.789484 659.574637 332.926476 527.712651 244.239019 616.399086 466.458455 835.229479 790.331812 511.357145 699.128123 420.154478Z" fill="#272636"></path></g></g></svg>