<?xml version="1.0" standalone="no"?><!DOCTYPE svg PUBLIC "-//W3C//DTD SVG 1.1//EN" "http://www.w3.org/Graphics/SVG/1.1/DTD/svg11.dtd"><svg width="32" height="32" viewBox="0 0 32 32" version="1.1" xmlns="http://www.w3.org/2000/svg" xmlns:xlink="http://www.w3.org/1999/xlink"><defs><style type="text/css"><![CDATA[
@font-face { font-family: ifont; src: url(http://at.alicdn.com/t/font_1442373896_4754455.eot?#iefix) format(embedded-opentype), url(http://at.alicdn.com/t/font_1442373896_4754455.woff) format(woff), url(http://at.alicdn.com/t/font_1442373896_4754455.ttf) format(truetype), url(http://at.alicdn.com/t/font_1442373896_4754455.svg#ifont) format(svg); }

]]></style></defs><g class="transform-group"><g transform="scale(0.03125, 0.03125)"><path d="M883.6992 51.1808 704.56448 51.1808l0 51.1808 153.54368 0c14.13376 0 25.59104 11.45728 25.59104 25.59104l0 588.58368L678.97472 716.53632c-28.26752 0-51.1808 22.91328-51.1808 51.1808l0 204.72448-486.2208 0c-14.13376 0-25.59104-11.45728-25.59104-25.59104L115.98208 127.95264c0-14.13376 11.45728-25.59104 25.59104-25.59104l153.54368 0L295.1168 51.1808 115.9808 51.1808c-28.26752 0-51.1808 22.91328-51.1808 51.1808l0 870.08c0 28.26752 22.91328 51.1808 51.1808 51.1808l511.81184 0 51.1808 0 17.91104 0 57.3184-56.70144c34.88384-31.7696 75.6992-72.192 109.70368-108.52352l70.97344-70.20928 0-20.47104 0-51.1808L934.88 102.36288C934.88 74.09536 911.96672 51.1808 883.6992 51.1808zM678.97472 972.44288 678.97472 793.30816c0-14.13376 11.45728-25.59104 25.59104-25.59104L883.6992 767.71712 678.97472 972.44288zM755.74528 537.40288 243.93472 537.40288l0 51.1808 511.81184 0L755.74656 537.40288zM755.74528 358.26816 243.93472 358.26816l0 51.1808 511.81184 0L755.74656 358.26816zM243.93472 767.71712l284.3392 0 0-51.1808-284.3392 0L243.93472 767.71712zM243.93472 193.46432l0 25.59104c0 20.352 16.49792 36.84992 36.84992 36.84992l437.99552 0c20.416 0 36.96512-16.54912 36.96512-36.96768l0-25.58848c0-21.98528-17.82144-39.80672-39.80416-39.80672l-62.55872 0L653.3824 76.77184C653.38368 34.37056 619.01312 0 576.61184 0L423.06816 0c-42.40128 0-76.77184 34.37056-76.77184 76.77184l0 76.77184-62.44096 0C261.80608 153.54368 243.93472 171.41632 243.93472 193.46432zM499.84 51.1808c28.26752 0 51.1808 22.91328 51.1808 51.1808 0 28.26752-22.91328 51.1808-51.1808 51.1808s-51.1808-22.91328-51.1808-51.1808C448.6592 74.09536 471.57248 51.1808 499.84 51.1808z" fill="#272636"></path></g></g></svg>