<?xml version="1.0" standalone="no"?><!DOCTYPE svg PUBLIC "-//W3C//DTD SVG 1.1//EN" "http://www.w3.org/Graphics/SVG/1.1/DTD/svg11.dtd"><svg width="200" height="200" viewBox="0 0 200 200" version="1.1" xmlns="http://www.w3.org/2000/svg" xmlns:xlink="http://www.w3.org/1999/xlink"><defs><style type="text/css"><![CDATA[
@font-face { font-family: ifont; src: url(http://at.alicdn.com/t/font_1442373896_4754455.eot?#iefix) format(embedded-opentype), url(http://at.alicdn.com/t/font_1442373896_4754455.woff) format(woff), url(http://at.alicdn.com/t/font_1442373896_4754455.ttf) format(truetype), url(http://at.alicdn.com/t/font_1442373896_4754455.svg#ifont) format(svg); }

]]></style></defs><g class="transform-group"><g transform="scale(0.1953125, 0.1953125)"><path d="M845.148589 129.241526 177.48632 129.241526c-62.037938 0-112.330368 50.29243-112.330368 112.330368l0 420.678108c0 62.037938 50.29243 112.330368 112.330368 112.330368l199.771883 0 94.342692 94.342692c21.935592 21.935592 57.499575 21.935592 79.435167 0l94.342692-94.342692 199.770859 0c62.037938 0 112.330368-50.29243 112.330368-112.330368L957.479981 241.571894C957.478957 179.533956 907.186528 129.241526 845.148589 129.241526zM539.774577 664.665005c-9.845229 8.638751-20.935822 12.948917-34.498722 12.948917-13.561877 0-24.653493-4.923126-33.282011-13.561877-9.865695-8.619308-14.175861-19.710924-14.175861-33.272801 0-13.5629 4.310166-24.653493 14.175861-33.273824 8.629541-8.638751 19.721157-12.948917 33.282011-12.948917 13.5629 0 25.266453 4.310166 34.498722 12.948917 8.639774 8.621355 13.5629 19.710924 13.5629 33.273824C553.337477 644.341121 548.415374 656.045697 539.774577 664.665005zM627.909893 426.178379c-5.554506 6.15928-23.427572 22.795169-53.003168 48.683792-11.090593 8.630564-19.097964 19.108197-24.653493 30.199813-2.232854 4.472871-4.060479 12.195763-5.483898 20.217461-2.988054 16.847713-17.704221 29.089525-34.814923 29.089525-21.851681 0-38.597063-19.629059-34.95921-41.176818 1.888-11.178597 4.360308-21.844517 7.476275-27.851325 8.017604-16.646122 32.03767-42.525536 72.111364-78.269621l7.395434-8.630564c11.090593-13.551644 16.625656-28.349675 16.625656-43.751457 0-20.332071-6.167466-36.357046-17.259082-48.070832-11.703553-11.703553-28.349675-17.258059-49.285496-17.258059-26.51284 0-45.609781 8.016581-57.936527 24.653493-6.395664 8.651031-10.724249 19.597337-13.127995 32.838919-2.965541 16.35141-17.421788 28.170596-34.039257 28.170596-22.068621 0-38.999223-20.448728-34.208103-41.992393 5.816472-26.16287 17.619286-47.910173 35.774785-65.239863 26.492374-25.879414 62.23646-38.819121 107.84624-38.819121 40.053228 0 72.714092 10.478655 97.367585 32.660864 24.653493 21.569248 36.970006 51.144844 36.970006 88.73702C650.705062 381.192815 642.698714 406.458245 627.909893 426.178379z" fill="#272636"></path></g></g></svg>