<?xml version="1.0" standalone="no"?><!DOCTYPE svg PUBLIC "-//W3C//DTD SVG 1.1//EN" "http://www.w3.org/Graphics/SVG/1.1/DTD/svg11.dtd"><svg width="200" height="200" viewBox="0 0 200 200" version="1.1" xmlns="http://www.w3.org/2000/svg" xmlns:xlink="http://www.w3.org/1999/xlink"><defs><style type="text/css"><![CDATA[
@font-face { font-family: ifont; src: url(http://at.alicdn.com/t/font_1442373896_4754455.eot?#iefix) format(embedded-opentype), url(http://at.alicdn.com/t/font_1442373896_4754455.woff) format(woff), url(http://at.alicdn.com/t/font_1442373896_4754455.ttf) format(truetype), url(http://at.alicdn.com/t/font_1442373896_4754455.svg#ifont) format(svg); }

]]></style></defs><g class="transform-group"><g transform="scale(0.1953125, 0.1953125)"><path d="M755.608533 932.927795 268.394537 932.927795c-28.85637 0-52.204058-20.154016-52.204058-44.995797L216.190479 107.928105c0-24.840758 23.347688-44.995797 52.204058-44.995797l487.213997 0c28.852277 0 52.200988 20.154016 52.200988 44.995797l0 780.003893C807.808498 912.773779 784.46081 932.927795 755.608533 932.927795zM511.999488 887.931998c19.203128 0 34.803046-13.4575 34.803046-30.008454 0-16.549931-15.599919-30.007431-34.803046-30.007431-19.200058 0-34.798953 13.4575-34.798953 30.007431C477.199512 874.474498 492.799431 887.931998 511.999488 887.931998zM755.608533 152.923902l-17.401012 0L285.791455 152.923902l-17.397942 0 0 629.996414 17.397942 0 452.415044 0 17.401012 0L755.60751 152.923902z" fill="#272636"></path></g></g></svg>