<?xml version="1.0" standalone="no"?><!DOCTYPE svg PUBLIC "-//W3C//DTD SVG 1.1//EN" "http://www.w3.org/Graphics/SVG/1.1/DTD/svg11.dtd"><svg width="203.125" height="200" viewBox="0 0 203.125 200" version="1.1" xmlns="http://www.w3.org/2000/svg" xmlns:xlink="http://www.w3.org/1999/xlink"><defs><style type="text/css"><![CDATA[
@font-face { font-family: ifont; src: url("//at.alicdn.com/t/font_1442373896_4754455.eot?#iefix") format("embedded-opentype"), url("//at.alicdn.com/t/font_1442373896_4754455.woff") format("woff"), url("//at.alicdn.com/t/font_1442373896_4754455.ttf") format("truetype"), url("//at.alicdn.com/t/font_1442373896_4754455.svg#ifont") format("svg"); }

]]></style></defs><g class="transform-group"><g transform="scale(0.1953125, 0.1953125)"><path d="M927.96169 287.709701c0 0 0 0 0.002047 0l95.994308 0L1023.958044 31.722492 0 31.722492l0 959.959451 1023.958044 0L1023.958044 447.706695l-255.989255-0.004093C767.967766 359.339088 839.598176 287.709701 927.96169 287.709701zM735.970004 447.701578l0.002047 0 0 31.999808 191.989639 0 0 127.996163L799.965527 607.697549l0 95.996354 127.996163 0 0 191.991686L95.995331 895.685589 95.995331 575.695694l95.996354 0 0 0.002047c0 106.033965 85.957721 191.991686 191.991686 191.991686l0-0.002047 31.998785 0L415.982156 575.695694l63.999616 0 0 128.000256 159.991878 0 0-95.998401-63.995523 0L575.978127 415.70791l-95.996354 0 0 63.99143-95.998401 0 0 255.992325c-88.36249 0-159.993924-71.631434-159.993924-159.994947l0-0.002047 0-95.996354L95.995331 479.698317l0-351.986633 383.986441 0 0 128.000256 95.996354 0L575.978127 127.71373l351.983563 0 0 127.996163C821.927725 255.709893 735.970004 341.66966 735.970004 447.701578z" fill="#272636"></path></g></g></svg>