<?xml version="1.0" standalone="no"?><!DOCTYPE svg PUBLIC "-//W3C//DTD SVG 1.1//EN" "http://www.w3.org/Graphics/SVG/1.1/DTD/svg11.dtd"><svg width="200" height="200" viewBox="0 0 200 200" version="1.1" xmlns="http://www.w3.org/2000/svg" xmlns:xlink="http://www.w3.org/1999/xlink"><defs><style type="text/css"><![CDATA[
@font-face { font-family: ifont; src: url("//at.alicdn.com/t/font_1442373896_4754455.eot?#iefix") format("embedded-opentype"), url("//at.alicdn.com/t/font_1442373896_4754455.woff") format("woff"), url("//at.alicdn.com/t/font_1442373896_4754455.ttf") format("truetype"), url("//at.alicdn.com/t/font_1442373896_4754455.svg#ifont") format("svg"); }

]]></style></defs><g class="transform-group"><g transform="scale(0.1953125, 0.1953125)"><path d="M617.051079 356.23847c26.627451-11.960403 55.230905-20.155039 85.297688-24.007787L472.321814 137.469931c-16.790408-14.210653-41.401945-14.210653-58.159608 0L47.532061 447.892937c-18.954701 16.004509-21.321608 44.426839-5.263887 63.413262 16.036231 18.922978 44.425815 21.278629 63.381539 5.221932l5.900384-4.967128 0 357.51351c0 15.558347 12.555967 28.114314 28.135804 28.114314l279.145651 0 10.772344 0 167.475316 0c-19.580964-10.95347-41.24231-24.113187-62.012356-41.911552-26.278503-24.431435-48.184419-53.457516-64.517409-85.837994-16.620539-36.860513-27.265994-83.547835-27.265994-143.776567C443.283454 442.564581 599.434863 364.462782 617.051079 356.23847zM361.594967 654.380778l-87.345324 0 0-87.058798 87.345324 0L361.594967 654.380778zM242.356258 240.014422c0-18.679431-15.134699-33.845853-33.813107-33.845853l-64.336284 0c-18.700921 0-33.771151 15.165398-33.771151 33.845853l0 119.42802 131.921565-110.068861L242.357282 240.014422 242.356258 240.014422 242.356258 240.014422zM800.850176 525.485129c-11.420097 0-22.107507 4.414543-30.163997 12.491499-8.118911 8.118911-12.565177 18.8493-12.565177 30.290887 0 11.376095 4.447289 22.095227 12.511965 30.108738 16.228613 16.280802 44.310182 16.22759 60.452837 0.042979 8.04421-8.05649 12.503778-18.775622 12.503778-30.151717 0-11.441587-4.468778-22.171975-12.545734-30.259164C822.967916 529.899672 812.23855 525.46364 800.850176 525.485129zM741.192448 376.677988c-138.437979 0-251.158227 112.690572-251.158227 251.245208 0 138.489144 112.720248 251.126504 251.158227 251.126504 138.52189 0 251.191996-112.63736 251.191996-251.126504C992.384443 489.378793 879.715361 376.677988 741.192448 376.677988zM861.301989 628.633371c-16.140609 16.153912-37.60241 25.068955-60.45079 25.068955-15.495926 0-30.217209-4.405333-43.196825-12.078083l-54.784744 54.784744 24.953322 24.962531c8.362458 8.340969 8.362458 21.851681 0 30.204929-4.170996 4.15974-9.637498 6.251378-15.103999 6.251378-5.476735 0-10.942213-2.091638-15.114233-6.251378l-24.951275-24.972764-40.074717 40.11872c-4.170996 4.15974-9.637498 6.261611-15.112186 6.261611-5.466502 0-10.933003-2.101871-15.103999-6.261611-8.341992-8.353248-8.341992-21.852704 0-30.226418l125.107369-125.08588c-7.682983-12.989849-12.078083-27.65792-12.078083-43.141566-0.020466-22.840194 8.884344-44.321438 25.058722-60.473303 16.108886-16.153912 37.558407-25.036209 60.398602-25.036209 22.848381 0 44.287669 8.882298 60.419068 25.067932 16.131399 16.089443 25.047466 37.558407 25.047466 60.441581C886.316709 591.08315 877.422132 612.533694 861.301989 628.633371z" fill="#272636"></path></g></g></svg>