<?xml version="1.0" standalone="no"?><!DOCTYPE svg PUBLIC "-//W3C//DTD SVG 1.1//EN" "http://www.w3.org/Graphics/SVG/1.1/DTD/svg11.dtd"><svg width="200" height="200" viewBox="0 0 200 200" version="1.1" xmlns="http://www.w3.org/2000/svg" xmlns:xlink="http://www.w3.org/1999/xlink"><defs><style type="text/css"><![CDATA[
@font-face { font-family: ifont; src: url("//at.alicdn.com/t/font_1442373896_4754455.eot?#iefix") format("embedded-opentype"), url("//at.alicdn.com/t/font_1442373896_4754455.woff") format("woff"), url("//at.alicdn.com/t/font_1442373896_4754455.ttf") format("truetype"), url("//at.alicdn.com/t/font_1442373896_4754455.svg#ifont") format("svg"); }

]]></style></defs><g class="transform-group"><g transform="scale(0.1953125, 0.1953125)"><path d="M504.414017 16.447878c-335.77518 0-503.683917 167.890611-503.683917 503.704058 0 335.78525 167.908738 503.683917 503.683917 503.683917 335.818482 0 503.719164-167.903702 503.719164-503.683917C1008.132173 184.338489 840.231492 16.447878 504.414017 16.447878zM656.855727 450.469246c30.823281 0 55.835979 25.044923 55.835979 55.969915 0 30.9119-25.012698 55.962866-55.835979 55.962866-30.801127 0-55.795698-25.050965-55.795698-55.962866C601.060029 475.515176 626.0546 450.469246 656.855727 450.469246zM504.459333 313.625478c30.801127 0 55.802747 25.076141 55.802747 55.990056 0 30.866584-25.002628 55.94776-55.802747 55.94776-30.844429 0-55.80879-25.081176-55.80879-55.94776C448.650544 338.700612 473.614904 313.625478 504.459333 313.625478zM352.042799 450.469246c30.803141 0 55.802747 25.044923 55.802747 55.969915 0 30.9119-24.999607 55.962866-55.802747 55.962866-30.856513 0-55.844036-25.050965-55.844036-55.962866C296.198763 475.515176 321.186285 450.469246 352.042799 450.469246zM431.050619 726.658254 272.965493 726.658254 272.965493 658.633141c0-43.788838 35.419382-79.27267 79.077306-79.27267 43.649867 0 79.008827 35.482825 79.008827 79.27267L431.051626 726.658254zM425.394112 589.83664l0-68.042232c0-43.808978 35.401256-79.28979 79.064214-79.28979 43.664973 0 79.021919 35.480811 79.021919 79.28979l0 68.042232L425.394112 589.83664zM735.896779 726.658254 577.790506 726.658254 577.790506 658.633141c0-43.788838 35.392192-79.27267 79.065221-79.27267 43.678064 0 79.041052 35.482825 79.041052 79.27267L735.896779 726.658254z" fill="#272636"></path></g></g></svg>