<?xml version="1.0" standalone="no"?><!DOCTYPE svg PUBLIC "-//W3C//DTD SVG 1.1//EN" "http://www.w3.org/Graphics/SVG/1.1/DTD/svg11.dtd"><svg width="200" height="200" viewBox="0 0 200 200" version="1.1" xmlns="http://www.w3.org/2000/svg" xmlns:xlink="http://www.w3.org/1999/xlink"><defs><style type="text/css"><![CDATA[
@font-face { font-family: ifont; src: url("//at.alicdn.com/t/font_1442373896_4754455.eot?#iefix") format("embedded-opentype"), url("//at.alicdn.com/t/font_1442373896_4754455.woff") format("woff"), url("//at.alicdn.com/t/font_1442373896_4754455.ttf") format("truetype"), url("//at.alicdn.com/t/font_1442373896_4754455.svg#ifont") format("svg"); }

]]></style></defs><g class="transform-group"><g transform="scale(0.1953125, 0.1953125)"><path d="M833.840032 598.384439c17.814738 0 32.267914-14.453177 32.267914-32.267914L866.107947 62.389956 411.498028 62.389956l0 6.656607c-10.685363-4.106528-22.036899-6.656607-33.822316-6.656607-52.267411 0-94.78783 42.519396-94.78783 94.78783l0 33.570583-92.728938 0c-17.814738 0-32.267914 14.453177-32.267914 32.267914l0 511.877203c0 52.225455 42.519396 94.745874 94.78783 94.745874l158.819169 0 0 64.998363c0 17.814738 14.453177 32.267914 32.267914 32.267914 0.722454 0 1.326205-0.36225 2.035356-0.409322 1.205455 0.1361 2.273786 0.704035 3.50994 0.704035 1.302669 0.630357 4.66423 4.327562 6.932899 6.764054 9.495258 10.335393 25.419949 27.646664 55.461149 27.646664 29.999245 0 45.922912-17.310248 55.461149-27.646664 2.226714-2.436492 5.630231-6.134721 8.991792-6.764054 1.302669 0.630357 4.663206 4.327562 6.932899 6.764054 9.495258 10.335393 25.419949 27.646664 55.41817 27.646664 30.0412 0 45.964868-17.310248 55.503105-27.604708 2.226714-2.478448 5.630231-6.176676 9.159614-6.80601 1.260713 0.630357 4.706185 4.369517 6.974855 6.80601 9.537214 10.335393 25.50386 27.604708 55.54506 27.604708s45.964868-17.268292 55.503105-27.604708c2.26867-2.436492 5.714142-6.176676 8.108678-6.848988 1.026376 0 1.893116-0.491187 2.89391-0.585331 0.575098 0.031722 1.061169 0.333598 1.64343 0.333598 17.814738 0 32.267914-14.453177 32.267914-32.267914L866.10897 740.943272c0-17.814738-14.453177-32.267914-32.267914-32.267914s-32.267914 14.453177-32.267914 32.267914l0 128.073934c-12.833283 5.968945-21.811772 14.749936-27.77253 21.206998-2.26867 2.436492-5.714142 6.176676-9.243525 6.764054-1.302669-0.588401-4.748141-4.327562-7.016811-6.764054-9.537214-10.335393-25.50386-27.604708-55.503105-27.604708-30.0412 0-45.964868 17.310248-55.503105 27.604708-2.226714 2.478448-5.630231 6.176676-9.033747 6.807033-1.302669-0.630357-4.663206-4.327562-6.932899-6.764054-9.495258-10.335393-25.419949-27.646664-55.419194-27.646664s-45.922912 17.310248-55.461149 27.646664c-2.226714 2.436492-5.630231 6.134721-9.033747 6.764054-1.302669-0.630357-4.66423-4.327562-6.932899-6.764054-5.929036-6.451946-14.889105-15.238053-27.688619-21.220301L476.03181 126.925784l325.537238 0L801.569048 566.116525C801.572118 583.930239 816.025295 598.384439 833.840032 598.384439zM282.887882 734.893486c0 16.637935-13.571087 30.209022-30.209022 30.209022-16.679891 0-30.250978-13.571087-30.250978-30.209022L222.427882 255.284197l60.461023 0L282.888905 734.893486zM411.498028 765.102508l-69.473281 0c3.240811-9.543354 5.398964-19.587104 5.398964-30.209022L347.423711 157.176762c0-16.679891 13.571087-30.250978 30.250978-30.250978 17.058514 0 33.822316 15.629979 33.822316 31.595602L411.497005 765.102508zM502.084163 223.016283c0-17.814738 14.453177-32.267914 32.267914-32.267914l129.072681 0c17.814738 0 32.267914 14.453177 32.267914 32.267914s-14.453177 32.267914-32.267914 32.267914L534.352077 255.284197C516.53734 255.284197 502.084163 240.829997 502.084163 223.016283zM577.375963 578.678632c17.814738 0 32.267914 14.453177 32.267914 32.267914s-14.453177 32.267914-32.267914 32.267914l-43.023886 0c-17.814738 0-32.267914-14.453177-32.267914-32.267914s14.453177-32.267914 32.267914-32.267914L577.375963 578.678632zM781.740444 352.802208c0 17.814738-14.453177 32.267914-32.267914 32.267914L534.352077 385.070122c-17.814738 0-32.267914-14.453177-32.267914-32.267914 0-17.814738 14.453177-32.267914 32.267914-32.267914l215.120452 0C767.287267 320.534294 781.740444 334.98747 781.740444 352.802208zM749.47253 514.142803 534.352077 514.142803c-17.814738 0-32.267914-14.453177-32.267914-32.267914s14.453177-32.267914 32.267914-32.267914l215.120452 0c17.814738 0 32.267914 14.453177 32.267914 32.267914S767.287267 514.142803 749.47253 514.142803z" fill="#272636"></path></g></g></svg>