<?xml version="1.0" standalone="no"?><!DOCTYPE svg PUBLIC "-//W3C//DTD SVG 1.1//EN" "http://www.w3.org/Graphics/SVG/1.1/DTD/svg11.dtd"><svg width="200" height="200" viewBox="0 0 200 200" version="1.1" xmlns="http://www.w3.org/2000/svg" xmlns:xlink="http://www.w3.org/1999/xlink"><defs><style type="text/css"><![CDATA[
@font-face { font-family: ifont; src: url("//at.alicdn.com/t/font_1442373896_4754455.eot?#iefix") format("embedded-opentype"), url("//at.alicdn.com/t/font_1442373896_4754455.woff") format("woff"), url("//at.alicdn.com/t/font_1442373896_4754455.ttf") format("truetype"), url("//at.alicdn.com/t/font_1442373896_4754455.svg#ifont") format("svg"); }

]]></style></defs><g class="transform-group"><g transform="scale(0.1953125, 0.1953125)"><path d="M23.615381 67.029354 23.615381 67.029354 23.615381 67.029354 23.615381 67.029354zM368.049454 135.00007c15.923204 0 29.530978 5.526253 40.878285 16.518201 11.348306 11.052506 16.993478 24.478803 16.993478 40.403007L425.921217 421.564179c0 15.923204-5.644173 29.528979-16.993478 40.878285-11.347307 11.349305-24.95508 16.993478-40.878285 16.993478L138.405753 479.435942c-15.921205 0-29.41006-5.644173-40.402007-16.993478-10.991947-11.349305-16.515802-24.95508-16.515802-40.878285L81.487943 191.981437c0-15.923604 5.523655-29.41046 16.515802-40.402407 11.052506-10.991947 24.481402-16.518201 40.402007-16.518201L368.049454 135.00007zM368.049454 594.225715c15.923204 0 29.530978 5.528252 40.878285 16.5198 11.348306 11.052506 16.993478 24.477404 16.993478 40.402407l0 230.534098c0 15.921205-5.644173 29.40986-16.993478 40.402407-11.347307 10.991548-24.95508 16.515802-40.878285 16.515802L138.405753 938.600229c-15.921205 0-29.41006-5.524255-40.402007-16.515802-10.991947-11.052506-16.515802-24.481402-16.515802-40.402407L81.487943 651.147922c0-15.925203 5.523655-29.41006 16.515802-40.402407 11.052506-10.991548 24.481402-16.5198 40.402007-16.5198L368.049454 594.225715 368.049454 594.225715zM828.224456 594.225715c15.926202 0 29.410859 5.528252 40.403406 16.5198 10.991548 11.052506 16.5198 24.477404 16.5198 40.402407l0 230.534098c0 15.921205-5.528252 29.40986-16.5198 40.402407-11.052506 10.991548-24.477404 16.515802-40.403406 16.515802L598.581754 938.600229c-15.921205 0-29.525981-5.524255-40.875087-16.515802-11.350304-11.052506-16.994478-24.481402-16.994478-40.402407L540.712189 651.147922c0-15.925203 5.644173-29.41006 16.994478-40.402407 11.349305-10.991548 24.953881-16.5198 40.875087-16.5198L828.224456 594.225715 828.224456 594.225715zM955.853523 236.006987c12.235704 12.240701 18.357554 26.618952 18.357554 43.197512 0 16.575762-6.121849 30.599254-18.357554 42.242759l-170.880743 170.881742c-12.2417 12.237703-26.501032 18.358553-42.719836 18.358553-16.223001 0-30.483332-6.12085-42.724033-18.358553l-170.760824-170.881742c-11.646104-11.644105-17.467157-25.727557-17.467157-42.242759 0-16.518201 5.821053-30.957011 17.467157-43.197512l170.881742-170.878744c12.2417-11.646104 26.501032-17.469556 42.720036-17.469556 16.223001 0 30.482333 5.823452 42.717837 17.469556L955.853523 236.006987z" fill="#272636"></path></g></g></svg>