<?xml version="1.0" standalone="no"?><!DOCTYPE svg PUBLIC "-//W3C//DTD SVG 1.1//EN" "http://www.w3.org/Graphics/SVG/1.1/DTD/svg11.dtd"><svg width="200" height="200" viewBox="0 0 200 200" version="1.1" xmlns="http://www.w3.org/2000/svg" xmlns:xlink="http://www.w3.org/1999/xlink"><defs><style type="text/css"><![CDATA[
@font-face { font-family: ifont; src: url("//at.alicdn.com/t/font_1442373896_4754455.eot?#iefix") format("embedded-opentype"), url("//at.alicdn.com/t/font_1442373896_4754455.woff") format("woff"), url("//at.alicdn.com/t/font_1442373896_4754455.ttf") format("truetype"), url("//at.alicdn.com/t/font_1442373896_4754455.svg#ifont") format("svg"); }

]]></style></defs><g class="transform-group"><g transform="scale(0.1953125, 0.1953125)"><path d="M813.515 812.842l-61.136-62.356c52.923-67.401 84.74-152.751 84.74-245.694s-31.795-178.37-84.74-245.694l61.136-62.356c68.43 83.505 109.581 190.914 109.581 308.080s-41.185 224.581-109.581 308.080v0zM557.522 855.023c-14.149 0-27.166-4.766-37.807-12.763l-0.001 0.004-219.625-162.58h-125.226c-35.654 0-64.517-29.378-64.517-65.703v-218.905c0-36.227 28.775-65.513 64.339-65.678v-0.005h123.559l218.511-181.881c11.125-9.317 25.206-15.075 40.726-15.075 35.628 0 64.517 29.378 64.517 65.678v591.072c-0.002 36.252-28.942 65.703-64.557 65.703v0zM557.522 855.023z" fill="#272636"></path></g></g></svg>