<?xml version="1.0" standalone="no"?><!DOCTYPE svg PUBLIC "-//W3C//DTD SVG 1.1//EN" "http://www.w3.org/Graphics/SVG/1.1/DTD/svg11.dtd"><svg class="icon" style="" viewBox="0 0 1024 1024" version="1.1" xmlns="http://www.w3.org/2000/svg" p-id="1806" xmlns:xlink="http://www.w3.org/1999/xlink" width="1024" height="1024"><defs><style type="text/css"><![CDATA[

]]></style></defs><path d="M986.866776 448.856891 787.203364 286.204417 787.203364 171.515329c0.00614-7.251148-2.963495-13.119809-6.652514-13.119809L724.726427 158.39552c-3.687996 0-6.67298 5.868661-6.67298 13.119809l0 58.358129L552.725028 95.192036c-18.203594-14.833847-44.336788-14.833847-62.527079 0L54.344211 450.238354l37.151132 40.868803 49.788963-40.560788 0 443.020976c0 19.526729 15.8285 35.356252 35.356252 35.356252l689.636746 0c19.515473 0 35.358299-15.829524 35.358299-35.356252L901.635603 450.548416l49.78794 40.558741L986.866776 448.856891zM845.064166 406.77547l0 465.574644L197.855742 872.350115 197.855742 404.459728l323.595003-263.62005L845.0744 404.472008C845.06826 405.234371 845.064166 406.000827 845.064166 406.77547z" p-id="1807"></path><path d="M645.187907 743.54861l-64.99427 0L580.193637 616.192014c0-34.169217-12.44545-51.277874-37.331233-51.277874-11.584849 0-21.202904 5.190209-28.863375 15.564487-7.667633 10.344602-11.505032 23.008017-11.505032 37.926798l0 125.144208L437.494611 743.549633 437.494611 614.564957c0-33.106002-12.30321-49.65184-36.945447-49.65184-12.237719 0-22.018479 4.958942-29.351492 14.849196-7.347339 9.902534-11.007705 22.980387-11.007705 39.247886l0 124.536364-65.189721 0L295.000246 520.329712l65.189721 0 0 34.902928 0.814552 0c7.789407-12.775978 18.161638-22.707165 31.091112-29.78128 12.897751-7.045463 26.491351-10.578939 40.770566-10.578939 31.339776 0 52.800553 14.057157 64.388473 42.178635 17.223267-28.119431 42.249243-42.178635 75.063603-42.178635 48.587602 0 72.868611 29.996175 72.868611 90.004897L645.187907 743.54861 645.187907 743.54861z" p-id="1808"></path><path d="M768.38374 585.271794 671.882895 585.271794l0-24.26873 42.513256-40.797172c8.946766-8.53642 15.175631-15.702634 18.739806-21.48943 3.578502-5.799076 5.346775-11.833513 5.346775-18.078751 0-14.07353-7.55507-21.11797-22.63451-21.11797-12.679787 0-24.943089 5.109368-36.790928 15.286148L679.057295 447.379237c12.687974-8.411577 27.069519-12.609179 43.186591-12.609179 14.585183 0 26.158776 3.714602 34.692127 11.148921 8.519024 7.4159 12.802584 17.691941 12.802584 30.810726 0 17.33276-10.521634 35.481096-31.531134 54.484915l-30.869055 27.800159 0 0.571005 61.046355 0L768.384763 585.271794 768.38374 585.271794z" p-id="1809"></path></svg>