<?xml version="1.0" standalone="no"?><!DOCTYPE svg PUBLIC "-//W3C//DTD SVG 1.1//EN" "http://www.w3.org/Graphics/SVG/1.1/DTD/svg11.dtd"><svg class="icon" style="" viewBox="0 0 1024 1024" version="1.1" xmlns="http://www.w3.org/2000/svg" p-id="4384" xmlns:xlink="http://www.w3.org/1999/xlink" width="1024" height="1024"><defs><style type="text/css"><![CDATA[

]]></style></defs><path d="M725.141553 514.743985l0-90.38565 81.638977 0L536.117628 241.73889l-0.517238-44.373612c0 0 160.017235-77.97092 160.087813-78.716026 0.095785-0.882229-209.421067-102.181308-209.421067-102.181308l-0.33071 225.900101L217.10856 424.36136l81.207441 0 0 90.38565-267.703654-0.546478 0 151.154612 53.921854 0.808626 0 356.423655L409.021157 1022.587425l0-51.2671 217.113098 0 0 51.2671 312.782041 0L938.916296 666.16377l54.934149-0.808626-0.464809-150.61015L725.141553 514.744993zM276.656516 929.818243l-83.078775 0 0-85.676058 83.078775 0L276.656516 929.818243zM276.656516 796.970645l-83.078775 0L193.577741 711.29257l83.078775 0L276.656516 796.970645zM511.719703 627.784275c-61.617918 0-111.750723-50.140871-111.750723-111.77593s50.130789-111.765847 111.750723-111.765847c61.641108 0 111.789037 50.130789 111.78702 111.765847C623.505715 577.643404 573.360811 627.784275 511.719703 627.784275zM829.741682 929.818243l-83.078775 0 0-85.676058 83.078775 0L829.741682 929.818243zM829.741682 796.970645l-83.078775 0L746.662907 711.29257l83.078775 0L829.741682 796.970645z" p-id="4385"></path></svg>