<?xml version="1.0" standalone="no"?><!DOCTYPE svg PUBLIC "-//W3C//DTD SVG 1.1//EN" "http://www.w3.org/Graphics/SVG/1.1/DTD/svg11.dtd"><svg width="228.7109375" height="200" viewBox="0 0 228.7109375 200" version="1.1" xmlns="http://www.w3.org/2000/svg" xmlns:xlink="http://www.w3.org/1999/xlink"><defs><style type="text/css"><![CDATA[
@font-face { font-family: ifont; src: url(http://at.alicdn.com/t/font_1442373896_4754455.eot?#iefix) format(embedded-opentype), url(http://at.alicdn.com/t/font_1442373896_4754455.woff) format(woff), url(http://at.alicdn.com/t/font_1442373896_4754455.ttf) format(truetype), url(http://at.alicdn.com/t/font_1442373896_4754455.svg#ifont) format(svg); }

]]></style></defs><g class="transform-group"><g transform="scale(0.1953125, 0.1953125)"><path d="M201.889085 412.562208l42.744708 0 0 310.870605-42.744708 0 0-310.870605ZM386.540396 412.562208l42.744708 0 0 310.870605-42.744708 0 0-310.870605ZM571.191706 412.562208l42.744708 0 0 310.870605-42.744708 0 0-310.870605ZM755.843988 412.562208l42.744708 0 0 310.870605-42.744708 0 0-310.870605ZM879.652092 762.291639l-757.747099 0c-10.686177 0-19.429413-8.743236-19.429413-19.429413l0 0c0-10.686177 8.743236-19.429413 19.429413-19.429413l757.747099 0c10.686177 0 19.429413 8.743236 19.429413 19.429413l0 0C899.081505 753.548403 890.338269 762.291639 879.652092 762.291639zM962.227096 859.438702l-922.897108 0c-10.686177 0-19.429413-8.743236-19.429413-19.429413l0 0c0-10.686177 8.743236-19.429413 19.429413-19.429413l922.897108 0c10.686177 0 19.429413 8.743236 19.429413 19.429413l0 0C981.656509 850.695467 972.913273 859.438702 962.227096 859.438702zM154.965111 320.126777c0.005829-0.003886 0.010686-0.007772 0.016515-0.010686C154.956367 320.085004 154.957339 320.112205 154.965111 320.126777zM873.823268 363.988676c0-21.900834-15.191858-34.919512-34.405604-46.47127L527.194772 111.078924c0 0-11.764509-9.387321-28.889594-9.387321-17.604019 0-29.397673 9.819625-29.397673 9.819625l-313.926851 208.60389c-0.003886 0.027201-0.011658 0.021372-0.016515 0.010686-18.829044 12.653405-27.231293 24.640381-27.231293 43.861899 0 24.813303 18.605606 45.267617 42.62036 48.198544-0.046631 0.123377-0.086461 0.250639-0.133091 0.374988l661.114914 0c-0.046631-0.123377-0.086461-0.250639-0.133091-0.374988C855.217663 409.256294 873.823268 388.802951 873.823268 363.988676zM196.895726 363.988676l301.155898-213.723541 310.870605 213.723541L196.895726 363.988676z" fill="#272636"></path></g></g></svg>