<?xml version="1.0" standalone="no"?><!DOCTYPE svg PUBLIC "-//W3C//DTD SVG 1.1//EN" "http://www.w3.org/Graphics/SVG/1.1/DTD/svg11.dtd"><svg width="200" height="200" viewBox="0 0 200 200" version="1.1" xmlns="http://www.w3.org/2000/svg" xmlns:xlink="http://www.w3.org/1999/xlink"><defs><style type="text/css"><![CDATA[
@font-face { font-family: ifont; src: url(http://at.alicdn.com/t/font_1442373896_4754455.eot?#iefix) format(embedded-opentype), url(http://at.alicdn.com/t/font_1442373896_4754455.woff) format(woff), url(http://at.alicdn.com/t/font_1442373896_4754455.ttf) format(truetype), url(http://at.alicdn.com/t/font_1442373896_4754455.svg#ifont) format(svg); }

]]></style></defs><g class="transform-group"><g transform="scale(0.1953125, 0.1953125)"><path d="M898.799192 421.647515 652.021657 421.647515C747.635071 68.468364 586.127515 50.424242 586.127515 50.424242c-68.477414 0-54.265535 54.137535-59.434667 63.158303 0 172.721131-183.462788 308.06497-183.462788 308.06497l0 489.810747c0 48.333576 65.887677 65.737697 91.729455 65.737697L805.774222 977.19596c34.885818 0 63.308283-91.52 63.308283-91.52C960.822303 573.74901 960.822303 480.943838 960.822303 480.943838 960.822303 416.496485 898.799192 421.647515 898.799192 421.647515L898.799192 421.647515M898.799192 421.647515 898.799192 421.647515zM241.961374 421.807838 94.18602 421.807838c-30.526061 0-31.008323 29.972687-31.008323 29.972687l30.526061 493.994667c0 31.420768 31.489293 31.420768 31.489293 31.420768l127.910788 0c26.647273 0 26.406788-20.783838 26.406788-20.783838L279.510626 459.267879C279.511919 421.326869 241.961374 421.807838 241.961374 421.807838L241.961374 421.807838M241.961374 421.807838 241.961374 421.807838z" fill="#272636"></path></g></g></svg>