<?xml version="1.0" standalone="no"?><!DOCTYPE svg PUBLIC "-//W3C//DTD SVG 1.1//EN" "http://www.w3.org/Graphics/SVG/1.1/DTD/svg11.dtd"><svg width="200" height="200" viewBox="0 0 200 200" version="1.1" xmlns="http://www.w3.org/2000/svg" xmlns:xlink="http://www.w3.org/1999/xlink"><defs><style type="text/css"><![CDATA[
@font-face { font-family: ifont; src: url(http://at.alicdn.com/t/font_1442373896_4754455.eot?#iefix) format(embedded-opentype), url(http://at.alicdn.com/t/font_1442373896_4754455.woff) format(woff), url(http://at.alicdn.com/t/font_1442373896_4754455.ttf) format(truetype), url(http://at.alicdn.com/t/font_1442373896_4754455.svg#ifont) format(svg); }

]]></style></defs><g class="transform-group"><g transform="scale(0.1953125, 0.1953125)"><path d="M900.231115 293.415656 123.985826 293.415656c-32.389688 0-58.637492-26.001187-58.637492-58.080813 0-32.076556 26.247804-58.077743 58.637492-58.077743l776.244266 0c32.389688 0 58.637492 26.001187 58.637492 58.077743C958.868607 267.414469 932.620803 293.415656 900.231115 293.415656L900.231115 293.415656zM123.985826 454.247668l580.786643 0c32.389688 0 58.637492 26.001187 58.637492 58.080813 0 32.075533-26.247804 58.077743-58.637492 58.077743L123.985826 570.406225c-32.389688 0-58.637492-26.002211-58.637492-58.077743C65.349357 480.248855 91.597161 454.247668 123.985826 454.247668L123.985826 454.247668zM123.985826 731.240283l385.330042 0c32.391734 0 58.636468 26.001187 58.636468 58.077743 0 32.076556-26.244734 58.077743-58.636468 58.077743L123.985826 847.39577c-32.389688 0-58.637492-26.001187-58.637492-58.077743C65.349357 757.242494 91.597161 731.240283 123.985826 731.240283L123.985826 731.240283zM123.985826 731.240283" fill="#272636"></path></g></g></svg>