<?xml version="1.0" standalone="no"?><!DOCTYPE svg PUBLIC "-//W3C//DTD SVG 1.1//EN" "http://www.w3.org/Graphics/SVG/1.1/DTD/svg11.dtd"><svg t="1483587458065" class="icon" style="" viewBox="0 0 1024 1024" version="1.1" xmlns="http://www.w3.org/2000/svg" p-id="6934" xmlns:xlink="http://www.w3.org/1999/xlink" width="1024" height="1024"><defs><style type="text/css"></style></defs><path d="M107.52 693.76c-0.512-0.512-1.536-1.536-2.048-2.56-3.072-4.096-3.584-9.728-1.536-14.336l71.68-166.4-71.168-157.696c-2.048-4.608-1.536-10.24 1.536-14.848 3.072-4.608 8.192-7.168 13.312-7.168h71.168c4.608 0 9.216 2.048 12.288 5.632l81.92 91.648h166.912L359.936 148.48c-1.536-4.608-1.024-10.24 2.048-13.824 3.072-4.096 8.192-6.656 13.312-6.656h94.72c5.12 0 10.24 2.56 13.312 6.656l202.24 296.96h163.84c44.032 0 82.432 36.864 82.432 79.36v6.144c0 20.992-8.704 41.472-24.064 56.32-15.872 14.848-36.864 23.552-58.368 23.04h-162.304l-197.632 297.472c-3.072 4.608-8.192 7.168-13.312 7.168H379.904c-5.12 0-9.728-2.56-12.8-6.144-3.072-4.096-4.096-9.216-2.56-13.824l83.968-276.48H285.696l-77.312 88.576c-3.072 3.584-7.68 5.632-12.288 5.632H118.784c-4.096-0.512-8.192-2.56-11.264-5.12m0 0z" fill="" p-id="6935"></path></svg>