<?xml version="1.0" standalone="no"?><!DOCTYPE svg PUBLIC "-//W3C//DTD SVG 1.1//EN" "http://www.w3.org/Graphics/SVG/1.1/DTD/svg11.dtd"><svg xmlns:xlink="http://www.w3.org/1999/xlink" xmlns="http://www.w3.org/2000/svg" version="1.1" width="200" height="200" viewBox="0 0 200 200"><defs><style type="text/css"><![CDATA[
@font-face {
  font-family: "ifont";
  src: url("//at.alicdn.com/t/font_1442373896_4754455.eot?#iefix") format("embedded-opentype"), url("//at.alicdn.com/t/font_1442373896_4754455.woff") format("woff"), url("//at.alicdn.com/t/font_1442373896_4754455.ttf") format("truetype"), url("//at.alicdn.com/t/font_1442373896_4754455.svg#ifont") format("svg");
}

]]></style></defs><g class="transform-group"><g transform="scale(0.1953125, 0.1953125)"><path d="M257.130242 891.415332l527.82236 0L784.952602 638.46325l68.856227 0L853.80883 891.415332c0 38.081317-30.774911 68.966745-68.856227 68.966745L257.130242 960.382077c-38.081317 0-68.856227-30.885428-68.856227-68.966745L188.274014 638.46325l68.856227 0L257.130242 891.415332zM922.664034 569.496505 509.528716 178.610934 96.502891 592.521918l-45.941332-68.966745L509.528716 63.703881l481.992569 459.852316L922.664034 569.496505zM370.523825 688.191838c17.613146-24.735357 32.230052-56.121182 43.848671-94.160543l-42.442648 0 0-19.956517 45.815465 0 0-44.410466c-11.80486 0.938372-24.734334 1.87572-38.788421 2.811022-0.938372-6.371104-2.343371-13.210883-4.216022-20.518313 39.161928-2.249227 72.799026-5.340635 100.906178-9.275247l5.059226 21.361517c-11.243065 1.124614-25.297153 2.437515-42.161239 3.934612l0 46.096874 44.409442 0 0 19.956517-44.409442 0 0 37.945217 12.366655-10.962679c11.054777 10.68127 23.047926 23.424502 35.978423 38.225603l-16.021905 13.773701c-12.180414-15.551184-22.955828-28.108175-32.323173-37.664831l0 129.576147-20.799722 0 0-125.641535c-9.93221 27.54638-22.394033 51.90823-37.383422 73.080435C377.36258 704.494129 374.082884 696.436616 370.523825 688.191838zM463.279369 733.164099l33.728172 0L497.007541 506.054591l128.733966 0 0 227.109508 24.172539 0 0 19.956517L463.279369 753.120616 463.279369 733.164099zM518.931876 526.010085l0 55.653531 84.885296 0 0-55.653531L518.931876 526.010085zM518.931876 656.992255l84.885296 0 0-55.652508-84.885296 0L518.931876 656.992255zM518.931876 733.164099l84.885296 0 0-56.496735-84.885296 0L518.931876 733.164099z" fill="#272636"></path></g></g></svg>