<?xml version="1.0" standalone="no"?><!DOCTYPE svg PUBLIC "-//W3C//DTD SVG 1.1//EN" "http://www.w3.org/Graphics/SVG/1.1/DTD/svg11.dtd"><svg t="1499309563353" class="icon" style="" viewBox="0 0 1035 1024" version="1.1" xmlns="http://www.w3.org/2000/svg" p-id="4149" xmlns:xlink="http://www.w3.org/1999/xlink" width="1035" height="1024"><defs><style type="text/css"></style></defs><path d="M510.052648 642.541125c-114.667599 0-207.967542-94.316086-207.967542-210.233142l0-97.759511c0-115.91808 93.300966-210.234165 207.967542-210.234165 114.687042 0 207.968565 94.316086 207.968565 210.234165l0 97.759511C718.021214 548.225039 624.73969 642.541125 510.052648 642.541125zM510.052648 168.681794c-90.489944 0-164.108638 74.380034-164.108638 165.866678l0 97.759511c0 91.486644 73.618695 165.903517 164.108638 165.903517 90.493014 0 164.110685-74.416873 164.110685-165.903517l0-97.759511C674.163333 243.060805 600.545662 168.681794 510.052648 168.681794z" p-id="4150"></path><path d="M919.993205 896.561539C909.805168 675.091472 736.399793 572.185754 728.842677 567.835679c-10.495028-6.051833-23.868617-2.319835-29.868261 8.265244-5.999644 10.619872-2.357697 24.175609 8.137331 30.265304 6.65149 3.842515 158.944012 95.040586 168.984692 290.195312L149.084457 896.561539c10.041704-195.154725 162.333202-286.352797 168.985716-290.195312 10.492982-6.089695 14.135952-19.645432 8.137331-30.265304-5.998621-10.585079-19.374256-14.317077-29.868261-8.265244-7.557116 4.350075-180.964538 107.255793-191.149505 328.72586l-0.88823 0 0 44.331671 816.57788 0 0-44.331671L919.993205 896.561539z" p-id="4151"></path><path d="M264.713964 565.080939l1.685385-39.400359c-38.131459-23.416316-63.74072-65.680908-63.74072-113.998357l0-78.619592c0-58.431807 37.406958-108.089787 89.258906-126.104069 6.578836-14.788821 14.589276-28.744671 23.832801-41.792848-83.350336 9.496282-148.378375 81.120552-148.378375 167.896918l0 78.619592C167.371962 479.681944 207.352535 538.258037 264.713964 565.080939z" p-id="4152"></path><path d="M82.898035 785.066189 44.330648 785.066189c8.083096-156.986427 130.545218-230.278687 135.909389-233.395678 8.426927-4.89345 11.362792-15.803941 6.5246-24.322965-4.820796-8.553817-15.567557-11.526521-24.013927-6.66991-6.071276 3.517103-145.533584 86.23299-153.72515 264.387529l-0.707105 0 0 35.631522 60.823274 0C73.329099 808.336172 77.95035 796.447401 82.898035 785.066189z" p-id="4153"></path><path d="M726.631312 205.290573c54.44296 16.45681 94.260827 67.456345 94.260827 127.772059l0 78.619592c0 48.353264-25.681916 90.654696-63.866586 114.069989l3.079128 38.675858c56.673767-27.075659 96.055706-85.289502 96.055706-152.745846l0-78.619592c0-88.299045-67.36527-160.901597-152.854317-168.332846C712.313212 177.416735 720.144574 190.936657 726.631312 205.290573z" p-id="4154"></path><path d="M1018.60206 785.066189c-8.191566-178.155563-147.652851-260.871449-153.724127-264.387529-8.463766-4.857635-19.211551-1.88493-24.031323 6.66991-4.821819 8.518001-1.88493 19.428491 6.541997 24.322965 5.364171 3.116991 127.82527 76.409251 135.910413 233.395678l-41.014112 0c4.967128 11.381212 9.568936 23.269983 13.755282 35.631522l63.268976 0 0-35.631522L1018.60206 785.067212z" p-id="4155"></path></svg>