<?xml version="1.0" standalone="no"?><!DOCTYPE svg PUBLIC "-//W3C//DTD SVG 1.1//EN" "http://www.w3.org/Graphics/SVG/1.1/DTD/svg11.dtd"><svg t="1499309628455" class="icon" style="" viewBox="0 0 1024 1024" version="1.1" xmlns="http://www.w3.org/2000/svg" p-id="5186" xmlns:xlink="http://www.w3.org/1999/xlink" width="1024" height="1024"><defs><style type="text/css"></style></defs><path d="M945.625 618.0625c-33.8125-122.125-106.1875-216.3375-219.375-280.4625-13-7.3375-26.75-13.5-40.1875-20.2125 0.0625-0.1625 0.125-0.6 0.375-0.8125 2.25-2.0875 4.5625-4.15 6.8125-6.25 23.3125-21.525 44.25-46.4625 55.1875-75.8375 5.25-14.25 6.5625-20.4625 10.25-33.6875 6.875-41.775-1-67.15-26.6875-88.275-34.625-28.525-74-31.9-115.5625-15.15-2.875 1.15-4.8125 2-7.6875-0.625-53.5-48.9375-139.5625-49.4-193.4375-1.0625-2.5 2.25-4.3375 2.8125-7.5875 1.375-21.8375-9.75-44.6875-11.8125-68.15-7.125-44.4375 8.875-81.1875 45.4625-74.65 95.4 5.65 43.3375 23.025 80.8375 52.9375 113.1875 6.15 6.625 12.6875 12.9375 19.275 19.65-1.625 0.7875-3.275 1.5625-4.9375 2.3125C179.3125 388.125 76.0625 535.125 63.9625 702.3125 60.625 748.5 63.4375 794.3125 75.4 839.625c18.9 71.4375 83.8125 124.9375 161.75 124.75 183.6875-0.4375 367.5875 0.0625 551.275-0.25 59-0.0625 104.4375-25.6875 137.375-72.375 16.75-23.6875 24.5625-50.625 29.125-78.875C965.5625 747.25 963.375 682.1875 945.625 618.0625zM893 771.1875c-3.8125 24.75-7.875 50.6875-21.875 71.4375-27.4375 40.9375-80.0625 63.375-129.25 63.5-153.0625 0.1875-306.3375-0.1875-459.375 0.1875-64.9625 0.125-126.2125-35.9375-141.9625-98.5625-10-39.75-8.9-89.4375-6.125-129.9375C144.5 531.25 277.2125 393.0875 404.625 333.775c1.375-0.625-36.7125-34-41.8375-39.8125-24.9375-28.3375-40.5-51.275-45.2125-89.275-5.775-46.625 29.125-60.375 50.25-64.8125 19.5625-4.125 61.025 16.6875 63.125 14.7125 44.875-42.375 116.5875-41.9625 161.25 0.9375 2.375 2.3125 4 1.5625 6.375 0.525 34.625-14.65 63.9375-23.7125 92.8125 1.275 21.375 18.5 21.875 32.25 16.625 61.3125-3.1875 12.0625-22.9375 44.275-30.5 54.275-27.875 36.9-55.1875 60.4625-57.0625 62.3125-0.1875 0.1875 59.625 28.25 69.625 35.8375 92.375 70.275 154.625 124.65 182.8125 231.65C887.6875 658.9375 901.875 713.6875 893 771.1875zM617.5 682.9375l-18.75 0-29 0-28.3125 0L541.4375 651l28.25 0c0.0625 0 0.0625 0 0.0625 0l47.75 0c16.3125 0 29.5625-13.1875 29.5625-29.5s-13.25-29.5625-29.5625-29.5625l-18.75 0-29 0-28.3125 0L541.4375 577.125l59.375-58.5c0.5-0.4375 1.0625-0.9375 1.5625-1.5l15.9375-15.8125 4-3.9375 0 0 13.9375-13.9375c11.5625-11.5 11.625-30.1875 0.125-41.75-11.5-11.5625-30.25-11.625-41.8125-0.125l-17.75 17.6875-60.875 59.875-64.875-64.125-17.775-17.6875c-11.5625-11.4625-30.275-11.4375-41.775 0.125-11.5 11.5625-11.4625 30.3125 0.0875 41.8125l13.9625 13.875-0.0375 0 4.025 4 15.9 15.8125c0.525 0.5 1.0625 1 1.5875 1.4375l55.1875 54.5 0 23.0625-28.15 0-27.525 0-20.25 0c-16.3125 0-29.525 13.25-29.525 29.5625s13.2125 29.5 29.525 29.5l47.775 0 0.025 0 28.125 0 0 31.9375-28.15 0-27.525 0-20.25 0c-16.3125 0-29.525 13.25-29.525 29.5625s13.2125 29.5625 29.525 29.5625l47.775 0 0.025 0 28.125 0 0 19.25 0 0.875c0 16.3125 13.25 29.5625 29.525 29.5625 16.4125 0 29.65-13.25 29.65-29.5625l0-20.125 28.25 0c0.0625 0 0.0625 0 0.0625 0l47.75 0c16.3125 0 29.5625-13.25 29.5625-29.5625S633.8125 682.9375 617.5 682.9375z" p-id="5187"></path></svg>