<?xml version="1.0" standalone="no"?><!DOCTYPE svg PUBLIC "-//W3C//DTD SVG 1.1//EN" "http://www.w3.org/Graphics/SVG/1.1/DTD/svg11.dtd"><svg width="32" height="32" viewBox="0 0 32 32" version="1.1" xmlns="http://www.w3.org/2000/svg" xmlns:xlink="http://www.w3.org/1999/xlink"><defs><style type="text/css"><![CDATA[
@font-face { font-family: ifont; src: url(http://at.alicdn.com/t/font_1442373896_4754455.eot?#iefix) format(embedded-opentype), url(http://at.alicdn.com/t/font_1442373896_4754455.woff) format(woff), url(http://at.alicdn.com/t/font_1442373896_4754455.ttf) format(truetype), url(http://at.alicdn.com/t/font_1442373896_4754455.svg#ifont) format(svg); }

]]></style></defs><g class="transform-group"><g transform="scale(0.03125, 0.03125)"><path d="M505.70462 702.230576l-15.790638-14.607696c-11.697413-10.8143-27.716248-25.625634-49.866734-48.805566-14.610766-15.291265-65.710584-70.568219-109.818151-139.836839-48.185442-75.673493-71.344908-141.991921-68.835761-197.114356 2.923586-64.150042 29.815049-123.889635 75.719542-168.215166 46.616714-45.013193 108.648512-69.802786 174.669158-69.802786 68.432579 0 134.733611 27.263947 181.901887 74.801636 44.677549 45.027519 69.015863 103.95256 68.532863 165.921937-0.005117 0.959861-0.057305 4.681626-0.49835 10.539031-0.552585 8.66945-1.698688 17.642822-3.405563 26.673499-5.425569 31.382754-18.584264 79.709413-50.464345 132.030036-16.765849 27.513634-40.005133 58.643632-69.070098 92.52223-24.547069 30.422893-49.974182 57.756425-71.682599 77.060073-11.973706 11.93789-19.677155 19.205411-20.524452 20.00359L505.70462 702.230576zM511.783059 104.778368c-55.356772 0-107.291608 20.710694-146.236596 58.316174-38.349423 37.031405-60.817134 86.974887-63.262836 140.632971-2.119267 46.542013 18.900465 104.83772 62.472843 173.266206 42.10598 66.125023 90.925872 118.934786 104.885815 133.544529 14.395872 15.066137 26.139334 26.491351 35.730783 35.541471l13.074783-12.423961c0.397043-0.373507 8.154727-7.68196 20.159132-19.660782l0.883113-0.830925c20.211321-17.909905 44.225247-43.75248 67.61905-72.767304l0.403183-0.485047c27.726481-32.298614 49.723471-61.70434 65.38108-87.399559 28.582989-46.907333 40.307008-89.978291 45.109384-117.849058l0.062422-0.340761c1.419326-7.472182 2.364861-14.849196 2.811022-21.924335l0.01842-0.261966c0.37146-4.89959 0.391926-7.720845 0.391926-7.838525 0.399089-51.02307-19.723204-99.597369-56.657394-136.820132C625.090685 127.631866 569.381895 104.778368 511.783059 104.778368zM511.777943 401.604704c-56.967456 0-103.314017-44.853557-103.314017-99.985202 0-55.131645 46.346561-99.984179 103.314017-99.984179s103.314017 44.852534 103.314017 99.984179C615.09196 356.751147 568.745399 401.604704 511.777943 401.604704zM511.777943 242.567571c-34.397415 0-62.381769 26.490328-62.381769 59.051931 0 32.562627 27.984355 59.052954 62.381769 59.052954 34.397415 0 62.381769-26.491351 62.381769-59.052954C574.159712 269.057899 546.175357 242.567571 511.777943 242.567571zM947.035094 336.01487 809.91104 384.328225 822.401516 423.444105 918.92078 389.45192 918.945339 839.013869 647.434575 909.918755 361.493148 833.106322 104.636129 894.565069 104.636129 456.059943 204.328665 388.905474 177.207981 358.143866 63.641459 433.009971 63.655785 433.035554 63.641459 433.035554 63.641459 941.816233 104.636129 941.816233 104.636129 941.804976 360.984564 878.455159 647.077441 959.454962 959.828468 869.252567 959.940009 869.252567 959.940009 369.830023Z" fill="#272636"></path></g></g></svg>