<?xml version="1.0" standalone="no"?><!DOCTYPE svg PUBLIC "-//W3C//DTD SVG 1.1//EN" "http://www.w3.org/Graphics/SVG/1.1/DTD/svg11.dtd"><svg width="200" height="200" viewBox="0 0 200 200" version="1.1" xmlns="http://www.w3.org/2000/svg" xmlns:xlink="http://www.w3.org/1999/xlink"><defs><style type="text/css"><![CDATA[
@font-face { font-family: ifont; src: url(http://at.alicdn.com/t/font_1442373896_4754455.eot?#iefix) format(embedded-opentype), url(http://at.alicdn.com/t/font_1442373896_4754455.woff) format(woff), url(http://at.alicdn.com/t/font_1442373896_4754455.ttf) format(truetype), url(http://at.alicdn.com/t/font_1442373896_4754455.svg#ifont) format(svg); }

]]></style></defs><g class="transform-group"><g transform="scale(0.1953125, 0.1953125)"><path d="M592.340793 939.64887 592.340793 685.399235 432.511621 685.399235 432.511621 940.329369c-4.995781 0.25685-8.981559 0.639566-12.967336 0.639566-75.464739 0-150.968363 0.045025-226.439242 0-25.931602 0-43.372833-16.632819-43.487444-44.176129-0.524956-104.607476-0.364297-209.299887 0.115634-313.905316 0-5.516644 4.190439-12.571317 8.419763-16.33299 68.298526-60.346413 136.956232-120.302947 205.497281-180.308599 45.624107-39.939641 91.210351-79.888492 136.835482-119.788224 3.543709-3.079128 7.170307-6.069229 11.638061-9.881045 27.223015 23.781636 54.325279 47.431266 81.382519 71.119781 89.279373 78.139661 178.440042 156.445098 267.955798 234.283908 9.629311 8.336876 13.730723 16.804734 13.653975 30.273491-0.562818 99.308797-0.407276 198.651362-0.198521 297.912064 0.033769 18.047028-4.190439 33.744545-19.212574 43.711548-5.437849 3.626597-12.322653 6.753821-18.566868 6.797823-80.096223 0.427742-160.193469 0.208754-240.241596 0.165776C595.72589 940.844092 594.511225 940.285367 592.340793 939.64887L592.340793 939.64887 592.340793 939.64887zM1004.617557 494.361271c19.125593 16.939811 19.61064 25.189705 3.501754 45.333488-9.739828 12.230556-19.280112 24.679076-29.112038 36.865629-12.08013 15.09479-22.067598 16.036231-36.521798 3.203972C804.078195 457.111902 665.669892 334.37144 527.222703 211.673957c-4.79112-4.233418-9.705036-8.384971-15.303544-13.257955-31.126928 27.54331-62.016449 54.786791-92.823082 82.111113-112.349811 99.565646-224.699622 199.166085-337.055572 298.723545-15.220656 13.511735-24.683169 12.706393-37.486776-3.203972-10.593266-13.216-21.139459-26.51898-31.573089-39.857776-12.161994-15.565511-11.676947-25.620517 3.0208-38.743396 62.700017-55.728232 125.56581-111.243617 188.382485-166.835749 83.71975-74.114998 167.519318-148.143015 251.200182-222.38388 37.971823-33.661657 74.940806-33.661657 112.995517 0.25685L1004.617557 494.361271z" fill="#272636"></path></g></g></svg>