<?xml version="1.0" standalone="no"?><!DOCTYPE svg PUBLIC "-//W3C//DTD SVG 1.1//EN" "http://www.w3.org/Graphics/SVG/1.1/DTD/svg11.dtd"><svg width="32" height="32" viewBox="0 0 32 32" version="1.1" xmlns="http://www.w3.org/2000/svg" xmlns:xlink="http://www.w3.org/1999/xlink"><defs><style type="text/css"><![CDATA[
@font-face { font-family: ifont; src: url(http://at.alicdn.com/t/font_1442373896_4754455.eot?#iefix) format(embedded-opentype), url(http://at.alicdn.com/t/font_1442373896_4754455.woff) format(woff), url(http://at.alicdn.com/t/font_1442373896_4754455.ttf) format(truetype), url(http://at.alicdn.com/t/font_1442373896_4754455.svg#ifont) format(svg); }

]]></style></defs><g class="transform-group"><g transform="scale(0.03125, 0.03125)"><path d="M512.124587 971.240107c-294.05696-1.206613-355.83488-17.16224-383.141547-52.466347-19.65568-25.413973-12.288-54.260053-6.90688-75.323733 1.844907-7.22432 3.75296-14.6944 4.841813-22.060373 11.897173-81.174187 92.537173-110.40256 157.330773-133.888 26.386773-9.56416 51.310933-18.597547 67.969707-29.375147 21.19168-13.697707 14.83776-48.3072 11.077973-62.665387-34.0992-31.141547-60.69248-72.021333-77.692587-119.396693-22.961493-14.841173-39.601493-44.038827-44.286293-79.742293-5.050027-38.26176 5.474987-73.055573 26.426027-92.752213C284.19584 148.365653 374.468267 56.32 511.674027 56.32l1.000107 0c137.16992 0 227.44064 92.0576 243.923627 247.273813 20.922027 19.710293 31.429973 54.498987 26.381653 92.752213-4.54144 35.00032-21.4272 64.525653-44.202667 79.54432-16.979627 47.510187-43.5968 88.46848-77.760853 119.615147-3.764907 14.281387-10.176853 48.866987 11.101867 62.605653 16.677547 10.79808 41.606827 19.83488 68.000427 29.40416 6.797653 2.46272 13.82912 5.01248 20.829867 7.63392 17.65376 6.60992 26.60864 26.279253 19.99872 43.93472-6.608213 17.65376-26.27072 26.612053-43.93472 19.99872-6.66624-2.496853-13.52704-4.983467-20.160853-7.386453-30.149973-10.929493-58.630827-21.254827-81.800533-36.256427-30.470827-19.674453-46.907733-53.275307-46.247253-94.585173 0.447147-27.83232 8.538453-52.189867 11.339093-58.530133 2.0992-4.758187 5.261653-8.973653 9.2416-12.322133 30.846293-25.96864 55.31648-64.49664 68.901547-108.485973 3.411627-11.045547 12.177067-19.59936 23.268693-22.756693 2.926933-1.83808 11.275947-12.32384 13.735253-31.269547 2.471253-18.72384-2.44224-30.609067-4.96128-33.68448-11.58656-5.065387-19.469653-16.16384-20.369067-28.864853C684.668587 250.113707 654.600533 124.586667 512.674133 124.586667l-1.000107 0c-141.9776 0-172.020053 125.52192-177.29024 200.3456-0.897707 12.730027-8.813227 23.850667-20.437333 28.904107-2.510507 3.060053-7.40864 14.917973-4.944213 33.578667 2.522453 19.2256 10.753707 29.4656 13.78304 31.35488 11.067733 3.160747 19.8144 11.697493 23.227733 22.720853 13.615787 43.956907 38.11328 82.501973 68.980053 108.532053 4.032853 3.39968 7.220907 7.688533 9.316693 12.52864 2.966187 6.85056 10.76224 30.677333 11.204267 58.303147 0.663893 41.306453-15.752533 74.903893-46.225067 94.600533-23.166293 14.98624-51.6352 25.306453-81.77664 36.230827-64.67584 23.442773-107.485867 41.6512-113.05472 79.648427-1.611093 10.898773-4.068693 20.52096-6.237867 29.013333-1.481387 5.799253-3.416747 13.380267-3.836587 17.585493 4.732587 2.947413 21.0432 10.22976 71.62368 15.721813 54.016 5.864107 135.405227 8.82688 256.141653 9.32352 120.748373-0.49664 202.144427-3.459413 256.16384-9.325227 50.589013-5.492053 66.894507-12.776107 71.625387-15.721813-0.416427-4.20352-2.35008-11.779413-3.828053-17.580373-2.169173-8.497493-4.625067-18.126507-6.224213-28.991147-2.747733-18.650453 10.14272-35.997013 28.793173-38.74304 18.6368-2.747733 35.997013 10.141013 38.74304 28.793173 1.087147 7.365973 2.991787 14.839467 4.836693 22.068907 5.37088 21.05856 12.72832 49.89952-6.929067 75.306667-27.31008 35.3024-89.091413 51.252907-383.01696 52.45952C512.26624 971.240107 512.172373 971.240107 512.124587 971.240107z" fill="#272636"></path></g></g></svg>