<?xml version="1.0" standalone="no"?><!DOCTYPE svg PUBLIC "-//W3C//DTD SVG 1.1//EN" "http://www.w3.org/Graphics/SVG/1.1/DTD/svg11.dtd"><svg t="1507881151914" class="icon" style="" viewBox="0 0 1024 1024" version="1.1" xmlns="http://www.w3.org/2000/svg" p-id="2373" xmlns:xlink="http://www.w3.org/1999/xlink" width="1100" height="1100"><defs><style type="text/css"></style></defs><path d="M917.333333 234.666667a128 128 0 1 1-256 0 128 128 0 0 1 256 0z m42.666667 0a170.666667 170.666667 0 1 0-341.333333 0 170.666667 170.666667 0 0 0 341.333333 0z m0 554.666666a170.666667 170.666667 0 1 0-341.333333 0 170.666667 170.666667 0 0 0 341.333333 0z m-486.101333-194.261333A212.693333 212.693333 0 0 0 490.666667 512c0-31.018667-6.613333-60.458667-18.517334-87.04l178.901334-108.032-22.101334-36.522667-178.048 107.52a213.333333 213.333333 0 1 0 2.474667 244.565334l191.274667 98.944 19.626666-37.930667-190.378666-98.432zM917.333333 789.333333a128 128 0 1 1-256 0 128 128 0 0 1 256 0z m-469.333333-277.333333a170.666667 170.666667 0 1 1-341.333333 0 170.666667 170.666667 0 0 1 341.333333 0z" fill="#777E8C" p-id="2374"></path></svg>