<?xml version="1.0" standalone="no"?><!DOCTYPE svg PUBLIC "-//W3C//DTD SVG 1.1//EN" "http://www.w3.org/Graphics/SVG/1.1/DTD/svg11.dtd"><svg width="32" height="32" viewBox="0 0 32 32" version="1.1" xmlns="http://www.w3.org/2000/svg" xmlns:xlink="http://www.w3.org/1999/xlink"><defs><style type="text/css"><![CDATA[
@font-face { font-family: ifont; src: url(http://at.alicdn.com/t/font_1442373896_4754455.eot?#iefix) format(embedded-opentype), url(http://at.alicdn.com/t/font_1442373896_4754455.woff) format(woff), url(http://at.alicdn.com/t/font_1442373896_4754455.ttf) format(truetype), url(http://at.alicdn.com/t/font_1442373896_4754455.svg#ifont) format(svg); }

]]></style></defs><g class="transform-group"><g transform="scale(0.03125, 0.03125)"><path d="M916 788.992q4.992 15.008 7.488 38.496t2.496 47.008-3.488 44.512-10.496 32q-4.992 7.008-28.512 15.008t-57.504 15.488-76.512 14.016-84.512 11.488-81.504 8-68.512 3.008q-44 0-104-6.496t-116.992-15.488-100-18.496-52-16.512q-11.008-8-16.512-48.992t4.512-104.992q6.016-36.992 30.016-56t56.512-30.016 67.008-20 60.512-26.016q20.992-12.992 32.512-24.992t16-24 4.512-24.992-0.992-28q-2.016-24-15.488-36.992t-30.496-27.008q-8-7.008-14.016-19.488t-11.008-25.504q-4.992-15.008-10.016-31.008-7.008-2.016-14.016-7.008-6.016-4.992-12.992-14.016t-12-26.016-3.488-30.496 5.504-23.488q4-11.008 12-20.992-0.992-38.016 4-76 4-32 14.496-68t30.496-64.992q19.008-27.008 42.496-44.512t47.488-27.488 48.512-14.016 47.488-4q28.992 0 55.488 7.008t49.504 18.016 40.992 24.512 28.992 27.488q24.992 32 37.504 70.496t17.504 72.512q6.016 40 4.992 80 7.008 4 11.008 12 4 7.008 6.496 18.016t0.512 27.008q-3.008 20.992-9.504 33.504t-14.496 19.488q-8.992 8-19.008 11.008-4 16-8.992 31.008-4.992 12.992-11.488 25.504t-14.496 19.488q-8.992 8-16.992 13.504t-14.016 11.488-10.016 14.496-6.016 20.512q-3.008 15.008-2.016 30.496t8 31.008 23.008 29.504 43.008 24.992q24.992 10.016 54.496 17.504t56.992 18.016 48.992 26.496 30.496 42.016zM532 952.992q4.992 0 15.488-6.496t20.512-15.488 17.504-18.016 7.488-14.016q0-6.016-3.008-20.992t-7.008-32.992-8-35.488-7.008-28.512q10.016-8 16.992-17.504t7.008-19.488q0-8-5.504-16.512t-12.512-14.496q-8-7.008-16.992-14.016l-50.016 0q-10.016 7.008-16.992 14.016-6.016 6.016-11.008 14.016t-4.992 16q0 6.016 7.488 16t18.496 19.008q-3.008 8.992-8 26.016t-9.504 35.488-8 35.008-3.488 24.512q0 4.992 7.488 14.016t18.016 18.016 20.512 15.488 15.008 6.496z" fill="#272636"></path></g></g></svg>