<?xml version="1.0" standalone="no"?><!DOCTYPE svg PUBLIC "-//W3C//DTD SVG 1.1//EN" "http://www.w3.org/Graphics/SVG/1.1/DTD/svg11.dtd"><svg width="32" height="32" viewBox="0 0 32 32" version="1.1" xmlns="http://www.w3.org/2000/svg" xmlns:xlink="http://www.w3.org/1999/xlink"><defs><style type="text/css"><![CDATA[
@font-face { font-family: ifont; src: url(http://at.alicdn.com/t/font_1442373896_4754455.eot?#iefix) format(embedded-opentype), url(http://at.alicdn.com/t/font_1442373896_4754455.woff) format(woff), url(http://at.alicdn.com/t/font_1442373896_4754455.ttf) format(truetype), url(http://at.alicdn.com/t/font_1442373896_4754455.svg#ifont) format(svg); }

]]></style></defs><g class="transform-group"><g transform="scale(0.03125, 0.03125)"><path d="M983.616 313.024C956.672 250.752 920.064 196.48 873.664 150.144 827.328 103.872 773.12 67.264 711.168 40.32 649.152 13.44 582.784 0 512 0 441.216 0 374.848 13.44 312.832 40.32 250.816 67.264 196.672 103.872 150.272 150.144 103.936 196.48 67.328 250.752 40.384 313.024 13.44 375.296 0 441.728 0 512.448 0 583.168 13.44 649.472 40.384 711.424 67.328 773.376 103.936 827.52 150.272 873.792 196.672 920.128 250.816 956.736 312.832 983.616 374.848 1010.56 441.216 1024 512 1024 582.72 1024 649.152 1010.56 711.168 983.616 773.12 956.736 827.328 920.128 873.664 873.792 920 827.52 956.672 773.376 983.552 711.424 1010.496 649.472 1024 583.168 1024 512.448 1024 441.728 1010.56 375.296 983.616 313.024L983.616 313.024ZM512 842.688C480 842.688 454.016 816.768 454.016 784.832 454.016 752.832 480 726.912 512 726.912 544 726.912 569.92 752.832 569.92 784.832 569.92 816.832 544 842.688 512 842.688L512 842.688ZM569.92 601.984C569.92 633.984 544 659.904 512 659.904 480 659.904 454.016 633.984 454.016 601.984L454.016 239.168C454.016 207.168 480 181.248 512 181.248 544 181.248 569.92 207.168 569.92 239.168L569.92 601.984 569.92 601.984Z" fill="#272636"></path></g></g></svg>