<?xml version="1.0" standalone="no"?><!DOCTYPE svg PUBLIC "-//W3C//DTD SVG 1.1//EN" "http://www.w3.org/Graphics/SVG/1.1/DTD/svg11.dtd"><svg width="200" height="200" viewBox="0 0 200 200" version="1.1" xmlns="http://www.w3.org/2000/svg" xmlns:xlink="http://www.w3.org/1999/xlink"><defs><style type="text/css"><![CDATA[
@font-face { font-family: ifont; src: url("//at.alicdn.com/t/font_1442373896_4754455.eot?#iefix") format("embedded-opentype"), url("//at.alicdn.com/t/font_1442373896_4754455.woff") format("woff"), url("//at.alicdn.com/t/font_1442373896_4754455.ttf") format("truetype"), url("//at.alicdn.com/t/font_1442373896_4754455.svg#ifont") format("svg"); }

]]></style></defs><g class="transform-group"><g transform="scale(0.1953125, 0.1953125)"><path d="M553.455835 1021.858713 20.263389 1021.858713c-10.936251 0-19.854117-8.877898-19.854117-19.854117L0.409273 19.853317C0.409273 8.879097 9.327138 0.001199 20.263389 0.001199l533.192446 0c10.931255 0 19.854117 8.877898 19.854117 19.851119l0 982.152278C573.309952 1012.980815 564.38709 1021.858713 553.455835 1021.858713zM40.117506 982.145484l493.484213 0L533.601719 39.709432 40.117506 39.709432 40.117506 982.145484zM997.838329 1021.858713 553.455835 1021.858713c-10.941247 0-19.854117-8.877898-19.854117-19.854117L533.601719 287.728018c0-10.973221 8.91287-19.851119 19.854117-19.851119l444.383493 0c10.941247 0 19.854117 8.877898 19.854117 19.851119l0 714.276579C1017.692446 1012.980815 1008.779576 1021.858713 997.838329 1021.858713zM573.309952 982.145484l404.665268 0L977.97522 307.585132 573.309952 307.585132 573.309952 982.145484zM178.164069 198.464428l39.710232 0 0 446.406875-39.710232 0L178.164069 198.464428zM355.841926 198.464428l39.713229 0 0 446.406875-39.713229 0L355.841926 198.464428zM864.595923 1021.858713l-177.747802 0c-10.941247 0-19.854117-8.877898-19.854117-19.854117L666.994005 823.473421c0-10.971223 8.91287-19.849121 19.854117-19.849121l177.747802 0c10.941247 0 19.854117 8.877898 19.854117 19.849121l0 178.531175C884.45004 1012.980815 875.53717 1021.858713 864.595923 1021.858713zM706.692246 982.145484l138.04956 0L844.741807 843.332534l-138.04956 0L706.692246 982.145484zM375.698042 1021.858713 198.018185 1021.858713c-10.936251 0-19.854117-8.877898-19.854117-19.854117L178.164069 823.473421c0-10.971223 8.917866-19.849121 19.854117-19.849121l177.679856 0c10.933253 0 19.856115 8.877898 19.856115 19.849121l0 178.531175C395.554157 1012.980815 386.631295 1021.858713 375.698042 1021.858713zM217.874301 982.145484l137.966627 0L355.840927 843.332534 217.874301 843.332534 217.874301 982.145484zM686.848122 625.01219l177.747802 0 0 39.713229-177.747802 0L686.848122 625.01219zM686.848122 446.486011l177.747802 0 0 39.705236-177.747802 0L686.848122 446.486011z" fill="#272636"></path></g></g></svg>