<?xml version="1.0" standalone="no"?><!DOCTYPE svg PUBLIC "-//W3C//DTD SVG 1.1//EN" "http://www.w3.org/Graphics/SVG/1.1/DTD/svg11.dtd"><svg width="200" height="200" viewBox="0 0 200 200" version="1.1" xmlns="http://www.w3.org/2000/svg" xmlns:xlink="http://www.w3.org/1999/xlink"><defs><style type="text/css"><![CDATA[
@font-face { font-family: ifont; src: url("//at.alicdn.com/t/font_1442373896_4754455.eot?#iefix") format("embedded-opentype"), url("//at.alicdn.com/t/font_1442373896_4754455.woff") format("woff"), url("//at.alicdn.com/t/font_1442373896_4754455.ttf") format("truetype"), url("//at.alicdn.com/t/font_1442373896_4754455.svg#ifont") format("svg"); }

]]></style></defs><g class="transform-group"><g transform="scale(0.1953125, 0.1953125)"><path d="M694.71081 455.091896l-92.90597 0 0 154.843624c0 0-10.323113 47.313585-49.033763 49.895387l-92.906993 0 0-45.594431 64.518433 0c0 0 28.388561 1.724271 28.388561-17.203824L552.771077 486.060211 394.485051 629.721145l-30.969339 0 0.860601-32.68747-16.34527 0 0 78.280878 346.678744 0L694.709787 455.091896zM300.717458 298.531164 741.163795 298.531164l0 439.58369-46.454008 0 0-14.625092-346.678744-0.861624 0 15.486716-47.313585 0 220.22368 221.078141c0 0 424.959621 12.486382 440.444291-456.56648 0 0 11.613502-421.308465-447.75786-441.954691 0 0-402.594241-27.088962-450.337615 441.954691L300.717458 298.531164zM300.717458 298.531164l0 439.58369 220.22368 221.078141c0 0-429.262624 33.132608-457.651184-456.56648L300.717458 298.531164zM348.031043 344.981079 552.771077 344.981079 552.771077 406.918733 364.376313 406.918733 364.376313 455.95352 520.941138 455.95352 364.376313 597.033675 348.031043 597.033675ZM601.80484 344.981079l92.90597 0 0 62.798255-92.90597 0 0-62.798255Z" fill="#272636"></path></g></g></svg>