<?xml version="1.0" standalone="no"?><!DOCTYPE svg PUBLIC "-//W3C//DTD SVG 1.1//EN" "http://www.w3.org/Graphics/SVG/1.1/DTD/svg11.dtd"><svg width="32" height="32" viewBox="0 0 32 32" version="1.1" xmlns="http://www.w3.org/2000/svg" xmlns:xlink="http://www.w3.org/1999/xlink"><defs><style type="text/css"><![CDATA[
@font-face { font-family: ifont; src: url(http://at.alicdn.com/t/font_1442373896_4754455.eot?#iefix) format(embedded-opentype), url(http://at.alicdn.com/t/font_1442373896_4754455.woff) format(woff), url(http://at.alicdn.com/t/font_1442373896_4754455.ttf) format(truetype), url(http://at.alicdn.com/t/font_1442373896_4754455.svg#ifont) format(svg); }

]]></style></defs><g class="transform-group"><g transform="scale(0.03125, 0.03125)"><path d="M791.457164 482.009422 542.361553 482.009422 542.361553 232.913811c0-17.190122-13.94987-31.139992-31.139992-31.139992-17.190122 0-31.139992 13.94987-31.139992 31.139992l0 249.095611L230.985958 482.009422C213.795836 482.009422 199.845966 495.959292 199.845966 513.149414c0 17.190122 13.94987 31.139992 31.139992 31.139992l249.095611 0 0 249.095611c0 17.224179 13.94987 31.139992 31.139992 31.139992 17.190122 0 31.139992-13.915813 31.139992-31.139992L542.361553 544.289406l249.095611 0c17.224179 0 31.139992-13.94987 31.139992-31.139992C822.597156 495.959292 808.681343 482.009422 791.457164 482.009422L791.457164 482.009422zM791.457164 482.009422" fill="#272636"></path></g></g></svg>