<?xml version="1.0" standalone="no"?><!DOCTYPE svg PUBLIC "-//W3C//DTD SVG 1.1//EN" "http://www.w3.org/Graphics/SVG/1.1/DTD/svg11.dtd"><svg width="200" height="200" viewBox="0 0 200 200" version="1.1" xmlns="http://www.w3.org/2000/svg" xmlns:xlink="http://www.w3.org/1999/xlink"><defs><style type="text/css"><![CDATA[
@font-face { font-family: ifont; src: url("//at.alicdn.com/t/font_1442373896_4754455.eot?#iefix") format("embedded-opentype"), url("//at.alicdn.com/t/font_1442373896_4754455.woff") format("woff"), url("//at.alicdn.com/t/font_1442373896_4754455.ttf") format("truetype"), url("//at.alicdn.com/t/font_1442373896_4754455.svg#ifont") format("svg"); }

]]></style></defs><g class="transform-group"><g transform="scale(0.1953125, 0.1953125)"><path d="M957.740412 511.029906c0 246.710938-199.998033 446.708971-446.707948 446.708971-246.711961 0-446.711018-199.998033-446.711018-446.708971S264.319479 64.319911 511.032464 64.319911C757.741355 64.319911 957.740412 264.318968 957.740412 511.029906zM454.25125 594.324984c11.167341-9.593496 11.992125-22.372543 2.39863-38.373982-16.001439-23.984251-46.393633-64.756863-91.13872-122.317837l0-11.992125 67.154469 0c12.779048 0 19.186991-7.194866 19.186991-21.585621 0-12.779048-6.407943-19.186991-19.186991-19.186991l-67.154469 0 0-100.732216c27.169803-6.371104 47.142693-11.167341 59.959603-14.390755 12.779048-4.797259 18.362206-14.390755 16.788361-28.780487-4.797259-12.779048-14.390755-17.575284-28.780487-14.390755-46.393633 11.205203-98.333586 18.400069-155.894559 21.585621-16.001439 1.611707-23.984251 9.593496-23.984251 23.984251 1.573845 14.390755 10.380418 21.585621 26.381857 21.585621 7.981788 0 18.362206-0.786922 31.179117-2.39863 15.9646 0 26.381857-0.786922 31.179117-2.39863l0 95.934956-86.34146 0c-14.390755 0-22.409382 6.407943-23.984251 19.186991 0 14.390755 7.194866 21.585621 21.585621 21.585621l76.747965 0c-20.798698 54.375421-51.189869 110.325711-91.13872 167.886685-9.593496 12.814864-8.806573 24.806989 2.39863 35.975353 11.167341 8.018627 23.159466 5.619998 35.975353-7.194866 30.354332-46.356794 51.939953-85.517699 64.75584-117.520577l0 261.423011c1.573845 11.166317 8.768711 16.788361 21.585621 16.788361 14.390755-1.610684 21.585621-8.020674 21.585621-19.186991L365.510136 505.584893c15.9646 20.798698 33.577746 47.180556 52.764738 79.146595C429.443237 599.122243 441.435363 602.343611 454.25125 594.324984zM483.031736 277.739629l0 438.903192-40.772612 0c-14.390755 0-23.196305 7.194866-26.381857 21.585621 1.573845 14.390755 9.593496 21.585621 23.984251 21.585621l350.163101 0c12.779048 0 19.974937-7.194866 21.585621-21.585621-1.610684-14.390755-8.80555-21.585621-21.585621-21.585621l-38.373982 0L751.650637 272.942369c0-30.354332-15.214517-45.568848-45.568848-45.568848L535.796474 227.373521C497.422492 224.187969 479.809345 240.977353 483.031736 277.739629zM706.080765 294.52799l0 95.934956L528.600585 390.462946l0-95.934956c-1.610684-15.9646 4.797259-23.159466 19.186991-21.585621l134.308939 0C699.672822 271.368524 707.65461 278.56339 706.080765 294.52799zM706.080765 433.634188l0 115.121947L528.600585 548.756135l0-115.121947L706.080765 433.634188zM706.080765 591.927377l0 124.715443L528.600585 716.64282 528.600585 591.927377 706.080765 591.927377z" fill="#272636"></path></g></g></svg>