<?xml version="1.0" standalone="no"?><!DOCTYPE svg PUBLIC "-//W3C//DTD SVG 1.1//EN" "http://www.w3.org/Graphics/SVG/1.1/DTD/svg11.dtd"><svg width="200" height="200" viewBox="0 0 200 200" version="1.1" xmlns="http://www.w3.org/2000/svg" xmlns:xlink="http://www.w3.org/1999/xlink"><defs><style type="text/css"><![CDATA[
@font-face { font-family: ifont; src: url("//at.alicdn.com/t/font_1442373896_4754455.eot?#iefix") format("embedded-opentype"), url("//at.alicdn.com/t/font_1442373896_4754455.woff") format("woff"), url("//at.alicdn.com/t/font_1442373896_4754455.ttf") format("truetype"), url("//at.alicdn.com/t/font_1442373896_4754455.svg#ifont") format("svg"); }

]]></style></defs><g class="transform-group"><g transform="scale(0.1953125, 0.1953125)"><path d="M341.6 549.44l-26.96-6.8c-14.72-3.68-22.08-10.08-22.08-19.12 0-5.76 2.32-10.48 7.04-14.24 4.64-3.68 11.44-5.6 20.4-5.6 11.68 0 20.16 3.52 25.36 10.4 3.2 4.32 8.72 6.4 14 5.12 10.4-2.56 13.84-15.6 5.92-22.96-2.8-2.56-5.84-4.8-9.36-6.72-10.72-5.92-22.96-8.88-36.48-8.88-16.48 0-29.92 4.24-40.48 12.88-10.48 8.48-15.84 19.84-15.84 34.08 0 7.12 1.52 13.84 4.48 20.08 2.96 6.24 6.88 11.12 11.92 14.56 4.96 3.36 12.64 6.48 23.04 9.2l30.4 7.84c8.16 2.16 13.52 4.96 15.92 8.72 2.48 3.6 3.68 7.68 3.68 12 0 5.92-2.8 10.96-8.16 14.96-5.52 4-13.28 6.08-23.44 6.08-17.6 0-29.28-4.88-35.04-14.72-2.96-5.12-8.72-7.68-14.4-6.48l-0.24 0.08c-9.52 2-13.92 13.2-8.08 21.36 4 5.44 9.04 9.84 15.2 13.28 11.76 6.56 25.6 9.84 41.28 9.84 18.72 0 33.84-4.48 45.68-13.36 11.76-9.04 17.6-21.2 17.6-36.8 0-9.68-2.8-18.48-8.4-26.56C368.88 559.68 357.92 553.6 341.6 549.44zM442.4 482.96 394.88 626.4c-2.56 7.44 3.04 15.2 10.96 15.2 5.12 0 9.44-3.2 11.04-8l9.84-29.84 61.04 0 10 29.92c1.6 4.64 5.92 7.84 10.96 7.84l6.16 0c8 0 13.6-7.76 10.96-15.2l-48.08-143.44L442.4 482.88zM433.76 580.88l23.12-70.8 23.12 70.8L433.76 580.88zM647.52 628.56c0-7.12-5.84-12.96-12.96-12.96L580 615.6 580 495.84c0-7.12-5.84-12.96-12.96-12.96l-4.16 0c-7.12 0-12.96 5.84-12.96 12.96L549.92 641.6l84.72 0C641.92 641.6 647.76 635.76 647.52 628.56zM771.84 629.68l0-1.6c0-6.24-5.12-11.44-11.44-11.44l-63.04 0 0-44.4 47.52 0c6.24 0 11.44-5.12 11.44-11.44 0-6.24-5.12-11.44-11.44-11.44l-47.52 0 0-42.96 62 0c6.24 0 11.44-5.12 11.44-11.44l0-0.56c0-6.24-5.12-11.44-11.44-11.44L668.72 482.96 668.72 641.6l91.6 0C766.72 641.6 771.84 636.4 771.84 629.68zM922.56 454.96 543.76 76.8c-7.84-7.84-18.24-12.24-29.44-12.24S492.8 68.96 484.96 76.8l-0.32 0.32L273.92 272 273.92 160.08c0-20.72-10.96-41.52-35.36-41.52-29.92 0-32.24 31.76-32.24 41.52l-0.4 190.48L109.68 454.4c-7.84 7.84-12.24 18.24-12.24 29.28 0 11.04 4.32 21.44 12.24 29.28 7.44 7.44 19.44 12 31.28 12l0.72 0L154.4 524.8l-2 281.44c0 52.48 42.8 95.2 95.36 95.2l68.48 0 15.92 0 24.56 0 305.6 0 107.68 0 16.32 0c52.56 0 95.36-42.8 95.36-95.36L881.68 525.76l12.24-0.24c11.04-0.08 21.2-4.48 28.88-12 7.84-7.84 12.24-18.24 12.24-29.28C934.72 473.2 930.4 462.8 922.56 454.96zM832.48 786.24c0 36.4-29.6 66.16-66 66.16l-31.2 1.2-41.2 0.96-7.84 0 0-0.96-48 0L380.72 853.6l-46.96 0-17.52 0-50.08 0.4c-36 0-66.24-30.96-66.24-67.76L199.92 570.72 201.92 436l314.32-314.88 316.24 317.76L832.48 786.24z" fill="#272636"></path></g></g></svg>