<?xml version="1.0" standalone="no"?><!DOCTYPE svg PUBLIC "-//W3C//DTD SVG 1.1//EN" "http://www.w3.org/Graphics/SVG/1.1/DTD/svg11.dtd"><svg width="200" height="200" viewBox="0 0 200 200" version="1.1" xmlns="http://www.w3.org/2000/svg" xmlns:xlink="http://www.w3.org/1999/xlink"><defs><style type="text/css"><![CDATA[
@font-face { font-family: ifont; src: url("//at.alicdn.com/t/font_1442373896_4754455.eot?#iefix") format("embedded-opentype"), url("//at.alicdn.com/t/font_1442373896_4754455.woff") format("woff"), url("//at.alicdn.com/t/font_1442373896_4754455.ttf") format("truetype"), url("//at.alicdn.com/t/font_1442373896_4754455.svg#ifont") format("svg"); }

]]></style></defs><g class="transform-group"><g transform="scale(0.1953125, 0.1953125)"><path d="M889.87014 288.654212 723.539904 288.654212c-11.484565 0-20.790512 9.31004-20.790512 20.790512 0 11.482519 9.305947 20.791535 20.790512 20.791535l166.330236 0c11.480472 0 20.788465 9.307993 20.788465 20.795629l0 540.563546c0 11.484565-9.307993 20.788465-20.788465 20.788465L141.390217 912.3839c-11.478426 0-20.786419-9.3039-20.786419-20.788465L120.603799 351.030865c0-11.486612 9.307993-20.795629 20.786419-20.795629l374.24252 0c1.108241 0 2.188852-0.11154 3.251044-0.279363 9.017374 2.350534 18.898419-1.251503 23.791869-9.353019l157.25044-198.719924c5.823636-9.642614 2.365884-21.976524-7.717775-27.542286-10.085706-5.567809-22.978341-2.26253-28.801976 7.381108L515.482311 288.654212l-45.518706 0L284.691971 49.249681c-5.821589-9.642614-18.720364-12.944823-28.801976-7.381108-10.085706 5.569856-13.539364 17.896602-7.717775 27.544333l169.669284 219.241306L141.390217 288.654212c-34.44244 0-62.370513 27.928073-62.370513 62.376653l0 540.563546c0 34.44858 27.928073 62.370513 62.370513 62.370513l748.479923 0c34.44858 0 62.372559-27.921933 62.372559-62.370513L952.242699 351.030865C952.242699 316.582285 924.31872 288.654212 889.87014 288.654212zM456.024128 457.848683c-10.194176-7.486508-23.562649 0.783853-23.562649 17.807574 0 17.283642 0 320.547597 0 332.467067 0 15.458063 12.096503 26.955932 24.048719 17.913998 9.584286-7.237845 201.065342-153.395646 217.407542-165.895331 10.730389-8.214079 10.55131-27.795043 0-36.018332C662.154835 614.95586 469.942115 468.053092 456.024128 457.848683z" fill="#272636"></path></g></g></svg>