<?xml version="1.0" encoding="utf-8"?>
<!-- Generator: Adobe Illustrator 16.0.0, SVG Export Plug-In . SVG Version: 6.00 Build 0)  -->
<!DOCTYPE svg PUBLIC "-//W3C//DTD SVG 1.1//EN" "http://www.w3.org/Graphics/SVG/1.1/DTD/svg11.dtd">
<svg version="1.1" id="图层_1" xmlns="http://www.w3.org/2000/svg" xmlns:xlink="http://www.w3.org/1999/xlink" x="0px" y="0px"
	 width="200px" height="200px" viewBox="0 0 200 200" enable-background="new 0 0 200 200" xml:space="preserve">
<g>
	<g transform="scale(0.1953125, 0.1953125)">
		<path d="M290.442,204.165h442.151 M879.348,204.165h71.48c40.27,0,72.985,32.715,72.985,72.985v510.879
			c0,40.34-32.715,72.985-72.985,72.985l0,0H72.982C32.642,861.013,0,828.368,0,788.028V277.149
			c0-40.27,32.642-72.985,72.982-72.985l72.982,1.257 M291.932,379.782c-44.117,0-79.895,47.04-79.895,104.912
			c0,57.945,35.777,104.915,79.895,104.915s79.757-46.97,79.757-104.915C371.689,426.821,336.049,379.782,291.932,379.782
			L291.932,379.782z M419.296,630.658c-19.6-13.11-76.262-21.735-76.262-21.735s-36.775,39.195-52.382,39.195
			c-15.537,0-52.245-39.195-52.245-39.195s-56.59,8.625-76.265,21.735c-19.67,13.12-28.365,82.54-28.365,82.54h314.384
			C448.164,713.198,442.389,646.058,419.296,630.658L419.296,630.658z M877.848,423.114H549.419v36.492h328.429V423.114
			L877.848,423.114z M877.848,496.099H549.419v36.49h328.429V496.099L877.848,496.099z M877.848,569.079H549.419v36.495h328.429
			V569.079L877.848,569.079z M877.848,642.068H549.419v36.49h328.429V642.068L877.848,642.068z"/>
	</g>
</g>
</svg>
