<?xml version="1.0" standalone="no"?><!DOCTYPE svg PUBLIC "-//W3C//DTD SVG 1.1//EN" "http://www.w3.org/Graphics/SVG/1.1/DTD/svg11.dtd"><svg class="icon" style="" viewBox="0 0 1024 1024" version="1.1" xmlns="http://www.w3.org/2000/svg" p-id="2626" xmlns:xlink="http://www.w3.org/1999/xlink" width="1024" height="1024"><defs><style type="text/css"><![CDATA[

]]></style></defs><path d="M512.409313 66.718097c-246.918357 0-447.174978 200.25662-447.174978 447.174978s200.25662 447.174978 447.174978 447.174978 447.174978-200.25662 447.174978-447.174978S759.327671 66.718097 512.409313 66.718097zM512.409313 898.238433C300.077945 898.238433 127.961627 726.122115 127.961627 513.893075c0-212.331368 172.116319-384.447687 384.447687-384.447687 212.331368 0 384.447687 172.116319 384.447687 384.447687C896.754672 726.122115 724.638353 898.238433 512.409313 898.238433z" p-id="2627"></path><path d="M734.666533 512.051164l-222.666533 0 0-223.48516c0-32.847407-32.02878-32.847407-32.02878-32.847407s-32.02878 0-31.926451 32.847407l0 253.467373c0 8.390926 2.148896 14.632957 5.218747 19.340062 4.297792 7.572299 12.484061 14.735285 28.037973 14.735285l253.467373 0c32.847407 0 32.847407-32.02878 32.847407-32.02878S767.51394 511.948836 734.666533 512.051164z" p-id="2628"></path></svg>