<?xml version="1.0" standalone="no"?><!DOCTYPE svg PUBLIC "-//W3C//DTD SVG 1.1//EN" "http://www.w3.org/Graphics/SVG/1.1/DTD/svg11.dtd"><svg class="icon" style="" viewBox="0 0 1024 1024" version="1.1" xmlns="http://www.w3.org/2000/svg" p-id="9612" xmlns:xlink="http://www.w3.org/1999/xlink" width="1024" height="1024"><defs><style type="text/css"><![CDATA[

]]></style></defs><path d="M896 1024 128 1024C57.298489 1024 0 966.701511 0 896L0 128C0 57.321244 57.298489 0 128 0L896 0C966.701511 0 1024 57.321244 1024 128L1024 896C1024 966.701511 966.701511 1024 896 1024ZM477.866667 910.222222 546.133333 910.222222C571.278222 910.222222 591.644444 889.856 591.644444 864.711111 591.644444 839.566222 571.278222 819.2 546.133333 819.2L477.866667 819.2C452.721778 819.2 432.355556 839.566222 432.355556 864.711111 432.355556 889.856 452.721778 910.222222 477.866667 910.222222ZM477.866667 728.177778 546.133333 728.177778C571.278222 728.177778 591.644444 707.811556 591.644444 682.666667 591.644444 657.521778 571.278222 637.155556 546.133333 637.155556L477.866667 637.155556C452.721778 637.155556 432.355556 657.521778 432.355556 682.666667 432.355556 707.811556 452.721778 728.177778 477.866667 728.177778ZM477.866667 546.133333 546.133333 546.133333C571.278222 546.133333 591.644444 525.767111 591.644444 500.622222 591.644444 475.477333 571.278222 455.111111 546.133333 455.111111L477.866667 455.111111C452.721778 455.111111 432.355556 475.477333 432.355556 500.622222 432.355556 525.767111 452.721778 546.133333 477.866667 546.133333ZM204.8 910.222222 273.066667 910.222222C298.211556 910.222222 318.577778 889.856 318.577778 864.711111 318.577778 839.566222 298.211556 819.2 273.066667 819.2L204.8 819.2C179.655111 819.2 159.288889 839.566222 159.288889 864.711111 159.288889 889.856 179.655111 910.222222 204.8 910.222222ZM204.8 728.177778 273.066667 728.177778C298.211556 728.177778 318.577778 707.811556 318.577778 682.666667 318.577778 657.521778 298.211556 637.155556 273.066667 637.155556L204.8 637.155556C179.655111 637.155556 159.288889 657.521778 159.288889 682.666667 159.288889 707.811556 179.655111 728.177778 204.8 728.177778ZM204.8 546.133333 273.066667 546.133333C298.211556 546.133333 318.577778 525.767111 318.577778 500.622222 318.577778 475.477333 298.211556 455.111111 273.066667 455.111111L204.8 455.111111C179.655111 455.111111 159.288889 475.477333 159.288889 500.622222 159.288889 525.767111 179.655111 546.133333 204.8 546.133333ZM864.711111 182.044444C864.711111 144.338489 834.1504 113.777778 796.444444 113.777778L227.555556 113.777778C189.8496 113.777778 159.288889 144.338489 159.288889 182.044444L159.288889 227.555556C159.288889 265.261511 189.8496 295.822222 227.555556 295.822222L796.444444 295.822222C834.1504 295.822222 864.711111 265.261511 864.711111 227.555556L864.711111 182.044444ZM819.2 455.111111 750.933333 455.111111C725.788444 455.111111 705.422222 475.477333 705.422222 500.622222 705.422222 525.767111 725.788444 546.133333 750.933333 546.133333L819.2 546.133333C844.344889 546.133333 864.711111 525.767111 864.711111 500.622222 864.711111 475.477333 844.344889 455.111111 819.2 455.111111ZM819.2 637.155556 750.933333 637.155556C725.788444 637.155556 705.422222 657.521778 705.422222 682.666667 705.422222 707.811556 725.788444 728.177778 750.933333 728.177778L819.2 728.177778C844.344889 728.177778 864.711111 707.811556 864.711111 682.666667 864.711111 657.521778 844.344889 637.155556 819.2 637.155556ZM819.2 819.2 750.933333 819.2C725.788444 819.2 705.422222 839.566222 705.422222 864.711111 705.422222 889.856 725.788444 910.222222 750.933333 910.222222L819.2 910.222222C844.344889 910.222222 864.711111 889.856 864.711111 864.711111 864.711111 839.566222 844.344889 819.2 819.2 819.2Z" p-id="9613"></path></svg>