<?xml version="1.0" standalone="no"?><!DOCTYPE svg PUBLIC "-//W3C//DTD SVG 1.1//EN" "http://www.w3.org/Graphics/SVG/1.1/DTD/svg11.dtd"><svg xmlns:xlink="http://www.w3.org/1999/xlink" xmlns="http://www.w3.org/2000/svg" version="1.1" width="200" height="200" viewBox="0 0 200 200"><defs><style type="text/css"><![CDATA[
@font-face {
  font-family: "ifont";
  src: url("//at.alicdn.com/t/font_1442373896_4754455.eot?#iefix") format("embedded-opentype"), url("//at.alicdn.com/t/font_1442373896_4754455.woff") format("woff"), url("//at.alicdn.com/t/font_1442373896_4754455.ttf") format("truetype"), url("//at.alicdn.com/t/font_1442373896_4754455.svg#ifont") format("svg");
}

]]></style></defs><g class="transform-group"><g transform="scale(0.1953125, 0.1953125)"><path d="M717.741339 69.323878l-0.002047-0.004093-0.134053 0.127913c-0.51677 0.447185-442.435645 428.79702-442.435645 428.79702-13.047154 13.048177 0 27.631314 0 27.631314l442.212564 428.66706c3.302209 2.944052 7.653307 4.732791 12.428054 4.732791 10.31288 0 18.676361-8.362458 18.676361-18.676361 0-4.657067-1.716084-8.903787-4.533246-12.174274l0.005117-0.007163-0.106424-0.105401c-0.697895-0.798179-428.76632-416.419108-428.76632-416.419108S743.150032 96.655364 743.849974 95.855138l0.106424-0.104377-0.008186-0.008186c2.820232-3.26844 4.533246-7.518231 4.533246-12.173251 0-10.314926-8.360412-18.677385-18.676361-18.677385C725.203288 64.891939 720.9975 66.565045 717.741339 69.323878L717.741339 69.323878z" fill="#272636"></path></g></g></svg>