<?xml version="1.0" standalone="no"?><!DOCTYPE svg PUBLIC "-//W3C//DTD SVG 1.1//EN" "http://www.w3.org/Graphics/SVG/1.1/DTD/svg11.dtd"><svg xmlns:xlink="http://www.w3.org/1999/xlink" xmlns="http://www.w3.org/2000/svg" version="1.1" width="200" height="200" viewBox="0 0 200 200"><defs><style type="text/css"><![CDATA[
@font-face {
  font-family: "ifont";
  src: url("//at.alicdn.com/t/font_1442373896_4754455.eot?#iefix") format("embedded-opentype"), url("//at.alicdn.com/t/font_1442373896_4754455.woff") format("woff"), url("//at.alicdn.com/t/font_1442373896_4754455.ttf") format("truetype"), url("//at.alicdn.com/t/font_1442373896_4754455.svg#ifont") format("svg");
}

]]></style></defs><g class="transform-group"><g transform="scale(0.1953125, 0.1953125)"><path d="M281.6 978.944l380.928 0L662.528 37.888 281.6 37.888 281.6 978.944 281.6 978.944zM606.208 846.848l-101.376 0 0-102.4 101.376 0L606.208 846.848 606.208 846.848zM416.768 693.248l0-102.4 101.376 0 0 102.4L416.768 693.248 416.768 693.248zM606.208 540.672l-101.376 0 0-102.4 101.376 0L606.208 540.672 606.208 540.672zM416.768 387.072l0-102.4 101.376 0 0 102.4L416.768 387.072 416.768 387.072zM504.832 131.072l101.376 0 0 102.4-101.376 0L504.832 131.072 504.832 131.072zM329.728 131.072l101.376 0 0 102.4-101.376 0L329.728 131.072 329.728 131.072zM329.728 438.272l101.376 0 0 102.4-101.376 0L329.728 438.272 329.728 438.272zM329.728 744.448l101.376 0 0 102.4-101.376 0L329.728 744.448 329.728 744.448zM0 978.944l228.352 0L228.352 335.872 0 335.872 0 978.944 0 978.944zM63.488 386.048l101.376 0 0 102.4L63.488 488.448 63.488 386.048 63.488 386.048zM63.488 568.32l101.376 0 0 102.4L63.488 670.72 63.488 568.32 63.488 568.32zM63.488 742.4l101.376 0 0 102.4L63.488 844.8 63.488 742.4 63.488 742.4zM978.944 425.984 978.944 304.128l-55.296 0L923.648 184.32l-39.936 0L883.712 73.728 849.92 73.728 849.92 184.32l-39.936 0 0 118.784-55.296 0 0 121.856-45.056 0 0 552.96L1024 977.92l0-552.96L978.944 424.96 978.944 425.984zM864.256 908.288l-101.376 0 0-102.4 101.376 0L864.256 908.288 864.256 908.288zM864.256 594.944l-101.376 0 0-102.4 101.376 0L864.256 594.944 864.256 594.944zM983.04 750.592l-101.376 0 0-102.4L983.04 648.192 983.04 750.592 983.04 750.592zM983.04 750.592" fill="#272636"></path></g></g></svg>