<?xml version="1.0" encoding="utf-8"?>
<!-- Generator: Adobe Illustrator 16.0.0, SVG Export Plug-In . SVG Version: 6.00 Build 0)  -->
<!DOCTYPE svg PUBLIC "-//W3C//DTD SVG 1.1//EN" "http://www.w3.org/Graphics/SVG/1.1/DTD/svg11.dtd">
<svg version="1.1" id="图层_1" xmlns="http://www.w3.org/2000/svg" xmlns:xlink="http://www.w3.org/1999/xlink" x="0px" y="0px"
	 width="1000px" height="1000px" viewBox="0 0 1000 1000" enable-background="new 0 0 1000 1000" xml:space="preserve">
<path fill="#040000" d="M703.277,282.189L528.578,39.948c-6.523-9.237-16.521-14.306-26.797-14.701
	c-0.135-0.004-0.26-0.012-0.396-0.012c-0.33-0.012-0.652-0.012-0.976-0.012c-0.307,0-0.611,0-0.916,0.007
	c-0.153,0.004-0.299,0.012-0.443,0.016c-10.306,0.402-20.334,5.482-26.846,14.733L296.656,283.177
	c-11.32,16.046-7.859,38.437,7.667,50.086c15.573,11.644,37.305,8.091,48.618-7.952l147.569-204.493l146.658,203.413
	c11.272,15.955,32.951,19.507,48.433,7.908C711.093,320.54,714.498,298.191,703.277,282.189L703.277,282.189z M807.818,970.233
	c0.251-0.177,0.502-0.362,0.737-0.544c0.121-0.089,0.237-0.187,0.357-0.282c8.099-6.375,13.224-16.374,13.052-27.688l-0.92-299.93
	c-0.278-19.635-16.238-35.725-35.65-36.019c-19.448-0.265-34.939,15.38-34.66,35.016l0.813,252.166l-238.218-78.354
	c-18.496-6.286-38.12,3.582-43.83,22.064c-5.71,18.487,4.677,38.568,23.155,44.911l283.728,93.306
	c10.695,3.639,21.772,1.858,30.313-3.855c0.115-0.079,0.224-0.148,0.34-0.224C807.293,970.615,807.558,970.429,807.818,970.233
	L807.818,970.233z M997.915,387.396c-0.028-0.121-0.062-0.249-0.099-0.369c-0.098-0.316-0.189-0.627-0.293-0.938
	c-0.098-0.293-0.194-0.579-0.298-0.864c-0.046-0.14-0.102-0.279-0.147-0.418c-3.563-9.676-11.499-17.649-22.312-20.978
	l-285.55-91.801c-18.762-5.805-38.991,4.4-45.271,22.767c-6.254,18.413,3.833,37.986,22.599,43.787l240.086,77.153L758.493,618.066
	c-11.699,15.647-8.372,37.364,7.442,48.507c15.82,11.142,38.123,7.472,49.873-8.146l176.42-240.998
	C998.992,408.372,1000.721,397.293,997.915,387.396L997.915,387.396z M530.372,836.663c-5.706-18.482-25.331-28.351-43.824-22.064
	l-238.222,78.358l0.813-252.17c0.288-19.631-15.212-35.274-34.659-35.01c-19.405,0.293-35.37,16.383-35.646,36.014l-0.929,299.934
	c-0.165,11.318,4.962,21.321,13.067,27.701c0.114,0.088,0.221,0.167,0.334,0.26c0.251,0.187,0.497,0.372,0.75,0.559
	c0.263,0.189,0.522,0.372,0.783,0.553c0.114,0.084,0.235,0.163,0.349,0.237c8.544,5.71,19.609,7.489,30.3,3.847l283.729-93.297
	C525.702,875.232,536.087,855.155,530.372,836.663L530.372,836.663z M355.921,294.794c-6.274-18.366-26.509-28.572-45.272-22.767
	L25.102,363.829C14.285,367.165,6.356,375.131,2.8,384.811c-0.051,0.135-0.103,0.274-0.153,0.407
	c-0.103,0.292-0.202,0.585-0.297,0.878c-0.095,0.304-0.19,0.616-0.288,0.92c-0.037,0.132-0.075,0.267-0.114,0.4
	c-2.788,9.885-1.06,20.964,5.706,30.008l176.413,241.005c11.753,15.616,34.057,19.277,49.873,8.146
	c15.818-11.143,19.14-32.858,7.443-48.507L93.244,415.734l240.088-77.153C352.091,332.78,362.185,313.208,355.921,294.794
	L355.921,294.794z"/>
</svg>
