<?xml version="1.0" standalone="no"?><!DOCTYPE svg PUBLIC "-//W3C//DTD SVG 1.1//EN" "http://www.w3.org/Graphics/SVG/1.1/DTD/svg11.dtd"><svg t="1486520605496" class="icon" style="" viewBox="0 0 1024 1024" version="1.1" xmlns="http://www.w3.org/2000/svg" p-id="2221" xmlns:xlink="http://www.w3.org/1999/xlink" width="1024" height="1024"><defs><style type="text/css"></style></defs><path d="M846.39293 101.3155l-671.50376 0c-61.822021 0-111.917976 50.043766-111.917976 111.795179l0 447.660646c0 61.711504 50.095955 111.795179 111.917976 111.795179l219.750913 0L510.639003 914.071332l115.691929-141.504828 220.055858 0c61.822021 0 111.959931-50.083675 111.959931-111.795179L958.346721 213.110679C958.350814 151.359266 908.20881 101.3155 846.39293 101.3155zM256.770038 521.964956c-47.293119 0-85.632309-38.33919-85.632309-85.632309s38.33919-85.632309 85.632309-85.632309 85.632309 38.33919 85.632309 85.632309S304.063157 521.964956 256.770038 521.964956zM509.158279 521.964956c-47.293119 0-85.632309-38.33919-85.632309-85.632309s38.33919-85.632309 85.632309-85.632309c47.293119 0 85.632309 38.33919 85.632309 85.632309S556.452421 521.964956 509.158279 521.964956zM761.547543 521.964956c-47.293119 0-85.632309-38.33919-85.632309-85.632309s38.33919-85.632309 85.632309-85.632309 85.632309 38.33919 85.632309 85.632309S808.840662 521.964956 761.547543 521.964956z" p-id="2222"></path></svg>