<?xml version="1.0" standalone="no"?><!DOCTYPE svg PUBLIC "-//W3C//DTD SVG 1.1//EN" "http://www.w3.org/Graphics/SVG/1.1/DTD/svg11.dtd"><svg t="1490231268255" class="icon" style="" viewBox="0 0 1024 1024" version="1.1" xmlns="http://www.w3.org/2000/svg" p-id="5575" xmlns:xlink="http://www.w3.org/1999/xlink" width="1000" height="1000"><defs><style type="text/css"></style></defs><path d="M401.327 376.127h-65.245v137.872h54.373c23.157 0 41.814-6.367 55.961-19.111 14.143-12.741 21.218-30.537 21.218-53.383 0-20.56-5.837-36.598-17.51-48.11-11.673-11.51-27.932-17.266-48.798-17.266z" fill="#555555" p-id="5576"></path><path d="M826.645 199.84c-174.367-171.616-455.638-171.616-627.156 0-174.411 171.527-174.411 452.795 0 627.159 171.517 171.571 452.79 171.571 627.156 0 171.571-174.367 171.571-455.633 0-627.159zM473.597 517.162c-20.799 18.635-48.298 27.95-82.507 27.95h-55.008v167.139h-35.856v-367.758h101.628c32.027 0 57.19 7.956 75.492 23.858s27.455 39.502 27.455 70.785c0 33.39-10.403 59.405-31.203 78.025zM718.478 712.25l-89.78-192.592-38.48 52.492v140.098h-35.856v-367.758h35.856v174.551l117.437-174.551h42.458l-100.525 143.123 110.538 224.635h-41.648z" fill="#555555" p-id="5577"></path></svg>