<?xml version="1.0" standalone="no"?><!DOCTYPE svg PUBLIC "-//W3C//DTD SVG 1.1//EN" "http://www.w3.org/Graphics/SVG/1.1/DTD/svg11.dtd"><svg width="200.1953125" height="200" viewBox="0 0 200.1953125 200" version="1.1" xmlns="http://www.w3.org/2000/svg" xmlns:xlink="http://www.w3.org/1999/xlink"><defs><style type="text/css"><![CDATA[
@font-face { font-family: ifont; src: url(http://at.alicdn.com/t/font_1442373896_4754455.eot?#iefix) format(embedded-opentype), url(http://at.alicdn.com/t/font_1442373896_4754455.woff) format(woff), url(http://at.alicdn.com/t/font_1442373896_4754455.ttf) format(truetype), url(http://at.alicdn.com/t/font_1442373896_4754455.svg#ifont) format(svg); }

]]></style></defs><g class="transform-group"><g transform="scale(0.1953125, 0.1953125)"><path d="M929.503373 408.290105c-7.260706-21.052465-25.976851-36.381304-48.404705-39.687765l-218.94584-32.593866-95.111664-197.566925c-10.004321-20.734201-31.464082-33.961069-55.019674-33.961069-23.557639 0-45.017399 13.226867-55.01865 33.961069l-95.114734 197.566925-218.94584 32.593866c-22.507676 3.305438-41.145023 18.6353-48.404705 39.687765-7.260706 21.058605-1.774498 44.289793 14.117186 60.103703l160.378194 160.219574-37.189754 222.168386c-3.710686 22.349056 5.970255 44.777934 24.927911 57.924979 10.487345 7.179861 22.750211 10.813795 35.012054 10.813795 10.08312 0 20.248108-2.500057 29.36518-7.340527l190.873158-99.549956 190.871111 99.549956c9.117072 4.840471 19.28206 7.340527 29.36518 7.340527 12.262866 0 24.524709-3.632911 35.012054-10.813795 18.957657-13.147045 28.637574-35.575923 24.847066-57.924979l-37.189754-222.168386L915.386187 468.393808C931.278894 452.579899 936.683234 429.34871 929.503373 408.290105z" fill="#000000"></path></g></g></svg>