<?xml version="1.0" standalone="no"?><!DOCTYPE svg PUBLIC "-//W3C//DTD SVG 1.1//EN" "http://www.w3.org/Graphics/SVG/1.1/DTD/svg11.dtd"><svg width="16" height="16" viewBox="0 0 16 16" version="1.1" xmlns="http://www.w3.org/2000/svg" xmlns:xlink="http://www.w3.org/1999/xlink"><defs><style type="text/css"><![CDATA[
@font-face { font-family: ifont; src: url(http://at.alicdn.com/t/font_1442373896_4754455.eot?#iefix) format(embedded-opentype), url(http://at.alicdn.com/t/font_1442373896_4754455.woff) format(woff), url(http://at.alicdn.com/t/font_1442373896_4754455.ttf) format(truetype), url(http://at.alicdn.com/t/font_1442373896_4754455.svg#ifont) format(svg); }

]]></style></defs><g class="transform-group"><g transform="scale(0.015625, 0.015625)"><path d="M819.2 1024 204.8 1024C91.648 1024 0 932.2496 0 819.2L0 204.8C0 91.648 91.648 0 204.8 0L819.2 0C932.352 0 1024 91.648 1024 204.8L1024 819.2C1024 932.2496 932.352 1024 819.2 1024ZM921.6 204.8C921.6 148.2752 875.7248 102.4 819.2 102.4L204.8 102.4C148.2752 102.4 102.4 148.2752 102.4 204.8L102.4 819.2C102.4 875.7248 148.2752 921.6 204.8 921.6L819.2 921.6C875.7248 921.6 921.6 875.7248 921.6 819.2L921.6 204.8ZM408.6784 308.0192 716.8 512 408.6784 715.9808 408.6784 308.0192Z" fill="#272636"></path></g></g></svg>