<?xml version="1.0" standalone="no"?><!DOCTYPE svg PUBLIC "-//W3C//DTD SVG 1.1//EN" "http://www.w3.org/Graphics/SVG/1.1/DTD/svg11.dtd"><svg width="64" height="64" viewBox="0 0 64 64" version="1.1" xmlns="http://www.w3.org/2000/svg" xmlns:xlink="http://www.w3.org/1999/xlink"><defs><style type="text/css"><![CDATA[
@font-face { font-family: ifont; src: url(http://at.alicdn.com/t/font_1442373896_4754455.eot?#iefix) format(embedded-opentype), url(http://at.alicdn.com/t/font_1442373896_4754455.woff) format(woff), url(http://at.alicdn.com/t/font_1442373896_4754455.ttf) format(truetype), url(http://at.alicdn.com/t/font_1442373896_4754455.svg#ifont) format(svg); }

]]></style></defs><g class="transform-group"><g transform="scale(0.0625, 0.0625)"><path d="M895.936 959.936 128 959.936C92.672 959.936 64 931.328 64 896.064L64 256C64 220.608 92.672 192 128 192l64 0 0 126.016c0 35.392 28.672 64 64 64l64 0c35.264 0 63.936-28.608 63.936-64L383.936 192l256 0 0 126.016c0 35.392 28.736 64 64.064 64l64 0c35.392 0 64-28.608 64-64L832 192l63.936 0c35.392 0 64 28.672 64 64l0 640.064C959.936 931.328 931.328 959.936 895.936 959.936L895.936 959.936zM895.936 448 126.016 448l0 446.016 769.92 0L895.936 448 895.936 448zM286.016 745.28c9.024-10.816 19.648-20.608 31.872-29.76 12.224-9.024 25.152-18.24 38.72-27.584 6.912-4.864 14.336-9.728 22.208-14.72 7.936-4.992 15.04-10.432 21.568-16.512 6.464-6.08 11.968-12.8 16.192-20.416 4.416-7.552 6.656-16.128 6.656-25.792 0-15.36-4.48-27.392-13.376-36.032C400.96 565.888 389.504 561.536 375.68 561.536c-9.408 0-17.344 2.112-23.808 6.592C345.344 572.48 340.16 578.24 336.256 585.344 332.352 592.448 329.472 600.256 327.872 608.896c-1.664 8.576-2.432 17.216-2.432 25.6L263.808 634.496c-0.704-18.112 1.472-35.008 6.4-50.56 4.8-15.552 12.032-29.12 21.696-40.768s21.824-20.608 36.48-27.2c14.656-6.464 31.488-9.664 50.432-9.664 14.592 0 28.352 2.24 41.408 6.72C433.408 517.696 444.928 524.096 454.912 532.48c9.984 8.512 17.92 19.008 23.744 31.296 5.888 12.352 8.832 26.304 8.832 41.6 0 16.064-2.56 29.824-7.616 41.28-5.184 11.456-11.968 21.696-20.416 30.656-8.384 8.896-17.984 17.024-28.736 24.192-10.752 7.232-21.504 14.4-32.384 21.504-10.944 7.04-21.504 14.656-31.744 22.848-10.304 8.128-19.264 17.6-27.2 28.544l149.952 0 0 55.232L256.576 829.632c0-18.496 2.624-34.432 7.936-48C269.76 768.064 276.928 755.904 286.016 745.28L286.016 745.28zM701.248 512.704l0 190.656 42.112 0 0 52.928-42.112 0 0 73.408-61.12 0 0-73.408L506.048 756.288l0-58.816 137.728-184.768L701.248 512.704 701.248 512.704zM640.128 593.28 638.72 593.28l-81.984 110.08 83.392 0L640.128 593.28 640.128 593.28zM734.592 318.272c-17.984 0-32.576-14.656-32.576-32.64L702.016 96.576C702.016 78.592 716.544 64 734.592 64c18.048 0 32.64 14.592 32.64 32.576l0 189.056C767.168 303.616 752.64 318.272 734.592 318.272L734.592 318.272zM286.592 318.272c-17.984 0-32.64-14.656-32.64-32.64L253.952 96.576C253.952 78.592 268.608 64 286.592 64c17.984 0 32.64 14.592 32.64 32.576l0 189.056C319.232 303.616 304.576 318.272 286.592 318.272L286.592 318.272z" fill="#272636"></path></g></g></svg>