<?xml version="1.0" standalone="no"?><!DOCTYPE svg PUBLIC "-//W3C//DTD SVG 1.1//EN" "http://www.w3.org/Graphics/SVG/1.1/DTD/svg11.dtd"><svg width="64" height="64" viewBox="0 0 64 64" version="1.1" xmlns="http://www.w3.org/2000/svg" xmlns:xlink="http://www.w3.org/1999/xlink"><defs><style type="text/css"><![CDATA[
@font-face { font-family: ifont; src: url(http://at.alicdn.com/t/font_1442373896_4754455.eot?#iefix) format(embedded-opentype), url(http://at.alicdn.com/t/font_1442373896_4754455.woff) format(woff), url(http://at.alicdn.com/t/font_1442373896_4754455.ttf) format(truetype), url(http://at.alicdn.com/t/font_1442373896_4754455.svg#ifont) format(svg); }

]]></style></defs><g class="transform-group"><g transform="scale(0.0625, 0.0625)"><path d="M960 1024 64 1024C28.656 1024 0 995.344 0 960L0 192C0 156.656 28.656 128 64 128L192 128 192 64C192 28.656 220.656 0 256 0 291.344 0 320 28.656 320 64L320 128 704 128 704 64C704 28.656 732.656 0 768 0 803.344 0 832 28.656 832 64L832 128 960 128C995.344 128 1024 156.656 1024 192L1024 960C1024 995.344 995.344 1024 960 1024ZM960 192 896 192 832 192C832 227.344 803.344 256 768 256 732.656 256 704 227.344 704 192L640 192 384 192 320 192C320 227.344 291.344 256 256 256 220.656 256 192 227.344 192 192L128 192 64 192 64 960 960 960 960 192ZM292.432 436.128C300 428.368 305.728 418 309.616 405.024 311.872 397.248 312.992 391.472 312.992 387.68L386.224 387.68 386.224 821.44 296.384 821.44 296.384 522.288 191.456 522.288 191.456 464.272C219.072 463.072 238.4 461.264 249.456 458.88 267.056 455.088 281.376 447.504 292.432 436.128ZM678.064 384.688C734.88 384.688 774.736 404.128 797.6 443.024 820.48 481.904 831.904 537.152 831.904 608.736 831.904 680.352 820.48 735.488 797.6 774.176 774.736 812.864 734.88 832.208 678.064 832.208 621.248 832.208 581.392 812.864 558.528 774.176 535.648 735.488 524.208 680.352 524.208 608.736 524.208 537.152 535.648 481.904 558.528 443.024 581.392 404.128 621.248 384.688 678.064 384.688ZM626.368 723.168C634.784 749.6 652.016 762.8 678.064 762.8 704.112 762.8 721.184 749.6 729.296 723.168 737.392 696.736 741.456 658.608 741.456 608.736 741.456 556.496 737.392 517.808 729.296 492.672 721.184 467.552 704.112 454.992 678.064 454.992 652.016 454.992 634.784 467.552 626.368 492.672 617.952 517.808 613.76 556.496 613.76 608.736 613.76 658.608 617.952 696.736 626.368 723.168Z" fill="#272636"></path></g></g></svg>