<?xml version="1.0" standalone="no"?><!DOCTYPE svg PUBLIC "-//W3C//DTD SVG 1.1//EN" "http://www.w3.org/Graphics/SVG/1.1/DTD/svg11.dtd"><svg width="200" height="200" viewBox="0 0 200 200" version="1.1" xmlns="http://www.w3.org/2000/svg" xmlns:xlink="http://www.w3.org/1999/xlink"><defs><style type="text/css"><![CDATA[
@font-face { font-family: ifont; src: url(http://at.alicdn.com/t/font_1442373896_4754455.eot?#iefix) format(embedded-opentype), url(http://at.alicdn.com/t/font_1442373896_4754455.woff) format(woff), url(http://at.alicdn.com/t/font_1442373896_4754455.ttf) format(truetype), url(http://at.alicdn.com/t/font_1442373896_4754455.svg#ifont) format(svg); }

]]></style></defs><g class="transform-group"><g transform="scale(0.1953125, 0.1953125)"><path d="M939.710386 381.390409l-271.667118-66.623841c-6.674392-1.63472-13.353929-1.816546-19.772735-0.977744l0-217.126138c14.619851-11.818699 22.855202-30.687449 19.772735-50.561389-4.636566-29.709705-32.53144-50.060509-62.181108-45.449673l-516.960869 80.45292c-29.73715 4.643428-50.046787 32.471404-45.449673 62.160524 2.197352 13.998897 9.554449 25.798727 19.793319 33.992911l0 812.730242c0 18.755538 15.196205 34.01178 34.01178 34.01178l517.000322 0 306.382187 0c18.767545 0 34.01178-15.257957 34.01178-34.01178L954.651005 480.832153c12.014248-7.195855 21.368002-18.908203 24.966787-33.601813C986.781056 417.995784 968.905488 388.546811 939.710386 381.390409L939.710386 381.390409 939.710386 381.390409zM131.283934 184.716281l448.949317-69.86069L580.233251 386.442088l0 569.52063L408.611677 955.962718 408.611677 785.591627l-105.6873 0 0 170.369375-171.642158 0L131.282219 184.716281 131.283934 184.716281 131.283934 184.716281zM886.594854 955.962718l-87.837462 0 0-87.101581-62.656258 0 0 87.101581-87.830601 0L648.270533 428.977397l238.319175 53.618126L886.594854 955.962718 886.594854 955.962718 886.594854 955.962718 886.594854 955.962718zM302.926093 212.401883l105.6873 0 0 103.028521-105.6873 0L302.926093 212.401883 302.926093 212.401883 302.926093 212.401883zM302.926093 398.663892l105.6873 0 0 103.081697-105.6873 0L302.926093 398.663892 302.926093 398.663892 302.926093 398.663892zM302.926093 584.960208l105.6873 0 0 103.028521-105.6873 0L302.926093 584.960208 302.926093 584.960208 302.926093 584.960208zM736.101134 521.123795l62.656258 0 0 61.054129-62.656258 0L736.101134 521.123795 736.101134 521.123795 736.101134 521.123795zM736.101134 631.507699l62.656258 0 0 61.055845-62.656258 0L736.101134 631.507699 736.101134 631.507699 736.101134 631.507699zM736.101134 741.893317l62.656258 0 0 61.035261-62.656258 0L736.101134 741.893317 736.101134 741.893317 736.101134 741.893317zM736.101134 741.893317" fill="#272636"></path></g></g></svg>