<?xml version="1.0" standalone="no"?><!DOCTYPE svg PUBLIC "-//W3C//DTD SVG 1.1//EN" "http://www.w3.org/Graphics/SVG/1.1/DTD/svg11.dtd"><svg width="200" height="200" viewBox="0 0 200 200" version="1.1" xmlns="http://www.w3.org/2000/svg" xmlns:xlink="http://www.w3.org/1999/xlink"><defs><style type="text/css"><![CDATA[
@font-face { font-family: ifont; src: url(http://at.alicdn.com/t/font_1442373896_4754455.eot?#iefix) format(embedded-opentype), url(http://at.alicdn.com/t/font_1442373896_4754455.woff) format(woff), url(http://at.alicdn.com/t/font_1442373896_4754455.ttf) format(truetype), url(http://at.alicdn.com/t/font_1442373896_4754455.svg#ifont) format(svg); }

]]></style></defs><g class="transform-group"><g transform="scale(0.1953125, 0.1953125)"><path d="M928 192 128 192C110.336 192 96 206.304 96 224l0 32c0 17.696 14.336 32 32 32l800 0c17.696 0 32-14.304 32-32L960 224C960 206.304 945.696 192 928 192zM928 480 128 480c-17.664 0-32 14.304-32 32l0 32c0 17.696 14.336 32 32 32l800 0c17.696 0 32-14.304 32-32l0-32C960 494.304 945.696 480 928 480zM928 768 128 768c-17.664 0-32 14.304-32 32l0 32c0 17.696 14.336 32 32 32l800 0c17.696 0 32-14.304 32-32l0-32C960 782.304 945.696 768 928 768z" fill="#272636"></path></g></g></svg>