<?xml version="1.0" standalone="no"?><!DOCTYPE svg PUBLIC "-//W3C//DTD SVG 1.1//EN" "http://www.w3.org/Graphics/SVG/1.1/DTD/svg11.dtd"><svg width="1024" height="1024" viewBox="0 0 1024 1024" version="1.1" xmlns="http://www.w3.org/2000/svg" xmlns:xlink="http://www.w3.org/1999/xlink"><defs><style type="text/css"><![CDATA[
@font-face { font-family: ifont; src: url(http://at.alicdn.com/t/font_1442373896_4754455.eot?#iefix) format(embedded-opentype), url(http://at.alicdn.com/t/font_1442373896_4754455.woff) format(woff), url(http://at.alicdn.com/t/font_1442373896_4754455.ttf) format(truetype), url(http://at.alicdn.com/t/font_1442373896_4754455.svg#ifont) format(svg); }

]]></style></defs><g class="transform-group"><g transform="scale(1, 1)"><path d="M920.62305 337.347215c-23.517623-54.243415-55.327096-101.372805-95.40079-141.494595-40.073694-40.074717-87.132476-71.880097-141.009548-95.377254C630.21796 76.936253 572.379671 65.283866 510.81757 65.283866c-61.561078 0-119.520117 11.652388-173.759439 35.192523-54.359049 23.496134-101.539604 55.301514-141.612275 95.377254-40.074717 40.121789-71.880097 87.252203-95.27697 141.494595-23.641443 54.380538-35.289738 112.338554-35.289738 173.878143 0 61.58359 11.648294 119.397321 35.289738 173.398212 23.396873 53.895491 55.202253 100.92869 95.27697 141.007501 40.073694 40.074717 87.25425 71.880097 141.612275 95.274924 54.239322 23.543206 112.198362 35.386952 173.759439 35.386952 61.562101 0 119.401414-11.843746 173.396165-35.386952 53.876048-23.394826 100.935853-55.200206 141.009548-95.274924 40.072671-40.078811 71.882144-87.11201 95.40079-141.007501 23.517623-54.000891 35.264155-111.814622 35.264155-173.398212C955.887204 449.685769 944.141696 391.727753 920.62305 337.347215L920.62305 337.347215 920.62305 337.347215zM568.414359 560.195675l0 174.844144c0 4.062526-2.028193 8.1711-6.236028 11.265578-4.081968 3.140527-9.594519 4.687766-15.008832 4.687766l-73.791633 0c-5.414313 0-10.92584-1.547239-15.008832-4.687766-4.206812-3.093455-6.236028-7.203052-6.236028-11.265578L452.133006 558.985104l0.481977-112.194268c0-4.065596 2.031263-8.026814 6.236028-11.171434 4.086062-3.093455 9.474792-4.683672 14.889105-4.683672l73.42836-0.198521c5.51255-0.144286 10.926864 1.402953 15.129582 4.546549 4.206812 3.093455 6.238075 7.203052 6.238075 11.405771L568.414359 560.195675 568.414359 560.195675 568.414359 560.195675zM568.537156 344.788697c0 6.137791-2.030239 12.136412-6.238075 16.821107-4.081968 4.640694-9.617032 6.960529-15.009855 6.960529l-73.912383 0c-5.414313 0-10.803044-2.319835-15.008832-6.960529-4.206812-4.590552-6.236028-10.683317-6.236028-16.821107l0-39.73498c0-6.093788 2.029216-12.230556 6.236028-16.774035 4.204765-4.687766 9.593496-6.960529 15.008832-6.960529l73.912383 0c5.392824 0 10.927887 2.272763 15.009855 6.960529 4.206812 4.54348 6.238075 10.68127 6.238075 16.774035L568.537156 344.788697 568.537156 344.788697 568.537156 344.788697z" fill="#272636"></path></g></g></svg>