<?xml version="1.0" standalone="no"?><!DOCTYPE svg PUBLIC "-//W3C//DTD SVG 1.1//EN" "http://www.w3.org/Graphics/SVG/1.1/DTD/svg11.dtd"><svg t="1490751953753" class="icon" style="" viewBox="0 0 1057 1024" version="1.1" xmlns="http://www.w3.org/2000/svg" p-id="5767" xmlns:xlink="http://www.w3.org/1999/xlink" width="1135.44921875" height="1100"><defs><style type="text/css"></style></defs><path d="M864.316853 0 0 0 0 882.059428 124.198023 882.059428 124.198023 124.198023 864.316853 124.198023Z" p-id="5768"></path><path d="M727.445563 724.910909m-119.128716 0a4.7 4.7 0 1 0 238.257432 0 4.7 4.7 0 1 0-238.257432 0Z" p-id="5769"></path><path d="M174.891093 174.891093l0 849.108932 882.059428 0L1056.950521 174.891093 174.891093 174.891093zM1008.792104 765.465365l-88.712873 0c-5.069307 25.346535-15.207921 48.158417-30.415842 68.435645l63.366338 63.366338-55.762378 55.762378-63.366338-63.366338c-20.277228 12.673268-43.08911 22.811882-68.435645 27.881189l0 88.712873L684.356453 1006.257451l0-91.247527c-25.346535-5.069307-48.158417-15.207921-68.435645-27.881189l-63.366338 63.366338-55.762378-55.762378 63.366338-63.366338c-12.673268-20.277228-22.811882-43.08911-27.881189-68.435645l-91.247527 0L441.029714 684.356453l91.247527 0c5.069307-25.346535 15.207921-48.158417 27.881189-68.435645l-63.366338-63.366338 55.762378-55.762378 63.366338 63.366338c20.277228-12.673268 43.08911-22.811882 68.435645-27.881189l0-91.247527 78.574259 0L762.930712 532.277241c25.346535 5.069307 48.158417 15.207921 68.435645 27.881189l63.366338-63.366338 55.762378 55.762378-63.366338 63.366338c12.673268 20.277228 22.811882 45.623764 27.881189 70.970299l88.712873 0L1003.722797 765.465365z" p-id="5770"></path></svg>