<?xml version="1.0" standalone="no"?><!DOCTYPE svg PUBLIC "-//W3C//DTD SVG 1.1//EN" "http://www.w3.org/Graphics/SVG/1.1/DTD/svg11.dtd"><svg t="1493281900871" class="icon" style="" viewBox="0 0 1024 1024" version="1.1" xmlns="http://www.w3.org/2000/svg" p-id="39336" xmlns:xlink="http://www.w3.org/1999/xlink" width="1100" height="1100"><defs><style type="text/css"></style></defs><path d="M69.223361 252.721839l828.622376 0 0 433.972902 69.224384 61.035098L967.07012 129.945561c0-34.805714-28.216778-63.021336-63.023918-63.021336L63.023918 66.924225c-34.808163 0-63.024941 28.216645-63.024941 63.021336L-0.001023 894.055462c0 34.805714 28.216778 63.021336 63.024941 63.021336l653.604262 0-55.260799-74.964342L69.223361 882.112456 69.223361 252.721839z" p-id="39337"></path><path d="M1001.680777 916.751371 831.187909 771.657808c-17.627171-15.860223-36.517155-23.108301-51.725131-22.406313 40.258515-47.193859 64.557917-108.357893 64.557917-175.187975 0-149.08548-120.845134-269.964548-269.977656-269.964548-149.139686 0-269.974586 120.879068-269.974586 269.964548 0 149.084457 120.8349 269.963525 269.974586 269.963525 66.8758 0 128.000384-24.296359 175.187989-64.545038-0.746021 15.20019 6.595479 34.047444 22.455328 51.673893l145.007406 170.527838c24.874523 27.594475 65.384782 29.919427 90.167203 5.180999C1031.6045 982.133474 1029.276383 941.532777 1001.680777 916.751371zM574.043039 754.039545c-99.398827 0-179.983399-80.588433-179.983399-179.976024 0-99.395778 80.584572-179.976024 179.983399-179.976024 99.391664 0 179.984422 80.58127 179.984422 179.976024C754.027461 673.452135 673.434702 754.039545 574.043039 754.039545z" p-id="39338"></path></svg>