<?xml version="1.0" standalone="no"?><!DOCTYPE svg PUBLIC "-//W3C//DTD SVG 1.1//EN" "http://www.w3.org/Graphics/SVG/1.1/DTD/svg11.dtd"><svg t="1501570436668" class="icon" style="" viewBox="0 0 1024 1024" version="1.1" xmlns="http://www.w3.org/2000/svg" p-id="537" xmlns:xlink="http://www.w3.org/1999/xlink" width="1024" height="1024"><defs><style type="text/css"></style></defs><path d="M512.182149 109.455901c54.334489 0 107.018386 10.631128 156.589384 31.598672 47.904033 20.261463 90.934059 49.276287 127.897925 86.240153 36.963866 36.963866 65.979714 79.994915 86.240153 127.897925 20.967544 49.570999 31.598672 102.255918 31.598672 156.589385s-10.631128 107.018386-31.598672 156.589384c-20.261463 47.90301-49.276287 90.934059-86.240153 127.897925-36.963866 36.963866-79.994915 65.979714-127.897925 86.240154-49.570999 20.967544-102.255918 31.597649-156.589384 31.597648s-107.018386-10.631128-156.589385-31.597648c-47.904033-20.261463-90.934059-49.27731-127.897925-86.240154-36.963866-36.963866-65.979714-79.994915-86.240153-127.897925-20.967544-49.570999-31.598672-102.255918-31.598672-156.589384 0-54.334489 10.631128-107.018386 31.598672-156.589385 20.261463-47.904033 49.276287-90.934059 86.240153-127.897925s79.994915-65.979714 127.897925-86.240153c49.570999-20.968567 102.254895-31.598672 156.589385-31.598672m0-45.954635c-247.578702 0-448.281793 200.703091-448.281793 448.281793s200.703091 448.281793 448.281793 448.281793 448.281793-200.703091 448.281792-448.281793S759.76085 63.501266 512.182149 63.501266z" fill="" p-id="538"></path><path d="M469.38953 557.644573l34.825156 8.795317c-7.300266 28.603455-20.435425 50.414203-39.402405 65.430198-18.969027 15.020088-42.156122 22.529109-69.560262 22.529109-28.361955 0-51.429323-5.771447-69.200058-17.322527-17.771759-11.546987-31.296797-28.272927-40.568974-50.172703-9.275247-21.899776-13.911848-45.415352-13.911848-70.546729 0-27.402093 5.233188-51.308573 15.706727-71.713299 10.470469-20.401656 25.369807-35.901675 44.698014-46.492893 19.325138-10.590196 40.596604-15.886829 63.814398-15.886829 26.327622 0 48.466851 6.703679 66.418712 20.104897 17.950837 13.404288 30.455639 32.252565 37.517475 56.54483l-34.286897 8.077979c-6.104021-19.145036-14.959713-33.087583-26.567076-41.825594-11.609409-8.733918-26.208918-13.104459-43.799551-13.104459-20.225647 0-37.129642 4.846378-50.710962 14.540158-13.583366 9.69378-23.128767 22.708188-28.631085 39.043225-5.506411 16.335037-8.257058 33.181727-8.257057 50.53086 0 22.379707 3.25923 41.914622 9.78383 58.609862 6.520507 16.694217 16.663518 29.170366 30.425963 37.428448 13.761422 8.257058 28.66076 12.386098 44.698015 12.386098 19.505239 0 36.020378-5.624091 49.544393-16.873296 13.521968-11.246135 22.676465-27.940352 27.463492-50.082652z m77.369112 92.26845V386.752438h35.722596L720.703299 593.367169V386.752438h33.388435v263.159562h-35.722596L580.147076 443.11819v206.794833h-33.388434z" fill="" p-id="539"></path></svg>