<?xml version="1.0" standalone="no"?><!DOCTYPE svg PUBLIC "-//W3C//DTD SVG 1.1//EN" "http://www.w3.org/Graphics/SVG/1.1/DTD/svg11.dtd"><svg t="1508313009170" class="icon" style="" viewBox="0 0 1024 1024" version="1.1" xmlns="http://www.w3.org/2000/svg" p-id="1006" xmlns:xlink="http://www.w3.org/1999/xlink" width="1024" height="1024"><defs><style type="text/css"></style></defs><path d="M925.599899 567.140855c-19.894096 0-36.014238-16.127306-36.014238-36.014238 0-19.891026 16.120143-36.014238 36.014238-36.014238 19.891026 0 36.010145 16.123212 36.010145 36.014238C961.610044 551.013549 945.489902 567.140855 925.599899 567.140855zM897.688199 352.673272c-17.229406 9.943466-39.255049 4.036943-49.198515-13.184277-9.94756-17.225313-4.044106-39.251979 13.181207-49.195445s39.251979-4.044106 49.195445 13.181207C920.812873 320.700069 914.910443 342.726735 897.688199 352.673272zM932.182828 674.058956c-65.117067 168.441317-228.203422 288.115953-419.617963 288.115953-248.626567 0-450.175933-201.552435-450.175933-450.175933 0-191.414541 119.674637-354.503966 288.11186-419.617963l0 38.408775c-148.182924 63.078641-252.098645 209.987548-252.098645 381.201002 0 228.735541 185.42206 414.161694 414.157601 414.161694 171.214477 0 318.123384-103.911628 381.201002-252.094552L932.182828 674.057933zM717.077725 194.071044c-17.222243-9.939373-23.124673-31.966039-13.177114-49.191352 9.943466-17.225313 31.970132-23.127743 49.191352-13.181207 17.229406 9.943466 23.128767 31.966039 13.184277 49.195445C756.333798 198.119243 734.304062 204.018603 717.077725 194.071044zM530.568914 746.091526l-36.014238 0L494.554676 638.048811 350.498746 638.048811 350.498746 602.034573l144.05593 0 0-72.028477L350.498746 530.006096l0-36.017308 144.05593 0L386.264321 277.991362l36.262902-0.082888 89.491197 180.743504 90.578971-180.743504 36.136012 0.082888L530.568914 493.988788l144.05593 0 0 36.017308L530.568914 530.006096l0 72.028477 144.05593 0 0 36.014238L530.568914 638.048811 530.568914 746.091526zM494.557746 133.848451c-19.891026 0-36.014238-16.123212-36.014238-36.010145 0-19.891026 16.123212-36.014238 36.014238-36.014238 19.886933 0 36.014238 16.123212 36.014238 36.014238C530.571984 117.725238 514.444679 133.848451 494.557746 133.848451z" p-id="1007"></path></svg>