<?xml version="1.0" standalone="no"?><!DOCTYPE svg PUBLIC "-//W3C//DTD SVG 1.1//EN" "http://www.w3.org/Graphics/SVG/1.1/DTD/svg11.dtd"><svg width="16" height="16" viewBox="0 0 16 16" version="1.1" xmlns="http://www.w3.org/2000/svg" xmlns:xlink="http://www.w3.org/1999/xlink"><defs><style type="text/css"><![CDATA[
@font-face { font-family: ifont; src: url(http://at.alicdn.com/t/font_1442373896_4754455.eot?#iefix) format(embedded-opentype), url(http://at.alicdn.com/t/font_1442373896_4754455.woff) format(woff), url(http://at.alicdn.com/t/font_1442373896_4754455.ttf) format(truetype), url(http://at.alicdn.com/t/font_1442373896_4754455.svg#ifont) format(svg); }

]]></style></defs><g class="transform-group"><g transform="scale(0.015625, 0.015625)"><path d="M855.125 962l-686.25 0 0-371.25 58.125 0 0 315 571.875 0 0-315 58.125 0 0 371.25zM626.375 847.625l-58.125 0 0-200.625-114.375 0 0 200.625-58.125 0 0-256.875 228.75 0 0 256.875zM512 532.625c-63.75 0-114.375-50.625-114.375-114.375s50.625-114.375 114.375-114.375c63.75 0 114.375 50.625 114.375 114.375s-50.625 114.375-114.375 114.375zM512 362c-31.875 0-56.25 24.375-56.25 56.25s26.25 58.125 58.125 58.125c31.875 0 58.125-26.25 58.125-58.125s-28.125-56.25-60-56.25zM920.75 581.375l-408.75-435-408.75 435-41.25-39.375 450-480 450 480-41.25 39.375z" fill="#272636"></path></g></g></svg>