<?xml version="1.0" standalone="no"?><!DOCTYPE svg PUBLIC "-//W3C//DTD SVG 1.1//EN" "http://www.w3.org/Graphics/SVG/1.1/DTD/svg11.dtd"><svg t="1508910236737" class="icon" style="" viewBox="0 0 1024 1024" version="1.1" xmlns="http://www.w3.org/2000/svg" p-id="3330" xmlns:xlink="http://www.w3.org/1999/xlink" width="1024" height="1024"><defs><style type="text/css"></style></defs><path d="M514.56 26.692267c133.393067 0 254.1056 53.76 341.6064 141.533867l1.8432 2.3552c86.186667 86.9888 139.451733 206.8992 139.451733 339.217067 0 51.933867-8.465067 102.024533-23.739733 149.691733-14.7456 44.817067-35.84 86.7328-61.661867 124.672l0 171.8272c0 20.053333-16.861867 36.898133-37.444267 36.898133l-1.041067 0L514.56 992.887467c-133.358933 0-254.071467-54.289067-341.589333-141.533867l0 0c-87.5008-87.773867-141.277867-208.213333-141.277867-341.589333 0-133.358933 53.76-254.071467 141.277867-341.572267l0 0C260.488533 80.452267 381.201067 26.692267 514.56 26.692267L514.56 26.692267zM803.464533 220.637867 803.464533 220.637867c-73.7792-73.7792-176.059733-119.637333-288.887467-119.637333-112.776533 0-215.074133 45.858133-289.1264 119.637333l-0.238933 0 0 0C151.3472 294.741333 105.506133 396.731733 105.506133 509.781333c0 112.827733 45.858133 215.057067 119.927467 288.8704l-0.238933 0c74.2912 74.069333 176.5888 119.927467 289.3824 119.927467l323.1744 0 0-146.005333 0 0c0-7.389867 2.0992-15.5648 6.8608-21.896533 25.275733-34.2528 45.056-72.4992 58.504533-114.3808 12.885333-39.5264 20.0192-82.2272 20.0192-126.5152 0-112.5376-45.073067-213.76-118.084267-287.0272L803.464533 220.637867 803.464533 220.637867z" p-id="3331"></path><path d="M579.447467 590.6432c6.161067-11.537067 21.009067-26.811733 44.526933-45.841067 33.757867-27.118933 56.098133-50.056533 67.054933-68.846933 10.939733-18.7904 16.401067-38.2976 16.401067-58.504533 0-48.7424-21.179733-87.7568-63.556267-117.009067-31.197867-21.640533-72.174933-32.4608-122.914133-32.4608-65.1776 0-113.544533 15.5136-145.1008 46.557867-31.5392 31.044267-49.646933 72.004267-54.289067 122.897067l144.622933 23.825067c3.0208-27.818667 0.802133-54.033067 11.639467-65.194667 10.820267-11.178667 24.490667-16.776533 41.028267-16.776533 15.36 0 26.8288 3.6352 34.389333 10.888533 7.560533 7.253333 11.349333 17.425067 11.349333 30.498133 0 13.090133-9.4208 27.460267-28.279467 43.1616-35.396267 29.969067-58.146133 50.909867-68.266667 62.788267-10.120533 11.895467-17.749333 25.0368-22.869333 39.424-5.12 14.3872-7.68 33.1264-7.68 56.183467l4.5568 32.290133 120.661333 0C562.722133 635.9552 573.269333 602.180267 579.447467 590.6432zM442.0608 799.470933l120.661333 0 0-120.797867-120.661333 0L442.0608 799.470933z" p-id="3332"></path></svg>