<?xml version="1.0" standalone="no"?><!DOCTYPE svg PUBLIC "-//W3C//DTD SVG 1.1//EN" "http://www.w3.org/Graphics/SVG/1.1/DTD/svg11.dtd"><svg t="1508402713486" class="icon" style="" viewBox="0 0 1024 1024" version="1.1" xmlns="http://www.w3.org/2000/svg" p-id="11031" xmlns:xlink="http://www.w3.org/1999/xlink" width="1024" height="1024"><defs><style type="text/css"></style></defs><path d="M934.4 174.933333 89.6 174.933333 0 405.333333c0 68.266667 55.466667 123.733333 128 123.733333 68.266667 0 128-55.466667 128-123.733333 0 68.266667 55.466667 123.733333 128 123.733333s128-55.466667 128-123.733333c0 68.266667 55.466667 123.733333 128 123.733333 68.266667 0 128-55.466667 128-123.733333 0 68.266667 55.466667 123.733333 128 123.733333 68.266667 0 128-55.466667 128-123.733333L934.4 174.933333 934.4 174.933333z" p-id="11032"></path><path d="M981.333333 174.933333 981.333333 174.933333 981.333333 174.933333 981.333333 174.933333Z" p-id="11033"></path><path d="M145.066667 115.2l729.6 0c25.6 0 42.666667-17.066667 42.666667-42.666667 0-25.6-17.066667-42.666667-42.666667-42.666667L145.066667 29.866667c-25.6 0-42.666667 17.066667-42.666667 42.666667C102.4 98.133333 119.466667 115.2 145.066667 115.2L145.066667 115.2z" p-id="11034"></path><path d="M192 115.2" p-id="11035"></path><path d="M836.266667 994.133333 183.466667 994.133333c-46.933333 0-85.333333-38.4-85.333333-85.333333l0-268.8c0-21.333333 17.066667-38.4 38.4-38.4s38.4 17.066667 38.4 38.4l0 268.8c0 4.266667 4.266667 8.533333 8.533333 8.533333l652.8 0c4.266667 0 8.533333-4.266667 8.533333-8.533333l0-268.8c0-21.333333 17.066667-38.4 38.4-38.4 21.333333 0 38.4 17.066667 38.4 38.4l0 268.8C921.6 960 883.2 994.133333 836.266667 994.133333z" p-id="11036"></path></svg>