<?xml version="1.0" encoding="utf-8"?>
<!DOCTYPE svg PUBLIC "-//W3C//DTD SVG 1.1//EN" "http://www.w3.org/Graphics/SVG/1.1/DTD/svg11.dtd">
<svg style="width:308px;height:308px;" version="1.1" id="图形" xmlns="http://www.w3.org/2000/svg" xmlns:xlink="http://www.w3.org/1999/xlink" x="0px" y="0px" width="1025px" height="1024px" viewBox="0 0 1025 1024" enable-background="new 0 0 1025 1024" xml:space="preserve">
  <path class="svgpath" data-index="path_0" fill="#272636" d="M512.019286 1.0e-06c-282.228938 0-512.019296 229.648179-512.019296 512.019296S229.751756 1024.000001 512.019286 1024.000001c282.337603 0 512.01828-229.608572 512.01828-511.979689S794.389387 1.0e-06 512.019286 1.0e-06L512.019286 1.0e-06zM512.019286 959.903776c-247.038675 0-447.956585-200.950408-447.956585-447.923071 0-247.109764 200.91791-447.988067 447.956585-447.988067 247.037659 0 447.994161 200.878303 447.994161 447.988067C960.044928 758.953368 759.056945 959.903776 512.019286 959.903776L512.019286 959.903776zM734.229483 637.832282" />
<path class="svgpath" data-index="path_1" fill="#272636" d="M752.191741 601.23648c18.405043 0 34.643891 11.509372 34.643891 28.040702 0 14.039139-16.238848 26.384319-34.643891 26.384319L558.529011 655.661501l0 158.592303c0 14.043201-12.99514 30.521722-34.647953 30.521722-19.488648 0-35.731558-16.517112-35.731558-30.521722L488.1495 655.661501 302.342147 655.661501c-18.403012 0-33.597861-12.379709-33.597861-28.046795 0-14.868854 15.194849-26.378226 33.597861-26.378226l185.807353 0 0-82.577435L302.342147 518.659046c-18.403012 0-33.597861-10.717233-33.597861-28.041717 0-14.037108 15.194849-25.590149 33.597861-25.590149L462.128752 465.027179 333.327981 291.759995c-6.071034-13.614634-1.811764-34.47226 13.895944-42.065623 16.870528-8.154969 34.979026-0.765734 43.642792 10.749731l134.135522 180.654387 136.569826-167.547535c8.661734-12.379709 27.717753-29.273595 50.533385-15.608183 23.982513 14.364119 8.882111 42.889244 8.882111 42.889244L586.713922 464.99265l157.653923 0c18.410121 0 34.649984 11.548979 34.649984 27.248563 0 15.700599-16.238848 26.384319-34.649984 26.384319L558.561509 518.625532l0 82.572357 193.630232 0L752.191741 601.23648zM752.191741 601.23648" />

</svg>
