<?xml version="1.0" encoding="utf-8"?>
<!DOCTYPE svg PUBLIC "-//W3C//DTD SVG 1.1//EN" "http://www.w3.org/Graphics/SVG/1.1/DTD/svg11.dtd">
<svg style="width:308px;height:308px;" version="1.1" id="图形" xmlns="http://www.w3.org/2000/svg" xmlns:xlink="http://www.w3.org/1999/xlink" x="0px" y="0px" width="1024px" height="1024px" viewBox="0 0 1024 1024" enable-background="new 0 0 1024 1024" xml:space="preserve">
  <path class="svgpath" data-index="path_0" fill="#272636" d="M0 256 0 128 448 128 448 0 576 0 576 128 1024 128 1024 256 0 256Z" />
<path class="svgpath" data-index="path_1" fill="#272636" d="M128 320 256 320 256 896 768 896 768 320 896 320 896 1024 128 1024 128 320Z" />
<path class="svgpath" data-index="path_2" fill="#272636" d="M320 320 320 832 448 832 448 320 320 320Z" />
<path class="svgpath" data-index="path_3" fill="#272636" d="M576 320 576 832 704 832 704 320 576 320Z" />

</svg>
