<?xml version="1.0" encoding="utf-8"?>
<!DOCTYPE svg PUBLIC "-//W3C//DTD SVG 1.1//EN" "http://www.w3.org/Graphics/SVG/1.1/DTD/svg11.dtd">
<svg style="width:308px;height:308px;" version="1.1" id="图形" xmlns="http://www.w3.org/2000/svg" xmlns:xlink="http://www.w3.org/1999/xlink" x="0px" y="0px" width="1024px" height="1024px" viewBox="0 0 1024 1024" enable-background="new 0 0 1024 1024" xml:space="preserve">
  <path class="svgpath" data-index="path_0" fill="#272636" d="M830.454568 0 414.494399 0C388.237989 0 355.736121 13.446851 337.190939 31.992034L158.43067 210.752303C139.885487 229.297486 126.438636 261.735624 126.438636 287.992034l0 671.960169c0 35.369679 28.741847 64.047797 63.984068 64.047797l640.031865 0c35.242221 0 63.920339-28.678118 63.920339-64.047797L894.374907 63.984068C894.374907 28.678118 865.696789 0 830.454568 0zM350.446602 109.231765l0 114.776201-114.712472 0L350.446602 109.231765zM830.454568 959.952203 190.422704 959.952203 190.422704 287.992034l160.023898 0c35.30595 0 64.047797-28.678118 64.047797-63.984068L414.494399 63.984068l415.960169 0L830.454568 959.952203zM510.4705 256l192.015932 0c17.652975 0 31.992034-14.339059 31.992034-31.992034s-14.339059-31.992034-31.992034-31.992034L510.4705 192.015932c-17.652975 0-31.992034 14.339059-31.992034 31.992034S492.753796 256 510.4705 256zM702.422704 351.976102 318.454568 351.976102c-17.652975 0-32.055763 14.339059-32.055763 31.928305 0 17.716704 14.402788 31.992034 32.055763 31.992034l383.968135 0c17.652975 0 31.992034-14.339059 31.992034-31.992034C734.414737 366.315161 720.139408 351.976102 702.422704 351.976102zM702.422704 512 318.454568 512c-17.652975 0-32.055763 14.339059-32.055763 31.928305 0 17.780433 14.402788 32.119492 32.055763 32.119492l383.968135 0c17.652975 0 31.992034-14.339059 31.992034-32.119492C734.414737 526.27533 720.139408 512 702.422704 512zM702.422704 672.023898 318.454568 672.023898c-17.652975 0-32.055763 14.27533-32.055763 32.055763 0 17.652975 14.402788 31.928305 32.055763 31.928305l383.968135 0c17.652975 0 31.992034-14.27533 31.992034-31.928305C734.414737 686.299228 720.139408 672.023898 702.422704 672.023898zM702.422704 831.984068 318.454568 831.984068c-17.652975 0-32.055763 14.466517-32.055763 32.119492 0 17.589246 14.402788 31.928305 32.055763 31.928305l383.968135 0c17.652975 0 31.992034-14.339059 31.992034-31.928305C734.414737 846.386856 720.139408 831.984068 702.422704 831.984068z" />

</svg>
