<?xml version="1.0" encoding="utf-8"?>
<!DOCTYPE svg PUBLIC "-//W3C//DTD SVG 1.1//EN" "http://www.w3.org/Graphics/SVG/1.1/DTD/svg11.dtd">
<svg style="width:308px;height:308px;" version="1.1" id="图形" xmlns="http://www.w3.org/2000/svg" xmlns:xlink="http://www.w3.org/1999/xlink" x="0px" y="0px" width="1024px" height="1024px" viewBox="0 0 1024 1024" enable-background="new 0 0 1024 1024" xml:space="preserve">
  <path class="svgpath" data-index="path_0" fill="#272636" d="M0 0l1024 0 0 93.125L0 93.125 0 0 0 0zM930.875 93.125l93.125 0 0 930.875-93.125 0L930.875 93.125 930.875 93.125zM0 930.875l1024 0 0 93.125L0 1024 0 930.875 0 930.875zM0 93.125l93.125 0 0 930.875L0 1024 0 93.125 0 93.125zM279.25 465.5l465.5 0 0 93.125L279.25 558.625 279.25 465.5 279.25 465.5zM279.25 465.5" />

</svg>
