<?xml version="1.0" standalone="no"?><!DOCTYPE svg PUBLIC "-//W3C//DTD SVG 1.1//EN" "http://www.w3.org/Graphics/SVG/1.1/DTD/svg11.dtd"><svg width="16" height="16" viewBox="0 0 16 16" version="1.1" xmlns="http://www.w3.org/2000/svg" xmlns:xlink="http://www.w3.org/1999/xlink"><defs><style type="text/css"><![CDATA[
@font-face { font-family: ifont; src: url(http://at.alicdn.com/t/font_1442373896_4754455.eot?#iefix) format(embedded-opentype), url(http://at.alicdn.com/t/font_1442373896_4754455.woff) format(woff), url(http://at.alicdn.com/t/font_1442373896_4754455.ttf) format(truetype), url(http://at.alicdn.com/t/font_1442373896_4754455.svg#ifont) format(svg); }

]]></style></defs><g class="transform-group"><g transform="scale(0.015625, 0.015625)"><path d="M896 0 128 0C57.6 0 0 57.6 0 128l0 768c0 70.4 57.6 128 128 128l768 0c70.4 0 128-57.6 128-128L1024 128C1024 57.6 966.4 0 896 0zM128 960c-35.2 0-64-28.8-64-64l0-30.4 254.4-227.2L640 960 128 960zM960 896c0 35.2-28.8 64-64 64L731.2 960 494.4 721.6 768 448l192 192L960 896zM960 548.8 768 352 449.6 675.2 320 544 64 779.2 64 128c0-35.2 28.8-64 64-64l768 0c35.2 0 64 28.8 64 64L960 548.8zM256 128c-70.4 0-128 57.6-128 128s57.6 128 128 128c70.4 0 128-57.6 128-128S326.4 128 256 128zM256 320c-35.2 0-64-28.8-64-64 0-35.2 28.8-64 64-64 35.2 0 64 28.8 64 64C320 291.2 291.2 320 256 320z" fill="#272636"></path></g></g></svg>