<?xml version="1.0" standalone="no"?><!DOCTYPE svg PUBLIC "-//W3C//DTD SVG 1.1//EN" "http://www.w3.org/Graphics/SVG/1.1/DTD/svg11.dtd"><svg width="200" height="200" viewBox="0 0 200 200" version="1.1" xmlns="http://www.w3.org/2000/svg" xmlns:xlink="http://www.w3.org/1999/xlink"><defs><style type="text/css"><![CDATA[
@font-face { font-family: ifont; src: url(http://at.alicdn.com/t/font_1442373896_4754455.eot?#iefix) format(embedded-opentype), url(http://at.alicdn.com/t/font_1442373896_4754455.woff) format(woff), url(http://at.alicdn.com/t/font_1442373896_4754455.ttf) format(truetype), url(http://at.alicdn.com/t/font_1442373896_4754455.svg#ifont) format(svg); }

]]></style></defs><g class="transform-group"><g transform="scale(0.1953125, 0.1953125)"><path d="M911.569 417.641h-254.49c98.603-364.217-67.954-382.825-67.954-382.825-70.615 0-55.958 55.829-61.29 65.132 0 178.118-189.197 317.693-189.197 317.693v505.118c0 49.843 67.947 67.792 94.597 67.792h382.402c35.977 0 65.286-94.382 65.286-94.382 94.607-321.674 94.607-417.378 94.607-417.378 0-66.462-63.962-61.149-63.962-61.149v0zM911.569 417.641zM234.205 417.806h-152.393c-31.481 0-31.978 30.909-31.978 30.909l31.481 509.431c0 32.403 32.475 32.403 32.475 32.403h131.907c27.481 0 27.232-21.435 27.232-21.435v-512.678c0-39.127-38.723-38.63-38.723-38.63v0zM234.205 417.806z" fill="#000000"></path></g></g></svg>