<?xml version="1.0" standalone="no"?><!DOCTYPE svg PUBLIC "-//W3C//DTD SVG 1.1//EN" "http://www.w3.org/Graphics/SVG/1.1/DTD/svg11.dtd"><svg width="200" height="200" viewBox="0 0 200 200" version="1.1" xmlns="http://www.w3.org/2000/svg" xmlns:xlink="http://www.w3.org/1999/xlink"><defs><style type="text/css"><![CDATA[
@font-face { font-family: ifont; src: url("http://at.alicdn.com/t/font_1442373896_4754455.eot?#iefix") format("embedded-opentype"), url("http://at.alicdn.com/t/font_1442373896_4754455.woff") format("woff"), url("http://at.alicdn.com/t/font_1442373896_4754455.ttf") format("truetype"), url("http://at.alicdn.com/t/font_1442373896_4754455.svg#ifont") format("svg"); }

]]></style></defs><g class="transform-group"><g transform="scale(0.1953125, 0.1953125)"><path d="M788.558733 391.541511 788.558733 225.597061c0-105.102756-174.664042-161.815409-339.000877-161.815409s-338.994738 56.71163-338.994738 161.815409l0 476.954833c0 105.09764 174.658925 161.805176 338.994738 161.805176l0-1.5104c20.487613 51.451836 98.343819 96.577592 229.206262 96.577592 152.913669 0 233.422284-61.618383 234.615459-122.948193l0.058328 0 0-333.36246C913.437905 458.233446 870.889857 412.95931 788.558733 391.541511zM171.025165 702.552917 171.025165 559.096644c64.131623 43.025932 170.178891 65.965387 273.056979 66.75231l0 178.019463C274.753621 802.63431 171.025165 744.41842 171.025165 702.552917zM444.083168 503.118726l0 62.274322c-169.329547-1.234107-273.056979-59.45102-273.056979-101.32164L171.026188 320.618205c65.259306 43.783179 173.948751 66.783009 278.532691 66.783009 104.579847 0 213.274408-22.99983 278.536784-66.789149l0 60.479443c-15.505136-1.502213-31.945573-2.305509-49.331545-2.305509C524.697183 378.785999 444.083168 441.336614 444.083168 503.118726zM851.379501 836.519048c0 17.599843-58.727543 58.842153-172.616406 58.842153-113.895003 0-172.622546-41.24231-172.622546-58.842153l0-79.249949c39.377846 22.567995 97.170087 37.5932 172.622546 37.5932s133.237537-15.026228 172.616406-37.5932L851.379501 836.519048zM851.379501 670.545946c0 17.58961-58.727543 58.830897-172.616406 58.830897-113.895003 0-172.622546-41.241286-172.622546-58.842153l0-79.250972c39.377846 22.569018 97.170087 37.59934 172.622546 37.59934s133.237537-15.021112 172.616406-37.588083L851.379501 670.545946z" fill="#272636"></path></g></g></svg>