<?xml version="1.0" encoding="utf-8"?>
<!-- Generator: Adobe Illustrator 16.0.0, SVG Export Plug-In . SVG Version: 6.00 Build 0)  -->
<!DOCTYPE svg PUBLIC "-//W3C//DTD SVG 1.1//EN" "http://www.w3.org/Graphics/SVG/1.1/DTD/svg11.dtd">
<svg version="1.1" id="图层_1" xmlns="http://www.w3.org/2000/svg" xmlns:xlink="http://www.w3.org/1999/xlink" x="0px" y="0px"
	 width="1000px" height="1000px" viewBox="0 0 1000 1000" enable-background="new 0 0 1000 1000" xml:space="preserve">
<g>
	<path fill="#46A3CC" d="M499.5,0.639C223.449,0.639-0.36,224.448-0.36,500.5c0,276.073,223.81,499.86,499.861,499.86
		c276.074,0,499.861-223.787,499.861-499.86C999.361,224.448,775.574,0.639,499.5,0.639z M499.5,978.145
		c-263.793,0-477.645-213.851-477.645-477.645S235.707,22.855,499.5,22.855c263.794,0,477.645,213.851,477.645,477.645
		S763.295,978.145,499.5,978.145z"/>
	<path fill="#46A3CC" d="M738.931,557.559c8.418,23.778,13.993,43.348,16.813,58.729c2.777,15.382,3.493,24.494,2.083,27.271
		l-2.083,5.251c-2.82,1.41-6.66,2.799-11.563,4.187c-4.903,1.389-10.848,1.389-17.833,0c-3.472-0.693-8.223-2.798-14.167-6.291
		c-5.923-3.493-11-6.965-15.209-10.479l-7.333-5.251c-2.777,8.396-6.292,16.401-10.5,24.104l-16.771,27.271
		c13.3,4.187,23.757,10.5,31.459,18.896c4.187,4.188,7.138,8.396,8.917,12.604c1.735,4.166,2.603,7.29,2.603,9.416v4.188
		c0,13.993-9.438,25.188-28.29,33.563c-11.911,5.598-24.993,9.763-39.355,12.583c-14.319,2.777-25.34,4.166-33.021,4.166h-12.54
		c-2.776,1.41-18.875-0.651-48.229-6.248c-4.882-0.716-9.611-1.953-14.167-3.667c-4.513-1.757-9.242-3.493-14.146-5.229
		c-4.882-1.779-8.407-2.994-10.501-3.71l-14.688-2.083c-4.176-0.693-9.079,0-14.677,2.083c-0.716,0-5.76,1.931-15.219,5.793
		c-9.427,3.861-17.313,6.097-23.594,6.834l-48.229,6.27c-29.354,0.694-57.656-4.903-84.938-16.748
		c-5.597-2.148-10.327-4.73-14.156-7.897c-3.84-3.124-6.639-6.27-8.375-9.438c-1.746-3.146-2.994-5.923-3.667-8.396
		c-0.705-2.451-1.063-4.36-1.063-5.771l-1.042-2.104c-1.421-7.681,2.441-16.424,11.531-26.208c2.104-2.104,4.556-4.188,7.355-6.292
		c2.777-2.104,5.576-3.84,8.374-5.229c2.777-1.389,5.392-2.776,7.865-4.188c2.441-1.41,4.35-2.104,5.771-2.104l2.094-1.042
		c-6.292-9.112-11.911-18.159-16.771-27.293l-10.49-24.104c-16.771,13.256-29.018,20.611-36.698,22.021
		c-7.713,0.694-13.82,0.694-18.354,0c-4.578-0.716-7.506-1.758-8.906-3.168l-2.094-1.063c-7.702-6.271-2.104-36.688,16.771-91.229
		c2.777-6.964,5.402-13.603,7.865-19.895c2.452-6.27,4.871-11.693,7.354-16.25c2.452-4.556,4.893-8.722,7.355-12.562
		c2.452-3.84,4.534-6.953,6.292-9.438c1.736-2.452,3.287-4.361,4.708-5.782c1.399-1.399,2.44-2.441,3.135-3.157l1.042-1.084
		c0-2.755-0.173-6.639-0.51-11.553c-0.38-4.838-0.174-14.482,0.51-28.812c0.662-14.33,2.441-28.486,5.239-42.479
		c2.799-13.994,8.559-30.211,17.313-48.739c8.754-18.506,19.743-35.483,33.031-50.854c16.771-19.569,38.097-34.235,63.958-44.009
		c25.861-9.795,47.545-15.067,65.01-15.751h26.208c1.399,0.684,5.088,0.684,11.043,0c5.934-0.694,15.187,0,27.748,2.083
		c12.563,2.115,25.188,4.914,37.772,8.396c12.583,3.515,26.208,9.448,40.896,17.823c14.666,8.396,27.271,18.886,37.729,31.48
		c13.277,15.371,24.299,32.142,33.02,50.322c8.766,18.191,14.515,34.789,17.291,49.802c2.799,15.067,4.708,28.866,5.793,41.438
		c1.042,12.551,1.236,22.39,0.499,29.321l-1.02,11.531C714.479,500.587,727.085,523.323,738.931,557.559L738.931,557.559z
		 M373.006,701.746c32.12,30.396,71.291,45.604,117.448,45.604c46.146,0,85.285-15.208,117.458-45.604
		c32.152-30.417,48.229-67.256,48.229-110.625c0-18.158-3.146-35.971-9.437-53.457c-44.063,35.646-96.133,53.457-156.25,53.457
		c-60.139,0-112.208-17.812-156.239-53.457c-6.292,17.486-9.416,35.299-9.416,53.457
		C324.767,634.447,340.832,671.329,373.006,701.746L373.006,701.746z M418.078,449.581c-32.142,11.889-47.545,20.947-46.146,27.26
		c0,4.176,3.829,8.732,11.553,13.614c2.094,1.421,4.339,2.82,6.801,4.176c2.462,1.421,4.871,2.473,7.333,3.178
		c2.441,0.694,4.708,1.204,6.823,1.562c2.104,0.347,3.818,0.51,5.24,0.51h2.104c-2.104-2.094-4.198-5.25-6.281-9.449l-4.198-10.479
		c13.256,12.572,30.037,22.368,50.322,29.365c6.281,2.766,12.746,4.675,19.407,5.717c6.649,1.106,11.357,1.605,14.178,1.605
		l5.218-1.042c11.911,1.41,24.841-0.694,38.792-6.28c9.111-2.82,17.877-6.639,26.251-11.553c8.375-4.881,14.319-9.09,17.834-12.572
		l6.291-5.218c-1.41,4.176-2.82,7.702-4.209,10.457l-6.27,9.449c11.889-1.378,21.305-4.535,28.313-9.449
		c3.471-2.083,6.292-4.176,8.374-6.259c2.126-2.115,3.168-3.851,3.168-5.25v-2.104c0-0.694-0.369-1.735-1.042-3.178
		c-0.693-1.377-4.729-4.328-12.084-8.884c-7.312-4.556-18.332-9.6-32.998-15.198c-9.112-2.82-19.765-5.239-31.979-7.354
		c-12.236-2.083-21.836-3.178-28.833-3.178l-11.531-1.02C463.183,438.711,439.046,442.606,418.078,449.581L418.078,449.581z
		 M438.005,317.435c-10.49,0-19.233,5.099-26.219,15.198c-6.997,10.153-10.479,22.574-10.479,37.24c0,6.997,0.89,13.82,2.625,20.459
		c1.725,6.682,4.35,12.236,7.854,16.771c3.493,4.556,7.517,8.244,12.041,11.021c4.556,2.799,9.264,4.176,14.178,4.176
		c10.49,0,19.222-5.065,26.219-15.197c6.953-10.088,10.479-22.52,10.479-37.229c0-6.953-0.89-13.776-2.614-20.437
		c-1.758-6.649-4.383-12.204-7.865-16.803c-3.515-4.523-7.507-8.168-12.063-10.989C447.605,318.867,442.876,317.435,438.005,317.435
		L438.005,317.435z M450.578,390.819c-10.479,0-15.729-6.954-15.729-20.969c0-13.972,5.25-20.958,15.729-20.958
		c10.49,0,15.729,6.986,15.729,20.958C466.307,383.844,461.067,390.819,450.578,390.819z M569.078,332.61
		c-6.965-10.11-15.729-15.197-26.208-15.197c-10.522,0-19.223,5.087-26.23,15.197c-6.985,10.153-10.479,22.574-10.479,37.24
		c0,14.709,3.472,27.141,10.522,37.229c6.942,10.132,15.707,15.198,26.208,15.198c10.479,0,19.179-5.066,26.208-15.198
		c6.985-10.088,10.5-22.52,10.5-37.229C579.557,355.185,576.042,342.764,569.078,332.61z M518.202,383.486
		c-3.124-0.662-4.339-2.419-3.667-5.24c1.41-6.953,4.058-13.245,7.876-18.864c3.818-5.619,8.569-8.06,14.146-7.354
		c10.5,1.421,15.057,11.889,13.646,31.458c-0.717,2.798-2.474,4.198-5.251,4.198c-3.449-0.683-4.881-2.441-4.187-5.239
		c0.694-13.267-1.042-20.285-5.207-20.969c-5.619-0.694-9.459,5.598-11.586,18.897C523.279,383.128,521.369,384.202,518.202,383.486
		z"/>
</g>
</svg>
