<?xml version="1.0" standalone="no"?><!DOCTYPE svg PUBLIC "-//W3C//DTD SVG 1.1//EN" "http://www.w3.org/Graphics/SVG/1.1/DTD/svg11.dtd"><svg t="1506569142845" class="icon" style="" viewBox="0 0 1024 1024" version="1.1" xmlns="http://www.w3.org/2000/svg" p-id="7669" xmlns:xlink="http://www.w3.org/1999/xlink" width="800" height="800"><defs><style type="text/css"></style></defs><path d="M670.242133 487.424H534.442667V354.986667a27.0592 27.0592 0 0 0-27.118934-27.118934 27.127467 27.127467 0 0 0-27.1104 27.1104v82.670934l-23.620266-23.611734a27.093333 27.093333 0 0 0-38.3488 0 27.101867 27.101867 0 0 0 0 38.331734l57.531733 57.5488-50.218667 50.218666-57.514666-57.514666a27.101867 27.101867 0 1 0-38.3488 38.3488l57.514666 57.506133-60.9024 60.9024a27.1104 27.1104 0 0 0 38.340267 38.340267l60.9024-60.9024 57.514667 57.514666a27.093333 27.093333 0 0 0 38.3488 0 27.101867 27.101867 0 0 0 0-38.340266l-57.514667-57.514667 50.210133-50.210133 57.506134 57.514666a27.170133 27.170133 0 0 0 38.4 0 27.204267 27.204267 0 0 0 0-38.331733l-25.796267-25.796267h86.016a27.144533 27.144533 0 0 0 27.1616-27.1104 27.067733 27.067733 0 0 0-27.1616-27.1104z" p-id="7670"></path><path d="M466.321067 872.576c-26.496 24.8064-69.2224 24.490667-95.232-0.733867L139.554133 647.3216c-25.6-24.823467-26.0864-65.698133-1.109333-91.229867 0 0 414.788267-427.093333 417.800533-427.093333h281.8304c35.6352 0 64.452267 28.8768 64.452267 64.750933v279.808a21.538133 21.538133 0 1 0 43.067733 0v-279.808c0-59.639467-48.0768-107.8272-107.52-107.8272H547.2c-5.794133 0-11.3408 2.338133-15.394133 6.4768l-424.1408 433.578667c-41.659733 42.5728-40.832 110.8224 1.902933 152.260267l231.543467 224.520533c42.5216 41.233067 111.394133 41.7536 154.615466 1.288533l352.298667-328.448a21.538133 21.538133 0 1 0-29.3632-31.488l-352.341333 328.465067z m253.1584-463.633067c53.521067 0 96.913067-43.383467 96.913066-96.904533s-43.392-96.904533-96.913066-96.904533c-53.521067 0-96.904533 43.383467-96.904534 96.904533s43.383467 96.904533 96.904534 96.904533z m0-43.067733a53.845333 53.845333 0 1 1 0-107.6736 53.845333 53.845333 0 0 1 0 107.6736z" p-id="7671"></path></svg>