<?xml version="1.0" standalone="no"?>
<!DOCTYPE svg PUBLIC "-//W3C//DTD SVG 1.1//EN" "http://www.w3.org/Graphics/SVG/1.1/DTD/svg11.dtd" >
<svg xmlns="http://www.w3.org/2000/svg">
<metadata>Generated by IcoMoon</metadata>
<defs>
<font id="map-font" horiz-adv-x="1024">
<font-face units-per-em="1024" ascent="960" descent="-64" />
<missing-glyph horiz-adv-x="1024" />
<glyph unicode="&#x20;" horiz-adv-x="512" d="" />
<glyph unicode="&#x61;" glyph-name="mall" d="M986.155 855.691c0 45.028-36.638 81.538-81.837 81.538h-784.953c-45.194 0-81.839-36.51-81.839-81.538l-37.18-815.382c0-45.028 36.644-81.538 81.839-81.538h859.311c45.199 0 81.837 36.51 81.837 81.538l-37.178 815.382zM511.675 366.702c-170.111 0-308.011 137.4-308.011 306.885 0 7.285 0.596 14.411 1.081 21.576h0.078c1.031 21.821 19.089 39.216 41.247 39.216 22.145 0 40.251-17.397 41.288-39.216h0.741c-0.716-7.565-2.275-14.928-2.275-22.695 0-123.817 100.737-224.225 225.058-224.225 124.314 0 225.051 100.407 225.051 224.225 0 4.674-0.549 9.2-1.153 13.707-0.31 1.619-0.524 3.266-0.649 4.944-0.175 1.343-0.335 2.693-0.472 4.044h0.369c0.494 22.879 19.239 41.304 42.315 41.304 23.4 0 42.395-18.925 42.395-42.233h-0.006c0-0.195-0.012-0.391-0.012-0.588 0.46-6.655 0.973-13.293 0.973-20.060 0.002-169.485-137.898-306.885-308.017-306.885v0 0z" />
<glyph unicode="&#x64;" glyph-name="primary-school" d="M516.061 437.256c-50.427 0-91.385 40-91.385 89.369 0 49.374 40.958 89.375 91.385 89.375 50.538 0 91.385-40 91.385-89.375 0-49.369-40.847-89.369-91.385-89.369v0zM737.044 372.112v263.314l-203.757 149.715v77.028h181.28v97.83h-206.491v-174.858l-206.38-157.714v-255.315h-254.067v-433.369h374.652v166.397c0 49.374 40.958 89.375 91.385 89.375 51.566 0 93.318-40.919 93.318-91.317v-164.571h367.473v433.374l-237.414 0.111z" />
<glyph unicode="&#x65;" glyph-name="supermarket" d="M306.951 140.8c-56.47 0-101.789-45.824-101.789-102.4 0-56.525 45.319-102.4 101.789-102.4 56.499 0 102.3 45.846 102.3 102.4s-45.801 102.4-102.3 102.4zM818.452 140.8c-56.47 0-101.789-45.824-101.789-102.4 0-56.525 45.319-102.4 101.789-102.4 56.499 0 102.3 45.846 102.3 102.4s-45.801 102.4-102.3 102.4zM102.351 960h-102.351v-102.349h102.351l184.038-388.506-69.206-125.491c-17.395-31.737-16.757-70.309 1.677-101.452s51.927-50.23 88.091-50.202h613.801v102.4h-592.164c-3.387 0-6.634 1.35-9.024 3.752s-3.726 5.658-3.712 9.048l1.535 6.195 45.933 83.405h381.017c38.465 0 72.019 21.248 89.513 52.685l182.81 332.237c8.738 15.856 8.458 35.152-0.734 50.747s-25.932 25.171-44.022 25.182h-756.356l-20.767 43.725c-16.873 35.804-52.879 58.641-92.428 58.624z" />
<glyph unicode="&#x66;" glyph-name="pharmacy" d="M955.838 463.528c8.862 10.949 16.841 22.387 23.958 34.208 1.066 1.77 2.111 3.549 3.139 5.337 40.674 70.807 50.661 154.779 29.921 232.042-1.273 4.744-2.663 9.463-4.168 14.152-2.257 7.033-4.775 13.999-7.554 20.882s-5.817 13.683-9.117 20.385c-2.829 5.746-5.871 11.41-9.082 17.001-1.026 1.787-2.073 3.567-3.139 5.337-9.682 16.082-20.969 31.448-33.88 45.851-0.374 0.417-0.745 0.836-1.122 1.251-3.343 3.688-6.787 7.318-10.345 10.874v0c-7.046 7.046-14.365 13.658-21.911 19.865-0.618 0.509-1.236 1.021-1.858 1.523-55.607 45.012-123.689 67.525-191.776 67.525-36.625 0-73.252-6.513-107.934-19.537-2.312-0.869-4.615-1.765-6.91-2.691-4.588-1.853-9.141-3.82-13.651-5.905s-8.979-4.283-13.403-6.599c-11.058-5.789-21.827-12.3-32.237-19.537-2.596-1.805-5.162-3.671-7.713-5.566-3.162-2.35-6.289-4.766-9.378-7.254-8.401-6.767-16.526-14.033-24.319-21.826v0l-413.716-413.715c-118.55-118.55-118.55-312.54 0-431.089v0c59.275-59.275 137.41-88.912 215.544-88.912s156.269 29.637 215.544 88.912l413.717 413.715c3.957 3.957 7.773 8.005 11.466 12.125 2.882 3.215 5.679 6.478 8.399 9.785 0.51 0.62 1.021 1.238 1.523 1.86v0zM438.071 108.704c-35.256-35.256-82.448-54.673-132.883-54.673s-97.627 19.416-132.883 54.673c-35.256 35.256-54.673 82.448-54.673 132.883s19.416 97.627 54.673 132.883l203.369 203.369 265.765-265.767-203.368-203.369z" />
<glyph unicode="&#x67;" glyph-name="hospital" d="M752.88 790.465l-169.282 169.459c-13.927-25.427-40.554-42.89-71.602-42.89-31.029 0-57.675 17.462-71.602 42.89l-169.264-169.459c-18.973-18.995-18.973-50.079 0-69.074l158.927-159.129v174.113c0 10.784 8.712 19.525 19.521 19.525h124.855c10.771 0 19.483-8.741 19.483-19.525v-174.132l158.964 159.129c18.973 18.995 18.973 50.079 0 69.093zM853.584 207.301l169.282 169.478c-25.417 13.943-42.859 40.601-42.859 71.685 0 31.046 17.442 57.76 42.859 71.704l-169.282 169.459c-18.973 18.976-50.021 18.976-68.975 0l-158.908-159.129h173.874c10.771 0 19.521-8.741 19.521-19.525v-124.999c0-10.803-8.749-19.525-19.521-19.525h-173.874l158.908-159.129c18.954-19.014 50.021-19.014 68.975-0.019zM271.13 106.481l169.264-169.478c13.927 25.427 40.573 42.89 71.602 42.89 31.048 0 57.675-17.462 71.602-42.89l169.282 169.478c18.973 18.995 18.973 50.060 0 69.055l-158.964 159.091v-174.094c0-10.765-8.712-19.544-19.483-19.544h-124.855c-10.79 0-19.521 8.778-19.521 19.544v174.094l-158.927-159.091c-18.973-18.995-18.973-50.060 0-69.055zM170.407 689.607l-169.282-169.459c25.417-13.962 42.84-40.657 42.84-71.704 0-31.065-17.423-57.722-42.84-71.685l169.282-169.478c18.973-18.995 50.040-18.995 68.994 0l158.927 159.129h-173.912c-10.771 0-19.502 8.722-19.502 19.525v124.98c0 10.803 8.731 19.544 19.502 19.544h173.912l-158.927 159.129c-18.954 19.014-50.021 19.014-68.994 0.019z" />
<glyph unicode="&#x68;" glyph-name="bank" d="M515.412 958.646c-277.876 0-503.136-228.125-503.136-509.528 0-281.406 225.264-509.528 503.136-509.528 277.876 0 503.136 228.125 503.136 509.528 0.003 281.403-225.261 509.528-503.136 509.528v0zM743.877 460.86c0-11.845-9.483-21.449-21.18-21.449h-112.327c-7.693 0-14.781-4.224-18.515-11.035l-7.948-14.492c-1.748-3.187-2.665-6.77-2.665-10.417v0c0-11.848 9.483-21.449 21.18-21.449h120.275c11.699 0 21.18-9.604 21.18-21.452v-41.498c0-11.845-9.483-21.449-21.18-21.449h-120.275c-11.697 0-21.18-9.604-21.18-21.449v-176.994c0-11.848-9.483-21.452-21.18-21.452h-87.651c-11.699 0-21.18 9.604-21.18 21.452v176.991c0 11.845-9.483 21.449-21.183 21.449h-121.912c-11.697 0-21.18 9.604-21.18 21.449v41.501c0 11.845 9.483 21.452 21.18 21.452h121.912c11.697 0 21.183 9.604 21.183 21.449 0 3.644-0.917 7.23-2.665 10.417l-7.951 14.492c-3.734 6.811-10.823 11.032-18.515 11.032h-111.436c-11.382 0-20.729 9.109-21.166 20.627l-1.705 44.875c-0.463 12.161 9.148 22.274 21.166 22.274h66.689c15.235 0 25.487 15.802 19.44 29.964l-81.087 184.704c-6.047 14.161 4.205 29.964 19.44 29.964h89.24c9.086 0 17.162-5.871 20.068-14.59l62.121-181.118c6.444-19.331 33.387-19.489 40.056-0.236l64.672 181.586c2.977 8.598 10.993 14.354 19.988 14.354h86.090c15.235 0 25.487-15.802 19.44-29.964l-81.087-184.704c-6.047-14.161 4.205-29.964 19.44-29.964h49.215c11.699 0 21.18-9.604 21.18-21.449v-44.872h0.011z" />
<glyph unicode="&#x69;" glyph-name="gym" d="M950.629 366.415c-2.214 0-4.282 0.439-6.434 0.637v-161.757c0-22.607-18.436-25.784-41.18-25.784-22.738 0-41.18 3.178-41.18 25.784v485.832c0 22.591 18.442 25.763 41.18 25.763 22.743 0 41.18-3.172 41.18-25.763v-179.653c2.153 0.18 4.22 0.641 6.434 0.641 40.517 0 73.35-32.62 73.35-72.865 0-40.243-32.833-72.836-73.35-72.836v0 0zM738.297 36.367c-45.481 0-82.359 6.327-82.359 51.526v720.638c0 45.177 36.877 51.526 82.359 51.526s82.359-6.347 82.359-51.526v-720.638c0.001-45.199-36.876-51.526-82.359-51.526v0 0zM409.707 366.415v163.612h205.052v-163.612h-205.052zM286.174 36.367c-45.487 0-82.359 6.327-82.359 51.526v720.638c0 45.177 36.877 51.526 82.359 51.526 45.497 0 80.647-6.347 80.647-51.526v-720.638c0-45.199-35.149-51.526-80.647-51.526v0 0zM121.456 179.51c-22.743 0-41.18 3.178-41.18 25.784v161.757c-2.154-0.197-4.222-0.637-6.434-0.637-40.495 0-73.351 32.593-73.351 72.835 0 40.246 32.855 72.865 73.351 72.865 2.213 0 4.28-0.46 6.434-0.641v179.655c0 22.591 18.436 25.763 41.18 25.763 22.76 0 39.468-3.172 39.468-25.763v-485.833c0-22.607-16.707-25.784-39.468-25.784v0 0z" />
<glyph unicode="&#x6a;" glyph-name="cinema" d="M993.251 10.817h-250.831c155.455 84.641 260.86 248.686 260.86 437.204 0 275.187-224.585 498.266-501.618 498.266-277.035 0-501.616-223.078-501.616-498.266 0-275.185 224.581-498.261 501.616-498.261 2.681 0 5.35 0.059 8.022 0.101 0.668-0.042 1.331-0.101 2.011-0.101h481.557c16.97 0 30.732 13.671 30.732 30.527-0.002 16.861-13.763 30.531-30.733 30.531v0zM754.434 541.611c50.946 0 92.252-41.029 92.252-91.637 0-50.615-41.306-91.638-92.252-91.638-50.947 0-92.252 41.023-92.252 91.638 0 50.608 41.305 91.637 92.252 91.637v0zM501.661 790.742c50.951 0 92.254-41.029 92.254-91.636 0-50.611-41.302-91.638-92.254-91.638-50.949 0-92.256 41.027-92.256 91.638 0 50.607 41.306 91.636 92.256 91.636v0zM247.801 353.35c-50.95 0-92.256 41.030-92.256 91.638 0 50.61 41.304 91.639 92.256 91.639 50.947 0 92.252-41.029 92.252-91.639 0-50.608-41.305-91.638-92.252-91.638v0zM409.406 195.857c0 50.61 41.306 91.638 92.256 91.638s92.254-41.028 92.254-91.638c0-50.608-41.302-91.636-92.254-91.636-50.949 0-92.256 41.028-92.256 91.636v0z" />
<glyph unicode="&#x6b;" glyph-name="kindergarten" d="M258.41 578.684c81.591-46.089 172.587-68.837 237.366-65.994v-198.336h63.015v206.156c63.015-0.948 113.334 13.981 165.886 43.719 81.944 46.207 99.226 120.139 93.7 154.972-48.672 16.35-79.122 32.701-151.307-8.294-60.782-33.53-71.010-83.884-115.215-138.385-81.121 89.571-91.937 173.574-190.81 228.193-108.984 61.847-161.536 37.084-235.014 12.44-8.347-52.724 8.465-164.451 132.379-234.473v0 0zM771.351 389.826c-113.334-36.018-146.958-117.77-241.363-194.308-109.101 74.287-145.076 160.659-266.052 192.175-136.141 37.203-189.399-38.862-262.878-86.372 31.86-64.216 56.667-140.636 211.149-182.341 89.938-24.288 187.283 21.8 250.416-10.545v-51.894h96.287v45.023c63.015 39.217 174.586-4.265 261.702 24.288 150.955 49.525 201.155 167.531 203.389 227.008-75.125 43.127-119.565 81.041-252.649 36.966v0 0z" />
<glyph unicode="&#x6c;" glyph-name="sport" d="M27.559 88.615l248.956 144.184 87.115 134.728c7.749-21.305 23.148-39.139 43.95-49.308l38.238-18.671-87.424-135.173c-4.554-7.049-10.681-12.883-17.913-17.083l-259.978-150.531c-8.334-4.84-17.461-7.116-26.412-7.116-18.299 0-36.068 9.503-45.889 26.52-14.607 25.374-5.92 57.818 19.356 72.449v0zM796.97 659.057c-68.157 0-123.439 55.43-123.439 123.812 0 68.301 55.282 123.724 123.439 123.724 68.184 0 123.472-55.425 123.472-123.724 0-68.382-55.288-123.812-123.472-123.812v0zM737.916 539.449c19.921 17.744 30.7 44.125 29.291 70.754l57.263-38.546 106.853 117.382c19.687 21.648 53.155 23.205 74.759 3.413 21.581-19.713 23.104-53.286 3.409-74.933l-137.582-151.148c-10.351-11.361-24.645-17.273-39.095-17.273-10.217 0-20.482 2.941-29.486 9.015l-89.244 60.093 23.831 21.243zM628.194 249.84l-205.152 100.163c-15.872 7.756-26.83 22.92-29.244 40.465-2.403 17.504 4.068 35.114 17.263 46.862l181.726 162.024-108.401 72.004-158.578-45.484c-28.185-7.933-57.397 8.255-65.454 36.4-8.025 28.179 8.233 57.53 36.31 65.618l182.067 52.169c14.893 4.29 30.866 1.802 43.783-6.761l186.028-123.592c13.702-9.082 22.4-24.032 23.545-40.477 1.179-16.398-5.335-32.422-17.615-43.373l-174.044-155.142 186.687-91.17c13.448-6.563 23.489-18.519 27.658-32.929 4.158-14.387 2.049-29.903-5.811-42.633l-141.171-229.163c-10.009-16.224-27.338-25.174-45.075-25.174-9.49 0-19.093 2.562-27.756 7.91-24.868 15.407-32.562 48.096-17.217 73.002l110.45 179.282z" />
<glyph unicode="&#x6f;" glyph-name="distance" d="M814.268 740.22l-235.736-581.709c-4.102-9.595-23.021-8.973-26.824 0.745l-57.257 177.699c-25.292 68.078-45.908 74.639-88.612 92.391l-182.129 59.164c-9.606 3.897-8.662 20.357 0.88 24.412l579.866 237.156c6.209 2.635 12.464-3.65 9.812-9.859zM22.89 479.426l300.499-130.318c64.898-23.268 75.631-50.497 93.095-94.087l120.277-296.063c9.272-15.199 32.158-21.871 42.909-21.871 11.924 0 34.124 7.365 41.882 25.451l396.974 955.961c11.068 25.885 4.759 41.501-13.597 41.501-6.103 0-13.521-1.731-22.088-5.364l-956.149-403.799c-34.341-14.589-35.48-51.635-3.803-71.412z" />
<glyph unicode="&#x70;" glyph-name="coffee" d="M1008.628 363.081c-14.963 106.789-151.827 112.055-151.827 112.055 0 34.158-45.621 54.199-45.621 54.199h-654.837c-42.101 0-48.262-58.587-48.262-58.587 8.802-329.143 207.937-437.687 207.937-437.687h343.188c49.142 35.84 116.767 140.069 116.767 140.069 10.562-3.511 83.395 0.951 112.293 7.022 28.972 6.144 135.251 76.215 120.361 182.93v0zM344.183 89.966c-166.716 120.759-150.067 375.515-150.067 375.515h92.196c-50.902-144.457 50.022-326.51 64.031-351.89 14.083-25.381-6.161-23.625-6.161-23.625v0zM880.419 239.689c-43.054-25.454-74.667-8.777-74.667-8.777 44.741 62.171 48.262 182.053 48.262 182.053 7.848-2.633 14.083 29.769 70.266-27.136 56.183-56.832-0.807-120.759-43.861-146.139v0zM82.704-64h773.731c37.993 0 68.799 32.402 68.799 72.558h-911.256c0-40.155 30.732-72.558 68.726-72.558v0zM328.267 884.736c0 0-136.864-83.237-50.902-161.061 85.962-77.897 78.114-106.789 28.092-175.104 0 0 93.883 47.25 81.561 119.077s-102.685 107.666-83.395 157.477c19.437 49.957 24.644 59.611 24.644 59.611v0zM630.308 928.402c0 0-136.938-83.237-50.829-161.061 85.889-77.897 77.967-106.789 28.018-175.104 0 0 93.957 47.25 81.635 119.077-12.249 71.753-102.685 107.666-83.468 157.477 19.363 50.030 24.644 59.611 24.644 59.611v0zM488.089 960c0 0-85.155-7.022-100.998-89.307-15.769-82.286 37.773-112.933 78.994-154.112 41.221-41.106 23.691-118.126-22.811-172.471 0 0 83.395 28.965 102.685 108.544 19.29 79.726-19.877 107.739-60.511 154.039-40.707 46.446-36.893 130.487 2.64 153.307v0z" />
<glyph unicode="&#x71;" glyph-name="walk" d="M577.183 755.2c57.767 0 102.696 44.8 102.696 102.4s-44.93 102.4-102.696 102.4c-57.767 0-96.278-51.2-96.278-102.4s44.93-102.4 96.278-102.4zM801.831 499.2l-128.37 44.8-77.022 140.8c-6.419 6.4-6.419 6.4-6.419 12.8l-6.419 6.4c-32.093 32-77.022 38.4-121.952 19.2l-218.23-70.4c-19.256-6.4-32.093-25.6-38.511-38.4l-19.256-166.4c-6.419-25.6 19.256-57.6 44.93-57.6h6.419c25.674 0 51.348 19.2 51.348 44.8l12.837 134.4 83.441 25.6c-12.837-32-25.674-64-38.511-89.6-19.256-38.4-19.256-96 6.419-140.8l-141.207-326.4c-12.837-32 0-70.4 32.093-89.6 12.837 6.4 25.674 0 32.093 0 25.674 0 51.348 12.8 57.767 38.4l102.696 236.8c64.185-115.2 134.789-249.6 134.789-249.6 12.837-25.6 38.511-38.4 57.767-38.4 6.419 0 25.674 6.4 32.093 6.4 32.093 19.2 44.93 57.6 25.674 89.6-6.419 6.4-115.533 217.6-186.137 339.2l64.185 140.8 25.674-38.4c6.419-12.8 19.256-19.2 25.674-25.6l141.207-57.6c6.419 0 12.837-6.4 19.256-6.4 25.674 0 38.511 12.8 51.348 38.4 12.837 38.4 0 70.4-25.674 76.8z" />
<glyph unicode="&#x72;" glyph-name="University" d="M1000.125 642.519l-452.726 154.033c-28.219 10.108-22.298 10.169-50.294 0.147l-455.457-152.799c-27.996-10.022-27.809-26.345 0.41-36.453l108.227-36.33c-47.929-45.953-51.032-93.729-51.678-149.132-18.519-7.062-31.67-24.828-31.67-45.646 0-19.111 11.090-35.654 27.238-43.699-7.677-56.288-29.64-120.596-94.177-196.786 31.924-24.459 48.401-32.608 73.12-40.763 90.211 38.338 79.245 140.259 72.226 241.633 12.387 8.886 20.455 23.317 20.455 39.615 0 17.477-9.272 32.805-23.198 41.451 1.601 54.286 13.554 102.848 54.564 134.271 0.335 0.829 1.291 1.591 3.060 2.291l311.228 124.471c11.537 4.581 24.65-0.97 29.274-12.392l0.41-1.007c4.63-11.422-0.974-24.392-12.518-28.967l-263.019-104.046 235.365-78.997c28.219-10.108 22.298-10.176 50.294-0.147l449.275 152.799c27.996 10.022 27.809 26.345-0.41 36.453zM500.251 394.311l-284.902 95.559v-71.867c14.895-13.504 23.111-32.872 23.111-54.396 0-19.356-6.833-36.956-18.37-50.128 3.773-11.287 10.352-22.316 19.748-25.792 165.801-90.689 394.979-89.67 579.317 9.175 13.672 11.262 24.247 25.215 24.247 38.719v158.301l-292.641-99.716c-27.996-10.028-22.292-9.961-50.511 0.147z" />
<glyph unicode="&#x73;" glyph-name="market" d="M512.247 833.53c122.16 0 226.582-77.358 268.636-186.152h56.931c-44.344 139.36-173.512 240.476-325.568 240.476-152.199 0-281.367-101.116-325.568-240.476h56.931c41.912 108.794 146.477 186.152 268.636 186.152v0 0zM989.871 630.574h-955.247c-18.596 0-33.615-15.211-33.615-34.043v-117.051c0-18.832 15.020-34.043 33.615-34.043h28.037l73.811-383.748c0 0 4.148-53.89 44.916-53.89h664.582c40.624 0 44.916 53.89 44.916 53.89l73.811 383.748h25.319c18.596 0 33.615 15.211 33.615 34.043v117.051c-0.286 18.832-15.306 34.043-33.758 34.043v0 0zM370.204 135.425c0-19.991-16.021-36.216-35.761-36.216s-35.761 16.225-35.761 36.216v294.511c0 19.991 16.021 36.216 35.761 36.216s35.761-16.225 35.761-36.216v-294.511zM548.008 135.425c0-19.991-16.021-36.216-35.761-36.216s-35.761 16.225-35.761 36.216v294.511c0 19.991 16.021 36.216 35.761 36.216s35.761-16.225 35.761-36.216v-294.511zM725.812 135.425c0-19.991-16.021-36.216-35.761-36.216s-35.761 16.225-35.761 36.216v294.511c0 19.991 16.021 36.216 35.761 36.216s35.761-16.225 35.761-36.216v-294.511z" />
<glyph unicode="&#x74;" glyph-name="subway" d="M929.797-63.418h-139.265l-29.15 66.444h-498.762l-29.15-66.444h-139.265l142.502 208.053c-28.069 7.985-51.098 23.963-69.090 47.93-17.995 23.963-26.992 51.557-26.992 82.783v477.106c0 18.876 4.859 36.855 14.576 53.917s21.593 32.68 35.626 46.836c14.037 14.163 28.431 26.325 43.182 36.495 14.758 10.165 27.53 17.789 38.33 22.876 10.793 5.079 22.671 10.524 35.624 16.337 12.955 5.811 28.427 10.89 46.419 15.25 17.995 4.358 38.867 7.984 62.617 10.89 23.748 2.905 51.459 4.358 83.127 4.358 35.983 0 67.651-1.636 94.999-4.903 27.355-3.266 51.284-7.624 71.795-13.069 20.513-5.445 38.506-11.618 53.979-18.516 15.476-6.899 29.689-13.98 42.642-21.245 12.953-7.26 26.629-15.61 41.022-25.055 14.4-9.437 27.353-20.146 38.867-32.13s21.051-25.598 28.607-40.846c7.556-15.25 11.338-32.318 11.338-51.196v-477.106c0-31.226-9.177-58.82-27.53-82.783-18.351-23.967-41.567-39.944-69.636-47.93l143.586-208.052zM410.521 888.611c-9.355 0-17.269-3.266-23.75-9.803-6.479-6.532-9.716-14.882-9.716-25.048 0-9.444 3.237-17.431 9.716-23.968 6.479-6.532 14.395-9.803 23.75-9.803h205.123c9.353 0 17.267 3.271 23.748 9.803 6.479 6.537 9.718 14.523 9.718 23.968 0 10.165-3.239 18.516-9.718 25.048-6.479 6.537-14.393 9.803-23.748 9.803h-205.123zM207.563 547.666h607.803v204.788h-607.803v-204.788zM242.111 193.652c12.953 0 24.106 4.719 33.466 14.163 9.353 9.439 14.031 20.697 14.031 33.767 0 13.797-4.677 25.415-14.031 34.859-9.36 9.437-20.513 14.157-33.466 14.157-13.674 0-25.194-4.719-34.548-14.157-9.353-9.444-14.037-21.062-14.037-34.859 0-13.069 4.682-24.328 14.037-33.766 9.355-9.444 20.872-14.163 34.548-14.163v0 0zM730.076 70.566l-30.227 68.623h-375.694l-31.306-68.623h437.227zM733.314 241.581c0-13.069 4.677-24.328 14.037-33.766 9.353-9.444 20.869-14.163 34.547-14.163 13.674 0 25.189 4.719 34.543 14.163 9.36 9.439 14.037 20.697 14.037 33.766 0 13.797-4.677 25.415-14.037 34.859-9.355 9.437-20.869 14.157-34.543 14.157-13.679 0-25.193-4.719-34.547-14.157-9.36-9.444-14.037-21.062-14.037-34.859v0 0z" />
<glyph unicode="&#x75;" glyph-name="park" d="M840.73 119.263v219.163h109.58l-73.053 182.627h36.542l-109.577 292.215-73.068-255.682h36.527l-87.961-175.858-58.144 175.858 36.527-36.533-146.104 438.318-109.577-365.257h36.526l-73.052-219.163-72.808 152.812 36.282-6.71-109.576 292.215-73.053-255.682h36.512l-109.579-219.161h109.579v-182.638c0 0-144.066-63.385-182.629-109.579 60.927 27.787 124.349 21.473 219.171 36.527-28.57-17.336-54.979-20.439-73.053-36.527-39.994-35.529-109.577-109.584-109.577-109.584h438.311c0 0-150.288 69.202-146.105 109.584 2.464 23.862 49.929 55.711 73.053 73.053 22.574 1.18 49.714-0.397 73.053 0v-73.053h73.052v73.053c183.891-6.138 372.545-26.364 474.85-73.053-33.925 40.627-182.645 73.053-182.645 73.053h-0.001zM475.474 192.315c-72.629-1.642-157.164-24.904-219.157-36.526v182.638h73.052l-36.525-36.533h182.629v-109.58zM767.682 155.79c-62.053 13.988-144.385 33.103-219.155 36.526v109.579h182.627l-36.525 36.533h73.052v-182.637z" />
<glyph unicode="&#x77;" glyph-name="restaurant" d="M170.914-0.299c0.086-38.144 9.975-62.357 46.664-62.293 36.624 0.085 44.639 24.448 44.552 62.613l1.163 361.28c1.336-0.149 103.927 13.824 138.483 116.075 0 0-42.053 483.008-200.055 482.624-40.33-0.085-28.804-105.728-28.804-105.728l-2.004-854.57zM639.598 486.592h18.721l-26.391-488.085c0-38.165 34.793-62.507 71.461-62.507s69.543 24.341 69.543 62.507l-27.447 487.616 19.799 0.384c15.038 0 87.64 131.904 87.64 154.944l-34.104 316.203c-0.086-0.405-47.784-1.856-47.784-1.856l0.668-208.213c0-23.979 0.646-42.389-23.418-42.389s-24.409 18.432-24.409 42.389v208.213h-65.601v-210.987c0-23.979-3.167-39.275-27.231-39.275s-23.655 15.296-23.655 39.275v210.987h-39.813l-33.544-314.347c0-23.232 90.721-154.859 105.564-154.859v0z" />
<glyph unicode="&#x78;" glyph-name="atm" d="M1023.077 744.698v-143.266h-1022.979v143.266c0 31.246 25.075 56.575 56.004 56.575h910.973c30.929 0 56.003-25.329 56.003-56.575v0zM0.098 476.36h1022.981v-325.238c0-31.246-25.074-56.575-56.004-56.575h-910.973c-30.929 0-56.004 25.329-56.004 56.575v325.238zM661.083 342.028c0-31.246 25.074-56.575 56.004-56.575h168.012c30.93 0 56.004 25.329 56.004 56.575v9.43c0 31.246-25.074 56.575-56.004 56.575h-168.012c-30.93 0-56.004-25.329-56.004-56.575v-9.43z" />
<glyph unicode="&#x79;" glyph-name="bus" d="M770.723 331.952c-45.277 0-84.085-38.848-84.085-84.171s38.809-84.171 84.085-84.171c45.277 0 84.085 38.848 84.085 84.171s-38.809 84.171-84.085 84.171v0zM854.809 694.537c0 19.424-12.936 32.374-32.34 32.374h-620.936c-19.404 0-32.34-12.949-32.34-32.374v-207.191c0-19.424 12.936-32.374 32.34-32.374h614.468c19.404 0 32.34 12.949 32.34 32.374l6.468 207.191zM647.83 888.778h-271.66c-19.404 0-32.34-12.949-32.34-32.374s12.936-32.374 32.34-32.374h278.128c19.404 0 32.34 12.949 32.34 32.374s-19.404 32.374-38.809 32.374v0zM253.277 157.135c45.277 0 84.085 38.848 84.085 84.171s-38.809 84.171-84.085 84.171c-45.277 0-84.085-38.848-84.085-84.171s38.809-84.171 84.085-84.171v0zM854.809 53.539v0-71.222c0-19.424-12.936-32.374-32.34-32.374h-103.489c-19.404 0-32.34 12.949-32.34 32.374v71.222h-349.277v-71.222c0-19.424-12.936-32.374-32.34-32.374h-103.489c-19.404 0-32.34 12.949-32.34 32.374v71.222c-38.809 0-71.149 32.374-71.149 71.222v692.795c0 38.848 64.681 71.222 103.489 71.222 0 0 135.83 71.222 310.468 71.222s342.809-71.222 342.809-71.222c38.809 0 71.149-32.374 71.149-71.222v-692.795c0-38.848-32.34-71.222-71.149-71.222v0z" />
<glyph unicode="&#x7a;" glyph-name="middle-school" d="M890.997 114.397v357.984h39.454v38.95h-202.089v-37.463h39.454v-359.47h123.181zM568.437 114.397v357.984h39.454v38.95h-202.089v-37.463h39.454v-359.47h123.181zM2.225-44.971h1009.845v36.571h-1009.845v-36.571zM42.583 34.713h929.129v38.95h-929.129v-38.95zM506.395 782.792c39.153 0 70.776-31.22 70.776-69.872s-31.624-69.872-70.776-69.872c-39.153 0-70.776 31.22-70.776 69.872s31.624 69.872 70.776 69.872v0zM18.187 552.957h977.92c23.492 10.109 22.588 32.111 0.301 46.383-21.986 14.569-490.315 348.172-490.315 348.172s-464.414-333.603-487.906-348.172c-23.492-14.272-24.998-36.274 0-46.383v0zM243.769 114.397v355.605h39.454v44.005h-202.089v-40.139h39.454v-359.47h123.181z" />
</font>
</defs>
</svg>
