<?xml version="1.0" standalone="no"?>
<!DOCTYPE svg PUBLIC "-//W3C//DTD SVG 1.1//EN" "http://www.w3.org/Graphics/SVG/1.1/DTD/svg11.dtd" >
<!--
2013-9-30: Created.
-->
<svg>
<metadata>
Created by iconfont
</metadata>
<defs>

<font id="iconfont" horiz-adv-x="1024" >
  <font-face
    font-family="iconfont"
    font-weight="500"
    font-stretch="normal"
    units-per-em="1024"
    ascent="896"
    descent="-128"
  />
    <missing-glyph />
    
    <glyph glyph-name="x" unicode="x" horiz-adv-x="1001"
d="M281 543q-27 -1 -53 -1h-83q-18 0 -36.5 -6t-32.5 -18.5t-23 -32t-9 -45.5v-76h912v41q0 16 -0.5 30t-0.5 18q0 13 -5 29t-17 29.5t-31.5 22.5t-49.5 9h-133v-97h-438v97zM955 310v-52q0 -23 0.5 -52t0.5 -58t-10.5 -47.5t-26 -30t-33 -16t-31.5 -4.5q-14 -1 -29.5 -0.5
t-29.5 0.5h-32l-45 128h-439l-44 -128h-29h-34q-20 0 -45 1q-25 0 -41 9.5t-25.5 23t-13.5 29.5t-4 30v167h911zM163 247q-12 0 -21 -8.5t-9 -21.5t9 -21.5t21 -8.5q13 0 22 8.5t9 21.5t-9 21.5t-22 8.5zM316 123q-8 -26 -14 -48q-5 -19 -10.5 -37t-7.5 -25t-3 -15t1 -14.5
t9.5 -10.5t21.5 -4h37h67h81h80h64h36q23 0 34 12t2 38q-5 13 -9.5 30.5t-9.5 34.5q-5 19 -11 39h-368zM336 498v228q0 11 2.5 23t10 21.5t20.5 15.5t34 6h188q31 0 51.5 -14.5t20.5 -52.5v-227h-327z" />
    

    
    <glyph glyph-name="dibiao" unicode="&#58949;" d="M51.794082-127.977537a49.663964 49.663964 0 0 0-22.052623 5.194212 50.837218 50.837218 0 0 0-28.14671 45.56327V401.34236a50.848609 50.848609 0 0 0 27.098755 45.084856l131.484206 68.937227a49.925953 49.925953 0 0 0 67.672847-21.710898 51.053644 51.053644 0 0 0-21.4603-68.458813l-104.385451-54.675924v-343.922952l181.945527 143.080058a49.732309 49.732309 0 0 0 53.912739 4.989178l371.34065-194.680461 212.757689 111.538885V455.699341l-58.172905-30.504609a49.925953 49.925953 0 0 0-67.672847 21.710898 51.053644 51.053644 0 0 0 21.471691 68.447422l131.484207 68.937228a49.709527 49.709527 0 0 0 49.185549-1.697232 50.905563 50.905563 0 0 0 24.125752-43.387624v-478.596587a50.848609 50.848609 0 0 0-27.098755-45.084856l-262.968412-137.828891a49.698137 49.698137 0 0 0-46.201156 0L320.195914 69.550629l-237.589671-186.809407a49.823436 49.823436 0 0 0-30.812161-10.718759zM515.081411 799.132488a172.434195 172.434195 0 0 0 172.479758-172.400022c0-29.422482-23.111969-100.865689-88.233272-205.353658a1191.21752 1191.21752 0 0 0-77.981537-110.798482q-3.417245-4.271557-6.629456-8.167216-2.916049 3.610889-6.025742 7.529331a1235.641708 1235.641708 0 0 0-77.673984 111.128815c-65.155476 104.943601-88.324399 176.364027-88.324399 205.66121A172.434195 172.434195 0 0 0 515.081411 799.132488m0 96.821949C366.39707 896 245.825267 775.428197 245.825267 626.732466s230.618491-455.450446 267.684211-455.450446c40.82469 0 270.862249 306.720542 270.862249 455.450446S663.856878 896 515.081411 896z"  horiz-adv-x="1024" />

    
    <glyph glyph-name="dianhua" unicode="&#58955;" d="M512 832C264.576 832 64 631.424 64 384s200.576-448 448-448 448 200.576 448 448S759.423 832 512 832z m200.182-607.7c-6.295-6.381-15.516-15.673-19.091-19.32l-3.163-3.205-5.29-5.352c-25.682-25.964-114.402-65.012-273.076 88.3-153.265 148.11-110.796 237.968-89.96 263.932 12.707 13.085 28.4 28.817 34.991 35.403h0.03c15.81 15.996 41.552 15.908 57.481-0.176l51.216-51.751c15.9-16.055 15.989-42.077 0.148-58.074-7.447-7.528-25.475-25.728-25.475-25.728l-9.545-9.645c-15.338-15.82-11.792-24.081 5.496-45.194 0.473-1.058 76.9-76.392 77.431-76.598 37.09-29.963 41.405-33.844 56.064-18.73l31.74 32.08c15.841 15.967 43.74 19.965 59.64 3.881l51.216-51.78c15.899-16.054 15.958-42.077 0.147-58.044zM512.355 517.383c1.473 5.316 7.034 8.595 12.445 7.354 22.846-5.286 51.704-7 86.905-42.206 31.684-31.632 36.403-63.736 41.092-86.389 1.113-5.316-2.464-10.633-7.996-11.872-3.578-0.827-7.095 0.295-9.409 2.628-1.263 1.27-2.164 2.895-2.585 4.755-3.937 19.02-9.108 50.09-35.922 76.878-35.411 35.412-58.167 32.488-77.375 36.949-5.382 1.24-8.627 6.586-7.155 11.903z m203.691-133.152c-3.44-0.731-6.794 0.309-9.02 2.53a9.083 9.083 0 0 0-2.486 4.584c-5.898 28.964-15.41 76.18-62.736 123.028-46.344 45.865-94.105 56.214-122.669 63.047-5.174 1.266-8.239 6.356-6.765 11.389 1.417 5.062 6.852 8.155 12.085 6.918 31.975-7.677 76.267-13.245 131.602-68.024 60.54-59.925 61.146-99.744 67.767-132.196 1.012-5.062-2.429-10.123-7.778-11.276z"  horiz-adv-x="1024" />

    
    <glyph glyph-name="dongtai" unicode="&#58956;" d="M513-65C265.576-65 65 135.576 65 383S265.576 831 513 831s448-200.576 448-448-200.576-448-448-448z m36.57 573.445V637.27L307.162 515.82v-362.874h435.646V411.58L549.57 508.445zM458.114 232.6h-48.187v48.187h48.187V232.6z m0 81.13h-48.187v48.187h48.187v-48.186z m0 80.64h-48.187v48.186h48.187v-48.186zM653.319 232.6h-48.187v48.187h48.187V232.6z m0 81.13h-48.187v48.187h48.187v-48.186z"  horiz-adv-x="1024" />

    
    <glyph glyph-name="kehuduan" unicode="&#58957;" d="M758 160V787H266v-627h492z m0-45H266v-135h492V115zM221 832h583v-896H221V832z m91-91h404v-538H312V741z m88-671h225v-45H400v45z"  horiz-adv-x="1024" />

    
    <glyph glyph-name="jiangjia" unicode="&#58958;" d="M363.1 384h298.8V832H363.1v-448z m149.4-448L886 384H139l373.5-448z"  horiz-adv-x="1024" />

    
    <glyph glyph-name="dianhua1" unicode="&#58959;" d="M600.46 815.36a40.271 40.271 0 0 1-6.618 0.822c-19.812 0.758-37.146-12.794-41.139-32.262-2.2-10.562-0.15-21.359 5.805-30.404 5.935-9.034 15.03-15.207 25.599-17.364 85.076-17.568 158.324-67.321 206.232-140.09 47.886-72.801 64.58-159.761 47.074-244.874-2.2-10.596-0.15-21.37 5.806-30.394 5.935-9.035 15.03-15.197 25.598-17.386 2.22-0.438 4.463-0.706 6.64-0.812 8.476-0.32 16.673 1.987 23.762 6.643 9.03 5.948 15.2 15.057 17.378 25.62C961.813 554.519 820.014 770.09 600.46 815.36z m69.6-607.52c2.389-1.56 55.74-35.829 96.732-77.947 15.434-15.933 41.288-42.589 40.605-73.516-0.577-21.124-12.49-42.311-36.442-64.673-5.957-5.852-59.309-55.704-144.66-55.704-23.378 0-47.395 3.716-71.392 11.023-25.213 7.645-50.854 19.458-76.13 35.048-99.807 58.97-176.834 134.9-249.976 246.274C103.074 419.76 99.465 583.697 100.042 614.592 100.255 757.18 218.957 813.268 232.49 819.206 251.107 827.845 267.375 832 282.36 832c7.174 0 14.05-0.972 20.41-2.916 13.087-3.972 31.256-14.266 43.467-40.73 16.652-35.903 32.409-87.378 43.168-141.265 11.316-55.927-20.026-71.625-50.34-86.8l-1.197-0.524s-53.629-22.384-63.064-26.271c-9.266-3.866-14.09-14.31-10.932-23.857 21.627-65.55 54.654-133.523 95.473-196.572 40.158-62.037 87.915-119.288 138.085-165.635 3.587-3.269 8.198-5.105 13.067-5.105l1.644 0.086c5.273 0.426 10.248 3.096 13.557 7.346 8.154 10.487 20.665 25.599 33.859 38.168 25.02 23.803 47.65 35.358 69.17 35.358 5.893 0 11.744-0.865 17.379-2.585 5.399-1.656 14.13-6.355 23.952-12.858zM500.291 483.76c-10.59 2.2-19.685 8.351-25.62 17.374-5.978 9.035-8.027 19.843-5.85 30.436 4.057 19.447 21.35 33.01 41.14 32.22 2.2-0.065 4.42-0.331 6.639-0.79 93.83-19.352 154.44-111.513 135.118-205.428-2.157-10.528-8.305-19.616-17.336-25.607-7.109-4.646-15.348-6.942-23.76-6.643-2.179 0.116-4.4 0.364-6.619 0.833-10.611 2.147-19.726 8.341-25.66 17.386-5.936 9.003-7.986 19.778-5.808 30.371 4.996 24.306 0.257 49.125-13.45 69.907-13.663 20.74-34.522 34.942-58.794 39.94z m42.014 126.698c-21.82 4.528-35.91 25.94-31.427 47.758 4.014 19.489 21.307 33.063 41.119 32.293 2.176-0.095 4.42-0.352 6.639-0.822 75.938-15.666 141.267-60.048 184.051-125.031 42.719-64.94 57.64-142.546 41.971-218.518-2.178-10.595-8.348-19.715-17.379-25.62-7.108-4.689-15.285-6.984-23.739-6.653-2.2 0.096-4.44 0.363-6.66 0.833-21.777 4.473-35.888 25.896-31.405 47.757 11.294 54.816 0.534 110.86-30.337 157.775-30.87 46.89-78.009 78.939-132.833 90.228z"  horiz-adv-x="1024" />

    
    <glyph glyph-name="jieshi" unicode="&#58960;" d="M512.006 832C264.58 832 64 631.426 64 384.002 64 136.578 264.58-64 512.004-64 759.427-64 960 136.577 960 384.002 960 631.428 759.429 832 512.006 832z m-2.913-759.11c-26.852 0-48.62 21.768-48.62 48.62 0 26.852 21.768 48.62 48.62 48.62 26.852 0 48.615-21.768 48.615-48.62 0-26.852-21.763-48.62-48.615-48.62z m175.748 393.03c-8.794-18.515-27.59-41.547-56.31-69.159-28.76-27.608-47.797-47.23-57.197-58.888-9.397-11.68-16.538-25.616-21.339-41.829-4.84-16.216-6.977-37.999-6.41-65.306h-75.107c0 31.866 2.54 57.318 7.662 76.397 5.126 19.058 12.829 35.72 23.073 49.936 10.248 14.218 28.723 35.133 55.464 62.742 26.743 27.59 43.968 47.661 51.63 60.183 7.703 12.504 11.536 31.16 11.536 55.905 0 24.765-8.835 46.67-26.46 65.728-17.628 19.057-43.24 28.6-76.8 28.6-75.71 0-113.545-44.957-113.545-134.863h-75.107c1.132 40.979 5.973 72.118 14.481 93.475 8.55 21.339 22.226 40.4 40.982 57.177 18.796 16.781 39.688 29.165 62.761 37.128 23.035 7.969 47.355 11.962 72.968 11.962 51.79 0 94.871-15.23 129.32-45.661 34.447-30.455 51.629-71.01 51.629-121.653 0-22.77-4.4-43.401-13.231-61.873z"  horiz-adv-x="1024" />

    
    <glyph glyph-name="sousuo" unicode="&#58961;" d="M449.506 60.988C236.596 60.988 64 233.585 64 446.494 64 659.404 236.597 832 449.506 832c212.909 0 385.506-172.597 385.506-385.506 0-212.909-172.597-385.506-385.506-385.506zM450 146c165.685 0 300 134.315 300 300S615.685 746 450 746 150 611.685 150 446s134.315-300 300-300z m475.803-175.803c-18.818-18.82-49.33-18.82-68.148 0l-113.58 113.58c-18.82 18.819-18.82 49.33 0 68.149 18.818 18.818 49.329 18.818 68.148 0l113.58-113.581c18.82-18.819 18.82-49.33 0-68.148z"  horiz-adv-x="1024" />

    
    <glyph glyph-name="qushi" unicode="&#58962;" d="M97.812 163.854h152.15V-22H97.812V163.854z m236.679 202.75h152.15V-22h-152.15V366.604z m236.679-67.583h152.15V-22H571.17V299.02z m236.68 185.853H960V-22H807.85V484.875zM64 354.304l362.21 335.058 207.872-205.488 196.28 229.788L759.192 789H960v-195.55l-70.21 72.797-255.714-311.434-210.079 217.33-309.596-290.018L64 354.305z"  horiz-adv-x="1024" />

    
    <glyph glyph-name="xiaoqu" unicode="&#58963;" d="M618.677 288.639h117.885L624.114 160.465v-15.952h131.284V49H822.4v95.513h130.366v16.553L851.483 288.639H960v12.446L793.22 504.49 618.666 300.504l0.01-11.865zM149.333 49l-1.05 483.957h-11.56L64 493.933V49h85.333z m570.69 0v71.677H567.837l-0.636 19.07 90.074 128.476H549.617v19.05l182.827 208.282v212.18c0 6.357 0.176 10.265-6.19 10.265H178.596c-6.347 0-15.041-3.908-15.041-10.265V49h556.467zM220.444 646.83h469.334v-42.702H220.444V646.83z m0-85.404h469.334v-42.703H220.444v42.703z"  horiz-adv-x="1024" />

    
    <glyph glyph-name="zhangjia" unicode="&#58964;" d="M363.1 384h298.8v-448H363.1V384zM512.5 832L886 384H139L512.5 832z"  horiz-adv-x="1024" />

    
    <glyph glyph-name="zhankaigengduo" unicode="&#58965;" d="M940.5 581v-70.437L510.437 320.25 83 510.562V581l427.438-190.75L940.5 581z m0-131.687v-70.438L510.437 186.812 83 378.875v70.438l427.438-191.625L940.5 449.312z"  horiz-adv-x="1024" />

    
    <glyph glyph-name="zixun" unicode="&#58966;" d="M512 832c247.43 0 447.999-175.518 448-391.987 0-216.537-200.576-392.056-448-392.056-28.662 0-56.563 2.63-83.725 7.084L232.003-64V134.22C129.66 206.077 64 316.266 64 440.013 64 656.488 264.576 832 512 832zM319.982 384C355.36 384 384 412.669 384 448.032c0 35.3-28.647 63.968-64.018 63.968C284.646 512 256 483.331 256 448.032 256 412.669 284.646 384 319.982 384z m192.017 0C547.334 384 576 412.669 576 448.032c0 35.3-28.666 63.968-64 63.968-35.328 0-64-28.669-64-63.968C448 412.669 476.672 384 512 384z m192.014 0C739.36 384 768 412.669 768 448.032c0 35.3-28.64 63.968-63.987 63.968C668.641 512 640 483.331 640 448.032 640 412.669 668.64 384 704.013 384z"  horiz-adv-x="1024" />

    
    <glyph glyph-name="zhian" unicode="&#58967;" d="M512 125.539L235.12-20 288 288.256 64 506.565l309.56 44.974L512 832l138.44-280.461L960 506.565 736 288.256 788.88-20z"  horiz-adv-x="1024" />

    
    <glyph glyph-name="zhijiangzhenhuadefangchansousuoyinqing" unicode="&#58968;" d="M72.931 392.498h56.955v-40.557H72.931v40.557z m46.12-9.078H83.767v-22.401h35.286V383.42z m-4.245-33.602c8.638-6.442 16.179-12.714 22.62-18.814l-8.198-7.833a452.438 452.438 0 0 1-21.523 20.058l7.1 6.589z m-28.039-0.146l8.42-6.809c-7.614-8.101-15.228-14.763-22.841-19.985l-7.321 7.98c7.662 5.026 14.91 11.298 21.742 18.814z m70.537 46.193c3.417-3.66 7.126-7.857 11.128-12.591-3.465-2.538-6.223-4.686-8.273-6.443a463.592 463.592 0 0 1-10.249 13.25l7.394 5.784z m42.24-0.732h9.957v-13.323h8.346v-9.517H209.5v-13.763h10.176v-9.517H209.5v-25.33h-9.956v25.33h-12.226c-1.073-10.396-4.587-19.107-10.542-26.135-2.05 1.952-5.124 4.392-9.224 7.32 5.1 4.515 8.273 10.786 9.517 18.815h-9.15v9.517h9.81v13.763h-7.76v9.517h7.76v13.25h9.955v-13.25h11.86v13.323z m-11.859-36.603h11.86v13.763h-11.86v-13.763z m-18.521-10.396c0.341-4.392 0.756-7.93 1.244-10.615-6.1-4.343-10.517-7.98-13.25-10.908l-5.051 7.175c0.976 1.415 1.488 3.44 1.537 6.076v22.767h-6.442v9.956h16.325v-28.477l5.637 4.026z m60.873-4.831h8.126v37.042h22.329v3.514h-29.65v7.028h29.65v4.759h10.102v-4.759h29.649v-7.028h-29.649v-3.514h22.548v-37.042h8.419v-6.955h-71.524v6.955z m43.705-7.54a3376.987 3376.987 0 0 0 25.769-4.393l-3.075-8.565a3826.909 3826.909 0 0 1-26.208 5.856l3.514 7.101z m-16.764 0.292l3.88-7.101c-8.297-2.05-16.496-4.05-24.598-6.003a218.976 218.976 0 0 1-4.026 8.2 434.902 434.902 0 0 1 24.744 4.904z m-8.932 16.179h35.213V355.6h-35.213v-3.367z m35.213 21.376h-35.213v-3.294h35.213v3.294z m-35.213-12.298h35.213v3.294h-35.213v-3.294z m0-18.01h35.213v3.222h-35.213v-3.221z m75.735 51.831a156.605 156.605 0 0 0 9.81-13.543 747.9 747.9 0 0 1-9.517-5.93c-2.538 4.685-5.49 9.493-8.858 14.422l8.565 5.051z m10.249-20.498h19.912v8.675l-17.057-0.622c-0.293 2.49-0.732 5.295-1.318 8.419 16.301 0.39 31.333 1.196 45.096 2.416l1.244-8.492c-5.466-0.44-11.371-0.842-17.716-1.208v-9.188h20.059v-8.785h-20.059v-9.224h16.106v-33.382h-9.956v3.807h-22.255v-3.88h-9.957v33.455h15.813v9.224H334.03v8.785z m36.31-26.647h-22.254v-12.299h22.255v12.299z m-35.358-0.366c0.195-3.27 0.756-6.93 1.683-10.981-5.124-3.856-10.2-8.102-15.227-12.738l-5.27 7.247c1.317 1.367 1.976 3.343 1.976 5.93v24.232h-6.37v9.882h16.4v-29.429c2.44 2.05 4.709 4.002 6.808 5.857z m72.074 47.658l10.908-1.684-3.295-9.956h12.446v-14.276c3.928 6.589 7.686 15.276 11.273 26.062l10.103-2.635a182.117 182.117 0 0 0-3.44-9.517h18.887l-0.842-42.131c-0.122-4.539-0.5-7.717-1.135-9.535-0.634-1.818-1.623-3.3-2.965-4.448-1.342-1.147-3.215-1.927-5.618-2.342-2.404-0.415-7.644-0.623-15.722-0.623-0.732 4.295-1.659 7.98-2.781 11.055 3.611-0.293 7.454-0.44 11.53-0.44 1.171 0 2.184 0.135 3.038 0.403 0.854 0.269 1.555 0.677 2.104 1.226 0.55 0.55 0.922 1.166 1.117 1.849 0.195 0.683 0.354 3.685 0.476 9.004l0.33 14.971c0.097 4.661 0.146 8.443 0.146 11.347h-12.739a159.011 159.011 0 0 0-5.124-9.956c-2.318 1.513-5.198 3.014-8.638 4.502v-43.594h-10.176v5.27h-10.396v-5.71h-10.175V383.64h7.723c1.415 4.783 2.404 8.663 2.965 11.64z m9.883-21.23h-10.396v-12.519h10.396V374.05z m-10.396-34.627h10.396V351.94h-10.396v-12.518z m32.065 25.402c3.514-4.197 7.296-9.297 11.347-15.3l-9.224-6.15c-3.71 6.101-7.247 11.299-10.615 15.594l8.492 5.856z m109.556-10.688h-34.37a46.367 46.367 0 0 0-0.293-3.807h27.709c-0.098-4.05-0.348-8.455-0.75-13.213-0.403-4.759-1.428-7.962-3.075-9.609-1.648-1.647-3.356-2.648-5.125-3.001-1.77-0.354-6.668-0.531-14.696-0.531-0.488 2.88-1.318 6.271-2.49 10.176a98.41 98.41 0 0 1 8.53-0.366c2.147 0 3.593 0.152 4.337 0.457 0.744 0.305 1.3 0.946 1.665 1.922 0.366 0.976 0.623 3.014 0.769 6.113h-18.448c-2.49-8.517-7.345-15.032-14.568-19.547-1.611 1.757-4.198 4.32-7.76 7.687 8.492 4.71 13.128 12.616 13.909 23.72h-10.835c-0.903-12.91-3.855-23.037-8.858-30.382l-8.199 8.346c4.685 6.49 7.028 16.789 7.028 30.893v26.72h25.659a206.076 206.076 0 0 1-2.233 4.906l12.226 1.317c0.707-1.683 1.488-3.757 2.342-6.222h23.866V367.9h-21.67c0.61-1.562 1.306-3.416 2.087-5.564h23.243v-8.199z m-13.982 21.89v5.563h-41.216v-5.564h41.216z m-23.793-9.518l8.602 1.391h-26.025v-5.564h19.583a65.065 65.065 0 0 1-2.16 4.173z m54.725-0.951h14.055a346.763 346.763 0 0 1-7.174 8.492l7.614 4.538h-19.327v9.224h29.21a197.319 197.319 0 0 1-2.416 6.443l11.566 1.757 2.087-8.2h28.514v-9.224h-20.278l9.37-4.538-7.504-8.492H628v-9.225h-53.222v-1.757c0-10.785-3.197-21.352-9.59-31.698-1.806 2-4.393 4.514-7.76 7.54 4.88 8.102 7.443 16.57 7.687 25.403v9.737z m25.256 2.269l-3.66-2.27h12.189c2.855 3.93 5.82 8.273 8.894 13.031h-26.5l9.077-10.761z m117.097-13.177v-8.346c-3.05-4.222-6.918-7.93-11.604-11.127 5.076-1.513 10.847-2.587 17.314-3.222-1.61-3.27-2.928-6.149-3.953-8.638-8.785 0.927-16.557 3.05-23.317 6.369-6.49-2.904-14.019-5.149-22.584-6.735a92.342 92.342 0 0 1-3.734 8.858c6.491 0.78 12.275 1.928 17.35 3.44a51.231 51.231 0 0 0-9.297 9.371l3.733 2.123h-6.954v7.907h17.79v4.319h-18.156v30.234c3.611 0.684 8.199 1.928 13.763 3.734l4.392-7.504v10.505h8.931v-29.21h10.396v4.906h-8.053v6.881h8.053v4.759h-9.005v7.613h17.204v-31.918h-18.595v-4.32h16.326z m-35.213 28.184v-4.319h7.614v-6.881h-7.614v-4.905h9.956V385.14c-3.563-1.024-6.881-1.793-9.956-2.306z m14.239-43.887c4.368 2.172 7.918 4.77 10.651 7.796h-21.01c2.782-3.05 6.235-5.649 10.359-7.796z m-45.791 43.009h6.954V394.84h8.858v-12.884h5.637v-9.444h-5.637v-11.347l6.223 1.464c-0.195-3.904-0.293-7.076-0.293-9.517l-5.93-1.5v-19.144c0-3.075-0.762-5.302-2.287-6.68-1.525-1.379-5.472-1.934-11.842-1.666-0.488 2.782-1.195 5.942-2.123 9.48l4.905-0.182c1.66 0 2.49 1.049 2.49 3.147V349.27c-2.49-0.635-4.832-1.257-7.029-1.867l-0.805 10.103 7.833 1.647v13.36h-6.954v9.444z m83.421-19.254v15.3h29.21v4.979h-27.526v7.613h27.526v5.125h9.956v-5.125h27.526v-7.613h-27.526v-4.978h29.356v-15.154h-10.103v7.613h-21.596a270.879 270.879 0 0 0-12.079-6.515c4.978 0 9.407 0.037 13.287 0.11a146.526 146.526 0 0 1 9.846 5.966l7.175-6.296c-7.272-4.002-18.326-8.711-33.163-14.129l27.27 1.135-5.161 4.063 6.222 5.344c6.735-4.783 12.543-9.102 17.423-12.957l-6.515-6.443a272.723 272.723 0 0 1-4.173 3.587l-17.13-0.658v-12.08c0-2.123-0.537-3.819-1.61-5.088-1.075-1.268-2.545-2.08-4.412-2.434-1.866-0.353-6.35-0.53-13.451-0.53-0.537 3.66-1.172 6.637-1.904 8.93 2.684-0.268 4.954-0.402 6.808-0.402 1.684 0 2.874 0.25 3.57 0.75 0.695 0.5 1.043 1.337 1.043 2.508v7.906c-11.177-0.488-18.815-0.927-22.914-1.317l-2.929 7.906c7.394 2.27 14.41 4.88 21.047 7.833-5.93-0.22-10.236-0.488-12.92-0.805l-2.087 5.856h-10.066z m10.103 0.916c4.026 1.634 8.309 3.916 12.847 6.844h-12.847v-6.844z m6.295-21.12l5.857-6.736c-6.686-4.685-13.226-8.565-19.62-11.64-1.268 2.245-2.928 4.856-4.978 7.833 6.345 2.636 12.592 6.15 18.741 10.542z m32.724-0.074a385.638 385.638 0 0 0 21.523-10.103l-4.905-8.052c-7.711 4.246-14.837 7.784-21.376 10.615l4.758 7.54z m85.544 51.758h10.762v-70.133h-10.762v70.133z m-40.044-37.702h27.526l-1.208-18.924c-0.244-3.295-1.007-5.973-2.288-8.035-1.28-2.062-3.056-3.49-5.326-4.282-2.269-0.793-9.065-1.19-20.388-1.19a123.774 123.774 0 0 1-3.001 10.615c3.709-0.195 7.406-0.293 11.09-0.293 2.978 0 5.01 0.226 6.095 0.677 1.086 0.452 1.812 1.214 2.178 2.288 0.366 1.074 0.72 4.307 1.062 9.7h-27.38l2.416 26.94h25.769v8.346h-27.892v9.444h38.653v-27.233h-26.72l-0.586-8.053z m92.645 3.001c-0.292 1.44-0.707 3.282-1.244 5.527v-3.843H892.21v9.444a83.25 83.25 0 0 0-3.367-3.88c-1.318 2.587-2.465 4.66-3.441 6.222 3.367 3.466 6.1 7.004 8.2 10.615h3.147v1.977h-9.444v5.71h9.444v4.32h7.028v-4.32h7.32v4.32h7.028v-4.32h8.2v-5.71h-8.2v-3.001h-7.027v3.001h-7.321v-3.001h-3.55l-0.952-1.684h24.268l-0.073-3.331c3.758 5.783 6.417 11.872 7.98 18.265l7.174-0.878a86.393 86.393 0 0 0-1.538-5.052h21.157v-6.808h-3.221c-1.44-4.685-3.71-8.736-6.808-12.152 3.294-1.782 7.028-3.026 11.2-3.734a216.122 216.122 0 0 1-3.294-7.467c-5.173 1.269-9.785 3.33-13.836 6.186-4.1-2.758-9.078-4.844-14.934-6.26-1.22 2.929-2.343 5.272-3.368 7.029 4.832 1 8.956 2.44 12.372 4.319a44.171 44.171 0 0 0-4.722 5.966 89.147 89.147 0 0 0-2.525-4.502c-2.026 1.879-3.905 3.514-5.637 4.905-0.147-6.784-0.293-10.786-0.44-12.006a7.04 7.04 0 0 0-1.28-3.313c-0.708-0.988-1.678-1.66-2.91-2.013-1.233-0.354-3.716-0.53-7.45-0.53z m30.784 15.74a21.013 21.013 0 0 1 5.088 7.833h-11.237c1.708-3.026 3.758-5.637 6.15-7.833z m-25.732 0.073h-20.718a69.133 69.133 0 0 0-1.867-2.562h16.289v-6.552c1.562-0.122 2.709-0.183 3.44-0.183 1.587 0 2.46 0.64 2.618 1.921 0.158 1.282 0.238 3.74 0.238 7.376z m-12.3-10.103v3.514h-5.929v-3.514h5.93z m-16.617-25.036h32.065v2.855h-27.087v6.003h27.087v3.148l-27.746-0.586a89.753 89.753 0 0 1-1.39 6.296 1629.55 1629.55 0 0 1 62.298 1.61l1.391-6.588-25.183-0.513v-3.367h24.012v-6.003H928.96v-2.855h29.43v-6.15h-29.43v-0.805c0-2.611-0.634-4.74-1.903-6.387-1.27-1.648-3.435-2.532-6.497-2.654-3.063-0.122-7.169-0.208-12.317-0.256-0.244 1.659-0.855 4.27-1.83 7.833 2.537-0.269 5.075-0.403 7.613-0.403 2.025 0 3.392 0.183 4.1 0.55 0.707 0.365 1.159 1.073 1.354 2.122h-31.955v6.15zM64 455h142.789v-14.279H64V455z"  horiz-adv-x="1024" />

    
    <glyph glyph-name="new" unicode="&#58969;" d="M171.026 297.559L66 371.077l105.026 73.518v100.43C171.026 557.715 181.312 568 194 568h741.744c12.688 0 22.974-10.286 22.974-22.974v-321.641c0-12.689-10.286-22.975-22.974-22.975H194c-12.688 0-22.974 10.286-22.974 22.975v74.174zM484.55 308V481.766H449.44v-99.054c0-11.817 0.374-19.819 1.122-24.007H450c-1.047 1.945-3.926 6.544-8.638 13.798l-70.897 109.263H330.08V308h35.112v98.83c0 12.49-0.336 21.726-1.01 27.708h0.562c1.72-3.59 4.487-8.3 8.3-14.134L446.635 308h37.917z m347.532 124.07H798.43l-17.275-82.451c-1.047-5.16-1.683-9.723-1.907-13.686h-0.898c-0.598 6.88-1.159 11.442-1.682 13.686L756.81 432.07h-34.327l-22.212-81.892c-1.047-3.814-1.757-8.488-2.131-14.022h-0.785c-0.449 5.759-1.047 10.283-1.795 13.574L677.5 432.07h-37.02L675.818 308h37.58l20.53 74.936c1.046 4.038 1.832 9.012 2.355 14.92h0.785a66.112 66.112 0 0 1 2.02-15.369L758.157 308h38.029l35.897 124.07z m-200.577-72.243v15.369c0 18.621-4.954 33.26-14.863 43.918-9.91 10.657-23.651 15.985-41.226 15.985-17.65 0-32.308-6.188-43.975-18.565-11.666-12.378-17.5-28.475-17.5-48.294 0-19.893 5.478-35.41 16.435-46.554 10.956-11.143 26.306-16.715 46.05-16.715 18.322 0 33.13 3.179 44.422 9.535v26.587c-10.47-6.73-22.548-10.096-36.234-10.096-21.912 0-33.504 9.61-34.775 28.83h81.666z m-33.766 22.66h-48.012c1.196 8.376 4.188 15.107 8.974 20.192 4.786 5.086 10.283 7.629 16.49 7.629 15.032 0 22.548-9.274 22.548-27.82z"  horiz-adv-x="1024" />

    
    <glyph glyph-name="zoushi" unicode="&#58970;" d="M94.834 29.915V44.83H79.916C70.966 44.832 65 50.797 65 59.746c0 8.95 5.966 14.915 14.916 14.915h14.916V737.085C94.834 746.035 100.8 752 109.75 752s14.916-5.966 14.916-14.915v-662.422h820.418c8.95 0 14.916-5.966 14.916-14.915 0-8.95-5.966-14.915-14.916-14.915H124.666v-14.915c0-8.952-5.966-14.918-14.916-14.918s-14.916 5.966-14.916 14.915z m74.582 447.464c-8.95 0-14.916 5.966-14.916 14.915 0 8.95 5.966 14.915 14.916 14.915h29.834c8.95 0 14.916-5.966 14.916-14.915 0-8.947-5.966-14.915-14.916-14.915h-29.834z m0 59.663c-8.95 0-14.916 5.966-14.916 14.915 0 8.95 5.966 14.915 14.916 14.915h29.834c8.95 0 14.916-5.966 14.916-14.915 0-8.95-5.966-14.915-14.916-14.915h-29.834z m0 59.662c-8.95 0-14.916 5.965-14.916 14.914 0 8.95 5.966 14.915 14.916 14.915h29.834c8.95 0 14.916-5.965 14.916-14.915 0-8.949-5.966-14.914-14.916-14.914h-29.834z m0 59.66c-8.95 0-14.916 5.967-14.916 14.916 0 8.95 5.966 14.916 14.916 14.916h29.834c8.95 0 14.916-5.965 14.916-14.914 0-8.95-5.966-14.917-14.916-14.917h-29.834z m188.466-264.959C370.98 379.301 388.507 372 407.999 372c19.601 0 37.215 7.383 50.337 19.609l87.258-87.72C533.975 290.717 527 273.31 527 254c0-42 33-75 75-75s75 33 75 75c0 11.37-2.419 22.081-6.78 31.656a19.489 19.489 0 0 1 2.094 1.844l147.492 148.272C833.123 423.45 851.046 416 871 416c42 0 75 33 75 75s-33 74.998-75 75c-42 0-75-33-75-75 0-11.08 2.297-21.535 6.45-30.922-0.63-0.47-1.237-0.995-1.816-1.578L652.646 309.73C639.386 321.753 621.681 329 602 329c-11.759 0-22.812-2.587-32.633-7.233-0.45 0.6-0.95 1.18-1.5 1.733l-89.527 90a15.997 15.997 0 0 1-2.837 2.276C479.685 425.24 482 435.8 482 447c0 42-32.558 75-74 75-41.44 0-74-33-74-75 0-11.283 2.35-21.916 6.59-31.434a16.08 16.08 0 0 1-2.508-2.064l-74.606-75a15.982 15.982 0 0 1-2.44-3.143c-9.897 4.903-21.098 7.641-33.035 7.641C186.56 343 154 310 154 268s32.558-75 74-75c41.44 0 74 33 74 75 0 19.022-6.679 36.199-17.837 49.3l0.203 0.2 73.516 73.905zM169.416 716.028c-8.95 0-14.916 5.966-14.916 14.915 0 8.95 5.966 14.915 14.916 14.915h29.834c8.95 0 14.916-5.966 14.916-14.915 0-8.95-5.966-14.915-14.916-14.915h-29.834z"  horiz-adv-x="1024" />

    
    <glyph glyph-name="zhugezhaofanglogo" unicode="&#58971;" d="M117 362v37h23v-37h-23z m-34.5-85c-4.87 0-9.644 1.973-13.086 5.414C65.973 285.87 64 290.631 64 295.5c0 4.874 1.973 9.644 5.414 13.086C72.856 312.027 77.631 314 82.5 314c4.874 0 9.635-1.973 13.086-5.414A18.648 18.648 0 0 0 101 295.5c0-4.86-1.973-9.63-5.414-13.086A18.648 18.648 0 0 0 82.5 277z m45.457 9c-6.15 0-12.176 5.565-12.176 11.798 0 6.234 4.987 11.288 11.136 11.288h94.566V418.438L158 464.882l-64.354-46.444 0.315-76.867c0-6.234-5.36-11.289-11.51-11.289-6.149 0-11.135 5.055-11.135 11.289L71 424.276c0 3.664 1.754 7.1 4.703 9.214l75.864 54.436a11.015 11.015 0 0 0 12.866 0l75.868-54.436c2.968-2.13 4.722-5.598 4.699-9.286l-0.816-126.482c-0.04-6.201-3.975-11.722-10.097-11.722h-106.13zM178 362v37h23v-37h-23zM779.096 433.005c-3.415 0-6.76 1.388-9.172 3.805a13.122 13.122 0 0 0-3.796 9.192c0 3.422 1.384 6.777 3.796 9.194a13.046 13.046 0 0 0 9.172 3.802 13.07 13.07 0 0 0 9.175-3.802 13.126 13.126 0 0 0 3.794-9.194c0-3.414-1.382-6.765-3.794-9.192a13.072 13.072 0 0 0-9.175-3.805zM316.863 434.831a13.117 13.117 0 0 0-3.797 9.191c0 3.425 1.383 6.777 3.797 9.195a13.038 13.038 0 0 0 9.171 3.802c3.414 0 6.755-1.383 9.175-3.802a13.131 13.131 0 0 0 3.794-9.195c0-3.413-1.384-6.765-3.794-9.19a13.07 13.07 0 0 0-9.175-3.806 13.042 13.042 0 0 0-9.171 3.805zM443.868 337.636H378.63v-9.811c0.054-2.126 0.62-3.515 1.699-4.168 0.757-0.438 2.375-0.654 4.857-0.654h52.371c2.75 0 4.504 0.38 5.258 1.142 0.81 0.819 1.217 1.907 1.217 3.272l-0.163 10.219zM378.63 352.76h65.24l0.08 9.481c0.053 3.269-1.755 4.906-5.422 4.906h-53.503c-2.591 0-4.29-0.408-5.1-1.227-0.864-0.818-1.295-2.237-1.295-4.251v-8.909z m-22.664 2.408v16.8c6.469 5.398 17.237 15.038 22.42 20.276h-22.42v15.121h45.49v15.206h-44.436v15.124h44.435v9.155h14.976v-9.155h44.195v-15.124H416.43v-15.206h45.246v-15.12h-64.79l-11.428-9.974h58.41c10.145 0 15.219-5.205 15.219-15.616v-41.283c0-5.34-0.647-8.993-1.945-10.954-2.805-4.36-6.908-6.54-12.303-6.54h-65.482c-5.558 0-9.605 1.419-12.14 4.25-2.375 2.671-3.563 6.761-3.563 12.263v38.01l-7.69-7.233zM313.064 401.4v15.125h11.576c6.475 0 10.792-0.738 12.953-2.207 2.102-1.472 3.643-3.053 4.61-4.744 1.245-2.18 1.865-5.34 1.865-9.481v-91.16h-14.975V393.88c0 3.053-0.404 5.04-1.214 5.967-0.81 1.035-2.565 1.553-5.261 1.553h-9.554zM608.22 392.079H498.786v-1.227c0-1.745 1.674-2.614 5.017-2.614h99.48c3.292 0 4.937 1.034 4.937 3.106v0.735z m-109.434 13.08H608.22v0.98c0 0.872-0.297 1.499-0.89 1.88-0.541 0.33-2.376 0.492-5.505 0.492h-94.863c-4.533 0-7.069-0.246-7.61-0.735-0.376-0.327-0.566-0.876-0.566-1.637v-0.98z m-14.245-20.52v27.878c0 3.268 0.81 5.586 2.428 6.947 1.782 1.58 5.261 2.372 10.442 2.372h112.427c5.344 0 8.877-0.819 10.605-2.453 1.348-1.307 2.025-3.487 2.025-6.54v-25.097c0-5.013-0.677-8.258-2.025-9.727-1.568-1.691-4.694-2.534-9.388-2.534H496.601c-4.964 0-8.31 0.843-10.038 2.534-1.348 1.361-2.022 3.568-2.022 6.62z m-4.534-42.758V361.18c3.24 2.651 7.654 7.892 12.71 12.999h16.51l-3.93-4.09h105.758c5.341 0 8.874-0.573 10.602-1.715 4.1-2.78 6.152-6.351 6.152-10.71v-35.233c0-4.306-1.244-7.685-3.723-10.138-1.458-1.415-2.672-2.315-3.643-2.699-1.891-0.707-4.777-1.061-8.66-1.061h-13.194V322.43h8.173c1.888 0 3.293 0.462 4.21 1.388 0.917 0.927 1.375 2.972 1.375 6.132v17.658c0 3.65-0.458 5.94-1.375 6.867-0.97 0.98-2.212 1.472-3.723 1.472h-41.2c4.047-3.76 8.227-6.678 12.547-8.746 4.153-1.965 9.39-3.626 15.703-4.99v-12.995c-9.661 1.96-17.214 4.194-22.665 6.701-5.828 2.618-11.763 6.732-17.808 12.345-6.098-5.724-12.493-10-19.182-12.834-5.45-2.236-12.493-4.305-21.127-6.212V342.21c5.992 1.526 10.9 3.11 14.732 4.744 4.64 2.015 8.957 5.013 12.95 8.992h-48.123c-2.35-2.375-3.084-3.466-5.4-5.805h14.833v-18.393c0-2.398 0.27-3.925 0.81-4.578 0.918-0.98 3.293-1.473 7.123-1.473h84.584V311.8h-92.517c-5.451 0-9.441 1.23-11.977 3.68-2.485 2.51-3.726 6.35-3.726 11.526V349.25l-6.799-7.37z m-1.05 87.23v12.752h22.337v5.397h14.976v-5.397h74.466v5.397h14.975v-5.397h22.585v-12.753H605.71v-5.313h-14.975v5.313H516.27v-5.313h-14.976v5.313h-22.338zM831.904 411.944h106.925c2.482 0 4.047 0.3 4.694 0.9 0.864 0.87 1.294 2.177 1.294 3.922v3.271c0 1.853-0.513 3.353-1.538 4.498-0.754 0.816-2.562 1.223-5.424 1.223H848.82c-7.069 0-11.332-0.434-12.79-1.307-2.749-1.634-4.126-4.495-4.126-8.582v-3.925z m-14.976-104.272V418.646c0 14.825 8.15 22.237 24.446 22.237h39.742v6.95h15.056v-6.95h44.115c6.582 0 10.872-0.68 12.87-2.042 4.314-2.89 6.472-7.47 6.472-13.736v-13.652c0-4.36-1.348-7.928-4.046-10.708-2.536-2.615-5.935-3.925-10.199-3.925h-38.85v-9.238h53.095v-15.122h-98.865l-0.07-11.772h77c7.016 0 11.547-0.707 13.598-2.126 4.534-3.16 6.8-7.658 6.8-13.487v-13.244c0-7.793-0.241-12.399-0.728-13.817-0.971-2.723-2.806-5.122-5.505-7.194-2.211-1.634-5.964-2.452-11.249-2.452h-17.08V321.53h11.656c2.969 0 4.964 0.6 5.988 1.8 1.135 1.253 1.702 3.106 1.702 5.558v10.3c0 3.376-0.404 5.475-1.215 6.294-0.97 1.034-3.129 1.553-6.475 1.553h-75.455c-0.404-2.588-0.208-39.364-0.208-39.364h-12.202l-0.205 64.788h-9.465v15.122h53.907v9.238h-59.654v-89.148h-14.976zM714.862 319.65v18.72l35.372 24.362c-2.913 11.497-5.451 25.775-7.61 42.837h-25.737v15.04h23.472l-3.886 26.732h15.135l3.967-26.732h38.774v-15.04H757.76c1.945-14.01 3.833-25.236 5.668-33.682 6.421 4.36 10.495 8.228 12.223 11.61 0.807 1.58 1.588 3.895 2.345 6.947h15.299c0-2.78-0.594-5.667-1.781-8.665-2.159-5.451-5.181-10.22-9.064-14.306-2.97-3.106-7.8-6.813-14.489-11.118 4.37-10.846 8.874-18.8 13.518-23.868 3.396-3.763 7.85-6.816 13.354-9.158v-15.124c-7.34 1.691-12.977 3.979-16.917 6.866-5.665 4.198-10.682 9.838-15.055 16.924-2.266 3.649-4.83 8.854-7.69 15.613l-40.309-27.958zM688.152 416.85h23.876v15.613h-23.876V446.36h-14.975v-13.898h-28.653v-15.613h28.653v-40.56l-28.653-10.445V350.1l28.653 10.444V336.328c0-3.817-0.27-6.57-0.808-8.258-0.273-0.764-0.84-1.607-1.7-2.533-1.836-1.907-5.101-2.86-9.795-2.86h-6.719v-15.206h9.39c4.478 0 7.957 0.38 10.442 1.142 4.314 1.365 7.85 4.006 10.602 7.931 2.376 3.38 3.563 9.481 3.563 18.312v31.145l23.086 8.411v15.745l-23.086-8.414V416.85z"  horiz-adv-x="1024" />

    
    <glyph glyph-name="shouji" unicode="&#58972;" d="M512-64C264.576-64 64 136.576 64 384S264.576 832 512 832s448-200.576 448-448-200.576-448-448-448z m0 14c239.14 0 433 194.085 433 433.5S751.14 817 512 817 79 622.915 79 383.5 272.86-50 512-50z m-79.034 665.724h173.517c33.137 0 60-26.863 60-60v-328.641c0-33.137-26.863-60-60-60H432.966c-33.138 0-60 26.863-60 60V555.724c0 33.137 26.862 60 60 60z m4-14c-28.72 0-52-23.281-52-52v-316.638c0-28.719 23.28-52 52-52h166c28.718 0 52 23.281 52 52V549.724c0 28.719-23.282 52-52 52h-166z m86.885-400.019c-19.39 0-35.102 16.06-35.102 35.875 0 19.827 15.712 35.886 35.102 35.886 19.388 0 35.103-16.06 35.103-35.886 0-19.815-15.715-35.875-35.103-35.875z m-53.887 370.848h86.22v-21.589h-86.22v21.589z m54.002-353.829c10.493 0 19 8.507 19 19 0 10.494-8.507 19-19 19-10.494 0-19-8.506-19-19 0-10.493 8.506-19 19-19z"  horiz-adv-x="1024" />

    
    <glyph glyph-name="zhianxiankuang" unicode="&#58973;" d="M512 192.06l198.674-104.431-37.943 221.187L833.45 465.45 611.34 497.719 512 698.972l-99.341-201.253-222.109-32.268L351.27 308.816l-37.943-221.187L512 192.059z m0-66.521L235.12-20 288 288.256 64 506.565l309.56 44.974L512 832l138.44-280.461L960 506.565 736 288.256 788.88-20 512 125.539z"  horiz-adv-x="1024" />

    
    <glyph glyph-name="zhugezhaofanglogocopy" unicode="&#58974;" d="M557.246512 281.6V457.823256h109.544186v-176.223256h-109.544186z m-164.316279-404.837209c-23.194791 0-45.932353 9.396986-62.32588 25.785749C314.215591-80.991256 304.818605-58.315609 304.818605-35.125581c0 23.213842 9.396986 45.932353 25.785748 62.325879C346.997879 43.58906 369.740205 52.986047 392.930233 52.986047c23.213842 0 45.889488-9.396986 62.325879-25.785749A88.816521 88.816521 0 0 0 481.04186-35.125581c0-23.147163-9.396986-45.865674-25.785748-62.325879A88.816521 88.816521 0 0 0 392.930233-123.237209z m216.502176 42.865116c-29.291163 0-57.99174 26.50493-57.991739 56.191405 0 29.691237 23.752037 53.762381 53.038437 53.762381h450.398065V550.402381L752.52093 771.605433 446.016298 550.402381l1.500279-366.101432c0-29.691237-25.528558-53.767144-54.819721-53.767144-29.2864 0-53.033674 24.075907-53.033675 53.767144L338.15814 578.207553c0 17.450865 8.353935 33.815814 22.399404 43.884354l361.324354 259.267274a52.46214 52.46214 0 0 0 61.278065 0l361.343404-259.267274c14.135963-10.144744 22.489898-26.662102 22.380354-44.227274l-3.886437-602.407293c-0.190512-29.534065-18.932093-55.829433-48.089898-55.829433h-505.474977zM847.776744 281.6V457.823256h109.544186v-176.223256h-109.544186zM3710.671181 619.781953c-16.26493 0-32.196465 6.610753-43.684316 18.122419a62.49734 62.49734 0 0 0-18.079553 43.779572c0 16.29827 6.591702 32.277433 18.079553 43.789098a62.135367 62.135367 0 0 0 43.684316 18.10813 62.249674 62.249674 0 0 0 43.698605-18.10813 62.516391 62.516391 0 0 0 18.070028-43.789098c0-16.260167-6.582177-32.220279-18.070028-43.779572a62.2592 62.2592 0 0 0-43.698605-18.122419zM1509.152149 628.478809a62.473526 62.473526 0 0 0-18.084316 43.77481c0 16.312558 6.58694 32.277433 18.084316 43.79386a62.097265 62.097265 0 0 0 43.679553 18.10813c16.260167 0 32.172651-6.58694 43.698605-18.10813a62.540205 62.540205 0 0 0 18.070028-43.79386c0-16.255405-6.591702-32.220279-18.070028-43.770047a62.249674 62.249674 0 0 0-43.698605-18.127181 62.116316 62.116316 0 0 0-43.679553 18.122418zM2114.050381 165.559367H1803.335442v-46.727739c0.257191-10.125693 2.95293-16.741209 8.091981-19.851312 3.605433-2.086102 11.311628-3.114865 23.132875-3.114865h249.432111c13.097674 0 21.451609 1.80986 25.042754 5.439107 3.85786 3.900726 5.796316 9.082642 5.796316 15.583851l-0.776335 48.670958zM1803.335442 237.591814h310.724465l0.381023 45.156019c0.252428 15.569563-8.358698 23.366251-25.823851 23.366251h-254.823591c-12.340391 0-20.432372-1.943219-24.290232-5.843944-4.115051-3.895963-6.167814-10.654363-6.167814-20.246624v-42.431702z m-107.943889 11.4688v80.014884c30.810493 25.709544 82.096223 71.622847 106.781768 96.570344h-106.781768V497.664h216.659349V570.086995h-211.639367V642.119442h211.634605V685.722791h71.327553v-43.603349h210.491535v-72.032447H1983.36893v-72.422995h215.497228v-72.013395h-308.581209l-54.429172-47.504075h278.194604c48.318512 0 72.484912-24.790326 72.484912-74.375739v-196.622289c0-25.433302-3.081526-42.831777-9.263628-52.171609-13.359628-20.765767-32.901358-31.148651-58.596614-31.148651h-311.87706c-26.471591 0-45.746605 6.7584-57.820279 20.24186-11.311628 12.721414-16.969823 32.201228-16.969824 58.406103v181.033674l-36.62586-34.449265zM1491.058307 469.253953V541.291163h55.134065c30.83907 0 51.400037-3.51494 61.692428-10.511479 10.011386-7.010828 17.350847-14.5408 21.956465-22.594679 5.929674-10.382884 8.882605-25.433302 8.882605-45.156019v-434.176h-71.322791V433.437767c0 14.5408-1.924167 24.004465-5.782028 28.419573-3.85786 4.929488-12.216558 7.396614-25.057042 7.396613h-45.503702zM2896.824558 424.859981H2375.613321v-5.843944c0-8.31107 7.972912-12.449935 23.894921-12.449935h473.802418c15.679107 0 23.513898 4.924726 23.513898 14.793228v3.500651z m-521.211237 62.297303H2896.824558v4.667535c0 4.153153-1.414549 7.139423-4.238884 8.954046-2.57667 1.571721-11.316391 2.343293-26.219162 2.343293h-451.812614c-21.58973 0-33.668167-1.171647-36.244838-3.500651-1.790809-1.557433-2.69574-4.172205-2.695739-7.796688v-4.667535z m-67.845954-97.732465V522.20666c0 15.5648 3.85786 26.604949 11.564056 33.087107 8.487293 7.525209 25.057042 11.29734 49.733061 11.29734h535.466269c25.452353 0 42.279293-3.900726 50.509396-11.683126 6.420242-6.224967 9.644651-16.607851 9.644651-31.148651v-119.531758c0-23.87587-3.224409-39.331126-9.644651-46.327665-7.468056-8.053879-22.35654-12.068912-44.713079-12.068912H2365.206623c-23.642493 0-39.578791 4.015033-47.808893 12.068912-6.420242 6.482158-9.630363 16.993637-9.630363 31.529674z m-21.594493-203.647405V277.694512c15.431442 12.626158 36.4544 37.587944 60.53507 61.911516h78.633675l-18.717768-19.479814h503.703219c25.438065 0 42.265005-2.729079 50.495107-8.168186 19.527442-13.240558 29.300688-30.248484 29.300688-51.009488v-167.807405c0-20.508577-5.924912-36.602047-17.73187-48.285172-6.944149-6.739349-12.726177-11.02586-17.350846-12.854772-9.006437-3.367293-22.751851-5.053321-41.245768-5.053321h-62.84026V93.136372h38.926288c8.992149 0 15.68387 2.200409 20.051349 6.610754 4.367479 4.415107 6.548837 14.155014 6.548837 29.205432v84.101358c0 17.384186-2.181358 28.290977-6.548837 32.706084-4.619907 4.667535-10.535293 7.010828-17.73187 7.010828h-196.226976c19.275014-17.908093 39.183479-31.805916 59.758735-41.655368 19.77987-9.358884 44.722605-17.269879 74.790102-23.766325v-61.892465c-46.013321 9.33507-81.986679 19.975144-107.948651 31.91546-27.757544 12.468986-56.024707 32.063107-84.815777 58.796651-29.043498-27.262214-59.501544-47.627907-91.359851-61.125655-25.957209-10.6496-59.501544-20.503814-100.623479-29.586456V187.344372c28.538642 7.268019 51.914419 14.812279 70.165432 22.594679 22.099349 9.597023 42.660316 23.87587 61.67814 42.827014h-229.199777c-11.192558-11.311628-14.688447-16.507833-25.71907-27.648h70.646475v-87.602009c0-11.421172 1.285953-18.693953 3.85786-21.804056 4.372242-4.667535 15.68387-7.015591 33.925358-7.015591h402.855889V42.507907h-440.639107c-25.961972 0-44.965507 5.858233-57.043944 17.52707-11.835535 11.954605-17.746158 30.243721-17.746159 54.895925V220.874419l-32.382214-35.101768z m-5.00093 415.458233V661.965991h106.386456V687.675535h71.327553v-25.704782h354.665973V687.675535h71.32279v-25.704782h107.567628V601.230884H2884.869953v-25.304707h-71.32279V601.230884H2458.885953v-25.304707h-71.327553V601.230884h-106.391219zM3962.184633 519.472819h509.261395c11.821247 0 19.275014 1.428837 22.356539 4.286511 4.115051 4.143628 6.163051 10.368595 6.163052 18.679665v15.579089c0 8.825451-2.443312 15.969637-7.325172 21.423032-3.591144 3.886437-12.20227 5.824893-25.833377 5.824893H4042.752c-33.668167 0-53.971944-2.067051-60.916093-6.224967-13.092912-7.7824-19.651274-21.408744-19.651274-40.87427v-18.693953z m-71.327554-496.625712V551.393042c0 70.608372 38.816744 105.910177 116.431181 105.910177h189.282828v33.101395h71.708577v-33.101395h210.110512c31.348688 0 51.78106-3.238698 61.297116-9.725619 20.546679-13.764465 30.824781-35.578047 30.824781-65.421693v-65.021619c0-20.765767-6.420242-37.759405-19.270251-50.999962-12.078437-12.454698-28.267163-18.693953-48.575702-18.693954h-185.034419v-43.99866h252.880372v-72.022921h-470.873302l-0.333395-56.067572h366.734883c33.41574 0 54.995944-3.367293 64.764428-10.125693 21.594493-15.050419 32.386977-36.473451 32.386977-64.235759v-63.0784c0-37.116428-1.147833-59.053842-3.467312-65.807479-4.62467-12.969079-13.364391-24.395014-26.219162-34.263516-10.53053-7.7824-28.405284-11.678363-53.576633-11.678363h-81.348465V88.84986h55.515088c14.140726 0 23.642493 2.857674 28.519591 8.573024 5.405767 5.967777 8.10627 14.793228 8.10627 26.47159v49.056745c0 16.079181-1.924167 26.076279-5.786791 29.977004-4.619907 4.924726-14.902772 7.396614-30.83907 7.396614h-359.376372c-1.924167-12.326102-0.99066-187.482493-0.99066-187.482493h-58.115572l-0.976372 308.571684h-45.079814v72.022921h256.747758V447.440372h-284.119516v-424.593265h-71.327554zM3404.738084 79.895814v89.159442l168.469432 116.031107c-13.874009 54.757805-25.961972 122.76093-36.244837 204.023665h-122.579944v71.632372h111.792223l-18.508205 127.318921h72.084838l18.89399-127.318921h184.672447v-71.632372H3609.052279c9.263628-66.726698 18.255777-120.193786 26.995498-160.420316 30.581879 20.765767 49.985488 39.188242 58.21559 55.296 3.843572 7.525209 7.563312 18.55107 11.168745 33.087107h72.865935c0-13.240558-2.829098-26.990735-8.482531-41.269582-10.282865-25.961972-24.676019-48.675721-43.169935-68.136484-14.145488-14.793228-37.149767-32.448893-69.008074-52.952706 20.813395-51.657228 42.265005-89.540465 64.383405-113.678289 16.174437-17.922381 37.387907-32.463181 63.602307-43.617637v-72.032447c-34.958884 8.053879-61.806735 18.951144-80.572131 32.701321-26.981209 19.994195-50.87613 46.856335-71.703814 80.60547-10.792484 17.379423-23.004279 42.169749-36.62586 74.361451l-191.98333-133.158102zM3277.523944 542.83907h113.716391V617.200521h-113.716391V683.389023h-71.322791v-66.193265h-136.468241V542.83907h136.468241v-193.178791l-136.468241-49.747349V224.922791l136.468241 49.742586V159.329637c0-18.179572-1.285953-31.291535-3.848334-39.331125-1.300242-3.638772-4.000744-7.653805-8.096745-12.064149-8.744484-9.082642-24.294995-13.621581-46.651534-13.621582h-32.001191v-72.422995h44.722604c21.327777 0 37.897526 1.80986 49.733061 5.439107 20.546679 6.501209 37.387907 19.07974 50.495107 37.773693 11.316391 16.098233 16.969823 45.156019 16.969823 87.216223v148.337117l109.953786 40.059832v74.99014l-109.953786-40.074121V542.83907z"  horiz-adv-x="4877" />

    
    <glyph glyph-name="huodong" unicode="&#59006;" d="M225.28 187.0848V-128H153.6V896h716.8l-143.36-354.4576 143.36-354.4576H225.28z"  horiz-adv-x="1024" />

    
    <glyph glyph-name="baoming" unicode="&#59007;" d="M512 341.333333c-146.67581 0-265.99619 114.834286-265.99619 256V640C246.00381 781.165714 365.348571 896 512 896s265.99619-114.834286 265.99619-256v-42.666667c0-141.165714-119.320381-256-265.99619-256z m324.583619-127.195428c95.963429-25.6 163.035429-110.201905 163.035429-205.824V-128H24.380952v136.313905c0 95.622095 67.047619 180.224 163.035429 205.824 208.579048 55.588571 440.636952 55.588571 649.167238 0z"  horiz-adv-x="1024" />

    
    <glyph glyph-name="denglu" unicode="&#59008;" d="M511.232 896C228.864 896 0 667.136 0 384.768s228.864-511.232 511.232-511.232 511.232 228.864 511.232 511.232S793.6 896 511.232 896z m0-957.2352c-112.9984 0-216.32 43.3664-295.424 111.872 7.9872 147.456 123.9552 264.3968 270.08 276.6848a160.1024 160.1024 0 1 0 50.688 0c146.1248-12.288 262.144-129.024 270.1312-276.48-79.1552-68.5056-182.4768-112.128-295.4752-112.128z"  horiz-adv-x="1024" />

    
    <glyph glyph-name="daba" unicode="&#59009;" d="M912.691694 144.92218v-52.401814c0-16.740087-1.78086-31.298619-5.342581-43.631077-3.561721-12.4215-9.972818-22.260753-19.233291-29.517759-9.260473-7.257006-23.151184-10.907769-41.672131-10.907769v-67.67269c0-18.92164-6.589183-35.127469-19.767549-48.572964A64.11097 64.11097 0 0 0 779.127173-127.994657c-18.520947 0-34.192517 6.722748-47.014711 20.212764a67.939819 67.939819 0 0 0-19.233291 48.528442v67.717212H311.117093v-67.67269c0-18.92164-6.411097-35.127469-19.233291-48.572964C279.061608-121.316431 263.390038-127.994657 244.869091-127.994657a64.11097 64.11097 0 0 0-47.548969 20.212764 66.960346 66.960346 0 0 0-19.767549 48.528442v67.717212c-17.808603 0-31.343141 3.650764-40.603615 10.907769a56.008056 56.008056 0 0 0-19.233291 29.473238c-3.561721 12.376979-5.520667 26.757426-5.876838 43.14134A2444.230726 2444.230726 0 0 0 111.30457 144.92218V759.49706c0 18.92164 3.561721 36.552157 10.685162 52.980593 7.123441 16.339393 16.740087 30.71984 28.849937 43.096819s26.178646 22.17171 42.206388 29.473237C209.073799 892.349236 226.348144 896 244.869091 896h534.258082c18.520947 0 35.795292-3.650764 51.823034-10.907769 16.027742-7.301527 30.096539-17.096259 42.206389-29.473238 12.10985-12.376979 21.726495-26.757426 28.849936-43.14134 7.123441-16.383915 10.685162-34.014431 10.685162-52.936071V144.92218zM376.296579 828.32731a31.61027 31.61027 0 0 1-23.507355-9.794732 33.034958 33.034958 0 0 1-9.616646-24.041614c0-10.239947 3.205548-18.565468 9.616646-25.110129a31.61027 31.61027 0 0 1 23.507355-9.839253h271.403106a31.61027 31.61027 0 0 1 23.507356 9.794731 34.415125 34.415125 0 0 1 9.616645 25.154651 33.034958 33.034958 0 0 1-9.616645 24.041614 31.61027 31.61027 0 0 1-23.507356 9.794732H376.296579zM275.85606 134.01441c13.534538 0 25.11013 4.897366 34.726775 14.692098 9.616645 9.883775 14.424968 21.681974 14.424968 35.528162 0 13.801667-4.808323 25.644388-14.424968 35.483641a46.836625 46.836625 0 0 1-34.726775 14.692097c-14.246882 0-26.00056-4.897366-35.261034-14.692097a49.864088 49.864088 0 0 1-13.89071-35.483641c0-13.801667 4.630237-25.644388 13.89071-35.483641 9.260473-9.794732 21.014151-14.736619 35.261034-14.736619z m468.01008 2.181554a43.052297 43.052297 0 0 1 32.589743 14.202361c8.904301 9.438559 13.356452 20.747022 13.356452 33.836345s-4.452151 24.353264-13.356452 33.836345a43.052297 43.052297 0 0 1-32.589743 14.202361 44.254378 44.254378 0 0 1-33.658259-14.246882c-8.904301-9.438559-13.356452-20.702501-13.356453-33.836345 0-13.044802 4.452151-24.353264 13.356453-33.836346 8.904301-9.438559 20.123721-14.157839 33.658259-14.157839z m102.577551 555.628406H177.552573v-272.916837h668.891118v272.916837z"  horiz-adv-x="1024" />

    
    <glyph glyph-name="icon-test" unicode="&#59010;" d="M1971.524159 689.263579c22.179274 0 36.766411-5.544818 43.676108-16.634455a21178.903032 21178.903032 0 0 1 79.07764-133.203599h-112.346551l-29.131623 56.173275c-8.317228 15.269577-20.814395 22.904365-37.44885 22.904366h-185.196934l-24.951683-52.035988c-5.544818-16.634455-18.041986-25.634122-37.44885-27.041653h-77.030324l49.988671 116.526491c9.682106 22.179274 24.90903 33.26891 45.723425 33.26891h285.088971z m-372.441187-499.417528v68.670444h195.56148v24.994335c0 23.586804-13.136954 35.35888-39.538821 35.35888h-147.705431v70.760413h187.244252v27.041653c0 24.994335-13.136954 37.44885-39.538821 37.44885h-149.795401V524.88104h472.333222v-70.760414h-185.196934v-64.490503h183.106964v-70.760413H1892.48917v-60.353215h193.514162v-22.861713c0-30.496501-15.269577-45.766078-45.766078-45.766078H1599.04032zM2531.252249 689.263579c45.766078 0 69.352882-21.496834 70.760413-64.533156v-124.843719h-185.196934v-18.724425h206.01133v-54.083305H2123.40953V481.162279h208.058647c0 12.497168-12.497168 18.767078-37.44885 18.767078H2148.403865V624.730423c0 43.036321 22.904365 64.533156 68.670444 64.533156h314.220593z m-322.495168-278.819061h343.352216c37.406198 0 56.130623-16.634455 56.130623-49.946018v-70.760413h-181.016994v-99.892036h-89.484839v66.623126c0 22.179274-14.587138 33.26891-43.676108 33.26891h-145.700766v70.760413c0 33.26891 20.131956 49.903366 60.395868 49.903366z m270.45918-47.856047h-251.777407v-27.041653h289.226258v6.227257c0 13.862046-12.454515 20.814395-37.448851 20.814396z m6.26991-89.484839h70.717761c15.269577-1.407531 26.401866-7.634788 33.26891-18.767078l27.084306-62.400533H2522.892369l-37.44885 81.167611z m-222.645784 0l-27.041653-79.077641h-93.622126l31.17894 79.077641h89.484839z m214.285904 301.680773H2233.708764v-22.861713h282.956348v6.227258c0 12.497168-13.179607 18.041986-39.538821 16.634455zM1867.964012-33.695435H239.408197C107.185605-33.695435 0 74.087304 0 206.949683v26.145952c0 132.905032 107.185605 240.730423 239.45085 240.730423a30.283239 30.283239 0 0 0 0-60.566478c-98.74042 0-178.927024-80.613129-178.927025-180.121293v-26.188604c0-99.508164 80.186604-180.121293 178.927025-180.121292h1628.47051v93.835388l248.365211-124.118627L1867.92136-127.65878v93.920693zM2233.708764 614.323226h282.956348v8.35988c0 11.089637-13.179607 16.634455-39.538821 16.634455H2233.708764v-24.994335z m-1596.566478-231.560147v-84.025325c-1.535488-45.382206-28.022659-68.841053-79.461513-70.333889H342.02999v77.200933h204.305232v68.115962c-4.563812 28.747751-24.951683 44.614462-61.29157 47.642785h-97.674109V503.085638h158.923026v63.552149c-4.52116 30.283239-25.719427 46.917694-63.552149 49.946018h-140.753082V698.263246h206.565811c57.495501-1.492836 87.010996-28.747751 88.546484-81.679441v-79.461512c0-33.26891-17.402199-59.03099-52.206597-77.200933 33.26891-13.606131 50.67111-39.325558 52.206597-77.158281z m373.166278 43.078974v-113.455515c-3.028324-52.974342-34.847051-80.954349-95.370877-83.982673h-136.18927c-55.960013 1.492836-84.750417 29.515495-86.243252 83.982673V591.632123c0 71.101633 35.572143 106.673775 106.673775 106.673775h192.95968v-81.722093h-208.869043v-97.588803h133.92869c60.566478-1.535488 91.532156-32.543819 93.067644-93.067644v-0.042653z m-90.849717-120.279907v81.722093c-2.985671 30.283239-23.458847 46.917694-61.248917 49.946018h-74.940353v-131.668111h136.18927z m448.106631 286.069977v-254.208598c-1.492836-71.186938-38.600467-107.484172-111.237587-108.977007h-90.764412c-71.144285 2.985671-108.209264 37.022326-111.237588 102.109963V587.068311c3.028324 71.101633 40.861046 108.166611 113.455515 111.194935h88.546485c69.608797-4.52116 106.716428-40.093302 111.237587-106.631123z m-90.807064-245.166278V577.983339c-1.492836 24.226591-15.098967 37.107631-40.818394 38.600466h-52.24925c-24.183939-1.535488-37.022326-14.373875-38.557814-38.600466v-233.778074c1.492836-24.226591 14.373875-37.107631 38.557814-38.600467h49.946018c27.254915 1.535488 41.62879 15.141619 43.121626 40.861047z m169.031656 339.982672a104.754415 104.754415 0 1 0 0 209.551483 104.754415 104.754415 0 0 0 0-209.551483z m0 60.566478a44.23059 44.23059 0 1 1 0 88.46118 44.23059 44.23059 0 0 1 0-88.46118z m918.81906-780.71043a30.283239 30.283239 0 0 0 0 60.523826h363.697434c97.759414 0 177.220926 80.570477 177.220927 180.121292v26.145952c0 99.593469-79.504165 180.163945-177.220927 180.163945a30.283239 30.283239 0 0 0 0 60.566478c131.369543 0 237.744752-107.910696 237.744752-240.687771v-26.188604c0-132.777074-106.332556-240.645118-237.744752-240.645118H2364.651783z"  horiz-adv-x="2985" />

    
    <glyph glyph-name="dianhua2" unicode="&#59011;" d="M206.2336 452.5568a856.7296 856.7296 0 0 1 374.8864-374.6304l125.1328 125.44a57.088 57.088 0 0 0 57.7536 13.9264c63.744-20.992 132.3008-32.4096 203.1104-32.4096 31.5904 0 56.8832-25.2928 56.8832-56.8832v-199.1168c0-31.5904-25.2928-56.8832-56.8832-56.8832C432.9472-128 0 304.9472 0 839.1168 0 870.7072 25.6 896 56.8832 896H256c31.5904 0 56.8832-25.2928 56.8832-56.8832 0-70.8096 11.3664-139.3664 32.4096-203.1104 6.2976-19.6096 1.7408-42.0864-13.9264-57.7536L206.2336 452.608z"  horiz-adv-x="1024" />

    
    <glyph glyph-name="dianhuaqueren" unicode="&#59012;" d="M967.111111 184.888889c-70.826667 0-139.093333 11.377778-203.093333 32.426667-19.626667 6.257778-42.097778 1.706667-57.742222-13.937778l-125.155556-125.44A858.197333 858.197333 0 0 0 206.222222 452.551111l125.155556 125.44c15.644444 15.644444 20.195556 38.115556 13.937778 57.742222C324.266667 699.733333 312.888889 768.284444 312.888889 839.111111c0 31.573333-25.315556 56.888889-56.888889 56.888889H56.888889C25.315556 896 0 870.684444 0 839.111111c0-534.186667 432.924444-967.111111 967.111111-967.111111 31.573333 0 56.888889 25.315556 56.888889 56.888889v199.111111c0 31.573333-25.315556 56.888889-56.888889 56.888889z m-56.888889 199.111111h113.777778c0 282.737778-229.262222 512-512 512v-113.777778c219.875556 0 398.222222-178.346667 398.222222-398.222222z m-227.555555 0h113.777777c0 157.013333-127.431111 284.444444-284.444444 284.444444v-113.777777c94.151111 0 170.666667-76.515556 170.666667-170.666667z"  horiz-adv-x="1024" />

    
    <glyph glyph-name="dingyue" unicode="&#59013;" d="M819.2 844.8H204.8v-861.4912l307.2 263.3216 307.2-263.3216V844.8zM153.6 896h716.8v-1024l-358.4 307.2-358.4-307.2V896z m102.4-204.8h512v-51.2H256V691.2z"  horiz-adv-x="1024" />

    
    <glyph glyph-name="duanxin" unicode="&#59014;" d="M921.6 896H102.4C45.824 896 0.512 850.176 0.512 793.6L0-128l204.8 204.8h716.8c56.576 0 102.4 45.824 102.4 102.4V793.6c0 56.576-45.824 102.4-102.4 102.4zM358.4 435.2h-102.4v102.4h102.4v-102.4z m204.8 0h-102.4v102.4h102.4v-102.4z m204.8 0h-102.4v102.4h102.4v-102.4z"  horiz-adv-x="1024" />

    
    <glyph glyph-name="ditie" unicode="&#59015;" d="M0.256-127.829333V383.829333a511.658667 511.658667 0 0 0 1023.317333 0v-511.658666H0.256z m852.906667 674.986666c0 99.328-84.906667 179.797333-189.610667 179.797334H360.277333c-104.704 0-189.525333-80.469333-189.525333-179.797334V223.573333c0-73.813333 46.933333-137.642667 114.005333-165.632l-101.973333-185.770666h125.866667l19.456 42.666666h368.64l19.456-42.666666h125.866666L739.84 58.368c66.56 28.16 113.237333 91.648 113.237333 165.205333V547.157333zM256 469.077333c0 70.656 57.258667 127.914667 128 127.914667h255.744c70.570667 0 127.914667-57.258667 127.914667-128v-127.829333H256V469.077333z m362.410667 170.496H405.333333a21.333333 21.333333 0 0 0 0 42.666667h213.162667a21.333333 21.333333 0 0 0 0-42.666667zM314.794667 244.650667l35.84-10.410667c29.696-8.618667 53.76-39.253333 53.76-68.437333s-24.064-45.824-53.76-37.205334l-35.84 10.410667c-29.696 8.533333-53.76 39.253333-53.76 68.352 0 29.184 24.064 45.909333 53.76 37.290667zM638.208 42.666667l38.997333-85.333334H347.648l38.997333 85.333334h251.562667z m34.986667 85.845333c-29.696-8.618667-53.76 8.021333-53.76 37.205333 0 29.184 24.064 59.733333 53.76 68.437334l35.84 10.410666c29.696 8.533333 53.76-8.106667 53.76-37.290666 0-29.184-24.064-59.733333-53.76-68.352l-35.84-10.410667z"  horiz-adv-x="1024" />

    
    <glyph glyph-name="duanxinyanzheng" unicode="&#59016;" d="M512 896L102.4 709.8368v-279.296C102.4 172.032 276.9408-69.12 512-128c235.0592 58.88 409.6 300.032 409.6 558.592V709.7856L512 896z m0-511.488h318.5664c-24.064-191.7952-148.992-362.6496-318.5664-415.9488V384H193.4336V649.3184L512 794.0608v-409.6z"  horiz-adv-x="1024" />

    
    <glyph glyph-name="fangjia" unicode="&#59017;" d="M866.304 896H157.696A157.610667 157.610667 0 0 1 0 738.304v-84.053333a39.850667 39.850667 0 0 0 12.202667-8.106667l243.712-243.712L436.906667 583.509333a39.253333 39.253333 0 0 0 55.637333 0l221.866667-221.866666 33.194666 33.024a26.88 26.88 0 0 0 44.970667-11.946667l47.274667-176.213333a26.88 26.88 0 0 0-32.938667-32.938667l-176.128 47.189333a26.88 26.88 0 0 0-12.117333 45.056l40.106666 40.106667L464.810667 500.053333 283.733333 318.890667a39.253333 39.253333 0 0 0-55.637333 0L0 546.986667v-517.290667C0-57.514667 70.485333-128 157.696-128h708.608c87.04 0 157.696 70.485333 157.696 157.696V738.304A157.610667 157.610667 0 0 1 866.304 896z"  horiz-adv-x="1024" />

    
    <glyph glyph-name="erweima" unicode="&#59018;" d="M157.952 187.648h157.3376v-157.3376H157.952v157.3376zM0.6656-126.976H472.576v471.9616H0.6656v-471.9616z m78.6432 78.6432v314.6752h314.6752v-314.6752H79.3088z m472.0128 393.3184h78.6432v-314.624h-78.6432v314.624z m0-393.3184h157.2864v-78.6432h-157.2864v78.6432z m393.3184 236.032h78.6432v-78.6944H944.64v78.6432z m-157.3376 157.2864h236.032v-78.6432h-236.032v78.6432z m157.3376-393.3184v78.6432h78.6432v-157.2864h-236.032v78.6432h157.3888z m-236.032 236.032h78.6944v-78.6944h78.6432v-78.6944H708.608v157.3376z m0 550.6048h157.3376v-157.3376H708.608V738.304zM1023.2832 895.6416h-471.9616v-471.9616h471.9616V895.6416zM944.64 502.3232h-314.6752V816.9984h314.6752V502.272zM0.6656 423.68V895.6416H472.576v-471.9616H0.6656z m78.6432 393.3184h314.6752V502.272H79.3088V816.9984zM157.952 738.304h157.3376v-157.3376H157.952V738.304z"  horiz-adv-x="1024" />

    
    <glyph glyph-name="fengxiang" unicode="&#59019;" d="M708.249065 215.43437c23.934786 0 46.251206-4.51439 66.864082-13.628348 20.698054-9.028781 38.670438-21.294294 53.831975-36.881717 15.246714-15.587423 27.42705-33.730161 36.455831-54.428214 9.028781-20.612876 13.628348-42.929296 13.628348-66.864083 0-23.849609-4.599567-46.166029-13.628348-66.864083a174.2725 174.2725 0 0 0-36.455831-53.831974c-15.161537-15.161537-33.219098-27.341873-53.831975-36.370654-20.612876-9.113958-42.929296-13.628348-66.864082-13.628348-23.849609 0-46.166029 4.51439-66.864083 13.628348a181.171852 181.171852 0 0 0-54.343037 36.370654 169.672933 169.672933 0 0 0-36.966894 53.831974 164.562302 164.562302 0 0 0-13.628348 66.864083 172.739311 172.739311 0 0 0 4.344036 39.181501L368.988376 227.444352c-10.136084-5.110631-21.038762-8.688072-32.622858-10.902678a194.374314 194.374314 0 0 0-35.859591-3.236733c-23.849609 0-46.251206 4.51439-66.864082 13.628348a181.257029 181.257029 0 0 0-54.343038 36.370654 169.587756 169.587756 0 0 0-36.966894 53.831974A164.732657 164.732657 0 0 0 128.703565 384c0 23.849609 4.51439 46.251206 13.628348 66.864083a176.316753 176.316753 0 0 0 91.309932 91.309931 170.524705 170.524705 0 0 0 144.034603-4.855099l163.114291 152.211612a119.759108 119.759108 0 0 0-4.258859 34.837465c0 23.849609 4.429213 46.166029 13.543171 66.864083 9.028781 20.612876 21.294294 38.58526 36.966894 53.831974 15.587423 15.161537 33.730161 27.341873 54.343037 36.370654 20.698054 9.113958 42.929296 13.628348 66.864083 13.628348s46.251206-4.51439 66.864082-13.628348c20.698054-9.028781 38.670438-21.209117 53.831975-36.370654 15.246714-15.246714 27.42705-33.219098 36.455831-53.831974 9.028781-20.698054 13.628348-42.929296 13.628348-66.864083s-4.599567-46.251206-13.628348-66.864083a181.171852 181.171852 0 0 0-36.455831-54.428214c-15.246714-15.587423-33.219098-27.852936-53.831975-36.966894-20.612876-9.028781-42.929296-13.628348-66.864082-13.628348-16.694726 0-32.367327 2.214607-47.273332 6.558642a154.426219 154.426219 0 0 0-40.799867 18.483447L464.727521 432.891699c4.258859-16.609549 6.473465-32.963567 6.473465-48.891699 0-20.272168-3.236733-39.181501-9.795375-56.557644l159.877558-134.835469c13.032108 7.24006 26.83081 12.861753 41.31093 16.865081 14.48012 4.003327 29.726834 5.962402 45.654966 5.962402z"  horiz-adv-x="1024" />

    
    <glyph glyph-name="gongyuan" unicode="&#59020;" d="M906.438194 475.730581c-66.493935 22.494968-154.128516 15.492129-230.003613-0.660646 68.277677 35.443613 139.56129 84.992 176.524387 143.921549 0 0 66.493935 86.74271-28.407742 163.575742 0 0-48.85471 41.653677-104.712258 18.167742v0.429419c-33.49471-10.96671-43.800774 20.975484-43.800774 20.975484l-0.231226-0.165161C658.696258 880.210581 595.769806 892.036129 595.769806 892.036129c-119.246452 25.533935-144.350968-80.896-144.350967-80.896-22.561032-66.791226-15.426065-154.92129 0.528516-231.093677-35.245419 68.608-84.562581 140.155871-143.194839 177.284129 0 0-86.280258 66.824258-162.849032-28.572904 0 0-41.422452-48.953806-18.101678-105.108645h-0.396387c10.900645-33.692903-20.843355-44.065032-20.843354-44.065032l0.165161-0.231226C48.755613 562.176 36.963097 498.952258 36.963097 498.952258c-25.434839-119.808 80.59871-145.044645 80.598709-145.044645 66.493935-22.594065 154.128516-15.492129 229.904517 0.627613-68.244645-35.509677-139.462194-85.025032-176.524388-143.954581 0 0-66.394839-86.74271 28.539871-163.608774 0 0 48.821677-41.620645 104.712259-18.200774v-0.330323c33.461677 10.900645 43.767742-20.942452 43.767741-20.942451l0.231226 0.165161c17.11071-58.301935 80.037161-70.160516 80.037162-70.160516 119.246452-25.434839 144.350968 80.995097 144.350967 80.995097 12.023742 35.873032 15.426065 77.857032 13.642323 120.832 23.651097-100.748387 85.553548-233.868387 249.459613-267.297033l52.224 39.473549-23.552 84.001032s-174.971871 31.050323-234.396903 160.404645c25.335742-33.858065 53.908645-63.752258 85.28929-83.703742 0 0 86.346323-66.791226 162.849032 28.572903 0 0 41.422452 49.052903 18.101678 105.207742h0.396387c-10.900645 33.626839 20.843355 43.965935 20.843354 43.965936l-0.231225 0.231226c58.037677 17.209806 69.830194 80.433548 69.830193 80.433548 25.434839 119.907097-80.59871 145.143742-80.598709 145.143742z"  horiz-adv-x="1024" />

    
    <glyph glyph-name="haoping" unicode="&#59021;" d="M546.133333 76.8l-320.989866-168.7552 61.303466 357.444267L26.760533 518.621867l358.877867 52.155733L546.133333 896l160.494934-325.2224 358.877866-52.155733-259.6864-253.1328 61.303467-357.444267z"  horiz-adv-x="1092" />

    
    <glyph glyph-name="gouwu" unicode="&#59022;" d="M421.466307-128c-57.537829 0-104.428089 45.729947-104.428089 101.83445 0 56.172756 46.89026 101.902704 104.428089 101.902704 57.606083 0 104.428089-45.729947 104.428089-101.902704 0-56.104503-46.822006-101.83445-104.428089-101.83445z m408.156845 0c-57.606083 0-104.428089 45.729947-104.428089 101.83445 0 56.172756 46.822006 101.902704 104.428089 101.902704 57.537829 0 104.428089-45.729947 104.428089-101.902704 0-56.104503-46.89026-101.83445-104.428089-101.83445z m66.001282 261.274984a61.428288 61.428288 0 0 0-4.368234 0.136507H429.315477c-43.136309 0-80.33455 15.69834-110.570918 46.753752-24.84433 25.526866-44.84265 61.155273-61.155273 109.001084-28.39352 83.33771-41.361714 190.564199-55.080698 304.070024-2.457132 20.066574-4.914263 40.747431-7.507901 61.018766-9.555511 75.829808-35.014124 129.681941-73.440931 155.823089A111.935991 111.935991 0 0 1 42.180758 827.755903 34.331587 34.331587 0 0 0 0.955551 852.600232a33.44429 33.44429 0 0 0 25.458613 40.269655 182.851536 182.851536 0 0 0 134.323189-27.915744c42.385518-28.734788 72.417126-75.079018 89.821807-138.07714h0.682537l735.774379-1.50158c40.269655 0 64.226687-16.039608 77.263135-29.485578 29.417324-30.372876 27.983998-71.325067 27.710983-75.898062l-0.136507-1.433327-0.204761-1.365073c-0.204761-1.433327-20.885618-142.581881-60.199722-305.981126-18.155472-75.079018-44.637889-127.42957-78.764716-155.413568-23.479257-19.24753-45.047411-22.523705-57.060054-22.523705z"  horiz-adv-x="1092" />

    
    <glyph glyph-name="guanbi" unicode="&#59023;" d="M512 519.744L851.392 859.2l135.808-135.808L647.68 384l339.456-339.392-135.808-135.808L512 248.32l-339.392-339.456-135.808 135.808L376.32 384 36.8 723.392 172.608 859.2 512 519.68z"  horiz-adv-x="1024" />

    
    <glyph glyph-name="jiaoyu" unicode="&#59024;" d="M1290.455579 570.745263v-228.837052l46.888421-48.23579L1239.578947 189.116632l-99.058526 101.429894 67.907368 63.380211V534.635789c-287.851789-121.856-380.065684-159.744-443.930947-189.278315-63.811368-29.588211-109.783579-29.480421-173.056-4.958316-63.326316 24.522105-364.705684 137.431579-514.317474 210.944-99.813053 49.098105-106.226526 80.249263 1.724632 121.909895C219.728842 728.225684 452.715789 816.235789 576.134737 864.309895c73.135158 30.396632 111.777684 46.888421 178.876631 12.341894 119.754105-50.822737 393.539368-156.294737 529.623579-214.016 118.460632-53.140211 38.804211-70.602105 5.820632-91.890526z m-512.161684-316.038737c69.632 29.480421 163.462737 78.255158 265.754947 123.257263v-361.418105S911.737263-128 679.127579-128c-250.502737 0-385.886316 144.545684-385.886316 144.545684v337.381053c79.009684-33.091368 167.666526-61.493895 274.970948-99.166316 66.182737-24.198737 150.150737-32.552421 210.081684 0z"  horiz-adv-x="1347" />

    
    <glyph glyph-name="leixing" unicode="&#59025;" d="M829.44 281.6H0V486.4h829.44a512.2048 512.2048 0 0 0 1003.52 0H2662.4v-204.8h-829.44a512.2048 512.2048 0 0 0-1003.52 0z"  horiz-adv-x="2662" />

    
    <glyph glyph-name="kanfang" unicode="&#59026;" d="M1674.715429 406.308571C1659.318857 426.276571 1292.836571 896 841.142857 896 387.145143 896 22.820571 426.203429 7.497143 406.198857c-10.020571-13.129143-9.984-31.378286 0.073143-44.507428C22.966857 341.723429 389.449143-128 841.142857-128c449.353143 0 817.993143 469.613714 833.499429 489.618286 10.166857 13.165714 10.166857 31.524571 0.073143 44.690285zM694.857143 640a109.714286 109.714286 0 1 0 0-219.428571 109.714286 109.714286 0 0 0 0 219.428571z m146.285714-694.857143c-362.020571 0-679.424 346.770286-757.357714 438.930286 45.897143 54.637714 175.689143 198.253714 349.366857 306.468571A432.859429 432.859429 0 0 1 402.285714 530.285714c0-242.358857 196.498286-438.857143 438.857143-438.857143s438.857143 196.498286 438.857143 438.857143c0 56.137143-10.788571 109.677714-30.098286 159.012572 172.653714-108.032 302.372571-250.697143 348.489143-305.225143C1519.908571 291.730286 1201.152-54.857143 841.142857-54.857143z"  horiz-adv-x="1682" />

    
    <glyph glyph-name="liulan" unicode="&#59027;" d="M512-76.8a460.8 460.8 0 1 1 0 921.6 460.8 460.8 0 0 1 0-921.6z m0-51.2C229.2224-128 0 101.2224 0 384S229.2224 896 512 896s512-229.2224 512-512-229.2224-512-512-512zM460.8 640h51.2v-307.2H460.8V640z m0-307.2v51.2h307.2v-51.2H460.8z"  horiz-adv-x="1024" />

    
    <glyph glyph-name="liebiao" unicode="&#59028;" d="M929.698909 895.255273c21.410909 0 39.656727-7.447273 54.551273-22.341818 14.894545-14.894545 22.341818-33.140364 22.341818-54.551273v-58.554182c0-21.410909-7.447273-39.563636-22.341818-54.551273a74.193455 74.193455 0 0 0-54.551273-22.341818H78.010182a74.286545 74.286545 0 0 0-54.551273 22.341818 74.286545 74.286545 0 0 0-22.341818 54.551273V818.362182c0 21.410909 7.447273 39.563636 22.341818 54.551273 14.894545 14.894545 33.140364 22.341818 54.551273 22.341818h851.688727z m0-359.330909c21.410909 0 39.656727-7.447273 54.551273-22.341819 14.894545-14.894545 22.341818-33.047273 22.341818-54.551272v-58.461091c0-21.410909-7.447273-39.656727-22.341818-54.551273a74.100364 74.100364 0 0 0-54.551273-22.341818H78.010182a74.100364 74.100364 0 0 0-54.551273 22.341818 74.100364 74.100364 0 0 0-22.341818 54.551273v58.461091c0 21.410909 7.447273 39.656727 22.341818 54.551272 14.894545 14.894545 33.140364 22.341818 54.551273 22.341819h851.688727z m0-359.237819c21.410909 0 39.656727-7.447273 54.551273-22.341818 14.894545-14.894545 22.341818-33.140364 22.341818-54.551272v-58.554182c0-21.410909-7.447273-39.563636-22.341818-54.458182a74.286545 74.286545 0 0 0-54.551273-22.434909H78.010182a74.286545 74.286545 0 0 0-54.551273 22.341818 74.100364 74.100364 0 0 0-22.341818 54.551273v58.647272c0 21.410909 7.447273 39.563636 22.341818 54.458182 14.894545 14.894545 33.140364 22.341818 54.551273 22.341818h851.688727z"  horiz-adv-x="1024" />

    
    <glyph glyph-name="rexian" unicode="&#59029;" d="M1173.58592 73.44128c0-201.85088-92.16-201.44128-537.27232-201.44128-445.07136 0-537.23136-0.4096-537.23136 201.44128 0 220.32384 240.51712 659.8656 537.23136 659.8656s537.27232-439.54176 537.27232-659.8656zM637.87008 638.81216c-126.07488 0-228.27008-103.2192-228.27008-230.48192 0-127.34464 102.1952-230.52288 228.27008-230.52288 126.07488 0 228.27008 103.2192 228.27008 230.52288S763.904 638.7712 637.87008 638.7712zM159.45728 469.1968c-15.31904-32.3584-99.65568-67.3792-144.42496 1.35168C-10.24 503.27552-84.62336 895.01696 635.16672 896c711.8848 0 644.05504-380.1088 622.34624-425.49248-33.792-60.66176-111.24736-67.82976-151.63392 0-78.06976 136.64256-250.34752 311.296-470.67136 311.296-220.40576 0-382.1568-161.3824-475.7504-312.64768z"  horiz-adv-x="1269" />

    
    <glyph glyph-name="quyu" unicode="&#59030;" d="M482.002773 816.384a319.658667 319.658667 0 0 1-319.317333-320 320.085333 320.085333 0 0 1 233.642667-308.309333l85.674666-133.973334 85.76 133.973334a319.829333 319.829333 0 0 1 233.642667 308.224A319.744 319.744 0 0 1 482.002773 816.384z m0.853334-591.701333a269.653333 269.653333 0 0 0-229.888 410.453333 267.776 267.776 0 0 0 322.645333 112.64 20.906667 20.906667 0 0 0 3.242667-1.536 269.653333 269.653333 0 0 0-96-521.557333zM482.002773 895.658667a397.141333 397.141333 0 0 1-130.986666-771.84l76.032-118.954667a65.365333 65.365333 0 0 1 110.08 0l75.946666 118.954667A397.141333 397.141333 0 0 1 482.002773 895.658667z m85.76-707.584l-85.76-133.973334-85.674666 133.973334A320.085333 320.085333 0 0 0 162.68544 496.298667 319.658667 319.658667 0 0 0 482.002773 816.384a319.744 319.744 0 0 0 319.402667-320A319.914667 319.914667 0 0 0 567.67744 187.989333z m-84.906666 575.829333c33.792 0 66.133333-6.229333 96-17.664a20.906667 20.906667 0 0 1-3.242667 1.536 267.776 267.776 0 0 1-322.645333-112.64 269.397333 269.397333 0 0 0 229.888 128.768z m131.669333-828.586667H349.56544a31.573333 31.573333 0 1 1 0-63.146666h264.96a31.573333 31.573333 0 0 1 0 63.146666zM578.770773 746.325333a269.397333 269.397333 0 0 1-365.568-251.989333A269.653333 269.653333 0 1 1 578.770773 746.325333zM482.856107 587.178667a92.928 92.928 0 1 0 0-185.856 92.928 92.928 0 0 0 0 185.856z"  horiz-adv-x="1024" />

    
    <glyph glyph-name="shangye" unicode="&#59031;" d="M870.561684-25.6V667.486316L512 896 153.438316 667.486316V-25.6H0V-128h1024v102.4h-153.438316zM485.052632 33.684211H377.263158v107.789473h107.789474v-107.789473z m0 215.578947H377.263158v107.789474h107.789474v-107.789474z m0 323.368421h107.789473v-107.789474H485.052632V572.631579z m161.68421-538.947368h-107.789474v107.789473h107.789474v-107.789473z m0 215.578947h-107.789474v107.789474h107.789474v-107.789474z"  horiz-adv-x="1024" />

    
    <glyph glyph-name="shangzhang" unicode="&#59032;" d="M625.777778 440.888889v-568.888889H398.222222V440.888889H113.777778l398.222222 455.111111 398.222222-455.111111H625.777778z"  horiz-adv-x="1024" />

    
    <glyph glyph-name="shijian" unicode="&#59033;" d="M986.751383 582.911556c-66.175959 119.423925-177.343889 211.455868-311.359805 255.55184A207.039871 207.039871 0 0 0 819.199488 895.99936C932.287417 895.99936 1023.99936 806.847416 1023.99936 696.895484c0-42.495973-13.887991-81.663949-37.247977-113.919928z m-21.247986-255.80784C965.503397 75.775873 755.839528-128 497.279689-128 238.783851-128 29.247982 75.775873 29.247982 327.103716c0 251.327843 209.599869 455.103716 468.095707 455.103715 258.559838 0 468.159707-203.775873 468.159708-455.039715zM760.703525 383.99968H526.655671V611.583538H438.847726v-312.895805h321.855799V383.99968zM22.911986 607.167541A192.57588 192.57588 0 0 0 0 696.959484C0 806.847416 91.711943 895.99936 204.799872 895.99936c52.223967 0 99.391938-19.583988 135.551915-50.879968a554.239654 554.239654 0 0 1-317.439801-237.951851z"  horiz-adv-x="1024" />

    
    <glyph glyph-name="tongzhi" unicode="&#59034;" d="M0 896h1024v-1024H0V896z m371.84-697.408L177.92 440.128 78.08 360l280.96-350.016 614.976 583.616-88.128 92.8-514.112-487.808z"  horiz-adv-x="1024" />

    
    <glyph glyph-name="weixuanzhong" unicode="&#59035;" d="M512 18.285714A365.714286 365.714286 0 1 1 512 749.714286a365.714286 365.714286 0 0 1 0-731.428572z m0-146.285714A512 512 0 1 0 512 896a512 512 0 0 0 0-1024z"  horiz-adv-x="1024" />

    
    <glyph glyph-name="xiajiang" unicode="&#59036;" d="M625.777778 327.111111V896H398.222222v-568.888889H113.777778l398.222222-455.111111 398.222222 455.111111H625.777778z"  horiz-adv-x="1024" />

    
    <glyph glyph-name="xihuan" unicode="&#59037;" d="M572.5184-128c636.1088 374.1696 570.6752 698.368 570.6752 698.368S1133.7728 896 859.3408 896c-274.432 0-286.72-200.8064-286.72-200.8064S559.9232 896 285.696 896C11.264 896 1.9456 570.368 1.9456 570.368S-63.5904 246.272 572.416-128z"  horiz-adv-x="1228" />

    
    <glyph glyph-name="weizhi" unicode="&#59038;" d="M512-128C234.688 124.16 96 326.848 96 480a416 416 0 0 0 832 0c0-153.152-138.688-355.84-416-608z m0 448a160 160 0 1 1 0 320 160 160 0 0 1 0-320z"  horiz-adv-x="1024" />

    
    <glyph glyph-name="xuanzhong" unicode="&#59039;" d="M512-128A512 512 0 1 0 512 896a512 512 0 0 0 0-1024z m0 146.285714A365.714286 365.714286 0 1 1 512 749.714286a365.714286 365.714286 0 0 1 0-731.428572z m0 146.285715a219.428571 219.428571 0 1 0 0 438.857142 219.428571 219.428571 0 0 0 0-438.857142z"  horiz-adv-x="1024" />

    
    <glyph glyph-name="yanzhengma" unicode="&#59040;" d="M972.8 188.5696l-247.6544 333.312-297.1136-412.5184L204.8 304.9472 51.2 155.136V793.6a102.4 102.4 0 0 0 102.4 102.4h716.8a102.4 102.4 0 0 0 102.4-102.4v-605.0304z m0-171.7248V-25.6a102.4 102.4 0 0 0-102.4-102.4H153.6a102.4 102.4 0 0 0-102.4 102.4v37.7856l157.3376 153.344 236.7488-207.36 281.1392 390.2976L972.8 16.896zM384 435.2a128 128 0 1 1 0 256 128 128 0 0 1 0-256z"  horiz-adv-x="1024" />

    
    <glyph glyph-name="yiliao" unicode="&#59041;" d="M587.093333 896L0 493.624889V384h109.966222v-512h917.845334V384H1137.777778V493.624889L587.093333 896z m262.144-684.373333h-203.776v-203.207111H491.975111V211.626667h-202.524444V363.349333h203.832889V566.613333h152.177777v-203.207111h203.776v-151.722666z"  horiz-adv-x="1137" />

    
    <glyph glyph-name="zhuanche" unicode="&#59042;" d="M1142.211765 448c24.997647-64 61.741176-128 61.741176-192v-320c0-41.923765-34.575059-64-92.611765-64-58.036706 0-92.611765 25.901176-92.611764 64V0H216.094118v-64C216.094118-102.068706 181.519059-128 123.482353-128c-58.036706 0-92.611765 22.076235-92.611765 64V256c0 64 36.743529 128 61.741177 192C117.609412 512 0 504.018824 0 544.015059s7.710118 63.969882 61.741176 63.969882h92.611765s43.851294 130.590118 61.741177 192.030118C234.014118 861.455059 308.705882 896 370.447059 896h493.929412c61.741176 0 136.432941-34.575059 154.352941-96.015059 17.889882-61.44 61.741176-191.969882 61.741176-191.969882h92.611765c54.031059 0 61.741176-24.003765 61.741176-64.030118 0-39.996235-117.609412-31.984941-92.611764-95.984941zM451.764706 233.411765a30.117647 30.117647 0 0 1 30.117647-30.117647h240.941176a30.117647 30.117647 0 0 1 30.117647 30.117647v30.117647a30.117647 30.117647 0 0 1-30.117647 30.117647h-240.941176a30.117647 30.117647 0 0 1-30.117647-30.117647v-30.117647zM150.588235 233.411765a90.352941 90.352941 0 1 1 180.705883 0 90.352941 90.352941 0 0 1-180.705883 0zM1024 606.117647C1024 640 961.445647 775.529412 961.445647 775.529412H273.377882S210.823529 640 210.823529 606.117647v-33.882353C210.823529 534.799059 238.832941 504.470588 273.377882 504.470588h688.067765C995.990588 504.470588 1024 534.799059 1024 572.235294V606.117647zM993.882353 323.764706a90.352941 90.352941 0 1 1 0-180.705882 90.352941 90.352941 0 0 1 0 180.705882z"  horiz-adv-x="1234" />

    
    <glyph glyph-name="ziliao" unicode="&#59043;" d="M512 281.6a409.6512 409.6512 0 0 1-406.4256-358.4h812.8512A409.6512 409.6512 0 0 1 512 281.6z m460.8-409.6H51.2a460.8 460.8 0 0 0 921.6 0zM512 435.2a204.8 204.8 0 1 1 0 409.6 204.8 204.8 0 0 1 0-409.6z m0-51.2A256 256 0 1 0 512 896a256 256 0 0 0 0-512z"  horiz-adv-x="1024" />

    


  </font>
</defs>
</svg>
