<?xml version="1.0" standalone="no"?><!DOCTYPE svg PUBLIC "-//W3C//DTD SVG 1.1//EN" "http://www.w3.org/Graphics/SVG/1.1/DTD/svg11.dtd"><svg xmlns:xlink="http://www.w3.org/1999/xlink" xmlns="http://www.w3.org/2000/svg" version="1.1" width="267.7734375" height="200" viewBox="0 0 267.7734375 200"><defs><style type="text/css"><![CDATA[
@font-face {
  font-family: "ifont";
  src: url("//at.alicdn.com/t/font_1442373896_4754455.eot?#iefix") format("embedded-opentype"), url("//at.alicdn.com/t/font_1442373896_4754455.woff") format("woff"), url("//at.alicdn.com/t/font_1442373896_4754455.ttf") format("truetype"), url("//at.alicdn.com/t/font_1442373896_4754455.svg#ifont") format("svg");
}

]]></style></defs><g class="transform-group"><g transform="scale(0.1953125, 0.1953125)"><path d="M523.678271 106.128852l408.944378 304.864346 119.65106 0-241.760704-186.032813L810.513005 122.929172l-64.742697 0 0 50.810724-3.687875-2.868347L523.678271 0 78.264906 345.840736c-18.029612 14.341737-78.264906 65.152461-78.264906 65.152461l130.714686 0L523.678271 106.128852zM404.846739 699.057223l0-20.078431c0-65.562225 29.503001-163.905562 108.587435-168.003201 49.581433-2.458583 90.557823 47.122849 99.982393 94.655462 44.254502-21.307723 69.2501-35.64946 101.211685-58.186475 41.386154-29.093237 104.489796-45.893557 187.671869-49.991196L902.30012 454.837935l-379.031613-278.639456-363.870348 278.639456 0 280.688275c0 31.142057 12.292917 69.659864 32.371349 90.557823 13.931973 3.687875 117.192477 31.551821 131.943978 34.010404 37.698279 6.146459 101.621449 2.04882 101.621449 2.04882l0-18.439376c-27.044418 7.785514-52.859544 12.702681-73.757503 12.702681-24.17607 0-46.303321-6.965986-55.727891-20.078431-6.146459-9.014806-16.390556-31.551821-2.04882-53.679072C310.60104 756.42417 329.040416 735.116447 404.846739 699.057223zM902.30012 542.117647c-77.855142 3.687875-136.041617 18.84914-173.739896 45.483794-33.60064 23.766307-76.216086 46.303321-121.69988 68.430572-30.732293 14.751501-63.103641 29.503001-95.065226 43.844738-28.683473 13.112445-58.596238 26.634654-86.460184 39.747099-55.727891 27.044418-101.211685 53.269308-106.948379 73.347739-0.819528 3.278111-0.409764 6.146459 2.04882 9.42457 5.736695 8.195278 20.078431 10.244098 31.142057 10.244098 20.078431 0 45.893557-5.326931 73.757503-13.522209 65.562225-19.668667 149.973589-60.235294 188.081633-79.494198l0 3.278111c1.639056-2.04882 3.687875-3.687875 4.917167-5.736695 2.458583-1.229292 4.507403-2.458583 6.556222-3.278111l0 40.976391c-41.386154 43.844738-139.319728 129.485394-221.682273 129.485394l-1.229292 0c-50.40096-0.409764-113.094838-17.210084-173.330132-33.190876-55.727891-14.751501-108.177671-28.683473-145.466186-28.683473-38.108043 0-45.483794 14.751501-47.532613 27.863946-2.04882 11.883153 7.785514 36.878752 95.884754 70.479392 59.415766 22.537015 133.173269 41.386154 204.472189 58.596238 67.201281 15.980792 136.451381 24.585834 200.37455 24.585834 74.986795 0 138.5002-11.063625 184.393758-32.371349 32.371349-14.751501 78.264906-43.844738 127.436575-74.577031 56.957183-35.64946 115.553421-72.528211 155.710284-88.918768 69.659864-28.683473 137.680672-45.893557 159.807923-50.810724l38.927571-206.930772c-35.64946-7.37575-149.154062-28.683473-261.429372-28.683473C927.705482 541.298119 915.002801 541.707883 902.30012 542.117647zM1221.138521 795.269009l37.733437-218.871702 111.454963 19.214813-37.733437 218.871702-111.454963-19.214813Z" fill="#272636"></path></g></g></svg>