<?xml version="1.0" standalone="no"?><!DOCTYPE svg PUBLIC "-//W3C//DTD SVG 1.1//EN" "http://www.w3.org/Graphics/SVG/1.1/DTD/svg11.dtd"><svg xmlns:xlink="http://www.w3.org/1999/xlink" xmlns="http://www.w3.org/2000/svg" version="1.1" width="249.609375" height="200" viewBox="0 0 249.609375 200"><defs><style type="text/css"><![CDATA[
@font-face {
  font-family: "ifont";
  src: url("//at.alicdn.com/t/font_1442373896_4754455.eot?#iefix") format("embedded-opentype"), url("//at.alicdn.com/t/font_1442373896_4754455.woff") format("woff"), url("//at.alicdn.com/t/font_1442373896_4754455.ttf") format("truetype"), url("//at.alicdn.com/t/font_1442373896_4754455.svg#ifont") format("svg");
}

]]></style></defs><g class="transform-group"><g transform="scale(0.1953125, 0.1953125)"><path d="M778.18075 304.961338c35.398893-15.90084 73.41968-26.792168 113.379472-31.913003l-305.754718-258.879639c-22.31933-18.893256-55.031529-18.893256-77.305998 0L21.1645 426.786366c-25.195438 21.274228-28.342376 59.055755-6.996702 84.287746 21.315766 25.157223 59.049108 28.287545 84.246208 6.945195l7.845744-6.601258 0 475.210822c0 20.684385 16.686744 37.371129 37.397713 37.371129l371.046194 0 14.319064 0L751.634488 1024c-26.026203-14.555001-54.817192-32.049249-82.426833-55.70611-34.930341-32.477923-64.045329-71.056984-85.756539-114.100576-22.091701-48.995191-36.241289-111.056653-36.241289-191.105837C547.208166 419.704926 754.769795 315.892543 778.18075 304.961338L778.18075 304.961338zM438.623869 701.256139l-116.099396 0L322.524472 585.535572l116.099396 0L438.623869 701.256139 438.623869 701.256139zM438.623869 701.256139M280.130539 150.472295c0-24.831563-20.121126-44.990905-44.946043-44.990905l-85.517279 0c-24.858148 0-44.886228 20.159341-44.886228 44.990905l0 158.747544 175.34955-146.306009L280.130539 150.472295 280.130539 150.472295 280.130539 150.472295 280.130539 150.472295zM280.130539 150.472295M1022.490434 529.924168c-15.174752 0-29.382493 5.866862-40.091053 16.608652-10.793298 10.786652-16.706682 25.052547-16.706682 40.262191 0 15.119921 5.913385 29.365878 16.635237 40.016284 21.573303 21.644749 58.899571 21.573303 80.356567 0.061477 10.690283-10.711883 16.615298-24.957839 16.615298-40.077761 0-15.209644-5.938308-29.475539-16.673452-40.220652C1051.891204 535.79103 1037.631955 529.897584 1022.490434 529.924168L1022.490434 529.924168zM1022.490434 529.924168M943.1906 332.130673c-184.014428 0-333.844541 149.790237-333.844541 333.960849 0 184.079228 149.830113 333.801342 333.844541 333.801342 184.130735 0 333.896049-149.722114 333.896049-333.801342C1277.086649 481.934202 1127.321335 332.130673 943.1906 332.130673L943.1906 332.130673zM1102.847001 667.035271c-21.456996 21.466965-49.98214 33.318658-80.349921 33.318658-20.599647 0-40.169145-5.85357-57.420809-16.050378l-72.821529 72.814883 33.165797 33.185735c11.117296 11.085727 11.117296 29.043541 0 40.149207-5.542863 5.529571-12.80541 8.307649-20.074603 8.307649-7.282485 0-14.545032-2.778078-20.087896-8.307649l-33.165797-33.195704L798.820273 850.586132c-5.542863 5.529571-12.80541 8.320941-20.087896 8.320941-7.262547 0-14.53174-2.79137-20.074603-8.320941-11.085727-11.102342-11.085727-29.050187 0-40.179114L924.953648 644.141052c-10.210101-17.268279-16.050378-36.767993-16.050378-57.34604-0.033231-30.357811 11.805169-58.912863 33.308688-80.384813 21.412135-21.470288 49.923987-33.277119 80.278475-33.277119 30.374427 0 58.868002 11.806831 80.311706 33.321981 21.443704 21.38555 33.295396 49.922325 33.295396 80.339952C1136.097535 617.121254 1124.272428 645.636428 1102.847001 667.035271L1102.847001 667.035271zM1102.847001 667.035271" fill="#272636"></path></g></g></svg>