<?xml version="1.0" encoding="utf-8"?>
<!-- Generated by IcoMoon.io -->
<!DOCTYPE svg PUBLIC "-//W3C//DTD SVG 1.1//EN" "http://www.w3.org/Graphics/SVG/1.1/DTD/svg11.dtd">
<svg version="1.1" xmlns="http://www.w3.org/2000/svg" xmlns:xlink="http://www.w3.org/1999/xlink" width="1024" height="1024" viewBox="0 0 1024 1024">
<g id="icomoon-ignore">
</g>
<path d="M565.582 792.089v-435.965h-194.845v435.965q0 15.223 10.961 23.443t28.009 8.22h116.906q17.049 0 28.009-8.22t10.961-23.443zM287.929 278.186h118.733l-76.721-98.031q-15.831-18.875-42.014-18.875-24.355 0-41.404 17.049t-17.049 41.404 17.049 41.404 41.404 17.049zM706.845 219.733q0-24.355-17.049-41.404t-41.404-17.049q-26.182 0-42.014 18.875l-76.111 98.031h118.124q24.355 0 41.404-17.049t17.049-41.404zM935.786 375.609v194.845q0 8.524-5.48 14.005t-14.005 5.48h-58.454v253.298q0 24.355-17.049 41.404t-41.404 17.049h-662.471q-24.355 0-41.404-17.049t-17.049-41.404v-253.298h-58.454q-8.524 0-14.005-5.48t-5.48-14.005v-194.845q0-8.524 5.48-14.005t14.005-5.48h267.912q-56.627 0-96.509-39.882t-39.882-96.509 39.882-96.509 96.509-39.882q65.151 0 102.294 46.884l77.938 100.467 77.938-100.467q37.142-46.884 102.294-46.884 56.627 0 96.509 39.882t39.882 96.509-39.882 96.509-96.509 39.882h267.912q8.524 0 14.005 5.48t5.48 14.005z"></path>
</svg>
