<?xml version="1.0" standalone="no"?><!DOCTYPE svg PUBLIC "-//W3C//DTD SVG 1.1//EN" "http://www.w3.org/Graphics/SVG/1.1/DTD/svg11.dtd"><svg xmlns:xlink="http://www.w3.org/1999/xlink" xmlns="http://www.w3.org/2000/svg" version="1.1" width="200" height="200" viewBox="0 0 200 200"><defs><style type="text/css"><![CDATA[
@font-face {
  font-family: "ifont";
  src: url("//at.alicdn.com/t/font_1442373896_4754455.eot?#iefix") format("embedded-opentype"), url("//at.alicdn.com/t/font_1442373896_4754455.woff") format("woff"), url("//at.alicdn.com/t/font_1442373896_4754455.ttf") format("truetype"), url("//at.alicdn.com/t/font_1442373896_4754455.svg#ifont") format("svg");
}

]]></style></defs><g class="transform-group"><g transform="scale(0.1953125, 0.1953125)"><path d="M928 761.6l-51.2 0 0-51.2 51.2 0c25.6 0 44.8-19.2 44.8-44.8L972.8 268.8c0-25.6-19.2-44.8-44.8-44.8l-832 0c-25.6 0-44.8 19.2-44.8 44.8l0 396.8c0 25.6 19.2 44.8 44.8 44.8L128 710.4l0 51.2L96 761.6c-51.2 0-96-44.8-96-96L0 268.8c0-51.2 44.8-96 96-96l832 0c51.2 0 96 44.8 96 96l0 396.8C1024 716.8 979.2 761.6 928 761.6zM422.4 710.4l166.4 0 0 51.2-166.4 0 0-51.2ZM275.2 851.2c-64 0-115.2-51.2-115.2-115.2s51.2-115.2 115.2-115.2 115.2 51.2 115.2 115.2S339.2 851.2 275.2 851.2zM275.2 665.6c-38.4 0-64 25.6-64 64s25.6 64 64 64 64-25.6 64-64S313.6 665.6 275.2 665.6zM729.6 851.2c-64 0-115.2-51.2-115.2-115.2s51.2-115.2 115.2-115.2 115.2 51.2 115.2 115.2S800 851.2 729.6 851.2zM729.6 665.6c-38.4 0-64 25.6-64 64s25.6 64 64 64 64-25.6 64-64S768 665.6 729.6 665.6zM294.4 473.6 140.8 473.6C115.2 473.6 96 448 96 422.4L96 332.8c0-25.6 19.2-44.8 44.8-44.8l153.6 0c25.6 0 44.8 19.2 44.8 44.8l0 96C345.6 448 320 473.6 294.4 473.6zM140.8 326.4c-6.4 0-6.4 0-6.4 6.4l0 96c0 6.4 0 6.4 6.4 6.4l153.6 0c6.4 0 6.4 0 6.4-6.4L300.8 332.8c0-6.4 0-6.4-6.4-6.4L140.8 326.4zM588.8 473.6 435.2 473.6C409.6 473.6 390.4 448 390.4 422.4L390.4 332.8c0-25.6 19.2-44.8 44.8-44.8l153.6 0c25.6 0 44.8 19.2 44.8 44.8l0 96C633.6 448 614.4 473.6 588.8 473.6zM435.2 326.4c-6.4 0-6.4 0-6.4 6.4l0 96c0 6.4 0 6.4 6.4 6.4l153.6 0c6.4 0 6.4 0 6.4-6.4L595.2 332.8c0-6.4 0-6.4-6.4-6.4L435.2 326.4zM883.2 473.6l-153.6 0c-25.6 0-44.8-19.2-44.8-44.8L684.8 332.8c0-25.6 19.2-44.8 44.8-44.8l153.6 0c25.6 0 44.8 19.2 44.8 44.8l0 96C928 448 908.8 473.6 883.2 473.6zM729.6 326.4c-6.4 0-6.4 0-6.4 6.4l0 96c0 6.4 0 6.4 6.4 6.4l153.6 0c6.4 0 6.4 0 6.4-6.4L889.6 332.8c0-6.4 0-6.4-6.4-6.4L729.6 326.4z" fill="#272636"></path></g></g></svg>