<?xml version="1.0" encoding="utf-8"?>
<!-- Generated by IcoMoon.io -->
<!DOCTYPE svg PUBLIC "-//W3C//DTD SVG 1.1//EN" "http://www.w3.org/Graphics/SVG/1.1/DTD/svg11.dtd">
<svg version="1.1" xmlns="http://www.w3.org/2000/svg" xmlns:xlink="http://www.w3.org/1999/xlink" width="1047" height="1024" viewBox="0 0 1047 1024">
<g id="icomoon-ignore">
</g>
<path d="M399.778 914.26q0 33.312-23.571 56.882t-56.882 23.571-56.882-23.571-23.571-56.882 23.571-56.882 56.882-23.571 56.882 23.571 23.571 56.882zM962.942 914.26q0 33.312-23.571 56.882t-56.882 23.571-56.882-23.571-23.571-56.882 23.571-56.882 56.882-23.571 56.882 23.571 23.571 56.882zM1043.395 230.419v321.807q0 15.084-10.056 26.713t-25.77 13.513l-656.186 76.68q0.628 4.399 2.828 13.513t3.772 16.655 1.572 13.828q0 10.056-15.084 40.226h578.249q16.342 0 28.283 11.942t11.942 28.283-11.942 28.283-28.283 11.942h-643.616q-16.342 0-28.283-11.942t-11.942-28.283q0-8.799 6.914-24.827t18.541-37.398 12.885-23.883l-111.251-517.282h-128.22q-16.342 0-28.283-11.942t-11.942-28.283 11.942-28.283 28.283-11.942h160.904q10.056 0 17.913 4.086t12.572 9.742 8.171 15.399 4.714 16.655 3.457 18.541 2.828 16.027h754.866q16.342 0 28.283 11.942t11.942 28.283z"></path>
</svg>
