<?xml version="1.0" standalone="no"?><!DOCTYPE svg PUBLIC "-//W3C//DTD SVG 1.1//EN" "http://www.w3.org/Graphics/SVG/1.1/DTD/svg11.dtd"><svg xmlns:xlink="http://www.w3.org/1999/xlink" xmlns="http://www.w3.org/2000/svg" version="1.1" width="200" height="200" viewBox="0 0 200 200"><defs><style type="text/css"><![CDATA[
@font-face {
  font-family: "ifont";
  src: url("//at.alicdn.com/t/font_1442373896_4754455.eot?#iefix") format("embedded-opentype"), url("//at.alicdn.com/t/font_1442373896_4754455.woff") format("woff"), url("//at.alicdn.com/t/font_1442373896_4754455.ttf") format("truetype"), url("//at.alicdn.com/t/font_1442373896_4754455.svg#ifont") format("svg");
}

]]></style></defs><g class="transform-group"><g transform="scale(0.1953125, 0.1953125)"><path d="M426.89367 545.613562c77.220732 0 140.040477-60.419068 140.040477-134.613884s-62.819744-134.613884-140.040477-134.613884c-77.218686 0-140.040477 60.419068-140.040477 134.613884S349.674984 545.613562 426.89367 545.613562M426.89367 613.755522c-114.995057 0-208.182436-90.784656-208.182436-202.755844 0-111.969141 93.186356-202.755844 208.182436-202.755844s208.28579 90.786703 208.28579 202.755844C635.17946 522.970866 541.888727 613.755522 426.89367 613.755522L426.89367 613.755522 426.89367 613.755522zM120.975259 1017.122359l-68.035536 4.800329c-0.51984-7.515161-0.729617-15.131629-0.729617-22.854521 0-190.4424 167.691233-344.778464 374.727567-344.778464 206.92991 0 374.72552 154.336064 374.72552 344.778464 0 7.722892-0.205685 15.33936-0.729617 22.854521l-68.035536-4.800329c0.418532-6.052856 0.624217-12.001335 0.624217-18.054191 0-152.559605-137.533376-276.636504-306.58356-276.636504S120.352065 846.508563 120.352065 999.068168C120.352065 1005.121024 120.559796 1011.069503 120.975259 1017.122359M640.822994 245.288542l-18.3663-66.784032-82.019015 21.496593 18.3663 66.681702-19.72218 5.110391-40.696888-147.969053 19.617803-5.112438 17.73799 64.175625 82.019015-21.496593-17.631566-64.175625 19.615757-5.114484 40.800241 148.075477L640.822994 245.288542 640.822994 245.288542zM824.274166 177.253006c-9.912767 17.740036-26.4013 29.634948-49.567929 35.687804-22.538319 5.843078-42.4713 3.65218-59.899228-6.574742-17.425881-10.224876-29.215392-26.504654-35.373649-48.627511-6.468318-23.686469-4.800329-44.453445 5.216815-62.298881 10.019191-17.842367 26.923186-29.843702 50.718125-35.999912 21.912056-5.740748 41.530882-3.548826 58.852386 6.67912 17.324574 10.226922 29.009707 26.4013 35.062564 48.523133C835.854922 138.64264 834.186933 159.51297 824.274166 177.253006L824.274166 177.253006zM809.454646 122.364909c-5.216815-18.680455-13.981433-32.035624-26.504654-40.177048-12.521175-8.035-27.235294-9.809413-44.242643-5.426593-16.384156 4.28049-28.279067 13.253862-35.586496 26.818809-7.302313 13.669324-8.450463 29.427216-3.546779 47.27163 4.904707 17.844413 13.880125 30.78105 27.027563 38.922475 13.043061 8.139378 27.549449 10.226922 43.307342 6.052856 16.485463-4.278443 28.487821-13.045107 35.896558-26.193569C813.212226 156.38063 814.464753 140.624784 809.454646 122.364909L809.454646 122.364909zM923.513378 30.951943l36.104289 131.169435-19.72218 5.114484L903.791198 36.06438l-46.229904 11.999288-4.590552-16.799618 111.969141-29.217439 4.592598 16.799618L923.513378 30.951943 923.513378 30.951943z" fill="#272636"></path></g></g></svg>