<?xml version="1.0" standalone="no"?><!DOCTYPE svg PUBLIC "-//W3C//DTD SVG 1.1//EN" "http://www.w3.org/Graphics/SVG/1.1/DTD/svg11.dtd"><svg xmlns:xlink="http://www.w3.org/1999/xlink" xmlns="http://www.w3.org/2000/svg" version="1.1" width="200.1953125" height="200" viewBox="0 0 200.1953125 200"><defs><style type="text/css"><![CDATA[
@font-face {
  font-family: "ifont";
  src: url("//at.alicdn.com/t/font_1442373896_4754455.eot?#iefix") format("embedded-opentype"), url("//at.alicdn.com/t/font_1442373896_4754455.woff") format("woff"), url("//at.alicdn.com/t/font_1442373896_4754455.ttf") format("truetype"), url("//at.alicdn.com/t/font_1442373896_4754455.svg#ifont") format("svg");
}

]]></style></defs><g class="transform-group"><g transform="scale(0.1953125, 0.1953125)"><path d="M651.690032 237.947857c-36.314855 36.314855-35.649399 95.825585 1.473509 132.948493 37.122908 37.122908 96.633638 37.788363 132.948493 1.473509 36.314855-36.314855 35.649399-95.825585-1.473509-132.948493C747.515618 202.298458 687.957354 201.633002 651.690032 237.947857zM752.506533 338.764358c-18.157427 18.157427-47.912793 17.8247-66.45048-0.760521-18.58522-18.58522-18.917948-48.340585-0.760521-66.498013 18.157427-18.157427 47.912793-17.8247 66.45048 0.760521C770.331233 290.851566 770.663961 320.606931 752.506533 338.764358zM966.735657 32.322122 519.88232 0 6.7211 513.16122c-9.078714 9.078714-8.936116 23.956396 0.332728 33.22524l470.619603 470.619603c9.268844 9.268844 24.241592 9.268844 33.177708 0.332728l513.16122-513.16122-32.322122-446.853337C990.834651 44.442918 979.379311 33.22524 966.735657 32.322122zM510.138151 950.840778c-9.221311 9.173779-24.003929 8.888584-33.320305-0.427793l-403.218472-403.218472c-9.268844-9.268844-9.506506-24.241592-0.427793-33.320305l469.336225-469.336225 375.792201 35.411737c12.786251 1.188313 24.479254 12.738719 25.7151 25.7151l35.411737 375.792201L510.138151 950.840778z" fill="#272636"></path></g></g></svg>