<?xml version="1.0" encoding="utf-8"?>
<!-- Generated by IcoMoon.io -->
<!DOCTYPE svg PUBLIC "-//W3C//DTD SVG 1.1//EN" "http://www.w3.org/Graphics/SVG/1.1/DTD/svg11.dtd">
<svg version="1.1" xmlns="http://www.w3.org/2000/svg" xmlns:xlink="http://www.w3.org/1999/xlink" width="1152" height="1024" viewBox="0 0 1152 1024">
<g id="icomoon-ignore">
</g>
<path d="M798.358 364.93c-141.123-0.965-257.873 121.142-256.178 259.062 5.707 141.81 105.347 253.309 256.381 253.885 146.759 0.559 256.749-105.295 256.834-256.642 0.113-155.834-119.499-255.354-257.036-256.303zM808.859 726.58v37.070h-22.467v-36c-20.677-0.36-42.071-6.794-54.551-15.705l8.552-23.875c12.845 8.545 31.385 15.339 51.363 15.339 25.313 0 42.408-14.637 42.408-34.973 0-19.582-13.897-31.719-40.294-42.411-36.333-14.267-58.817-30.682-58.817-61.689 0-29.587 21.022-52.056 53.834-57.393v-36.020h22.123v34.603c21.398 0.704 35.988 6.415 46.325 12.452l-8.919 23.544c-7.478-4.271-22.088-12.132-44.902-12.132-27.475 0-37.8 16.392-37.8 30.683 0 18.521 13.183 27.811 44.222 40.648 36.727 14.944 55.232 33.499 55.232 65.221-0.003 28.181-19.583 54.558-56.311 60.635zM38.722 537.211l-41.647-50.426 480.727-397.050 227.845 186.581-66.674 30.525-161.068-132.369zM595.706 331.218l-113.816-93.536-409.497 338.216v240.686h427.991c-36.907-57.857-56.348-125.154-56.312-195.385-3.52-110.294 54.396-220.701 151.634-289.982zM1138.376 622.018c0.036-2.548 0.031-5.082 0.013-7.613 0.224-22.449-2.185-44.609-6.941-66.188-22.839-110.813-100.148-199.019-203.508-240.463-40.243-17.148-83.842-26.457-128.534-25.688-44.692-0.768-88.289 8.54-128.536 25.688-103.359 41.442-180.668 129.65-203.508 240.463-4.755 21.578-7.165 43.741-6.94 66.188-0.021 2.532-0.024 5.066 0.012 7.613 0.055 3.702 0.168 7.374 0.317 11.034 0.456 14.114 1.735 28.026 3.808 41.677 18.628 128.999 98.634 225.721 214.401 265.771 36.936 13.482 77.266 20.676 119.946 20.244 0.167-0.001 0.332-0.008 0.5-0.009 0.167 0.001 0.332 0.008 0.5 0.009 42.681 0.433 83.007-6.759 119.946-20.244 115.767-40.054 195.77-136.772 214.401-265.771 2.072-13.651 3.349-27.561 3.806-41.677 0.145-3.659 0.26-7.332 0.313-11.034zM1030.385 816.586c-52.936 64.386-132.465 105.675-230.135 106.175-0.28 0-0.562 0.006-0.845 0.005-0.282 0.001-0.565-0.005-0.845-0.005-97.669-0.499-177.199-41.788-230.135-106.175-29.143-35.448-50.213-77.899-61.823-124.393-4.754-21.69-7.423-44.565-7.724-68.505-0.331-26.279 2.471-51.468 8.002-75.328 20.37-78.308 68.64-143.52 133.535-183.981 7.532-4.696 15.29-9.054 23.251-13.065 39.745-19.503 84.478-30.618 131.681-31.491 1.356-0.026 2.706-0.031 4.058-0.039 1.351 0.006 2.702 0.013 4.058 0.039 47.203 0.873 91.937 11.99 131.681 31.491 7.961 4.011 15.718 8.37 23.251 13.065 64.893 40.461 113.164 105.672 133.535 183.981 5.529 23.86 8.331 49.052 8.002 75.328-0.302 23.94-2.97 46.816-7.724 68.505-11.607 46.496-32.677 88.948-61.819 124.393z"></path>
</svg>
