<?xml version="1.0" encoding="utf-8"?>
<!-- Generated by IcoMoon.io -->
<!DOCTYPE svg PUBLIC "-//W3C//DTD SVG 1.1//EN" "http://www.w3.org/Graphics/SVG/1.1/DTD/svg11.dtd">
<svg version="1.1" xmlns="http://www.w3.org/2000/svg" xmlns:xlink="http://www.w3.org/1999/xlink" width="1024" height="1024" viewBox="0 0 1024 1024">
<g id="icomoon-ignore">
</g>
<path d="M308.839 229.854v-131.727h-40.97v-65.468h-61.454v65.468h-40.97v131.727h-48.679v773.365h240.717v-773.365h-48.644zM170.986 849.581h-30.727v-64.042h30.727v64.042zM170.986 743.689h-30.727v-64.025h30.727v64.025zM170.986 637.85h-30.727v-64.025h30.727v64.025zM170.986 532.027h-30.727v-64.025h30.727v64.025zM170.986 426.187h-30.727v-64.025h30.727v64.025zM170.986 322.038h-30.727v-64.025h30.727v64.025zM223.485 849.581h-30.727v-64.042h30.727v64.042zM223.485 743.689h-30.727v-64.025h30.727v64.025zM223.485 637.85h-30.727v-64.025h30.727v64.025zM223.485 532.027h-30.727v-64.025h30.727v64.025zM223.485 426.187h-30.727v-64.025h30.727v64.025zM223.485 322.038h-30.727v-64.025h30.727v64.025zM223.485 194.006h-30.727v-64.025h30.727v64.025zM275.964 849.581h-30.727v-64.042h30.727v64.042zM275.964 743.689h-30.727v-64.025h30.727v64.025zM275.964 637.85h-30.727v-64.025h30.727v64.025zM275.964 532.027h-30.727v-64.025h30.727v64.025zM275.964 426.187h-30.727v-64.025h30.727v64.025zM275.964 322.038h-30.727v-64.025h30.727v64.025zM275.964 194.006h-30.727v-64.025h30.727v64.025zM328.461 849.581h-30.727v-64.042h30.727v64.042zM328.461 743.689h-30.727v-64.025h30.727v64.025zM328.461 637.85h-30.727v-64.025h30.727v64.025zM328.461 532.027h-30.727v-64.025h30.727v64.025zM328.461 426.187h-30.727v-64.025h30.727v64.025zM328.461 322.038h-30.727v-64.025h30.727v64.025zM743.32 117.17v-112.668h-199.747v204.868h163.899v793.851h199.747v-886.051h-163.899zM711.747 173.521h-136.585v-43.54h136.585v43.54zM711.747 86.441h-136.585v-43.54h136.585v43.54zM873.094 864.946h-136.585v-43.54h136.585v43.54zM873.094 766.339h-136.585v-43.54h136.585v43.54zM873.094 667.75h-136.585v-43.54h136.585v43.54zM873.094 569.16h-136.585v-43.557h136.585v43.557zM873.094 470.572h-136.585v-43.54h136.585v43.54zM873.094 371.983h-136.585v-43.54h136.585v43.54zM873.094 273.377h-136.585v-43.54h136.585v43.54zM403.591 229.854v773.365h286.809v-773.365h-286.809zM483.613 920.822h-30.727v-64.025h30.727v64.025zM483.613 805.144h-30.727v-64.007h30.727v64.007zM483.613 689.519h-30.727v-64.025h30.727v64.025zM483.613 573.843h-30.727v-64.025h30.727v64.025zM483.613 458.183h-30.727v-64.025h30.727v64.025zM483.613 342.523h-30.727v-64.025h30.727v64.025zM536.11 920.822h-30.746v-64.025h30.746v64.025zM536.11 805.144h-30.746v-64.007h30.746v64.007zM536.11 689.519h-30.746v-64.025h30.746v64.025zM536.11 573.843h-30.746v-64.025h30.746v64.025zM536.11 458.183h-30.746v-64.025h30.746v64.025zM536.11 342.523h-30.746v-64.025h30.746v64.025zM588.608 920.822h-30.727v-64.025h30.727v64.025zM588.608 805.144h-30.727v-64.007h30.727v64.007zM588.608 689.519h-30.727v-64.025h30.727v64.025zM588.608 573.843h-30.727v-64.025h30.727v64.025zM588.608 458.183h-30.727v-64.025h30.727v64.025zM588.608 342.523h-30.727v-64.025h30.727v64.025zM641.105 920.822h-30.727v-64.025h30.727v64.025zM641.105 805.144h-30.727v-64.007h30.727v64.007zM641.105 689.519h-30.727v-64.025h30.727v64.025zM641.105 573.843h-30.727v-64.025h30.727v64.025zM641.105 458.183h-30.727v-64.025h30.727v64.025zM641.105 342.523h-30.727v-64.025h30.727v64.025z"></path>
</svg>
