<?xml version="1.0" encoding="utf-8"?>
<!-- Generated by IcoMoon.io -->
<!DOCTYPE svg PUBLIC "-//W3C//DTD SVG 1.1//EN" "http://www.w3.org/Graphics/SVG/1.1/DTD/svg11.dtd">
<svg version="1.1" xmlns="http://www.w3.org/2000/svg" xmlns:xlink="http://www.w3.org/1999/xlink" width="1024" height="1024" viewBox="0 0 1024 1024">
<g id="icomoon-ignore">
</g>
<path d="M512 1024c-282.75 0-512-229.218-512-512 0-282.75 229.25-512 512-512s512 229.25 512 512c0 282.782-229.25 512-512 512zM512 128c-212.062 0-384 171.938-384 384s171.938 384 384 384 384-171.938 384-384-171.938-384-384-384zM512 256c-106.062 0-192 85.968-192 192h128c0-35.344 28.624-64 64-64s64 28.656 64 64-28.624 64-64 64c-2.45 0-10.216 0-32 0-17.688 0-32 14.344-32 32v96h128v-11.75c74.376-26.438 128-96.782 128-180.25 0-106.032-85.938-192-192-192zM512 704h-64v64h128v-64z"></path>
</svg>
