<?xml version="1.0" standalone="no"?><!DOCTYPE svg PUBLIC "-//W3C//DTD SVG 1.1//EN" "http://www.w3.org/Graphics/SVG/1.1/DTD/svg11.dtd"><svg t="1506567986104" class="icon" style="" viewBox="0 0 1025 1024" version="1.1" xmlns="http://www.w3.org/2000/svg" p-id="35668" xmlns:xlink="http://www.w3.org/1999/xlink" width="900.87890625" height="900"><defs><style type="text/css"></style></defs><path d="M64.0006 128.38392v191.23188A63.93596 63.93596 0 0 0 128.38456 383.99976h191.23188A63.93596 63.93596 0 0 0 384.0004 319.6158V128.38392A63.93596 63.93596 0 0 0 319.61644 63.99996H128.38456A63.93596 63.93596 0 0 0 64.0006 128.38392z m-63.99996 0C0.00064 57.471964 56.768605 0 128.38456 0h191.23188C390.528396 0 448.00036 56.767965 448.00036 128.38392v191.23188A127.93592 127.93592 0 0 1 319.61644 447.99972H128.38456A127.93592 127.93592 0 0 1 0.00064 319.6158V128.38392zM64.0006 704.38356v191.23188A63.93596 63.93596 0 0 0 128.38456 959.9994h191.23188A63.93596 63.93596 0 0 0 384.0004 895.61544v-191.23188A63.93596 63.93596 0 0 0 319.61644 639.9996H128.38456A63.93596 63.93596 0 0 0 64.0006 704.38356z m-63.99996 0C0.00064 633.471604 56.768605 575.99964 128.38456 575.99964h191.23188C390.528396 575.99964 448.00036 632.767605 448.00036 704.38356v191.23188A127.93592 127.93592 0 0 1 319.61644 1023.99936H128.38456A127.93592 127.93592 0 0 1 0.00064 895.61544v-191.23188zM608.00026 127.99992a31.99998 31.99998 0 0 1 0-63.99996h383.167761a31.99998 31.99998 0 1 1 0 63.99996H608.00026z m0 255.99984a31.99998 31.99998 0 0 1 0-63.99996h385.599759a31.99998 31.99998 0 1 1 0 63.99996H608.00026z m0 319.9998a31.99998 31.99998 0 1 1 0-63.99996h383.99976a31.99998 31.99998 0 0 1 0 63.99996h-383.99976z m0 255.99984a31.99998 31.99998 0 1 1 0-63.99996h384.959759a31.99998 31.99998 0 1 1 0 63.99996H608.00026z" fill="#000000" p-id="35669"></path></svg>