<?xml version="1.0" encoding="utf-8"?>
<!-- Generated by IcoMoon.io -->
<!DOCTYPE svg PUBLIC "-//W3C//DTD SVG 1.1//EN" "http://www.w3.org/Graphics/SVG/1.1/DTD/svg11.dtd">
<svg version="1.1" xmlns="http://www.w3.org/2000/svg" xmlns:xlink="http://www.w3.org/1999/xlink" width="1097" height="1024" viewBox="0 0 1097 1024">
<g id="icomoon-ignore">
</g>
<path d="M338.857 512q-92.571 2.857-151.429 73.143h-76.571q-46.857 0-78.857-23.143t-32-67.714q0-201.714 70.857-201.714 3.429 0 24.857 12t55.714 24.286 68 12.286q38.286 0 76-13.143-2.857 21.143-2.857 37.714 0 79.429 46.286 146.286zM950.857 876q0 68.571-41.714 108.286t-110.857 39.714h-499.429q-69.143 0-110.857-39.714t-41.714-108.286q0-30.286 2-59.143t8-62.286 15.143-62 24.571-55.714 35.429-46.286 48.857-30.571 63.714-11.429q5.714 0 24.571 12.286t41.714 27.429 61.143 27.429 77.143 12.286 77.143-12.286 61.143-27.429 41.714-27.429 24.571-12.286q34.857 0 63.714 11.429t48.857 30.571 35.429 46.286 24.571 55.714 15.143 62 8 62.286 2 59.143zM365.714 146.286q0 60.571-42.857 103.429t-103.429 42.857-103.429-42.857-42.857-103.429 42.857-103.429 103.429-42.857 103.429 42.857 42.857 103.429zM768 365.714q0 90.857-64.286 155.143t-155.143 64.286-155.143-64.286-64.286-155.143 64.286-155.143 155.143-64.286 155.143 64.286 64.286 155.143zM1097.143 494.286q0 44.571-32 67.714t-78.857 23.143h-76.571q-58.857-70.286-151.429-73.143 46.286-66.857 46.286-146.286 0-16.571-2.857-37.714 37.714 13.143 76 13.143 33.714 0 68-12.286t55.714-24.286 24.857-12q70.857 0 70.857 201.714zM1024 146.286q0 60.571-42.857 103.429t-103.429 42.857-103.429-42.857-42.857-103.429 42.857-103.429 103.429-42.857 103.429 42.857 42.857 103.429z"></path>
</svg>
