<?xml version="1.0" encoding="utf-8"?>
<!-- Generator: Adobe Illustrator 16.0.0, SVG Export Plug-In . SVG Version: 6.00 Build 0)  -->
<!DOCTYPE svg PUBLIC "-//W3C//DTD SVG 1.1//EN" "http://www.w3.org/Graphics/SVG/1.1/DTD/svg11.dtd">
<svg version="1.1" id="图层_1" xmlns="http://www.w3.org/2000/svg" xmlns:xlink="http://www.w3.org/1999/xlink" x="0px" y="0px"
	 width="200px" height="200px" viewBox="0 0 200 200" enable-background="new 0 0 200 200" xml:space="preserve">
<path d="M100.396,10.233c-49.711,0-90,40.289-90,90c0,49.697,40.289,90,90,90c49.712,0,90-40.305,90-90
	C190.396,50.522,150.107,10.233,100.396,10.233z M148.569,85.792l-42.693,42.684c-1.494,1.486-3.549,1.962-5.48,1.62
	c-1.93,0.342-3.97-0.124-5.48-1.62L53.237,86.791c-2.444-2.429-2.444-5.369,0-7.797l5-5c2.429-2.445,5.369-2.445,7.813,0
	l34.346,34.345l34.361-34.345c2.429-2.444,6.384-2.444,8.813,0C149.25,79,150.998,83.354,148.569,85.792z"/>
<path display="none" d="M170.389,100.232c0,38.661-31.335,69.997-69.994,69.997c-38.659,0-70.006-31.329-70.006-69.997
	c0-38.667,31.347-70.003,70.006-70.003C139.054,30.23,170.389,61.572,170.389,100.232z"/>
</svg>
