<?xml version="1.0" encoding="utf-8"?>
<!-- Generated by IcoMoon.io -->
<!DOCTYPE svg PUBLIC "-//W3C//DTD SVG 1.1//EN" "http://www.w3.org/Graphics/SVG/1.1/DTD/svg11.dtd">
<svg version="1.1" xmlns="http://www.w3.org/2000/svg" xmlns:xlink="http://www.w3.org/1999/xlink" width="1024" height="1024" viewBox="0 0 1024 1024">
<g id="icomoon-ignore">
</g>
<path d="M512 128q69.667 0 135.5 21.167t115.5 55 93.5 74.833 73.667 82 51.667 74.833 32.167 54.833l10 21.333q-2.333 5-6.333 13.5t-18.833 34.667-31.667 51.667-44.333 60-56.833 64.333-69.5 60.167-82.333 51.5-94.833 34.667-107.333 13.5q-69.667 0-135.5-21.167t-115.5-54.833-93.5-74.333-73.667-81.5-51.667-74.5-32.167-55l-10-21q2.333-5 6.333-13.5t18.833-34.833 31.667-51.833 44.333-60.333 56.833-64.667 69.5-60.333 82.333-51.833 94.833-34.833 107.333-13.5zM512 213.333q-46.667 0-91.667 12.333t-81.167 31.833-70.667 47.167-59.667 54.5-48.833 57.667-37.667 52.833-26.333 44q12.333 21.667 26.333 43.5t37.667 52.333 48.833 57 59.667 53.833 70.667 46.667 81.167 31.5 91.667 12.167 91.667-12.333 81.167-31.667 70.667-46.833 59.667-54.167 48.833-57.333 37.667-52.667 26.333-43.667q-12.333-21.667-26.333-43.667t-37.667-52.667-48.833-57.333-59.667-54.167-70.667-46.833-81.167-31.667-91.667-12.333zM512 341.333q70.667 0 120.667 50t50 120.667-50 120.667-120.667 50-120.667-50-50-120.667 50-120.667 120.667-50zM512 426.667q-35.333 0-60.333 25t-25 60.333 25 60.333 60.333 25 60.333-25 25-60.333-25-60.333-60.333-25z"></path>
</svg>
