<?xml version="1.0" standalone="no"?><!DOCTYPE svg PUBLIC "-//W3C//DTD SVG 1.1//EN" "http://www.w3.org/Graphics/SVG/1.1/DTD/svg11.dtd"><svg width="241.015625" height="200" viewBox="0 0 241.015625 200" version="1.1" xmlns="http://www.w3.org/2000/svg" xmlns:xlink="http://www.w3.org/1999/xlink"><defs><style type="text/css"><![CDATA[
@font-face { font-family: ifont; src: url(http://at.alicdn.com/t/font_1442373896_4754455.eot?#iefix) format(embedded-opentype), url(http://at.alicdn.com/t/font_1442373896_4754455.woff) format(woff), url(http://at.alicdn.com/t/font_1442373896_4754455.ttf) format(truetype), url(http://at.alicdn.com/t/font_1442373896_4754455.svg#ifont) format(svg); }

]]></style></defs><g class="transform-group"><g transform="scale(0.1953125, 0.1953125)"><path d="M966.385053 979.656348C845.960109 979.656348 747.986842 881.683081 747.986842 761.258137 747.986842 640.833193 845.960109 542.859925 966.385053 542.859925 1086.809998 542.859925 1184.783265 640.833193 1184.783265 761.258137 1184.783265 881.683081 1086.809998 979.656348 966.385053 979.656348M966.385053 498.338186C821.40955 498.338186 703.465103 616.282634 703.465103 761.258137 703.465103 906.23364 821.40955 1024.178087 966.385053 1024.178087 1111.360557 1024.178087 1229.305004 906.23364 1229.305004 761.258137 1229.305004 616.282634 1111.360557 498.338186 966.385053 498.338186M612.906614 827.109605 76.934837 827.109605C59.062539 827.109605 44.523011 812.570077 44.523011 794.691419L44.523011 76.924661C44.523011 59.058723 59.062539 44.519195 76.934837 44.519195L1110.589694 44.519195C1128.461993 44.519195 1142.99516 59.058723 1142.99516 76.924661L1142.99516 475.324263C1142.99516 487.624984 1152.96167 497.585133 1165.25603 497.585133 1177.54403 497.585133 1187.516899 487.624984 1187.516899 475.324263L1187.516899 76.924661C1187.516899 34.508164 1153.006191-0.002544 1110.589694-0.002544L76.934837-0.002544C34.51834-0.002544 0.001272 34.508164 0.001272 76.924661L0.001272 794.691419C0.001272 837.114276 34.51834 871.631344 76.934837 871.631344L612.906614 871.631344C625.200974 871.631344 635.167483 861.664835 635.167483 849.370475 635.167483 837.076114 625.200974 827.109605 612.906614 827.109605M1042.78881 111.30244 593.748909 562.841918C592.871195 563.083607 591.491021 563.089968 590.645108 562.873719L144.785332 111.353322C136.148114 102.60798 122.047443 102.518937 113.302102 111.162514 104.5504 119.793371 104.467717 133.894042 113.104934 142.639384L560.796462 596.004253C561.51517 596.735682 562.28476 597.416229 563.105232 598.039533 571.392636 604.380701 581.778922 607.554465 592.171568 607.554465 602.557853 607.554465 612.950499 604.380701 621.237903 598.045893 622.039294 597.435309 622.789804 596.773843 623.495791 596.061496L1074.354723 142.696626C1083.023742 133.976725 1082.98558 119.882415 1074.26568 111.213396 1065.545779 102.550738 1051.445108 102.576179 1042.78881 111.30244M1086.366688 738.997903 900.151334 738.997903 944.965645 694.189953C953.660104 685.495493 953.660104 671.401183 944.965645 662.706723 936.277545 654.012263 922.183235 654.012263 913.482415 662.700363L830.66562 745.510798C830.500253 745.676164 830.392129 745.873332 830.233123 746.038698 829.39993 746.922773 828.598539 747.851369 827.917993 748.862648 827.650862 749.263344 827.472775 749.702201 827.237446 750.115617 826.747707 750.95517 826.238887 751.788363 825.863632 752.691518 825.653744 753.193978 825.55198 753.728239 825.380253 754.243419 825.094042 755.108412 824.76967 755.947965 824.585222 756.85112 824.292651 758.288537 824.140005 759.764114 824.140005 761.258773L824.140005 761.258773 824.140005 761.258773C824.140005 761.316015 824.159086 761.373257 824.159086 761.430499 824.171806 762.861555 824.305371 764.27353 824.585222 765.653704 824.795111 766.677704 825.144924 767.644462 825.482017 768.61122 825.621943 769.005555 825.698266 769.418971 825.857272 769.806947 826.302489 770.875468 826.881272 771.867667 827.479135 772.840785 827.631781 773.101555 827.739906 773.381406 827.905272 773.629456 828.719384 774.844263 829.64798 775.982748 830.67834 777.013108L913.482415 859.810822C917.832825 864.154872 923.525247 866.330077 929.22403 866.330077 934.916452 866.330077 940.621595 864.154872 944.965645 859.810822 953.660104 851.116363 953.660104 837.022052 944.965645 828.327593L900.151334 783.519642 1086.366688 783.519642C1098.661048 783.519642 1108.627558 773.553133 1108.627558 761.258773 1108.627558 748.964412 1098.661048 738.997903 1086.366688 738.997903" fill="#272636"></path></g></g></svg>