<?xml version="1.0" standalone="no"?><!DOCTYPE svg PUBLIC "-//W3C//DTD SVG 1.1//EN" "http://www.w3.org/Graphics/SVG/1.1/DTD/svg11.dtd"><svg t="1489549795010" class="icon" style="" viewBox="0 0 1024 1024" version="1.1" xmlns="http://www.w3.org/2000/svg" p-id="3375" xmlns:xlink="http://www.w3.org/1999/xlink" width="1050" height="1050"><defs><style type="text/css"></style></defs><path d="M792.455995 627.110691c-64.036455 0-119.508861 36.7019-146.536424 90.216721l-257.277598-175.709861c0.711198-6.207375 1.090844-12.517081 1.090844-18.915815 0-11.088546-1.107217-21.917172-3.203972-32.388664l265.37195-181.25004c28.729322 47.581692 80.931241 79.397305 140.5552 79.397305 90.599438 0 164.072823-73.455989 164.072823-164.071799 0-90.613764-73.473385-164.072823-164.072823-164.072823s-164.072823 73.459059-164.072823 164.072823c0 9.18315 0.76748 18.186198 2.217505 26.959002l-267.060405 182.40433c-29.224602-45.200458-80.062454-75.121931-137.880277-75.121931-90.600461 0-164.072823 73.459059-164.072823 164.071799 0 90.616834 73.472362 164.071799 164.072823 164.071799 62.231343 0 116.380614-34.658358 144.191006-85.7285l259.06122 176.931688c-0.346901 4.357238-0.530073 8.761548-0.530073 13.20679 0 90.616834 73.473385 164.072823 164.072823 164.072823s164.072823-73.455989 164.072823-164.072823C956.528817 700.56975 883.055432 627.110691 792.455995 627.110691z" p-id="3376"></path></svg>