<?xml version="1.0" encoding="utf-8"?>
<!-- Generated by IcoMoon.io -->
<!DOCTYPE svg PUBLIC "-//W3C//DTD SVG 1.1//EN" "http://www.w3.org/Graphics/SVG/1.1/DTD/svg11.dtd">
<svg version="1.1" xmlns="http://www.w3.org/2000/svg" xmlns:xlink="http://www.w3.org/1999/xlink" width="1024" height="1024" viewBox="0 0 1024 1024">
<g id="icomoon-ignore">
</g>
<path d="M385.714 733.714q12-19.429 6.286-39.429t-25.714-28.571q-19.429-8-41.714-0.571t-34.286 26.286q-12.571 19.429-7.429 39.143t24.571 28.857 42.571 1.429 35.714-27.143zM439.429 664.571q4.571-7.429 2-15.143t-10-10.571q-8-2.857-16.286 0.286t-12.286 10.571q-9.714 17.714 7.429 25.714 8 2.857 16.571-0.286t12.571-10.571zM538.857 725.714q-25.714 58.286-90.286 85.714t-128 6.857q-61.143-19.429-84.286-72.286t3.714-107.143q26.857-53.143 86.571-79.429t120.286-10.857q63.429 16.571 90.571 68.286t1.429 108.857zM717.143 634.286q-5.143-54.857-50.857-97.143t-119.143-62.286-156.857-12q-127.429 13.143-211.143 80.857t-75.714 151.143q5.143 54.857 50.857 97.143t119.143 62.286 156.857 12q127.429-13.143 211.143-80.857t75.714-151.143zM893.143 636.571q0 38.857-21.143 79.714t-62.286 78.286-96.286 67.143-129.143 47.429-154.571 17.714-157.143-19.143-137.429-53.143-98-86.286-37.143-114q0-65.714 39.714-140t112.857-147.429q96.571-96.571 195.143-134.857t140.857 4q37.143 36.571 11.429 119.429-2.286 8-0.571 11.429t5.714 4 8.286-0.286 7.714-2l3.429-1.143q79.429-33.714 140.571-33.714t87.429 34.857q25.714 36 0 101.714-1.143 7.429-2.571 11.429t2.571 7.143 6.857 4.286 9.714 3.429q32.571 10.286 58.857 26.857t45.714 46.571 19.429 66.571zM850.857 280q24 26.857 31.143 62t-3.714 67.143q-4.571 13.143-16.857 19.429t-25.429 2.286q-13.143-4.571-19.429-16.857t-2.286-25.429q11.429-36-13.714-63.429t-61.143-20q-13.714 2.857-25.714-4.571t-14.286-21.143q-2.857-13.714 4.571-25.429t21.143-14.571q34.286-7.429 68 3.143t57.714 37.429zM954.286 186.857q49.714 54.857 64.286 127.143t-7.714 138q-5.143 15.429-19.429 22.857t-29.714 2.286-22.857-19.429-2.857-29.714q16-46.857 5.714-98.286t-45.714-90.286q-35.429-39.429-84.571-54.571t-98.857-4.857q-16 3.429-29.714-5.429t-17.143-24.857 5.429-29.429 24.857-16.857q70.286-14.857 139.429 6.571t118.857 76.857z"></path>
</svg>
