<?xml version="1.0" standalone="no"?><!DOCTYPE svg PUBLIC "-//W3C//DTD SVG 1.1//EN" "http://www.w3.org/Graphics/SVG/1.1/DTD/svg11.dtd"><svg width="200" height="200" viewBox="0 0 200 200" version="1.1" xmlns="http://www.w3.org/2000/svg" xmlns:xlink="http://www.w3.org/1999/xlink"><defs><style type="text/css"><![CDATA[
@font-face { font-family: ifont; src: url(http://at.alicdn.com/t/font_1442373896_4754455.eot?#iefix) format(embedded-opentype), url(http://at.alicdn.com/t/font_1442373896_4754455.woff) format(woff), url(http://at.alicdn.com/t/font_1442373896_4754455.ttf) format(truetype), url(http://at.alicdn.com/t/font_1442373896_4754455.svg#ifont) format(svg); }

]]></style></defs><g class="transform-group"><g transform="scale(0.1953125, 0.1953125)"><path d="M512 0c123.733333 0 236.8 49.066667 317.866667 132.266667 151.466667 151.466667 174.933333 394.666667 53.333333 571.733333-49.066667 72.533333-119.466667 128-200.533333 162.133333l-142.933333 145.066667c-14.933333 14.933333-40.533333 14.933333-55.466667 0l0 0 0-2.133333L341.333333 866.133333C258.133333 832 189.866667 776.533333 140.8 704 19.2 526.933333 40.533333 283.733333 194.133333 132.266667 275.2 49.066667 388.266667 0 512 0L512 0zM774.4 187.733333 774.4 187.733333C708.266667 119.466667 614.4 78.933333 512 78.933333c-102.4 0-196.266667 42.666667-262.4 108.8C123.733333 313.6 106.666667 514.133333 204.8 659.2c42.666667 61.866667 100.266667 108.8 170.666667 136.533333 6.4 2.133333 10.666667 4.266667 14.933333 10.666667l121.6 123.733333 121.6-123.733333 0 0c4.266667-4.266667 8.533333-6.4 14.933333-8.533333 70.4-27.733333 130.133333-74.666667 170.666667-136.533333C919.466667 514.133333 900.266667 313.6 774.4 187.733333L774.4 187.733333zM514.133333 729.6m-40.533333 0a1.9 1.9 0 1 0 81.066667 0 1.9 1.9 0 1 0-81.066667 0ZM416 347.733333 416 347.733333c0-27.733333 10.666667-49.066667 27.733333-66.133333 8.533333-10.666667 21.333333-17.066667 32-21.333333 12.8-4.266667 25.6-8.533333 38.4-8.533333l0 0c23.466667 0 46.933333 8.533333 66.133333 27.733333 8.533333 8.533333 12.8 17.066667 19.2 25.6 8.533333 17.066667 12.8 36.266667 10.666667 55.466667-2.133333 17.066667-10.666667 36.266667-25.6 49.066667-6.4 6.4-14.933333 12.8-23.466667 17.066667-21.333333 10.666667-42.666667 23.466667-59.733333 46.933333l0 0c-17.066667 23.466667-29.866667 55.466667-29.866667 104.533333 0 23.466667 17.066667 40.533333 40.533333 40.533333S554.666667 599.466667 554.666667 576c0-27.733333 4.266667-44.8 12.8-55.466667 8.533333-10.666667 21.333333-17.066667 34.133333-23.466667 14.933333-8.533333 29.866667-19.2 40.533333-32 27.733333-27.733333 42.666667-61.866667 49.066667-98.133333 4.266667-34.133333-2.133333-72.533333-19.2-106.666667-8.533333-14.933333-19.2-29.866667-32-42.666667-36.266667-36.266667-81.066667-51.2-123.733333-51.2l0 0c-25.6 0-49.066667 4.266667-70.4 14.933333-21.333333 8.533333-42.666667 23.466667-59.733333 38.4-29.866667 32-51.2 74.666667-51.2 125.866667 0 23.466667 17.066667 40.533333 40.533333 40.533333S416 369.066667 416 347.733333L416 347.733333z" fill="#000000"></path></g></g></svg>