<?xml version="1.0" standalone="no"?><!DOCTYPE svg PUBLIC "-//W3C//DTD SVG 1.1//EN" "http://www.w3.org/Graphics/SVG/1.1/DTD/svg11.dtd"><svg width="200" height="200" viewBox="0 0 200 200" version="1.1" xmlns="http://www.w3.org/2000/svg" xmlns:xlink="http://www.w3.org/1999/xlink"><defs><style type="text/css"><![CDATA[
@font-face { font-family: ifont; src: url(http://at.alicdn.com/t/font_1442373896_4754455.eot?#iefix) format(embedded-opentype), url(http://at.alicdn.com/t/font_1442373896_4754455.woff) format(woff), url(http://at.alicdn.com/t/font_1442373896_4754455.ttf) format(truetype), url(http://at.alicdn.com/t/font_1442373896_4754455.svg#ifont) format(svg); }

]]></style></defs><g class="transform-group"><g transform="scale(0.1953125, 0.1953125)"><path d="M985.6 192c-1.6 3.2-91.2 291.2-182.4 528-36.8 96-67.2 163.2-107.2 208-38.4 41.6-83.2 60.8-145.6 62.4 0 0-1.6 0-1.6 0-44.8 4.8-97.6-20.8-97.6-20.8L142.4 830.4c0 0-145.6-46.4-102.4-235.2l420.8 169.6c0 0-16 168 115.2 148.8 27.2-4.8 48-16 65.6-35.2 32-35.2 60.8-99.2 92.8-184 68.8-184 139.2-398.4 168-484.8L427.2 115.2 260.8 574.4c-6.4 19.2-28.8 28.8-48 22.4-19.2-6.4-28.8-28.8-22.4-48L369.6 60.8c6.4-17.6 24-27.2 41.6-24l545.6 108.8c9.6 1.6 19.2 8 24 17.6C987.2 171.2 988.8 182.4 985.6 192L985.6 192zM689.6 481.6c19.2 6.4 30.4 27.2 24 46.4-4.8 16-19.2 25.6-35.2 25.6-3.2 0-8 0-11.2-1.6l-161.6-52.8c-19.2-6.4-30.4-27.2-24-46.4 6.4-19.2 27.2-30.4 46.4-24L689.6 481.6 689.6 481.6zM547.2 302.4c4.8-19.2 25.6-32 44.8-25.6L753.6 320c19.2 4.8 32 25.6 25.6 44.8-4.8 16-19.2 27.2-35.2 27.2-3.2 0-6.4 0-9.6-1.6l-161.6-44.8C553.6 342.4 540.8 321.6 547.2 302.4L547.2 302.4zM652.8 676.8c-4.8 16-19.2 25.6-35.2 25.6-3.2 0-8 0-11.2-1.6l-161.6-52.8c-19.2-6.4-30.4-27.2-24-46.4 6.4-19.2 27.2-30.4 46.4-24l161.6 52.8C649.6 636.8 659.2 657.6 652.8 676.8L652.8 676.8zM510.4 286.4c-3.2 17.6-19.2 28.8-36.8 28.8-3.2 0-4.8 0-8 0l-1.6 0c-1.6 0-3.2 0-3.2-1.6-19.2-4.8-32-24-28.8-43.2 4.8-19.2 24-32 43.2-28.8 1.6 0 1.6 0 3.2 0l1.6 0C500.8 246.4 513.6 265.6 510.4 286.4L510.4 286.4zM452.8 440c-3.2 17.6-19.2 28.8-36.8 28.8-3.2 0-4.8 0-8 0l-1.6 0c-1.6 0-3.2 0-4.8-1.6-19.2-4.8-32-24-28.8-43.2 4.8-19.2 24-32 43.2-28.8 1.6 0 1.6 0 3.2 0l1.6 0C443.2 400 456 419.2 452.8 440L452.8 440zM393.6 580.8c-3.2 17.6-19.2 28.8-36.8 28.8-3.2 0-4.8 0-8-1.6l-1.6 0c-1.6 0-3.2 0-3.2 0-19.2-4.8-32-24-28.8-43.2 4.8-19.2 24-32 43.2-28.8 1.6 0 1.6 0 3.2 0l1.6 0C385.6 542.4 396.8 561.6 393.6 580.8L393.6 580.8zM393.6 580.8" fill="#000000"></path></g></g></svg>