<?xml version="1.0" encoding="utf-8"?>
<!-- Generated by IcoMoon.io -->
<!DOCTYPE svg PUBLIC "-//W3C//DTD SVG 1.1//EN" "http://www.w3.org/Graphics/SVG/1.1/DTD/svg11.dtd">
<svg version="1.1" xmlns="http://www.w3.org/2000/svg" xmlns:xlink="http://www.w3.org/1999/xlink" width="1024" height="1024" viewBox="0 0 1024 1024">
<g id="icomoon-ignore">
</g>
<path d="M960 0h-512c-35.376 0-64 28.624-64 64v512c0 35.376 28.624 64 64 64h512c35.376 0 64-28.624 64-64v-512c0-35.376-28.624-64-64-64zM896 512h-384v-384h384v384zM512 896h-384v-384h128v-128h-192c-35.376 0-64 28.624-64 64v512c0 35.376 28.624 64 64 64h512c35.376 0 64-28.624 64-64v-192h-128v128z"></path>
</svg>
