<?xml version="1.0" encoding="utf-8"?>
<!-- Generated by IcoMoon.io -->
<!DOCTYPE svg PUBLIC "-//W3C//DTD SVG 1.1//EN" "http://www.w3.org/Graphics/SVG/1.1/DTD/svg11.dtd">
<svg version="1.1" xmlns="http://www.w3.org/2000/svg" xmlns:xlink="http://www.w3.org/1999/xlink" width="1072" height="1024" viewBox="0 0 1072 1024">
<g id="icomoon-ignore">
</g>
<path d="M562.119 16.493l217.326 141.953v847.163h-217.326zM796.45 627.108v374.068h266.104v-289.067l-266.104-85.001zM908.809 919.844l-81.314-23.672v-70.178l81.314 29.522v64.328zM908.809 797.112l-81.314-23.672v-70.159l81.314 29.538v64.292zM1010.816 949.383l-81.35-23.653v-70.214l81.35 29.574v64.292zM1010.816 826.686l-81.332-23.672v-70.196l81.35 29.538v64.328zM268.637 185.042v561.692l-38.423 25.106v-187.606l-24.38 10.082v-187.134l-177.451 78.353v182.283l-16.986 7.048v330.742h525.886v-992.058l-268.648 171.492zM44.663 521.214l59.877-27.704v72.049l-59.877 26.632v-70.978zM49.095 638.026l59.877-27.741v72.085l-59.877 26.596v-70.94zM110.789 896.9l-59.86 26.632v-70.978l59.86-27.722v72.067zM110.789 787.101l-59.86 26.651v-70.978l59.86-27.704v72.030zM119.309 486.482l59.896-27.722v72.085l-59.896 26.615v-70.978zM123.759 603.256l59.877-27.722v72.085l-59.877 26.651v-71.014zM190.649 862.548l-59.877 26.651v-70.978l59.877-27.722v72.049zM190.649 752.785l-59.877 26.596v-70.94l59.877-27.722v72.067zM382.469 765.266l-82.821 51.83v-76.863l82.821-53.592v78.625zM382.469 635.373l-82.821 51.793v-76.881l82.821-53.573v78.661zM382.469 505.446l-82.821 51.848v-76.918l82.821-53.609v78.679zM382.469 375.52l-82.821 51.81v-76.881l82.821-53.609v78.679zM382.469 245.592l-82.821 51.83v-76.899l82.821-53.592v78.661zM505.185 688.475l-96.1 60.13v-79.206l96.1-62.221v81.295zM505.185 558.566l-96.1 60.15v-79.242l96.1-62.221v81.314zM505.185 428.638l-96.1 60.15v-79.224l96.1-62.238v81.314zM505.185 298.711l-96.1 60.15v-79.224l96.1-62.238v81.314zM505.185 168.765l-96.1 60.15v-79.242l96.1-62.221v81.314z"></path>
</svg>
