<?xml version="1.0" standalone="no"?><!DOCTYPE svg PUBLIC "-//W3C//DTD SVG 1.1//EN" "http://www.w3.org/Graphics/SVG/1.1/DTD/svg11.dtd"><svg t="1483671460930" class="icon" style="" viewBox="0 0 1024 1024" version="1.1" xmlns="http://www.w3.org/2000/svg" p-id="3873" xmlns:xlink="http://www.w3.org/1999/xlink" width="1024" height="1024"><defs><style type="text/css"></style></defs><path d="M666.953629 538.998911c0-6.29538 5.108345-11.419074 11.405771-11.419074l36.21276 0c6.310729 0 11.403724 5.122671 11.403724 11.419074l0 20.572548 90.937129-19.48682L816.913013 279.498692c0-11.468193-6.077416-22.059412-15.965623-27.823696l-174.48701-101.794407c-9.950629-5.812379-22.243607-5.858428-32.243355-0.110517-9.983375 5.750981-16.138562 16.404622-16.138562 27.934213l0 413.557944 88.875167-19.044752L666.953629 538.998911zM666.953629 265.187755c0-6.310729 5.108345-11.419074 11.405771-11.419074l36.21276 0c6.310729 0 11.403724 5.109368 11.403724 11.419074l0 36.243459c0 6.282077-5.092995 11.404748-11.403724 11.404748l-36.21276 0c-6.296403 0-11.405771-5.122671-11.405771-11.404748L666.953629 265.187755zM666.953629 356.452341c0-6.310729 5.108345-11.402701 11.405771-11.402701l36.21276 0c6.310729 0 11.403724 5.091972 11.403724 11.402701l0 36.244482c0 6.310729-5.092995 11.403724-11.403724 11.403724l-36.21276 0c-6.296403 0-11.405771-5.092995-11.405771-11.403724L666.953629 356.452341zM666.953629 447.718975c0-6.311753 5.108345-11.403724 11.405771-11.403724l36.21276 0c6.310729 0 11.403724 5.090948 11.403724 11.403724l0 36.244482c0 6.310729-5.092995 11.418051-11.403724 11.418051l-36.21276 0c-6.296403 0-11.405771-5.108345-11.405771-11.418051L666.953629 447.718975zM288.098046 630.250194c0-6.28003 5.108345-11.405771 11.404748-11.405771l36.228109 0c6.296403 0 11.404748 5.125741 11.404748 11.405771l0 10.500145 50.791803-10.883885c0.203638-6.101975 5.201465-11.022031 11.367909-11.022031l36.229133 0c0.860601 0 1.696642 0.104377 2.503007 0.285502l93.464695-20.028149L541.492196 93.968162c0-10.810207-5.452175-20.918425-14.481829-26.885324-9.029654-5.951549-20.449751-6.983041-30.386054-2.702552L223.93777 181.484378c-11.825326 5.061272-19.481703 16.714683-19.481703 29.588899l0 460.251406 83.640955-17.923208L288.097022 630.250194zM397.90801 173.908842c0-6.296403 5.091972-11.42112 11.387351-11.42112l36.229133 0c6.293333 0 11.402701 5.124717 11.402701 11.42112l0 36.243459c0 6.327102-5.109368 11.418051-11.402701 11.418051L409.295362 221.570351c-6.296403 0-11.387351-5.091972-11.387351-11.418051L397.90801 173.908842zM397.90801 265.187755c0-6.310729 5.091972-11.419074 11.387351-11.419074l36.229133 0c6.293333 0 11.402701 5.109368 11.402701 11.419074l0 36.243459c0 6.282077-5.109368 11.404748-11.402701 11.404748L409.295362 312.835961c-6.296403 0-11.387351-5.122671-11.387351-11.404748L397.90801 265.187755zM397.90801 356.452341c0-6.310729 5.091972-11.402701 11.387351-11.402701l36.229133 0c6.293333 0 11.402701 5.091972 11.402701 11.402701l0 36.244482c0 6.310729-5.109368 11.403724-11.402701 11.403724L409.295362 404.100548c-6.296403 0-11.387351-5.092995-11.387351-11.403724L397.90801 356.452341zM397.90801 447.718975c0-6.311753 5.091972-11.403724 11.387351-11.403724l36.229133 0c6.293333 0 11.402701 5.090948 11.402701 11.403724l0 36.244482c0 6.310729-5.109368 11.418051-11.402701 11.418051L409.295362 495.381507c-6.296403 0-11.387351-5.108345-11.387351-11.418051L397.90801 447.718975zM397.90801 538.998911c0-6.29538 5.091972-11.419074 11.387351-11.419074l36.229133 0c6.293333 0 11.402701 5.122671 11.402701 11.419074l0 36.243459c0 6.29538-5.109368 11.405771-11.402701 11.405771L409.295362 586.648141c-6.296403 0-11.387351-5.109368-11.387351-11.405771L397.90801 538.998911zM288.098046 265.187755c0-6.310729 5.108345-11.419074 11.404748-11.419074l36.228109 0c6.296403 0 11.404748 5.109368 11.404748 11.419074l0 36.243459c0 6.282077-5.108345 11.404748-11.404748 11.404748l-36.228109 0c-6.296403 0-11.404748-5.122671-11.404748-11.404748L288.098046 265.187755zM288.098046 356.452341c0-6.310729 5.108345-11.402701 11.404748-11.402701l36.228109 0c6.296403 0 11.404748 5.091972 11.404748 11.402701l0 36.244482c0 6.310729-5.108345 11.403724-11.404748 11.403724l-36.228109 0c-6.296403 0-11.404748-5.092995-11.404748-11.403724L288.098046 356.452341zM288.098046 447.718975c0-6.311753 5.108345-11.403724 11.404748-11.403724l36.228109 0c6.296403 0 11.404748 5.090948 11.404748 11.403724l0 36.244482c0 6.310729-5.108345 11.418051-11.404748 11.418051l-36.228109 0c-6.296403 0-11.404748-5.108345-11.404748-11.418051L288.098046 447.718975zM288.098046 538.998911c0-6.29538 5.108345-11.419074 11.404748-11.419074l36.228109 0c6.296403 0 11.404748 5.122671 11.404748 11.419074l0 36.243459c0 6.29538-5.108345 11.405771-11.404748 11.405771l-36.228109 0c-6.296403 0-11.404748-5.109368-11.404748-11.405771L288.098046 538.998911zM862.686523 605.690846 190.802092 733.669612l0 31.993668 671.88443-127.978766L862.686523 605.690846zM190.802092 925.634692l0 31.994692 703.876052-127.977743 0-31.994692L190.802092 925.634692zM289.489742 802.155403l-98.499361 23.13593-2.905166 31.855522 98.497315-23.121604L289.489742 802.155403zM542.349727 803.687292l4.047176-31.728632-99.263771 19.636223-4.030803 31.743982L542.349727 803.687292zM830.426795 738.620367l3.310396-31.822776-98.779747 21.901823-3.297093 31.824823L830.426795 738.620367z" p-id="3874" fill="#707070"></path></svg>