<?xml version="1.0" standalone="no"?><!DOCTYPE svg PUBLIC "-//W3C//DTD SVG 1.1//EN" "http://www.w3.org/Graphics/SVG/1.1/DTD/svg11.dtd"><svg t="1484895268182" class="icon" style="" viewBox="0 0 1024 1024" version="1.1" xmlns="http://www.w3.org/2000/svg" p-id="1362" xmlns:xlink="http://www.w3.org/1999/xlink" width="800" height="800"><defs><style type="text/css"></style></defs><path d="M847.615269 960.606181l-672.629397 0c-61.910025 0-112.105241-50.193169-112.105241-112.104217l0-672.629397c0-3.448542 0.711198-6.67912 1.013073-10.018168l172.454724 124.558877c151.845337 109.669772 398.057925 109.669772 549.905308 0l172.451654-124.558877c0.302899 3.339048 1.013073 6.568602 1.013073 10.018168l0 672.629397C959.718463 910.413012 909.525294 960.606181 847.615269 960.606181zM679.456385 722.383568c0-7.716752-6.265704-14.013155-14.012132-14.013155L539.325857 708.370413l0-56.051597 126.118396 0c7.746428 0 14.012132-6.26775 14.012132-14.012132l0-28.02631c0-7.716752-6.265704-14.014178-14.012132-14.014178l-64.264653 0 76.032674-136.299269c2.24411-4.022617-1.122567-10.372232-7.499811-14.176884l-23.179932-13.848403c-6.376221-3.831258-13.383822-3.666506-15.626909 0.356111l-89.334631 160.139234c-0.602727 1.066285 0.10847 2.517333 0.274246 3.829212l-16.531512 0-28.025287 0-9.688663 0-87.910189-152.282289c-2.353604-4.050246-9.688663-4.213975-16.367783-0.355087l-24.303522 14.013155c-6.678096 3.858888-10.209526 10.317996-7.882528 14.368242l71.762417 124.257002-65.741283 0c-7.718799 0-14.013155 6.297426-14.013155 14.014178l0 28.02631c0 7.744381 6.294356 14.012132 14.013155 14.012132l126.118396 0 0 56.051597L357.155864 708.371436c-7.718799 0-14.013155 6.296403-14.013155 14.013155l0 28.028357c0 7.744381 6.294356 14.012132 14.013155 14.012132l126.118396 0 0 70.065775c0 7.744381 6.29538 14.012132 14.013155 14.012132l28.025287 0c7.746428 0 14.013155-6.26775 14.013155-14.012132l0-70.065775 126.118396 0c7.746428 0 14.012132-6.26775 14.012132-14.012132L679.456385 722.383568zM291.360346 250.699786 89.100806 104.629989c20.553105-24.768103 51.18066-40.86164 85.885066-40.86164l672.629397 0c34.704406 0 65.331961 16.093537 85.886089 40.86164L731.239771 250.699786C609.776396 338.447269 412.824745 338.447269 291.360346 250.699786z" p-id="1363"></path></svg>