<?xml version="1.0" encoding="utf-8"?>
<!-- Generated by IcoMoon.io -->
<!DOCTYPE svg PUBLIC "-//W3C//DTD SVG 1.1//EN" "http://www.w3.org/Graphics/SVG/1.1/DTD/svg11.dtd">
<svg version="1.1" xmlns="http://www.w3.org/2000/svg" xmlns:xlink="http://www.w3.org/1999/xlink" width="1024" height="1024" viewBox="0 0 1024 1024">
<g id="icomoon-ignore">
</g>
<path d="M520.067 248.814c167.693 1.645 272.747-8.789 286.937 177.083h204.492c0-287.943-251.126-326.754-496.751-326.754-245.647 0-496.751 38.812-496.751 326.754h202.907c15.699-189.434 132.87-178.728 299.171-177.083zM119.406 518.445c49.807 0 91.253 2.98 100.465-46.012 1.238-6.659 1.955-14.209 1.955-22.939h-204.841c0 72.9 45.858 68.951 102.422 68.951zM808.321 449.495h-1.916c0 8.789 0.755 16.357 2.17 22.939 9.717 45.182 51.105 42.374 100.737 42.374 56.834 0 102.905 3.737 102.905-65.312h-203.894zM708.417 399.862v-28.959c0-12.95-14.925-13.764-33.353-13.764h-30.101c-18.409 0-33.334 0.813-33.334 13.764v44.309h-212.933v-44.309c0-12.95-14.925-13.764-33.334-13.764h-30.12c-18.409 0-33.334 0.813-33.334 13.764v54.24c-48.51 50.406-207.242 264.984-213.011 290.982l0.076 173.347c0 16.010 13.027 29.036 29.036 29.036h774.301c16.010 0 29.036-13.027 29.036-29.036v-174.217c-5.709-25.224-164.404-239.704-212.933-290.111v-25.28zM388.204 739.452c-15.583 0-28.224-12.621-28.224-28.224s12.641-28.224 28.224-28.224 28.224 12.621 28.224 28.224-12.641 28.224-28.224 28.224zM388.204 642.663c-15.583 0-28.224-12.621-28.224-28.224s12.641-28.224 28.224-28.224 28.224 12.621 28.224 28.224-12.641 28.224-28.224 28.224zM388.204 545.874c-15.583 0-28.224-12.621-28.224-28.224 0-15.583 12.641-28.224 28.224-28.224s28.224 12.641 28.224 28.224c0 15.602-12.641 28.224-28.224 28.224zM504.349 739.452c-15.583 0-28.224-12.621-28.224-28.224s12.641-28.224 28.224-28.224c15.602 0 28.224 12.621 28.224 28.224s-12.621 28.224-28.224 28.224zM504.349 642.663c-15.583 0-28.224-12.621-28.224-28.224s12.641-28.224 28.224-28.224c15.602 0 28.224 12.621 28.224 28.224s-12.621 28.224-28.224 28.224zM504.349 545.874c-15.583 0-28.224-12.621-28.224-28.224 0-15.583 12.641-28.224 28.224-28.224 15.602 0 28.224 12.641 28.224 28.224 0 15.602-12.621 28.224-28.224 28.224zM620.495 739.452c-15.602 0-28.224-12.621-28.224-28.224s12.621-28.224 28.224-28.224 28.224 12.621 28.224 28.224-12.621 28.224-28.224 28.224zM620.495 642.663c-15.602 0-28.224-12.621-28.224-28.224s12.621-28.224 28.224-28.224 28.224 12.621 28.224 28.224-12.621 28.224-28.224 28.224zM620.495 545.874c-15.602 0-28.224-12.621-28.224-28.224 0-15.583 12.621-28.224 28.224-28.224s28.224 12.641 28.224 28.224c0 15.602-12.621 28.224-28.224 28.224z"></path>
</svg>
