<?xml version="1.0" encoding="utf-8"?>
<!-- Generator: Adobe Illustrator 16.0.0, SVG Export Plug-In . SVG Version: 6.00 Build 0)  -->
<!DOCTYPE svg PUBLIC "-//W3C//DTD SVG 1.1//EN" "http://www.w3.org/Graphics/SVG/1.1/DTD/svg11.dtd">
<svg version="1.1" id="图层_1" xmlns="http://www.w3.org/2000/svg" xmlns:xlink="http://www.w3.org/1999/xlink" x="0px" y="0px"
	 width="1000px" height="1000px" viewBox="0 0 1000 1000" enable-background="new 0 0 1000 1000" xml:space="preserve">
<g>
	<path fill="#595DA1" d="M499.5,0.5c-276.128,0-500,223.872-500,500c0,276.15,223.872,500,500,500c276.15,0,500-223.85,500-500
		C999.5,224.372,775.649,0.5,499.5,0.5z M499.5,978.278c-263.867,0-477.778-213.911-477.778-477.778S235.632,22.722,499.5,22.722
		c263.868,0,477.778,213.911,477.778,477.778S763.367,978.278,499.5,978.278z"/>
	<path fill="#595DA1" d="M303.46,512.739c66.124-14.214,57.129-93.261,55.132-110.525c-3.244-26.649-34.581-73.199-77.116-69.531
		c-53.537,4.796-61.328,82.151-61.328,82.151C212.922,450.543,237.477,526.933,303.46,512.739z M373.675,650.196
		c-1.953,5.556-6.261,19.792-2.528,32.161c7.4,27.778,31.489,29.015,31.489,29.015h34.646v-84.656h-37.066
		C383.549,631.663,375.476,644.641,373.675,650.196z M426.214,380.166c36.513,0,66.038-42.068,66.038-94.043
		c0-51.91-29.525-93.978-66.038-93.978c-36.469,0-66.091,42.068-66.091,93.978C360.123,338.12,389.745,380.166,426.214,380.166z
		 M583.527,386.394c48.785,6.326,80.165-45.801,86.437-85.275c6.38-39.442-25.13-85.265-59.7-93.131
		c-34.657-7.954-77.908,47.537-81.814,83.713C523.762,335.938,534.786,380.101,583.527,386.394z M703.124,618.556
		c0,0-75.499-58.464-119.597-121.615c-59.766-93.153-144.694-55.262-173.09-7.888c-28.298,47.385-72.341,77.312-78.603,85.232
		c-6.358,7.813-91.243,53.646-72.428,137.392c18.869,83.658,85.048,82.053,85.048,82.053s48.774,4.796,105.382-7.856
		c56.619-12.543,105.306,3.125,105.306,3.125s132.249,44.271,168.446-40.972C759.721,662.762,703.124,618.556,703.124,618.556z
		 M476.897,745.422h-85.981c-37.109-7.378-51.888-32.769-53.776-37.065c-1.845-4.362-12.348-24.762-6.792-59.419
		c16.037-51.909,61.794-55.643,61.794-55.643H437.9v-56.25l38.976,0.564v207.813H476.897z M637,744.836h-98.915
		c-38.336-9.874-40.137-37.109-40.137-37.109v-109.44l40.137-0.629v98.329c2.431,10.503,15.451,12.37,15.451,12.37h40.755v-110.07
		H637V744.836L637,744.836z M777.017,452.703c0-18.891-15.689-75.781-73.893-75.781c-58.29,0-66.081,53.689-66.081,91.624
		c0,36.241,3.06,86.838,75.456,85.21C784.96,552.171,777.017,471.724,777.017,452.703z"/>
</g>
</svg>
