<?xml version="1.0" standalone="no"?><!DOCTYPE svg PUBLIC "-//W3C//DTD SVG 1.1//EN" "http://www.w3.org/Graphics/SVG/1.1/DTD/svg11.dtd"><svg width="200" height="200" viewBox="0 0 200 200" version="1.1" xmlns="http://www.w3.org/2000/svg" xmlns:xlink="http://www.w3.org/1999/xlink"><defs><style type="text/css"><![CDATA[
@font-face { font-family: ifont; src: url(http://at.alicdn.com/t/font_1442373896_4754455.eot?#iefix) format(embedded-opentype), url(http://at.alicdn.com/t/font_1442373896_4754455.woff) format(woff), url(http://at.alicdn.com/t/font_1442373896_4754455.ttf) format(truetype), url(http://at.alicdn.com/t/font_1442373896_4754455.svg#ifont) format(svg); }

]]></style></defs><g class="transform-group"><g transform="scale(0.1953125, 0.1953125)"><path d="M512 995.555556c-266.632533 0-483.555556-216.923022-483.555556-483.555556S245.367467 28.444444 512 28.444444s483.555556 216.923022 483.555556 483.555556S778.632533 995.555556 512 995.555556zM512 85.333333C276.736 85.333333 85.333333 276.736 85.333333 512s191.402667 426.666667 426.666667 426.666667 426.666667-191.402667 426.666667-426.666667S747.264 85.333333 512 85.333333zM512 727.8336c-30.742756 0-57.130667-9.861689-79.166578-29.582222-22.0416-19.723378-38.334578-46.390044-48.890311-80s-15.832178-69.028978-15.832178-106.251378c0-37.037511 5.230933-72.359822 15.695644-105.972622 10.459022-33.609956 26.806044-60.322133 49.026844-80.139378 22.223644-19.8144 48.611556-29.7216 79.166578-29.7216 30.737067 0 57.176178 9.861689 79.305956 29.582222 22.126933 19.723378 38.4256 46.390044 48.890311 80 10.459022 33.609956 15.695644 69.028978 15.695644 106.251378 0 37.040356-5.185422 72.2688-15.556267 105.693867-10.373689 33.427911-26.624 60.140089-48.750933 80.139378C569.452089 717.832533 542.9248 727.8336 512 727.8336zM511.860622 686.722844c29.946311 0 51.720533-16.014222 65.308444-48.056889 13.587911-32.036978 20.386133-74.257067 20.386133-126.665956 0-52.4032-6.798222-94.626133-20.386133-126.665956-13.587911-32.036978-35.362133-48.056889-65.308444-48.056889-29.952 0-51.675022 16.019911-65.174756 48.056889-13.499733 32.039822-20.243911 74.262756-20.243911 126.665956 0 52.408889 6.744178 94.631822 20.243911 126.665956C460.1856 670.705778 481.908622 686.722844 511.860622 686.722844z" fill="#000000"></path></g></g></svg>