<?xml version="1.0" encoding="utf-8"?>
<!-- Generator: Adobe Illustrator 16.0.0, SVG Export Plug-In . SVG Version: 6.00 Build 0)  -->
<!DOCTYPE svg PUBLIC "-//W3C//DTD SVG 1.1//EN" "http://www.w3.org/Graphics/SVG/1.1/DTD/svg11.dtd">
<svg version="1.1" id="图层_1" xmlns="http://www.w3.org/2000/svg" xmlns:xlink="http://www.w3.org/1999/xlink" x="0px" y="0px"
	 width="200px" height="200px" viewBox="0 0 200 200" enable-background="new 0 0 200 200" xml:space="preserve">
<g>
	<g transform="scale(0.1953125, 0.1953125)">
		<path d="M511.999,995.552c-266.632,0-483.554-216.924-483.554-483.554c0-266.632,216.922-483.554,483.554-483.554
			c266.629,0,483.554,216.922,483.554,483.554C995.552,778.628,778.628,995.552,511.999,995.552z M511.999,85.332
			c-235.264,0-426.666,191.402-426.666,426.666s191.402,426.669,426.666,426.669s426.669-191.405,426.669-426.669
			S747.263,85.332,511.999,85.332z M434.664,717.558c6.295-37.225,15.23-67.92,26.805-92.09c11.572-24.16,27.822-53.19,48.752-87.08
			l112.222-180.555H410.776v-51.39h263.887v51.39c-35.555,52.22-64.815,99.165-87.775,140.832
			c-22.965,41.662-42.41,80.882-58.335,117.637c-15.93,36.765-26.205,70.515-30.835,101.255H434.664z"/>
	</g>
</g>
</svg>
