<?xml version="1.0" standalone="no"?><!DOCTYPE svg PUBLIC "-//W3C//DTD SVG 1.1//EN" "http://www.w3.org/Graphics/SVG/1.1/DTD/svg11.dtd"><svg width="128" height="128" viewBox="0 0 128 128" version="1.1" xmlns="http://www.w3.org/2000/svg" xmlns:xlink="http://www.w3.org/1999/xlink"><defs><style type="text/css"><![CDATA[
@font-face { font-family: ifont; src: url("http://at.alicdn.com/t/font_1442373896_4754455.eot?#iefix") format("embedded-opentype"), url("http://at.alicdn.com/t/font_1442373896_4754455.woff") format("woff"), url("http://at.alicdn.com/t/font_1442373896_4754455.ttf") format("truetype"), url("http://at.alicdn.com/t/font_1442373896_4754455.svg#ifont") format("svg"); }

]]></style></defs><g class="transform-group"><g transform="scale(0.125, 0.125)"><path d="M127.613446 382.558929c-70.40142 0-127.470183 57.06774-127.470183 127.470183s57.06774 127.470183 127.470183 127.470183S255.083629 580.430532 255.083629 510.028089 198.014866 382.558929 127.613446 382.558929zM127.613446 595.008552c-46.933939 0-84.97944-38.045501-84.97944-84.97944 0-46.933939 38.045501-84.97944 84.97944-84.97944 46.933939 0 84.97944 38.045501 84.97944 84.97944C212.593909 556.963051 174.548408 595.008552 127.613446 595.008552zM892.432499 382.558929c-70.40142 0-127.470183 57.06774-127.470183 127.470183s57.06774 127.470183 127.470183 127.470183 127.470183-57.06774 127.470183-127.470183S962.833919 382.558929 892.432499 382.558929zM892.432499 595.008552c-46.933939 0-84.97944-38.045501-84.97944-84.97944 0-46.933939 38.045501-84.97944 84.97944-84.97944s84.97944 38.045501 84.97944 84.97944C977.412962 556.963051 939.367461 595.008552 892.432499 595.008552zM510.022972 382.558929c-70.40142 0-127.470183 57.06774-127.470183 127.470183s57.06774 127.470183 127.470183 127.470183S637.493156 580.430532 637.493156 510.028089 580.424392 382.558929 510.022972 382.558929zM510.022972 595.008552c-46.933939 0-84.97944-38.045501-84.97944-84.97944 0-46.933939 38.045501-84.97944 84.97944-84.97944 46.933939 0 84.97944 38.045501 84.97944 84.97944C595.003436 556.963051 556.957935 595.008552 510.022972 595.008552z" fill="#272636"></path></g></g></svg>